# Blender v3.0.1 OBJ File: 'props.blend'
# www.blender.org
mtllib Bed_Pillow.mtl
o Bed_Pillow_LOD0_Bed_Pillow.001
v -0.170105 0.116306 0.176594
v -0.166546 0.118615 0.146961
v -0.323587 0.064968 0.016209
v -0.322328 0.080894 -0.126877
v -0.363223 0.059427 -0.174529
v -0.408316 0.017143 -0.265213
v -0.315684 0.094935 0.142070
v -0.352159 0.075471 0.169270
v -0.367657 0.014566 0.007615
v -0.356110 0.100145 0.186840
v -0.309796 0.108657 0.206231
v -0.257588 0.028530 -0.238562
v -0.317483 0.068787 -0.197135
v -0.126809 0.085749 -0.195851
v -0.159154 0.109449 -0.143845
v -0.135133 0.095735 0.011246
v -0.016773 0.089116 0.002441
v -0.017605 0.129909 0.136665
v 0.095282 0.066477 -0.003445
v 0.080466 0.094751 0.127736
v 0.117763 0.073186 0.133268
v -0.021413 0.105147 -0.148882
v 0.072232 0.087282 -0.147119
v 0.063323 0.074561 -0.210448
v 0.108366 0.065911 -0.208929
v 0.172491 0.043299 0.259977
v 0.125933 0.099159 0.185100
v 0.078472 0.113747 0.190944
v -0.016976 0.122264 0.172754
v -0.020269 0.085621 0.218931
v -0.358840 -0.007045 -0.238300
v -0.371033 -0.019815 -0.122161
v -0.317549 -0.028609 -0.178584
v -0.364813 -0.027093 0.024006
v -0.300057 -0.034190 0.207936
v -0.279660 0.015559 0.248437
v -0.141862 -0.021784 0.210801
v -0.022013 0.027534 0.225944
v -0.219509 -0.023626 -0.200860
v -0.094136 -0.015290 -0.010290
v 0.088898 -0.034965 0.178289
v 0.073997 0.023715 0.236180
v 0.132028 -0.052126 0.221420
v 0.104596 -0.032478 0.002714
v -0.090639 -0.015768 -0.201045
v -0.081726 0.006312 -0.238031
v -0.062510 0.038172 -0.243030
v 0.067025 -0.030289 -0.188175
v 0.057579 0.026153 -0.258850
v 0.133462 -0.014695 -0.001961
v 0.144209 -0.011235 0.194431
v 0.145555 0.038965 0.145701
v 0.133762 0.021351 -0.004100
v 0.123733 -0.021826 -0.174230
v 0.099531 -0.008590 -0.257241
v 0.138246 -0.004086 -0.248327
v 0.133418 0.019268 -0.207364
v 0.073453 0.050350 0.239316
v -0.143427 0.084349 0.216609
v -0.302397 0.074830 0.235990
v -0.350357 0.007762 0.251174
v -0.396226 0.072624 0.265741
v -0.375054 0.008328 0.221075
vt 0.274707 0.147806
vt 0.272231 0.140043
vt 0.285983 0.140043
vt 0.273689 0.132434
vt 0.285541 0.133004
vt 0.285268 0.129344
vt 0.288683 0.130387
vt 0.292382 0.125406
vt 0.285457 0.147075
vt 0.275116 0.150457
vt 0.288561 0.148150
vt 0.291621 0.139337
vt 0.288744 0.150522
vt 0.285368 0.151078
vt 0.292366 0.154296
vt 0.285295 0.154518
vt 0.292045 0.149210
vt 0.281214 0.125187
vt 0.271403 0.129436
vt 0.264370 0.140028
vt 0.264684 0.147624
vt 0.255898 0.140031
vt 0.257573 0.147045
vt 0.254464 0.147197
vt 0.251032 0.140043
vt 0.250718 0.147342
vt 0.264365 0.132577
vt 0.257589 0.132997
vt 0.254371 0.130015
vt 0.250802 0.129901
vt 0.257907 0.129560
vt 0.250362 0.125399
vt 0.257704 0.125211
vt 0.266722 0.125183
vt 0.250311 0.154338
vt 0.254082 0.150568
vt 0.257625 0.150903
vt 0.264605 0.150400
vt 0.264501 0.154740
vt 0.273449 0.154666
vt 0.257599 0.154648
vt 0.250587 0.157443
vt 0.254203 0.159295
vt 0.253135 0.164997
vt 0.257222 0.162457
vt 0.253031 0.172211
vt 0.257909 0.181540
vt 0.268926 0.182249
vt 0.258960 0.185031
vt 0.277860 0.184390
vt 0.269108 0.187597
vt 0.277922 0.187371
vt 0.264260 0.161672
vt 0.272884 0.172287
vt 0.273694 0.161962
vt 0.274552 0.159461
vt 0.261674 0.156911
vt 0.285872 0.181005
vt 0.284845 0.184840
vt 0.288828 0.184138
vt 0.291976 0.186963
vt 0.287540 0.172577
vt 0.285347 0.163144
vt 0.288024 0.159625
vt 0.284950 0.157187
vt 0.276014 0.156944
vt 0.289984 0.172531
vt 0.290167 0.182491
vt 0.292406 0.179921
vt 0.292678 0.172592
vt 0.289455 0.163975
vt 0.292222 0.157816
vt 0.292652 0.162412
vt 0.284714 0.187379
vt 0.257348 0.187326
vt 0.250277 0.186661
vt 0.253878 0.184192
vt 0.251033 0.182145
vt 0.249964 0.171456
vn -0.1000 0.9927 -0.0670
vn -0.0426 0.9981 -0.0436
vn -0.4835 0.8740 -0.0479
vn -0.0632 0.9852 -0.1591
vn -0.3322 0.9432 -0.0016
vn -0.1452 0.8935 -0.4250
vn -0.5722 0.8187 -0.0474
vn -0.8808 0.4569 -0.1239
vn -0.3147 0.9200 -0.2334
vn -0.0446 0.9417 0.3335
vn -0.8645 0.3692 -0.3411
vn -0.8213 0.4192 -0.3869
vn -0.6188 0.7348 -0.2778
vn -0.0142 0.9541 0.2991
vn -0.5527 0.8307 0.0669
vn 0.1703 0.0506 0.9841
vn -0.7733 -0.6094 0.1750
vn -0.4311 0.4416 -0.7869
vn -0.0260 0.8129 -0.5818
vn 0.1045 0.9910 -0.0838
vn 0.1133 0.9931 -0.0290
vn 0.5274 0.8474 -0.0616
vn 0.3614 0.9074 -0.2144
vn 0.6926 0.6770 -0.2491
vn 0.9992 -0.0217 -0.0349
vn 0.9723 -0.2318 -0.0288
vn 0.0824 0.9852 -0.1500
vn 0.3320 0.9428 -0.0310
vn 0.5300 0.7378 -0.4180
vn 0.9938 -0.0961 0.0557
vn 0.1397 0.8398 -0.5245
vn 0.7860 0.3819 -0.4862
vn -0.0205 -0.1676 -0.9856
vn -0.0744 -0.0374 -0.9965
vn 0.5344 0.8321 0.1486
vn 0.6160 0.7855 -0.0594
vn 0.1361 0.9493 0.2834
vn 0.0552 0.9308 0.3613
vn -0.0737 -0.0838 0.9937
vn 0.3320 0.7467 0.5764
vn -0.1740 -0.2925 0.9403
vn -0.0973 -0.8426 -0.5296
vn -0.6243 -0.7810 0.0202
vn -0.1007 -0.9837 -0.1491
vn -0.7006 -0.7136 0.0000
vn -0.1142 -0.9222 0.3695
vn 0.0659 -0.8610 0.5042
vn 0.1151 -0.2317 0.9660
vn 0.0040 -0.2062 0.9785
vn 0.0471 -0.9596 -0.2775
vn -0.0061 -0.9999 -0.0126
vn -0.0176 -0.9646 -0.2630
vn -0.0587 -0.5332 -0.8439
vn -0.0053 -0.9852 0.1714
vn -0.2389 -0.3671 0.8990
vn 0.2476 -0.9327 0.2622
vn 0.2546 -0.9668 -0.0238
vn 0.0331 -0.9892 -0.1426
vn 0.1416 -0.5497 -0.8233
vn 0.8566 -0.5135 -0.0510
vn 0.8422 -0.4849 -0.2355
vn 0.6507 -0.7586 -0.0316
vn -0.2523 -0.5934 0.7644
usemtl M_Interior
s 1
f 2/1/1 16/2/2 3/3/3
f 16/2/2 15/4/4 3/3/3
f 3/3/3 15/4/4 4/5/5
f 15/4/4 13/6/6 4/5/5
f 4/5/5 13/6/6 5/7/7
f 13/6/6 6/8/8 5/7/7
f 5/7/7 3/3/3 4/5/5
f 3/3/3 7/9/9 2/1/1
f 7/9/9 1/10/10 2/1/1
f 7/9/9 3/3/3 8/11/11
f 8/11/11 3/3/3 9/12/12
f 3/3/3 5/7/7 9/12/12
f 5/7/7 6/8/8 9/12/12
f 8/11/11 10/13/13 7/9/9
f 7/9/9 10/13/13 11/14/14
f 10/13/13 62/15/15 11/14/14
f 11/14/14 62/15/15 60/16/16
f 7/9/9 11/14/14 1/10/10
f 1/10/10 11/14/14 60/16/16
f 62/15/15 10/13/13 8/11/11
f 62/15/15 8/11/11 63/17/17
f 63/17/17 8/11/11 9/12/12
f 6/8/8 13/6/6 12/18/18
f 12/18/18 13/6/6 14/19/19
f 13/6/6 15/4/4 14/19/19
f 16/2/2 2/1/1 17/20/20
f 2/1/1 18/21/21 17/20/20
f 17/20/20 18/21/21 19/22/22
f 18/21/21 20/23/23 19/22/22
f 20/23/23 21/24/24 19/22/22
f 19/22/22 21/24/24 53/25/25
f 21/24/24 52/26/26 53/25/25
f 16/2/2 17/20/20 15/4/4
f 15/4/4 17/20/20 22/27/27
f 17/20/20 19/22/22 22/27/27
f 22/27/27 19/22/22 23/28/28
f 23/28/28 19/22/22 25/29/29
f 19/22/22 53/25/25 25/29/29
f 25/29/29 53/25/25 57/30/30
f 15/4/4 22/27/27 24/31/31
f 22/27/27 23/28/28 24/31/31
f 24/31/31 23/28/28 25/29/29
f 25/29/29 57/30/30 56/32/32
f 25/29/29 56/32/32 24/31/31
f 56/32/32 49/33/33 24/31/31
f 49/33/33 47/34/34 24/31/31
f 24/31/31 47/34/34 14/19/19
f 14/19/19 47/34/34 12/18/18
f 52/26/26 21/24/24 26/35/35
f 26/35/35 21/24/24 27/36/36
f 21/24/24 20/23/23 27/36/36
f 27/36/36 20/23/23 28/37/37
f 20/23/23 29/38/38 28/37/37
f 28/37/37 29/38/38 30/39/39
f 29/38/38 59/40/40 30/39/39
f 59/40/40 29/38/38 1/10/10
f 1/10/10 29/38/38 2/1/1
f 29/38/38 18/21/21 2/1/1
f 26/35/35 27/36/36 28/37/37
f 26/35/35 28/37/37 58/41/41
f 58/41/41 28/37/37 30/39/39
f 6/42/8 31/43/42 32/44/43
f 31/43/42 33/45/44 32/44/43
f 32/44/43 33/45/44 34/46/45
f 33/45/44 35/47/46 34/46/45
f 35/47/46 37/48/47 36/49/48
f 37/48/47 38/50/49 36/49/48
f 36/49/48 38/50/49 59/51/40
f 38/50/49 30/52/39 59/51/40
f 31/43/42 39/53/50 33/45/44
f 33/45/44 39/53/50 35/47/46
f 39/53/50 40/54/51 35/47/46
f 35/47/46 40/54/51 37/48/47
f 40/54/51 39/53/50 45/55/52
f 45/55/52 39/53/50 46/56/53
f 46/56/53 31/43/42 12/57/18
f 31/43/42 6/42/8 12/57/18
f 40/54/51 41/58/54 37/48/47
f 37/48/47 41/58/54 38/50/49
f 38/50/49 41/58/54 42/59/55
f 41/58/54 43/60/56 42/59/55
f 42/59/55 43/60/56 26/61/35
f 41/58/54 40/54/51 44/62/57
f 44/62/57 40/54/51 45/55/52
f 44/62/57 45/55/52 48/63/58
f 48/63/58 45/55/52 55/64/59
f 45/55/52 46/56/53 55/64/59
f 55/64/59 46/56/53 49/65/33
f 46/56/53 47/66/34 49/65/33
f 48/63/58 50/67/60 44/62/57
f 44/62/57 50/67/60 41/58/54
f 50/67/60 51/68/61 41/58/54
f 41/58/54 51/68/61 43/60/56
f 51/68/61 26/61/35 43/60/56
f 26/61/35 51/68/61 52/69/26
f 52/69/26 51/68/61 53/70/25
f 51/68/61 50/67/60 53/70/25
f 53/70/25 50/67/60 54/71/62
f 50/67/60 48/63/58 54/71/62
f 54/71/62 48/63/58 55/64/59
f 55/64/59 49/65/33 56/72/32
f 55/64/59 56/72/32 54/71/62
f 56/72/32 57/73/30 54/71/62
f 54/71/62 57/73/30 53/70/25
f 38/50/49 42/59/55 30/52/39
f 30/52/39 42/59/55 58/74/41
f 42/59/55 26/61/35 58/74/41
f 59/51/40 60/75/16 36/49/48
f 60/75/16 62/76/15 36/49/48
f 36/49/48 62/76/15 61/77/63
f 61/77/63 62/76/15 63/78/17
f 61/77/63 63/78/17 35/47/46
f 35/47/46 63/78/17 34/46/45
f 63/78/17 9/79/12 34/46/45
f 34/46/45 9/79/12 32/44/43
f 32/44/43 9/79/12 6/42/8
f 61/77/63 35/47/46 36/49/48
f 20/23/23 18/21/21 29/38/38
f 15/4/4 24/31/31 14/19/19
f 1/10/10 60/16/16 59/40/40
f 39/53/50 31/43/42 46/56/53
f 12/57/18 47/66/34 46/56/53
