# Blender v3.0.1 OBJ File: 'props.blend'
# www.blender.org
mtllib Blanket_rolled_single.mtl
o Blanket_single_Rolled_LOD0_Plane.002
v 0.186292 -0.015085 -0.097808
v 0.205106 -0.017849 -0.279569
v 0.032479 -0.004905 -0.307422
v -0.039207 -0.012629 -0.308859
v -0.132663 0.004654 -0.321033
v -0.153717 0.047448 -0.324846
v -0.152825 0.108125 -0.334134
v -0.133723 0.139409 -0.329233
v -0.110155 0.142448 -0.329241
v -0.036686 0.193730 -0.321258
v 0.045307 0.198605 -0.311410
v 0.133773 0.197726 -0.310489
v 0.235587 0.143313 -0.299781
v 0.237641 0.044359 -0.276043
v 0.095545 -0.019772 -0.262282
v -0.186635 0.082363 -0.321665
v -0.153168 0.159697 -0.318947
v -0.035561 0.222214 -0.313756
v 0.219834 0.192547 -0.296646
v 0.313976 0.083936 -0.287583
v 0.093829 -0.011281 -0.151937
v 0.046898 -0.023513 -0.141653
v -0.170405 0.004102 -0.316685
v -0.219451 0.110354 -0.182070
v 0.087337 -0.005436 -0.106811
v 0.072961 0.270305 -0.166655
v 0.164781 0.253995 -0.145903
v 0.270480 0.185357 -0.155713
v -0.140317 -0.032289 -0.146314
v 0.269732 0.004579 -0.232419
v 0.043837 -0.018803 -0.097628
v -0.181108 -0.012676 -0.093010
v -0.178314 0.187903 -0.168689
v 0.111830 0.265290 -0.051751
v 0.189837 0.223198 -0.045574
v 0.086998 -0.005392 -0.018435
v -0.056148 0.259281 -0.130919
v 0.187999 0.217891 -0.008691
v 0.081845 -0.004602 0.099864
v -0.027879 -0.024131 0.070859
v -0.220639 0.028604 -0.038569
v -0.226576 0.119049 -0.034983
v -0.134324 0.219054 0.000398
v 0.078007 0.258474 0.117185
v 0.306213 0.123214 -0.132524
v -0.173628 -0.015850 0.105564
v -0.202551 0.176432 0.066220
v 0.174287 -0.025338 0.031537
v 0.081352 -0.004615 0.186178
v -0.252239 0.122646 0.123818
v 0.267100 0.060495 0.274218
v -0.227030 0.013560 0.088601
v -0.053462 0.250744 0.128712
v 0.277932 0.161210 0.048412
v 0.150506 -0.019072 0.181913
v -0.069467 -0.026382 0.160832
v -0.282902 0.121743 0.248191
v 0.279009 0.114306 0.214858
v 0.078457 -0.019966 0.254374
v -0.245917 0.192742 0.220579
v -0.156109 0.243958 0.239703
v 0.090505 0.271453 0.246852
v 0.287858 0.133839 0.281467
v 0.226149 0.013827 0.306621
v 0.124498 -0.006848 0.327864
v -0.146128 -0.025296 0.303644
v -0.242241 0.027016 0.299085
v -0.235747 0.185396 0.280518
v -0.079592 0.265772 0.272676
v 0.199203 0.235563 0.292880
v 0.276906 0.107165 0.322432
v 0.087095 -0.004231 0.338440
v 0.036927 -0.006889 0.329199
v -0.032423 -0.011583 0.327626
v -0.152566 0.008503 0.314910
v -0.189381 0.030959 0.314853
v -0.213239 0.079064 0.303593
v -0.210746 0.133473 0.292042
v -0.170810 0.177744 0.282348
v -0.097562 0.212996 0.290472
v 0.012549 0.227553 0.297684
v 0.114848 0.217261 0.304143
v 0.163265 0.194380 0.311321
v 0.217479 0.149985 0.333644
v 0.225079 0.111165 0.340590
v 0.200302 0.059774 0.344326
v 0.162119 0.014408 0.356283
v 0.086077 -0.014134 -0.307800
v -0.095829 -0.029466 -0.300820
v 0.099285 0.225769 -0.308955
vt 0.142148 0.702312
vt 0.150314 0.706682
vt 0.139604 0.706125
vt 0.137104 0.697289
vt 0.145403 0.734964
vt 0.137097 0.731136
vt 0.139209 0.727551
vt 0.366387 0.724928
vt 0.367022 0.732907
vt 0.359125 0.732345
vt 0.372030 0.724518
vt 0.374981 0.734281
vt 0.379560 0.726082
vt 0.147961 0.714782
vt 0.150676 0.714785
vt 0.148441 0.724891
vt 0.151780 0.727330
vt 0.155377 0.730763
vt 0.155392 0.712065
vt 0.150038 0.712264
vt 0.381881 0.714280
vt 0.384411 0.725226
vt 0.146919 0.695136
vt 0.172591 0.699218
vt 0.368590 0.709500
vt 0.369451 0.719005
vt 0.359084 0.722313
vt 0.374792 0.719079
vt 0.161281 0.718214
vt 0.164260 0.726240
vt 0.163612 0.730012
vt 0.375043 0.717010
vt 0.174399 0.702720
vt 0.158109 0.707069
vt 0.155419 0.736363
vt 0.162521 0.711928
vt 0.167644 0.711614
vt 0.166948 0.720044
vt 0.166730 0.736444
vt 0.344890 0.716133
vt 0.344920 0.705760
vt 0.349449 0.710031
vt 0.354416 0.714560
vt 0.360724 0.707901
vt 0.385007 0.704387
vt 0.168936 0.695953
vt 0.171848 0.711450
vt 0.356062 0.701024
vt 0.175465 0.723275
vt 0.360883 0.699898
vt 0.176312 0.708451
vt 0.167162 0.707758
vt 0.346012 0.697506
vt 0.351324 0.697732
vt 0.350158 0.700677
vt 0.176068 0.696744
vt 0.173449 0.694773
vt 0.175539 0.735459
vt 0.175820 0.728942
vt 0.179185 0.730035
vt 0.366180 0.698317
vt 0.376176 0.700781
vt 0.379427 0.696987
vt 0.384121 0.697297
vt 0.137080 0.712727
vt 0.136908 0.702875
vt 0.194369 0.746096
vt 0.195238 0.740426
vt 0.199410 0.744473
vt 0.194857 0.737536
vt 0.189627 0.736416
vt 0.369162 0.734437
vt 0.363706 0.734200
vt 0.351430 0.734517
vt 0.351149 0.732885
vt 0.352894 0.735071
vt 0.349127 0.735321
vt 0.170534 0.741723
vt 0.168801 0.739531
vt 0.171175 0.738315
vt 0.139718 0.723404
vt 0.138150 0.725937
vt 0.138076 0.720470
vt 0.147245 0.712035
vt 0.140223 0.712110
vt 0.178217 0.705946
vt 0.385025 0.735321
vt 0.344605 0.725595
vt 0.350377 0.724253
vt 0.369797 0.702738
vt 0.176735 0.713449
vt 0.176734 0.717389
vt 0.383886 0.700259
vt 0.177149 0.710531
vt 0.177915 0.726663
vt 0.177383 0.724079
vt 0.354672 0.696196
vt 0.359647 0.697176
vt 0.320666 0.741509
vt 0.315764 0.744776
vt 0.315437 0.741654
vt 0.350986 0.694539
vt 0.178407 0.702069
vt 0.372111 0.698816
vt 0.375190 0.698186
vt 0.381302 0.695398
vt 0.179185 0.698600
vt 0.358550 0.733857
vt 0.136895 0.728375
vt 0.346147 0.734743
vt 0.312849 0.739218
vt 0.314455 0.747623
vt 0.312250 0.748965
vt 0.304938 0.750557
vt 0.308175 0.737555
vt 0.301360 0.737143
vt 0.300672 0.750523
vt 0.295123 0.738085
vt 0.297539 0.750611
vt 0.292720 0.749976
vt 0.292210 0.739538
vt 0.288934 0.742387
vt 0.288557 0.744623
vt 0.290218 0.747460
vt 0.184301 0.735448
vt 0.184353 0.747653
vt 0.181224 0.746585
vt 0.179266 0.734848
vt 0.176812 0.746275
vt 0.174217 0.736897
vt 0.171332 0.744317
vt 0.172761 0.736825
vt 0.136926 0.716109
vn 0.6428 -0.7563 -0.1217
vn 0.0259 -0.9993 -0.0276
vn 0.2600 -0.7560 -0.6008
vn 0.7752 -0.0629 -0.6286
vn -0.9752 0.1490 -0.1639
vn -0.7601 0.0155 -0.6496
vn -0.5837 -0.5337 -0.6120
vn 0.0403 0.9905 -0.1314
vn 0.1094 0.6504 -0.7516
vn -0.1541 0.7163 -0.6806
vn 0.3770 0.9241 -0.0624
vn 0.4433 0.6010 -0.6650
vn 0.7168 0.6949 -0.0581
vn 0.1512 -0.9863 0.0660
vn 0.1822 -0.9815 0.0586
vn -0.2445 -0.9696 -0.0117
vn -0.5381 -0.8429 -0.0076
vn -0.9323 -0.3502 -0.0905
vn 0.0188 -0.9998 -0.0011
vn 0.1073 -0.9916 0.0725
vn 0.7797 0.6226 0.0666
vn 0.9757 0.2172 0.0294
vn 0.8839 -0.4501 0.1272
vn 0.1440 0.9885 -0.0453
vn 0.2158 0.9731 0.0809
vn -0.2852 0.9564 -0.0628
vn 0.4559 0.8768 0.1533
vn 0.0620 -0.9980 0.0108
vn -0.2905 -0.9568 -0.0075
vn -0.8042 -0.5903 -0.0691
vn 0.4641 0.8748 0.1390
vn 0.5564 -0.7305 0.3959
vn 0.1004 -0.9949 0.0059
vn -0.9717 0.2217 -0.0820
vn -0.0182 -0.9998 0.0044
vn -0.0235 -0.9933 -0.1135
vn 0.0093 -0.9997 -0.0231
vn -0.9564 0.1761 -0.2331
vn -0.6631 0.7373 -0.1291
vn -0.4205 0.9068 0.0284
vn -0.1765 0.9725 -0.1517
vn 0.9869 0.1600 0.0206
vn 0.0580 -0.9982 0.0130
vn -0.3922 0.9180 0.0586
vn -0.2336 -0.8301 0.5062
vn -0.1750 0.8509 0.4954
vn 0.1326 -0.9421 0.3081
vn 0.0607 -0.9977 0.0312
vn -0.9588 0.0776 0.2732
vn -0.5257 0.4754 0.7054
vn -0.7254 0.6862 -0.0542
vn 0.7762 -0.0229 0.6301
vn 0.9480 0.3051 0.0901
vn -0.6919 -0.4317 0.5787
vn -0.2812 0.1988 0.9389
vn -0.0401 0.3434 0.9383
vn 0.4222 0.7773 0.4664
vn 0.1587 0.3449 0.9251
vn 0.0713 -0.6565 -0.7510
vn -0.0279 -0.0122 -0.9995
vn 0.1150 -0.0407 -0.9925
vn 0.1120 0.0899 -0.9896
vn 0.0496 0.0169 -0.9986
vn -0.0526 0.2054 -0.9773
vn -0.5365 0.5647 -0.6271
vn 0.0146 0.0995 -0.9949
vn -0.0364 0.0318 -0.9988
vn -0.0787 -0.1015 -0.9917
vn -0.0788 -0.8802 -0.4681
vn -0.0157 -0.3194 -0.9475
vn 0.0378 -0.2703 -0.9620
vn 0.1060 -0.9905 0.0880
vn -0.0370 -0.9984 -0.0426
vn 0.1397 -0.4228 0.8954
vn -0.6884 0.7103 -0.1472
vn 0.1331 0.9781 0.1601
vn -0.0491 -0.4356 0.8988
vn -0.0091 -0.5423 0.8402
vn -0.1283 -0.5509 0.8246
vn -0.1176 -0.0475 0.9919
vn -0.1243 -0.1244 0.9844
vn -0.0743 0.1784 0.9811
vn -0.1774 0.2767 0.9444
vn -0.2321 0.1631 0.9589
vn 0.3662 -0.1315 0.9212
vn -0.0328 0.3594 0.9326
vn -0.0306 0.3301 0.9435
vn 0.1410 0.0999 0.9850
vn 0.0469 0.1324 -0.9901
vn 0.0150 0.0243 -0.9996
usemtl M_Interior
s 1
f 30/1/1 1/2/2 2/3/3
f 20/4/4 30/1/1 2/3/3
f 24/5/5 16/6/6 23/7/7
f 26/8/8 90/9/9 18/10/10
f 27/11/11 19/12/12 90/9/9
f 27/11/11 28/13/13 19/12/12
f 22/14/14 31/15/15 29/16/16
f 32/17/17 23/7/7 29/16/16
f 23/7/7 41/18/18 24/5/5
f 36/19/19 31/15/15 25/20/20
f 54/21/21 45/22/22 28/13/13
f 45/23/22 51/24/23 20/4/4
f 51/24/23 30/1/1 20/4/4
f 44/25/24 34/26/25 37/27/26
f 35/28/27 27/11/11 34/26/25
f 36/19/19 40/29/28 31/15/15
f 31/15/15 40/29/28 29/16/16
f 40/29/28 46/30/29 32/17/17
f 52/31/30 41/18/18 32/17/17
f 38/32/31 54/21/21 35/28/27
f 51/24/23 64/33/32 30/1/1
f 64/33/32 48/34/33 30/1/1
f 52/31/30 42/35/34 41/18/18
f 39/36/35 49/37/36 40/29/28
f 44/25/24 54/21/21 38/32/31
f 56/38/37 46/30/29 40/29/28
f 52/31/30 50/39/38 42/35/34
f 42/40/34 50/41/38 47/42/39
f 43/43/40 53/44/41 44/25/24
f 44/25/24 38/32/31 34/26/25
f 54/21/21 58/45/42 45/22/22
f 58/46/42 51/24/23 45/23/22
f 49/37/36 59/47/43 56/38/37
f 47/42/39 61/48/44 53/44/41
f 66/49/45 46/30/29 56/38/37
f 61/48/44 69/50/46 53/44/41
f 65/51/47 59/47/43 55/52/48
f 59/47/43 66/49/45 56/38/37
f 57/53/49 68/54/50 60/55/51
f 68/54/50 61/48/44 60/55/51
f 71/56/52 51/24/23 63/57/53
f 71/56/52 64/33/32 51/24/23
f 57/58/49 67/59/54 77/60/55
f 69/50/46 81/61/56 70/62/57
f 70/62/57 84/63/58 71/64/52
f 88/65/59 14/66/60 2/3/3
f 14/67/60 13/68/61 20/69/4
f 19/70/12 13/68/61 12/71/62
f 90/9/9 12/72/62 11/73/63
f 8/74/64 17/75/65 9/76/66
f 17/75/65 8/74/64 7/77/67
f 6/78/68 16/79/6 7/80/67
f 89/81/69 5/82/70 4/83/71
f 1/2/2 25/20/20 21/84/72
f 2/3/3 21/84/72 15/85/73
f 22/14/14 25/20/20 31/15/15
f 65/51/47 64/33/32 87/86/74
f 30/1/1 48/34/33 1/2/2
f 55/52/48 64/33/32 65/51/47
f 15/85/73 22/14/14 88/65/59
f 88/65/59 29/16/16 89/81/69
f 89/81/69 29/16/16 23/7/7
f 19/12/12 28/13/13 20/87/4
f 17/75/65 24/88/5 33/89/75
f 88/65/59 22/14/14 29/16/16
f 18/10/10 33/89/75 37/27/26
f 33/89/75 42/40/34 47/42/39
f 18/10/10 37/27/26 26/8/8
f 90/9/9 26/8/8 27/11/11
f 20/87/4 28/13/13 45/22/22
f 32/17/17 41/18/18 23/7/7
f 24/5/5 41/18/18 42/35/34
f 34/26/25 26/8/8 37/27/26
f 33/89/75 43/43/40 37/27/26
f 44/25/24 70/62/57 54/21/21
f 27/11/11 54/21/21 28/13/13
f 29/16/16 40/29/28 32/17/17
f 35/28/27 54/21/21 27/11/11
f 46/30/29 52/31/30 32/17/17
f 33/89/75 47/42/39 43/43/40
f 35/28/27 34/26/25 38/32/31
f 36/19/19 39/36/35 40/29/28
f 37/27/26 43/43/40 44/25/24
f 49/37/36 56/38/37 40/29/28
f 43/43/40 47/42/39 53/44/41
f 50/41/38 60/55/51 47/42/39
f 52/31/30 57/58/49 50/39/38
f 50/41/38 57/53/49 60/55/51
f 53/44/41 62/90/76 44/25/24
f 67/59/54 46/30/29 66/49/45
f 64/33/32 55/52/48 48/34/33
f 66/49/45 73/91/77 74/92/78
f 47/42/39 60/55/51 61/48/44
f 53/44/41 69/50/46 62/90/76
f 70/62/57 58/45/42 54/21/21
f 52/31/30 67/59/54 57/58/49
f 70/62/57 63/93/53 58/45/42
f 58/46/42 63/57/53 51/24/23
f 59/47/43 65/51/47 66/49/45
f 68/54/50 69/50/46 61/48/44
f 62/90/76 69/50/46 70/62/57
f 63/93/53 70/62/57 71/64/52
f 72/94/79 73/91/77 65/51/47
f 76/95/80 66/49/45 75/96/81
f 66/49/45 74/92/78 75/96/81
f 69/50/46 79/97/82 80/98/83
f 67/59/54 76/95/80 77/60/55
f 57/99/49 77/100/55 78/101/84
f 78/102/84 79/97/82 68/54/50
f 64/33/32 86/103/85 87/86/74
f 80/98/83 81/61/56 69/50/46
f 70/62/57 81/61/56 82/104/86
f 70/62/57 82/104/86 83/105/87
f 70/62/57 83/105/87 84/63/58
f 84/63/58 85/106/88 71/64/52
f 85/107/88 86/103/85 71/56/52
f 11/73/63 18/10/10 90/9/9
f 14/66/60 20/4/4 2/3/3
f 19/70/12 20/69/4 13/68/61
f 90/9/9 19/12/12 12/72/62
f 9/76/66 18/10/10 10/108/89
f 6/109/68 23/7/7 16/6/6
f 7/77/67 16/110/6 17/75/65
f 4/83/71 88/65/59 89/81/69
f 89/81/69 23/7/7 5/82/70
f 79/111/82 77/100/55 76/112/80
f 75/113/81 79/111/82 76/112/80
f 75/113/81 74/114/78 80/115/83
f 81/116/56 80/115/83 74/114/78
f 73/117/77 81/116/56 74/114/78
f 73/117/77 82/118/86 81/116/56
f 73/117/77 72/119/79 82/118/86
f 65/51/47 87/86/74 72/94/79
f 72/119/79 87/120/74 82/118/86
f 83/121/87 82/118/86 87/120/74
f 84/122/58 83/121/87 87/120/74
f 85/123/88 84/122/58 86/124/85
f 86/124/85 84/122/58 87/120/74
f 49/37/36 55/52/48 59/47/43
f 39/36/35 55/52/48 49/37/36
f 39/36/35 36/19/19 48/34/33
f 36/19/19 1/2/2 48/34/33
f 15/85/73 88/65/59 2/3/3
f 14/67/60 12/71/62 13/68/61
f 11/125/63 88/126/59 3/127/90
f 3/127/90 10/128/89 11/125/63
f 4/129/71 9/130/66 10/128/89
f 6/78/68 9/130/66 5/131/70
f 7/80/67 8/132/64 6/78/68
f 68/54/50 57/53/49 78/102/84
f 2/3/3 1/2/2 21/84/72
f 22/14/14 21/84/72 25/20/20
f 15/85/73 21/84/72 22/14/14
f 17/75/65 16/110/6 24/88/5
f 18/10/10 17/75/65 33/89/75
f 33/89/75 24/88/5 42/40/34
f 34/26/25 27/11/11 26/8/8
f 44/25/24 62/90/76 70/62/57
f 67/59/54 52/31/30 46/30/29
f 66/49/45 65/51/47 73/91/77
f 76/95/80 67/59/54 66/49/45
f 69/50/46 68/54/50 79/97/82
f 64/33/32 71/56/52 86/103/85
f 11/73/63 10/108/89 18/10/10
f 9/76/66 17/75/65 18/10/10
f 6/109/68 5/82/70 23/7/7
f 4/83/71 3/133/90 88/65/59
f 79/111/82 78/101/84 77/100/55
f 75/113/81 80/115/83 79/111/82
f 39/36/35 48/34/33 55/52/48
f 36/19/19 25/20/20 1/2/2
f 14/67/60 88/126/59 12/71/62
f 11/125/63 12/71/62 88/126/59
f 3/127/90 4/129/71 10/128/89
f 4/129/71 5/131/70 9/130/66
f 6/78/68 8/132/64 9/130/66
