# Blender v3.0.1 OBJ File: 'props.blend'
# www.blender.org
mtllib Bookshelf06.mtl
o Bookshelf06_LOD0_Bookshelf06.001
v -0.669934 0.228653 0.168343
v 0.669015 0.228629 0.168343
v -0.670274 0.228668 -0.161212
v 0.668674 0.227027 -0.162631
v -0.670246 0.188477 -0.161284
v -0.670274 0.228668 -0.161212
v 0.668703 0.188477 -0.162704
v 0.668674 0.227027 -0.162631
v -0.669916 1.214783 0.168343
v 0.669033 1.214783 0.168343
v -0.670256 1.214783 -0.154124
v 0.668692 1.214783 -0.155544
v -0.669917 1.181656 0.168343
v -0.670257 1.181656 -0.154126
v 0.669032 1.181656 0.168343
v 0.668692 1.181656 -0.155547
v -0.670257 1.181656 -0.154126
v -0.670256 1.214783 -0.154124
v 0.668692 1.181656 -0.155547
v 0.668692 1.214783 -0.155544
v -0.669923 0.875123 0.168343
v -0.023770 0.875112 0.168343
v -0.670186 0.875135 -0.081225
v -0.024033 0.875123 -0.081911
v -0.669923 0.852043 0.168343
v -0.670186 0.852054 -0.081226
v -0.023770 0.852031 0.168343
v -0.024034 0.852043 -0.081911
v -0.670186 0.852054 -0.081226
v -0.670186 0.875135 -0.081225
v -0.024034 0.852043 -0.081911
v -0.024033 0.875123 -0.081911
v -0.669929 0.553238 0.168343
v -0.023776 0.553227 0.168343
v -0.670191 0.553249 -0.081243
v -0.024039 0.553237 -0.081928
v -0.669929 0.530158 0.168343
v -0.670192 0.530169 -0.081244
v -0.023776 0.530146 0.168343
v -0.024040 0.530157 -0.081929
v -0.670192 0.530169 -0.081244
v -0.670191 0.553249 -0.081243
v -0.024040 0.530157 -0.081929
v -0.024039 0.553237 -0.081928
v -0.704575 0.188477 0.168343
v -0.704556 1.214783 0.168343
v -0.704922 0.188477 -0.161248
v -0.704904 1.214783 -0.161192
v -0.704556 1.214783 0.168343
v -0.669916 1.214783 0.168343
v -0.704904 1.214783 -0.161192
v -0.670264 1.214783 -0.161229
v -0.669935 0.188477 0.168343
v -0.670283 0.188477 -0.161284
v -0.669916 1.214783 0.168343
v -0.670264 1.214783 -0.161229
v -0.670283 0.188477 -0.161284
v -0.704922 0.188477 -0.161248
v -0.670264 1.214783 -0.161229
v -0.704904 1.214783 -0.161192
v -0.704556 1.214783 0.168343
v -0.704575 0.188477 0.168343
v -0.669916 1.214783 0.168343
v -0.669935 0.188477 0.168343
v 0.669020 0.188477 0.168343
v 0.669038 1.214783 0.168343
v 0.668666 0.188477 -0.162704
v 0.668685 1.214783 -0.162649
v 0.669033 1.214783 0.168343
v 0.703672 1.214783 0.168343
v 0.668685 1.214783 -0.162649
v 0.703325 1.214783 -0.162685
v 0.703306 0.188477 -0.162741
v -0.704922 0.188477 -0.161248
v 0.703647 0.188477 0.168181
v -0.704582 0.188477 0.168253
v 0.703654 0.188477 0.168343
v 0.703306 0.188477 -0.162741
v 0.703672 1.214783 0.168343
v 0.703325 1.214783 -0.162685
v 0.703306 0.188477 -0.162741
v 0.668666 0.188477 -0.162704
v 0.703325 1.214783 -0.162685
v 0.668685 1.214783 -0.162649
v 0.669033 1.214783 0.168343
v 0.669014 0.188477 0.168343
v 0.703672 1.214783 0.168343
v 0.703654 0.188477 0.168343
v -0.023782 0.228641 0.168343
v -0.023764 1.181656 0.168343
v -0.024048 0.228652 -0.084833
v -0.024031 1.181656 -0.084782
v 0.010858 0.228641 0.168343
v 0.010592 0.228652 -0.084870
v 0.010875 1.181656 0.168343
v 0.010609 1.181656 -0.084818
v 0.010592 0.228652 -0.084870
v -0.024048 0.228652 -0.084833
v 0.010609 1.181656 -0.084818
v -0.024031 1.181656 -0.084782
v -0.008153 0.188544 0.168343
v -0.669966 0.188609 0.168343
v -0.008068 1.214783 0.168343
v -0.669917 1.214783 0.168343
v -0.669919 1.181656 0.168343
v -0.669966 0.188609 0.168343
v -0.008070 1.214783 0.168343
v -0.008152 0.188544 0.168343
v 0.669095 0.188477 0.168343
v 0.669032 1.214783 0.168343
v 0.669032 1.214783 0.168343
v -0.008068 1.214783 0.168343
v 0.669095 0.188477 0.168343
v -0.008153 0.188544 0.168343
v -0.556482 1.181656 -0.114182
v -0.559478 0.237316 -0.107167
v 0.118505 1.181656 -0.108857
v 0.115510 0.235224 -0.101842
v 0.115691 0.235052 -0.124922
v -0.559296 0.237144 -0.130245
v 0.118687 1.181656 -0.131936
v -0.556300 1.181656 -0.137261
v 0.115510 0.235224 -0.101842
v 0.115691 0.235052 -0.124922
v 0.118505 1.181656 -0.108857
v 0.118687 1.181656 -0.131936
v -0.556482 1.181656 -0.114182
v -0.556300 1.181656 -0.137261
v -0.559478 0.237316 -0.107167
v -0.559296 0.237144 -0.130245
v -0.491702 0.768716 -0.156781
v -0.491426 0.755141 -0.159857
v -0.491928 0.754896 -0.133558
v -0.491884 0.768887 -0.133661
v -0.500458 0.768914 -0.133728
v -0.500626 0.657834 -0.156029
v -0.500808 0.658005 -0.132908
v -0.492235 0.657979 -0.132840
v -0.492190 0.671970 -0.132944
v -0.491690 0.671333 -0.159237
v -0.500764 0.671996 -0.133012
v -0.500502 0.754923 -0.133625
v -0.492053 0.671841 -0.150269
v -0.500366 0.754794 -0.150949
v -0.491792 0.754768 -0.150882
v -0.500637 0.755169 -0.159930
v -0.500276 0.768742 -0.156849
v -0.500901 0.671361 -0.159309
v -0.492052 0.657807 -0.155961
v -0.500628 0.671868 -0.150336
v 0.175711 0.244750 -0.094560
v 0.029613 0.728494 -0.094560
v 0.175711 0.244750 0.168343
v 0.029613 0.728494 0.168343
v 0.140486 0.234112 -0.094560
v -0.005611 0.717856 -0.094560
v 0.029613 0.728494 -0.094560
v 0.029613 0.728494 0.168343
v -0.005611 0.717856 -0.094560
v -0.005611 0.717856 0.168343
v 0.252687 0.244750 -0.050063
v 0.252687 0.565585 -0.050063
v 0.252687 0.244750 0.168343
v 0.252687 0.565585 0.168343
v 0.175711 0.244750 -0.050063
v 0.175711 0.565585 -0.050063
v 0.175711 0.244750 0.168343
v 0.175711 0.565585 0.168343
v 0.252687 0.565585 -0.050063
v 0.252687 0.565585 0.168343
v 0.175711 0.565585 -0.050063
v 0.175711 0.565585 0.168343
v -0.629175 0.228653 0.018871
v -0.629175 0.472228 0.018871
v -0.629175 0.228653 0.168343
v -0.629175 0.472228 0.168343
v -0.669934 0.228653 0.018871
v -0.669934 0.472228 0.018871
v -0.669934 0.228653 0.168343
v -0.669934 0.472228 0.168343
v -0.629175 0.472228 0.018871
v -0.629175 0.472228 0.168343
v -0.669934 0.472228 0.018871
v -0.669934 0.472228 0.168343
v -0.524131 0.239258 0.003695
v -0.592810 0.465763 0.003695
v -0.524131 0.239258 0.163444
v -0.592810 0.465763 0.163444
v -0.560496 0.228232 0.003695
v -0.629175 0.454736 0.003695
v -0.560497 0.228232 0.163444
v -0.629175 0.454736 0.163444
v -0.592810 0.465763 0.003695
v -0.592810 0.465763 0.163444
v -0.629175 0.454736 0.003695
v -0.629175 0.454736 0.163444
v -0.415421 0.260412 -0.105435
v -0.553296 0.483770 -0.105435
v -0.415421 0.260412 0.076807
v -0.553296 0.483770 0.076806
v -0.454935 0.236021 -0.105435
v -0.592810 0.459378 -0.105435
v -0.454935 0.236021 0.164311
v -0.592810 0.459378 0.164311
v -0.553296 0.483770 -0.105435
v -0.553296 0.483770 0.076806
v -0.592810 0.459378 -0.105435
v -0.592810 0.459378 0.076806
v -0.619735 0.586567 -0.017380
v -0.442361 0.586567 0.038254
v -0.654887 0.586567 0.094693
v -0.477513 0.586567 0.150327
v -0.619735 0.605755 -0.017380
v -0.442361 0.605755 0.038254
v -0.654887 0.605755 0.094693
v -0.477513 0.605755 0.150327
v -0.654887 0.586567 0.094693
v -0.477513 0.586567 0.150327
v -0.654887 0.605755 0.094693
v -0.477513 0.605755 0.150327
v -0.657056 0.553249 0.048285
v -0.377147 0.553249 -0.069174
v -0.657056 0.586567 0.048285
v -0.377147 0.586567 -0.069174
v -0.590383 0.586567 0.157528
v -0.310474 0.586567 0.089709
v 0.614315 0.853046 -0.025279
v 0.330753 0.853046 -0.134159
v 0.573653 0.853046 0.147564
v 0.254038 0.853046 0.065636
v 0.614315 0.228629 -0.025279
v 0.330753 0.228629 -0.134159
v 0.244430 0.875276 0.061684
v 0.482616 0.875276 0.061684
v 0.330753 0.853046 -0.134159
v 0.244430 0.875276 -0.134159
v 0.254038 0.853046 0.065636
v 0.330753 0.228629 -0.134159
v 0.482616 0.875276 -0.134159
v 0.254038 0.228629 0.065636
v -0.188999 0.875124 -0.013715
v -0.188999 1.154542 -0.013715
v -0.669922 0.875124 -0.013715
v -0.669922 1.154542 -0.013715
v -0.669922 0.875124 0.168343
v -0.669922 1.154542 0.168343
v -0.188999 1.154542 -0.013715
v -0.188999 0.875124 0.162988
v -0.188999 1.154542 0.162988
v -0.669922 1.154542 -0.013715
v -0.669922 0.875124 0.162988
v -0.669922 1.154542 0.162988
v 0.614315 0.853046 -0.025279
v 0.573653 0.853046 0.147564
v 0.614315 0.228629 -0.025279
v 0.573653 0.228629 0.147564
v 0.175711 0.244750 -0.094560
v 0.175711 0.244750 0.168343
v 0.140486 0.234112 -0.094560
v 0.140486 0.234112 0.168343
v -0.524131 0.239258 0.003695
v -0.524131 0.239258 0.163444
v -0.560496 0.228232 0.003695
v -0.560497 0.228232 0.163444
v -0.619735 0.586567 -0.017380
v -0.654887 0.586567 0.094693
v -0.619735 0.605755 -0.017380
v -0.654887 0.605755 0.094693
v 0.482616 0.853046 -0.134159
v 0.244430 0.853046 -0.134159
v 0.482616 0.853046 0.061684
v 0.244430 0.853046 0.061684
v 0.244430 0.875276 -0.134159
v 0.244430 0.875276 0.061684
v 0.244430 0.853046 -0.134159
v 0.244430 0.853046 0.061684
v 0.482616 0.875276 -0.134159
v 0.482616 0.875276 0.061684
v 0.482616 0.853046 -0.134159
v 0.482616 0.853046 0.061684
vt 0.103338 0.100353
vt 0.135159 0.111431
vt 0.103338 0.111431
vt 0.069683 0.117184
vt 0.081683 0.114996
vt 0.081683 0.117184
vt 0.069683 0.115718
vt 0.093153 0.117184
vt 0.069683 0.117184
vt 0.135143 0.100353
vt 0.103338 0.111445
vt 0.103338 0.100353
vt 0.189241 0.143085
vt 0.138562 0.126841
vt 0.189241 0.126841
vt 0.200725 0.134181
vt 0.150079 0.117919
vt 0.200725 0.117919
vt 0.107079 0.113657
vt 0.069683 0.115876
vt 0.069683 0.113657
vt 0.081693 0.114962
vt 0.069683 0.117184
vt 0.069683 0.114962
vt 0.191426 0.128184
vt 0.144580 0.140644
vt 0.144580 0.128184
vt 0.069683 0.114665
vt 0.118327 0.112478
vt 0.118327 0.114665
vt 0.107061 0.114961
vt 0.069683 0.117184
vt 0.069683 0.114961
vt 0.189953 0.128450
vt 0.139283 0.126729
vt 0.189953 0.126729
vt 0.189241 0.143113
vt 0.138562 0.126841
vt 0.138562 0.143113
vt 0.135174 0.100356
vt 0.069260 0.114661
vt 0.069260 0.100356
vt 0.104137 0.117184
vt 0.069683 0.115727
vt 0.104137 0.115727
vt 0.135204 0.134181
vt 0.201098 0.118280
vt 0.201098 0.134181
vt 0.103362 0.100353
vt 0.135159 0.111431
vt 0.103362 0.111431
vt 0.069683 0.113613
vt 0.118327 0.115800
vt 0.069683 0.115800
vt 0.047433 0.095156
vt 0.034970 0.141333
vt 0.034970 0.095156
vt 0.135204 0.134181
vt 0.201098 0.134181
vt 0.201098 0.118280
vt 0.135143 0.100353
vt 0.103338 0.111445
vt 0.103338 0.100353
vt 0.051032 0.094964
vt 0.034767 0.142187
vt 0.051032 0.142187
vt 0.135174 0.114661
vt 0.069260 0.100353
vt 0.135174 0.100353
vt 0.069683 0.117184
vt 0.104256 0.114962
vt 0.104256 0.117184
vt 0.149508 0.117119
vt 0.185788 0.142337
vt 0.185788 0.117121
vt 0.149508 0.117119
vt 0.185791 0.142923
vt 0.185791 0.117121
vt 0.034772 0.142091
vt 0.067412 0.094341
vt 0.067412 0.142091
vt 0.145725 0.129202
vt 0.196401 0.127484
vt 0.196401 0.129202
vt 0.002160 0.141493
vt 0.034970 0.095156
vt 0.034970 0.141493
vt 0.104140 0.115691
vt 0.069683 0.117184
vt 0.069683 0.115691
vt 0.139193 0.143039
vt 0.174808 0.117714
vt 0.174808 0.143039
vt 0.139193 0.143039
vt 0.174805 0.117714
vt 0.174805 0.143039
vt 0.828248 0.947374
vt 0.828228 0.946754
vt 0.828632 0.947026
vt 0.828370 0.947588
vt 0.828863 0.947429
vt 0.828893 0.947948
vt 0.833014 0.945049
vt 0.833393 0.944740
vt 0.833429 0.945347
vt 0.827554 0.947644
vt 0.827744 0.948011
vt 0.833261 0.944468
vt 0.832783 0.944646
vt 0.832754 0.944127
vt 0.831034 0.944545
vt 0.832016 0.944550
vt 0.831279 0.944973
vt 0.827258 0.945955
vt 0.826435 0.945922
vt 0.827026 0.945551
vt 0.834122 0.944414
vt 0.833937 0.944048
vt 0.831738 0.941810
vt 0.827903 0.943537
vt 0.831502 0.941442
vt 0.830651 0.943537
vt 0.830487 0.945930
vt 0.830468 0.944961
vt 0.830891 0.945699
vt 0.831270 0.943214
vt 0.830883 0.943940
vt 0.501389 0.507205
vt 0.508687 0.507999
vt 0.501389 0.507999
vt 0.481629 0.549870
vt 0.474331 0.538959
vt 0.481629 0.538959
vt 0.482423 0.538959
vt 0.485175 0.550009
vt 0.489891 0.552321
vt 0.485175 0.552321
vt 0.500599 0.551920
vt 0.505315 0.559870
vt 0.500599 0.559870
vt 0.493570 0.551920
vt 0.498286 0.559870
vt 0.493570 0.559870
vt 0.498286 0.551920
vt 0.502257 0.550009
vt 0.506973 0.551289
vt 0.502257 0.551289
vt 0.489176 0.507999
vt 0.493892 0.515649
vt 0.489176 0.515649
vt 0.483180 0.507999
vt 0.487896 0.515649
vt 0.483180 0.515649
vt 0.487896 0.507999
vt 0.502824 0.539800
vt 0.508493 0.540994
vt 0.502824 0.540994
vt 0.502743 0.518416
vt 0.508412 0.525850
vt 0.502743 0.525850
vt 0.495880 0.518416
vt 0.501549 0.525850
vt 0.495880 0.525850
vt 0.501550 0.518416
vt 0.465549 0.509862
vt 0.459826 0.508404
vt 0.465549 0.508404
vt 0.500752 0.559870
vt 0.506476 0.568114
vt 0.500752 0.568114
vt 0.493570 0.559870
vt 0.499294 0.568114
vt 0.493570 0.568114
vt 0.498151 0.537547
vt 0.504398 0.536903
vt 0.504398 0.537548
vt 0.503518 0.529697
vt 0.507465 0.535944
vt 0.503518 0.535944
vt 0.498926 0.535944
vt 0.502873 0.529697
vt 0.502873 0.535944
vt 0.483180 0.525850
vt 0.488970 0.515649
vt 0.488970 0.525850
vt 0.490090 0.525850
vt 0.449274 0.555205
vt 0.472508 0.549870
vt 0.472508 0.555205
vt 0.454610 0.528371
vt 0.449274 0.535944
vt 0.449274 0.528371
vt 0.494120 0.551769
vt 0.489891 0.551289
vt 0.494120 0.551289
vt 0.477844 0.535944
vt 0.477844 0.528371
vt 0.459658 0.545923
vt 0.449274 0.549869
vt 0.449274 0.545923
vt 0.449274 0.539890
vt 0.459658 0.539890
vt 0.449274 0.515529
vt 0.453220 0.521562
vt 0.449274 0.521562
vt 0.453220 0.515529
vt 0.463604 0.521562
vt 0.472508 0.549870
vt 0.449274 0.555205
vt 0.472508 0.555205
vt 0.508687 0.507999
vt 0.501389 0.507205
vt 0.501389 0.507999
vt 0.508493 0.540994
vt 0.502824 0.539800
vt 0.502824 0.540994
vt 0.494204 0.536903
vt 0.498151 0.537547
vt 0.498151 0.536903
vt 0.473055 0.510386
vt 0.477284 0.515529
vt 0.473055 0.515529
vt 0.468347 0.510386
vt 0.472575 0.515529
vt 0.468347 0.515529
vt 0.472575 0.510386
vt 0.489891 0.551289
vt 0.494120 0.551769
vt 0.494120 0.551289
vt 0.135159 0.100353
vt 0.135143 0.111445
vt 0.138562 0.143085
vt 0.150079 0.134181
vt 0.191426 0.140644
vt 0.139283 0.128450
vt 0.189241 0.126841
vt 0.135174 0.114661
vt 0.135204 0.118280
vt 0.135159 0.100353
vt 0.047433 0.141333
vt 0.135204 0.118280
vt 0.135143 0.111445
vt 0.034767 0.094964
vt 0.069260 0.114661
vt 0.149508 0.142335
vt 0.149508 0.142921
vt 0.034772 0.094341
vt 0.145725 0.127484
vt 0.002160 0.095156
vt 0.139193 0.117714
vt 0.139193 0.117714
vt 0.827382 0.946987
vt 0.831771 0.944122
vt 0.826639 0.946277
vt 0.828231 0.948552
vt 0.834307 0.945127
vt 0.833416 0.943495
vt 0.828107 0.943892
vt 0.830065 0.945193
vt 0.831474 0.943569
vt 0.508687 0.507205
vt 0.474331 0.549870
vt 0.482423 0.549870
vt 0.489891 0.550009
vt 0.505315 0.551920
vt 0.506973 0.550009
vt 0.493892 0.507999
vt 0.508493 0.539800
vt 0.508412 0.518416
vt 0.459826 0.509862
vt 0.506476 0.559870
vt 0.499294 0.559870
vt 0.498151 0.536903
vt 0.507465 0.529697
vt 0.498926 0.529697
vt 0.483180 0.515649
vt 0.490090 0.515649
vt 0.449274 0.549870
vt 0.454610 0.535944
vt 0.489891 0.551769
vt 0.459658 0.549869
vt 0.463604 0.515529
vt 0.449274 0.549870
vt 0.508687 0.507205
vt 0.508493 0.539800
vt 0.494204 0.537547
vt 0.477284 0.510386
vt 0.489891 0.551769
vt 0.069683 0.115714
vt 0.093147 0.117184
vt 0.069683 0.117184
vt 0.069683 0.114996
vt 0.093153 0.115718
vt 0.107079 0.115876
vt 0.081693 0.117184
vt 0.069683 0.112478
vt 0.107061 0.117184
vt 0.069683 0.117184
vt 0.118327 0.113613
vt 0.069683 0.114962
vt 0.104140 0.117184
vt 0.093147 0.115714
vn -0.0000 -1.0000 -0.0000
vn 0.0000 1.0000 0.0000
vn -0.0011 0.0000 -1.0000
vn -1.0000 0.0000 0.0011
vn -0.0011 0.0001 -1.0000
vn -0.0010 0.0001 -1.0000
vn 1.0000 -0.0000 -0.0011
vn -0.0011 0.0019 -1.0000
vn -0.0011 0.0018 -1.0000
vn 0.0000 0.0000 1.0000
vn 1.0000 -0.0000 -0.0010
vn 0.0010 1.0000 -0.0041
vn 0.0002 1.0000 -0.0007
vn 1.0000 -0.0031 0.0079
vn 0.0000 0.0000 -1.0000
vn -1.0000 0.0031 -0.0079
vn -0.0079 0.0074 0.9999
vn -0.0079 0.0075 0.9999
vn 0.0079 -0.0074 -0.9999
vn 0.5947 0.6296 -0.4999
vn 0.8970 -0.2977 0.3269
vn 0.7012 0.0817 -0.7082
vn -0.5826 0.6337 -0.5089
vn -0.6916 0.0869 -0.7170
vn -0.9031 -0.2914 0.3153
vn -0.6922 -0.0932 -0.7157
vn -0.5866 -0.6375 -0.4996
vn -0.9013 0.3017 0.3110
vn 0.7093 0.7049 0.0003
vn -0.7048 0.7093 -0.0108
vn 0.5907 -0.6407 -0.4905
vn 0.7006 -0.0966 -0.7069
vn 0.8989 0.2968 0.3225
vn 0.7093 0.7049 0.0004
vn -0.7093 -0.7049 -0.0004
vn 0.7048 -0.7093 0.0108
vn -0.7093 -0.7049 -0.0003
vn 0.7049 -0.7093 0.0108
vn -0.2891 0.9573 -0.0000
vn 0.9573 0.2891 0.0000
vn 1.0000 0.0000 0.0000
vn -1.0000 0.0000 -0.0000
vn -0.2902 0.9570 0.0000
vn 0.9570 0.2902 0.0000
vn -0.9570 -0.2902 -0.0000
vn -0.5253 0.8509 -0.0000
vn 0.8509 0.5253 0.0000
vn -0.8509 -0.5253 -0.0000
vn -0.2993 0.0000 0.9542
vn 0.2993 0.0000 -0.9542
vn -0.3869 0.0000 -0.9221
vn -0.9335 0.0000 -0.3585
vn 0.3585 0.0000 -0.9335
vn 0.9734 0.0000 0.2290
vn 0.2891 -0.9573 0.0000
vn 0.2902 -0.9570 0.0000
vn -0.9542 0.0000 -0.2993
vn 0.0012 1.0000 -0.0048
vn 0.0079 -0.0075 -0.9999
vn -0.7049 0.7093 -0.0108
usemtl M_Interior
s 1
f 26/1/1 27/2/1 25/3/1
f 72/4/2 69/5/2 70/6/2
f 30/7/3 31/8/3 29/9/3
f 34/10/2 35/11/2 33/12/2
f 48/13/4 45/14/4 46/15/4
f 68/16/4 65/17/4 66/18/4
f 60/19/5 57/20/6 58/21/6
f 52/22/2 49/23/2 50/24/2
f 96/25/7 93/26/7 94/27/7
f 8/28/8 5/29/9 6/30/9
f 84/31/5 81/32/5 82/33/5
f 64/34/10 61/35/10 62/36/10
f 80/37/11 77/38/11 78/39/11
f 2/40/12 3/41/13 1/42/2
f 125/43/14 124/44/14 126/45/14
f 10/46/2 11/47/2 9/48/2
f 38/49/1 39/50/1 37/51/1
f 19/52/5 18/53/3 20/54/5
f 92/55/4 89/56/4 90/57/4
f 75/58/1 76/59/1 74/60/1
f 22/61/2 23/62/2 21/63/2
f 56/64/7 53/65/7 54/66/7
f 14/67/1 15/68/1 13/69/1
f 97/70/5 100/71/6 99/72/6
f 103/73/10 102/74/10 101/75/10
f 114/76/10 111/77/10 112/78/10
f 107/79/15 106/80/15 105/81/15
f 86/82/10 87/83/10 85/84/10
f 110/85/15 108/86/15 107/87/15
f 127/88/16 130/89/16 129/90/16
f 116/91/17 117/92/17 115/93/18
f 119/94/19 122/95/19 121/96/19
f 131/97/20 145/98/21 132/99/22
f 147/100/23 146/101/24 144/102/25
f 148/103/26 136/104/27 150/105/28
f 134/106/29 147/100/23 135/107/30
f 134/106/29 145/98/21 131/97/20
f 149/108/31 140/109/32 143/110/33
f 150/111/28 139/112/34 143/113/33
f 140/114/32 136/115/27 148/116/26
f 132/99/22 143/110/33 140/109/32
f 144/102/25 135/107/30 147/100/23
f 146/101/24 150/105/28 144/102/25
f 137/117/35 150/105/28 136/104/27
f 143/110/33 138/118/36 149/108/31
f 149/108/31 137/117/35 136/104/27
f 144/119/25 143/120/33 145/121/21
f 146/122/24 140/114/32 148/116/26
f 142/123/37 145/124/21 133/125/38
f 147/126/23 132/127/22 146/122/24
f 158/128/39 159/129/39 160/130/39
f 152/131/40 153/132/40 151/133/40
f 155/134/15 152/131/15 151/133/15
f 170/135/2 171/136/2 172/137/2
f 162/138/41 163/139/41 161/140/41
f 168/141/42 165/142/42 167/143/42
f 166/144/15 161/140/15 165/142/15
f 182/145/2 183/146/2 184/147/2
f 174/148/41 175/149/41 173/150/41
f 180/151/42 177/152/42 179/153/42
f 178/154/15 173/150/15 177/152/15
f 194/155/43 195/156/43 196/157/43
f 186/158/44 187/159/44 185/160/44
f 192/161/45 189/162/45 191/163/45
f 190/164/15 185/160/15 189/162/15
f 206/165/46 207/166/46 208/167/46
f 198/168/47 199/169/47 197/170/47
f 204/171/48 201/172/48 203/173/48
f 201/172/15 198/168/15 197/170/15
f 218/174/49 219/175/49 217/176/49
f 210/177/1 211/178/1 209/179/1
f 215/180/2 214/181/2 213/182/2
f 214/181/50 209/179/50 213/182/50
f 225/183/2 224/184/2 223/185/2
f 224/184/51 221/186/51 223/185/51
f 237/187/52 238/188/52 240/189/52
f 227/190/2 230/191/2 229/192/2
f 274/193/42 275/194/42 276/195/42
f 232/196/53 227/190/53 231/197/53
f 249/198/2 250/199/2 252/200/2
f 249/198/10 251/201/10 248/202/10
f 246/203/42 243/204/42 245/205/42
f 244/206/15 241/207/15 243/204/15
f 255/208/54 254/209/54 256/210/54
f 259/211/55 258/212/55 260/213/55
f 263/214/56 262/215/56 264/216/56
f 267/217/57 266/218/57 268/219/57
f 236/220/2 234/221/2 239/222/2
f 272/223/1 269/224/1 271/225/1
f 270/226/15 239/222/15 269/224/15
f 279/227/41 278/228/41 280/229/41
f 26/1/1 28/230/1 27/2/1
f 34/10/2 36/231/2 35/11/2
f 48/13/4 47/232/4 45/14/4
f 68/16/4 67/233/4 65/17/4
f 96/25/7 95/234/7 93/26/7
f 64/34/10 63/235/10 61/35/10
f 80/37/11 79/236/11 77/38/11
f 2/40/12 4/237/58 3/41/13
f 10/46/2 12/238/2 11/47/2
f 38/49/1 40/239/1 39/50/1
f 92/55/4 91/240/4 89/56/4
f 75/58/1 74/60/1 73/241/1
f 22/61/2 24/242/2 23/62/2
f 56/64/7 55/243/7 53/65/7
f 14/67/1 16/244/1 15/68/1
f 103/73/10 104/245/10 102/74/10
f 114/76/10 113/246/10 111/77/10
f 107/79/15 108/247/15 106/80/15
f 86/82/10 88/248/10 87/83/10
f 110/85/15 109/249/15 108/86/15
f 116/91/17 118/250/17 117/92/17
f 119/94/19 120/251/59 122/95/19
f 134/106/29 131/97/20 147/100/23
f 134/106/29 133/252/38 145/98/21
f 150/111/28 141/253/60 139/112/34
f 140/114/32 149/254/31 136/115/27
f 132/99/22 145/98/21 143/110/33
f 144/102/25 142/255/37 135/107/30
f 146/101/24 148/103/26 150/105/28
f 137/117/35 141/256/60 150/105/28
f 143/110/33 139/257/34 138/118/36
f 149/108/31 138/118/36 137/117/35
f 144/119/25 150/258/28 143/120/33
f 146/122/24 132/127/22 140/114/32
f 142/123/37 144/259/25 145/124/21
f 147/126/23 131/260/20 132/127/22
f 158/128/39 157/261/39 159/129/39
f 152/131/40 154/262/40 153/132/40
f 155/134/15 156/263/15 152/131/15
f 170/135/2 169/264/2 171/136/2
f 162/138/41 164/265/41 163/139/41
f 168/141/42 166/144/42 165/142/42
f 166/144/15 162/138/15 161/140/15
f 182/145/2 181/266/2 183/146/2
f 174/148/41 176/267/41 175/149/41
f 180/151/42 178/154/42 177/152/42
f 178/154/15 174/148/15 173/150/15
f 194/155/43 193/268/43 195/156/43
f 186/158/44 188/269/44 187/159/44
f 192/161/45 190/164/45 189/162/45
f 190/164/15 186/158/15 185/160/15
f 206/165/46 205/270/46 207/166/46
f 198/168/47 200/271/47 199/169/47
f 204/171/48 202/272/48 201/172/48
f 201/172/15 202/272/15 198/168/15
f 218/174/49 220/273/49 219/175/49
f 210/177/1 212/274/1 211/178/1
f 215/180/2 216/275/2 214/181/2
f 214/181/50 210/177/50 209/179/50
f 225/183/2 226/276/2 224/184/2
f 224/184/51 222/277/51 221/186/51
f 237/187/52 235/278/52 238/188/52
f 227/190/2 228/279/2 230/191/2
f 274/193/42 273/280/42 275/194/42
f 232/196/53 228/279/53 227/190/53
f 249/198/2 247/281/2 250/199/2
f 249/198/10 252/200/10 251/201/10
f 246/203/42 244/206/42 243/204/42
f 244/206/15 242/282/15 241/207/15
f 255/208/54 253/283/54 254/209/54
f 259/211/55 257/284/55 258/212/55
f 263/214/56 261/285/56 262/215/56
f 267/217/57 265/286/57 266/218/57
f 236/220/2 233/287/2 234/221/2
f 272/223/1 270/226/1 269/224/1
f 270/226/15 236/220/15 239/222/15
f 279/227/41 277/288/41 278/228/41
f 42/289/3 43/290/3 41/291/3
f 72/4/2 71/292/2 69/5/2
f 30/7/3 32/293/3 31/8/3
f 60/19/5 59/294/5 57/20/6
f 52/22/2 51/295/2 49/23/2
f 8/28/8 7/296/8 5/29/9
f 84/31/5 83/297/5 81/32/5
f 125/43/14 123/298/14 124/44/14
f 19/52/5 17/299/3 18/53/3
f 97/70/5 98/300/5 100/71/6
f 127/88/16 128/301/16 130/89/16
f 42/289/3 44/302/3 43/290/3
