# Blender v3.0.1 OBJ File: 'props.blend'
# www.blender.org
mtllib Bookshelf02.mtl
o Bookshelf02_LOD0_Bookshelf02_LOD0.003
v -0.622814 1.121558 -0.321592
v -0.622779 1.153637 -0.321691
v 0.622710 1.152264 -0.321961
v 0.622675 1.120185 -0.321863
v 0.622819 1.153753 0.161284
v -0.622692 1.123047 0.161639
v -0.622656 1.155127 0.161541
v 0.622219 0.703492 -0.320581
v -0.623270 0.704865 -0.320310
v 0.622183 0.671055 -0.320481
v -0.623306 0.672428 -0.320211
v 0.622292 0.672544 0.162764
v -0.623183 0.673917 0.163021
v 0.654833 1.155819 0.161275
v 0.654724 1.154330 -0.321970
v 0.654179 0.668918 -0.320463
v 0.622821 1.155855 0.161277
v 0.622712 1.154365 -0.321968
v 0.622289 0.670443 0.162771
v 0.654302 0.670408 0.162768
v -0.623186 0.671816 0.163027
v -0.622777 1.155738 -0.321697
v -0.655393 1.155774 -0.321669
v -0.623308 0.670327 -0.320204
v -0.655802 0.671852 0.163056
v -0.655924 0.670363 -0.320176
v -0.622654 1.157227 0.161534
v -0.655271 1.157264 0.161563
v 0.005164 1.122355 0.161503
v 0.004708 0.705662 0.162785
v 0.005073 1.121015 -0.273405
v -0.016704 1.121039 -0.273418
v 0.004616 0.704322 -0.272123
v -0.017160 0.704346 -0.272136
v 0.622181 0.668954 -0.320474
v -0.623147 0.706354 0.162921
v -0.016581 1.122379 0.161522
v -0.017037 0.705686 0.162804
v 0.622327 0.704982 0.162664
v 0.622004 0.703447 -0.293731
v 0.622784 1.121675 0.161382
v -0.016396 1.120949 -0.273411
v 0.004309 0.704412 -0.272130
v -0.622692 1.123047 0.151389
v -0.623147 0.706354 0.152671
v 0.622327 0.704982 0.152414
v 0.622784 1.121675 0.151132
v 0.151343 0.720535 -0.299864
v 0.102082 0.704336 -0.299864
v 0.102082 0.704336 -0.081444
v 0.001911 1.008965 -0.081444
v 0.051172 1.025163 -0.299864
v 0.051172 1.025163 -0.081444
v 0.001911 1.008965 -0.299864
v 0.485534 0.715792 -0.116776
v 0.383721 1.074747 -0.116776
v 0.383721 1.074747 0.096608
v 0.438300 0.702395 0.096608
v 0.336488 1.061350 -0.116776
v 0.336488 1.061350 0.096608
v 0.120750 0.861553 -0.221349
v 0.311685 0.719158 -0.025506
v 0.120750 0.861553 -0.025506
v 0.107460 0.843733 -0.025506
v 0.107460 0.843733 -0.221349
v 0.398227 0.728501 0.038145
v 0.372098 0.702594 -0.299864
v 0.016313 1.061440 0.038145
v 0.042443 1.087347 -0.299864
v 0.042443 1.087347 0.038145
v 0.016314 1.061440 -0.299864
v 0.372098 0.702594 0.038145
v -0.053099 0.707207 -0.265713
v -0.053099 0.707207 -0.086944
v -0.089904 0.712131 -0.265713
v -0.055097 0.972275 -0.265713
v -0.055097 0.972275 -0.086944
v -0.018293 0.967350 -0.265713
v -0.018293 0.967350 -0.086944
v 0.511851 1.114520 -0.046339
v 0.553153 1.114520 -0.297651
v 0.553153 0.703447 -0.297651
v 0.580061 1.114520 -0.035129
v 0.621362 1.114520 -0.286441
v -0.473325 1.212926 -0.336778
v -0.585068 1.153637 -0.149106
v -0.168896 1.153637 -0.155516
v -0.473325 1.153637 -0.336778
v -0.585068 1.212926 -0.149106
v -0.168896 1.212926 -0.155516
v -0.539936 0.772412 -0.377646
v -0.202233 0.772412 -0.310629
v -0.253343 0.772412 -0.053082
v -0.202233 0.827687 -0.310629
v -0.591046 0.827687 -0.120099
v -0.253343 0.827687 -0.053082
v -0.575693 0.772412 -0.284856
v -0.193881 0.772412 -0.284856
v -0.575693 0.772412 -0.019766
v -0.193881 0.704865 -0.284856
v -0.193882 0.704865 -0.019766
v -0.193882 0.772412 -0.019766
v 0.352337 0.706354 -0.050943
v 0.352337 0.706354 0.157099
v -0.623147 0.706354 -0.050943
v -0.623147 1.021708 -0.050943
v -0.623147 0.706354 0.157099
v -0.623147 1.021708 0.157099
v 0.352337 1.021708 -0.050943
v 0.352337 1.021708 0.157099
v 0.151343 0.720535 -0.081444
v 0.485533 0.715792 0.096608
v 0.438300 0.702395 -0.116776
v 0.311686 0.719158 -0.221349
v 0.298395 0.701338 -0.221349
v 0.298395 0.701338 -0.025506
v 0.398227 0.728501 -0.299864
v -0.089904 0.712131 -0.086944
v 0.511851 0.703447 -0.046339
v 0.580061 0.703447 -0.035129
v 0.621362 0.703447 -0.286441
v -0.280639 1.153637 0.032156
v -0.280639 1.212926 0.032156
v -0.591046 0.772412 -0.120099
v -0.539936 0.827687 -0.377646
v -0.575693 0.704865 -0.284856
v -0.575693 0.704865 -0.019766
vt 0.070186 0.143024
vt 0.095034 0.118061
vt 0.095034 0.143024
vt 0.070159 0.143024
vt 0.095034 0.118065
vt 0.095034 0.143024
vt 0.134803 0.112979
vt 0.109949 0.114621
vt 0.109949 0.112979
vt 0.134803 0.112979
vt 0.109952 0.114679
vt 0.134803 0.114679
vt 0.200483 0.117704
vt 0.136437 0.142559
vt 0.136437 0.117704
vt 0.107401 0.112979
vt 0.134803 0.114816
vt 0.121445 0.120383
vt 0.099104 0.141812
vt 0.099104 0.120383
vt 0.200474 0.142559
vt 0.136437 0.117711
vt 0.200474 0.117711
vt 0.133630 0.112979
vt 0.069584 0.114625
vt 0.069584 0.112979
vt 0.134803 0.112979
vt 0.109949 0.114648
vt 0.134803 0.114648
vt 0.143724 0.120960
vt 0.193617 0.122261
vt 0.143724 0.122261
vt 0.070767 0.112979
vt 0.095723 0.114652
vt 0.095723 0.112979
vt 0.109955 0.112979
vt 0.134803 0.114679
vt 0.134803 0.112979
vt 0.133621 0.112979
vt 0.069584 0.114648
vt 0.069584 0.112979
vt 0.107401 0.112979
vt 0.134803 0.114816
vt 0.134803 0.112979
vt 0.121445 0.141812
vt 0.099073 0.120383
vt 0.121445 0.120383
vt 0.132638 0.093920
vt 0.071467 0.114539
vt 0.071467 0.093920
vt 0.112341 0.112979
vt 0.134803 0.114481
vt 0.112341 0.114481
vt 0.070186 0.118061
vt 0.095038 0.143024
vt 0.070186 0.143024
vt 0.132638 0.093920
vt 0.071467 0.114539
vt 0.132638 0.114539
vt 0.070159 0.143024
vt 0.095014 0.118041
vt 0.095014 0.143024
vt 0.194824 0.120157
vt 0.144931 0.121457
vt 0.144931 0.120157
vt 0.092615 0.114730
vt 0.114043 0.113614
vt 0.114043 0.114730
vt 0.200460 0.136496
vt 0.141399 0.116736
vt 0.141399 0.136496
vt 0.200474 0.117711
vt 0.136437 0.142559
vt 0.136437 0.117711
vt 0.505532 0.507999
vt 0.510248 0.509119
vt 0.505532 0.509119
vt 0.455110 0.508605
vt 0.459826 0.515529
vt 0.455110 0.515529
vt 0.449274 0.508605
vt 0.453990 0.515529
vt 0.449274 0.515529
vt 0.506555 0.509119
vt 0.511163 0.510179
vt 0.506555 0.510179
vt 0.498499 0.509119
vt 0.498499 0.510179
vt 0.501548 0.510360
vt 0.506155 0.518416
vt 0.501548 0.518416
vt 0.495880 0.510360
vt 0.500488 0.518416
vt 0.495880 0.518416
vt 0.500488 0.510360
vt 0.494120 0.551769
vt 0.489891 0.551289
vt 0.494120 0.551289
vt 0.473055 0.510386
vt 0.477284 0.515529
vt 0.473055 0.515529
vt 0.468347 0.510386
vt 0.472575 0.515529
vt 0.468347 0.515529
vt 0.501389 0.507205
vt 0.508687 0.507999
vt 0.501389 0.507999
vt 0.490478 0.507205
vt 0.490478 0.507999
vt 0.481629 0.549870
vt 0.474331 0.538959
vt 0.481629 0.538959
vt 0.489721 0.549870
vt 0.482423 0.538959
vt 0.489721 0.538959
vt 0.482423 0.549870
vt 0.499248 0.538999
vt 0.503108 0.539800
vt 0.499248 0.539800
vt 0.463685 0.515529
vt 0.459826 0.509862
vt 0.463685 0.509862
vt 0.468347 0.515529
vt 0.464487 0.509862
vt 0.468347 0.509862
vt 0.464487 0.515529
vt 0.479830 0.537547
vt 0.474331 0.536055
vt 0.479830 0.536055
vt 0.488065 0.537440
vt 0.480470 0.536163
vt 0.488065 0.536163
vt 0.495220 0.549870
vt 0.489721 0.540994
vt 0.495220 0.540994
vt 0.502257 0.550009
vt 0.506973 0.551289
vt 0.502257 0.551289
vt 0.494607 0.551289
vt 0.494607 0.550009
vt 0.489176 0.507999
vt 0.493892 0.515649
vt 0.489176 0.515649
vt 0.483180 0.507999
vt 0.487896 0.515649
vt 0.483180 0.515649
vt 0.487896 0.507999
vt 0.502824 0.539800
vt 0.508493 0.540994
vt 0.502824 0.540994
vt 0.495391 0.540994
vt 0.495391 0.539800
vt 0.502743 0.525850
vt 0.508412 0.518416
vt 0.508412 0.525850
vt 0.495880 0.518416
vt 0.501549 0.525850
vt 0.495880 0.525850
vt 0.501550 0.518416
vt 0.465549 0.509862
vt 0.459826 0.508404
vt 0.465549 0.508404
vt 0.473793 0.509862
vt 0.473793 0.508404
vt 0.500752 0.559870
vt 0.506476 0.568114
vt 0.500752 0.568114
vt 0.493570 0.559870
vt 0.499294 0.568114
vt 0.493570 0.568114
vt 0.472508 0.556813
vt 0.493570 0.552321
vt 0.493570 0.556813
vt 0.474828 0.521562
vt 0.479320 0.528371
vt 0.474828 0.528371
vt 0.449274 0.521562
vt 0.453766 0.528371
vt 0.449274 0.528371
vt 0.453766 0.521562
vt 0.510248 0.509119
vt 0.505532 0.507999
vt 0.505532 0.509119
vt 0.511163 0.510179
vt 0.506555 0.509119
vt 0.506555 0.510179
vt 0.489891 0.551289
vt 0.494120 0.551769
vt 0.494120 0.551289
vt 0.508687 0.507999
vt 0.501389 0.507205
vt 0.501389 0.507999
vt 0.503108 0.539800
vt 0.499248 0.538999
vt 0.499248 0.539800
vt 0.474331 0.536055
vt 0.479830 0.537547
vt 0.479830 0.536055
vt 0.506973 0.551289
vt 0.502257 0.550009
vt 0.502257 0.551289
vt 0.508493 0.540994
vt 0.502824 0.539800
vt 0.502824 0.540994
vt 0.459826 0.508404
vt 0.465549 0.509862
vt 0.465549 0.508404
vt 0.070186 0.118061
vt 0.070159 0.118065
vt 0.134803 0.114621
vt 0.109952 0.112979
vt 0.200483 0.142559
vt 0.107401 0.114816
vt 0.121445 0.141812
vt 0.136437 0.142559
vt 0.133630 0.114625
vt 0.109949 0.112979
vt 0.193617 0.120960
vt 0.070767 0.114652
vt 0.109955 0.114679
vt 0.133621 0.114648
vt 0.107401 0.114816
vt 0.099073 0.141812
vt 0.132638 0.114539
vt 0.095038 0.118061
vt 0.071467 0.093920
vt 0.070159 0.118041
vt 0.194824 0.121457
vt 0.092615 0.113614
vt 0.200459 0.116736
vt 0.200474 0.142559
vt 0.510248 0.507999
vt 0.459826 0.508605
vt 0.453990 0.508605
vt 0.511163 0.509119
vt 0.506155 0.510360
vt 0.489891 0.551769
vt 0.477284 0.510386
vt 0.472575 0.510386
vt 0.508687 0.507205
vt 0.474331 0.549870
vt 0.503108 0.538999
vt 0.459826 0.515529
vt 0.474331 0.537547
vt 0.480470 0.537440
vt 0.489721 0.549870
vt 0.506973 0.550009
vt 0.493892 0.507999
vt 0.508493 0.539800
vt 0.502743 0.518416
vt 0.459826 0.509862
vt 0.506476 0.559870
vt 0.499294 0.559870
vt 0.472508 0.552321
vt 0.479320 0.521562
vt 0.510248 0.507999
vt 0.511163 0.509119
vt 0.489891 0.551769
vt 0.508687 0.507205
vt 0.503108 0.538999
vt 0.474331 0.537547
vt 0.506973 0.550009
vt 0.508493 0.539800
vt 0.459826 0.509862
vn -1.0000 0.0011 0.0002
vn 0.0011 1.0000 -0.0031
vn -0.0011 -1.0000 0.0031
vn 0.0001 0.0031 1.0000
vn -1.0000 0.0011 0.0003
vn -0.0002 -0.0031 -1.0000
vn 0.0002 0.0031 1.0000
vn 0.0003 -0.0031 -1.0000
vn 0.0009 0.0031 1.0000
vn 1.0000 -0.0011 -0.0002
vn -0.0009 -0.0031 -1.0000
vn 1.0000 -0.0011 -0.0003
vn 0.0084 0.0031 1.0000
vn -0.3124 0.9500 -0.0000
vn 0.9500 0.3124 0.0000
vn -0.9500 -0.3124 -0.0000
vn 0.0000 0.0000 -1.0000
vn -0.2729 0.9620 -0.0000
vn -0.2729 0.9621 -0.0000
vn -0.0000 0.0000 1.0000
vn 0.9621 0.2729 0.0000
vn -0.9621 -0.2729 -0.0000
vn -0.8016 0.5978 -0.0000
vn 0.5978 0.8016 0.0000
vn -0.5978 -0.8016 -0.0000
vn -0.7041 0.7101 -0.0000
vn 0.7101 0.7041 0.0000
vn -0.7101 -0.7041 -0.0000
vn 0.1326 0.9912 -0.0000
vn 0.9912 -0.1326 0.0000
vn -0.9912 0.1326 -0.0000
vn 0.0000 1.0000 0.0000
vn 0.1622 0.0000 -0.9868
vn -0.9868 0.0000 -0.1622
vn -0.8592 0.0000 -0.5116
vn 0.5116 0.0000 -0.8592
vn 0.0000 -1.0000 0.0000
vn -0.5116 0.0000 0.8592
vn 0.9809 0.0000 0.1947
vn -0.1947 0.0000 0.9809
vn 0.1947 -0.0000 -0.9809
vn 1.0000 0.0000 0.0000
vn -1.0000 0.0000 -0.0000
vn 0.3124 -0.9500 -0.0000
vn 0.2729 -0.9620 0.0000
vn 0.8016 -0.5978 0.0000
vn 0.7041 -0.7101 0.0000
vn -0.1326 -0.9912 -0.0000
vn 0.8592 0.0000 0.5116
vn -0.9809 -0.0000 -0.1947
vn -0.0001 -0.0031 -1.0000
usemtl M_Interior
s 1
f 18/1/1 19/2/1 17/3/1
f 23/4/1 25/5/1 28/6/1
f 17/7/2 15/8/2 18/9/2
f 27/10/2 23/11/2 28/12/2
f 13/13/3 10/14/3 12/15/3
f 19/16/4 14/17/4 17/7/4
f 32/18/5 38/19/5 37/20/5
f 7/21/2 3/22/2 2/23/2
f 1/24/6 3/25/6 4/26/6
f 19/27/3 16/28/3 20/29/3
f 13/30/7 39/31/7 36/32/7
f 18/33/8 16/34/8 35/35/8
f 21/36/3 26/37/3 24/38/3
f 11/39/6 8/40/6 10/41/6
f 27/42/9 25/43/9 21/44/9
f 31/45/10 30/46/10 33/47/10
f 6/48/3 4/49/3 41/50/3
f 22/51/11 26/52/11 23/53/11
f 21/54/12 22/55/12 27/56/12
f 36/57/2 8/58/2 9/59/2
f 14/60/10 16/61/10 15/62/10
f 41/63/7 7/64/7 6/65/7
f 42/66/8 43/67/8 34/68/8
f 6/69/13 46/70/13 47/71/13
f 45/72/6 47/73/6 46/74/6
f 53/75/14 54/76/14 51/77/14
f 52/78/15 111/79/15 48/80/15
f 51/81/16 49/82/16 50/83/16
f 49/82/17 52/78/17 48/80/17
f 57/84/18 59/85/19 60/86/19
f 112/87/20 60/86/20 58/88/20
f 56/89/21 112/90/21 55/91/21
f 60/92/22 113/93/22 58/94/22
f 59/95/17 55/91/17 113/93/17
f 63/96/23 65/97/23 64/98/23
f 61/99/24 62/100/24 114/101/24
f 64/102/25 115/103/25 116/104/25
f 115/103/17 61/99/17 114/101/17
f 70/105/26 71/106/26 68/107/26
f 66/108/20 68/107/20 72/109/20
f 69/110/27 66/111/27 117/112/27
f 68/113/28 67/114/28 72/115/28
f 71/116/17 117/112/17 67/114/17
f 79/117/29 76/118/29 77/119/29
f 78/120/30 74/121/30 73/122/30
f 77/123/31 75/124/31 118/125/31
f 76/126/17 73/122/17 75/124/17
f 81/127/32 83/128/32 84/129/32
f 82/130/33 84/131/33 121/132/33
f 80/133/34 82/134/34 119/135/34
f 88/136/35 89/137/35 85/138/35
f 88/136/36 90/139/36 87/140/36
f 86/141/37 87/142/37 122/143/37
f 85/144/32 123/145/32 90/146/32
f 89/147/38 122/143/38 123/145/38
f 93/148/39 94/149/39 96/150/39
f 93/148/40 95/151/40 124/152/40
f 91/153/37 93/154/37 124/155/37
f 96/156/32 125/157/32 95/158/32
f 94/159/41 91/153/41 125/157/41
f 101/160/42 98/161/42 102/162/42
f 127/163/20 102/162/20 99/164/20
f 100/165/37 127/166/37 126/167/37
f 102/168/32 97/169/32 99/170/32
f 97/169/17 100/165/17 126/167/17
f 110/171/32 106/172/32 108/173/32
f 109/174/42 104/175/42 103/176/42
f 108/177/43 105/178/43 107/179/43
f 106/180/17 103/176/17 105/178/17
f 49/181/44 111/182/44 50/183/44
f 113/184/45 112/185/45 58/186/45
f 115/187/46 62/188/46 116/189/46
f 67/190/47 66/191/47 72/192/47
f 75/193/48 74/194/48 118/195/48
f 120/196/37 82/197/37 121/198/37
f 123/199/49 87/200/49 90/201/49
f 125/202/50 124/203/50 95/204/50
f 97/205/43 127/206/43 99/207/43
f 18/1/1 35/208/1 19/2/1
f 23/4/1 26/209/5 25/5/1
f 17/7/2 14/210/2 15/8/2
f 27/10/2 22/211/2 23/11/2
f 13/13/3 11/212/3 10/14/3
f 19/16/4 20/213/4 14/17/4
f 32/18/5 34/214/5 38/19/5
f 7/21/2 5/215/2 3/22/2
f 1/24/6 2/216/6 3/25/6
f 19/27/3 35/217/3 16/28/3
f 13/30/7 12/218/7 39/31/7
f 18/33/8 15/219/51 16/34/8
f 21/36/3 25/220/3 26/37/3
f 11/39/6 9/221/6 8/40/6
f 27/42/9 28/222/9 25/43/9
f 31/45/10 29/223/10 30/46/10
f 6/48/3 1/224/3 4/49/3
f 22/51/11 24/38/11 26/52/11
f 21/54/12 24/225/12 22/55/12
f 36/57/2 39/226/2 8/58/2
f 14/60/10 20/227/12 16/61/10
f 41/63/7 5/228/7 7/64/7
f 42/66/8 31/229/8 43/67/8
f 6/69/13 36/230/13 46/70/13
f 45/72/6 44/231/6 47/73/6
f 53/75/14 52/232/14 54/76/14
f 52/78/15 53/233/15 111/79/15
f 51/81/16 54/234/16 49/82/16
f 49/82/17 54/234/17 52/78/17
f 57/84/18 56/235/19 59/85/19
f 112/87/20 57/84/20 60/86/20
f 56/89/21 57/236/21 112/90/21
f 60/92/22 59/95/22 113/93/22
f 59/95/17 56/89/17 55/91/17
f 63/96/23 61/237/23 65/97/23
f 61/99/24 63/238/24 62/100/24
f 64/102/25 65/239/25 115/103/25
f 115/103/17 65/239/17 61/99/17
f 70/105/26 69/240/26 71/106/26
f 66/108/20 70/105/20 68/107/20
f 69/110/27 70/241/27 66/111/27
f 68/113/28 71/116/28 67/114/28
f 71/116/17 69/110/17 117/112/17
f 79/117/29 78/242/29 76/118/29
f 78/120/30 79/243/30 74/121/30
f 77/123/31 76/126/31 75/124/31
f 76/126/17 78/120/17 73/122/17
f 81/127/32 80/244/32 83/128/32
f 82/130/33 81/245/33 84/131/33
f 80/133/34 81/246/34 82/134/34
f 88/136/35 86/247/35 89/137/35
f 88/136/36 85/138/36 90/139/36
f 86/141/37 88/248/37 87/142/37
f 85/144/32 89/147/32 123/145/32
f 89/147/38 86/141/38 122/143/38
f 93/148/39 92/249/39 94/149/39
f 93/148/40 96/150/40 95/151/40
f 91/153/37 92/250/37 93/154/37
f 96/156/32 94/159/32 125/157/32
f 94/159/41 92/250/41 91/153/41
f 101/160/42 100/251/42 98/161/42
f 127/163/20 101/160/20 102/162/20
f 100/165/37 101/252/37 127/166/37
f 102/168/32 98/253/32 97/169/32
f 97/169/17 98/253/17 100/165/17
f 110/171/32 109/254/32 106/172/32
f 109/174/42 110/255/42 104/175/42
f 108/177/43 106/180/43 105/178/43
f 106/180/17 109/174/17 103/176/17
f 49/181/44 48/256/44 111/182/44
f 113/184/45 55/257/45 112/185/45
f 115/187/46 114/258/46 62/188/46
f 67/190/47 117/259/47 66/191/47
f 75/193/48 73/260/48 74/194/48
f 120/196/37 119/261/37 82/197/37
f 123/199/49 122/262/49 87/200/49
f 125/202/50 91/263/50 124/203/50
f 97/205/43 126/264/43 127/206/43
