# Blender v3.0.1 OBJ File: 'props.blend'
# www.blender.org
mtllib Bookshelf05.mtl
o Bookshelf05_LOD0_Bookshelf05.001
v 0.671164 0.188477 0.159990
v 0.671164 0.188477 0.159990
v -0.670099 0.188477 0.159990
v -0.670099 0.188477 0.159990
v -0.670099 0.227833 0.159990
v 0.671164 0.227833 0.159990
v -0.670099 0.227833 -0.161248
v 0.671164 0.227833 -0.161247
v -0.670099 0.188477 0.159990
v -0.670099 0.188477 -0.161248
v 0.671164 0.188477 0.159990
v 0.671164 0.188477 -0.161247
v -0.670099 0.188477 -0.161248
v -0.670099 0.227833 -0.161248
v 0.671164 0.188477 -0.161247
v 0.671164 0.227833 -0.161247
v 0.671164 1.179798 -0.161247
v 0.671164 1.179798 0.159990
v -0.670099 1.179798 -0.161248
v -0.670099 1.179798 0.159990
v -0.670099 1.179798 -0.161248
v -0.670099 1.212926 -0.161248
v 0.671164 1.179798 -0.161247
v 0.671164 1.212926 -0.161247
v -0.670099 0.873266 0.159990
v -0.023770 0.873254 0.159990
v -0.670099 0.873277 -0.088335
v -0.024033 0.873265 -0.088335
v -0.670099 0.850185 0.159990
v -0.670099 0.850196 -0.088335
v -0.023770 0.850173 0.159990
v -0.024034 0.850185 -0.088335
v -0.670099 0.850196 -0.088335
v -0.670099 0.873277 -0.088335
v -0.024034 0.850185 -0.088335
v -0.024033 0.873265 -0.088335
v -0.670099 0.551380 0.159990
v -0.023776 0.551369 0.159990
v -0.670099 0.551391 -0.088335
v -0.024039 0.551379 -0.088335
v -0.670099 0.528300 0.159990
v -0.670099 0.528311 -0.088335
v -0.023776 0.528288 0.159990
v -0.024040 0.528299 -0.088335
v -0.670099 0.528311 -0.088335
v -0.670099 0.551391 -0.088335
v -0.024040 0.528299 -0.088335
v -0.024039 0.551379 -0.088335
v -0.704575 0.188477 0.159990
v -0.704556 1.212926 0.159990
v -0.704922 0.188477 -0.161248
v -0.704904 1.212926 -0.161248
v -0.704556 1.212926 0.159990
v -0.670099 1.212926 0.159990
v -0.704904 1.212926 -0.161248
v -0.670099 1.212926 -0.161248
v -0.670099 0.188477 0.159990
v -0.704575 0.188477 0.159990
v -0.670099 0.188477 -0.161248
v -0.704922 0.188477 -0.161248
v -0.670099 0.188477 0.159990
v -0.670099 0.188477 -0.161248
v -0.670099 1.212926 0.159990
v -0.670099 1.212926 -0.161248
v -0.670099 0.188477 -0.161248
v -0.704922 0.188477 -0.161248
v -0.670099 1.212926 -0.161248
v -0.704904 1.212926 -0.161248
v 0.671164 0.188477 0.159990
v 0.671164 1.212926 0.159990
v 0.671164 0.188477 -0.161247
v 0.671164 1.212926 -0.161247
v 0.671164 1.212926 0.159990
v 0.703672 1.212926 0.159990
v 0.671164 1.212926 -0.161247
v 0.703325 1.212926 -0.161247
v 0.703654 0.188477 0.159990
v 0.671164 0.188477 0.159990
v 0.703306 0.188477 -0.161247
v 0.671164 0.188477 -0.161247
v 0.703654 0.188477 0.159990
v 0.703306 0.188477 -0.161247
v 0.703672 1.212926 0.159990
v 0.703325 1.212926 -0.161247
v 0.703306 0.188477 -0.161247
v 0.671164 0.188477 -0.161247
v 0.703325 1.212926 -0.161247
v 0.671164 1.212926 -0.161247
v 0.671164 1.212926 0.159990
v 0.671164 0.188477 0.159990
v 0.703672 1.212926 0.159990
v 0.703654 0.188477 0.159990
v -0.023782 0.227833 0.159990
v -0.023764 1.179798 0.159990
v -0.024048 0.227833 -0.088335
v -0.024031 1.179798 -0.088335
v 0.010858 0.227833 0.159990
v 0.010592 0.227833 -0.088335
v 0.010875 1.179798 0.159990
v 0.010609 1.179798 -0.088335
v 0.010592 0.227833 -0.088335
v -0.024048 0.227833 -0.088335
v 0.010609 1.179798 -0.088335
v -0.024031 1.179798 -0.088335
v -0.008153 0.188477 0.159990
v -0.670099 0.188477 0.159990
v -0.008068 1.212926 0.159990
v -0.670099 1.212926 0.159990
v -0.670099 1.212926 0.159990
v -0.670099 0.188477 0.159990
v -0.008070 1.212926 0.159990
v -0.008152 0.188477 0.159990
v 0.671164 0.188477 0.159990
v 0.671164 1.212926 0.159990
v 0.671164 1.212926 0.159990
v -0.008068 1.212926 0.159990
v 0.671164 0.188477 0.159990
v -0.008153 0.188477 0.159990
v 0.671164 1.179798 -0.136967
v 0.671164 0.227833 -0.136967
v -0.002914 1.179798 -0.136968
v -0.002914 0.227833 -0.136968
v -0.002914 0.227833 -0.161247
v 0.671164 0.227833 -0.161247
v -0.002914 1.179798 -0.161247
v 0.671164 1.179798 -0.161247
v -0.002914 0.227833 -0.136968
v -0.002914 0.227833 -0.161247
v -0.002914 1.179798 -0.136968
v -0.002914 1.179798 -0.161247
v 0.671164 1.179798 -0.136967
v 0.671164 1.179798 -0.161247
v 0.671164 0.227833 -0.136967
v 0.671164 0.227833 -0.161247
v 0.600895 0.784040 -0.186325
v 0.600309 0.766252 -0.189401
v 0.601374 0.765931 -0.163102
v 0.601281 0.784265 -0.163205
v 0.619446 0.784300 -0.163272
v 0.619802 0.638741 -0.185573
v 0.620188 0.638965 -0.162453
v 0.602023 0.638931 -0.162385
v 0.601928 0.657265 -0.162489
v 0.600870 0.656430 -0.188781
v 0.620094 0.657299 -0.162556
v 0.619539 0.765966 -0.163170
v 0.601639 0.657096 -0.179813
v 0.619251 0.765797 -0.180494
v 0.601085 0.765763 -0.180426
v 0.619825 0.766289 -0.189474
v 0.619061 0.784074 -0.186393
v 0.620386 0.656467 -0.188854
v 0.601636 0.638706 -0.185505
v 0.619805 0.657131 -0.179881
v -0.557889 1.179798 -0.113300
v -0.557889 0.227833 -0.113300
v 0.117098 1.179798 -0.113299
v 0.117098 0.227833 -0.113299
v 0.117098 0.227833 -0.136968
v -0.557889 0.227833 -0.136968
v 0.117098 1.179798 -0.136968
v -0.557889 1.179798 -0.136968
v 0.117098 0.227833 -0.113299
v 0.117098 0.227833 -0.136968
v 0.117098 1.179798 -0.113299
v 0.117098 1.179798 -0.136968
v -0.557889 1.179798 -0.113300
v -0.557889 1.179798 -0.136968
v -0.557889 0.227833 -0.113300
v -0.557889 0.227833 -0.136968
v -0.488257 0.782178 -0.162068
v -0.487767 0.764846 -0.165144
v -0.488658 0.764534 -0.138845
v -0.488580 0.782397 -0.138948
v -0.503774 0.782431 -0.139015
v -0.504072 0.640608 -0.161316
v -0.504395 0.640827 -0.138196
v -0.489201 0.640794 -0.138127
v -0.489122 0.658657 -0.138232
v -0.488236 0.657844 -0.164524
v -0.504316 0.658690 -0.138299
v -0.503852 0.764568 -0.138912
v -0.488880 0.658493 -0.155556
v -0.503611 0.764403 -0.156237
v -0.488416 0.764370 -0.156169
v -0.504091 0.764882 -0.165217
v -0.503451 0.782212 -0.162136
v -0.504560 0.657880 -0.164597
v -0.488877 0.640574 -0.161248
v -0.504075 0.658527 -0.155624
v -0.670099 1.212926 0.159990
v 0.671164 1.212926 0.159990
v -0.670099 1.212926 -0.161248
v 0.671164 1.212926 -0.161247
v -0.704556 1.212926 0.159990
v -0.704575 0.188477 0.159990
v -0.670099 1.212926 0.159990
v -0.670099 0.188477 0.159990
v 0.671164 0.188477 0.159990
v 0.703654 0.188477 0.159990
v 0.671164 0.188477 -0.161247
v 0.703306 0.188477 -0.161247
v -0.704575 0.188477 0.159990
v -0.670099 0.188477 0.159990
v -0.704922 0.188477 -0.161248
v -0.670099 0.188477 -0.161248
v -0.670099 0.188477 0.159990
v 0.671164 0.188477 0.159990
v -0.670099 0.188477 -0.161248
v 0.671164 0.188477 -0.161247
v -0.490919 0.548644 0.009862
v -0.490919 0.780387 0.009862
v -0.490919 0.548644 0.146527
v -0.490919 0.780387 0.146527
v -0.528393 0.548644 0.009862
v -0.528393 0.780387 0.009862
v -0.528393 0.548644 0.146527
v -0.528393 0.780387 0.146527
v -0.490919 0.780387 0.009862
v -0.490919 0.780387 0.146527
v -0.528393 0.780387 0.009862
v -0.528393 0.780387 0.146527
v -0.569188 0.555999 -0.068329
v -0.626952 0.792182 -0.075156
v -0.585515 0.555999 0.069818
v -0.643279 0.792182 0.062991
v -0.600051 0.548346 -0.071977
v -0.657816 0.784528 -0.078804
v -0.616378 0.548346 0.066171
v -0.674143 0.784528 0.059344
v -0.626952 0.792182 -0.075156
v -0.643279 0.792182 0.062991
v -0.657816 0.784528 -0.078804
v -0.674143 0.784528 0.059344
v -0.464041 0.550900 0.009862
v -0.352324 0.761261 0.009862
v -0.464041 0.550900 0.151168
v -0.352324 0.761261 0.151168
v -0.483674 0.561327 0.009862
v -0.371957 0.771688 0.009862
v -0.483674 0.561327 0.151168
v -0.371957 0.771688 0.151168
v -0.352324 0.761261 0.009862
v -0.352324 0.761261 0.151168
v -0.371957 0.771688 0.009862
v -0.371957 0.771688 0.151168
v -0.505701 0.902918 0.159990
v -0.423088 0.902918 -0.044947
v -0.651123 0.902918 0.112286
v -0.568510 0.902918 -0.101217
v -0.505701 0.870530 0.159990
v -0.423088 0.870530 -0.044947
v -0.651123 0.870530 0.112286
v -0.568510 0.870530 -0.101217
v -0.423088 0.902918 -0.044947
v -0.651123 0.902918 0.112286
v -0.568510 0.902918 -0.101217
v -0.423088 0.870530 -0.044947
v -0.651123 0.870530 0.112286
v -0.568510 0.870530 -0.101217
v -0.167043 0.870530 0.011367
v -0.167043 1.121961 0.011367
v -0.383886 0.870530 0.037565
v -0.383886 1.121961 0.037565
v -0.159932 1.121961 0.070227
v -0.376775 0.870530 0.096426
v -0.376775 1.121961 0.096426
v -0.167043 1.121961 0.011367
v -0.383886 0.870530 0.037565
v -0.383886 1.121961 0.037565
v -0.036621 0.224048 -0.044301
v -0.089057 0.458558 -0.044301
v -0.617499 0.224048 -0.044301
v -0.669934 0.458558 -0.044301
v -0.089057 0.458558 -0.044301
v -0.089057 0.458558 0.159990
v -0.669934 0.458558 -0.044301
v -0.669934 0.458558 0.159990
v -0.617499 0.224048 -0.044301
v -0.669934 0.458558 -0.044301
v -0.617499 0.224048 0.159990
v -0.669934 0.458558 0.159990
v -0.569188 0.555999 -0.068329
v -0.585515 0.555999 0.069818
v -0.600051 0.548346 -0.071977
v -0.616378 0.548346 0.066171
v -0.464041 0.550900 0.009862
v -0.464041 0.550900 0.151168
v -0.483674 0.561327 0.009862
v -0.483674 0.561327 0.151168
vt 0.103338 0.100353
vt 0.135159 0.111431
vt 0.103338 0.111431
vt 0.069683 0.114575
vt 0.081693 0.112352
vt 0.069683 0.112352
vt 0.093153 0.113109
vt 0.069683 0.114575
vt 0.069683 0.113109
vt 0.135143 0.100353
vt 0.103338 0.111445
vt 0.103338 0.100353
vt 0.189241 0.143085
vt 0.138562 0.126841
vt 0.189241 0.126841
vt 0.200725 0.134181
vt 0.150079 0.117919
vt 0.200725 0.117919
vt 0.081693 0.112352
vt 0.069683 0.114575
vt 0.069683 0.112352
vt 0.081683 0.112387
vt 0.069683 0.114575
vt 0.081683 0.114575
vt 0.069683 0.112351
vt 0.118327 0.114538
vt 0.069683 0.114538
vt 0.191426 0.128184
vt 0.144580 0.140644
vt 0.144580 0.128184
vt 0.069683 0.114575
vt 0.104256 0.112352
vt 0.104256 0.114575
vt 0.189241 0.143113
vt 0.138562 0.126841
vt 0.138562 0.143113
vt 0.135174 0.100356
vt 0.069260 0.114661
vt 0.069260 0.100356
vt 0.069683 0.114575
vt 0.104140 0.113082
vt 0.069683 0.113082
vt 0.135174 0.114661
vt 0.069260 0.100353
vt 0.135174 0.100353
vt 0.189241 0.139923
vt 0.143476 0.139413
vt 0.189241 0.139413
vt 0.103362 0.100353
vt 0.135159 0.111431
vt 0.103362 0.111431
vt 0.093147 0.113105
vt 0.069683 0.114575
vt 0.069683 0.113105
vt 0.138334 0.119117
vt 0.200725 0.134181
vt 0.200725 0.119117
vt 0.047433 0.095156
vt 0.034970 0.141333
vt 0.034970 0.095156
vt 0.069683 0.112356
vt 0.081686 0.114575
vt 0.081686 0.112356
vt 0.135143 0.100353
vt 0.103338 0.111445
vt 0.103338 0.100353
vt 0.051032 0.094964
vt 0.034767 0.142187
vt 0.051032 0.142187
vt 0.107079 0.114571
vt 0.069683 0.112351
vt 0.069683 0.114571
vt 0.149508 0.117119
vt 0.185788 0.142337
vt 0.185788 0.117121
vt 0.149508 0.117119
vt 0.185791 0.142923
vt 0.185791 0.117121
vt 0.034772 0.142091
vt 0.067412 0.094926
vt 0.067412 0.142091
vt 0.069683 0.112857
vt 0.120359 0.114575
vt 0.120359 0.112857
vt 0.002160 0.141493
vt 0.034970 0.095156
vt 0.034970 0.141493
vt 0.104137 0.114255
vt 0.069683 0.112798
vt 0.069683 0.114255
vt 0.104140 0.113082
vt 0.069683 0.114575
vt 0.069683 0.113082
vt 0.139193 0.143039
vt 0.174808 0.117714
vt 0.139193 0.117714
vt 0.174805 0.143039
vt 0.139193 0.117714
vt 0.139193 0.143039
vt 0.827833 0.944157
vt 0.828144 0.943846
vt 0.827790 0.943632
vt 0.827946 0.944333
vt 0.828404 0.944616
vt 0.828357 0.944177
vt 0.831774 0.941986
vt 0.832138 0.942221
vt 0.832082 0.941708
vt 0.827257 0.944414
vt 0.827434 0.944717
vt 0.831959 0.941483
vt 0.831514 0.941216
vt 0.831561 0.941654
vt 0.830075 0.941643
vt 0.830907 0.941605
vt 0.830682 0.941253
vt 0.828981 0.946375
vt 0.828477 0.947027
vt 0.829141 0.946811
vt 0.827869 0.945155
vt 0.832686 0.941401
vt 0.832873 0.941998
vt 0.832513 0.941100
vt 0.827073 0.948061
vt 0.830907 0.946335
vt 0.830671 0.945966
vt 0.832890 0.944992
vt 0.833051 0.945428
vt 0.830002 0.942626
vt 0.829281 0.942232
vt 0.829670 0.942839
vt 0.833554 0.944776
vt 0.833696 0.945160
vt 0.104137 0.114575
vt 0.069683 0.113118
vt 0.104137 0.113118
vt 0.107061 0.112351
vt 0.069683 0.114575
vt 0.069683 0.112351
vt 0.139193 0.117714
vt 0.174808 0.143039
vt 0.139193 0.143039
vt 0.139193 0.143039
vt 0.174805 0.117714
vt 0.174805 0.143039
vt 0.827833 0.944157
vt 0.827790 0.943632
vt 0.828144 0.943846
vt 0.827946 0.944333
vt 0.828357 0.944177
vt 0.828404 0.944616
vt 0.831774 0.941986
vt 0.832082 0.941708
vt 0.832138 0.942221
vt 0.827257 0.944414
vt 0.827434 0.944717
vt 0.831959 0.941483
vt 0.831561 0.941654
vt 0.831514 0.941216
vt 0.830075 0.941643
vt 0.830907 0.941605
vt 0.830300 0.941995
vt 0.828477 0.947027
vt 0.828981 0.946375
vt 0.829141 0.946811
vt 0.832686 0.941401
vt 0.832513 0.941100
vt 0.830907 0.946335
vt 0.827073 0.948061
vt 0.830671 0.945966
vt 0.832890 0.944992
vt 0.829281 0.942232
vt 0.830002 0.942626
vt 0.829670 0.942839
vt 0.833554 0.944776
vt 0.833051 0.945428
vt 0.135204 0.134181
vt 0.201098 0.118280
vt 0.201098 0.134181
vt 0.120354 0.114413
vt 0.069683 0.112692
vt 0.069683 0.114413
vt 0.069683 0.112356
vt 0.081683 0.114575
vt 0.081683 0.112356
vt 0.069683 0.114575
vt 0.081683 0.112387
vt 0.081683 0.114575
vt 0.135204 0.134181
vt 0.201098 0.118280
vt 0.135204 0.118280
vt 0.506165 0.507999
vt 0.510248 0.509119
vt 0.506165 0.509119
vt 0.455110 0.508605
vt 0.459193 0.515529
vt 0.455110 0.515529
vt 0.449907 0.508605
vt 0.453990 0.515529
vt 0.449907 0.515529
vt 0.453990 0.508605
vt 0.506555 0.509119
vt 0.511163 0.510179
vt 0.506555 0.510179
vt 0.501548 0.510360
vt 0.506155 0.518416
vt 0.501548 0.518416
vt 0.495880 0.510360
vt 0.500488 0.518416
vt 0.495880 0.518416
vt 0.500488 0.510360
vt 0.492942 0.551769
vt 0.489891 0.551289
vt 0.492942 0.551289
vt 0.473055 0.510386
vt 0.476106 0.515529
vt 0.473055 0.515529
vt 0.469525 0.510386
vt 0.472575 0.515529
vt 0.469525 0.515529
vt 0.499248 0.538999
vt 0.503108 0.539800
vt 0.499248 0.539800
vt 0.493581 0.539800
vt 0.493581 0.538999
vt 0.463685 0.509862
vt 0.459826 0.515529
vt 0.459826 0.509862
vt 0.468347 0.515529
vt 0.464487 0.509862
vt 0.468347 0.509862
vt 0.502257 0.550009
vt 0.506973 0.551289
vt 0.502257 0.551289
vt 0.494607 0.551289
vt 0.494607 0.550009
vt 0.483180 0.507999
vt 0.487896 0.515649
vt 0.483180 0.515649
vt 0.472508 0.556813
vt 0.485050 0.552321
vt 0.485050 0.556813
vt 0.462286 0.528371
vt 0.474828 0.521562
vt 0.474828 0.528371
vt 0.449274 0.515529
vt 0.453220 0.521562
vt 0.449274 0.521562
vt 0.511163 0.510179
vt 0.506555 0.509119
vt 0.506555 0.510179
vt 0.489891 0.551289
vt 0.492942 0.551769
vt 0.492942 0.551289
vt 0.135159 0.100353
vt 0.135143 0.111445
vt 0.138562 0.143085
vt 0.150079 0.134181
vt 0.191426 0.140644
vt 0.189241 0.126841
vt 0.135174 0.114661
vt 0.069260 0.114661
vt 0.143477 0.139923
vt 0.135159 0.100353
vt 0.138334 0.134181
vt 0.047433 0.141333
vt 0.135143 0.111445
vt 0.034767 0.094964
vt 0.149508 0.142335
vt 0.149508 0.142921
vt 0.034772 0.094926
vt 0.069683 0.114575
vt 0.002160 0.095156
vt 0.174808 0.143039
vt 0.174805 0.117714
vt 0.827083 0.943865
vt 0.830300 0.941995
vt 0.828336 0.946643
vt 0.832048 0.940653
vt 0.827276 0.948416
vt 0.829613 0.942019
vt 0.174808 0.117714
vt 0.139193 0.117714
vt 0.827083 0.943865
vt 0.830682 0.941253
vt 0.828336 0.946643
vt 0.827869 0.945155
vt 0.832873 0.941998
vt 0.832048 0.940653
vt 0.827276 0.948416
vt 0.829613 0.942019
vt 0.833696 0.945160
vt 0.135204 0.118280
vt 0.120354 0.112692
vt 0.201098 0.134181
vt 0.510248 0.507999
vt 0.459193 0.508605
vt 0.511163 0.509119
vt 0.506155 0.510360
vt 0.489891 0.551769
vt 0.476106 0.510386
vt 0.472575 0.510386
vt 0.503108 0.538999
vt 0.463685 0.515529
vt 0.464487 0.515529
vt 0.506973 0.550009
vt 0.487896 0.507999
vt 0.472508 0.552321
vt 0.462286 0.521562
vt 0.453220 0.515529
vt 0.511163 0.509119
vt 0.489891 0.551769
vt 0.069683 0.112351
vt 0.118327 0.114538
vt 0.069683 0.114538
vt 0.081693 0.114575
vt 0.093153 0.114575
vt 0.081693 0.114575
vt 0.069683 0.112387
vt 0.118327 0.112351
vt 0.069683 0.112352
vt 0.104140 0.114575
vt 0.093147 0.114575
vt 0.069683 0.114575
vt 0.107079 0.112351
vt 0.104137 0.112798
vt 0.104140 0.114575
vt 0.069683 0.114575
vt 0.107061 0.114575
vt 0.069683 0.114575
vt 0.069683 0.112387
vt 0.118327 0.112351
vn -0.0000 -1.0000 -0.0000
vn 0.0000 -0.0000 -1.0000
vn 0.0000 1.0000 0.0000
vn -1.0000 0.0000 0.0011
vn -1.0000 0.0000 -0.0000
vn 1.0000 -0.0000 -0.0011
vn 1.0000 0.0000 0.0000
vn 0.0000 0.0000 1.0000
vn -0.5932 0.6177 -0.5163
vn -0.7220 0.0663 -0.6887
vn -0.8889 -0.2928 0.3524
vn 0.5772 0.6230 -0.5279
vn 0.8979 -0.2894 0.3319
vn 0.7117 0.0740 -0.6986
vn 0.7123 -0.0750 -0.6979
vn 0.8965 0.3017 0.3243
vn 0.5813 -0.6273 -0.5183
vn -0.7057 0.7085 0.0049
vn 0.7065 0.7075 -0.0187
vn -0.5881 -0.6300 -0.5071
vn -0.8921 0.2878 0.3482
vn -0.7214 -0.0813 -0.6877
vn 0.7065 0.7074 -0.0187
vn 0.7133 -0.7008 -0.0051
vn -0.7025 -0.7115 0.0186
vn -0.7025 -0.7114 0.0186
vn 0.5929 0.6186 -0.5156
vn 0.8914 -0.2942 0.3447
vn 0.7166 0.0668 -0.6943
vn -0.5785 0.6234 -0.5260
vn -0.7069 0.0735 -0.7035
vn -0.8993 -0.2904 0.3270
vn -0.7075 -0.0758 -0.7027
vn -0.5823 -0.6278 -0.5165
vn -0.8981 0.3017 0.3201
vn 0.7064 0.7078 0.0031
vn -0.7060 0.7080 -0.0166
vn 0.5882 -0.6306 -0.5063
vn 0.7161 -0.0811 -0.6933
vn 0.8944 0.2905 0.3401
vn 0.7065 0.7077 0.0032
vn -0.7123 -0.7018 -0.0033
vn 0.7033 -0.7107 0.0166
vn 0.7033 -0.7107 0.0165
vn -0.7124 -0.7018 -0.0033
vn -0.2375 0.9710 -0.0281
vn 0.9643 0.2391 0.1140
vn -0.9643 -0.2391 -0.1140
vn 0.1174 -0.0000 -0.9931
vn 0.4690 0.8832 0.0000
vn 0.8832 -0.4690 0.0000
vn -0.8832 0.4690 -0.0000
vn 0.3609 0.0000 -0.9326
vn -0.9326 0.0000 -0.3609
vn -0.9928 0.0000 0.1199
vn -0.1199 0.0000 -0.9928
vn -0.9759 -0.2182 0.0000
vn 0.2375 -0.9710 0.0281
vn -0.4690 -0.8832 0.0000
usemtl M_Interior
s 1
f 30/1/1 31/2/1 29/3/1
f 203/4/1 206/5/1 204/6/1
f 36/7/2 33/8/2 34/9/2
f 38/10/3 39/11/3 37/12/3
f 52/13/4 49/14/4 50/15/4
f 72/16/5 69/17/5 70/18/5
f 56/19/3 53/20/3 54/21/3
f 199/22/1 202/23/1 200/24/1
f 15/25/2 14/26/2 16/27/2
f 100/28/6 97/29/6 98/30/6
f 101/31/2 104/32/2 103/33/2
f 84/34/6 81/35/6 82/36/6
f 6/37/3 7/38/3 5/39/3
f 134/40/7 131/41/7 133/42/7
f 19/43/1 18/44/1 20/45/1
f 2/46/8 3/47/8 1/48/8
f 42/49/1 43/50/1 41/51/1
f 48/52/2 45/53/2 46/54/2
f 11/55/3 10/56/3 9/57/3
f 96/58/4 93/59/4 94/60/4
f 59/61/3 58/62/3 57/63/3
f 26/64/3 27/65/3 25/66/3
f 64/67/7 61/68/7 62/69/7
f 68/70/2 65/71/2 66/72/2
f 107/73/8 106/74/8 105/75/8
f 118/76/8 115/77/8 116/78/8
f 111/79/2 110/80/2 109/81/2
f 90/82/8 91/83/8 89/84/8
f 114/85/2 112/86/2 111/87/2
f 129/88/5 128/89/5 127/90/5
f 167/91/5 170/92/5 169/93/5
f 120/94/8 121/95/8 122/96/8
f 125/97/2 124/98/2 123/99/2
f 135/100/9 136/101/10 149/102/11
f 151/103/12 148/104/13 150/105/14
f 152/106/15 154/107/16 140/108/17
f 151/103/12 138/109/18 139/110/19
f 149/102/11 138/109/18 135/100/9
f 153/111/20 147/112/21 144/113/22
f 154/114/16 143/115/18 145/116/23
f 152/117/15 153/118/20 144/119/22
f 136/101/10 147/112/21 149/102/11
f 148/104/13 139/110/19 146/120/24
f 154/107/16 150/105/14 148/104/13
f 141/121/24 154/107/16 145/122/23
f 142/123/25 147/112/21 153/111/20
f 140/108/17 142/123/25 153/111/20
f 147/124/21 148/125/13 149/126/11
f 150/127/14 144/119/22 136/128/10
f 137/129/26 148/130/13 146/131/24
f 151/132/12 136/128/10 135/133/9
f 165/134/7 164/135/7 166/136/7
f 88/137/2 85/138/2 86/139/2
f 158/140/8 155/141/8 156/142/8
f 159/143/2 162/144/2 161/145/2
f 171/146/27 185/147/28 172/148/29
f 187/149/30 186/150/31 184/151/32
f 188/152/33 176/153/34 190/154/35
f 174/155/36 187/149/30 175/156/37
f 174/155/36 185/147/28 171/146/27
f 189/157/38 180/158/39 183/159/40
f 190/160/35 179/161/41 183/162/40
f 189/163/38 188/164/33 180/165/39
f 172/148/29 183/159/40 180/158/39
f 184/151/32 175/156/37 187/149/30
f 186/150/31 190/154/35 184/151/32
f 177/166/42 190/154/35 176/153/34
f 183/159/40 178/167/43 189/157/38
f 176/153/34 178/167/43 177/166/42
f 184/168/32 183/169/40 185/170/28
f 186/171/31 180/165/39 188/164/33
f 184/172/32 173/173/44 182/174/45
f 187/175/30 172/176/29 186/171/31
f 192/177/3 193/178/3 191/179/3
f 196/180/8 197/181/8 195/182/8
f 78/183/3 79/184/3 80/185/3
f 76/186/3 73/187/3 74/188/3
f 208/189/1 209/190/1 210/191/1
f 220/192/3 221/193/3 222/194/3
f 212/195/7 213/196/7 211/197/7
f 218/198/5 215/199/5 217/200/5
f 216/201/2 211/197/2 215/199/2
f 232/202/46 233/203/46 234/204/46
f 224/205/47 225/206/47 223/207/47
f 230/208/48 227/209/48 229/210/48
f 228/211/49 223/207/49 227/209/49
f 244/212/50 245/213/50 246/214/50
f 236/215/51 237/216/51 235/217/51
f 242/218/52 239/219/52 241/220/52
f 239/219/2 236/215/2 235/217/2
f 257/221/53 258/222/53 260/223/53
f 257/221/54 259/224/54 256/225/54
f 247/226/3 250/227/3 249/228/3
f 254/229/1 251/230/1 253/231/1
f 267/232/3 268/233/3 270/234/3
f 267/232/55 269/235/55 266/236/55
f 264/237/56 261/238/56 263/239/56
f 276/240/3 277/241/3 278/242/3
f 273/243/2 272/244/2 271/245/2
f 282/246/57 279/247/57 281/248/57
f 285/249/58 284/250/58 286/251/58
f 289/252/59 288/253/59 290/254/59
f 30/1/1 32/255/1 31/2/1
f 38/10/3 40/256/3 39/11/3
f 52/13/4 51/257/4 49/14/4
f 72/16/5 71/258/5 69/17/5
f 100/28/6 99/259/6 97/29/6
f 84/34/6 83/260/6 81/35/6
f 6/37/3 8/261/3 7/38/3
f 19/43/1 17/262/1 18/44/1
f 2/46/8 4/263/8 3/47/8
f 42/49/1 44/264/1 43/50/1
f 11/55/3 12/265/3 10/56/3
f 96/58/4 95/266/4 93/59/4
f 26/64/3 28/267/3 27/65/3
f 64/67/7 63/268/7 61/68/7
f 107/73/8 108/269/8 106/74/8
f 118/76/8 117/270/8 115/77/8
f 111/79/2 112/271/2 110/80/2
f 90/82/8 92/272/8 91/83/8
f 114/85/2 113/273/2 112/86/2
f 120/94/8 119/274/8 121/95/8
f 125/97/2 126/275/2 124/98/2
f 151/103/12 135/100/9 138/109/18
f 149/102/11 137/276/26 138/109/18
f 154/114/16 147/277/21 143/115/18
f 152/117/15 140/278/17 153/118/20
f 136/101/10 144/113/22 147/112/21
f 148/104/13 151/103/12 139/110/19
f 154/107/16 152/106/15 150/105/14
f 141/121/24 140/108/17 154/107/16
f 142/123/25 143/279/18 147/112/21
f 140/108/17 141/121/24 142/123/25
f 147/124/21 154/280/16 148/125/13
f 150/127/14 152/117/15 144/119/22
f 137/129/26 149/281/11 148/130/13
f 151/132/12 150/127/14 136/128/10
f 158/140/8 157/282/8 155/141/8
f 159/143/2 160/283/2 162/144/2
f 174/155/36 171/146/27 187/149/30
f 174/155/36 173/284/44 185/147/28
f 190/160/35 181/285/37 179/161/41
f 189/163/38 176/286/34 188/164/33
f 172/148/29 185/147/28 183/159/40
f 184/151/32 182/287/45 175/156/37
f 186/150/31 188/152/33 190/154/35
f 177/166/42 181/288/37 190/154/35
f 183/159/40 179/289/41 178/167/43
f 176/153/34 189/157/38 178/167/43
f 184/168/32 190/290/35 183/169/40
f 186/171/31 172/176/29 180/165/39
f 184/172/32 185/291/28 173/173/44
f 187/175/30 171/292/27 172/176/29
f 192/177/3 194/293/3 193/178/3
f 196/180/8 198/294/8 197/181/8
f 208/189/1 207/295/1 209/190/1
f 220/192/3 219/296/3 221/193/3
f 212/195/7 214/297/7 213/196/7
f 218/198/5 216/201/5 215/199/5
f 216/201/2 212/195/2 211/197/2
f 232/202/46 231/298/46 233/203/46
f 224/205/47 226/299/47 225/206/47
f 230/208/48 228/211/48 227/209/48
f 228/211/49 224/205/49 223/207/49
f 244/212/50 243/300/50 245/213/50
f 236/215/51 238/301/51 237/216/51
f 242/218/52 240/302/52 239/219/52
f 239/219/2 240/302/2 236/215/2
f 257/221/53 255/303/53 258/222/53
f 257/221/54 260/223/54 259/224/54
f 247/226/3 248/304/3 250/227/3
f 254/229/1 252/305/1 251/230/1
f 267/232/3 265/306/3 268/233/3
f 267/232/55 270/234/55 269/235/55
f 264/237/56 262/307/56 261/238/56
f 276/240/3 275/308/3 277/241/3
f 273/243/2 274/309/2 272/244/2
f 282/246/57 280/310/57 279/247/57
f 285/249/58 283/311/58 284/250/58
f 289/252/59 287/312/59 288/253/59
f 23/313/2 22/314/2 24/315/2
f 203/4/1 205/316/1 206/5/1
f 36/7/2 35/317/2 33/8/2
f 56/19/3 55/318/3 53/20/3
f 199/22/1 201/319/1 202/23/1
f 15/25/2 13/320/2 14/26/2
f 101/31/2 102/321/2 104/32/2
f 134/40/7 132/322/7 131/41/7
f 48/52/2 47/323/2 45/53/2
f 59/61/3 60/324/3 58/62/3
f 68/70/2 67/325/2 65/71/2
f 129/88/5 130/326/5 128/89/5
f 167/91/5 168/327/5 170/92/5
f 165/134/7 163/328/7 164/135/7
f 88/137/2 87/329/2 85/138/2
f 78/183/3 77/330/3 79/184/3
f 76/186/3 75/331/3 73/187/3
f 23/313/2 21/332/2 22/314/2
