# Blender v3.0.1 OBJ File: 'props.blend'
# www.blender.org
mtllib Box_paper02c.mtl
o BoxCardBoard02c_LOD0_Cube.006
v 0.414433 0.516823 -0.415933
v -0.414433 0.516823 -0.415933
v 0.414433 0.516823 0.412933
v -0.414433 -0.000019 0.412933
v 0.414433 -0.000019 0.412933
v -0.414433 -0.000019 0.412933
v -0.414433 -0.000019 0.412933
v 0.414433 -0.000019 -0.415933
v 0.414433 -0.000019 0.412933
v -0.414433 -0.000019 -0.415933
v -0.414433 0.516823 0.412933
v -0.414433 0.516823 0.412933
v -0.414433 0.516823 -0.415933
v 0.414433 0.516823 0.412933
v -0.053029 0.293837 -0.415933
v -0.053029 0.293837 0.412933
v -0.407600 0.516823 -0.409100
v -0.407600 0.017361 -0.409100
v 0.414433 0.516823 -0.415933
v -0.414433 0.516823 -0.415933
v 0.414433 0.516823 0.412933
v 0.414433 0.516823 0.412933
v -0.414433 0.516823 0.412933
v -0.414433 0.516823 0.412933
v -0.414433 0.516823 -0.415933
v -0.414433 0.516823 -0.415933
v 0.414433 0.516823 -0.415933
v 0.414433 0.516823 -0.415933
v -0.407600 0.017361 0.406100
v -0.407600 0.017361 -0.409100
v 0.407600 0.017361 0.406100
v 0.407600 0.017361 -0.409100
v 0.407600 0.017361 0.406100
v 0.407600 0.516823 0.406100
v 0.407600 0.017361 -0.409100
v 0.407600 0.516823 -0.409100
v -0.414433 0.516823 0.412933
v 0.414433 0.516823 0.412933
v -0.407600 0.017361 0.406100
v -0.407600 0.516823 0.406100
v 0.407600 0.017361 0.406100
v 0.407600 0.516823 0.406100
v 0.414433 0.516823 -0.415933
v 0.026514 0.445695 -0.415933
v 0.026514 0.445695 0.412933
v -0.414433 -0.000019 -0.415933
v 0.414433 -0.000019 0.412933
v 0.414433 -0.000019 -0.415933
v -0.414433 -0.000019 -0.415933
v 0.414433 -0.000019 -0.415933
v 0.407600 0.017361 -0.409100
v 0.407600 0.516823 -0.409100
vt 0.942599 0.550260
vt 0.914793 0.536529
vt 0.942599 0.536529
vt 0.886986 0.552724
vt 0.914793 0.569800
vt 0.886986 0.569800
vt 0.886757 0.552815
vt 0.914334 0.553044
vt 0.886986 0.553044
vt 0.942599 0.536492
vt 0.970405 0.564298
vt 0.942599 0.564298
vt 0.914793 0.550260
vt 0.942599 0.567598
vt 0.914793 0.567598
vt 0.914793 0.550260
vt 0.942599 0.567598
vt 0.914793 0.567598
vt 0.886986 0.552650
vt 0.914793 0.569800
vt 0.886986 0.569800
vt 0.914793 0.536492
vt 0.942599 0.550260
vt 0.886986 0.569800
vt 0.914334 0.569800
vt 0.970159 0.564024
vt 0.942811 0.536677
vt 0.970159 0.536677
vt 0.915007 0.567357
vt 0.942355 0.550601
vt 0.942355 0.567357
vt 0.914334 0.569800
vt 0.886986 0.553044
vt 0.886986 0.569800
vt 0.914563 0.552815
vt 0.914334 0.553044
vt 0.914793 0.552724
vt 0.914563 0.552815
vt 0.970405 0.536492
vt 0.914793 0.552650
vt 0.942599 0.536492
vt 0.942811 0.564024
vt 0.915007 0.550601
vt 0.886757 0.552815
vn -0.1803 0.9836 0.0000
vn 0.0000 0.0000 -1.0000
vn 0.0000 1.0000 0.0000
vn 0.0000 -1.0000 0.0000
vn 1.0000 0.0000 0.0000
vn -1.0000 0.0000 -0.0000
vn -0.0000 0.0000 1.0000
vn 0.5251 0.8510 0.0000
usemtl M_Interior
s 1
f 3/1/1 44/2/1 45/3/1
f 2/4/2 50/5/2 49/6/2
f 19/7/3 17/8/3 52/9/3
f 48/10/4 4/11/4 46/12/4
f 43/13/5 9/14/5 8/15/5
f 12/16/6 10/17/6 7/18/6
f 14/19/7 6/20/7 5/21/7
f 16/22/8 13/23/8 12/16/8
f 51/24/7 17/8/7 18/25/7
f 29/26/3 32/27/3 30/28/3
f 33/29/6 36/30/6 35/31/6
f 39/32/2 42/33/2 41/34/2
f 37/35/3 42/33/3 40/36/3
f 3/1/1 43/13/1 44/2/1
f 2/4/2 1/37/2 50/5/2
f 19/7/3 20/38/3 17/8/3
f 48/10/4 47/39/4 4/11/4
f 43/13/5 3/1/5 9/14/5
f 12/16/6 13/23/6 10/17/6
f 14/19/7 11/40/7 6/20/7
f 16/22/8 15/41/8 13/23/8
f 51/24/7 52/9/7 17/8/7
f 29/26/3 31/42/3 32/27/3
f 33/29/6 34/43/6 36/30/6
f 39/32/2 40/36/2 42/33/2
f 37/35/3 38/44/3 42/33/3
