# Blender v3.0.1 OBJ File: 'props.blend'
# www.blender.org
mtllib Box_paper02a.mtl
o BoxCardBoard02a_LOD0_Cube.002
v 0.414433 0.490977 -0.415812
v -0.396156 0.508995 -0.415812
v 0.375595 0.508995 0.412933
v -0.414433 -0.000019 0.412933
v 0.414433 -0.000019 0.412933
v -0.414433 -0.000019 0.412933
v -0.414433 -0.000019 0.412933
v 0.414433 -0.000019 -0.415933
v 0.414433 -0.000019 0.412933
v -0.414433 -0.000019 -0.415933
v -0.414433 0.508995 0.430315
v -0.414433 0.508995 0.430315
v -0.396156 0.508995 -0.415933
v 0.375595 0.508995 0.412933
v -0.389323 0.508995 -0.409100
v -0.407600 0.017361 -0.409100
v 0.414433 0.490977 -0.415933
v -0.396156 0.508995 -0.415933
v -0.407600 0.017361 0.406100
v -0.407600 0.017361 -0.409100
v 0.407600 0.017361 0.406100
v 0.407600 0.017361 -0.409100
v 0.407600 0.017361 0.406100
v 0.368762 0.508995 0.406100
v 0.407600 0.017361 -0.409100
v 0.407600 0.490977 -0.409100
v -0.414433 0.508995 0.430315
v 0.375595 0.508995 0.412933
v -0.407600 0.017361 0.406100
v -0.407600 0.508995 0.423482
v 0.407600 0.017361 0.406100
v 0.368762 0.508995 0.406100
v 0.414433 0.490977 -0.415933
v -0.414433 -0.000019 -0.415933
v 0.414433 -0.000019 0.412933
v 0.414433 -0.000019 -0.415933
v -0.414433 -0.000019 -0.415933
v 0.414433 -0.000019 -0.415933
v 0.407600 0.017361 -0.409100
v 0.407600 0.490977 -0.409100
v -0.407600 0.017361 0.406100
v -0.407600 0.508995 0.423482
v -0.407600 0.017361 -0.409100
v -0.389323 0.508995 -0.409100
v 0.375595 0.508995 0.412933
v 0.368762 0.508995 0.406100
v 0.407600 0.490977 -0.409100
v 0.414433 0.490977 -0.415933
vt 0.886986 0.552724
vt 0.914793 0.569800
vt 0.886986 0.569800
vt 0.886757 0.552815
vt 0.914334 0.553044
vt 0.886986 0.553044
vt 0.942599 0.536492
vt 0.970405 0.564298
vt 0.942599 0.564298
vt 0.914793 0.550260
vt 0.942599 0.567598
vt 0.914793 0.567598
vt 0.914793 0.567598
vt 0.942599 0.550260
vt 0.942599 0.567598
vt 0.886986 0.552650
vt 0.914793 0.569800
vt 0.886986 0.569800
vt 0.886986 0.569800
vt 0.914334 0.569800
vt 0.970159 0.564024
vt 0.942811 0.536677
vt 0.970159 0.536677
vt 0.915007 0.567357
vt 0.942355 0.550601
vt 0.942355 0.567357
vt 0.914334 0.569800
vt 0.886986 0.553044
vt 0.886986 0.569800
vt 0.914334 0.553044
vt 0.886757 0.552815
vt 0.942355 0.550601
vt 0.915007 0.567357
vt 0.942355 0.567357
vt 0.915007 0.550601
vt 0.914793 0.550260
vt 0.942599 0.550260
vt 0.942355 0.550601
vt 0.915007 0.550601
vt 0.914793 0.552724
vt 0.914563 0.552815
vt 0.970405 0.536492
vt 0.942599 0.550260
vt 0.914793 0.552650
vt 0.942811 0.564024
vt 0.915007 0.550601
vt 0.914563 0.552815
vt 0.914793 0.550260
vn 0.0000 0.0002 -1.0000
vn 0.0226 0.9995 0.0226
vn 0.0000 -1.0000 0.0000
vn 1.0000 0.0000 0.0000
vn -0.9994 0.0359 -0.0000
vn -0.0000 0.0000 1.0000
vn 0.0000 1.0000 -0.0000
vn -1.0000 0.0000 -0.0000
vn 0.0000 0.0000 -1.0000
vn 0.9993 -0.0371 0.0000
vn 0.0211 0.9996 -0.0211
vn 0.0222 0.9995 -0.0222
vn 0.9961 0.0760 0.0450
vn -0.9998 0.0007 -0.0216
vn 0.0220 -0.0341 0.9992
vn -0.9959 -0.0787 -0.0457
vn -0.0224 0.0353 -0.9991
vn 0.9998 -0.0008 0.0219
vn -0.0228 0.9995 -0.0228
usemtl M_Interior
s 1
f 2/1/1 38/2/1 37/3/1
f 17/4/2 15/5/2 40/6/2
f 36/7/3 4/8/3 34/9/3
f 33/10/4 9/11/4 8/12/4
f 7/13/5 13/14/5 10/15/5
f 14/16/6 6/17/6 5/18/6
f 39/19/6 15/5/6 16/20/6
f 19/21/7 22/22/7 20/23/7
f 23/24/8 26/25/8 25/26/8
f 29/27/9 32/28/9 31/29/9
f 30/30/7 28/31/7 32/28/7
f 44/32/10 41/33/10 43/34/10
f 42/35/7 13/14/7 12/36/7
f 45/37/11 47/38/11 46/39/11
f 2/1/1 1/40/1 38/2/1
f 17/4/12 18/41/12 15/5/12
f 36/7/3 35/42/3 4/8/3
f 33/10/13 3/43/13 9/11/13
f 7/13/14 12/36/14 13/14/14
f 14/16/15 11/44/15 6/17/15
f 39/19/6 40/6/6 15/5/6
f 19/21/7 21/45/7 22/22/7
f 23/24/16 24/46/16 26/25/16
f 29/27/17 30/30/17 32/28/17
f 30/30/7 27/47/7 28/31/7
f 44/32/18 42/35/18 41/33/18
f 42/35/7 44/32/7 13/14/7
f 45/37/19 48/48/19 47/38/19
