# Blender v3.0.1 OBJ File: 'props.blend'
# www.blender.org
mtllib Box_paper01b.mtl
o BoxCardBoard01b_LOD0_Cube.001
v -0.023057 0.471344 0.294492
v 0.252496 -0.001377 -0.294492
v -0.023057 0.471344 0.294492
v -0.252496 0.428320 -0.294492
v 0.248520 0.428320 -0.289854
v -0.248520 0.002717 -0.289854
v 0.100649 0.674106 -0.294492
v 0.248520 0.428320 0.289854
v -0.251761 0.424712 -0.294492
v -0.251761 0.424712 0.294492
v -0.248520 0.002717 0.289854
v -0.248520 0.002717 -0.289854
v -0.023793 0.474952 0.294492
v 0.248520 0.002717 0.289854
v 0.248520 0.002717 -0.289854
v -0.023793 0.474952 -0.294492
v 0.252496 0.428320 0.294492
v -0.023793 0.474952 0.294492
v -0.252496 0.428320 0.294492
v -0.252496 0.428320 0.294492
v 0.248520 0.002717 -0.289854
v 0.248520 0.002717 0.289854
v 0.252496 0.428320 -0.294492
v 0.252496 -0.001377 -0.294492
v 0.252496 -0.001377 0.294492
v -0.252496 -0.001377 -0.294492
v -0.252496 -0.001377 0.294492
v -0.248520 0.002717 0.289854
v -0.252496 0.428320 0.294492
v -0.251761 0.424712 0.294492
v -0.252496 0.428320 -0.294492
v 0.096833 0.671749 0.294492
v 0.248520 0.428320 0.289854
v 0.100649 0.674106 0.294492
v 0.252496 0.428320 0.294492
v 0.248520 0.428320 0.289854
v 0.248520 0.002717 0.289854
v -0.251893 0.428320 0.289854
v -0.248520 0.002717 0.289854
v -0.252496 -0.001377 -0.294492
v 0.248520 0.428320 0.289854
v 0.248520 0.428320 -0.289854
v 0.096833 0.671749 -0.294492
v 0.096833 0.671749 0.294492
v -0.252479 0.428320 -0.289854
v -0.248520 0.002717 -0.289854
v 0.248520 0.428320 -0.289854
v 0.248520 0.002717 -0.289854
v 0.252496 0.428320 -0.294492
v -0.252496 -0.001377 0.294492
v 0.252496 -0.001377 0.294492
v 0.252496 0.428320 0.294492
v -0.252496 0.428320 0.294492
v -0.023057 0.471344 -0.294492
v -0.252496 0.428320 -0.294492
v -0.023793 0.474952 -0.294492
v -0.251761 0.424712 -0.294492
v -0.252496 -0.001377 -0.294492
v -0.252496 -0.001377 0.294492
v 0.252496 0.428320 0.294492
v 0.252496 -0.001377 0.294492
v 0.252496 -0.001377 -0.294492
v 0.252496 0.428320 -0.294492
v 0.100649 0.674106 -0.294492
v 0.100649 0.674106 0.294492
v -0.252496 0.428320 -0.294492
v 0.252496 0.428320 -0.294492
v 0.100649 0.674106 -0.294492
v 0.100649 0.674106 0.294492
v 0.096833 0.671749 -0.294492
v 0.096833 0.671749 0.294492
v 0.248520 0.428320 -0.289854
v 0.096833 0.671749 -0.294492
v -0.023057 0.471344 -0.294492
v -0.023057 0.471344 0.294492
v -0.023057 0.471344 -0.294492
v -0.023793 0.474952 -0.294492
v -0.023793 0.474952 0.294492
vt 0.155633 0.064783
vt 0.173637 0.043624
vt 0.173637 0.064783
vt 0.137091 0.068304
vt 0.155096 0.043626
vt 0.155096 0.068304
vt 0.155804 0.043624
vt 0.173637 0.064449
vt 0.155804 0.064449
vt 0.137091 0.043626
vt 0.127312 0.068304
vt 0.127312 0.043626
vt 0.194235 0.069971
vt 0.160658 0.070643
vt 0.160414 0.069971
vt 0.124986 0.068693
vt 0.137091 0.044014
vt 0.137091 0.068693
vt 0.160414 0.068868
vt 0.187738 0.069299
vt 0.160414 0.069299
vt 0.155633 0.064783
vt 0.173637 0.043624
vt 0.173637 0.064783
vt 0.194596 0.067827
vt 0.173770 0.043537
vt 0.194596 0.043537
vt 0.125290 0.069540
vt 0.194239 0.069971
vt 0.125290 0.069971
vt 0.155096 0.044014
vt 0.155096 0.068693
vt 0.125290 0.069971
vt 0.194239 0.070496
vt 0.125290 0.070496
vt 0.194239 0.070496
vt 0.135588 0.069953
vt 0.194705 0.069953
vt 0.160414 0.068868
vt 0.187737 0.068437
vt 0.187737 0.068868
vt 0.173465 0.043957
vt 0.155633 0.064783
vt 0.155633 0.043957
vt 0.193994 0.069971
vt 0.160418 0.069299
vt 0.194239 0.069299
vt 0.135588 0.069953
vt 0.194239 0.069410
vt 0.194705 0.069953
vt 0.194930 0.043537
vt 0.173770 0.068215
vt 0.173770 0.043537
vt 0.154915 0.044014
vt 0.137082 0.068304
vt 0.154915 0.068304
vt 0.137082 0.044014
vt 0.125064 0.068498
vt 0.127320 0.068498
vt 0.137099 0.043820
vt 0.127320 0.043820
vt 0.154781 0.044014
vt 0.137099 0.068498
vt 0.154781 0.068304
vt 0.155633 0.043624
vt 0.173637 0.043624
vt 0.194239 0.070496
vt 0.124986 0.044014
vt 0.187738 0.068868
vt 0.155633 0.043624
vt 0.173770 0.067827
vt 0.194239 0.069540
vt 0.194239 0.069971
vt 0.136053 0.070496
vt 0.160414 0.068437
vt 0.173465 0.064783
vt 0.160414 0.069824
vt 0.136053 0.069410
vt 0.194930 0.068215
vt 0.125064 0.043820
vn 0.0000 0.0000 -1.0000
vn -1.0000 0.0000 -0.0000
vn -0.1998 0.9798 -0.0000
vn -0.6873 -0.4246 0.5893
vn 0.8507 0.5256 0.0000
vn -0.0000 0.0000 1.0000
vn 0.0000 1.0000 -0.0000
vn 0.9798 0.1998 0.0000
vn 1.0000 0.0000 0.0000
vn -0.5256 0.8507 -0.0000
vn -0.6873 -0.4246 -0.5893
vn 0.0000 -1.0000 -0.0000
vn -0.8487 -0.5289 -0.0000
vn 0.1998 -0.9798 0.0000
vn 1.0000 0.0077 0.0000
vn 0.0085 -0.0138 0.9999
vn 0.0085 -0.0138 -0.9999
usemtl M_Interior
s 1
f 4/1/1 2/2/1 40/3/1
f 29/4/2 58/5/2 59/6/2
f 39/7/1 36/8/1 37/9/1
f 31/10/3 78/11/3 77/12/3
f 34/13/4 33/14/4 35/15/4
f 64/16/5 60/17/5 63/18/5
f 54/19/1 55/20/1 56/21/1
f 52/22/6 50/23/6 51/24/6
f 11/25/7 15/26/7 12/27/7
f 1/28/8 16/29/8 13/30/8
f 63/18/9 61/31/9 62/32/9
f 70/33/10 69/34/10 68/35/10
f 8/36/7 19/37/7 17/38/7
f 20/39/6 3/40/6 18/41/6
f 46/42/6 47/43/6 45/44/6
f 72/45/11 7/46/11 23/47/11
f 66/48/7 5/49/7 67/50/7
f 24/51/12 27/52/12 26/53/12
f 22/54/2 42/55/2 21/56/2
f 41/57/13 43/58/13 42/55/13
f 75/59/14 9/60/14 76/61/14
f 6/62/15 30/63/15 28/64/15
f 4/1/1 49/65/1 2/2/1
f 29/4/2 31/10/2 58/5/2
f 39/7/1 38/66/1 36/8/1
f 31/10/3 29/4/3 78/11/3
f 34/13/16 32/67/16 33/14/16
f 64/16/5 65/68/5 60/17/5
f 54/19/1 57/69/1 55/20/1
f 52/22/6 53/70/6 50/23/6
f 11/25/7 14/71/7 15/26/7
f 1/28/8 74/72/8 16/29/8
f 63/18/9 60/17/9 61/31/9
f 70/33/10 71/73/10 69/34/10
f 8/36/7 38/74/7 19/37/7
f 20/39/6 10/75/6 3/40/6
f 46/42/6 48/76/6 47/43/6
f 72/45/17 73/77/17 7/46/17
f 66/48/7 45/78/7 5/49/7
f 24/51/12 25/79/12 27/52/12
f 22/54/2 41/57/2 42/55/2
f 41/57/13 44/80/13 43/58/13
f 75/59/14 30/63/14 9/60/14
f 6/62/15 9/60/15 30/63/15
