# Blender v3.0.1 OBJ File: 'props.blend'
# www.blender.org
mtllib Carpet_straight03.mtl
o Carpet_Straight03_LOD0_Carpet_Straight03.001
v 0.002574 0.010025 0.845501
v 0.014392 0.010025 -1.033639
v 1.534995 0.010025 0.882802
v 0.014392 0.000022 -1.033639
v 0.002574 0.000022 0.845501
v -1.571780 0.000022 0.889760
v -1.529847 0.010025 -0.890321
v -1.529847 0.000022 -0.890321
v -1.571780 0.010025 0.889760
v 1.614537 0.000022 -0.978464
v 1.534995 0.000022 0.882802
v 1.614537 0.010025 -0.978464
v 0.768784 0.000022 0.899004
v 0.768785 0.000022 -0.975376
v 0.768785 0.010025 -0.975376
v 1.586763 0.000022 -0.047831
v -0.763636 0.000022 -0.973797
v -0.763637 0.000022 0.895165
v 0.768784 0.010025 0.899004
v -0.763637 0.010025 0.895165
v -1.513969 0.010025 -0.050241
v -0.763636 0.010025 -0.973797
v -1.513969 0.000022 -0.050241
v 1.586763 0.010025 -0.047831
v 0.002574 0.010025 0.845501
v 0.014392 0.010025 -1.033639
v 1.534995 0.010025 0.882802
v -1.529847 0.010025 -0.890321
v -1.571780 0.010025 0.889760
v 1.614537 0.010025 -0.978464
v 0.768785 0.010025 -0.975376
v 0.002574 0.010025 -0.085132
v 0.768784 0.010025 0.899004
v -0.763637 0.010025 0.895165
v -1.513969 0.010025 -0.050241
v -0.763636 0.010025 -0.973797
v 1.586763 0.010025 -0.047831
vt 0.749366 0.251194
vt 0.748644 0.298073
vt 0.749259 0.298076
vt 0.630452 0.344956
vt 0.630714 0.298598
vt 0.630096 0.298597
vt 0.630358 0.251621
vt 0.689554 0.251714
vt 0.689555 0.251099
vt 0.748644 0.298073
vt 0.749366 0.251194
vt 0.749259 0.298076
vt 0.689554 0.251714
vt 0.630358 0.251621
vt 0.689555 0.251099
vt 0.630714 0.298598
vt 0.630096 0.298597
vt 0.630357 0.252238
vt 0.629739 0.252238
vt 0.748751 0.251190
vt 0.748752 0.250577
vt 0.748536 0.344956
vt 0.749152 0.344958
vt 0.748751 0.251190
vt 0.748752 0.250577
vt 0.630357 0.252238
vt 0.629739 0.252238
vt 0.630714 0.298598
vt 0.631070 0.344957
vt 0.689803 0.344956
vt 0.630714 0.298598
vt 0.689554 0.251714
vt 0.748644 0.298073
vt 0.748536 0.344956
vt 0.689554 0.251714
vt 0.630357 0.252238
vt 0.748751 0.251190
vt 0.748644 0.298073
vt 0.748751 0.251190
vt 0.630357 0.252238
vt 0.631070 0.344957
vn 0.6948 0.0000 0.7192
vn -0.0243 0.0000 0.9997
vn 0.0002 0.0000 -1.0000
vn 0.0367 0.0000 -0.9993
vn 0.7163 0.0000 -0.6978
vn 0.9991 0.0000 0.0427
vn 0.0290 0.0000 0.9996
vn -0.7308 0.0000 0.6826
vn -0.9998 0.0000 -0.0213
vn -0.7507 0.0000 -0.6607
vn -0.0925 0.0000 -0.9957
vn -0.0025 0.0000 1.0000
vn 0.0000 1.0000 -0.0000
usemtl M_Interior
s 1
f 11/1/1 19/2/2 13/3/2
f 4/4/3 15/5/4 14/6/4
f 10/7/5 24/8/6 16/9/6
f 20/10/7 6/11/8 18/12/7
f 21/13/9 8/14/10 23/15/9
f 22/16/11 4/4/3 17/17/11
f 7/18/10 17/17/11 8/19/10
f 9/20/8 23/15/9 6/21/8
f 1/22/12 18/12/7 5/23/12
f 16/9/6 3/24/1 11/25/1
f 14/6/4 12/26/5 10/27/5
f 13/3/2 1/22/12 5/23/12
f 31/28/13 26/29/13 32/30/13
f 32/30/13 26/29/13 36/31/13
f 32/30/13 35/32/13 34/33/13
f 34/33/13 25/34/13 32/30/13
f 32/30/13 37/35/13 31/28/13
f 37/35/13 30/36/13 31/28/13
f 27/37/13 37/35/13 33/38/13
f 25/34/13 33/38/13 32/30/13
f 29/39/13 34/33/13 35/32/13
f 28/40/13 35/32/13 36/31/13
f 11/1/1 3/24/1 19/2/2
f 4/4/3 2/41/3 15/5/4
f 10/7/5 12/26/5 24/8/6
f 20/10/7 9/20/8 6/11/8
f 21/13/9 7/18/10 8/14/10
f 22/16/11 2/41/3 4/4/3
f 7/18/10 22/16/11 17/17/11
f 9/20/8 21/13/9 23/15/9
f 1/22/12 20/10/7 18/12/7
f 16/9/6 24/8/6 3/24/1
f 14/6/4 15/5/4 12/26/5
f 13/3/2 19/2/2 1/22/12
f 32/30/13 36/31/13 35/32/13
f 32/30/13 33/38/13 37/35/13
