# Blender v3.0.1 OBJ File: 'props.blend'
# www.blender.org
mtllib Carpet_straight02.mtl
o Carpet_Straight02_LOD0_Carpet_Straight02.001
v 0.002574 0.010025 0.910555
v 0.002574 0.010025 -0.950712
v 0.002574 0.000022 -0.950712
v 1.534995 0.010025 -0.978464
v 0.002574 0.000022 0.910555
v -1.529847 0.010025 0.929438
v -1.529847 0.000022 -0.931828
v -1.529847 0.000022 0.929438
v -1.529847 0.010025 -0.931828
v 1.534995 0.000022 -0.978464
v 1.534995 0.010025 0.882802
v 1.534995 0.000022 0.882802
v 0.002574 0.010025 0.910555
v 0.002574 0.010025 -0.950712
v 1.534995 0.010025 -0.978464
v -1.529847 0.010025 0.929438
v -1.529847 0.010025 -0.931828
v 1.534995 0.010025 0.882802
vt 0.628598 0.441249
vt 0.628662 0.346267
vt 0.629278 0.346265
vt 0.512577 0.346254
vt 0.512274 0.440397
vt 0.511656 0.440397
vt 0.512275 0.441014
vt 0.627983 0.441254
vt 0.627984 0.441867
vt 0.628598 0.441249
vt 0.627983 0.441254
vt 0.512275 0.441014
vt 0.627984 0.441867
vt 0.512274 0.440397
vt 0.511656 0.440397
vt 0.627983 0.441254
vt 0.513194 0.346253
vt 0.628662 0.346267
vt 0.512274 0.440397
vt 0.627983 0.441254
vt 0.513194 0.346253
vt 0.512274 0.440397
vn 0.7135 0.0000 0.7007
vn 0.0152 0.0000 0.9999
vn -0.0152 0.0000 -0.9999
vn 0.7007 0.0000 -0.7135
vn -0.7027 0.0000 0.7115
vn -0.7027 0.0000 0.7114
vn -0.7115 0.0000 -0.7027
vn -0.7114 0.0000 -0.7027
vn 0.0000 1.0000 -0.0000
usemtl M_Interior
s 1
f 12/1/1 1/2/2 5/3/2
f 3/4/3 4/5/4 10/6/4
f 10/7/4 11/8/1 12/9/1
f 1/2/2 8/10/5 5/3/2
f 6/11/6 7/12/7 8/13/5
f 9/14/8 3/4/3 7/15/7
f 18/16/9 14/17/9 13/18/9
f 13/18/9 17/19/9 16/20/9
f 12/1/1 11/8/1 1/2/2
f 3/4/3 2/21/3 4/5/4
f 10/7/4 4/5/4 11/8/1
f 1/2/2 6/11/6 8/10/5
f 6/11/6 9/14/8 7/12/7
f 9/14/8 2/21/3 3/4/3
f 18/16/9 15/22/9 14/17/9
f 13/18/9 14/17/9 17/19/9
