# Blender v3.0.1 OBJ File: 'props.blend'
# www.blender.org
mtllib Carpet_wrap03.mtl
o Carpet_Wrap3_LOD0_Carpet_Wrap03.001
v -0.998733 0.039694 -0.968970
v -1.428788 0.051350 -0.122827
v -1.517393 0.014914 0.035814
v -0.955641 0.036964 -0.915149
v -0.884267 0.025918 -0.766035
v -1.493897 0.025186 -0.027618
v -0.041652 0.005006 0.809830
v 1.447873 0.014718 0.809831
v 1.447873 0.014718 -0.997249
v -1.035404 0.005006 -0.992178
v -1.274878 0.057075 -0.288380
v -1.060403 0.025263 -0.447343
v -1.521271 0.005202 0.029152
v -1.036507 0.029680 -0.988670
v -0.818154 0.027553 -0.598435
v 1.447873 0.005006 0.809831
v 1.447873 0.005006 -0.997249
v -1.026007 0.012739 -0.992177
v -1.527743 0.014718 0.809831
v -1.527747 0.005006 0.809830
v -0.041649 0.014718 0.809831
v -0.092421 0.005006 -0.994104
v -0.092421 0.013486 -0.994091
v -1.517393 0.014914 0.035814
v 1.447873 0.014718 0.809831
v 1.447873 0.014718 -0.997249
v -1.026007 0.012739 -0.992177
v -1.527743 0.014718 0.809831
v -0.041649 0.014718 0.809831
v -0.092421 0.013486 -0.994091
v -1.428788 0.051350 -0.122827
v -1.517393 0.014914 0.035814
v -0.819020 0.017889 -0.598842
v -1.485154 0.026067 -0.023484
v -1.493897 0.025186 -0.027618
v -1.061271 0.015599 -0.447751
v -1.275746 0.047411 -0.288789
v -1.274878 0.057075 -0.288380
v -1.060403 0.025263 -0.447343
v -1.421859 0.045387 -0.119550
v -0.818154 0.027553 -0.598435
v -0.998733 0.039694 -0.968970
v -0.954390 0.027300 -0.915265
v -0.955641 0.036964 -0.915149
v -0.884267 0.025918 -0.766035
v -0.885132 0.016253 -0.766441
v -0.819020 0.017889 -0.598842
v -1.027044 0.023520 -0.990271
v -1.035404 0.005006 -0.992178
v -0.991802 0.033734 -0.969573
v -1.036507 0.029680 -0.988670
v -0.818154 0.027553 -0.598435
v -1.026007 0.012739 -0.992177
v -0.954390 0.027300 -0.915265
v -1.517393 0.014914 0.035814
v -0.885132 0.016253 -0.766441
v -0.819020 0.017889 -0.598842
v -1.485154 0.026067 -0.023484
v -1.027044 0.023520 -0.990271
v -1.061271 0.015599 -0.447751
v -1.275746 0.047411 -0.288789
v -0.991802 0.033734 -0.969573
v -1.421859 0.045387 -0.119550
v -1.026007 0.012739 -0.992177
vt 0.644816 0.240364
vt 0.621492 0.239770
vt 0.637333 0.249022
vt 0.653138 0.223719
vt 0.581177 0.225197
vt 0.585265 0.225991
vt 0.652530 0.225243
vt 0.592543 0.227914
vt 0.652639 0.228009
vt 0.606264 0.231959
vt 0.650997 0.231992
vt 0.630615 0.345077
vt 0.630157 0.252431
vt 0.630801 0.252433
vt 0.630801 0.252433
vt 0.630615 0.345077
vt 0.629926 0.345077
vt 0.748058 0.251706
vt 0.630803 0.251790
vt 0.580870 0.225508
vt 0.680638 0.251709
vt 0.681098 0.250497
vt 0.630819 0.251787
vt 0.645319 0.240726
vt 0.644816 0.240364
vt 0.637333 0.249022
vt 0.748059 0.251063
vt 0.748073 0.282478
vt 0.680638 0.251709
vt 0.748265 0.285011
vt 0.684816 0.251709
vt 0.705990 0.251709
vt 0.748076 0.260841
vt 0.726116 0.251706
vt 0.651494 0.232357
vt 0.650997 0.231992
vt 0.748076 0.271035
vt 0.691224 0.251709
vt 0.653086 0.228351
vt 0.652639 0.228009
vt 0.748076 0.278147
vt 0.653128 0.225370
vt 0.652530 0.225243
vt 0.748058 0.251706
vt 0.653128 0.225370
vt 0.653138 0.223719
vt 0.749264 0.345181
vt 0.748265 0.285011
vt 0.748576 0.345173
vt 0.748701 0.251711
vt 0.749264 0.345077
vt 0.630801 0.252433
vt 0.748265 0.285011
vt 0.680638 0.251709
vt 0.629926 0.345077
vt 0.748576 0.345173
vt 0.748058 0.251706
vt 0.630801 0.252433
vt 0.629926 0.345077
vt 0.630155 0.252423
vt 0.749029 0.284392
vt 0.749264 0.345077
vt 0.748492 0.345093
vt 0.585176 0.226601
vt 0.585265 0.225991
vt 0.580870 0.225508
vt 0.592444 0.228517
vt 0.592543 0.227914
vt 0.606030 0.232533
vt 0.606264 0.231959
vt 0.621192 0.240311
vt 0.621492 0.239770
vt 0.636992 0.249538
vt 0.637333 0.249022
vt 0.637832 0.249389
vn 0.0461 0.9986 0.0275
vn 0.1521 0.9869 0.0544
vn -0.0125 0.9999 -0.0048
vn -0.7034 0.0171 -0.7106
vn -0.8930 0.4119 -0.1810
vn -0.9031 0.0898 -0.4200
vn -0.7242 0.5905 -0.3561
vn -0.6992 0.6331 -0.3322
vn -0.0950 0.9931 -0.0691
vn -0.0660 0.9965 -0.0503
vn 0.0763 0.9970 0.0154
vn -0.0000 -0.0001 1.0000
vn 0.7071 -0.0000 0.7071
vn -0.7100 0.0025 0.7042
vn 0.7066 0.0000 -0.7076
vn -0.9001 0.4250 -0.0956
vn -0.7101 0.0002 0.7041
vn 0.9158 -0.0653 -0.3963
vn 0.9167 -0.0620 -0.3947
vn 0.9283 -0.0678 -0.3655
vn 0.7064 0.0000 -0.7078
vn 0.7498 -0.5555 0.3594
vn 0.8625 -0.2972 0.4097
vn 0.9022 0.0105 0.4312
vn 0.8496 -0.3376 0.4052
vn 0.0823 -0.9941 0.0709
vn -0.0821 -0.9964 -0.0224
vn -0.2043 -0.9721 -0.1149
vn 0.8677 0.1146 -0.4837
vn 0.8582 0.1421 -0.4933
vn -0.1048 -0.9939 -0.0336
vn 0.7186 -0.5870 0.3728
vn 0.5204 0.6209 -0.5863
vn 0.4251 0.5821 -0.6931
vn 0.0949 -0.9942 0.0509
vn 0.0984 0.3775 -0.9207
vn 0.0917 0.3923 -0.9153
vn 0.0125 -0.9999 0.0048
vn -0.0997 0.1421 -0.9848
vn -0.1110 0.1350 -0.9846
vn -0.0020 0.0015 -1.0000
vn -0.0020 0.0026 -1.0000
vn 0.0008 1.0000 -0.0009
vn 0.0000 1.0000 -0.0007
vn 0.0051 1.0000 0.0003
vn -0.0003 1.0000 -0.0006
vn -0.0008 1.0000 -0.0007
vn -0.0004 1.0000 -0.0004
vn 0.0000 1.0000 0.0000
vn -0.1476 0.9837 0.1026
vn -0.1327 0.9845 0.1147
vn -0.1484 0.9834 0.1043
vn 0.4368 0.7802 0.4477
vn 0.4512 0.7610 0.4662
vn 0.6610 -0.0800 0.7461
vn 0.6614 -0.0909 0.7445
vn 0.5566 -0.0850 0.8264
vn 0.5568 -0.0850 0.8263
vn 0.5279 -0.0830 0.8452
usemtl M_Interior
s 1
f 5/1/1 12/2/2 15/3/3
f 10/4/4 13/5/5 6/6/6
f 10/4/4 6/6/6 14/7/7
f 14/7/7 6/6/6 2/8/8
f 14/7/7 2/8/8 1/9/9
f 1/9/9 2/8/8 11/10/10
f 1/9/9 11/10/10 4/11/11
f 4/11/11 11/10/10 12/2/2
f 4/11/11 12/2/2 5/1/1
f 21/12/12 16/13/13 8/14/13
f 19/15/14 7/16/12 21/17/12
f 9/18/15 8/14/13 16/19/13
f 13/5/5 3/20/16 6/6/6
f 19/15/14 3/21/16 13/22/5
f 19/15/14 13/22/5 20/23/17
f 46/24/18 45/25/19 52/26/20
f 9/18/15 16/19/13 17/27/21
f 59/28/22 55/29/23 64/30/24
f 59/28/22 58/31/25 55/29/23
f 61/32/26 56/33/27 60/34/28
f 43/35/29 45/25/19 46/24/18
f 43/35/29 44/36/30 45/25/19
f 61/32/26 54/37/31 56/33/27
f 63/38/32 54/37/31 61/32/26
f 50/39/33 44/36/30 43/35/29
f 50/39/33 42/40/34 44/36/30
f 63/38/32 62/41/35 54/37/31
f 58/31/25 62/41/35 63/38/32
f 48/42/36 42/40/34 50/39/33
f 48/42/36 51/43/37 42/40/34
f 58/31/25 59/28/22 62/41/35
f 60/34/28 56/33/27 57/44/38
f 53/45/39 51/43/37 48/42/36
f 53/45/39 49/46/40 51/43/37
f 22/47/41 18/48/42 23/49/41
f 17/50/21 23/51/41 9/18/15
f 28/52/43 27/53/44 24/54/45
f 27/53/44 29/55/46 30/56/47
f 26/57/48 29/55/46 25/58/49
f 21/12/12 7/59/12 16/13/13
f 19/15/14 20/60/17 7/16/12
f 22/47/41 10/61/4 18/48/42
f 17/50/21 22/62/41 23/51/41
f 27/53/44 28/52/43 29/55/46
f 26/57/48 30/63/47 29/55/46
f 34/64/50 35/65/51 32/66/52
f 35/65/51 34/64/50 40/67/53
f 35/65/51 40/67/53 31/68/54
f 31/68/54 40/67/53 37/69/55
f 31/68/54 37/69/55 38/70/56
f 38/70/56 37/69/55 36/71/57
f 38/70/56 36/71/57 39/72/58
f 39/72/58 36/71/57 33/73/59
f 39/72/58 33/73/59 41/74/59
f 46/24/18 52/26/20 47/75/20
