# Blender v3.0.1 OBJ File: 'props.blend'
# www.blender.org
mtllib Chair02.mtl
o Chair02_LOD0_Chair2.009
v 0.270245 0.442895 -0.242087
v -0.255851 0.442895 -0.243592
v -0.256222 0.442895 0.286945
v 0.269874 0.442895 0.287313
v 0.270245 0.486735 -0.238782
v -0.255851 0.486735 -0.239154
v -0.256222 0.486735 0.286943
v 0.269874 0.486735 0.287313
v -0.256222 0.442895 0.286943
v 0.269874 0.442895 0.287313
v -0.256222 0.486735 0.286943
v 0.269874 0.486735 0.287313
v 0.283415 0.004481 -0.265078
v -0.268985 0.004481 -0.265467
v 0.270245 0.486735 -0.238782
v -0.255851 0.486735 -0.239154
v -0.238296 0.004481 -0.265445
v -0.212010 0.486735 -0.239121
v 0.252727 0.004481 -0.265099
v 0.226404 0.486735 -0.238815
v -0.268954 0.004481 -0.309309
v -0.255820 0.486735 -0.282994
v 0.283446 0.004481 -0.308920
v 0.270276 0.486735 -0.282624
v -0.238265 0.004481 -0.309288
v -0.211979 0.486735 -0.282963
v 0.252758 0.004481 -0.308942
v 0.226435 0.486735 -0.282655
v -0.211952 1.020739 -0.321276
v -0.255789 1.061815 -0.327968
v 0.226462 1.020739 -0.320968
v 0.270307 1.061815 -0.327598
v -0.211935 1.020739 -0.344579
v -0.255772 1.061815 -0.351272
v 0.226478 1.020739 -0.344270
v 0.270323 1.061815 -0.350900
v 0.287611 0.442895 0.003343
v -0.273558 0.442895 0.002949
v 0.287612 0.486735 0.002357
v -0.273557 0.486735 0.001961
v 0.006811 0.442895 0.309047
v 0.006811 0.486735 0.309047
v -0.233931 0.442895 -0.239138
v -0.234286 0.442895 0.267010
v -0.233931 0.486735 -0.239138
v -0.234285 0.486735 0.265038
v -0.256021 0.442895 0.002961
v -0.256020 0.486735 0.001975
v 0.248325 0.442895 -0.238798
v 0.247968 0.442895 0.267349
v 0.248325 0.486735 -0.238798
v 0.247970 0.486735 0.265377
v 0.270074 0.442895 0.003330
v 0.270075 0.486735 0.002344
v -0.234287 0.442944 0.267007
v 0.247968 0.442895 0.267348
v -0.234285 0.486735 0.265036
v 0.247969 0.486735 0.265376
v 0.006827 0.442895 0.287128
v 0.006827 0.486735 0.287128
v 0.270245 0.447278 -0.238782
v -0.255851 0.447278 -0.239154
v -0.256222 0.447278 0.286943
v 0.269874 0.447278 0.287313
v 0.248325 0.442895 -0.238798
v -0.233931 0.442895 -0.239138
v 0.248325 0.486735 -0.238798
v -0.233931 0.486735 -0.239138
v -0.014708 0.442895 -0.260904
v -0.014708 0.486735 -0.260904
v 0.248309 0.442895 -0.216879
v -0.233946 0.442895 -0.217218
v 0.248309 0.486735 -0.216879
v -0.233946 0.486735 -0.217218
v -0.014724 0.442895 -0.238983
v -0.014724 0.486735 -0.238983
v 0.270245 0.486735 -0.238782
v 0.269874 0.486735 0.287313
v 0.287612 0.486735 0.002357
v -0.255851 0.486735 -0.239154
v -0.256222 0.486458 0.286943
v -0.273557 0.486735 0.001961
v -0.203575 0.447279 0.234370
v 0.217302 0.447279 0.234666
v -0.247416 0.447279 0.234341
v 0.261144 0.447279 0.234699
v -0.203606 0.447279 0.278212
v 0.217271 0.447279 0.278507
v -0.256444 0.004481 0.291548
v 0.270091 0.004481 0.291915
v -0.247447 0.447279 0.278181
v 0.261113 0.447279 0.278539
v -0.220933 0.004481 0.291573
v 0.234579 0.004481 0.291890
v -0.256419 0.004481 0.256035
v 0.270115 0.004481 0.256405
v -0.220908 0.004481 0.256059
v 0.234604 0.004481 0.256379
v -0.211952 1.020739 -0.321275
v -0.211936 1.020739 -0.344580
v -0.211979 0.715875 -0.281954
v 0.226428 0.663298 -0.273446
v 0.226434 0.715875 -0.281647
v -0.211964 0.715875 -0.303875
v 0.226443 0.663298 -0.295366
v 0.226449 0.715875 -0.303567
v -0.211985 0.663298 -0.273753
v -0.211970 0.663298 -0.295674
v 0.255640 0.286151 0.242590
v 0.266947 0.286151 -0.249710
v -0.241924 0.286151 0.242240
v -0.252538 0.286151 -0.250076
v 0.255640 0.321225 0.242590
v 0.266947 0.321225 -0.249710
v -0.241924 0.321225 0.242240
v -0.252538 0.321225 -0.250076
v 0.233719 0.286151 0.242574
v 0.245027 0.286151 -0.249727
v 0.233719 0.321225 0.242574
v 0.245027 0.321225 -0.249727
v -0.220003 0.286151 0.242253
v -0.230617 0.286151 -0.250060
v -0.220003 0.321225 0.242253
v -0.230617 0.321225 -0.250060
v 0.272254 0.286151 -0.003554
v -0.258191 0.286151 -0.003926
v 0.272254 0.321225 -0.003554
v -0.258191 0.321225 -0.003926
v 0.250333 0.286151 -0.003568
v 0.250333 0.321225 -0.003568
v -0.236271 0.286151 -0.003910
v -0.236271 0.321225 -0.003910
v 0.226464 1.020739 -0.324894
v -0.211949 1.020739 -0.325200
v -0.211976 0.715875 -0.285880
v 0.226437 0.715875 -0.285573
v 0.226474 1.020739 -0.339675
v -0.211939 1.020739 -0.339982
v -0.211967 0.715875 -0.300661
v 0.226447 0.715875 -0.300353
v 0.270245 0.482351 -0.238782
v -0.255851 0.482351 -0.239154
v -0.256222 0.482351 0.286943
v 0.269874 0.482351 0.287313
v 0.144826 0.507042 -0.113540
v -0.130609 0.507042 -0.113734
v -0.130803 0.507042 0.161700
v 0.144632 0.507042 0.161894
v 0.217020 0.493436 -0.185632
v -0.202700 0.493436 -0.185928
v -0.202996 0.493436 0.233792
v 0.216724 0.493436 0.234088
vt 0.043027 0.221946
vt 0.045360 0.209025
vt 0.043027 0.209025
vt 0.039409 0.221954
vt 0.041743 0.206808
vt 0.039409 0.206808
vt 0.032607 0.208327
vt 0.031076 0.199111
vt 0.031076 0.208327
vt 0.025718 0.210945
vt 0.007949 0.212076
vt 0.007919 0.210945
vt 0.025762 0.212560
vt 0.007993 0.211430
vt 0.025806 0.210945
vt 0.025762 0.212560
vt 0.008050 0.210947
vt 0.025850 0.210947
vt 0.008138 0.212560
vt 0.025850 0.210947
vt 0.025938 0.212560
vt 0.008050 0.210947
vt 0.025782 0.212560
vt 0.007963 0.212560
vt 0.051882 0.200855
vt 0.050694 0.215410
vt 0.050695 0.200855
vt 0.008138 0.212560
vt 0.025870 0.210947
vt 0.025958 0.212560
vt 0.066010 0.196893
vt 0.064879 0.195278
vt 0.066010 0.195278
vt 0.051869 0.201398
vt 0.050695 0.215846
vt 0.050695 0.201217
vt 0.035573 0.220617
vt 0.037189 0.221747
vt 0.037189 0.220617
vt 0.025850 0.210947
vt 0.008081 0.212077
vt 0.008050 0.210947
vt 0.025762 0.212560
vt 0.007993 0.211430
vt 0.025806 0.210945
vt 0.038646 0.197878
vt 0.037112 0.215645
vt 0.037112 0.199493
vt 0.050695 0.201217
vt 0.051869 0.215665
vt 0.051245 0.215761
vt 0.050695 0.200855
vt 0.051882 0.215484
vt 0.050695 0.216611
vt 0.050695 0.200855
vt 0.051883 0.215410
vt 0.050695 0.216535
vt 0.051869 0.201036
vt 0.050695 0.216611
vt 0.050695 0.200855
vt 0.050709 0.201036
vt 0.051882 0.216611
vt 0.051259 0.216707
vt 0.051882 0.200855
vt 0.050695 0.215484
vt 0.050695 0.200855
vt 0.032607 0.217542
vt 0.031076 0.217542
vt 0.041743 0.206808
vt 0.039409 0.193887
vt 0.039409 0.206808
vt 0.045360 0.209025
vt 0.043027 0.193880
vt 0.043027 0.209025
vt 0.043027 0.202836
vt 0.044642 0.193916
vt 0.043027 0.193880
vt 0.043027 0.203640
vt 0.044642 0.193952
vt 0.043027 0.193880
vt 0.040128 0.193976
vt 0.041743 0.203665
vt 0.041743 0.193940
vt 0.040128 0.193976
vt 0.041743 0.202896
vt 0.041743 0.193976
vt 0.031548 0.208323
vt 0.032607 0.202476
vt 0.031548 0.202476
vt 0.031546 0.199115
vt 0.032606 0.204962
vt 0.032607 0.199111
vt 0.044083 0.193784
vt 0.043238 0.205625
vt 0.043027 0.193880
vt 0.044145 0.206751
vt 0.043027 0.207649
vt 0.040128 0.205741
vt 0.041184 0.194072
vt 0.040973 0.205818
vt 0.039857 0.218561
vt 0.040975 0.205689
vt 0.040975 0.219459
vt 0.032607 0.207374
vt 0.031918 0.215112
vt 0.032607 0.215753
vt 0.031918 0.199752
vt 0.032607 0.207490
vt 0.032607 0.199111
vt 0.050151 0.201680
vt 0.069533 0.182298
vt 0.050151 0.182298
vt 0.049255 0.208054
vt 0.046922 0.194004
vt 0.046922 0.208054
vt 0.049255 0.219780
vt 0.046922 0.219780
vt 0.046922 0.194004
vt 0.048537 0.203729
vt 0.046922 0.203729
vt 0.046922 0.202120
vt 0.048537 0.194004
vt 0.046922 0.194004
vt 0.047587 0.217351
vt 0.048643 0.204665
vt 0.047587 0.204577
vt 0.047483 0.194120
vt 0.047589 0.204781
vt 0.044104 0.218662
vt 0.044104 0.206809
vt 0.043027 0.218662
vt 0.044104 0.192802
vt 0.043027 0.193880
vt 0.044104 0.192802
vt 0.044104 0.218662
vt 0.044966 0.206809
vt 0.040128 0.193976
vt 0.040128 0.207983
vt 0.041205 0.195053
vt 0.040128 0.219787
vt 0.041201 0.219884
vt 0.039266 0.208032
vt 0.040128 0.219884
vt 0.040128 0.193976
vt 0.030867 0.206815
vt 0.031574 0.198335
vt 0.031574 0.215295
vt 0.031574 0.206815
vt 0.032280 0.214588
vt 0.032280 0.199042
vt 0.049638 0.207042
vt 0.048560 0.217861
vt 0.048560 0.194112
vt 0.048560 0.207087
vt 0.047483 0.217861
vt 0.047483 0.194120
vt 0.008002 0.211252
vt 0.024287 0.212560
vt 0.007963 0.212560
vt 0.024308 0.210948
vt 0.008024 0.212255
vt 0.007984 0.210948
vt 0.024333 0.210947
vt 0.008024 0.212255
vt 0.007997 0.210947
vt 0.007977 0.211252
vt 0.024287 0.212560
vt 0.007951 0.212560
vt 0.069432 0.193542
vt 0.070740 0.194850
vt 0.069432 0.194850
vt 0.024318 0.210948
vt 0.008024 0.212255
vt 0.007984 0.210948
vt 0.008002 0.211252
vt 0.024296 0.212560
vt 0.007963 0.212560
vt 0.064702 0.195196
vt 0.066010 0.193887
vt 0.066010 0.195196
vt 0.024348 0.212255
vt 0.008050 0.210947
vt 0.024380 0.210640
vt 0.024379 0.210769
vt 0.008081 0.212077
vt 0.008055 0.210769
vt 0.037112 0.212638
vt 0.037695 0.199493
vt 0.037112 0.199493
vt 0.037112 0.199493
vt 0.038646 0.217260
vt 0.037112 0.215645
vt 0.037112 0.199493
vt 0.037971 0.215645
vt 0.037112 0.215645
vt 0.034822 0.200301
vt 0.036782 0.216454
vt 0.034822 0.216454
vt 0.035975 0.216454
vt 0.036782 0.200302
vt 0.035975 0.200302
vt 0.034822 0.200301
vt 0.036782 0.216454
vt 0.034822 0.216454
vt 0.036782 0.200302
vt 0.035975 0.216454
vt 0.035975 0.200302
vt 0.024944 0.203523
vt 0.015874 0.204815
vt 0.024944 0.204815
vt 0.024837 0.204008
vt 0.015766 0.202716
vt 0.015766 0.204008
vt 0.024855 0.202716
vt 0.015784 0.204008
vt 0.024855 0.204008
vt 0.023018 0.202716
vt 0.015809 0.203359
vt 0.023061 0.203359
vt 0.024837 0.203523
vt 0.015784 0.202716
vt 0.024855 0.202716
vt 0.024944 0.203523
vt 0.015874 0.204815
vt 0.015874 0.203523
vt 0.015802 0.204815
vt 0.023025 0.204171
vt 0.015787 0.204171
vt 0.015766 0.204008
vt 0.024801 0.204813
vt 0.015712 0.204813
vt 0.015802 0.204815
vt 0.024855 0.204008
vt 0.015845 0.204172
vt 0.023054 0.204815
vt 0.023097 0.204172
vt 0.024962 0.203523
vt 0.015874 0.204815
vt 0.015874 0.203523
vt 0.024855 0.202716
vt 0.015820 0.203521
vt 0.015766 0.202716
vt 0.024841 0.203359
vt 0.017617 0.202716
vt 0.017603 0.203359
vt 0.024855 0.202716
vt 0.015766 0.204008
vt 0.024855 0.204008
vt 0.024855 0.204008
vt 0.015766 0.202716
vt 0.015766 0.204008
vt 0.024944 0.203523
vt 0.015856 0.204815
vt 0.024944 0.204815
vt 0.786975 0.738449
vt 0.745913 0.696871
vt 0.786975 0.696871
vt 0.336684 0.078180
vt 0.372907 0.045567
vt 0.336684 0.045567
vt 0.755631 0.728473
vt 0.777257 0.706847
vt 0.777257 0.728473
vt 0.782921 0.734137
vt 0.787097 0.697007
vt 0.787097 0.738313
vt 0.749967 0.734137
vt 0.745791 0.697007
vt 0.749967 0.701183
vt 0.745791 0.738313
vt 0.782921 0.701183
vt 0.755631 0.706847
vt 0.045360 0.221894
vt 0.041743 0.222006
vt 0.032607 0.199111
vt 0.025762 0.212560
vt 0.007963 0.212560
vt 0.007963 0.212560
vt 0.008050 0.210947
vt 0.025870 0.210947
vt 0.051882 0.216535
vt 0.008050 0.210947
vt 0.064879 0.196893
vt 0.051319 0.215942
vt 0.035573 0.221747
vt 0.025894 0.212562
vt 0.007963 0.212560
vt 0.038646 0.217260
vt 0.051869 0.201036
vt 0.051882 0.200855
vt 0.051882 0.200855
vt 0.051319 0.216707
vt 0.051882 0.200855
vt 0.051882 0.216611
vt 0.041743 0.193940
vt 0.045360 0.193827
vt 0.044642 0.202836
vt 0.044642 0.203677
vt 0.040128 0.203737
vt 0.040128 0.202932
vt 0.032607 0.208327
vt 0.031546 0.204962
vt 0.044083 0.205549
vt 0.043874 0.193932
vt 0.031914 0.207432
vt 0.069533 0.201680
vt 0.049255 0.194004
vt 0.048537 0.194004
vt 0.048537 0.202120
vt 0.048643 0.217439
vt 0.048537 0.194004
vt 0.024335 0.210945
vt 0.024357 0.212562
vt 0.024366 0.212562
vt 0.024319 0.210945
vt 0.070740 0.193542
vt 0.024366 0.212562
vt 0.024344 0.210945
vt 0.064702 0.193887
vt 0.008024 0.212255
vt 0.024411 0.212384
vt 0.037695 0.212638
vt 0.038646 0.197878
vt 0.037971 0.199493
vt 0.036782 0.200301
vt 0.036782 0.216454
vt 0.015874 0.203523
vt 0.024837 0.202716
vt 0.015784 0.202716
vt 0.015766 0.202716
vt 0.015766 0.203523
vt 0.024944 0.204815
vt 0.023039 0.204815
vt 0.024855 0.204008
vt 0.015784 0.204008
vt 0.015802 0.204815
vt 0.024962 0.204815
vt 0.024909 0.203521
vt 0.024855 0.202716
vt 0.015766 0.202716
vt 0.024855 0.202716
vt 0.015856 0.203523
vt 0.745913 0.738449
vt 0.372907 0.078180
vn -1.0000 0.0003 -0.0052
vn -0.9974 0.0063 -0.0718
vn -0.9974 0.0073 -0.0716
vn 1.0000 0.0002 -0.0038
vn 0.9981 0.0001 0.0623
vn 0.9981 0.0000 0.0623
vn -0.0007 -0.0000 1.0000
vn -0.0837 0.0000 0.9965
vn 0.0017 -0.0295 -0.9996
vn 0.0007 0.0545 -0.9985
vn -0.0003 -0.0295 -0.9996
vn 0.0007 -0.0317 -0.9995
vn -0.9999 0.0134 -0.0007
vn -0.9996 0.0273 -0.0007
vn -0.9999 0.0141 -0.0007
vn 0.9996 0.0273 0.0007
vn 0.9999 0.0134 0.0007
vn 0.9999 0.0141 0.0007
vn -0.9985 -0.0545 -0.0007
vn -0.9996 -0.0267 -0.0007
vn 0.0397 -0.1177 -0.9923
vn 0.9985 -0.0545 0.0007
vn 0.9996 -0.0271 0.0007
vn 0.9996 -0.0282 0.0007
vn 0.0000 -1.0000 -0.0000
vn 1.0000 -0.0000 0.0007
vn -0.0006 0.0482 0.9988
vn -0.0007 -0.0545 0.9985
vn -0.0009 0.0482 0.9988
vn -0.0007 0.0509 0.9987
vn 0.0032 0.1560 0.9878
vn -0.0007 0.1601 0.9871
vn 0.0027 0.1564 0.9877
vn -1.0000 0.0000 -0.0007
vn -0.0076 0.1526 0.9883
vn -0.0078 0.1526 0.9883
vn -0.0186 -0.1392 -0.9901
vn -0.0202 -0.1383 -0.9902
vn 0.0823 0.0000 0.9966
vn 0.9975 0.0046 -0.0707
vn 0.9975 0.0053 -0.0706
vn -0.9981 0.0001 0.0609
vn -0.9981 0.0000 0.0609
vn 0.9958 0.0003 0.0912
vn 1.0000 -0.0000 0.0056
vn 1.0000 -0.0000 0.0031
vn 0.9966 -0.0035 -0.0821
vn 0.9966 -0.0037 -0.0820
vn -1.0000 -0.0000 0.0017
vn -0.9965 -0.0034 -0.0835
vn -1.0000 -0.0000 0.0041
vn -0.9960 0.0000 0.0898
vn 0.0903 -0.0397 -0.9951
vn 0.0007 -0.0051 -1.0000
vn 0.0007 0.0000 -1.0000
vn -0.0888 -0.0397 -0.9953
vn -0.0898 -0.0448 -0.9950
vn -0.0001 -1.0000 -0.0000
vn 0.0002 -1.0000 -0.0023
vn -0.0001 -1.0000 -0.0001
vn -0.0075 -0.0000 -1.0000
vn 0.0837 0.0000 -0.9965
vn -0.0988 0.0000 -0.9951
vn 0.0076 0.0000 1.0000
vn 0.0988 0.0000 0.9951
vn 0.0000 1.0000 0.0000
vn 0.0072 1.0000 0.0005
vn 0.9998 0.0203 0.0007
vn -0.9998 0.0203 -0.0007
vn 0.0007 -0.0489 -0.9988
vn -0.9992 -0.0391 -0.0007
vn 0.9992 -0.0391 0.0007
vn -0.0007 0.0302 0.9995
vn 0.0007 -0.1601 -0.9871
vn -0.0007 0.1541 0.9881
vn 0.0007 -0.1541 -0.9881
vn -0.9998 0.0000 0.0215
vn -0.9997 0.0000 -0.0230
vn 0.9998 0.0000 -0.0216
vn 0.9997 0.0000 0.0229
vn -0.9997 -0.0000 -0.0229
vn -0.9998 0.0000 0.0216
vn -0.9997 0.0000 -0.0228
vn 0.9997 0.0000 0.0230
vn 0.9998 0.0000 -0.0215
vn 0.9978 0.0000 -0.0659
vn -0.9977 0.0000 -0.0673
vn 0.9977 0.0000 0.0673
vn -0.9978 0.0000 0.0659
vn -0.0007 0.1279 0.9918
vn 0.0007 -0.1279 -0.9918
vn -0.0701 0.9951 0.0700
vn 0.0701 0.9951 -0.0700
vn -0.0700 0.9951 -0.0701
vn -0.1006 0.9898 -0.1007
vn 0.1032 0.9893 -0.1030
vn -0.1030 0.9893 -0.1032
vn -0.1007 0.9898 0.1006
vn 0.1030 0.9893 0.1032
vn 0.1006 0.9898 0.1007
vn -0.1032 0.9893 0.1030
vn 0.1007 0.9898 -0.1006
vn 0.0700 0.9951 0.0701
vn -1.0000 -0.0002 -0.0072
vn 1.0000 -0.0001 -0.0058
vn -0.9996 -0.0282 -0.0007
vn 0.0411 -0.1178 -0.9922
vn 0.9996 -0.0267 0.0007
vn 0.0030 0.1562 0.9877
vn 0.9958 0.0000 0.0912
vn 1.0000 -0.0001 0.0056
vn -0.9965 -0.0037 -0.0834
vn -0.9960 0.0003 0.0898
vn 0.0911 -0.0448 -0.9948
vn 0.0002 -1.0000 -0.0022
vn -0.0076 0.0000 -1.0000
usemtl M_Interior
s 1
f 38/1/1 6/2/2 2/3/3
f 37/4/4 8/5/5 4/6/6
f 42/7/7 9/8/8 41/9/7
f 22/10/9 25/11/10 21/12/10
f 24/13/11 27/14/10 28/15/12
f 22/16/13 14/17/14 16/18/15
f 13/19/16 24/20/17 15/21/18
f 19/22/19 28/23/20 27/24/19
f 22/25/9 33/26/21 26/27/12
f 17/28/22 26/29/23 18/30/24
f 13/31/25 27/32/25 23/33/25
f 26/34/23 29/35/26 18/36/24
f 21/37/25 17/38/25 14/39/25
f 15/40/27 19/41/28 13/42/28
f 16/43/29 17/44/28 18/45/30
f 32/46/31 99/47/32 31/48/33
f 28/49/20 31/50/34 35/51/34
f 16/52/29 29/53/35 30/54/36
f 24/55/11 35/56/37 36/57/38
f 24/58/17 32/59/26 15/60/18
f 22/61/13 30/62/34 34/63/34
f 15/64/27 31/65/33 20/66/30
f 12/67/39 41/9/7 10/68/39
f 5/69/40 37/70/4 1/71/41
f 7/72/42 38/73/1 3/74/43
f 43/75/44 48/76/45 47/77/46
f 47/78/46 46/79/47 44/80/48
f 53/81/49 52/82/50 54/83/51
f 49/84/52 54/85/51 51/86/52
f 55/87/53 60/88/54 59/89/55
f 56/90/56 60/91/54 58/92/57
f 43/93/25 38/94/25 2/95/25
f 38/73/25 44/96/25 3/97/25
f 53/98/25 1/99/25 37/100/25
f 50/101/25 37/102/25 4/103/25
f 41/104/58 56/105/25 10/106/25
f 55/107/59 41/108/60 9/109/59
f 61/110/25 63/111/25 62/112/25
f 70/113/61 65/114/62 69/115/61
f 68/116/63 69/115/61 66/117/63
f 71/118/8 76/119/64 75/120/64
f 75/121/64 74/122/65 72/123/65
f 65/124/25 75/125/25 69/126/25
f 75/125/25 66/127/25 69/128/25
f 16/129/66 48/130/66 68/131/66
f 48/130/66 7/132/66 46/133/66
f 81/134/67 80/135/67 82/136/67
f 8/137/66 54/138/66 52/139/66
f 15/140/66 67/141/66 54/138/66
f 79/142/66 77/143/66 78/144/66
f 42/145/66 12/146/66 11/147/66
f 60/148/66 57/149/66 11/147/66
f 60/148/66 12/146/66 58/150/66
f 70/151/66 68/152/66 67/153/66
f 76/154/66 68/152/66 74/155/66
f 67/153/66 76/154/66 73/156/66
f 96/157/68 92/158/68 90/159/68
f 91/160/69 95/161/69 89/162/69
f 85/163/70 97/164/70 95/165/70
f 98/166/70 86/167/70 96/168/70
f 95/169/25 93/170/25 89/171/25
f 88/172/71 98/173/71 94/174/71
f 97/175/72 87/176/72 93/177/72
f 94/178/25 96/179/25 90/180/25
f 91/181/73 93/182/73 87/183/73
f 92/184/73 94/185/73 90/186/73
f 32/187/66 34/188/66 30/189/66
f 100/190/74 36/191/38 35/192/37
f 99/193/25 35/194/25 31/195/25
f 102/196/75 101/197/75 107/198/75
f 103/199/66 104/200/66 101/201/66
f 108/202/76 106/203/76 105/204/76
f 102/205/25 108/206/25 105/207/25
f 128/208/77 112/209/78 126/210/77
f 110/211/79 127/212/80 125/213/80
f 130/214/81 118/215/82 129/216/83
f 130/217/66 113/218/66 127/219/66
f 129/220/25 110/221/25 125/222/25
f 122/223/84 132/224/85 131/225/85
f 132/226/66 116/227/66 128/228/66
f 131/229/25 111/230/25 126/231/25
f 112/232/25 131/233/25 126/210/25
f 115/234/66 132/235/66 128/236/66
f 131/237/85 123/238/86 121/239/86
f 109/240/25 129/241/25 125/242/25
f 114/243/66 130/244/66 127/245/66
f 119/246/87 129/247/81 117/248/87
f 125/249/80 113/250/88 109/251/88
f 115/252/89 126/253/77 111/254/89
f 133/255/90 135/256/90 136/257/90
f 139/258/91 137/259/91 140/260/91
f 147/261/92 145/262/93 146/263/94
f 150/264/95 141/265/96 142/266/97
f 151/267/98 144/268/99 152/269/100
f 150/264/95 143/270/101 151/267/98
f 152/269/100 141/265/96 149/271/102
f 146/263/94 149/271/102 150/264/95
f 147/261/92 152/269/100 148/272/103
f 146/263/94 151/267/98 147/261/92
f 148/272/103 149/271/102 145/262/93
f 38/1/1 40/273/104 6/2/2
f 37/4/4 39/274/105 8/5/5
f 42/7/7 11/275/8 9/8/8
f 22/10/9 26/276/12 25/11/10
f 24/13/11 23/277/10 27/14/10
f 22/16/13 21/278/14 14/17/14
f 13/19/16 23/279/16 24/20/17
f 19/22/19 20/280/106 28/23/20
f 22/25/9 34/281/107 33/26/21
f 17/28/22 25/282/22 26/29/23
f 13/31/25 19/283/25 27/32/25
f 26/34/108 33/284/26 29/35/26
f 21/37/25 25/285/25 17/38/25
f 15/40/27 20/286/30 19/41/28
f 16/43/29 14/287/28 17/44/28
f 32/46/109 30/288/32 99/47/32
f 28/49/20 20/289/106 31/50/34
f 16/52/29 18/290/30 29/53/35
f 24/55/11 28/291/12 35/56/37
f 24/58/17 36/292/26 32/59/26
f 22/61/13 16/293/15 30/62/34
f 15/64/27 32/294/31 31/65/33
f 12/67/39 42/7/7 41/9/7
f 5/69/40 39/295/105 37/70/4
f 7/72/42 40/296/104 38/73/1
f 43/75/44 45/297/110 48/76/111
f 47/78/46 48/298/45 46/79/47
f 53/81/49 50/299/112 52/82/112
f 49/84/113 53/300/49 54/85/51
f 55/87/53 57/301/114 60/88/54
f 56/90/56 59/302/55 60/91/54
f 43/93/25 47/303/25 38/94/25
f 38/73/25 47/304/25 44/96/25
f 53/98/25 49/84/25 1/99/25
f 50/101/25 53/98/25 37/102/25
f 41/104/58 59/305/58 56/105/25
f 55/107/115 59/305/58 41/108/58
f 61/110/25 64/306/25 63/111/25
f 70/113/116 67/307/62 65/114/62
f 68/116/63 70/113/61 69/115/61
f 71/118/8 73/308/8 76/119/64
f 75/121/64 76/309/64 74/122/65
f 65/124/25 71/310/25 75/125/25
f 75/125/25 72/311/25 66/127/25
f 96/157/68 86/312/68 92/158/68
f 91/160/69 85/313/69 95/161/69
f 85/163/70 83/314/70 97/164/70
f 98/166/70 84/315/70 86/167/70
f 95/169/25 97/316/25 93/170/25
f 88/172/71 84/317/71 98/173/71
f 97/175/72 83/318/72 87/176/72
f 94/178/25 98/319/25 96/179/25
f 91/181/73 89/320/73 93/182/73
f 92/184/73 88/321/73 94/185/73
f 32/187/66 36/322/66 34/188/66
f 100/190/74 34/323/74 36/191/38
f 99/193/25 100/324/25 35/194/25
f 102/196/75 103/325/75 101/197/75
f 103/199/66 106/203/66 104/200/66
f 108/202/76 104/200/76 106/203/76
f 102/205/25 107/326/25 108/206/25
f 128/208/77 116/327/78 112/209/78
f 110/211/79 114/328/79 127/212/80
f 130/214/81 120/329/82 118/215/82
f 130/217/66 119/330/66 113/218/66
f 129/220/25 118/331/25 110/221/25
f 122/223/84 124/332/84 132/224/85
f 132/226/66 124/333/66 116/227/66
f 131/229/25 121/334/25 111/230/25
f 112/232/25 122/335/25 131/233/25
f 115/234/66 123/336/66 132/235/66
f 131/237/85 132/337/85 123/238/86
f 109/240/25 117/338/25 129/241/25
f 114/243/66 120/339/66 130/244/66
f 119/246/87 130/340/81 129/247/83
f 125/249/80 127/341/80 113/250/88
f 115/252/89 128/342/77 126/253/77
f 133/255/90 134/343/90 135/256/90
f 139/258/91 138/344/91 137/259/91
f 147/261/92 148/272/103 145/262/93
f 150/264/95 149/271/102 141/265/96
f 151/267/98 143/270/101 144/268/99
f 150/264/95 142/266/97 143/270/101
f 152/269/100 144/268/99 141/265/96
f 146/263/94 145/262/93 149/271/102
f 147/261/92 151/267/98 152/269/100
f 146/263/94 150/264/95 151/267/98
f 148/272/103 152/269/100 149/271/102
