# Blender v3.0.1 OBJ File: 'props.blend'
# www.blender.org
mtllib Chair01.mtl
o Chair1_LOD0_Chair1.005
v -0.251418 0.457853 -0.198481
v -0.189524 0.457853 -0.264992
v -0.233290 0.457853 -0.245511
v 0.199977 0.457853 -0.264992
v 0.261872 0.457853 -0.198481
v 0.243744 0.457853 -0.245511
v -0.208998 0.457853 0.286588
v -0.277083 0.457853 0.220077
v -0.257141 0.457853 0.267107
v 0.287537 0.457853 0.220077
v 0.219452 0.457853 0.286588
v 0.267596 0.457853 0.267107
v -0.189524 0.503818 -0.264992
v -0.251418 0.503818 -0.198481
v -0.233290 0.503818 -0.245511
v 0.261872 0.503818 -0.198481
v 0.199977 0.503818 -0.264992
v 0.243744 0.503818 -0.245511
v -0.277083 0.503818 0.220077
v -0.208998 0.503818 0.286588
v -0.257141 0.503818 0.267107
v 0.219452 0.503818 0.286588
v 0.287537 0.503818 0.220077
v 0.267596 0.503818 0.267107
v -0.231494 0.457853 -0.288176
v 0.241947 0.457853 -0.288176
v -0.190125 0.457853 -0.288176
v 0.200578 0.457853 -0.288176
v -0.231494 0.457853 -0.246809
v 0.241947 0.457853 -0.246809
v -0.190125 0.457853 -0.246809
v 0.200578 0.457853 -0.246809
v -0.231494 0.457853 0.193469
v 0.241947 0.457853 0.193469
v -0.190125 0.457853 0.193469
v 0.200578 0.457853 0.193469
v -0.231494 0.457853 0.234837
v 0.241947 0.457853 0.234837
v -0.190125 0.457853 0.234837
v 0.200578 0.457853 0.234837
v 0.200578 1.045971 -0.316988
v 0.241947 -0.001799 -0.288176
v -0.190125 1.045971 -0.316988
v 0.200578 -0.001799 -0.288176
v 0.200578 0.987927 -0.314169
v 0.241947 -0.001799 -0.246809
v -0.190125 0.987927 -0.314169
v 0.200578 -0.001799 -0.246809
v -0.231494 -0.001799 0.221047
v 0.241947 -0.001799 0.221047
v -0.190125 -0.001799 0.221047
v 0.200578 -0.001799 0.221047
v -0.231494 -0.001799 0.262415
v 0.241947 -0.001799 0.262415
v -0.190125 -0.001799 0.262415
v 0.200578 -0.001799 0.262415
v -0.231494 1.101364 -0.346506
v 0.241947 1.101364 -0.346505
v -0.190125 1.101364 -0.346506
v 0.200578 1.101364 -0.346505
v -0.231494 1.101364 -0.305139
v 0.241947 1.101364 -0.305139
v -0.190125 1.101364 -0.305139
v 0.200578 1.101364 -0.305139
v -0.190125 0.987927 -0.324356
v 0.200578 0.987927 -0.324356
v -0.190125 0.987927 -0.314169
v 0.200578 0.987927 -0.314169
v -0.190125 1.045971 -0.327176
v 0.200578 1.045971 -0.327176
v -0.190125 1.045971 -0.316988
v 0.200578 1.045971 -0.316988
v 0.005227 0.987927 -0.328885
v 0.005227 1.045971 -0.331703
v 0.005227 1.045971 -0.321516
v 0.005227 0.987927 -0.318696
v 0.016718 0.987927 -0.327516
v 0.016718 0.987927 -0.319568
v -0.081945 0.987927 -0.326096
v 0.115121 0.987927 -0.317428
v 0.115370 0.987927 -0.325373
v -0.081696 0.987927 -0.318151
v -0.006265 0.987927 -0.327516
v -0.006265 0.987927 -0.319568
v -0.104917 0.987927 -0.325373
v 0.092150 0.987927 -0.318151
v 0.092399 0.987927 -0.326096
v -0.104667 0.987927 -0.317428
v 0.016718 0.457853 -0.272942
v 0.016718 0.457853 -0.264994
v -0.080232 0.457853 -0.271548
v -0.079982 0.457853 -0.263603
v 0.113656 0.457853 -0.270826
v 0.113407 0.457853 -0.262883
v -0.006265 0.457853 -0.272942
v -0.006265 0.457853 -0.264994
v -0.103202 0.457853 -0.270826
v -0.102953 0.457853 -0.262883
v 0.090685 0.457853 -0.271548
v 0.090435 0.457853 -0.263603
v -0.190125 0.409002 -0.261917
v 0.200578 0.409002 -0.261916
v -0.190125 0.457853 -0.274925
v 0.200578 0.457853 -0.274925
v -0.190125 0.457853 -0.264736
v 0.200578 0.457853 -0.264736
v 0.005227 0.457853 -0.264738
v 0.005227 0.422791 -0.261918
v -0.190125 0.409002 0.219949
v 0.200578 0.409002 0.219949
v -0.190125 0.409002 0.230136
v 0.200578 0.409002 0.230136
v -0.190125 0.457853 0.217129
v 0.200578 0.457853 0.217129
v -0.190125 0.457853 0.227319
v 0.200578 0.457853 0.227319
v 0.005227 0.422791 0.215422
v 0.005227 0.457853 0.212602
v 0.005227 0.457853 0.222789
v 0.005227 0.422791 0.225609
v -0.224980 0.409002 -0.261917
v -0.224980 0.457853 -0.264736
v -0.224980 0.409002 0.219949
v -0.224980 0.457853 0.217129
v -0.214867 0.409002 -0.261917
v -0.214867 0.457853 -0.264736
v -0.214867 0.457853 0.217129
v -0.214867 0.409002 0.219949
v 0.235433 0.409002 -0.261916
v 0.235433 0.457853 -0.264736
v 0.235433 0.409002 0.219949
v 0.235433 0.457853 0.217129
v 0.225321 0.457853 -0.264736
v 0.225321 0.409002 -0.261916
v 0.225321 0.409002 0.219949
v 0.225321 0.457853 0.217129
v 0.241947 -0.001799 0.221047
v 0.200578 -0.001799 0.221047
v 0.241947 -0.001799 0.262415
v 0.200578 -0.001799 0.262415
v -0.189524 0.503818 -0.264992
v -0.251418 0.503818 -0.198481
v -0.233290 0.503818 -0.245511
v 0.261872 0.503818 -0.198481
v 0.199977 0.503818 -0.264992
v 0.243744 0.503818 -0.245511
v -0.277083 0.503818 0.220077
v -0.208998 0.503818 0.286588
v -0.257141 0.503818 0.267107
v 0.219452 0.503818 0.286588
v 0.287537 0.503818 0.220077
v 0.267596 0.503818 0.267107
v -0.251418 0.457853 -0.198481
v -0.189524 0.457853 -0.264992
v -0.233290 0.457853 -0.245511
v 0.199977 0.457853 -0.264992
v 0.261872 0.457853 -0.198481
v 0.243744 0.457853 -0.245511
v -0.208998 0.457853 0.286588
v -0.277083 0.457853 0.220077
v -0.257141 0.457853 0.267107
v 0.287537 0.457853 0.220077
v 0.219452 0.457853 0.286588
v 0.267596 0.457853 0.267107
v 0.241947 0.457853 0.193469
v 0.200578 0.457853 0.193469
v 0.241947 0.457853 0.234837
v 0.200578 0.457853 0.234837
v 0.241947 -0.001799 0.221047
v 0.200578 -0.001799 0.221047
v 0.241947 -0.001799 0.262415
v 0.200578 -0.001799 0.262415
v -0.231494 0.457853 0.193469
v -0.190125 0.457853 0.193469
v -0.231494 0.457853 0.234837
v -0.190125 0.457853 0.234837
v -0.231494 -0.001799 0.221047
v -0.190125 -0.001799 0.221047
v -0.231494 -0.001799 0.262415
v -0.190125 -0.001799 0.262415
v 0.241947 0.457853 -0.288176
v 0.200578 0.457853 -0.288176
v 0.241947 0.457853 -0.246809
v 0.200578 0.457853 -0.246809
v 0.241947 -0.001799 -0.288176
v 0.200578 -0.001799 -0.288176
v 0.241947 -0.001799 -0.246809
v 0.200578 -0.001799 -0.246809
v 0.241947 1.101364 -0.346505
v 0.200578 1.101364 -0.346505
v 0.241947 1.101364 -0.305139
v 0.200578 1.101364 -0.305139
v -0.231494 0.457853 -0.288176
v -0.190125 0.457853 -0.288176
v -0.231494 0.457853 -0.246809
v -0.190125 0.457853 -0.246809
v -0.231494 -0.001799 -0.288176
v -0.190125 -0.001799 -0.288176
v -0.231494 -0.001799 -0.246809
v -0.190125 -0.001799 -0.246809
v -0.190125 0.409002 -0.272106
v 0.200578 0.409002 -0.272106
v -0.190125 0.409002 -0.261917
v 0.200578 0.409002 -0.261916
v 0.005227 0.422791 -0.272106
v 0.005227 0.422791 -0.261918
v -0.224980 0.409002 -0.261917
v -0.224980 0.409002 0.219949
v -0.214867 0.409002 -0.261917
v -0.214867 0.409002 0.219949
v 0.235433 0.409002 -0.261916
v 0.235433 0.409002 0.219949
v 0.225321 0.409002 -0.261916
v 0.225321 0.409002 0.219949
v -0.190125 0.409002 0.219949
v 0.200578 0.409002 0.219949
v -0.190125 0.409002 0.230136
v 0.200578 0.409002 0.230136
v 0.005227 0.422791 0.215422
v 0.005227 0.422791 0.225609
v 0.016718 0.987927 -0.327516
v 0.016718 0.987927 -0.319568
v -0.081945 0.987927 -0.326096
v 0.115121 0.987927 -0.317428
v 0.115370 0.987927 -0.325373
v -0.081696 0.987927 -0.318151
v -0.006265 0.987927 -0.327516
v -0.006265 0.987927 -0.319568
v -0.104917 0.987927 -0.325373
v 0.092150 0.987927 -0.318151
v 0.092399 0.987927 -0.326096
v -0.104667 0.987927 -0.317428
v 0.016718 0.457853 -0.272942
v 0.016718 0.457853 -0.264994
v -0.080232 0.457853 -0.271548
v -0.079982 0.457853 -0.263603
v 0.113656 0.457853 -0.270826
v 0.113407 0.457853 -0.262883
v -0.006265 0.457853 -0.272942
v -0.006265 0.457853 -0.264994
v -0.103202 0.457853 -0.270826
v -0.102953 0.457853 -0.262883
v 0.090685 0.457853 -0.271548
v 0.090435 0.457853 -0.263603
v -0.231494 0.457853 -0.288176
v -0.190125 0.457853 -0.288176
v -0.231494 0.457853 -0.246809
v -0.190125 0.457853 -0.246809
v -0.231494 -0.001799 -0.288176
v -0.190125 -0.001799 -0.288176
v -0.231494 -0.001799 -0.246809
v -0.190125 -0.001799 -0.246809
v -0.231494 1.101364 -0.346506
v -0.190125 1.101364 -0.346506
v -0.231494 1.101364 -0.305139
v -0.190125 1.101364 -0.305139
v 0.005227 1.045971 -0.321516
v 0.005227 0.987927 -0.318696
v -0.190125 0.987927 -0.324356
v 0.200578 0.987927 -0.324356
v -0.190125 1.045971 -0.327176
v 0.200578 1.045971 -0.327176
v 0.005227 0.987927 -0.328885
v 0.005227 1.045971 -0.331703
v -0.190125 0.409002 -0.272106
v 0.200578 0.409002 -0.272106
v -0.190125 0.457853 -0.274925
v 0.200578 0.457853 -0.274925
v 0.005227 0.422791 -0.272106
v 0.005227 0.457853 -0.274925
v -0.190125 -0.001799 0.221047
v -0.231494 -0.001799 0.221047
v -0.190125 -0.001799 0.262415
v -0.231494 -0.001799 0.262415
v 0.241947 -0.001799 -0.288176
v 0.200578 -0.001799 -0.288176
v 0.241947 -0.001799 -0.246807
v 0.200578 -0.001799 -0.246807
v -0.190125 -0.001799 -0.288176
v -0.231494 -0.001799 -0.288176
v -0.190125 -0.001799 -0.246807
v -0.231494 -0.001799 -0.246807
vt 0.448311 0.048748
vt 0.445122 0.067110
vt 0.445122 0.048748
vt 0.448310 0.002608
vt 0.445123 0.020968
vt 0.445122 0.002608
vt 0.371375 0.013704
vt 0.359098 0.066300
vt 0.371375 0.073511
vt 0.448311 0.025478
vt 0.445123 0.044238
vt 0.445123 0.025478
vt 0.388961 0.057775
vt 0.395416 0.012581
vt 0.388961 0.012337
vt 0.448311 0.067110
vt 0.445122 0.069317
vt 0.448311 0.069317
vt 0.445122 0.071414
vt 0.448311 0.046511
vt 0.445122 0.046511
vt 0.448311 0.044238
vt 0.448311 0.023205
vt 0.445123 0.023205
vt 0.448311 0.020968
vt 0.448311 0.000401
vt 0.445122 0.090566
vt 0.448311 0.088469
vt 0.448311 0.090566
vt 0.448311 0.071414
vt 0.445122 0.088469
vt 0.388784 0.059345
vt 0.395250 0.013907
vt 0.388784 0.013907
vt 0.377893 0.015979
vt 0.372394 0.054479
vt 0.377893 0.054687
vt 0.372384 0.016008
vt 0.377883 0.054507
vt 0.377883 0.015800
vt 0.350942 0.066168
vt 0.352535 0.046844
vt 0.352535 0.066168
vt 0.372384 0.054146
vt 0.377893 0.015508
vt 0.372384 0.015508
vt 0.352014 0.065498
vt 0.350421 0.046173
vt 0.352014 0.046173
vt 0.372395 0.041341
vt 0.363310 0.022066
vt 0.372395 0.022058
vt 0.372384 0.054146
vt 0.377893 0.015508
vt 0.372384 0.015508
vt 0.372184 0.015771
vt 0.377694 0.054479
vt 0.377694 0.015771
vt 0.372373 0.039429
vt 0.377883 0.000791
vt 0.372373 0.000791
vt 0.388715 0.057775
vt 0.395183 0.012337
vt 0.388715 0.012337
vt 0.363299 0.042462
vt 0.372384 0.023187
vt 0.372384 0.042469
vt 0.372718 0.049199
vt 0.378226 0.087907
vt 0.378226 0.049199
vt 0.372232 0.055483
vt 0.377741 0.016845
vt 0.372232 0.016845
vt 0.363979 0.037834
vt 0.357513 0.033752
vt 0.363979 0.033752
vt 0.366995 0.033752
vt 0.360529 0.037834
vt 0.366995 0.037834
vt 0.414210 0.067858
vt 0.420650 0.004468
vt 0.414210 0.004099
vt 0.372397 0.016085
vt 0.377905 0.054723
vt 0.377905 0.016085
vt 0.420676 0.011472
vt 0.414210 0.075232
vt 0.420676 0.075232
vt 0.420676 0.011472
vt 0.414210 0.075232
vt 0.420676 0.075232
vt 0.420650 0.068226
vt 0.414210 0.004836
vt 0.414210 0.068595
vt 0.372397 0.016085
vt 0.377905 0.054723
vt 0.377905 0.016085
vt 0.368041 0.022730
vt 0.369634 0.041988
vt 0.369634 0.022707
vt 0.372384 0.028585
vt 0.363299 0.047861
vt 0.363299 0.028579
vt 0.369634 0.041988
vt 0.368041 0.022730
vt 0.369634 0.022707
vt 0.368041 0.042011
vt 0.369634 0.022753
vt 0.369634 0.042035
vt 0.363310 0.028249
vt 0.372395 0.047525
vt 0.363310 0.047532
vt 0.369634 0.022753
vt 0.368041 0.042011
vt 0.369634 0.042035
vt 0.417315 0.075232
vt 0.418552 0.022737
vt 0.417315 0.022657
vt 0.417315 0.022656
vt 0.418552 0.075143
vt 0.418552 0.022576
vt 0.372718 0.049269
vt 0.378226 0.087907
vt 0.378226 0.049269
vt 0.417315 0.075232
vt 0.418552 0.022737
vt 0.417315 0.022657
vt 0.372397 0.000547
vt 0.377905 0.039185
vt 0.377905 0.000547
vt 0.416308 0.022825
vt 0.417544 0.075312
vt 0.417544 0.022745
vt 0.420676 0.075150
vt 0.414210 0.011390
vt 0.414210 0.075150
vt 0.417315 0.075232
vt 0.418552 0.022737
vt 0.417315 0.022656
vt 0.420676 0.075232
vt 0.414210 0.011472
vt 0.414210 0.075232
vt 0.416308 0.022657
vt 0.417544 0.075144
vt 0.417544 0.022576
vt 0.417721 0.036091
vt 0.356645 0.035086
vt 0.417721 0.035086
vt 0.347646 0.065505
vt 0.353144 0.046229
vt 0.353144 0.065505
vt 0.350942 0.066168
vt 0.352535 0.046862
vt 0.352535 0.066191
vt 0.407025 0.064163
vt 0.408605 0.016614
vt 0.407025 0.016614
vt 0.355295 0.065505
vt 0.349797 0.046228
vt 0.355295 0.046228
vt 0.349797 0.046235
vt 0.355295 0.065510
vt 0.347646 0.065517
vt 0.349797 0.088982
vt 0.355295 0.069707
vt 0.355295 0.088989
vt 0.353144 0.088976
vt 0.347646 0.069700
vt 0.353144 0.069694
vt 0.353144 0.046229
vt 0.347646 0.065504
vt 0.345496 0.046222
vt 0.403730 0.063436
vt 0.411367 0.016165
vt 0.411367 0.063714
vt 0.403730 0.063436
vt 0.411367 0.016165
vt 0.411367 0.063714
vt 0.403730 0.016444
vt 0.411367 0.063714
vt 0.403730 0.063992
vt 0.410530 0.016534
vt 0.408950 0.064083
vt 0.410530 0.064083
vt 0.411367 0.063714
vt 0.403730 0.016444
vt 0.411367 0.016165
vt 0.352535 0.066145
vt 0.350942 0.046839
vt 0.352535 0.046815
vt 0.359984 0.072700
vt 0.435311 0.071703
vt 0.435311 0.072700
vt 0.349860 0.035721
vt 0.354147 0.031434
vt 0.354147 0.035721
vt 0.448634 0.013704
vt 0.457315 0.015817
vt 0.460912 0.020916
vt 0.388728 0.012337
vt 0.395183 0.057530
vt 0.395183 0.012093
vt 0.420650 0.068226
vt 0.414210 0.004835
vt 0.414210 0.068595
vt 0.420650 0.011472
vt 0.414210 0.074863
vt 0.420650 0.075232
vt 0.414210 0.011390
vt 0.417802 0.063972
vt 0.417802 0.011390
vt 0.414640 0.064053
vt 0.418233 0.011472
vt 0.414640 0.011472
vt 0.416221 0.022650
vt 0.419814 0.075232
vt 0.419814 0.022650
vt 0.414210 0.063972
vt 0.417802 0.011390
vt 0.414210 0.011390
vt 0.414640 0.064053
vt 0.418233 0.011472
vt 0.414640 0.011472
vt 0.414641 0.075232
vt 0.418233 0.022650
vt 0.414641 0.022650
vt 0.349797 0.069712
vt 0.355295 0.088989
vt 0.347646 0.088989
vt 0.355295 0.069694
vt 0.349797 0.088971
vt 0.347646 0.069694
vt 0.349860 0.035721
vt 0.354147 0.031434
vt 0.354147 0.035721
vt 0.349860 0.035721
vt 0.354147 0.031434
vt 0.354147 0.035721
vt 0.349860 0.035721
vt 0.354147 0.031434
vt 0.354147 0.035721
vt 0.448634 0.010714
vt 0.460912 0.018647
vt 0.362692 0.015817
vt 0.359098 0.020916
vt 0.362692 0.071400
vt 0.448634 0.076502
vt 0.460912 0.068569
vt 0.457315 0.074179
vt 0.457315 0.013037
vt 0.395416 0.058020
vt 0.445122 0.000401
vt 0.395250 0.059345
vt 0.372394 0.015771
vt 0.372384 0.054715
vt 0.350942 0.046844
vt 0.377893 0.054146
vt 0.350421 0.065498
vt 0.363310 0.041347
vt 0.377893 0.054145
vt 0.372184 0.054479
vt 0.377883 0.039429
vt 0.395183 0.057775
vt 0.363299 0.023180
vt 0.372718 0.087907
vt 0.377741 0.055483
vt 0.357513 0.037834
vt 0.360529 0.033752
vt 0.420650 0.068226
vt 0.372397 0.054723
vt 0.414210 0.011472
vt 0.414210 0.011472
vt 0.420650 0.004468
vt 0.372397 0.054723
vt 0.368041 0.042011
vt 0.372384 0.047868
vt 0.368041 0.042011
vt 0.368041 0.022730
vt 0.372395 0.028243
vt 0.368041 0.022730
vt 0.418552 0.075312
vt 0.417315 0.075224
vt 0.372718 0.087907
vt 0.418552 0.075312
vt 0.372397 0.039185
vt 0.416308 0.075392
vt 0.420676 0.011390
vt 0.418552 0.075312
vt 0.420676 0.011472
vt 0.416308 0.075224
vt 0.356645 0.036091
vt 0.345496 0.046228
vt 0.350942 0.046838
vt 0.408605 0.064163
vt 0.347646 0.065505
vt 0.355295 0.046228
vt 0.347646 0.069700
vt 0.345496 0.088983
vt 0.353144 0.065511
vt 0.403730 0.015888
vt 0.403730 0.015888
vt 0.411367 0.016165
vt 0.408950 0.016534
vt 0.403730 0.063992
vt 0.350942 0.066168
vt 0.359984 0.071703
vt 0.349860 0.031434
vt 0.460912 0.066300
vt 0.448634 0.073511
vt 0.457315 0.071400
vt 0.371375 0.076502
vt 0.359098 0.068569
vt 0.362692 0.074179
vt 0.359098 0.018647
vt 0.362692 0.013037
vt 0.371375 0.010714
vt 0.388728 0.057775
vt 0.420650 0.004467
vt 0.414210 0.011104
vt 0.414210 0.063972
vt 0.418233 0.064053
vt 0.416221 0.075232
vt 0.417802 0.063972
vt 0.418233 0.064053
vt 0.418233 0.075232
vt 0.355295 0.069712
vt 0.355295 0.088971
vt 0.349860 0.031434
vt 0.349860 0.031434
vt 0.349860 0.031434
vn -0.9856 0.0000 0.1691
vn -0.9771 0.0000 -0.2129
vn 0.9771 0.0000 -0.2129
vn 0.9856 0.0000 0.1691
vn 0.0000 -1.0000 -0.0000
vn 0.1911 0.0000 0.9816
vn -0.1911 0.0000 0.9816
vn -1.0000 -0.0000 -0.0000
vn -0.7249 0.0000 -0.6889
vn -0.2079 0.0000 -0.9782
vn -0.7012 0.0000 0.7129
vn 0.7012 0.0000 0.7129
vn 0.7249 0.0000 -0.6889
vn 0.2079 0.0000 -0.9782
vn -0.0000 0.0599 0.9982
vn 1.0000 0.0000 0.0000
vn 0.0704 -0.9975 0.0000
vn -0.0704 -0.9975 0.0000
vn 0.0231 0.0485 0.9986
vn -0.0000 0.0485 0.9988
vn 0.0000 -0.0599 -0.9982
vn 0.0000 0.0000 -1.0000
vn 0.0000 -0.0452 -0.9990
vn -0.0231 0.0485 0.9986
vn -0.0000 0.0000 1.0000
vn -0.0000 0.0452 0.9990
vn 0.0000 0.6744 -0.7383
vn 0.0000 0.7383 0.6744
vn -0.7266 0.6871 -0.0000
vn 0.6859 0.7277 -0.0000
vn -0.6859 0.7277 -0.0000
vn 0.7266 0.6871 0.0000
vn 0.0000 1.0000 -0.0000
vn -0.0231 -0.0485 -0.9986
vn 0.0000 -0.0485 -0.9988
vn -0.0232 -0.0485 -0.9986
vn 0.0231 -0.0485 -0.9986
vn 0.0232 -0.0485 -0.9986
vn -0.9995 -0.0000 -0.0315
vn -0.9995 0.0000 -0.0313
vn 0.9995 -0.0000 0.0314
vn 0.9995 -0.0000 0.0313
vn -0.0000 0.0903 0.9959
vn -0.9995 -0.0000 0.0314
vn -0.9995 0.0000 0.0315
vn 0.0000 -0.0903 -0.9959
vn 0.9995 0.0000 -0.0314
vn 0.9995 -0.0000 -0.0315
vn -0.0024 0.7281 0.6855
vn 0.0024 0.7281 0.6855
vn -0.0000 0.0767 0.9971
vn 0.0025 0.7281 0.6855
vn -0.0000 0.0802 0.9968
vn -0.0026 0.7281 0.6855
vn 0.0000 -0.0768 -0.9971
vn 0.0195 -0.0602 -0.9980
vn 0.0191 -0.0576 -0.9982
vn -0.0195 0.0601 0.9980
vn 0.0195 0.0601 0.9980
vn -0.0195 -0.0602 -0.9980
vn -0.0191 -0.0576 -0.9982
vn -0.7197 0.6943 -0.0000
vn -0.6938 0.7202 -0.0000
vn 0.7197 0.6943 0.0000
vn 0.6938 0.7202 0.0000
vn 0.0313 0.1024 0.9943
vn 0.0312 0.1024 0.9943
vn -0.0313 -0.1024 -0.9943
vn -0.0313 0.1024 0.9943
vn -0.0312 0.1024 0.9943
vn 0.0000 0.1024 0.9947
vn 0.0313 -0.1024 -0.9943
vn 0.0000 -0.1024 -0.9947
vn 0.0000 -0.0767 -0.9971
vn -0.0036 -0.0602 -0.9982
vn -0.0041 -0.0576 -0.9983
vn 0.0036 -0.0602 -0.9982
vn 0.0041 -0.0576 -0.9983
vn 0.0041 0.0576 0.9983
vn -0.0041 0.0576 0.9983
vn 0.0000 -0.0802 -0.9968
vn -0.0191 0.0576 0.9982
vn 0.0191 0.0576 0.9982
usemtl M_Interior
s 1
f 19/1/1 1/2/2 8/3/1
f 16/4/3 10/5/4 5/6/3
f 153/7/5 156/8/5 157/9/5
f 22/10/6 7/11/7 11/12/6
f 170/13/8 168/14/8 166/15/8
f 14/16/2 3/17/9 1/2/2
f 15/18/9 2/19/10 3/17/9
f 8/3/1 21/20/11 19/1/1
f 9/21/11 20/22/7 21/20/11
f 11/12/6 24/23/12 22/10/6
f 12/24/12 23/25/4 24/23/12
f 5/6/3 18/26/13 16/4/3
f 6/27/13 17/28/14 18/29/13
f 13/30/10 4/31/14 2/19/10
f 56/32/15 38/33/15 40/34/15
f 175/35/8 177/36/8 179/37/8
f 176/38/16 178/39/16 174/40/16
f 201/41/17 206/42/5 203/43/17
f 187/44/16 181/45/16 183/46/16
f 206/47/5 202/48/18 204/49/18
f 43/50/19 258/51/20 257/52/20
f 186/53/8 184/54/8 182/55/8
f 35/56/21 49/57/21 33/58/21
f 42/59/22 28/60/23 26/61/23
f 50/62/21 36/63/21 34/64/21
f 258/65/20 41/66/24 257/67/20
f 37/68/15 55/69/15 39/70/15
f 48/71/25 30/72/26 32/73/26
f 60/74/27 62/75/28 58/76/27
f 61/77/29 59/78/30 57/79/31
f 25/80/8 61/81/29 57/82/31
f 193/83/8 199/84/8 195/85/8
f 62/86/28 32/87/26 30/88/26
f 60/89/27 26/90/23 28/91/23
f 27/92/16 63/93/32 31/94/16
f 196/95/16 198/96/16 194/97/16
f 75/98/33 70/99/33 74/100/33
f 261/101/34 263/102/35 259/103/36
f 76/104/5 66/105/5 68/106/5
f 65/107/5 76/108/5 67/109/5
f 263/110/35 262/111/37 260/112/38
f 69/113/33 75/114/33 74/115/33
f 99/116/39 86/117/40 87/118/40
f 80/119/41 93/120/42 81/121/41
f 247/122/26 252/123/25 248/124/26
f 95/125/8 84/126/8 83/127/8
f 246/128/23 249/129/22 245/130/23
f 78/131/16 89/132/16 77/133/16
f 248/134/26 255/135/43 247/136/26
f 97/137/44 88/138/45 85/139/45
f 245/140/23 254/141/46 246/142/23
f 82/143/47 91/144/48 79/145/47
f 104/146/33 105/147/49 106/148/50
f 108/149/51 106/150/52 107/151/53
f 215/152/17 220/153/5 217/154/17
f 207/155/5 210/156/5 208/157/5
f 105/158/54 108/159/51 107/160/53
f 117/161/55 114/162/56 110/163/57
f 120/164/51 116/165/58 119/166/53
f 115/167/59 120/168/51 119/169/53
f 113/170/60 117/171/55 109/172/61
f 134/173/8 136/174/62 133/175/63
f 121/176/8 124/177/8 122/178/8
f 125/179/16 127/180/16 128/181/16
f 212/182/5 213/183/5 211/184/5
f 132/185/64 129/186/16 130/187/65
f 220/188/5 216/189/18 218/190/18
f 130/191/65 136/192/62 132/193/64
f 137/194/5 140/195/5 138/196/5
f 144/197/33 146/198/33 145/199/33
f 167/200/16 169/201/16 165/202/16
f 181/203/16 191/204/16 183/205/16
f 192/206/8 182/207/8 184/208/8
f 232/209/66 236/210/67 226/211/66
f 235/212/68 229/213/68 223/214/68
f 230/215/69 238/216/70 224/217/69
f 240/218/71 222/219/71 228/220/71
f 237/221/72 231/222/72 225/223/72
f 233/224/73 227/225/73 221/226/73
f 269/227/74 268/228/75 266/229/76
f 267/230/77 269/231/74 265/232/78
f 271/233/5 274/234/5 272/235/5
f 275/236/5 278/237/5 276/238/5
f 279/239/5 282/240/5 280/241/5
f 19/1/1 14/16/2 1/2/2
f 16/4/3 23/25/4 10/5/4
f 160/242/5 153/7/5 159/243/5
f 153/7/5 155/244/5 154/245/5
f 156/8/5 153/7/5 154/245/5
f 156/8/5 158/246/5 157/9/5
f 157/9/5 162/247/5 163/248/5
f 162/247/5 164/249/5 163/248/5
f 157/9/5 159/243/5 153/7/5
f 163/248/5 159/243/5 157/9/5
f 159/243/5 161/250/5 160/242/5
f 22/10/6 20/22/7 7/11/7
f 170/13/8 172/251/8 168/14/8
f 14/16/2 15/18/9 3/17/9
f 15/18/9 13/30/10 2/19/10
f 8/3/1 9/21/11 21/20/11
f 9/21/11 7/11/7 20/22/7
f 11/12/6 12/24/12 24/23/12
f 12/24/12 10/5/4 23/25/4
f 5/6/3 6/252/13 18/26/13
f 6/27/13 4/31/14 17/28/14
f 13/30/10 17/28/14 4/31/14
f 56/32/15 54/253/15 38/33/15
f 175/35/8 173/254/8 177/36/8
f 176/38/16 180/255/16 178/39/16
f 201/41/17 205/256/5 206/42/5
f 187/44/16 185/257/16 181/45/16
f 206/47/5 205/258/5 202/48/18
f 43/50/19 47/259/19 258/51/20
f 186/53/8 188/260/8 184/54/8
f 35/56/21 51/261/21 49/57/21
f 42/59/22 44/262/22 28/60/23
f 50/62/21 52/263/21 36/63/21
f 258/65/20 45/264/24 41/66/24
f 37/68/15 53/265/15 55/69/15
f 48/71/25 46/266/25 30/72/26
f 60/74/27 64/267/28 62/75/28
f 61/77/29 63/268/32 59/78/30
f 25/80/8 29/269/8 61/81/29
f 193/83/8 197/270/8 199/84/8
f 62/86/28 64/271/28 32/87/26
f 60/89/27 58/272/27 26/90/23
f 27/92/16 59/273/30 63/93/32
f 196/95/16 200/274/16 198/96/16
f 75/98/33 72/275/33 70/99/33
f 261/101/34 264/276/35 263/102/35
f 76/104/5 73/277/5 66/105/5
f 65/107/5 73/278/5 76/108/5
f 263/110/35 264/279/35 262/111/37
f 69/113/33 71/280/33 75/114/33
f 99/116/39 100/281/39 86/117/40
f 80/119/41 94/282/42 93/120/42
f 247/122/26 251/283/25 252/123/25
f 95/125/8 96/284/8 84/126/8
f 246/128/23 250/285/22 249/129/22
f 78/131/16 90/286/16 89/132/16
f 248/134/26 256/287/43 255/135/43
f 97/137/44 98/288/44 88/138/45
f 245/140/23 253/289/46 254/141/46
f 82/143/47 92/290/48 91/144/48
f 104/146/33 103/291/33 105/147/49
f 108/149/51 102/292/79 106/150/52
f 215/152/17 219/293/5 220/153/5
f 207/155/5 209/294/5 210/156/5
f 105/158/54 101/295/80 108/159/51
f 117/161/55 118/296/81 114/162/56
f 120/164/51 112/297/82 116/165/58
f 115/167/59 111/298/83 120/168/51
f 113/170/60 118/299/81 117/171/55
f 134/173/8 135/300/8 136/174/62
f 121/176/8 123/301/8 124/177/8
f 125/179/16 126/302/16 127/180/16
f 212/182/5 214/303/5 213/183/5
f 132/185/64 131/304/16 129/186/16
f 220/188/5 219/305/5 216/189/18
f 130/191/65 133/306/63 136/192/62
f 137/194/5 139/307/5 140/195/5
f 145/199/33 141/308/33 142/309/33
f 141/308/33 143/310/33 142/309/33
f 142/309/33 147/311/33 148/312/33
f 145/199/33 142/309/33 144/197/33
f 147/311/33 149/313/33 148/312/33
f 148/312/33 150/314/33 144/197/33
f 150/314/33 152/315/33 151/316/33
f 151/316/33 144/197/33 150/314/33
f 148/312/33 144/197/33 142/309/33
f 167/200/16 171/317/16 169/201/16
f 181/203/16 189/318/16 191/204/16
f 192/206/8 190/319/8 182/207/8
f 232/209/66 242/320/67 236/210/67
f 235/212/68 241/321/68 229/213/68
f 230/215/69 244/322/70 238/216/70
f 240/218/71 234/323/71 222/219/71
f 237/221/72 243/324/72 231/222/72
f 233/224/73 239/325/73 227/225/73
f 269/227/74 270/326/81 268/228/75
f 267/230/77 270/327/81 269/231/74
f 271/233/5 273/328/5 274/234/5
f 275/236/5 277/329/5 278/237/5
f 279/239/5 281/330/5 282/240/5
