# Blender v3.0.1 OBJ File: 'props.blend'
# www.blender.org
mtllib Chair06.mtl
o Chair06_LOD0_Chair2.002
v 0.254570 0.399421 -0.223547
v -0.222627 0.399421 -0.224913
v -0.182808 0.923556 -0.295377
v -0.222555 0.960815 -0.322584
v 0.214871 0.923556 -0.316233
v 0.270322 0.399421 -0.000929
v -0.238688 0.399421 -0.001287
v -0.203067 0.399421 0.238231
v -0.202744 0.439186 -0.220872
v -0.222781 0.399421 -0.001276
v 0.234687 0.399421 -0.220565
v 0.234363 0.399421 0.238538
v 0.254415 0.399421 -0.000942
v 0.234365 0.439186 0.236748
v 0.015636 0.399421 0.236440
v 0.254570 0.435210 -0.220550
v -0.222627 0.435210 -0.220887
v -0.222963 0.435210 0.256311
v 0.254234 0.435210 0.256646
v 0.254570 0.403397 -0.220550
v -0.222627 0.403397 -0.220887
v -0.222963 0.403397 0.256311
v 0.254234 0.403397 0.256646
v -0.202744 0.399421 -0.220872
v 0.236659 0.399421 -0.200683
v -0.204744 0.399421 -0.200990
v 0.236659 0.439186 -0.200683
v 0.254570 0.439186 -0.220550
v 0.206548 0.403398 0.208893
v 0.246315 0.403398 0.208923
v -0.175238 0.403398 0.248392
v 0.206520 0.403398 0.248659
v -0.215004 0.403398 0.248364
v -0.223142 0.001756 0.228276
v 0.254452 0.001756 0.228611
v 0.222242 0.001756 0.228588
v 0.052471 0.399421 -0.235879
v -0.060231 0.399421 -0.215141
v 0.052457 0.399421 -0.215995
v -0.060228 0.439186 -0.215141
v 0.052454 0.439186 -0.215996
v 0.052981 0.399421 -0.215951
v -0.207677 0.276470 0.245050
v 0.215107 0.308284 0.245295
v 0.215540 0.276470 0.225417
v -0.207241 0.276470 0.225172
v 0.215540 0.308284 0.225417
v -0.204744 0.439186 -0.200990
v 0.052469 0.439186 -0.235879
v -0.060213 0.439186 -0.235024
v 0.015621 0.439186 0.256323
v 0.015636 0.439186 0.236440
v 0.254416 0.439186 -0.001836
v 0.234687 0.439186 -0.220565
v 0.270322 0.439186 -0.001824
v 0.266516 0.001756 -0.244402
v 0.266544 0.001756 -0.284169
v 0.254598 0.439186 -0.260317
v 0.254627 0.960815 -0.301111
v -0.234513 0.001756 -0.284522
v -0.222571 0.960815 -0.301446
v -0.207677 0.308284 0.245050
v -0.207241 0.308284 0.225172
v 0.215107 0.276470 0.245295
v -0.206704 0.001756 -0.244735
v -0.223165 0.001756 0.260487
v 0.254430 0.001756 0.260821
v 0.214856 0.923556 -0.295097
v -0.182793 0.923556 -0.316515
v -0.222599 0.439186 -0.260653
v -0.206676 0.001756 -0.284502
v -0.182833 0.439186 -0.260625
v 0.238708 0.001756 -0.284188
v 0.214832 0.439186 -0.260345
v 0.254641 0.960815 -0.322247
v 0.214856 0.747103 -0.276437
v -0.222555 0.783571 -0.293527
v 0.214871 0.746529 -0.288181
v 0.254641 0.783580 -0.293339
v -0.182793 0.746521 -0.288337
v -0.222571 0.784145 -0.281782
v 0.254627 0.784154 -0.281596
v -0.182808 0.747095 -0.276593
v 0.214871 0.641293 -0.275512
v -0.222571 0.678551 -0.267286
v 0.254627 0.678551 -0.267100
v -0.222555 0.678551 -0.279045
v 0.254641 0.678551 -0.278857
v -0.182808 0.641293 -0.263910
v 0.214856 0.641293 -0.263754
v -0.182793 0.641293 -0.275668
v -0.175210 0.403398 0.208624
v -0.214976 0.403398 0.208598
v 0.246287 0.403398 0.248688
v -0.190954 0.001756 0.260510
v 0.222219 0.001756 0.260798
v -0.190932 0.001756 0.228297
v -0.222963 0.399421 0.256311
v 0.254234 0.439186 0.256646
v 0.015621 0.399421 0.256323
v 0.254234 0.399421 0.256646
v -0.060217 0.399421 -0.235024
v 0.052995 0.399421 -0.235835
v -0.222963 0.439186 0.256311
v -0.203066 0.439186 0.236442
v -0.222781 0.439186 -0.002170
v -0.222963 0.438935 0.256311
v -0.238687 0.439186 -0.002183
v -0.222627 0.439186 -0.220887
v -0.234541 0.001756 -0.244754
v -0.182861 0.439186 -0.220858
v 0.238680 0.001756 -0.244421
v 0.214804 0.439186 -0.220579
vt 0.186641 0.346036
vt 0.190189 0.329649
vt 0.186616 0.329607
vt 0.184421 0.335549
vt 0.182568 0.313268
vt 0.184385 0.311542
vt 0.184399 0.335272
vt 0.182567 0.311429
vt 0.183521 0.311280
vt 0.201012 0.398544
vt 0.235758 0.401704
vt 0.200841 0.401704
vt 0.235719 0.401704
vt 0.200900 0.399490
vt 0.235806 0.398540
vt 0.201185 0.401704
vt 0.235931 0.398544
vt 0.236103 0.401704
vt 0.182623 0.334722
vt 0.184386 0.312597
vt 0.184420 0.334996
vt 0.184420 0.334996
vt 0.182590 0.312876
vt 0.183545 0.312728
vt 0.205190 0.317477
vt 0.204329 0.337605
vt 0.205220 0.337603
vt 0.186582 0.306570
vt 0.190174 0.319434
vt 0.190154 0.306565
vt 0.196157 0.332499
vt 0.193705 0.346160
vt 0.196178 0.346212
vt 0.196155 0.331267
vt 0.193704 0.346105
vt 0.196178 0.346212
vt 0.200616 0.346058
vt 0.198121 0.331227
vt 0.198144 0.346117
vt 0.200616 0.346058
vt 0.198123 0.332404
vt 0.198144 0.346062
vt 0.213716 0.332952
vt 0.212099 0.324068
vt 0.212094 0.332954
vt 0.213712 0.329288
vt 0.212120 0.338178
vt 0.213744 0.338169
vt 0.194561 0.346361
vt 0.195828 0.328229
vt 0.196178 0.346212
vt 0.196178 0.346212
vt 0.194436 0.326507
vt 0.196146 0.325129
vt 0.200589 0.328044
vt 0.198999 0.345914
vt 0.199295 0.327929
vt 0.200975 0.308415
vt 0.199292 0.328126
vt 0.199260 0.307043
vt 0.703807 0.738807
vt 0.745764 0.696851
vt 0.745764 0.738807
vt 0.213170 0.325437
vt 0.213137 0.313677
vt 0.212081 0.312698
vt 0.213173 0.337195
vt 0.212120 0.338178
vt 0.224059 0.338985
vt 0.253968 0.309077
vt 0.224059 0.309077
vt 0.187606 0.334335
vt 0.189354 0.345854
vt 0.189220 0.334155
vt 0.190200 0.337124
vt 0.187740 0.346035
vt 0.190213 0.346031
vt 0.209001 0.326169
vt 0.207253 0.347362
vt 0.207235 0.326172
vt 0.207189 0.304979
vt 0.208957 0.306742
vt 0.209016 0.345593
vt 0.213675 0.326380
vt 0.213703 0.339365
vt 0.213664 0.313397
vt 0.201904 0.324535
vt 0.200556 0.306390
vt 0.200616 0.346058
vt 0.190197 0.334692
vt 0.187740 0.346035
vt 0.187723 0.334663
vt 0.232920 0.398544
vt 0.200960 0.401107
vt 0.200909 0.398544
vt 0.200868 0.399141
vt 0.232828 0.401704
vt 0.200817 0.401704
vt 0.232948 0.401107
vt 0.201012 0.398544
vt 0.233012 0.397943
vt 0.233008 0.398195
vt 0.201073 0.400758
vt 0.201021 0.398195
vt 0.235719 0.401704
vt 0.201012 0.398544
vt 0.235892 0.398544
vt 0.194640 0.316728
vt 0.197028 0.343928
vt 0.194677 0.341459
vt 0.193758 0.331265
vt 0.196322 0.328701
vt 0.196322 0.331265
vt 0.211043 0.347131
vt 0.212256 0.333323
vt 0.212279 0.347101
vt 0.203026 0.328024
vt 0.205591 0.330587
vt 0.203026 0.330587
vt 0.190197 0.334659
vt 0.187718 0.331145
vt 0.190191 0.331141
vt 0.187546 0.325090
vt 0.189165 0.325223
vt 0.189165 0.325180
vt 0.189142 0.310285
vt 0.187546 0.325048
vt 0.190189 0.329601
vt 0.200557 0.306539
vt 0.198914 0.306393
vt 0.200584 0.324612
vt 0.198965 0.344411
vt 0.207529 0.305258
vt 0.205053 0.303530
vt 0.205055 0.305261
vt 0.196322 0.334590
vt 0.194106 0.331425
vt 0.196322 0.331425
vt 0.210280 0.333106
vt 0.212279 0.346992
vt 0.210301 0.346995
vt 0.210280 0.333106
vt 0.212279 0.346992
vt 0.212258 0.333103
vt 0.188135 0.321331
vt 0.187650 0.309507
vt 0.189300 0.309504
vt 0.186601 0.319440
vt 0.187682 0.330708
vt 0.187705 0.345870
vt 0.188072 0.330693
vt 0.189354 0.345854
vt 0.187675 0.326004
vt 0.187523 0.326033
vt 0.201185 0.401704
vt 0.235892 0.398544
vt 0.236064 0.401704
vt 0.182624 0.335275
vt 0.184384 0.311426
vt 0.184421 0.335549
vt 0.211294 0.347037
vt 0.212263 0.336020
vt 0.211276 0.336044
vt 0.194640 0.316729
vt 0.195992 0.341457
vt 0.194677 0.341459
vt 0.235633 0.398540
vt 0.200814 0.400755
vt 0.200754 0.398540
vt 0.182603 0.335552
vt 0.184389 0.313265
vt 0.184421 0.335549
vt 0.200991 0.335125
vt 0.201852 0.314998
vt 0.200960 0.314999
vt 0.197966 0.338160
vt 0.200272 0.310953
vt 0.200317 0.340629
vt 0.210319 0.321685
vt 0.212364 0.344974
vt 0.210351 0.342859
vt 0.197966 0.338160
vt 0.199244 0.313428
vt 0.199281 0.338158
vt 0.200991 0.335125
vt 0.201852 0.314998
vt 0.200960 0.314999
vt 0.197966 0.338160
vt 0.200272 0.310953
vt 0.200317 0.340629
vt 0.210319 0.321685
vt 0.212364 0.344974
vt 0.210351 0.342859
vt 0.197966 0.338160
vt 0.199244 0.313428
vt 0.199281 0.338158
vt 0.200917 0.399142
vt 0.232828 0.401704
vt 0.200841 0.401704
vt 0.232871 0.398545
vt 0.200960 0.401107
vt 0.200883 0.398545
vt 0.232889 0.398545
vt 0.200960 0.401107
vt 0.200883 0.398545
vt 0.200917 0.399142
vt 0.232846 0.401704
vt 0.200841 0.401704
vt 0.212099 0.324070
vt 0.214463 0.338174
vt 0.214442 0.324065
vt 0.212077 0.309959
vt 0.214421 0.309955
vt 0.201652 0.303220
vt 0.198114 0.326414
vt 0.201687 0.326408
vt 0.198114 0.326414
vt 0.201717 0.346192
vt 0.201687 0.326408
vt 0.194471 0.308271
vt 0.194499 0.326418
vt 0.196121 0.308268
vt 0.194531 0.347865
vt 0.196178 0.346212
vt 0.194531 0.347865
vt 0.193179 0.326420
vt 0.196113 0.303240
vt 0.192570 0.323029
vt 0.196143 0.323023
vt 0.192570 0.323029
vt 0.196143 0.323023
vt 0.235892 0.398544
vt 0.201073 0.400758
vt 0.201012 0.398544
vt 0.235719 0.401704
vt 0.200900 0.399490
vt 0.235806 0.398540
vt 0.207062 0.346158
vt 0.209037 0.322863
vt 0.209075 0.348273
vt 0.184804 0.310379
vt 0.186961 0.336470
vt 0.184847 0.338484
vt 0.210215 0.310340
vt 0.208136 0.336439
vt 0.208098 0.310343
vt 0.190214 0.346031
vt 0.182603 0.335553
vt 0.182603 0.335552
vt 0.235931 0.398544
vt 0.200841 0.401704
vt 0.201012 0.398544
vt 0.183431 0.312452
vt 0.182624 0.335275
vt 0.204298 0.317479
vt 0.193684 0.332502
vt 0.193682 0.331216
vt 0.200594 0.331113
vt 0.200596 0.332345
vt 0.213720 0.324072
vt 0.212090 0.329291
vt 0.194534 0.328348
vt 0.194881 0.346134
vt 0.703807 0.696851
vt 0.214232 0.325436
vt 0.253968 0.338985
vt 0.187740 0.346035
vt 0.187727 0.337127
vt 0.190214 0.346031
vt 0.232983 0.401708
vt 0.232892 0.398540
vt 0.200960 0.401107
vt 0.233073 0.401360
vt 0.200841 0.401704
vt 0.196984 0.314252
vt 0.193758 0.328701
vt 0.211022 0.333242
vt 0.205591 0.328024
vt 0.187524 0.310153
vt 0.207526 0.303526
vt 0.194106 0.334590
vt 0.212258 0.333103
vt 0.210301 0.346995
vt 0.186486 0.321333
vt 0.201012 0.398544
vt 0.183429 0.311280
vt 0.212279 0.347101
vt 0.195955 0.316727
vt 0.235719 0.401704
vt 0.182567 0.311544
vt 0.201883 0.335124
vt 0.197929 0.313429
vt 0.212326 0.319564
vt 0.197929 0.313430
vt 0.201883 0.335124
vt 0.197929 0.313429
vt 0.212326 0.319564
vt 0.197929 0.313430
vt 0.232924 0.398540
vt 0.232966 0.401708
vt 0.232983 0.401708
vt 0.232941 0.398540
vt 0.212120 0.338178
vt 0.198079 0.303145
vt 0.198144 0.346117
vt 0.192540 0.303325
vt 0.192605 0.346298
vt 0.235978 0.401708
vt 0.200841 0.401704
vt 0.207030 0.324983
vt 0.186921 0.310375
vt 0.210257 0.338445
vn 0.0837 0.0000 -0.9965
vn -0.0397 -0.1178 -0.9922
vn -1.0000 0.0000 -0.0007
vn -0.9985 -0.0545 -0.0007
vn 0.0007 0.0545 -0.9985
vn 0.9985 -0.0545 0.0007
vn 1.0000 -0.0000 0.0007
vn 0.0000 1.0000 -0.0000
vn -0.0988 0.0000 -0.9951
vn 0.9959 0.0015 0.0910
vn 0.9958 0.0006 0.0911
vn 0.9959 0.0020 0.0909
vn 0.9966 -0.0032 -0.0821
vn 0.9966 -0.0026 -0.0822
vn 0.9966 -0.0037 -0.0820
vn -0.9965 -0.0032 -0.0835
vn -0.9965 -0.0024 -0.0837
vn -0.9965 -0.0019 -0.0837
vn -0.9960 0.0000 0.0898
vn 0.0007 0.0000 -1.0000
vn -0.0000 0.0000 -1.0000
vn 0.0096 -0.0450 -0.9989
vn 0.0000 -1.0000 -0.0000
vn 0.0975 0.0000 0.9952
vn 0.0000 -1.0000 0.0004
vn -0.0833 0.0000 0.9965
vn -0.0828 0.0000 0.9966
vn -0.0832 0.0000 0.9965
vn 0.0007 -0.0489 -0.9988
vn -0.0007 0.0302 0.9995
vn -0.9996 0.0273 -0.0007
vn 0.0007 -0.1601 -0.9871
vn 0.0076 0.0000 1.0000
vn -0.0837 -0.0000 0.9965
vn 0.0836 0.0000 -0.9965
vn 0.0006 0.0000 -1.0000
vn -0.0006 0.0000 1.0000
vn 0.9996 0.0273 0.0007
vn 0.0007 -0.1146 -0.9934
vn 0.0000 0.9988 -0.0488
vn 0.0004 -0.1383 -0.9904
vn -0.0004 0.1383 0.9904
vn 0.0000 -0.9988 0.0488
vn 0.0004 -0.0898 -0.9960
vn -0.0004 0.0898 0.9960
vn 0.9998 0.0203 0.0007
vn -0.9998 0.0203 -0.0007
vn -0.9992 -0.0391 -0.0007
vn 0.9992 -0.0391 0.0007
vn -0.0002 -0.0000 1.0000
vn -0.0000 0.0000 1.0000
vn -0.0010 -0.0000 1.0000
vn -0.0014 0.0000 1.0000
vn 0.9981 0.0004 0.0623
vn 0.9981 0.0010 0.0622
vn 0.9981 0.0000 0.0623
vn 0.9975 0.0053 -0.0706
vn -0.0076 -0.0000 -1.0000
vn 0.0072 1.0000 0.0005
vn -0.9974 0.0050 -0.0720
vn -0.9973 0.0006 -0.0728
vn -0.9974 0.0073 -0.0716
vn -0.9981 0.0005 0.0609
vn -0.9981 0.0002 0.0609
vn -0.9981 0.0000 0.0609
vn -0.0007 -0.0545 0.9985
vn 0.0011 0.1558 0.9878
vn -0.0006 0.1600 0.9871
vn -0.0008 0.1599 0.9871
vn -0.0059 0.1525 0.9883
vn 0.0045 0.1525 0.9883
vn -0.0004 0.1521 0.9884
vn -0.0007 0.1521 0.9884
vn 0.9958 0.0000 0.0912
vn 0.9966 -0.0019 -0.0823
vn -0.9965 -0.0037 -0.0834
vn -0.9960 0.0020 0.0895
vn -0.0082 -0.0449 -0.9990
vn 0.0014 0.0000 -1.0000
vn 0.0411 -0.1178 -0.9922
vn 0.9981 0.0014 0.0621
vn 0.9974 -0.0016 -0.0718
vn -0.9973 -0.0016 -0.0732
vn -0.9982 0.0014 0.0607
usemtl M_Interior
s 1
f 54/1/1 103/2/1 49/3/1
f 58/4/2 5/5/2 75/6/2
f 70/7/3 61/8/3 4/9/3
f 112/10/4 74/11/4 73/12/4
f 58/13/5 73/14/5 74/15/5
f 65/16/6 72/17/6 111/18/6
f 72/19/7 3/20/7 111/21/7
f 74/22/3 68/23/3 5/24/3
f 59/25/8 4/26/8 61/27/8
f 9/28/9 102/29/9 24/30/9
f 24/31/10 106/32/11 10/33/12
f 10/34/13 105/35/14 8/36/15
f 13/37/16 14/38/17 53/39/18
f 11/40/19 53/41/19 54/42/19
f 15/43/20 105/44/21 52/45/20
f 15/46/22 14/47/22 12/48/22
f 24/49/23 7/50/23 2/51/23
f 7/52/23 8/53/23 98/54/23
f 13/55/23 1/56/23 6/57/23
f 12/58/23 6/59/23 101/60/23
f 18/61/8 16/62/8 17/63/8
f 100/64/23 12/65/23 101/66/23
f 8/67/23 100/64/23 98/68/23
f 20/69/23 22/70/23 21/71/23
f 38/72/23 24/73/23 102/74/23
f 38/75/24 48/76/24 26/77/24
f 52/78/8 104/79/8 51/80/8
f 52/78/8 99/81/8 14/82/8
f 52/78/8 105/83/8 104/79/8
f 51/84/25 99/85/25 104/86/25
f 55/87/8 28/88/8 99/89/8
f 42/90/26 27/91/27 41/92/28
f 93/93/29 97/94/29 34/95/29
f 36/96/29 30/97/29 35/98/29
f 33/99/30 95/100/30 31/101/30
f 94/102/30 96/103/30 67/104/30
f 70/105/31 110/106/31 109/107/31
f 69/108/32 75/109/32 5/110/32
f 96/111/23 35/112/23 67/113/23
f 46/114/23 64/115/23 43/116/23
f 34/117/23 95/118/23 66/119/23
f 39/120/33 40/121/33 38/122/33
f 39/123/23 102/74/23 37/124/23
f 103/125/23 39/123/23 37/124/23
f 11/126/23 42/127/23 103/125/23
f 39/120/34 42/90/26 41/92/28
f 37/128/35 49/3/1 103/2/1
f 28/129/8 54/130/8 53/131/8
f 99/89/8 53/131/8 14/132/8
f 60/133/23 65/134/23 110/135/23
f 56/136/23 73/137/23 57/138/23
f 46/139/36 47/140/36 45/141/36
f 44/142/37 43/143/37 64/144/37
f 40/145/8 9/146/8 48/147/8
f 49/3/8 50/148/8 41/149/8
f 54/150/8 41/151/8 27/152/8
f 40/153/8 41/149/8 50/154/8
f 41/151/8 54/150/8 49/3/8
f 51/80/8 99/81/8 52/78/8
f 56/155/38 58/156/38 28/157/38
f 58/158/7 59/159/7 28/160/7
f 44/161/8 63/162/8 62/163/8
f 3/164/23 5/165/23 68/166/23
f 70/167/5 71/168/5 60/169/5
f 70/170/39 69/171/39 72/172/39
f 82/173/40 77/174/40 81/175/40
f 78/176/41 77/177/41 79/178/41
f 76/179/42 81/180/42 83/181/42
f 76/182/43 80/183/43 78/184/43
f 86/185/8 87/186/8 85/187/8
f 84/188/44 87/189/44 88/190/44
f 90/191/45 85/192/45 89/193/45
f 90/194/23 91/195/23 84/196/23
f 35/197/46 94/198/46 67/199/46
f 33/200/47 34/201/47 66/202/47
f 32/203/48 36/204/48 96/205/48
f 97/206/49 31/207/49 95/208/49
f 51/209/50 98/210/51 100/211/52
f 99/212/53 100/211/52 101/213/53
f 6/214/54 99/215/55 101/216/56
f 28/217/57 6/218/57 1/219/57
f 50/148/58 37/128/58 102/29/58
f 109/220/8 106/221/8 9/222/8
f 106/221/8 104/223/8 105/224/8
f 107/225/59 109/220/59 108/226/59
f 7/227/60 109/228/61 2/229/62
f 104/230/63 7/52/64 98/231/65
f 28/232/66 112/233/66 56/234/66
f 109/235/66 65/236/66 111/237/66
f 3/238/67 59/239/68 61/240/69
f 109/241/70 3/242/67 61/243/69
f 28/244/71 68/245/72 113/246/73
f 54/1/1 11/247/1 103/2/1
f 58/4/39 74/248/39 5/5/39
f 70/7/3 109/249/3 61/8/3
f 112/10/4 113/250/4 74/11/4
f 58/13/5 57/251/5 73/14/5
f 65/16/6 71/252/6 72/17/6
f 72/19/7 69/253/7 3/20/7
f 74/22/3 113/254/3 68/23/3
f 59/25/8 75/255/8 4/26/8
f 9/28/9 50/148/9 102/29/9
f 24/31/10 9/256/74 106/32/11
f 10/34/13 106/257/75 105/35/14
f 13/37/16 12/258/76 14/38/17
f 11/40/77 13/259/77 53/41/77
f 15/43/78 8/260/78 105/44/78
f 15/46/20 52/261/20 14/47/79
f 24/49/23 10/262/23 7/50/23
f 7/52/23 10/263/23 8/53/23
f 13/55/23 11/40/23 1/56/23
f 12/58/23 13/55/23 6/59/23
f 18/61/8 19/264/8 16/62/8
f 100/64/23 15/265/23 12/65/23
f 8/67/23 15/265/23 100/64/23
f 20/69/23 23/266/23 22/70/23
f 38/72/23 26/267/23 24/73/23
f 38/75/24 40/268/24 48/76/24
f 42/90/27 25/269/27 27/91/27
f 93/93/29 92/270/29 97/94/29
f 36/96/29 29/271/29 30/97/29
f 33/99/30 66/272/30 95/100/30
f 94/102/30 32/273/30 96/103/30
f 70/105/31 60/274/31 110/106/31
f 69/108/32 4/275/32 75/109/32
f 96/111/23 36/276/23 35/112/23
f 46/114/23 45/277/23 64/115/23
f 34/117/23 97/278/23 95/118/23
f 39/120/33 41/92/33 40/121/33
f 39/123/23 38/72/23 102/74/23
f 103/125/23 42/127/23 39/123/23
f 11/126/23 25/279/23 42/127/23
f 60/133/23 71/280/23 65/134/23
f 56/136/23 112/281/23 73/137/23
f 46/139/36 63/282/36 47/140/36
f 44/142/37 62/283/37 43/143/37
f 40/145/8 50/284/8 9/146/8
f 56/155/38 57/285/38 58/156/38
f 58/158/7 75/286/7 59/159/7
f 44/161/8 47/287/8 63/162/8
f 3/164/23 69/288/23 5/165/23
f 70/167/5 72/289/5 71/168/5
f 70/170/80 4/290/80 69/171/80
f 82/173/40 79/291/40 77/174/40
f 78/176/41 80/292/41 77/177/41
f 76/179/42 82/293/42 81/180/42
f 76/182/43 83/294/43 80/183/43
f 86/185/8 88/295/8 87/186/8
f 84/188/44 91/296/44 87/189/44
f 90/191/45 86/297/45 85/192/45
f 90/194/23 89/298/23 91/195/23
f 35/197/46 30/299/46 94/198/46
f 33/200/47 93/300/47 34/201/47
f 32/203/48 29/301/48 36/204/48
f 97/206/49 92/302/49 31/207/49
f 51/209/50 104/303/51 98/210/51
f 99/212/53 51/209/50 100/211/52
f 6/214/54 55/304/81 99/215/55
f 28/217/82 55/305/82 6/218/82
f 50/148/58 49/3/58 37/128/58
f 7/227/60 108/306/83 109/228/61
f 104/230/63 108/307/84 7/52/64
f 28/232/66 113/308/66 112/233/66
f 109/235/66 110/309/66 65/236/66
f 3/238/67 68/310/72 59/239/68
f 109/241/70 111/311/73 3/242/67
f 28/244/71 59/312/68 68/245/72
