# Blender v3.0.1 OBJ File: 'props.blend'
# www.blender.org
mtllib Chair07.mtl
o Chair07_LOD0_Chair2.003
v 0.254570 0.399421 -0.223547
v -0.222627 0.399421 -0.224913
v -0.182808 0.923556 -0.295377
v -0.222555 0.960815 -0.322584
v 0.214871 0.923556 -0.316233
v 0.270322 0.399421 -0.000929
v -0.238688 0.399421 -0.001287
v -0.203067 0.399421 0.238231
v -0.202744 0.439186 -0.220872
v -0.222781 0.399421 -0.001276
v 0.234687 0.399421 -0.220565
v 0.234363 0.399421 0.238538
v 0.254415 0.399421 -0.000942
v 0.234365 0.439186 0.236748
v 0.015636 0.399421 0.236440
v 0.254570 0.435210 -0.220550
v -0.222627 0.435210 -0.220887
v -0.222963 0.435210 0.256311
v 0.254234 0.435210 0.256646
v 0.254570 0.403397 -0.220550
v -0.222627 0.403397 -0.220887
v -0.222963 0.403397 0.256311
v 0.254234 0.403397 0.256646
v -0.202744 0.399421 -0.220872
v 0.236659 0.399421 -0.200683
v -0.204744 0.399421 -0.200990
v 0.236659 0.439186 -0.200683
v 0.254570 0.439186 -0.220550
v 0.206548 0.403398 0.208893
v 0.246315 0.403398 0.208923
v -0.175238 0.403398 0.248392
v 0.206520 0.403398 0.248659
v -0.215004 0.403398 0.248364
v -0.223142 0.001756 0.228276
v 0.254452 0.001756 0.228611
v 0.222242 0.001756 0.228588
v 0.241323 0.257246 0.216080
v 0.251579 0.257246 -0.230462
v -0.209995 0.257246 0.215763
v -0.219622 0.257246 -0.230794
v 0.241323 0.289059 0.216080
v 0.221439 0.257246 0.216066
v 0.231696 0.257246 -0.230477
v 0.221439 0.289059 0.216066
v 0.231696 0.289059 -0.230477
v -0.199739 0.257246 -0.230780
v -0.199739 0.289059 -0.230780
v 0.052471 0.399421 -0.235879
v -0.060231 0.399421 -0.215141
v 0.052457 0.399421 -0.215995
v -0.060228 0.439186 -0.215141
v 0.052454 0.439186 -0.215996
v 0.052981 0.399421 -0.215951
v 0.224826 0.257246 -0.236632
v 0.225277 0.257246 -0.256511
v -0.222299 0.289059 -0.256755
v -0.216496 0.257246 0.245050
v 0.223908 0.289059 0.245295
v 0.224359 0.257246 0.225417
v -0.216042 0.257246 0.225172
v 0.224359 0.289059 0.225417
v -0.204744 0.439186 -0.200990
v 0.052469 0.439186 -0.235879
v -0.060213 0.439186 -0.235024
v 0.015621 0.439186 0.256323
v 0.015636 0.439186 0.236440
v 0.254416 0.439186 -0.001836
v 0.234687 0.439186 -0.220565
v 0.270322 0.439186 -0.001824
v 0.266516 0.001756 -0.244402
v 0.266544 0.001756 -0.284169
v 0.254598 0.439186 -0.260317
v 0.254627 0.960815 -0.301111
v -0.234513 0.001756 -0.284522
v -0.222571 0.960815 -0.301446
v 0.251579 0.289059 -0.230462
v -0.209995 0.289059 0.215763
v -0.219622 0.289059 -0.230794
v -0.190111 0.289059 0.215775
v 0.224826 0.289059 -0.236632
v -0.222753 0.289059 -0.236877
v 0.225277 0.289059 -0.256511
v -0.216496 0.289059 0.245050
v -0.216042 0.289059 0.225172
v -0.190111 0.257246 0.215775
v -0.222753 0.257246 -0.236877
v -0.222299 0.257246 -0.256755
v 0.223908 0.257246 0.245295
v -0.206704 0.001756 -0.244735
v -0.223165 0.001756 0.260487
v 0.254430 0.001756 0.260821
v 0.214856 0.923556 -0.295097
v -0.182793 0.923556 -0.316515
v -0.222599 0.439186 -0.260653
v -0.206676 0.001756 -0.284502
v -0.182833 0.439186 -0.260625
v 0.238708 0.001756 -0.284188
v 0.214832 0.439186 -0.260345
v 0.254641 0.960815 -0.322247
v 0.214856 0.747103 -0.276437
v -0.222555 0.783571 -0.293527
v 0.214871 0.746529 -0.288181
v 0.254641 0.783580 -0.293339
v -0.182793 0.746521 -0.288337
v -0.222571 0.784145 -0.281782
v 0.254627 0.784154 -0.281596
v -0.182808 0.747095 -0.276593
v 0.214871 0.641293 -0.275512
v -0.222571 0.678551 -0.267286
v 0.254627 0.678551 -0.267100
v -0.222555 0.678551 -0.279045
v 0.254641 0.678551 -0.278857
v -0.182808 0.641293 -0.263910
v 0.214856 0.641293 -0.263754
v -0.182793 0.641293 -0.275668
v -0.175210 0.403398 0.208624
v -0.214976 0.403398 0.208598
v 0.246287 0.403398 0.248688
v -0.190954 0.001756 0.260510
v 0.222219 0.001756 0.260798
v -0.190932 0.001756 0.228297
v -0.222963 0.399421 0.256311
v 0.254234 0.439186 0.256646
v 0.015621 0.399421 0.256323
v 0.254234 0.399421 0.256646
v -0.060217 0.399421 -0.235024
v 0.052995 0.399421 -0.235835
v -0.222963 0.439186 0.256311
v -0.203066 0.439186 0.236442
v -0.222781 0.439186 -0.002170
v -0.222963 0.438935 0.256311
v -0.238687 0.439186 -0.002183
v -0.222627 0.439186 -0.220887
v -0.234541 0.001756 -0.244754
v -0.182861 0.439186 -0.220858
v 0.238680 0.001756 -0.244421
v 0.214804 0.439186 -0.220579
vt 0.153510 0.344827
vt 0.156484 0.331191
vt 0.153510 0.331151
vt 0.151675 0.336095
vt 0.150161 0.317546
vt 0.151675 0.316112
vt 0.151657 0.335864
vt 0.150162 0.316015
vt 0.150957 0.315893
vt 0.164698 0.341882
vt 0.167034 0.316200
vt 0.167034 0.342008
vt 0.167034 0.316229
vt 0.165397 0.341964
vt 0.164695 0.316165
vt 0.167034 0.341754
vt 0.164698 0.316073
vt 0.167034 0.315946
vt 0.150179 0.335404
vt 0.151675 0.316990
vt 0.151675 0.335634
vt 0.151675 0.335634
vt 0.150179 0.317220
vt 0.150975 0.317098
vt 0.168986 0.321079
vt 0.168243 0.337831
vt 0.168986 0.337831
vt 0.153510 0.311976
vt 0.156484 0.322688
vt 0.156484 0.311976
vt 0.161448 0.333570
vt 0.159390 0.344939
vt 0.161448 0.344985
vt 0.161448 0.332546
vt 0.159389 0.344893
vt 0.161448 0.344985
vt 0.165143 0.344863
vt 0.163084 0.332515
vt 0.163084 0.344909
vt 0.165143 0.344863
vt 0.163084 0.333495
vt 0.163084 0.344863
vt 0.176063 0.333970
vt 0.174728 0.326573
vt 0.174713 0.333970
vt 0.176064 0.330920
vt 0.174728 0.338318
vt 0.176079 0.338313
vt 0.160102 0.345107
vt 0.161179 0.330016
vt 0.161448 0.344985
vt 0.161448 0.344985
vt 0.160023 0.328581
vt 0.161448 0.327436
vt 0.165143 0.329868
vt 0.163796 0.344740
vt 0.164065 0.329771
vt 0.165488 0.313530
vt 0.164063 0.329935
vt 0.164063 0.312386
vt 0.745706 0.779592
vt 0.786895 0.738403
vt 0.786895 0.779592
vt 0.175618 0.327714
vt 0.175605 0.317925
vt 0.174728 0.317109
vt 0.175605 0.337501
vt 0.174728 0.338318
vt 0.200323 0.385023
vt 0.230129 0.355218
vt 0.200323 0.355218
vt 0.154328 0.335088
vt 0.155769 0.344679
vt 0.155672 0.334940
vt 0.156483 0.337413
vt 0.154425 0.344827
vt 0.156483 0.344827
vt 0.172146 0.328318
vt 0.170665 0.345956
vt 0.170676 0.328318
vt 0.170665 0.310678
vt 0.172135 0.312148
vt 0.172135 0.344486
vt 0.176037 0.328499
vt 0.176044 0.339308
vt 0.176044 0.317692
vt 0.166241 0.326949
vt 0.165143 0.311844
vt 0.165143 0.344863
vt 0.156484 0.335389
vt 0.154425 0.344827
vt 0.154425 0.335361
vt 0.164698 0.318298
vt 0.166593 0.341920
vt 0.164698 0.341958
vt 0.165139 0.341988
vt 0.167034 0.318366
vt 0.167034 0.342026
vt 0.166593 0.318277
vt 0.164698 0.341882
vt 0.164254 0.318230
vt 0.164440 0.318233
vt 0.166335 0.341837
vt 0.164440 0.341875
vt 0.167034 0.316229
vt 0.164698 0.341882
vt 0.164698 0.316102
vt 0.160205 0.320442
vt 0.162159 0.343085
vt 0.160205 0.341027
vt 0.222700 0.375052
vt 0.224712 0.373039
vt 0.224712 0.375052
vt 0.172173 0.334208
vt 0.173820 0.345769
vt 0.173820 0.334208
vt 0.173820 0.345769
vt 0.174847 0.334277
vt 0.174849 0.345746
vt 0.229974 0.372509
vt 0.231986 0.374520
vt 0.229974 0.374520
vt 0.173202 0.334094
vt 0.174849 0.345655
vt 0.173202 0.345655
vt 0.173820 0.345769
vt 0.174847 0.334277
vt 0.174849 0.345746
vt 0.173202 0.334094
vt 0.174849 0.345655
vt 0.174849 0.334094
vt 0.156484 0.335361
vt 0.154425 0.332433
vt 0.156484 0.332433
vt 0.154290 0.327393
vt 0.155637 0.327506
vt 0.155637 0.327470
vt 0.155637 0.315072
vt 0.154290 0.327358
vt 0.156484 0.331151
vt 0.165143 0.311968
vt 0.163775 0.311844
vt 0.165143 0.327011
vt 0.163770 0.343490
vt 0.173820 0.334231
vt 0.172173 0.345791
vt 0.173820 0.345791
vt 0.170947 0.310910
vt 0.168889 0.309469
vt 0.168889 0.310910
vt 0.173202 0.334094
vt 0.174849 0.345655
vt 0.173202 0.345655
vt 0.172173 0.334208
vt 0.173202 0.345791
vt 0.172173 0.345769
vt 0.173202 0.334094
vt 0.174849 0.334094
vt 0.224712 0.377661
vt 0.222973 0.375178
vt 0.224712 0.375178
vt 0.173202 0.334094
vt 0.174849 0.345655
vt 0.173202 0.345655
vt 0.173820 0.345769
vt 0.174847 0.334277
vt 0.173202 0.334094
vt 0.174849 0.334094
vt 0.154785 0.324265
vt 0.154396 0.314422
vt 0.155769 0.314422
vt 0.153510 0.322688
vt 0.154396 0.332069
vt 0.154396 0.344690
vt 0.154720 0.332058
vt 0.155769 0.344679
vt 0.154396 0.328154
vt 0.154269 0.328178
vt 0.167034 0.341754
vt 0.164698 0.316102
vt 0.167034 0.315975
vt 0.150179 0.335864
vt 0.151675 0.316015
vt 0.151675 0.336095
vt 0.172173 0.334208
vt 0.172993 0.345737
vt 0.172994 0.334226
vt 0.174029 0.345691
vt 0.174849 0.336522
vt 0.174028 0.336540
vt 0.174029 0.345691
vt 0.174849 0.336522
vt 0.174028 0.336540
vt 0.174029 0.345691
vt 0.174849 0.336522
vt 0.174028 0.336540
vt 0.160205 0.320442
vt 0.161299 0.341027
vt 0.160205 0.341027
vt 0.164695 0.316293
vt 0.166333 0.342028
vt 0.164695 0.342072
vt 0.150162 0.336095
vt 0.151676 0.317546
vt 0.151675 0.336095
vt 0.165468 0.335763
vt 0.166210 0.319010
vt 0.165468 0.319010
vt 0.162946 0.338285
vt 0.164900 0.315642
vt 0.164900 0.340343
vt 0.173249 0.324587
vt 0.174922 0.343975
vt 0.173249 0.342212
vt 0.162946 0.338285
vt 0.164041 0.317701
vt 0.164041 0.338285
vt 0.165468 0.335763
vt 0.166210 0.319010
vt 0.165468 0.319010
vt 0.162946 0.338285
vt 0.164900 0.315642
vt 0.164900 0.340343
vt 0.173249 0.324587
vt 0.174922 0.343975
vt 0.173249 0.342212
vt 0.162946 0.338285
vt 0.164041 0.317701
vt 0.164041 0.338285
vt 0.165140 0.341952
vt 0.167034 0.318366
vt 0.167034 0.342008
vt 0.164699 0.318335
vt 0.166593 0.341920
vt 0.164699 0.341977
vt 0.164699 0.318321
vt 0.166593 0.341920
vt 0.164699 0.341977
vt 0.165140 0.341952
vt 0.167034 0.318353
vt 0.167034 0.342008
vt 0.174728 0.326575
vt 0.176678 0.338318
vt 0.176678 0.326574
vt 0.174728 0.314829
vt 0.176678 0.314829
vt 0.166058 0.309206
vt 0.163084 0.328508
vt 0.166058 0.328508
vt 0.163084 0.328508
vt 0.166058 0.344976
vt 0.166058 0.328508
vt 0.160075 0.313402
vt 0.160075 0.328507
vt 0.161448 0.313402
vt 0.160075 0.346359
vt 0.161448 0.344985
vt 0.160075 0.346359
vt 0.158976 0.328507
vt 0.161448 0.309216
vt 0.158474 0.325684
vt 0.161448 0.325684
vt 0.158474 0.325684
vt 0.161448 0.325684
vt 0.164698 0.316102
vt 0.166335 0.341837
vt 0.164698 0.341882
vt 0.167034 0.316229
vt 0.165397 0.341964
vt 0.164695 0.316165
vt 0.170508 0.344954
vt 0.172181 0.325566
vt 0.172181 0.346717
vt 0.152025 0.315144
vt 0.153789 0.336865
vt 0.152026 0.338538
vt 0.173177 0.315144
vt 0.171414 0.336865
vt 0.171415 0.315144
vt 0.156484 0.344827
vt 0.150162 0.336096
vt 0.150162 0.336095
vt 0.164698 0.316073
vt 0.167034 0.342008
vt 0.164698 0.341882
vt 0.150880 0.316868
vt 0.150179 0.335864
vt 0.168243 0.321079
vt 0.159390 0.333570
vt 0.159389 0.332499
vt 0.165143 0.332423
vt 0.165143 0.333448
vt 0.176078 0.326578
vt 0.174714 0.330920
vt 0.160102 0.330114
vt 0.160369 0.344919
vt 0.745706 0.738403
vt 0.176501 0.327714
vt 0.230129 0.385023
vt 0.154425 0.344827
vt 0.154425 0.337413
vt 0.156484 0.344827
vt 0.167037 0.318251
vt 0.164695 0.318319
vt 0.166593 0.341920
vt 0.166779 0.318185
vt 0.167034 0.342008
vt 0.162159 0.318383
vt 0.222700 0.373039
vt 0.172173 0.345769
vt 0.173820 0.334208
vt 0.231986 0.372509
vt 0.174849 0.334094
vt 0.173820 0.334208
vt 0.173202 0.345655
vt 0.154290 0.314959
vt 0.172173 0.334231
vt 0.170947 0.309469
vt 0.174849 0.334094
vt 0.173200 0.334140
vt 0.173202 0.345655
vt 0.222973 0.377661
vt 0.174849 0.334094
vt 0.173820 0.334208
vt 0.173202 0.345655
vt 0.153412 0.324265
vt 0.164698 0.341882
vt 0.150880 0.315893
vt 0.172173 0.345791
vt 0.161299 0.320442
vt 0.167034 0.316229
vt 0.150162 0.316112
vt 0.166210 0.335763
vt 0.162946 0.317700
vt 0.174922 0.322825
vt 0.162946 0.317701
vt 0.166210 0.335763
vt 0.162946 0.317700
vt 0.174922 0.322825
vt 0.162946 0.317701
vt 0.164695 0.318295
vt 0.167037 0.318264
vt 0.167037 0.318251
vt 0.164695 0.318283
vt 0.174728 0.338318
vt 0.163084 0.309140
vt 0.163084 0.344909
vt 0.158474 0.309283
vt 0.158474 0.345052
vt 0.167037 0.316038
vt 0.167034 0.342008
vt 0.170508 0.327329
vt 0.153788 0.315144
vt 0.173177 0.338538
vn 0.0837 0.0000 -0.9965
vn -0.0397 -0.1178 -0.9922
vn -1.0000 0.0000 -0.0007
vn -0.9985 -0.0545 -0.0007
vn 0.0007 0.0545 -0.9985
vn 0.9985 -0.0545 0.0007
vn 1.0000 -0.0000 0.0007
vn 0.0000 1.0000 -0.0000
vn -0.0988 0.0000 -0.9951
vn 0.9959 0.0015 0.0910
vn 0.9958 0.0006 0.0911
vn 0.9959 0.0020 0.0909
vn 0.9966 -0.0032 -0.0821
vn 0.9966 -0.0026 -0.0822
vn 0.9966 -0.0037 -0.0820
vn -0.9965 -0.0032 -0.0835
vn -0.9965 -0.0024 -0.0837
vn -0.9965 -0.0019 -0.0837
vn -0.9960 0.0000 0.0898
vn 0.0007 0.0000 -1.0000
vn -0.0000 0.0000 -1.0000
vn 0.0096 -0.0450 -0.9989
vn 0.0000 -1.0000 -0.0000
vn 0.0975 0.0000 0.9952
vn 0.0000 -1.0000 0.0004
vn -0.0833 0.0000 0.9965
vn -0.0828 0.0000 0.9966
vn -0.0832 0.0000 0.9965
vn 0.0007 -0.0489 -0.9988
vn -0.0007 0.0302 0.9995
vn -0.9996 0.0273 -0.0007
vn 0.0007 -0.1601 -0.9871
vn -0.9997 0.0000 -0.0230
vn 0.9998 0.0000 -0.0216
vn -0.9998 0.0000 0.0216
vn 0.0076 0.0000 1.0000
vn -0.0837 -0.0000 0.9965
vn 0.0836 0.0000 -0.9965
vn 0.9997 0.0000 0.0230
vn 0.0005 0.0000 -1.0000
vn -0.0005 0.0000 1.0000
vn 0.0006 0.0000 -1.0000
vn -0.0006 0.0000 1.0000
vn 0.9996 0.0273 0.0007
vn 0.0007 -0.1146 -0.9934
vn 0.0000 0.9988 -0.0488
vn 0.0004 -0.1383 -0.9904
vn -0.0004 0.1383 0.9904
vn 0.0000 -0.9988 0.0488
vn 0.0004 -0.0898 -0.9960
vn -0.0004 0.0898 0.9960
vn 0.9998 0.0203 0.0007
vn -0.9998 0.0203 -0.0007
vn -0.9992 -0.0391 -0.0007
vn 0.9992 -0.0391 0.0007
vn -0.0002 -0.0000 1.0000
vn -0.0000 0.0000 1.0000
vn -0.0010 -0.0000 1.0000
vn -0.0014 0.0000 1.0000
vn 0.9981 0.0004 0.0623
vn 0.9981 0.0010 0.0622
vn 0.9981 0.0000 0.0623
vn 0.9975 0.0053 -0.0706
vn -0.0076 -0.0000 -1.0000
vn 0.0072 1.0000 0.0005
vn -0.9974 0.0050 -0.0720
vn -0.9973 0.0006 -0.0728
vn -0.9974 0.0073 -0.0716
vn -0.9981 0.0005 0.0609
vn -0.9981 0.0002 0.0609
vn -0.9981 0.0000 0.0609
vn -0.0007 -0.0545 0.9985
vn 0.0011 0.1558 0.9878
vn -0.0006 0.1600 0.9871
vn -0.0008 0.1599 0.9871
vn -0.0059 0.1525 0.9883
vn 0.0045 0.1525 0.9883
vn -0.0004 0.1521 0.9884
vn -0.0007 0.1521 0.9884
vn 0.9958 0.0000 0.0912
vn 0.9966 -0.0019 -0.0823
vn -0.9965 -0.0037 -0.0834
vn -0.9960 0.0020 0.0895
vn -0.0082 -0.0449 -0.9990
vn 0.0014 0.0000 -1.0000
vn 0.0411 -0.1178 -0.9922
vn 0.9981 0.0014 0.0621
vn 0.9974 -0.0016 -0.0718
vn -0.9973 -0.0016 -0.0732
vn -0.9982 0.0014 0.0607
usemtl M_Interior
s 1
f 68/1/1 127/2/1 63/3/1
f 72/4/2 5/5/2 99/6/2
f 94/7/3 75/8/3 4/9/3
f 136/10/4 98/11/4 97/12/4
f 72/13/5 97/14/5 98/15/5
f 89/16/6 96/17/6 135/18/6
f 96/19/7 3/20/7 135/21/7
f 98/22/3 92/23/3 5/24/3
f 73/25/8 4/26/8 75/27/8
f 9/28/9 126/29/9 24/30/9
f 24/31/10 130/32/11 10/33/12
f 10/34/13 129/35/14 8/36/15
f 13/37/16 14/38/17 67/39/18
f 11/40/19 67/41/19 68/42/19
f 15/43/20 129/44/21 66/45/20
f 15/46/22 14/47/22 12/48/22
f 24/49/23 7/50/23 2/51/23
f 7/52/23 8/53/23 122/54/23
f 13/55/23 1/56/23 6/57/23
f 12/58/23 6/59/23 125/60/23
f 18/61/8 16/62/8 17/63/8
f 124/64/23 12/65/23 125/66/23
f 8/67/23 124/64/23 122/68/23
f 20/69/23 22/70/23 21/71/23
f 49/72/23 24/73/23 126/74/23
f 49/75/24 62/76/24 26/77/24
f 66/78/8 128/79/8 65/80/8
f 66/78/8 123/81/8 14/82/8
f 66/78/8 129/83/8 128/79/8
f 65/84/25 123/85/25 128/86/25
f 69/87/8 28/88/8 123/89/8
f 53/90/26 27/91/27 52/92/28
f 117/93/29 121/94/29 34/95/29
f 36/96/29 30/97/29 35/98/29
f 33/99/30 119/100/30 31/101/30
f 118/102/30 120/103/30 91/104/30
f 94/105/31 134/106/31 133/107/31
f 93/108/32 99/109/32 5/110/32
f 120/111/23 35/112/23 91/113/23
f 44/114/33 43/115/33 42/116/33
f 60/117/23 88/118/23 57/119/23
f 34/120/23 119/121/23 90/122/23
f 46/123/34 79/124/34 85/125/34
f 87/126/23 54/127/23 86/128/23
f 77/129/35 40/130/35 39/131/35
f 50/132/36 51/133/36 49/134/36
f 50/135/23 126/74/23 48/136/23
f 127/137/23 50/135/23 48/136/23
f 11/138/23 53/139/23 127/137/23
f 50/132/37 53/90/26 52/92/28
f 48/140/38 63/3/1 127/2/1
f 28/141/8 68/142/8 67/143/8
f 123/89/8 67/143/8 14/144/8
f 38/145/39 41/146/39 37/147/39
f 74/148/23 89/149/23 134/150/23
f 87/151/40 82/152/40 55/153/40
f 37/154/23 43/155/23 38/156/23
f 80/157/41 86/128/41 54/158/41
f 70/159/23 97/160/23 71/161/23
f 60/162/42 61/163/42 59/164/42
f 46/165/23 39/166/23 40/130/23
f 58/167/43 57/119/43 88/168/43
f 51/169/8 9/170/8 62/171/8
f 63/3/8 64/172/8 52/173/8
f 68/174/8 52/175/8 27/176/8
f 51/177/8 52/173/8 64/178/8
f 52/175/8 68/174/8 63/3/8
f 65/80/8 123/81/8 66/78/8
f 70/179/44 72/180/44 28/181/44
f 72/182/7 73/183/7 28/184/7
f 45/185/8 41/186/8 76/187/8
f 77/188/8 47/189/8 78/190/8
f 80/191/8 56/192/8 81/193/8
f 58/194/8 84/195/8 83/196/8
f 3/197/23 5/198/23 92/199/23
f 94/200/5 95/201/5 74/202/5
f 94/203/45 93/204/45 96/205/45
f 106/206/46 101/207/46 105/208/46
f 102/209/47 101/210/47 103/211/47
f 100/212/48 105/213/48 107/214/48
f 100/215/49 104/216/49 102/217/49
f 110/218/8 111/219/8 109/220/8
f 108/221/50 111/222/50 112/223/50
f 114/224/51 109/225/51 113/226/51
f 114/227/23 115/228/23 108/229/23
f 35/230/52 118/231/52 91/232/52
f 33/233/53 34/234/53 90/235/53
f 32/236/54 36/237/54 120/238/54
f 121/239/55 31/240/55 119/241/55
f 65/242/56 122/243/57 124/244/58
f 123/245/59 124/244/58 125/246/59
f 6/247/60 123/248/61 125/249/62
f 28/250/63 6/251/63 1/252/63
f 64/172/64 48/140/64 126/29/64
f 133/253/8 130/254/8 9/255/8
f 130/254/8 128/256/8 129/257/8
f 131/258/65 133/253/65 132/259/65
f 7/260/66 133/261/67 2/262/68
f 128/263/69 7/52/70 122/264/71
f 28/265/72 136/266/72 70/267/72
f 133/268/72 89/269/72 135/270/72
f 3/271/73 73/272/74 75/273/75
f 133/274/76 3/275/73 75/276/75
f 28/277/77 92/278/78 137/279/79
f 68/1/1 11/280/1 127/2/1
f 72/4/45 98/281/45 5/5/45
f 94/7/3 133/282/3 75/8/3
f 136/10/4 137/283/4 98/11/4
f 72/13/5 71/284/5 97/14/5
f 89/16/6 95/285/6 96/17/6
f 96/19/7 93/286/7 3/20/7
f 98/22/3 137/287/3 92/23/3
f 73/25/8 99/288/8 4/26/8
f 9/28/9 64/172/9 126/29/9
f 24/31/10 9/289/80 130/32/11
f 10/34/13 130/290/81 129/35/14
f 13/37/16 12/291/82 14/38/17
f 11/40/83 13/292/83 67/41/83
f 15/43/84 8/293/84 129/44/84
f 15/46/20 66/294/20 14/47/85
f 24/49/23 10/295/23 7/50/23
f 7/52/23 10/296/23 8/53/23
f 13/55/23 11/40/23 1/56/23
f 12/58/23 13/55/23 6/59/23
f 18/61/8 19/297/8 16/62/8
f 124/64/23 15/298/23 12/65/23
f 8/67/23 15/298/23 124/64/23
f 20/69/23 23/299/23 22/70/23
f 49/72/23 26/300/23 24/73/23
f 49/75/24 51/301/24 62/76/24
f 53/90/27 25/302/27 27/91/27
f 117/93/29 116/303/29 121/94/29
f 36/96/29 29/304/29 30/97/29
f 33/99/30 90/305/30 119/100/30
f 118/102/30 32/306/30 120/103/30
f 94/105/31 74/307/31 134/106/31
f 93/108/32 4/308/32 99/109/32
f 120/111/23 36/309/23 35/112/23
f 44/114/33 45/310/33 43/115/33
f 60/117/23 59/311/23 88/118/23
f 34/120/23 121/312/23 119/121/23
f 46/123/34 47/313/34 79/124/34
f 87/126/23 55/314/23 54/127/23
f 77/129/35 78/315/35 40/130/35
f 50/132/36 52/92/36 51/133/36
f 50/135/23 49/72/23 126/74/23
f 127/137/23 53/139/23 50/135/23
f 11/138/23 25/316/23 53/139/23
f 38/145/39 76/317/39 41/146/39
f 74/148/23 95/318/23 89/149/23
f 87/151/40 56/319/40 82/152/40
f 37/154/23 42/320/23 43/155/23
f 80/157/41 81/321/41 86/128/41
f 70/159/23 136/322/23 97/160/23
f 60/162/42 84/323/42 61/163/42
f 46/165/23 85/324/23 39/166/23
f 58/167/43 83/325/43 57/119/43
f 51/169/8 64/326/8 9/170/8
f 70/179/44 71/327/44 72/180/44
f 72/182/7 99/328/7 73/183/7
f 45/185/8 44/329/8 41/186/8
f 77/188/8 79/124/8 47/189/8
f 80/191/8 82/152/8 56/192/8
f 58/194/8 61/163/8 84/195/8
f 3/197/23 93/330/23 5/198/23
f 94/200/5 96/331/5 95/201/5
f 94/203/86 4/332/86 93/204/86
f 106/206/46 103/333/46 101/207/46
f 102/209/47 104/334/47 101/210/47
f 100/212/48 106/335/48 105/213/48
f 100/215/49 107/336/49 104/216/49
f 110/218/8 112/337/8 111/219/8
f 108/221/50 115/338/50 111/222/50
f 114/224/51 110/339/51 109/225/51
f 114/227/23 113/340/23 115/228/23
f 35/230/52 30/341/52 118/231/52
f 33/233/53 117/342/53 34/234/53
f 32/236/54 29/343/54 36/237/54
f 121/239/55 116/344/55 31/240/55
f 65/242/56 128/345/57 122/243/57
f 123/245/59 65/242/56 124/244/58
f 6/247/60 69/346/87 123/248/61
f 28/250/88 69/347/88 6/251/88
f 64/172/64 63/3/64 48/140/64
f 7/260/66 132/348/89 133/261/67
f 128/263/69 132/349/90 7/52/70
f 28/265/72 137/350/72 136/266/72
f 133/268/72 134/351/72 89/269/72
f 3/271/73 92/352/78 73/272/74
f 133/274/76 135/353/79 3/275/73
f 28/277/77 73/354/74 92/278/78
