# Blender v3.0.1 OBJ File: 'props.blend'
# www.blender.org
mtllib Choppingboard_b.mtl
o CuttingBoard02_LOD0_Plane.005
v -0.116352 0.000000 0.194532
v -0.116740 -0.002477 0.197009
v -0.137403 0.000000 0.176394
v -0.139880 -0.002477 0.176952
v 0.111593 0.000000 0.194532
v 0.111980 -0.002477 0.197009
v -0.137402 0.000000 -0.176394
v -0.139880 -0.002477 -0.176952
v -0.137403 -0.009780 0.176394
v -0.116740 -0.007303 0.197009
v -0.139880 -0.007303 -0.176952
v 0.111980 -0.007303 -0.197009
v 0.126275 -0.009780 0.189825
v -0.132813 -0.007303 -0.191856
v -0.116739 -0.007303 -0.197009
v 0.128054 -0.007303 0.191856
v 0.132643 -0.009780 -0.176394
v 0.111980 -0.007303 0.197009
v 0.135120 -0.007303 0.176952
v -0.116352 -0.009780 0.194532
v -0.132813 -0.007303 0.191856
v -0.139880 -0.007303 0.176952
v 0.132643 -0.009780 0.176394
v 0.135120 -0.007303 -0.176952
v 0.111593 -0.009780 0.194532
v 0.128054 -0.007303 -0.191856
v -0.131035 0.000000 0.189825
v -0.132813 -0.002477 0.191856
v 0.135120 -0.002477 0.176952
v 0.132643 0.000000 0.176394
v 0.126275 0.000000 0.189825
v 0.128054 -0.002477 0.191856
v -0.116739 -0.002477 -0.197009
v -0.116352 0.000000 -0.194532
v -0.131035 0.000000 -0.189825
v -0.132813 -0.002477 -0.191856
v 0.111593 0.000000 -0.194532
v 0.111980 -0.002477 -0.197009
v 0.135120 -0.002477 -0.176952
v 0.132643 0.000000 -0.176394
v 0.126275 0.000000 -0.189825
v 0.128054 -0.002477 -0.191856
v -0.131035 -0.009780 0.189825
v 0.111593 -0.009780 -0.194532
v 0.126275 -0.009780 -0.189825
v -0.116352 -0.009780 -0.194532
v -0.137402 -0.009780 -0.176394
v -0.131035 -0.009780 -0.189825
v -0.116352 0.000000 0.194532
v -0.137403 0.000000 0.176394
v 0.111593 0.000000 0.194532
v -0.137402 0.000000 -0.176394
v -0.137403 -0.009780 0.176394
v 0.126275 -0.009780 0.189825
v 0.132643 -0.009780 -0.176394
v -0.116352 -0.009780 0.194532
v 0.132643 -0.009780 0.176394
v 0.111593 -0.009780 0.194532
v -0.131035 0.000000 0.189825
v 0.132643 0.000000 0.176394
v 0.126275 0.000000 0.189825
v -0.116352 0.000000 -0.194532
v -0.131035 0.000000 -0.189825
v 0.111593 0.000000 -0.194532
v 0.132643 0.000000 -0.176394
v 0.126275 0.000000 -0.189825
v -0.131035 -0.009780 0.189825
v 0.111593 -0.009780 -0.194532
v 0.126275 -0.009780 -0.189825
v -0.116352 -0.009780 -0.194532
v -0.137402 -0.009780 -0.176394
v -0.131035 -0.009780 -0.189825
vt 0.383377 0.374581
vt 0.383537 0.372591
vt 0.384078 0.372691
vt 0.351838 0.329833
vt 0.351677 0.331823
vt 0.351137 0.331723
vt 0.352515 0.329935
vt 0.354351 0.328858
vt 0.354424 0.329411
vt 0.354354 0.375549
vt 0.380791 0.375003
vt 0.380863 0.375556
vt 0.380789 0.329416
vt 0.352392 0.374374
vt 0.351137 0.372690
vt 0.351677 0.372590
vt 0.384078 0.331724
vt 0.383537 0.331824
vt 0.382841 0.329370
vt 0.380861 0.328864
vt 0.382822 0.330040
vt 0.383375 0.329835
vt 0.382699 0.374479
vt 0.382845 0.375046
vt 0.352373 0.375044
vt 0.354425 0.374998
vt 0.352063 0.372514
vt 0.354479 0.329806
vt 0.382461 0.330320
vt 0.380789 0.329416
vt 0.382697 0.329937
vt 0.352752 0.330318
vt 0.354424 0.329411
vt 0.354479 0.329806
vt 0.351677 0.331823
vt 0.352391 0.330038
vt 0.352753 0.374094
vt 0.351677 0.372590
vt 0.352063 0.372514
vt 0.382463 0.374096
vt 0.380791 0.375003
vt 0.380735 0.374608
vt 0.383537 0.372591
vt 0.382824 0.374376
vt 0.383152 0.331900
vt 0.383151 0.372515
vt 0.383537 0.331824
vt 0.380735 0.374608
vt 0.354480 0.374604
vt 0.352753 0.374094
vt 0.352517 0.374477
vt 0.382461 0.330320
vt 0.383152 0.331900
vt 0.383151 0.372515
vt 0.382463 0.374096
vt 0.382824 0.374376
vt 0.354425 0.374998
vt 0.352517 0.374477
vt 0.354480 0.374604
vt 0.380735 0.329810
vt 0.352752 0.330318
vt 0.352391 0.330038
vt 0.382697 0.329937
vt 0.352063 0.331898
vt 0.380735 0.329810
vt 0.383152 0.331900
vt 0.352063 0.331898
vt 0.380735 0.329810
vt 0.383152 0.331900
vt 0.352369 0.329368
vt 0.351839 0.374579
vt 0.352063 0.331898
vt 0.380735 0.329810
vt 0.352515 0.329935
vt 0.352063 0.331898
vt 0.352392 0.374374
vt 0.382699 0.374479
vt 0.382822 0.330040
vt 0.382463 0.374096
vt 0.380735 0.374608
vt 0.383151 0.372515
vt 0.354480 0.374604
vt 0.352753 0.374094
vt 0.352063 0.372514
vt 0.352752 0.330318
vt 0.354479 0.329806
vt 0.382461 0.330320
vt 0.382463 0.374096
vt 0.380735 0.374608
vt 0.383151 0.372515
vt 0.354480 0.374604
vt 0.352753 0.374094
vt 0.352063 0.372514
vt 0.352752 0.330318
vt 0.354479 0.329806
vt 0.382461 0.330320
vn 0.6122 -0.3691 -0.6993
vn 0.9063 0.3702 -0.2040
vn 0.9063 -0.3702 -0.2040
vn -0.6122 -0.3691 0.6993
vn -0.9063 0.3702 0.2040
vn -0.9063 -0.3702 0.2040
vn -0.6122 0.3691 0.6993
vn -0.1434 -0.3726 0.9168
vn -0.1434 0.3726 0.9168
vn -0.1434 -0.3726 -0.9168
vn 0.1434 0.3726 -0.9168
vn 0.1434 -0.3726 -0.9168
vn 0.1434 0.3726 0.9168
vn -0.6122 0.3691 -0.6993
vn -0.9063 -0.3702 -0.2040
vn -0.9063 0.3702 -0.2040
vn 0.9063 -0.3702 0.2040
vn 0.9063 0.3702 0.2040
vn 0.6122 -0.3691 0.6993
vn 0.1434 -0.3726 0.9168
vn 0.6122 0.3691 0.6993
vn 0.6122 0.3691 -0.6993
vn -0.6122 -0.3691 -0.6993
vn -0.1434 0.3726 -0.9168
vn -0.6813 0.7158 -0.1533
vn -0.1086 0.7114 0.6944
vn -0.4454 -0.7368 0.5087
vn 0.4454 -0.7368 0.5087
vn 0.1086 -0.7114 0.6944
vn 0.4454 -0.7368 -0.5087
vn 0.6813 -0.7158 -0.1533
vn -0.4454 -0.7368 -0.5087
vn -0.1086 -0.7114 -0.6944
vn -0.6813 -0.7158 0.1533
vn -0.6813 -0.7158 -0.1533
vn 0.1086 0.7114 -0.6944
vn -0.1086 0.7114 -0.6944
vn -0.4454 0.7368 -0.5087
vn 0.4454 0.7368 0.5087
vn 0.6813 0.7158 0.1533
vn 0.6813 0.7158 -0.1533
vn 0.4454 0.7368 -0.5087
vn 0.1086 -0.7114 -0.6944
vn -0.1086 -0.7114 0.6944
vn -0.4454 0.7368 0.5087
vn -0.0000 -1.0000 0.0000
vn 0.0000 1.0000 0.0000
vn -0.6813 0.7158 0.1533
vn 0.1086 0.7114 0.6944
vn 0.6813 -0.7158 0.1533
usemtl M_Interior
s 1
f 26/1/1 39/2/2 24/3/3
f 21/4/4 4/5/5 22/6/6
f 28/7/7 10/8/8 2/9/9
f 15/10/10 38/11/11 12/12/12
f 10/8/8 6/13/13 2/9/9
f 36/14/14 11/15/15 8/16/16
f 19/17/17 39/2/2 29/18/18
f 11/15/15 4/5/5 8/16/16
f 16/19/19 6/13/13 18/20/20
f 19/17/17 32/21/21 16/22/19
f 12/12/12 42/23/22 26/24/1
f 14/25/23 33/26/24 15/10/10
f 4/5/5 7/27/25 8/16/16
f 6/13/13 1/28/26 2/9/9
f 43/29/27 10/30/8 21/31/4
f 13/32/28 18/33/20 25/34/29
f 13/32/28 19/35/17 16/36/19
f 45/37/30 24/38/3 17/39/31
f 48/40/32 15/41/10 46/42/33
f 48/40/32 11/43/15 14/44/23
f 9/45/34 11/43/15 47/46/35
f 43/29/27 22/47/6 9/45/34
f 37/48/36 33/26/24 34/49/37
f 35/50/38 33/26/24 36/51/14
f 31/52/39 29/18/18 30/53/40
f 30/53/40 39/2/2 40/54/41
f 41/55/42 39/2/2 42/56/22
f 41/55/42 38/11/11 37/48/36
f 45/37/30 12/57/12 26/58/1
f 44/59/43 15/41/10 12/57/12
f 18/33/20 20/60/44 25/34/29
f 19/35/17 17/39/31 24/38/3
f 35/50/38 8/16/16 7/27/25
f 27/61/45 4/5/5 28/62/7
f 27/61/45 2/9/9 1/28/26
f 31/52/39 6/13/13 32/63/21
f 57/64/46 56/65/46 53/66/46
f 50/67/47 51/68/47 60/69/47
f 26/1/1 42/56/22 39/2/2
f 21/4/4 28/62/7 4/5/5
f 28/7/7 21/70/4 10/8/8
f 15/10/10 33/26/24 38/11/11
f 10/8/8 18/20/20 6/13/13
f 36/14/14 14/71/23 11/15/15
f 19/17/17 24/3/3 39/2/2
f 11/15/15 22/6/6 4/5/5
f 16/19/19 32/63/21 6/13/13
f 19/17/17 29/18/18 32/21/21
f 12/12/12 38/11/11 42/23/22
f 14/25/23 36/51/14 33/26/24
f 4/5/5 3/72/48 7/27/25
f 6/13/13 5/73/49 1/28/26
f 43/29/27 20/60/44 10/30/8
f 13/32/28 16/74/19 18/33/20
f 13/32/28 23/75/50 19/35/17
f 45/37/30 26/76/1 24/38/3
f 48/40/32 14/77/23 15/41/10
f 48/40/32 47/46/35 11/43/15
f 9/45/34 22/47/6 11/43/15
f 43/29/27 21/78/4 22/47/6
f 37/48/36 38/11/11 33/26/24
f 35/50/38 34/49/37 33/26/24
f 31/52/39 32/21/21 29/18/18
f 30/53/40 29/18/18 39/2/2
f 41/55/42 40/54/41 39/2/2
f 41/55/42 42/23/22 38/11/11
f 45/37/30 44/59/43 12/57/12
f 44/59/43 46/42/33 15/41/10
f 18/33/20 10/30/8 20/60/44
f 19/35/17 23/75/50 17/39/31
f 35/50/38 36/14/14 8/16/16
f 27/61/45 3/72/48 4/5/5
f 27/61/45 28/7/7 2/9/9
f 31/52/39 5/73/49 6/13/13
f 72/79/46 70/80/46 71/81/46
f 70/80/46 68/82/46 71/81/46
f 68/82/46 69/83/46 55/84/46
f 55/84/46 57/64/46 53/66/46
f 57/64/46 54/85/46 58/86/46
f 56/65/46 57/64/46 58/86/46
f 56/65/46 67/87/46 53/66/46
f 53/66/46 71/81/46 55/84/46
f 55/84/46 71/81/46 68/82/46
f 66/88/47 64/89/47 65/90/47
f 64/89/47 62/91/47 65/90/47
f 62/91/47 63/92/47 52/93/47
f 52/93/47 50/67/47 60/69/47
f 50/67/47 59/94/47 49/95/47
f 51/68/47 50/67/47 49/95/47
f 51/68/47 61/96/47 60/69/47
f 60/69/47 65/90/47 52/93/47
f 52/93/47 65/90/47 62/91/47
