# Blender v3.0.1 OBJ File: 'props.blend'
# www.blender.org
mtllib Closet03.mtl
o Closet03_LOD0_Closet03.001
v -0.705510 2.483926 0.692809
v -0.705510 0.138187 0.692810
v -0.746372 2.483926 0.692809
v 0.030516 2.443084 0.930227
v -0.746372 2.483926 0.692809
v -0.746372 2.483926 -0.055007
v -0.746372 0.138187 0.692810
v 0.682816 2.483926 -0.055006
v 0.682818 0.138184 -0.055006
v 0.682816 0.138187 0.692810
v 0.682816 2.483926 0.692809
v 0.723678 2.483926 0.692809
v 0.723681 2.483926 -0.055006
v 0.723681 0.138187 -0.055006
v -0.746372 0.138187 0.692810
v -0.746370 0.138184 -0.055006
v 0.723678 2.483926 0.692809
v 0.030516 0.179030 0.930228
v 0.030516 2.443084 0.930227
v 0.682815 2.443084 0.692810
v 0.682816 0.179030 0.692810
v 0.723678 0.138187 0.692810
v -0.705508 2.483926 -0.014142
v 0.682816 2.483926 -0.014142
v 0.682816 0.138187 -0.014141
v 0.682816 2.483926 -0.014144
v -0.705508 2.483926 -0.014144
v -0.705508 0.138187 -0.014141
v 0.668846 2.443084 0.654431
v 0.682816 0.179029 -0.014141
v 0.682816 0.179030 0.692810
v -0.705508 2.483926 -0.055007
v 0.682816 2.443084 -0.014141
v 0.682816 2.443084 0.692809
v -0.705508 2.443084 0.692809
v -0.705508 2.443084 -0.014142
v 0.682816 2.483926 -0.054996
v 0.682816 2.050742 0.034755
v -0.705508 2.050742 0.034755
v -0.705508 2.050742 0.571528
v 0.682816 2.009900 0.034755
v -0.705508 2.009900 0.571528
v -0.705508 2.009900 0.034755
v 0.682816 2.009900 0.571528
v 0.682816 2.050742 0.571528
v 0.682816 1.324157 0.034755
v -0.705508 1.324157 0.034755
v -0.705508 1.324157 0.571528
v 0.682816 1.283315 0.034755
v -0.705508 1.283315 0.571528
v -0.705508 1.283315 0.034755
v 0.682816 1.283315 0.571528
v 0.682816 1.324157 0.571528
v 0.623325 0.225680 0.156037
v -0.692481 0.668510 0.156037
v -0.692481 0.668510 0.692810
v 0.610297 0.186971 0.156037
v -0.705509 0.629801 0.156037
v 0.610297 0.186971 0.692810
v 0.623324 0.225680 0.692810
v -0.705509 0.629801 0.692810
v 0.682815 2.443084 0.692810
v 0.668846 2.443084 0.654431
v 0.016547 2.443084 0.891848
v 0.668846 0.179029 0.654431
v 0.668846 0.179029 0.654431
v -0.705508 0.179029 -0.014141
v 0.030516 2.443084 0.930227
v 0.016547 2.443084 0.891848
v 0.016547 0.179029 0.891849
v 0.030516 0.179030 0.930228
v -0.724412 0.044644 1.298167
v -0.770342 0.024239 1.313208
v -0.774951 0.000914 1.355049
v -0.841504 0.018769 1.409558
v -0.821861 0.018162 1.423871
v -0.858620 0.045567 1.429308
v -0.754965 0.045567 1.287815
v -0.749642 0.045423 1.279783
v -0.751161 0.023646 1.327183
v -0.748986 0.018162 1.324393
v -0.775555 0.007333 1.356166
v -0.799586 0.007333 1.388969
v -0.819857 0.023646 1.420956
v -0.768629 0.018769 1.310080
v -0.816452 0.001408 1.378236
v -0.864674 0.045423 1.436807
v -0.839443 0.044644 1.455191
v -0.790934 0.001408 1.343403
v -0.800469 0.000914 1.389882
v -0.730459 0.044810 1.305671
v -0.791481 0.007824 1.344562
v -0.815512 0.007825 1.377365
v -0.839037 0.024239 1.406980
v -0.834113 0.044810 1.447165
v -0.314204 0.045434 1.849069
v -0.359341 0.045940 1.897051
v -0.314204 0.045434 1.849069
v -0.330727 0.047145 1.825501
v -0.290125 0.048512 1.733239
v -0.292834 0.007775 1.731266
v -0.102790 0.005266 1.539459
v -0.292834 0.007775 1.731266
v -0.300084 0.050387 1.696295
v -0.302792 0.009650 1.694322
v -0.316912 0.004696 1.847096
v -0.333435 0.006408 1.823527
v -0.356926 0.001823 1.979163
v -0.354218 0.042560 1.981137
v -0.359341 0.045940 1.897051
v -0.290125 0.048512 1.733239
v -0.100082 0.046004 1.541433
v -0.100082 0.046004 1.541433
v -0.078894 0.047191 1.480498
v -0.029776 0.045115 1.469404
v -0.032485 0.004378 1.467431
v -0.081602 0.006454 1.478525
v -0.102790 0.005266 1.539459
v -0.316912 0.004696 1.847096
v -0.362049 0.005202 1.895078
v -0.356926 0.001823 1.979163
v -0.354218 0.042560 1.981137
v -0.314204 0.045434 1.849069
v -0.330727 0.047145 1.825501
v -0.770342 0.024239 1.313208
v -0.858620 0.045567 1.429308
v -0.754965 0.045567 1.287815
v -0.751161 0.023646 1.327183
v -0.775555 0.007333 1.356166
v -0.799586 0.007333 1.388969
v -0.819857 0.023646 1.420956
v -0.730459 0.044810 1.305671
v -0.791481 0.007824 1.344562
v -0.815512 0.007825 1.377365
v -0.839037 0.024239 1.406980
v -0.834113 0.044810 1.447165
v -0.724412 0.044644 1.298167
v -0.774951 0.000914 1.355049
v -0.841504 0.018769 1.409558
v -0.821861 0.018162 1.423871
v -0.749642 0.045423 1.279783
v -0.748986 0.018162 1.324393
v -0.768629 0.018769 1.310080
v -0.816452 0.001408 1.378236
v -0.864674 0.045423 1.436807
v -0.839443 0.044644 1.455191
v -0.790934 0.001408 1.343403
v -0.800469 0.000914 1.389882
v -0.290125 0.048512 1.733239
v -0.721512 0.035735 1.562847
v -0.674768 0.071047 1.650926
v -0.781303 0.074832 1.694349
v -0.718803 0.076472 1.564821
v -0.679365 0.030521 1.645840
v -0.100082 0.046004 1.541433
v -0.078894 0.047191 1.480498
v -0.029776 0.045115 1.469404
v 0.063254 0.001823 1.405596
v 0.065962 0.042560 1.407569
v -0.032485 0.004378 1.467431
v -0.029776 0.045115 1.469404
v -0.937533 0.042560 2.777393
v -0.240073 0.092319 0.484242
v -0.709234 0.031736 1.653882
v -0.706525 0.072473 1.655855
v -0.776298 0.034167 1.679901
v -0.795754 0.079346 1.592426
v -0.709234 0.031736 1.653882
v -0.663340 0.031968 1.584963
v -0.793391 0.037858 1.603741
v -0.660631 0.072706 1.586937
v -0.706525 0.072473 1.655855
v 0.397753 0.001823 0.948988
v -0.718803 0.076472 1.564821
v 0.400461 0.042561 0.950962
v -0.676422 0.138187 0.622859
v -0.628823 0.138187 0.622859
v -0.676422 0.138187 0.575261
v -0.628823 0.138187 0.575261
v -0.666528 0.000914 0.612966
v -0.638717 0.000914 0.612966
v -0.666528 0.000914 0.585154
v -0.638717 0.000914 0.585154
v -0.676422 0.138187 0.049130
v -0.628823 0.138187 0.049130
v -0.676422 0.138187 0.001532
v -0.628823 0.138187 0.001532
v -0.666528 0.000914 0.039237
v -0.638717 0.000914 0.039237
v -0.666528 0.000914 0.011425
v -0.638717 0.000914 0.011425
v 0.606162 0.138187 0.622860
v 0.653761 0.138187 0.622860
v 0.606162 0.138187 0.575261
v 0.653761 0.138187 0.575261
v 0.616055 0.000914 0.612966
v 0.643867 0.000914 0.612966
v 0.616055 0.000914 0.585154
v 0.643867 0.000914 0.585154
v 0.606162 0.138187 0.049131
v 0.653761 0.138187 0.049131
v 0.606162 0.138187 0.001532
v 0.653761 0.138187 0.001532
v 0.616055 0.000914 0.039237
v 0.643867 0.000914 0.039237
v 0.616055 0.000914 0.011425
v 0.643867 0.000914 0.011425
v -0.705508 2.483926 0.692809
v 0.682816 2.483926 0.692809
v -0.705508 0.179030 0.692810
v 0.682816 0.179030 0.692810
v 0.016547 0.179029 0.891849
v 0.723681 0.138187 -0.055006
v 0.723681 0.138187 0.692800
v -0.746372 0.138187 0.692810
v -0.746372 0.138187 -0.054996
v -1.578067 0.092319 2.310673
v -0.300084 0.050387 1.696295
v -0.706525 0.072473 1.655855
v -0.781303 0.074832 1.694349
v -0.674768 0.071047 1.650926
v -0.795754 0.079346 1.592426
v -0.660631 0.072706 1.586937
v -0.242782 0.051581 0.482269
v 0.063254 0.001823 1.405596
v 0.065962 0.042560 1.407569
v -1.580776 0.051581 2.308700
v -0.940242 0.001823 2.775419
v -0.705508 0.138187 -0.055006
v -0.705508 2.483926 -0.055007
v -0.705510 2.483926 0.692809
v -0.705510 0.138187 0.692810
v 0.016547 2.443084 0.891848
v 0.016547 0.179029 0.891849
v 0.030516 0.179030 0.930228
v -0.705508 2.483926 0.692809
v 0.682816 2.443084 0.692809
v 0.682816 2.483926 0.692809
v -0.705508 2.443084 0.692809
v -0.705508 2.050742 0.571528
v -0.705508 2.009900 0.571528
v 0.682816 2.009900 0.571528
v 0.682816 2.050742 0.571528
v -0.705508 1.324157 0.571528
v -0.705508 1.283315 0.571528
v 0.682816 1.283315 0.571528
v 0.682816 1.324157 0.571528
v -0.692481 0.668510 0.692810
v 0.610297 0.186971 0.692810
v 0.623324 0.225680 0.692810
v -0.705509 0.629801 0.692810
v 0.682816 0.138187 0.692810
v -0.705508 0.138187 0.692810
v -0.705508 0.179030 0.692810
v 0.682816 0.179030 0.692810
v 0.723678 2.483926 0.692809
v 0.682816 0.138187 0.692810
v 0.682816 2.483926 0.692809
v 0.723678 0.138187 0.692810
v 0.723681 2.483926 -0.055006
v 0.682816 2.483926 0.692809
v 0.682816 2.483926 -0.055006
v -0.705510 2.483926 0.692809
v -0.746372 2.483926 0.692809
v -0.746372 2.483926 -0.055007
v -0.705508 2.483926 -0.055007
vt 0.425193 0.750734
vt 0.425193 0.819240
vt 0.403354 0.819240
vt 0.403354 0.750734
vt 0.425193 0.818047
vt 0.445466 0.751927
vt 0.445466 0.818047
vt 0.425193 0.751927
vt 0.291164 0.819240
vt 0.291164 0.750734
vt 0.331709 0.750734
vt 0.331709 0.819240
vt 0.478011 0.887747
vt 0.498657 0.887746
vt 0.498657 0.928292
vt 0.478011 0.928292
vt 0.462335 0.887747
vt 0.478011 0.887747
vt 0.478011 0.928292
vt 0.462335 0.928292
vt 0.445466 0.887747
vt 0.461142 0.887747
vt 0.461142 0.928292
vt 0.445466 0.928292
vt 0.278621 0.932659
vt 0.294298 0.932659
vt 0.294298 0.973204
vt 0.278621 0.973204
vt 0.261752 0.932659
vt 0.277429 0.932659
vt 0.277429 0.973204
vt 0.261752 0.973204
vt 0.316033 0.892949
vt 0.331709 0.892949
vt 0.331709 0.933494
vt 0.316033 0.933494
vt 0.299164 0.892949
vt 0.314840 0.892949
vt 0.314840 0.933494
vt 0.299164 0.933494
vt 0.425193 0.751927
vt 0.425193 0.750734
vt 0.445466 0.750734
vt 0.445466 0.751927
vt 0.445466 0.751927
vt 0.446659 0.818048
vt 0.445466 0.818047
vt 0.446659 0.751927
vt 0.400967 0.996799
vt 0.380321 0.956254
vt 0.400967 0.956254
vt 0.380321 0.996799
vt 0.403354 0.953867
vt 0.404546 0.994412
vt 0.403354 0.994412
vt 0.404546 0.953867
vt 0.301236 0.851428
vt 0.302016 0.852193
vt 0.302011 0.852475
vt 0.491622 0.760112
vt 0.490840 0.759347
vt 0.491000 0.759243
vt 0.490522 0.756951
vt 0.490334 0.758175
vt 0.490334 0.756914
vt 0.300918 0.849032
vt 0.301236 0.847823
vt 0.301396 0.847926
vt 0.490840 0.755742
vt 0.300731 0.850256
vt 0.300918 0.850219
vt 0.302016 0.847057
vt 0.491622 0.754976
vt 0.491617 0.754694
vt 0.490522 0.758138
vt 0.484482 0.753308
vt 0.483842 0.752035
vt 0.484553 0.752034
vt 0.484482 0.754569
vt 0.483842 0.755846
vt 0.483904 0.754571
vt 0.484552 0.755844
vt 0.483747 0.757145
vt 0.483905 0.753310
vt 0.483747 0.750736
vt 0.496502 0.758816
vt 0.495309 0.755495
vt 0.496502 0.755487
vt 0.485957 0.757322
vt 0.487136 0.755435
vt 0.487151 0.757319
vt 0.494049 0.758445
vt 0.492864 0.759277
vt 0.492855 0.758435
vt 0.488229 0.754166
vt 0.485773 0.752988
vt 0.488236 0.752972
vt 0.481261 0.750735
vt 0.482427 0.758121
vt 0.481233 0.758124
vt 0.481252 0.759242
vt 0.494062 0.755500
vt 0.492868 0.755491
vt 0.490159 0.752988
vt 0.487136 0.758791
vt 0.494622 0.750958
vt 0.495808 0.751534
vt 0.494621 0.751534
vt 0.497011 0.751589
vt 0.495810 0.750958
vt 0.497012 0.750895
vt 0.492354 0.751680
vt 0.493419 0.750896
vt 0.493418 0.751589
vt 0.498074 0.751680
vt 0.291729 0.821219
vt 0.292709 0.823926
vt 0.291486 0.824218
vt 0.293865 0.829891
vt 0.293010 0.831109
vt 0.292710 0.830219
vt 0.292320 0.828344
vt 0.293487 0.828091
vt 0.291967 0.826558
vt 0.293134 0.826305
vt 0.292921 0.821654
vt 0.293186 0.819240
vt 0.294148 0.819947
vt 0.298386 0.867707
vt 0.294694 0.869642
vt 0.294397 0.868284
vt 0.298559 0.870783
vt 0.294397 0.871000
vt 0.294694 0.869642
vt 0.298386 0.873196
vt 0.294694 0.875131
vt 0.294397 0.873773
vt 0.298327 0.872386
vt 0.294298 0.872386
vt 0.298559 0.865294
vt 0.294397 0.865511
vt 0.294694 0.864153
vt 0.298386 0.878685
vt 0.294694 0.880620
vt 0.294397 0.879262
vt 0.298327 0.877875
vt 0.294298 0.877875
vt 0.298386 0.877065
vt 0.294397 0.876489
vt 0.294694 0.875131
vt 0.298327 0.866897
vt 0.294298 0.866897
vt 0.297983 0.855613
vt 0.294292 0.857547
vt 0.293995 0.856189
vt 0.297925 0.854803
vt 0.293895 0.854803
vt 0.297983 0.853992
vt 0.293995 0.853416
vt 0.294292 0.852058
vt 0.380321 0.820434
vt 0.380321 0.751928
vt 0.402160 0.751928
vt 0.402160 0.820434
vt 0.402160 0.751928
vt 0.380321 0.750734
vt 0.402160 0.750734
vt 0.380321 0.751928
vt 0.380321 0.825636
vt 0.380321 0.894142
vt 0.358481 0.894142
vt 0.358481 0.825636
vt 0.357288 0.894142
vt 0.357288 0.825636
vt 0.358481 0.825636
vt 0.358481 0.894142
vt 0.425193 0.953867
vt 0.426386 0.953867
vt 0.426386 0.994412
vt 0.425193 0.994412
vt 0.404546 0.953867
vt 0.404546 0.994412
vt 0.425193 0.818047
vt 0.445466 0.819240
vt 0.425193 0.819240
vt 0.445466 0.818047
vt 0.380321 0.956254
vt 0.380321 0.890133
vt 0.400593 0.890133
vt 0.400593 0.956254
vt 0.375873 0.977620
vt 0.354033 0.977620
vt 0.354033 0.934688
vt 0.375873 0.934688
vt 0.356094 0.818108
vt 0.357288 0.751987
vt 0.357288 0.818109
vt 0.331709 0.789223
vt 0.332903 0.818049
vt 0.331709 0.818049
vt 0.332903 0.789223
vt 0.334478 0.787330
vt 0.334242 0.785421
vt 0.335040 0.785150
vt 0.335677 0.782276
vt 0.332903 0.751928
vt 0.356094 0.751987
vt 0.332903 0.768458
vt 0.334094 0.771567
vt 0.335061 0.772676
vt 0.334508 0.774477
vt 0.336551 0.781578
vt 0.350048 0.787685
vt 0.348708 0.785707
vt 0.346953 0.785224
vt 0.346180 0.786975
vt 0.347944 0.789837
vt 0.332929 0.750734
vt 0.356120 0.750793
vt 0.331709 0.751928
vt 0.331709 0.768458
vt 0.332923 0.819243
vt 0.356114 0.819302
vt 0.250618 0.932659
vt 0.250618 0.864153
vt 0.272458 0.864153
vt 0.272458 0.932659
vt 0.461142 0.887747
vt 0.462335 0.887747
vt 0.462335 0.928292
vt 0.461142 0.928292
vt 0.277429 0.932659
vt 0.278621 0.932659
vt 0.278621 0.973204
vt 0.277429 0.973204
vt 0.314840 0.892949
vt 0.316033 0.892949
vt 0.316033 0.933494
vt 0.314840 0.933494
vt 0.402160 0.996799
vt 0.400967 0.996799
vt 0.400967 0.956254
vt 0.402160 0.956254
vt 0.402160 0.820434
vt 0.402160 0.751928
vt 0.403354 0.751928
vt 0.403354 0.820434
vt 0.358481 0.824443
vt 0.380321 0.824443
vt 0.380321 0.825636
vt 0.358481 0.825636
vt 0.301396 0.851324
vt 0.491617 0.760393
vt 0.300731 0.848995
vt 0.491000 0.755845
vt 0.302011 0.846775
vt 0.484659 0.757143
vt 0.484659 0.750734
vt 0.495309 0.758825
vt 0.485942 0.755438
vt 0.494058 0.759287
vt 0.485767 0.754182
vt 0.482454 0.750733
vt 0.482446 0.759240
vt 0.490153 0.754182
vt 0.485942 0.758794
vt 0.492356 0.750795
vt 0.498076 0.750795
vt 0.294148 0.830749
vt 0.298559 0.868501
vt 0.298386 0.871576
vt 0.298559 0.873990
vt 0.298386 0.866087
vt 0.298559 0.879479
vt 0.298559 0.876272
vt 0.298157 0.856406
vt 0.298157 0.853199
vt 0.346844 0.787640
vn -1.0000 -0.0000 -0.0000
vn 0.3420 0.0000 0.9397
vn -0.0000 0.0000 1.0000
vn 0.0000 -1.0000 -0.0000
vn 0.0000 1.0000 0.0000
vn 0.3190 0.9478 -0.0000
vn -0.3190 -0.9478 0.0000
vn -0.9397 0.0000 0.3420
vn -0.8334 -0.0334 -0.5517
vn 0.8615 -0.0460 0.5057
vn 0.8064 -0.0269 0.5908
vn -0.7694 0.0467 -0.6371
vn 0.7728 -0.0375 0.6335
vn -0.8061 0.0380 -0.5905
vn -0.8372 0.0273 -0.5462
vn -0.7425 0.0193 -0.6696
vn 0.7738 -0.0984 0.6257
vn 0.8370 -0.0375 0.5458
vn 0.2151 -0.9177 -0.3341
vn -0.2521 -0.9177 0.3070
vn -0.2521 -0.9177 0.3071
vn -0.3680 -0.8016 0.4712
vn -0.0202 -0.9997 -0.0148
vn 0.3358 -0.8015 -0.4948
vn 0.5395 -0.0765 0.8385
vn 0.9421 -0.0784 0.3261
vn 0.8176 -0.0265 -0.5751
vn 0.9960 -0.0632 -0.0632
vn 0.6092 -0.0787 0.7891
vn 0.9636 -0.0514 -0.2624
vn 0.9636 -0.0513 -0.2624
vn 0.9636 -0.0513 -0.2623
vn 0.9128 -0.0801 0.4005
vn 0.7255 -0.0813 0.6834
vn 0.2174 -0.0616 0.9741
vn 0.0201 0.9997 0.0147
vn -0.2156 0.9173 0.3348
vn 0.3600 0.8118 -0.4597
vn 0.2526 0.9173 -0.3078
vn -0.3273 0.8118 0.4836
vn 0.9900 0.0183 -0.1396
vn -0.1458 0.1395 -0.9794
vn -0.9647 0.0764 -0.2521
vn -0.3565 -0.0216 0.9340
vn 0.3346 -0.0678 0.9399
vn -0.3587 0.0689 -0.9309
vn 0.0000 -0.0719 -0.9974
vn -0.9974 -0.0719 0.0000
vn 0.9974 -0.0719 0.0000
vn 0.0000 -0.0719 0.9974
vn 1.0000 0.0000 0.0000
vn -0.3420 -0.0000 -0.9397
vn -0.8040 0.0820 -0.5890
vn 0.8040 -0.0820 0.5890
vn 0.0505 0.9980 0.0370
vn 0.0506 0.9980 0.0370
vn 0.5889 0.0000 -0.8082
vn -0.5889 0.0000 0.8082
vn -0.8623 0.0193 -0.5060
vn 0.8299 -0.0984 0.5491
vn -0.7732 0.0273 -0.6336
vn 0.7702 -0.0189 0.6376
vn -0.8394 0.0467 -0.5415
vn -0.7773 -0.0335 -0.6282
vn 0.7420 -0.0460 0.6688
vn 0.8401 -0.0189 0.5420
vn -0.2157 0.9173 0.3348
vn 0.9596 0.1913 -0.2061
vn -0.2570 0.0638 -0.9643
vn -0.9681 0.1362 -0.2104
vn -0.3565 -0.0215 0.9340
vn 0.4837 0.2558 0.8370
vn -0.4365 0.2530 -0.8634
usemtl M_Interior
s 1
f 8/1/1 9/2/1 10/3/1
f 8/1/1 10/3/1 11/4/1
f 21/5/2 19/6/2 18/7/2
f 21/5/2 20/8/2 19/6/2
f 25/9/3 26/10/3 27/11/3
f 25/9/3 27/11/3 28/12/3
f 33/13/4 34/14/4 35/15/4
f 33/13/4 35/15/4 36/16/4
f 45/17/5 38/18/5 39/19/5
f 45/17/5 39/19/5 40/20/5
f 41/21/4 44/22/4 42/23/4
f 41/21/4 42/23/4 43/24/4
f 53/25/5 46/26/5 47/27/5
f 53/25/5 47/27/5 48/28/5
f 49/29/4 52/30/4 50/31/4
f 49/29/4 50/31/4 51/32/4
f 60/33/6 54/34/6 55/35/6
f 60/33/6 55/35/6 56/36/6
f 57/37/7 59/38/7 61/39/7
f 57/37/7 61/39/7 58/40/7
f 62/41/5 63/42/5 69/43/5
f 62/41/5 69/43/5 68/44/5
f 4/45/8 234/46/8 235/47/8
f 4/45/8 233/48/8 234/46/8
f 211/49/5 67/50/5 210/51/5
f 211/49/5 30/52/5 67/50/5
f 237/53/3 236/54/3 239/55/3
f 237/53/3 238/56/3 236/54/3
f 85/57/9 78/58/9 79/59/9
f 95/60/10 76/61/10 84/62/10
f 82/63/11 90/64/11 74/65/11
f 93/66/12 75/67/12 94/68/12
f 81/69/13 82/63/13 74/65/13
f 89/70/14 93/66/14 92/71/14
f 92/71/15 85/57/15 89/70/15
f 75/67/16 77/72/16 94/68/16
f 91/73/17 81/69/17 72/74/17
f 83/75/18 76/61/18 90/64/18
f 138/76/19 143/77/19 142/78/19
f 148/79/20 139/80/21 144/81/20
f 140/82/22 145/83/22 139/80/22
f 148/79/23 147/84/23 138/76/23
f 141/85/24 142/78/24 143/77/24
f 158/86/25 161/87/25 160/88/25
f 114/89/26 118/90/26 117/91/26
f 99/92/27 106/93/27 107/94/27
f 97/95/28 121/96/28 120/97/28
f 102/98/29 104/99/29 105/100/29
f 104/99/30 103/101/31 105/100/32
f 100/102/33 107/94/33 101/103/33
f 119/104/34 97/95/34 120/97/34
f 116/105/35 114/89/35 117/91/35
f 130/106/36 133/107/36 134/108/36
f 125/109/37 129/110/37 128/111/37
f 126/112/38 131/113/38 135/114/38
f 130/106/39 135/114/39 131/113/39
f 128/111/40 127/115/40 125/109/40
f 152/116/41 170/117/41 167/118/41
f 154/119/42 172/120/42 151/121/42
f 154/119/43 171/122/43 169/123/43
f 153/124/44 169/123/44 171/122/44
f 167/118/45 150/125/45 153/124/45
f 166/126/46 165/127/46 164/128/46
f 199/129/47 194/130/47 195/131/47
f 182/132/48 176/133/48 178/134/48
f 183/135/47 178/136/47 179/137/47
f 181/138/49 179/137/49 177/139/49
f 176/133/50 181/138/50 177/139/50
f 198/140/48 192/141/48 194/142/48
f 190/143/48 184/144/48 186/145/48
f 191/146/47 186/145/47 187/147/47
f 189/148/49 187/147/49 185/149/49
f 184/150/50 189/148/50 185/149/50
f 197/151/49 195/131/49 193/152/49
f 192/141/50 197/151/50 193/152/50
f 206/153/48 200/154/48 202/155/48
f 207/156/47 202/155/47 203/157/47
f 205/158/49 203/157/49 201/159/49
f 200/160/50 205/158/50 201/159/50
f 14/161/51 13/162/51 12/163/51
f 14/161/51 12/163/51 22/164/51
f 17/165/5 262/166/5 261/167/5
f 17/165/5 260/168/5 262/166/5
f 6/169/1 16/170/1 7/171/1
f 6/169/1 7/171/1 5/172/1
f 2/173/3 1/174/3 3/175/3
f 2/173/3 3/175/3 15/176/3
f 24/177/5 37/178/5 32/179/5
f 24/177/5 32/179/5 23/180/5
f 209/181/5 24/177/5 23/180/5
f 209/181/5 23/180/5 208/182/5
f 31/183/4 70/184/4 65/185/4
f 31/183/4 71/186/4 70/184/4
f 29/187/52 66/188/52 212/189/52
f 29/187/52 212/189/52 64/190/52
f 213/191/4 214/192/4 215/193/4
f 213/191/4 215/193/4 216/194/4
f 217/195/53 224/196/53 227/197/53
f 108/198/54 162/199/54 228/200/54
f 162/199/55 109/201/55 217/195/55
f 217/195/55 109/201/55 110/202/55
f 217/195/55 110/202/55 123/203/55
f 217/195/55 123/203/55 124/204/55
f 217/195/55 124/204/55 149/205/55
f 175/206/55 163/207/55 226/208/55
f 226/208/55 163/207/55 157/209/55
f 157/209/55 163/207/55 156/210/56
f 156/210/56 163/207/55 155/211/55
f 155/211/55 163/207/55 218/212/55
f 222/213/55 174/214/55 163/207/55
f 223/215/55 218/212/55 163/207/55
f 221/216/55 220/217/55 217/195/55
f 220/217/55 222/213/55 217/195/55
f 217/195/55 222/213/55 163/207/55
f 218/212/55 221/216/55 217/195/55
f 218/212/55 217/195/55 149/205/55
f 163/207/57 173/218/57 224/219/57
f 173/220/54 226/208/54 225/221/54
f 174/214/55 223/215/55 163/207/55
f 228/222/58 217/195/58 227/223/58
f 229/224/51 230/225/51 231/226/51
f 229/224/51 231/226/51 232/227/51
f 242/228/3 243/229/3 240/230/3
f 242/228/3 240/230/3 241/231/3
f 246/232/3 247/233/3 244/234/3
f 246/232/3 244/234/3 245/235/3
f 249/236/3 250/237/3 248/238/3
f 249/236/3 248/238/3 251/239/3
f 252/240/3 255/241/3 254/242/3
f 252/240/3 254/242/3 253/243/3
f 259/244/3 256/245/3 258/246/3
f 259/244/3 258/246/3 257/247/3
f 263/248/5 266/249/5 265/250/5
f 263/248/5 265/250/5 264/251/5
f 85/57/59 73/252/59 78/58/59
f 95/60/60 88/253/60 76/61/60
f 82/63/11 83/75/11 90/64/11
f 93/66/61 86/254/61 75/67/61
f 81/69/62 80/255/62 82/63/62
f 89/70/14 86/254/14 93/66/14
f 92/71/63 73/252/63 85/57/63
f 75/67/64 87/256/64 77/72/64
f 91/73/65 80/255/65 81/69/65
f 83/75/66 84/62/66 76/61/66
f 138/76/19 147/84/19 143/77/19
f 148/79/20 140/82/21 139/80/21
f 140/82/22 146/257/22 145/83/22
f 148/79/23 144/81/23 147/84/23
f 141/85/24 137/258/24 142/78/24
f 158/86/25 159/259/25 161/87/25
f 114/89/26 113/260/26 118/90/26
f 99/92/27 96/261/27 106/93/27
f 97/95/28 122/262/28 121/96/28
f 102/98/29 112/263/29 104/99/29
f 104/99/30 111/264/30 103/101/31
f 100/102/33 99/92/33 107/94/33
f 119/104/34 98/265/34 97/95/34
f 116/105/35 115/266/35 114/89/35
f 130/106/36 129/110/36 133/107/36
f 125/109/37 133/107/67 129/110/37
f 126/112/38 136/267/38 131/113/38
f 130/106/39 134/108/39 135/114/39
f 128/111/40 132/268/40 127/115/40
f 152/116/68 166/126/68 170/117/68
f 154/119/69 168/269/69 172/120/69
f 154/119/70 151/121/70 171/122/70
f 153/124/71 150/125/71 169/123/71
f 167/118/72 170/117/72 150/125/72
f 166/126/73 152/116/73 165/127/73
f 199/129/47 198/270/47 194/130/47
f 182/132/48 180/271/48 176/133/48
f 183/135/47 182/272/47 178/136/47
f 181/138/49 183/135/49 179/137/49
f 176/133/50 180/271/50 181/138/50
f 198/140/48 196/273/48 192/141/48
f 190/143/48 188/274/48 184/144/48
f 191/146/47 190/143/47 186/145/47
f 189/148/49 191/146/49 187/147/49
f 184/150/50 188/275/50 189/148/50
f 197/151/49 199/129/49 195/131/49
f 192/141/50 196/273/50 197/151/50
f 206/153/48 204/276/48 200/154/48
f 207/156/47 206/153/47 202/155/47
f 205/158/49 207/156/49 203/157/49
f 200/160/50 204/277/50 205/158/50
f 217/195/53 163/207/53 224/196/53
f 108/198/54 109/201/54 162/199/54
f 223/215/55 221/216/55 218/212/55
f 221/216/55 219/278/55 220/217/55
f 163/207/57 175/206/57 173/218/57
f 173/220/54 175/206/54 226/208/54
f 228/222/58 162/199/58 217/195/58
