# Blender v3.0.1 OBJ File: 'props.blend'
# www.blender.org
mtllib Closet04.mtl
o Closet04_LOD0_Closet04.001
v -0.699587 0.135994 0.694682
v -0.699587 -0.001280 0.694683
v -0.699585 -0.001280 -0.053133
v -0.699585 0.135994 -0.053134
v -0.699585 0.135993 -0.053123
v 0.688739 -0.001280 0.694683
v 0.688739 0.135994 0.694682
v -0.699585 0.135994 0.694683
v -0.699585 0.135994 0.694683
v -0.740450 -0.001280 0.694683
v -0.699585 2.481732 -0.053134
v -0.699587 -0.001280 0.694683
v -0.699587 2.481732 0.694682
v -0.740450 2.481732 0.694682
v 0.688739 2.481732 -0.053124
v 0.688739 2.481732 -0.012271
v 0.688739 2.440890 0.583224
v 0.687463 0.176836 0.653157
v 0.687463 2.440890 0.653156
v -0.006611 2.440890 0.642121
v -0.006611 0.176836 0.642122
v -0.124710 1.488227 0.629802
v -0.125097 1.497853 0.629969
v -0.100451 1.458650 0.650325
v -0.100032 1.462186 0.655794
v -0.101708 1.420861 0.666741
v -0.118758 1.422119 0.673687
v -0.101482 1.378940 0.673158
v -0.101708 1.380198 0.666741
v -0.100032 1.338872 0.655794
v -0.121264 1.338872 0.656443
v -0.097825 1.303205 0.629135
v -0.098221 1.312831 0.628992
v -0.125097 1.303205 0.629969
v -0.098221 1.488227 0.628992
v -0.097825 1.497853 0.629135
v -0.121182 1.458650 0.650959
v -0.121264 1.462186 0.656443
v -0.118922 1.420861 0.667268
v -0.101482 1.422119 0.673158
v -0.118922 1.380198 0.667268
v -0.118758 1.378940 0.673687
v -0.100451 1.342409 0.650325
v -0.121182 1.342409 0.650959
v -0.124710 1.312831 0.629802
v 0.688739 0.135994 0.694683
v 0.688739 0.135994 -0.053133
v 0.688742 -0.001282 -0.053133
v 0.688739 0.135993 -0.053123
v 0.688739 2.440890 0.694682
v -0.699585 2.440890 0.583224
v 0.073281 1.488227 0.644486
v 0.072894 1.497853 0.644653
v 0.097539 1.458650 0.665009
v 0.097958 1.462186 0.670478
v 0.096282 1.420861 0.681426
v 0.079232 1.422119 0.688371
v 0.096509 1.378940 0.687842
v 0.096282 1.380198 0.681426
v 0.097958 1.338872 0.670478
v 0.076727 1.338872 0.671127
v 0.100165 1.303205 0.643819
v 0.099770 1.312831 0.643676
v 0.072894 1.303205 0.644653
v 0.099770 1.488227 0.643676
v 0.100165 1.497853 0.643819
v 0.076808 1.458650 0.665643
v 0.076726 1.462186 0.671127
v 0.079069 1.420861 0.681952
v 0.096509 1.422119 0.687842
v 0.079069 1.380198 0.681952
v 0.079232 1.378940 0.688371
v 0.097539 1.342409 0.665009
v 0.076808 1.342409 0.665643
v 0.073281 1.312831 0.644486
v -0.125097 1.497853 0.629969
v -0.100032 1.462186 0.655794
v -0.118758 1.422119 0.673687
v -0.101482 1.378940 0.673158
v -0.100032 1.338872 0.655794
v -0.121264 1.338872 0.656443
v -0.097825 1.303205 0.629135
v -0.125097 1.303205 0.629969
v -0.097825 1.497853 0.629135
v -0.121264 1.462186 0.656443
v -0.101482 1.422119 0.673158
v -0.118758 1.378940 0.673687
v 0.072894 1.497853 0.644653
v 0.097958 1.462186 0.670478
v 0.079232 1.422119 0.688371
v 0.096509 1.378940 0.687842
v 0.097958 1.338872 0.670478
v 0.076727 1.338872 0.671127
v 0.100165 1.303205 0.643819
v 0.072894 1.303205 0.644653
v 0.100165 1.497853 0.643819
v 0.076726 1.462186 0.671127
v 0.096509 1.422119 0.687842
v 0.079232 1.378940 0.688371
v -0.124710 1.488227 0.629802
v -0.100451 1.458650 0.650325
v -0.101708 1.420861 0.666741
v -0.101708 1.380198 0.666741
v -0.098221 1.312831 0.628992
v -0.098221 1.488227 0.628992
v -0.121182 1.458650 0.650959
v -0.118922 1.420861 0.667268
v -0.118922 1.380198 0.667268
v -0.100451 1.342409 0.650325
v -0.121182 1.342409 0.650959
v -0.124710 1.312831 0.629802
v 0.073281 1.488227 0.644486
v 0.097539 1.458650 0.665009
v 0.096282 1.420861 0.681426
v 0.096282 1.380198 0.681426
v 0.099770 1.312831 0.643676
v 0.099770 1.488227 0.643676
v 0.076808 1.458650 0.665643
v 0.079069 1.420861 0.681952
v 0.079069 1.380198 0.681952
v 0.097539 1.342409 0.665009
v 0.076808 1.342409 0.665643
v 0.073281 1.312831 0.644486
v -0.700206 2.440890 0.653988
v -0.006586 2.440890 0.626573
v -0.006585 0.176837 0.626573
v -0.700206 0.176837 0.653988
v 0.688739 2.481732 0.583224
v 0.688742 0.176834 0.583225
v 0.688739 0.176836 0.694683
v 0.688739 2.481732 0.694682
v -0.699585 0.176836 0.583225
v -0.699585 2.481732 0.583224
v -0.699587 2.481732 0.694682
v -0.699587 0.176836 0.694683
v -0.699585 0.176836 0.694683
v 0.688739 0.176836 0.694683
v 0.688739 0.176836 0.583225
v -0.699585 0.176836 0.583225
v -0.699586 2.440890 0.694682
v 0.688738 2.481732 0.694682
v -0.699585 2.481732 0.694682
v -0.699585 2.481732 -0.012269
v 0.729601 2.481732 0.694682
v 0.729601 -0.001280 0.694683
v 0.688739 2.481732 0.694682
v 0.688739 -0.001280 0.694683
v 0.688739 2.440890 0.694682
v -0.699586 2.440890 0.694682
v 0.688738 2.481732 0.694682
v -0.699585 2.481732 0.694682
v 0.688739 0.135994 0.694683
v -0.699585 0.176836 0.694683
v 0.688739 0.176836 0.694683
v -0.006611 2.440890 0.642121
v -0.005962 2.440890 0.601284
v -0.005962 0.176836 0.601285
v -0.006611 0.176836 0.642122
v 0.729601 2.481732 0.694682
v 0.729604 2.481732 -0.053133
v 0.688739 2.481732 -0.053133
v 0.688739 2.481732 0.694682
v -0.699585 2.481732 -0.053134
v -0.740449 2.481732 -0.053134
v -0.699587 2.481732 0.694682
v -0.740450 2.481732 0.694682
v 0.729604 -0.001280 -0.053133
v 0.729601 2.481732 0.694682
v 0.729601 -0.001280 0.694683
v 0.729604 2.481732 -0.053133
v -0.740447 -0.001282 -0.053133
v -0.740450 -0.001280 0.694683
v -0.740449 2.481732 -0.053134
v -0.740450 2.481732 0.694682
vt 0.305421 0.819240
vt 0.302166 0.886554
vt 0.302166 0.819240
vt 0.423626 0.887747
vt 0.403354 0.953867
vt 0.403354 0.887747
vt 0.308676 0.819240
vt 0.305421 0.886554
vt 0.305421 0.819240
vt 0.358481 0.824443
vt 0.357288 0.751928
vt 0.358481 0.751928
vt 0.301235 0.845730
vt 0.302016 0.846494
vt 0.302011 0.846775
vt 0.498063 0.754353
vt 0.498843 0.755118
vt 0.498683 0.755221
vt 0.499162 0.757514
vt 0.499349 0.756289
vt 0.499349 0.757550
vt 0.300917 0.843334
vt 0.301235 0.842125
vt 0.301395 0.842229
vt 0.498843 0.758722
vt 0.300730 0.843297
vt 0.300917 0.844521
vt 0.300730 0.844558
vt 0.302016 0.841361
vt 0.498063 0.759486
vt 0.498068 0.759768
vt 0.499162 0.756326
vt 0.331709 0.889002
vt 0.351982 0.955122
vt 0.331709 0.955122
vt 0.302166 0.819240
vt 0.298157 0.841080
vt 0.298157 0.819240
vt 0.496232 0.753756
vt 0.496996 0.752976
vt 0.497278 0.752981
vt 0.300730 0.852190
vt 0.299949 0.851425
vt 0.300109 0.851322
vt 0.299631 0.849029
vt 0.299443 0.850254
vt 0.299443 0.848993
vt 0.493836 0.754074
vt 0.492628 0.753756
vt 0.492731 0.753596
vt 0.299949 0.847821
vt 0.493799 0.754262
vt 0.495024 0.754074
vt 0.495060 0.754262
vt 0.491863 0.752976
vt 0.300730 0.847057
vt 0.300725 0.846775
vt 0.299631 0.850217
vt 0.354742 0.825710
vt 0.355451 0.827009
vt 0.354830 0.827009
vt 0.355393 0.829545
vt 0.354888 0.828284
vt 0.355393 0.828284
vt 0.355451 0.830820
vt 0.354742 0.832119
vt 0.354830 0.830820
vt 0.354888 0.829545
vt 0.354742 0.819302
vt 0.355451 0.820601
vt 0.354830 0.820601
vt 0.355393 0.823137
vt 0.354888 0.821876
vt 0.355393 0.821876
vt 0.355451 0.824411
vt 0.354742 0.825710
vt 0.354830 0.824411
vt 0.354888 0.823137
vt 0.354878 0.841293
vt 0.355381 0.840106
vt 0.355381 0.841293
vt 0.355432 0.838903
vt 0.354878 0.840106
vt 0.354826 0.838903
vt 0.354742 0.843560
vt 0.355432 0.842496
vt 0.355516 0.843560
vt 0.354826 0.842496
vt 0.354742 0.837839
vt 0.355516 0.837839
vt 0.354878 0.835573
vt 0.355381 0.834385
vt 0.355381 0.835573
vt 0.355432 0.833183
vt 0.354878 0.834385
vt 0.354826 0.833183
vt 0.354742 0.837839
vt 0.355432 0.836776
vt 0.355516 0.837839
vt 0.354826 0.836776
vt 0.354742 0.832119
vt 0.355516 0.832119
vt 0.294148 0.819240
vt 0.298157 0.841080
vt 0.294148 0.841080
vt 0.472946 0.822549
vt 0.451107 0.863094
vt 0.451107 0.822549
vt 0.423626 0.953867
vt 0.424819 0.887747
vt 0.424819 0.953867
vt 0.449914 0.822549
vt 0.446659 0.863094
vt 0.446659 0.822549
vt 0.380321 0.894142
vt 0.377066 0.934688
vt 0.377066 0.894142
vt 0.355227 0.894142
vt 0.354034 0.934688
vt 0.354033 0.894142
vt 0.375873 0.934688
vt 0.355227 0.934688
vt 0.451107 0.822549
vt 0.449914 0.863094
vt 0.449914 0.822549
vt 0.308676 0.819240
vt 0.309870 0.891755
vt 0.308676 0.891755
vt 0.377066 0.894142
vt 0.375873 0.934688
vt 0.375873 0.894142
vt 0.309870 0.892949
vt 0.331709 0.891755
vt 0.331709 0.892949
vt 0.358481 0.751928
vt 0.380321 0.750734
vt 0.380321 0.751928
vt 0.358481 0.824443
vt 0.380321 0.751928
vt 0.380321 0.824443
vt 0.309870 0.819240
vt 0.331709 0.891755
vt 0.309870 0.891755
vt 0.305421 0.886554
vt 0.423626 0.953867
vt 0.308676 0.886554
vt 0.357288 0.824443
vt 0.301395 0.845626
vt 0.498068 0.754072
vt 0.498683 0.758618
vt 0.302011 0.841080
vt 0.351982 0.889002
vt 0.302166 0.841080
vt 0.496128 0.753596
vt 0.300725 0.852471
vt 0.300109 0.847925
vt 0.491582 0.752981
vt 0.355539 0.825710
vt 0.355539 0.832119
vt 0.355539 0.819302
vt 0.355539 0.825710
vt 0.298157 0.819240
vt 0.472946 0.863094
vt 0.423626 0.887747
vt 0.449914 0.863094
vt 0.380321 0.934688
vt 0.375873 0.894142
vt 0.451107 0.863094
vt 0.309870 0.819240
vt 0.377066 0.934688
vt 0.309870 0.891755
vt 0.358481 0.750734
vt 0.358481 0.751928
vt 0.331709 0.819240
vn -1.0000 -0.0000 -0.0000
vn -0.0159 0.0000 0.9999
vn 1.0000 -0.0000 0.0000
vn 0.0000 0.0000 1.0000
vn 0.9973 -0.0682 -0.0271
vn 0.9987 -0.0448 0.0240
vn 0.9988 -0.0415 0.0272
vn -0.9954 0.0448 0.0849
vn -0.9971 0.0680 0.0341
vn -0.9971 0.0695 0.0300
vn -0.9993 -0.0241 0.0295
vn -0.9993 0.0236 0.0301
vn -0.9993 -0.0236 0.0301
vn 0.9992 0.0240 -0.0312
vn 0.9973 0.0681 -0.0271
vn 0.9971 0.0696 -0.0313
vn -0.9971 -0.0680 0.0341
vn 0.9993 0.0235 -0.0306
vn 0.9992 -0.0240 -0.0312
vn 0.9993 -0.0235 -0.0306
vn 0.9987 0.0448 0.0240
vn -0.9954 -0.0448 0.0849
vn -0.9952 -0.0415 0.0881
vn -0.9993 0.0241 0.0295
vn 0.0395 0.0000 0.9992
vn 0.9987 -0.0447 0.0240
vn 0.9988 -0.0414 0.0273
vn -0.9971 0.0680 0.0342
vn -0.9971 0.0694 0.0300
vn -0.9993 -0.0241 0.0294
vn -0.9993 0.0236 0.0300
vn -0.9993 -0.0236 0.0300
vn 0.9992 0.0240 -0.0313
vn 0.9973 0.0682 -0.0271
vn 0.9971 0.0697 -0.0314
vn 0.9993 0.0235 -0.0307
vn 0.9992 -0.0240 -0.0313
vn 0.9993 -0.0235 -0.0307
vn 0.9987 0.0447 0.0240
vn -0.9993 0.0241 0.0294
vn 0.0245 0.5975 0.8015
vn 0.0264 0.5041 0.8633
vn 0.0300 -0.2054 0.9782
vn 0.0299 0.2054 0.9782
vn 0.0300 0.2054 0.9782
vn 0.0264 -0.5041 0.8633
vn 0.0245 -0.5975 0.8015
vn 0.0299 -0.2054 0.9782
vn -0.0299 0.2057 -0.9782
vn -0.0299 -0.2057 -0.9782
vn -0.0265 -0.4969 -0.8674
vn -0.0248 0.5836 -0.8117
vn -0.0265 0.4969 -0.8674
vn -0.0248 -0.5836 -0.8117
vn -0.0000 -1.0000 0.0000
vn -0.9999 -0.0000 -0.0159
vn 0.0000 1.0000 -0.0000
vn 0.9971 -0.0696 -0.0314
vn -0.9952 0.0415 0.0881
vn -0.9971 -0.0695 0.0300
vn 0.9988 0.0415 0.0272
vn 0.9971 -0.0697 -0.0314
vn 0.9988 0.0414 0.0273
usemtl M_Interior
s 1
f 130/1/1 128/2/1 129/3/1
f 20/4/2 18/5/2 19/6/2
f 134/7/3 132/8/3 133/9/3
f 10/10/4 13/11/4 14/12/4
f 25/13/5 35/14/6 36/15/7
f 45/16/8 31/17/9 44/18/10
f 39/19/11 42/20/12 27/21/13
f 29/22/14 30/23/15 43/24/16
f 38/25/17 39/19/11 27/21/13
f 28/26/18 26/27/19 40/28/20
f 26/27/19 25/13/5 40/28/20
f 30/23/15 33/29/21 43/24/16
f 22/30/22 38/25/17 23/31/23
f 41/32/24 31/17/9 42/20/12
f 125/33/25 127/34/25 126/35/25
f 48/36/1 7/37/1 47/38/1
f 55/39/5 65/40/26 66/41/27
f 75/42/8 61/43/28 74/44/29
f 69/45/30 72/46/31 57/47/32
f 59/48/33 60/49/34 73/50/35
f 68/51/17 69/45/30 57/47/32
f 58/52/36 56/53/37 70/54/38
f 56/53/37 55/39/5 70/54/38
f 60/49/34 63/55/39 73/50/35
f 52/56/22 68/51/17 53/57/23
f 71/58/40 61/43/28 72/46/31
f 84/59/41 85/60/42 77/61/42
f 87/62/43 86/63/44 78/64/45
f 81/65/46 82/66/47 80/67/46
f 81/65/46 79/68/48 87/62/43
f 86/63/44 85/60/42 78/64/45
f 96/69/41 97/70/42 89/71/42
f 99/72/43 98/73/45 90/74/45
f 93/75/46 94/76/47 92/77/46
f 93/75/46 91/78/43 99/72/43
f 98/73/45 97/70/42 90/74/45
f 108/79/49 102/80/50 103/81/49
f 101/82/51 107/83/50 106/84/51
f 111/85/52 109/86/53 104/87/52
f 108/79/49 109/86/53 110/88/53
f 101/82/51 100/89/54 105/90/54
f 120/91/49 114/92/50 115/93/49
f 113/94/51 119/95/50 118/96/51
f 123/97/52 121/98/53 116/99/52
f 120/91/49 121/98/53 122/100/53
f 113/94/51 112/101/54 117/102/54
f 1/103/3 3/104/3 4/105/3
f 5/106/55 46/107/55 8/108/55
f 158/109/56 156/110/56 157/111/56
f 136/112/57 138/113/57 139/114/57
f 51/115/55 50/116/55 140/117/55
f 143/118/57 15/119/57 11/120/57
f 143/118/57 141/121/57 16/122/57
f 9/123/4 154/124/4 153/125/4
f 147/126/4 144/127/4 146/128/4
f 149/129/4 150/130/4 151/131/4
f 162/132/57 160/133/57 161/134/57
f 166/135/57 163/136/57 164/137/57
f 172/138/1 173/139/1 171/140/1
f 169/141/3 170/142/3 168/143/3
f 130/1/1 131/144/1 128/2/1
f 20/4/2 21/145/2 18/5/2
f 134/7/3 135/146/3 132/8/3
f 10/10/4 12/147/4 13/11/4
f 25/13/5 24/148/58 35/14/6
f 45/16/8 34/149/59 31/17/9
f 39/19/11 41/32/24 42/20/12
f 29/22/14 28/26/18 30/23/15
f 38/25/17 37/150/60 39/19/11
f 28/26/18 29/22/14 26/27/19
f 26/27/19 24/148/58 25/13/5
f 30/23/15 32/151/61 33/29/21
f 22/30/22 37/150/60 38/25/17
f 41/32/24 44/18/10 31/17/9
f 125/33/25 124/152/25 127/34/25
f 48/36/1 6/153/1 7/37/1
f 55/39/5 54/154/62 65/40/26
f 75/42/8 64/155/59 61/43/28
f 69/45/30 71/58/40 72/46/31
f 59/48/33 58/52/36 60/49/34
f 68/51/17 67/156/60 69/45/30
f 58/52/36 59/48/33 56/53/37
f 56/53/37 54/154/62 55/39/5
f 60/49/34 62/157/63 63/55/39
f 52/56/22 67/156/60 68/51/17
f 71/58/40 74/44/29 61/43/28
f 84/59/41 76/158/41 85/60/42
f 87/62/43 79/68/48 86/63/44
f 81/65/46 83/159/47 82/66/47
f 81/65/46 80/67/46 79/68/48
f 86/63/44 77/61/42 85/60/42
f 96/69/41 88/160/41 97/70/42
f 99/72/43 91/78/43 98/73/45
f 93/75/46 95/161/47 94/76/47
f 93/75/46 92/77/46 91/78/43
f 98/73/45 89/71/42 97/70/42
f 108/79/49 107/83/50 102/80/50
f 101/82/51 102/80/50 107/83/50
f 111/85/52 110/88/53 109/86/53
f 108/79/49 103/81/49 109/86/53
f 101/82/51 106/84/51 100/89/54
f 120/91/49 119/95/50 114/92/50
f 113/94/51 114/92/50 119/95/50
f 123/97/52 122/100/53 121/98/53
f 120/91/49 115/93/49 121/98/53
f 113/94/51 118/96/51 112/101/54
f 1/103/3 2/162/3 3/104/3
f 5/106/55 49/163/55 46/107/55
f 158/109/56 155/164/56 156/110/56
f 136/112/57 137/165/57 138/113/57
f 51/115/55 17/166/55 50/116/55
f 143/118/57 16/122/57 15/119/57
f 143/118/57 142/167/57 141/121/57
f 9/123/4 152/168/4 154/124/4
f 147/126/4 145/169/4 144/127/4
f 149/129/4 148/170/4 150/130/4
f 162/132/57 159/171/57 160/133/57
f 166/135/57 165/172/57 163/136/57
f 172/138/1 174/173/1 173/139/1
f 169/141/3 167/174/3 170/142/3
