# Blender v3.0.1 OBJ File: 'props.blend'
# www.blender.org
mtllib Cup03.mtl
o Cup03_LOD0_Cup.003
v -0.035608 0.098949 -0.046280
v -0.043929 0.098790 -0.039617
v -0.066106 0.114500 -0.075342
v -0.056735 0.066433 -0.065251
v -0.044695 0.118570 -0.039306
v -0.070941 0.127058 -0.065805
v -0.079519 0.116030 -0.074433
v -0.067303 0.062578 -0.062402
v -0.036341 0.118982 -0.047540
v -0.047657 0.111770 -0.045722
v -0.071079 0.115824 -0.082592
v -0.072100 0.093059 -0.083600
v -0.067100 0.078319 -0.065436
v -0.052806 0.053800 -0.064325
v -0.052416 0.054854 -0.050650
v -0.051544 0.129062 -0.062930
v -0.062616 0.126529 -0.074150
v -0.071801 0.116522 -0.070049
v -0.037559 0.045675 -0.035906
v -0.081038 0.097575 -0.075999
v -0.074034 0.099282 -0.072287
v -0.068951 0.099331 -0.077201
v -0.059418 0.129160 -0.054369
v -0.058206 0.120968 -0.056530
v -0.053238 0.120557 -0.061688
v -0.030761 0.034423 -0.041027
v -0.037654 0.034608 -0.033426
v -0.047093 0.039380 -0.042980
v -0.033001 0.045427 -0.040531
v -0.040236 0.098585 -0.048013
v -0.042474 0.111718 -0.051019
v 0.011729 0.014264 0.041741
v -0.021173 0.014161 0.037095
v 0.045164 0.014264 0.008350
v -0.037602 0.014186 0.020551
v -0.034434 0.014165 -0.032890
v 0.037245 0.000837 -0.032270
v 0.033648 0.000717 0.030075
v 0.047701 0.000742 -0.008025
v 0.019767 0.000736 -0.046069
v -0.004452 0.000742 0.044127
v -0.042499 0.000744 0.015918
v -0.030540 0.000756 -0.039342
v -0.006521 0.000837 -0.049090
v -0.045146 0.000837 -0.013846
v -0.028696 0.000837 0.033671
v 0.017615 0.000837 0.040988
v 0.044562 0.000837 0.014042
v 0.044562 0.000837 0.014042
v 0.040774 0.014160 -0.024583
v 0.017615 0.000837 0.040988
v -0.028696 0.000837 0.033671
v -0.044722 0.014148 -0.001864
v -0.045146 0.000837 -0.013846
v 0.032347 0.014107 0.028774
v -0.006521 0.000837 -0.049090
v -0.010052 0.014238 -0.046939
v 0.018796 0.014086 -0.044423
v -0.030540 0.000756 -0.039342
v 0.019767 0.000736 -0.046069
v 0.047701 0.000742 -0.008025
v 0.033648 0.000717 0.030075
v -0.042499 0.000744 0.015918
v -0.004452 0.000742 0.044127
v -0.018664 0.146436 -0.062649
v -0.060558 0.146365 -0.014125
v -0.054151 0.146408 -0.020688
v -0.039708 0.146365 0.044683
v -0.036342 0.146384 0.040921
v 0.021646 0.146365 0.056030
v 0.020072 0.146384 0.051233
v 0.059604 0.146365 0.018072
v 0.054807 0.146384 0.016498
v 0.048256 0.146365 -0.043281
v 0.044495 0.146384 -0.039916
v 0.019673 0.146612 -0.057340
v 0.057453 0.146613 -0.014015
v 0.040870 0.146607 0.037296
v -0.010773 0.146613 0.053706
v -0.053816 0.146612 0.015908
v 0.021338 0.146629 -0.062115
v 0.062482 0.146632 -0.014814
v 0.044391 0.146611 0.040817
v -0.011240 0.146631 0.058908
v -0.058763 0.146632 0.017052
v -0.047717 0.146552 -0.043424
v -0.009517 0.146384 -0.059192
v -0.036894 0.146561 -0.047214
v 0.037245 0.000837 -0.032270
vt 0.366273 0.215362
vt 0.365588 0.215195
vt 0.365713 0.217778
vt 0.364511 0.219457
vt 0.363893 0.218202
vt 0.363794 0.222963
vt 0.365676 0.225243
vt 0.365438 0.225552
vt 0.366280 0.225557
vt 0.364985 0.224389
vt 0.364428 0.224480
vt 0.364881 0.225070
vt 0.365178 0.220944
vt 0.352217 0.240102
vt 0.352517 0.239515
vt 0.353212 0.239925
vt 0.351428 0.213326
vt 0.349065 0.225423
vt 0.349065 0.213326
vt 0.364582 0.223221
vt 0.350428 0.240936
vt 0.347577 0.239365
vt 0.350895 0.240021
vt 0.351023 0.239383
vt 0.342917 0.238844
vt 0.343267 0.237879
vt 0.344472 0.238430
vt 0.365168 0.223135
vt 0.366360 0.225344
vt 0.366654 0.225555
vt 0.366725 0.225357
vt 0.354861 0.238194
vt 0.355415 0.238613
vt 0.354152 0.239524
vt 0.344295 0.225423
vt 0.346584 0.225945
vt 0.344295 0.225945
vt 0.352276 0.240941
vt 0.351428 0.225945
vt 0.349065 0.225945
vt 0.346123 0.238230
vt 0.355254 0.237219
vt 0.344172 0.237225
vt 0.346241 0.240103
vt 0.353903 0.239003
vt 0.348928 0.238971
vt 0.354490 0.240219
vt 0.353434 0.240683
vt 0.364802 0.214236
vt 0.355862 0.239294
vt 0.339612 0.225423
vt 0.341983 0.225945
vt 0.339612 0.225945
vt 0.366727 0.225633
vt 0.366207 0.225891
vt 0.365891 0.225040
vt 0.365456 0.224258
vt 0.339612 0.213326
vt 0.337704 0.225423
vt 0.337704 0.213326
vt 0.338521 0.237169
vt 0.340873 0.237294
vt 0.336596 0.242911
vt 0.351428 0.236941
vt 0.353928 0.225945
vt 0.353928 0.236941
vt 0.351428 0.225423
vt 0.349065 0.236941
vt 0.360829 0.225945
vt 0.363206 0.236941
vt 0.360829 0.236941
vt 0.356340 0.213326
vt 0.358526 0.225423
vt 0.356340 0.225423
vt 0.344295 0.213326
vt 0.341983 0.225423
vt 0.341982 0.213326
vt 0.339612 0.236941
vt 0.341982 0.236941
vt 0.356340 0.225945
vt 0.356340 0.236941
vt 0.337704 0.236941
vt 0.353928 0.213326
vt 0.346584 0.225423
vt 0.346584 0.213326
vt 0.346584 0.236941
vt 0.335791 0.213326
vt 0.344157 0.237040
vt 0.360829 0.225423
vt 0.358526 0.213326
vt 0.360829 0.213326
vt 0.363206 0.225423
vt 0.363206 0.213326
vt 0.344295 0.236941
vt 0.358529 0.236832
vt 0.358529 0.225986
vt 0.335791 0.225945
vt 0.337704 0.225945
vt 0.358526 0.225945
vt 0.358526 0.236941
vt 0.363206 0.225945
vt 0.353928 0.225423
vt 0.360623 0.237119
vt 0.363398 0.241374
vt 0.356659 0.243155
vt 0.342677 0.238703
vt 0.343153 0.241319
vt 0.342324 0.243044
vt 0.340813 0.244190
vt 0.338110 0.244190
vt 0.335796 0.241120
vt 0.336524 0.238517
vt 0.335791 0.225423
vt 0.335791 0.236941
vt 0.362703 0.243066
vt 0.360709 0.244457
vt 0.358319 0.244457
vt 0.355809 0.241178
vt 0.356077 0.239386
vt 0.357365 0.237667
vt 0.359050 0.236997
vt 0.362042 0.237809
vt 0.363156 0.239240
vn -0.3196 0.6354 0.7029
vn 0.7336 0.6262 -0.2641
vn -0.2520 0.5519 0.7949
vn 0.8733 0.4831 -0.0626
vn 0.2166 -0.4815 -0.8493
vn 0.0414 -0.2032 -0.9783
vn 0.4249 -0.7138 -0.5567
vn 0.5809 0.6827 -0.4433
vn 0.1041 -0.4214 -0.9009
vn 0.8798 -0.4557 -0.1350
vn 0.0550 0.3124 -0.9484
vn 0.3012 0.6215 -0.7232
vn 0.0343 0.3831 0.9230
vn -0.9391 0.3349 0.0765
vn -0.2359 -0.4492 0.8617
vn -0.7280 0.6205 0.2914
vn -0.6535 -0.1201 -0.7474
vn -0.2202 0.6103 -0.7610
vn -0.1319 -0.1150 -0.9846
vn 0.9949 0.0739 0.0685
vn -0.9000 -0.4197 0.1178
vn -0.9950 -0.0924 0.0383
vn 0.0447 0.0882 0.9951
vn 0.1990 -0.7497 -0.6312
vn -0.6385 -0.7203 0.2710
vn -0.7426 -0.6338 0.2163
vn -0.8963 -0.4376 0.0719
vn -0.1878 -0.7264 -0.6612
vn -0.8187 -0.5618 -0.1187
vn -0.5346 0.4575 0.7105
vn -0.4366 0.6790 0.5902
vn 0.5985 0.6138 -0.5148
vn -0.1967 0.8008 0.5657
vn -0.4616 0.7922 0.3991
vn 0.3830 0.8069 0.4498
vn 0.1013 0.7833 0.6133
vn -0.5849 -0.6918 0.4236
vn 0.7250 0.4923 -0.4816
vn 0.7450 0.6130 0.2630
vn -0.5915 0.7985 0.1124
vn -0.5725 0.7939 -0.2046
vn 0.3634 -0.6133 -0.7013
vn 0.9268 -0.1063 0.3603
vn 0.5493 0.6298 0.5493
vn 0.7033 -0.1036 0.7033
vn -0.2892 0.6820 0.6717
vn 0.1576 0.6823 0.7139
vn -0.5080 0.6958 -0.5077
vn 0.5683 0.6772 0.4674
vn 0.5737 0.8009 0.1717
vn 0.7281 0.6855 0.0028
vn -0.6065 0.6140 -0.5051
vn 0.1142 0.7975 -0.5924
vn -0.1583 0.6716 -0.7238
vn 0.3300 0.6825 -0.6521
vn -0.9241 -0.1120 0.3654
vn -0.5172 0.6131 0.5972
vn -0.7466 0.6151 0.2534
vn 0.7873 -0.1108 -0.6066
vn 0.7744 0.6151 -0.1485
vn 0.9852 -0.1115 -0.1300
vn -0.7224 0.6725 -0.1608
vn -0.6503 0.6776 0.3436
vn 0.5666 0.8035 -0.1829
vn 0.6139 0.6958 -0.3728
vn -0.9704 -0.1166 -0.2113
vn 0.2437 0.6122 -0.7522
vn 0.3803 -0.1111 -0.9181
vn 0.3603 -0.1063 0.9268
vn -0.1485 0.6149 0.7745
vn -0.6095 -0.1109 0.7850
vn -0.1300 -0.1115 0.9852
vn 0.2631 0.6130 0.7450
vn 0.3993 0.7920 -0.4619
vn -0.2026 0.7945 -0.5725
vn -0.4397 0.7832 -0.4397
vn -0.7774 0.6134 -0.1391
vn 0.0008 -1.0000 0.0009
vn 0.0007 -1.0000 -0.0014
vn -0.0000 -1.0000 0.0016
vn 0.0121 -0.9999 -0.0042
vn 0.0019 -1.0000 0.0004
vn 0.0061 -1.0000 0.0067
vn -0.0055 -0.9999 0.0144
vn -0.0007 -1.0000 0.0004
vn -0.0144 -0.9999 0.0023
vn 0.0064 -1.0000 -0.0010
vn -0.0010 -1.0000 0.0064
vn 0.0023 -0.9999 -0.0144
usemtl M_Interior
s 1
f 19/1/1 29/2/2 15/3/3
f 4/4/4 14/5/5 12/6/6
f 4/4/4 15/3/3 29/2/2
f 25/7/7 16/8/8 31/9/9
f 3/10/10 11/11/11 17/12/12
f 4/4/4 13/13/13 15/3/3
f 7/14/14 18/15/15 6/16/16
f 43/17/17 65/18/18 44/19/19
f 22/20/20 11/11/11 3/10/10
f 12/21/6 8/22/21 20/23/22
f 21/24/23 7/14/14 20/23/22
f 26/25/24 27/26/25 28/27/26
f 3/10/10 21/28/23 22/20/20
f 22/20/20 4/4/4 12/6/6
f 10/29/27 30/30/28 2/31/29
f 10/32/27 5/33/30 23/34/31
f 74/35/32 76/36/33 75/37/34
f 11/38/11 20/23/22 7/14/14
f 65/18/18 88/39/35 87/40/36
f 17/12/12 25/7/7 3/10/10
f 8/22/21 28/27/26 15/41/3
f 5/33/30 10/32/27 2/42/29
f 28/27/26 19/43/1 15/41/3
f 10/29/27 25/7/7 31/9/9
f 14/44/5 28/27/26 8/22/21
f 24/45/37 23/34/31 6/16/16
f 15/41/3 13/46/13 8/22/21
f 8/22/21 12/21/6 14/44/5
f 6/16/16 16/47/8 17/48/12
f 14/5/5 29/2/2 26/49/24
f 9/50/38 23/34/31 5/33/30
f 72/51/39 77/52/40 73/53/41
f 13/13/13 22/20/20 21/28/23
f 13/46/13 20/23/22 8/22/21
f 30/30/28 1/54/42 2/31/29
f 31/9/9 16/8/8 9/55/38
f 24/56/37 18/57/15 3/10/10
f 48/58/43 83/59/44 62/60/45
f 58/61/46 57/62/47 55/63/48
f 36/64/49 67/65/50 53/66/51
f 86/67/52 67/65/50 88/39/35
f 31/9/9 1/54/42 30/30/28
f 7/14/14 17/48/12 11/38/11
f 57/68/47 88/39/35 36/64/49
f 79/69/53 32/70/54 33/71/55
f 42/72/56 68/73/57 85/74/58
f 37/75/59 82/76/60 61/77/61
f 73/53/41 83/59/44 72/51/39
f 34/78/62 77/52/40 50/79/63
f 53/66/51 80/80/64 35/81/65
f 55/82/48 73/53/41 34/78/62
f 85/74/58 45/83/66 42/72/56
f 44/19/19 81/84/67 60/85/68
f 76/36/33 57/68/47 58/86/46
f 83/59/44 47/87/69 62/60/45
f 60/85/68 74/35/32 37/75/59
f 77/52/40 75/37/34 50/88/63
f 84/89/70 46/90/71 41/91/72
f 70/92/73 41/91/72 47/93/69
f 75/37/34 58/86/46 50/94/63
f 33/95/55 69/96/74 79/69/53
f 87/40/36 81/84/67 65/18/18
f 55/82/48 71/97/75 78/98/76
f 68/73/57 80/80/64 85/74/58
f 35/81/65 69/99/74 33/100/55
f 84/89/70 71/101/75 79/69/53
f 71/97/75 83/59/44 78/98/76
f 80/80/64 66/102/77 85/74/58
f 77/52/40 74/35/32 75/37/34
f 68/73/57 79/69/53 69/99/74
f 61/77/61 72/51/39 48/58/43
f 45/83/66 86/67/52 43/17/17
f 38/103/78 52/104/79 56/105/80
f 24/45/37 10/32/27 23/34/31
f 18/15/15 24/45/37 6/16/16
f 25/7/7 24/56/37 3/10/10
f 43/17/17 86/67/52 65/18/18
f 22/20/20 12/6/6 11/11/11
f 21/24/23 18/15/15 7/14/14
f 3/10/10 18/57/15 21/28/23
f 10/29/27 31/9/9 30/30/28
f 74/35/32 81/84/67 76/36/33
f 11/38/11 12/21/6 20/23/22
f 65/18/18 86/67/52 88/39/35
f 17/12/12 16/8/8 25/7/7
f 28/27/26 27/26/25 19/43/1
f 10/29/27 24/56/37 25/7/7
f 14/44/5 26/25/24 28/27/26
f 6/16/16 23/34/31 16/47/8
f 14/5/5 4/4/4 29/2/2
f 9/50/38 16/47/8 23/34/31
f 72/51/39 82/76/60 77/52/40
f 13/13/13 4/4/4 22/20/20
f 13/46/13 21/24/23 20/23/22
f 48/58/43 72/51/39 83/59/44
f 57/62/47 36/106/49 53/107/51
f 53/107/51 35/108/65 57/62/47
f 35/108/65 33/109/55 55/63/48
f 57/62/47 35/108/65 55/63/48
f 33/109/55 32/110/54 55/63/48
f 55/63/48 34/111/62 50/112/63
f 50/112/63 58/61/46 55/63/48
f 36/64/49 88/39/35 67/65/50
f 86/67/52 66/102/77 67/65/50
f 31/9/9 9/55/38 1/54/42
f 7/14/14 6/16/16 17/48/12
f 57/68/47 87/40/36 88/39/35
f 79/69/53 71/101/75 32/70/54
f 42/72/56 46/90/71 68/73/57
f 37/75/59 74/35/32 82/76/60
f 73/53/41 78/98/76 83/59/44
f 34/78/62 73/53/41 77/52/40
f 53/66/51 67/65/50 80/80/64
f 55/82/48 78/98/76 73/53/41
f 85/74/58 66/102/77 45/83/66
f 44/19/19 65/18/18 81/84/67
f 76/36/33 87/40/36 57/68/47
f 83/59/44 70/113/73 47/87/69
f 60/85/68 81/84/67 74/35/32
f 84/89/70 68/73/57 46/90/71
f 70/92/73 84/89/70 41/91/72
f 75/37/34 76/36/33 58/86/46
f 87/40/36 76/36/33 81/84/67
f 55/82/48 32/114/54 71/97/75
f 68/73/57 69/99/74 80/80/64
f 35/81/65 80/80/64 69/99/74
f 84/89/70 70/92/73 71/101/75
f 71/97/75 70/113/73 83/59/44
f 80/80/64 67/65/50 66/102/77
f 77/52/40 82/76/60 74/35/32
f 68/73/57 84/89/70 79/69/53
f 61/77/61 82/76/60 72/51/39
f 45/83/66 66/102/77 86/67/52
f 52/104/79 63/115/81 54/116/82
f 54/116/82 59/117/83 56/105/80
f 56/105/80 40/118/84 89/119/85
f 89/119/85 39/120/86 49/121/87
f 49/121/87 38/103/78 89/119/85
f 38/103/78 51/122/88 52/104/79
f 51/122/88 64/123/89 52/104/79
f 52/104/79 54/116/82 56/105/80
f 56/105/80 89/119/85 38/103/78
