# Blender v3.0.1 OBJ File: 'props.blend'
# www.blender.org
mtllib Cupboard01.mtl
o Cupboard01_LOD0_Cube.048
v 0.501056 1.963655 -0.225375
v -0.466112 0.759549 0.065883
v -0.501056 0.711369 -0.225375
v 0.501056 0.711369 -0.225375
v -0.501056 0.711369 0.065883
v 0.501056 0.711369 0.065883
v -0.466112 1.898711 -0.204731
v -0.466112 1.051566 -0.204731
v -0.466112 1.347166 -0.204731
v -0.466112 1.642765 -0.204731
v 0.466112 1.642765 -0.204731
v 0.466112 1.347165 -0.204731
v 0.466112 1.051566 -0.204731
v -0.466112 1.034944 -0.204731
v -0.466112 1.330543 -0.204731
v -0.466112 1.626143 -0.204731
v 0.466112 1.626143 -0.204731
v 0.466112 1.330543 -0.204731
v 0.466112 1.034944 -0.204731
v 0.466112 1.034944 0.062413
v 0.466112 1.051566 0.062413
v -0.466112 1.347166 0.062413
v -0.466112 1.330543 0.062413
v -0.466112 1.642765 0.062413
v 0.466112 1.642765 0.062413
v -0.466112 1.626143 0.062413
v 0.466112 1.626143 0.062413
v -0.466112 1.051566 0.062413
v -0.466112 1.034944 0.062413
v 0.466112 1.330543 0.062413
v 0.466112 1.347165 0.062413
v 0.508178 0.711469 -0.232759
v 0.501057 1.963655 0.065883
v -0.501056 1.963655 -0.225375
v 0.508178 0.711469 0.073267
v -0.508178 0.669373 0.073267
v 0.508178 0.669373 0.073267
v -0.508178 0.711469 0.073267
v -0.508178 0.711469 -0.232759
v -0.508178 0.669373 -0.232759
v 0.508178 0.669373 -0.232759
v -0.466112 1.898711 0.065883
v -0.501056 1.963655 0.065883
v 0.466112 0.759549 -0.204731
v -0.466112 0.759549 -0.204731
v 0.466112 1.898711 0.065883
v 0.466112 0.759549 0.065883
v 0.466112 1.898711 -0.204731
vt 0.094328 0.365429
vt 0.093840 0.344939
vt 0.094328 0.345445
vt 0.091294 0.408262
vt 0.093825 0.338165
vt 0.091294 0.340698
vt 0.107452 0.337308
vt 0.128077 0.408359
vt 0.107452 0.408359
vt 0.129011 0.408359
vt 0.109224 0.408359
vt 0.109224 0.322014
vt 0.109224 0.322014
vt 0.129011 0.408359
vt 0.109224 0.408359
vt 0.128077 0.337308
vt 0.128077 0.408359
vt 0.107452 0.408359
vt 0.091294 0.322599
vt 0.093826 0.410794
vt 0.093826 0.320068
vt 0.091294 0.322599
vt 0.093826 0.410794
vt 0.079888 0.224781
vt 0.100643 0.198870
vt 0.100643 0.224781
vt 0.113023 0.408276
vt 0.133484 0.320415
vt 0.113023 0.320415
vt 0.133484 0.408276
vt 0.113024 0.320415
vt 0.133484 0.320415
vt 0.087266 0.410794
vt 0.088382 0.348234
vt 0.088382 0.410794
vt 0.087266 0.410794
vt 0.088382 0.348234
vt 0.088382 0.410794
vt 0.088382 0.348234
vt 0.087266 0.410794
vt 0.087266 0.348234
vt 0.128077 0.408359
vt 0.109224 0.342570
vt 0.128077 0.342570
vt 0.109224 0.408359
vt 0.128077 0.342570
vt 0.128077 0.408359
vt 0.128077 0.408359
vt 0.109224 0.342570
vt 0.128077 0.342570
vt 0.109224 0.408359
vt 0.128077 0.342570
vt 0.128077 0.408359
vt 0.109224 0.342570
vt 0.128077 0.408359
vt 0.109224 0.408359
vt 0.128077 0.342570
vt 0.109224 0.408359
vt 0.109224 0.342570
vt 0.094329 0.414203
vt 0.093822 0.344957
vt 0.094328 0.345445
vt 0.092740 0.393205
vt 0.089852 0.414203
vt 0.092740 0.414203
vt 0.092738 0.414203
vt 0.089852 0.344468
vt 0.092738 0.344468
vt 0.092740 0.414203
vt 0.089852 0.393206
vt 0.092740 0.393206
vt 0.093840 0.365936
vt 0.094328 0.345445
vt 0.094328 0.366443
vt 0.093822 0.413714
vt 0.094329 0.344468
vt 0.094329 0.414203
vt 0.108010 0.332132
vt 0.130008 0.407821
vt 0.130008 0.332132
vt 0.130566 0.408359
vt 0.107452 0.331594
vt 0.130566 0.331594
vt 0.092776 0.414203
vt 0.089888 0.344468
vt 0.092776 0.344468
vt 0.090937 0.408262
vt 0.093825 0.338165
vt 0.093825 0.410794
vt 0.093840 0.365936
vt 0.128077 0.337308
vt 0.129011 0.322014
vt 0.129011 0.322014
vt 0.107452 0.337308
vt 0.091294 0.408263
vt 0.093826 0.320068
vt 0.079888 0.198870
vt 0.133484 0.408276
vt 0.113023 0.408276
vt 0.087266 0.348234
vt 0.087266 0.348234
vt 0.088382 0.410794
vt 0.109224 0.408359
vt 0.109224 0.342570
vt 0.109224 0.408359
vt 0.109224 0.342570
vt 0.128077 0.342570
vt 0.128077 0.408359
vt 0.093822 0.414691
vt 0.089852 0.393205
vt 0.089852 0.414203
vt 0.089852 0.414203
vt 0.093840 0.345952
vt 0.093822 0.344957
vt 0.108010 0.407821
vt 0.107452 0.408359
vt 0.090937 0.340698
vt 0.100505 0.353526
vt 0.134996 0.397256
vt 0.100505 0.397256
vt 0.134996 0.353526
vn 0.0141 0.9999 -0.0000
vn -0.0000 -0.0000 1.0000
vn 0.0000 -1.0000 0.0000
vn -1.0000 0.0000 -0.0000
vn 1.0000 -0.0000 0.0000
vn 0.0000 1.0000 0.0000
vn 0.0000 -0.0000 -1.0000
vn 0.0000 0.9999 -0.0136
vn -0.0141 0.9999 0.0000
vn 0.0000 0.9999 0.0136
usemtl M_Interior
s 1
f 3/1/1 38/2/1 5/3/1
f 2/4/2 6/5/2 47/6/2
f 42/7/3 48/8/3 46/9/3
f 46/10/4 48/11/4 44/12/4
f 2/13/5 7/14/5 42/15/5
f 2/16/6 47/17/6 44/18/6
f 46/19/2 6/20/2 33/21/2
f 42/22/2 5/23/2 2/4/2
f 1/24/7 3/25/7 34/26/7
f 1/27/5 6/28/5 4/29/5
f 43/30/4 3/31/4 5/32/4
f 21/33/2 29/34/2 20/35/2
f 31/36/2 23/37/2 30/38/2
f 25/39/2 26/40/2 27/41/2
f 9/42/6 31/43/6 12/44/6
f 15/45/3 30/46/3 23/47/3
f 8/48/6 21/49/6 13/50/6
f 14/51/3 20/52/3 29/53/3
f 17/54/3 26/55/3 16/56/3
f 11/57/6 24/58/6 25/59/6
f 5/60/8 35/61/8 6/62/8
f 39/63/4 36/64/4 38/65/4
f 32/66/7 40/67/7 39/68/7
f 35/69/5 41/70/5 32/71/5
f 4/72/9 35/73/9 32/74/9
f 3/75/10 32/76/10 39/77/10
f 1/78/6 43/79/6 33/80/6
f 36/81/3 41/82/3 37/83/3
f 38/84/2 37/85/2 35/86/2
f 42/87/2 33/88/2 43/89/2
f 3/1/1 39/90/1 38/2/1
f 2/4/2 5/23/2 6/5/2
f 42/7/3 7/91/3 48/8/3
f 46/10/4 44/12/4 47/92/4
f 2/13/5 45/93/5 7/14/5
f 2/16/6 44/18/6 45/94/6
f 46/19/2 47/95/2 6/20/2
f 42/22/2 43/96/2 5/23/2
f 1/24/7 4/97/7 3/25/7
f 1/27/5 33/98/5 6/28/5
f 43/30/4 34/99/4 3/31/4
f 21/33/2 28/100/2 29/34/2
f 31/36/2 22/101/2 23/37/2
f 25/39/2 24/102/2 26/40/2
f 9/42/6 22/103/6 31/43/6
f 15/45/3 18/104/3 30/46/3
f 8/48/6 28/105/6 21/49/6
f 14/51/3 19/106/3 20/52/3
f 17/54/3 27/107/3 26/55/3
f 11/57/6 10/108/6 24/58/6
f 5/60/8 38/109/8 35/61/8
f 39/63/4 40/110/4 36/64/4
f 32/66/7 41/111/7 40/67/7
f 35/69/5 37/112/5 41/70/5
f 4/72/9 6/113/9 35/73/9
f 3/75/10 4/114/10 32/76/10
f 1/78/6 34/115/6 43/79/6
f 36/81/3 40/116/3 41/82/3
f 38/84/2 36/64/2 37/85/2
f 42/87/2 46/117/2 33/88/2
f 48/118/2 45/119/2 44/120/2
f 48/118/2 7/121/2 45/119/2
