# Blender v3.0.1 OBJ File: 'props.blend'
# www.blender.org
mtllib Curtaineam.mtl
o Curtains_Beam_LOD0_Curtainbeam.001
v 1.072574 2.130855 0.185041
v 1.125953 2.277764 0.185041
v 1.125953 2.253362 0.233003
v 1.125953 2.130855 0.185041
v -1.075651 2.253362 0.233003
v -1.075651 2.130855 0.185041
v -1.075651 2.277764 0.185041
v -1.075651 2.253362 0.233003
v -1.075651 2.130855 0.185041
v -1.075651 2.277764 0.185041
v -1.129030 2.253362 0.233003
v -1.075651 2.253362 0.233003
v 1.072574 2.253362 0.233003
v 1.125953 2.253362 0.233003
v 1.072574 2.253362 0.233003
v 1.125953 2.253362 0.233003
v 1.125953 2.130855 0.185041
v 1.072574 2.277764 0.185041
v 1.072574 2.130855 0.185041
v 1.072574 2.253362 0.233003
v -1.165673 2.257161 0.199065
v -1.165673 2.257161 0.216603
v -1.165673 2.241973 0.225371
v -1.165673 2.226785 0.216603
v -1.165673 2.226785 0.199065
v -1.165673 2.241973 0.190297
v 1.162597 2.257161 0.199066
v 1.162597 2.257161 0.216603
v 1.162597 2.241973 0.225372
v 1.162597 2.226785 0.216603
v 1.162597 2.226785 0.199066
v 1.162597 2.241973 0.190297
v -1.165673 2.257161 0.199065
v -1.165673 2.257161 0.216603
v -1.165673 2.241973 0.225371
v -1.165673 2.226785 0.216603
v -1.165673 2.226785 0.199065
v -1.165673 2.241973 0.190297
v 1.162597 2.257161 0.199066
v 1.162597 2.257161 0.216603
v 1.162597 2.241973 0.225372
v 1.162597 2.226785 0.216603
v 1.162597 2.226785 0.199066
v 1.162597 2.241973 0.190297
v -1.129030 2.253362 0.233003
v -1.129030 2.130855 0.185041
v -1.129030 2.277764 0.185041
v -1.129030 2.277764 0.185041
v -1.129030 2.253362 0.233003
v -1.129030 2.130855 0.185041
v 1.125953 2.277764 0.185041
v 1.072574 2.277764 0.185041
v 1.072574 2.130855 0.097908
v 1.125953 2.277764 0.097908
v 1.125953 2.130855 0.097908
v -1.075651 2.130855 0.097907
v -1.075651 2.277764 0.097907
v -1.075651 2.130855 0.097907
v -1.075651 2.277764 0.097907
v 1.125953 2.130855 0.097908
v 1.072574 2.277764 0.097908
v 1.072574 2.130855 0.097908
v -1.129030 2.130855 0.097907
v -1.129030 2.277764 0.097907
v -1.129030 2.277764 0.097907
v -1.129030 2.130855 0.097907
v 1.125953 2.277764 0.097908
v 1.072574 2.277764 0.097908
vt 0.072275 0.216791
vt 0.072275 0.231618
vt 0.064606 0.229155
vt 0.053894 0.232094
vt 0.059873 0.222080
vt 0.053894 0.222080
vt 0.072275 0.216791
vt 0.072275 0.231618
vt 0.064606 0.229155
vt 0.059873 0.222080
vt 0.053895 0.216070
vt 0.053894 0.222080
vt 0.059873 0.222080
vt 0.053895 0.216070
vt 0.053894 0.222080
vt 0.053894 0.232094
vt 0.059873 0.222080
vt 0.053894 0.222080
vt 0.072275 0.219254
vt 0.079943 0.216791
vt 0.079943 0.231618
vt 0.115815 0.206187
vt 0.001967 0.206798
vt 0.001967 0.206187
vt 0.115815 0.205575
vt 0.001967 0.205575
vt 0.115815 0.204964
vt 0.001967 0.204964
vt 0.115815 0.204353
vt 0.001967 0.204353
vt 0.115815 0.203742
vt 0.001967 0.203742
vt 0.115815 0.203130
vt 0.001967 0.203130
vt 0.010417 0.201774
vt 0.011303 0.200240
vt 0.013074 0.200240
vt 0.006875 0.201774
vt 0.007760 0.200240
vt 0.009531 0.200240
vt 0.072275 0.219254
vt 0.079943 0.216791
vt 0.079943 0.231618
vt 0.059874 0.216070
vt 0.053895 0.207397
vt 0.059873 0.234512
vt 0.059873 0.232094
vt 0.086206 0.231618
vt 0.059874 0.216070
vt 0.053895 0.207397
vt 0.086206 0.231618
vt 0.093874 0.231618
vt 0.093874 0.231618
vt 0.059873 0.234512
vt 0.059873 0.232094
vt 0.115815 0.206798
vt 0.013960 0.201774
vt 0.013074 0.203308
vt 0.011303 0.203308
vt 0.010417 0.201774
vt 0.009531 0.203308
vt 0.007760 0.203308
vt 0.059874 0.207397
vt 0.053894 0.234512
vt 0.086206 0.216791
vt 0.059874 0.207397
vt 0.086206 0.216791
vt 0.093874 0.216791
vt 0.093874 0.216791
vt 0.053894 0.234512
vn 1.0000 0.0000 0.0000
vn 0.0000 -0.8260 0.5637
vn 0.0000 -0.3646 0.9312
vn 0.0000 0.8913 0.4535
vn 0.0000 0.9724 0.2332
vn -1.0000 0.0000 0.0000
vn 0.0000 0.8660 -0.5000
vn 0.0000 -0.0000 -1.0000
vn -0.0000 0.8660 0.5000
vn -0.0000 -0.0000 1.0000
vn -0.0000 -0.8660 0.5000
vn 0.0000 -0.8660 -0.5000
vn 0.0000 1.0000 0.0000
vn 0.0000 -1.0000 0.0000
usemtl M_Interior
s 1
f 4/1/1 2/2/1 3/3/1
f 50/4/2 5/5/3 49/6/3
f 9/7/1 7/8/1 8/9/1
f 12/10/4 48/11/5 11/12/4
f 14/13/4 52/14/5 13/15/4
f 1/16/2 16/17/3 15/18/3
f 20/19/6 18/20/6 19/21/6
f 27/22/7 26/23/8 21/24/7
f 28/25/9 21/24/7 22/26/9
f 29/27/10 22/26/9 23/28/10
f 30/29/11 23/28/10 24/30/11
f 31/31/12 24/30/11 25/32/12
f 32/33/8 25/32/12 26/34/8
f 35/35/6 34/36/6 33/37/6
f 41/38/1 42/39/1 43/40/1
f 45/41/6 47/42/6 46/43/6
f 10/44/5 65/45/13 48/11/5
f 1/16/2 60/46/14 17/47/2
f 9/7/1 57/48/1 7/8/1
f 51/49/5 68/50/13 52/14/5
f 4/1/1 54/51/1 2/2/1
f 47/42/6 63/52/6 46/43/6
f 18/20/6 62/53/6 19/21/6
f 50/4/2 56/54/14 6/55/2
f 50/4/2 6/55/2 5/5/3
f 12/10/4 10/44/5 48/11/5
f 14/13/4 51/49/5 52/14/5
f 1/16/2 17/47/2 16/17/3
f 27/22/7 32/56/8 26/23/8
f 28/25/9 27/22/7 21/24/7
f 29/27/10 28/25/9 22/26/9
f 30/29/11 29/27/10 23/28/10
f 31/31/12 30/29/11 24/30/11
f 32/33/8 31/31/12 25/32/12
f 33/37/6 38/57/6 35/35/6
f 38/57/6 37/58/6 35/35/6
f 37/58/6 36/59/6 35/35/6
f 43/40/1 44/60/1 41/38/1
f 44/60/1 39/61/1 41/38/1
f 39/61/1 40/62/1 41/38/1
f 10/44/5 59/63/13 65/45/13
f 1/16/2 53/64/14 60/46/14
f 9/7/1 58/65/1 57/48/1
f 51/49/5 67/66/13 68/50/13
f 4/1/1 55/67/1 54/51/1
f 47/42/6 64/68/6 63/52/6
f 18/20/6 61/69/6 62/53/6
f 50/4/2 66/70/14 56/54/14
