# Blender v3.0.1 OBJ File: 'props.blend'
# www.blender.org
mtllib Dresser.mtl
o Dresser01_LOD0_Cube.013
v -0.663697 1.198473 0.433211
v -0.663697 1.198473 -0.433549
v 0.663698 1.198473 0.433211
v 0.663698 1.198473 -0.433549
v -0.653170 1.148473 0.418320
v -0.653170 1.148473 -0.418658
v 0.653170 1.148473 0.418320
v -0.625000 0.107848 0.393842
v 0.625000 1.148473 0.393842
v -0.663697 0.057848 0.433211
v 0.653170 1.148473 -0.418658
v 0.581250 0.151598 0.393842
v -0.581250 0.417223 0.393842
v 0.581250 0.660973 0.393842
v -0.581250 0.660973 0.393842
v 0.581250 0.617223 0.393842
v 0.581250 0.860973 0.393842
v -0.581250 1.104723 0.393842
v -0.041716 0.904723 0.393842
v 0.041716 1.104723 0.393842
v -0.653170 0.107848 0.418320
v -0.653170 0.107848 -0.418658
v 0.653170 0.107848 0.418320
v 0.653170 0.107848 -0.418658
v -0.663698 0.057848 -0.418658
v 0.663698 0.057848 -0.418658
v 0.663698 0.057848 0.433211
v -0.653170 0.057848 0.418320
v -0.653170 -0.004652 0.418320
v -0.503170 0.057848 0.418320
v -0.565670 -0.004652 0.418320
v -0.653170 0.057848 0.268320
v -0.653170 -0.004652 -0.403768
v -0.653170 0.057848 -0.253768
v -0.653170 0.057848 -0.403768
v -0.503170 0.057848 -0.403768
v -0.565670 -0.004652 -0.403768
v 0.653170 0.057848 0.418320
v 0.503170 0.057848 0.418320
v 0.565670 -0.004652 0.418320
v 0.653170 -0.004652 0.418320
v 0.653170 0.057848 0.268320
v 0.653170 -0.004652 -0.403767
v 0.653170 0.057848 -0.253767
v 0.653170 -0.004652 -0.316267
v 0.653170 0.057848 -0.403767
v 0.503170 0.057848 -0.403767
v 0.565670 -0.004652 -0.403767
v 0.593750 0.132848 0.349063
v -0.625000 1.148473 0.393842
v 0.625000 1.148473 -0.418658
v 0.560683 1.084156 0.411342
v 0.560683 0.172164 0.411342
v 0.625000 0.107848 0.393842
v 0.625000 0.107848 -0.418658
v -0.560683 1.084156 0.411342
v -0.560683 0.172164 0.411342
v -0.593750 0.132848 0.349063
v -0.593750 1.123473 0.349063
v 0.593750 1.123473 -0.373004
v 0.593750 0.132848 -0.373004
v -0.625000 0.107848 -0.418658
v -0.593750 0.132848 -0.373004
v -0.625000 0.132848 -0.373004
v -0.625000 1.123473 -0.373004
v -0.625000 1.148473 -0.418658
v -0.593750 1.123473 -0.373004
v -0.625000 0.132848 0.349063
v -0.625000 1.123473 0.349063
v 0.625000 0.132848 -0.373004
v 0.593750 1.123473 0.349063
v 0.625000 0.132848 0.349063
v 0.625000 1.123473 0.349063
v 0.625000 1.123473 -0.373004
v -0.560683 0.352906 0.411342
v -0.560683 0.437789 0.411342
v -0.560683 0.596656 0.411342
v -0.560683 0.681539 0.411342
v -0.560683 0.840406 0.411342
v -0.560683 0.925289 0.411342
v 0.560683 0.925289 0.411342
v 0.560683 0.840406 0.411342
v 0.560683 0.681539 0.411342
v 0.560683 0.596656 0.411342
v 0.560683 0.437789 0.411342
v 0.560683 0.352906 0.411342
v 0.062282 0.925289 0.411342
v -0.062283 0.925289 0.411342
v -0.062283 1.084156 0.411342
v 0.062282 1.084156 0.411342
v -0.581250 0.151598 0.393842
v 0.581250 0.417223 0.393842
v -0.581250 0.373473 0.393842
v 0.581250 0.373473 0.393842
v -0.581250 0.617223 0.393842
v -0.581250 0.860973 0.393842
v -0.581250 0.904723 0.393842
v 0.581250 0.904723 0.393842
v -0.041716 1.104723 0.393842
v 0.581250 1.104723 0.393842
v 0.041716 0.904723 0.393842
v -0.653170 -0.004652 0.330820
v -0.503170 0.057848 0.268320
v -0.565670 -0.004652 0.330820
v -0.653170 -0.004652 -0.316268
v -0.503170 0.057848 -0.253768
v -0.565670 -0.004652 -0.316268
v 0.653170 -0.004652 0.330821
v 0.503170 0.057848 0.268320
v 0.565670 -0.004652 0.330820
v 0.503170 0.057848 -0.253767
v 0.565670 -0.004652 -0.316267
vt 0.150716 0.377636
vt 0.186999 0.376491
vt 0.186999 0.377636
vt 0.218651 0.347291
vt 0.256765 0.301508
vt 0.256765 0.347291
vt 0.150716 0.376491
vt 0.187915 0.374819
vt 0.148807 0.374071
vt 0.148807 0.381397
vt 0.147204 0.392728
vt 0.215999 0.351998
vt 0.184253 0.303380
vt 0.215999 0.303380
vt 0.242346 0.385815
vt 0.193728 0.354614
vt 0.242346 0.354614
vt 0.184253 0.351998
vt 0.182342 0.303766
vt 0.217910 0.303766
vt 0.184798 0.301509
vt 0.184798 0.353870
vt 0.168568 0.363541
vt 0.171624 0.363541
vt 0.191385 0.365144
vt 0.191385 0.391126
vt 0.148807 0.391126
vt 0.191385 0.372469
vt 0.192988 0.354613
vt 0.191385 0.381397
vt 0.148807 0.382999
vt 0.148807 0.372469
vt 0.171624 0.356216
vt 0.168568 0.356216
vt 0.147204 0.354613
vt 0.193728 0.386566
vt 0.241575 0.417222
vt 0.193728 0.417222
vt 0.179771 0.351227
vt 0.149115 0.303380
vt 0.179771 0.303380
vt 0.147204 0.351612
vt 0.149115 0.351227
vt 0.181602 0.302994
vt 0.179771 0.301508
vt 0.179771 0.353098
vt 0.224207 0.348037
vt 0.221002 0.350326
vt 0.218713 0.348037
vt 0.227412 0.350326
vt 0.224207 0.350326
vt 0.232589 0.351073
vt 0.229384 0.353362
vt 0.227095 0.351073
vt 0.235793 0.353362
vt 0.232589 0.353362
vt 0.233952 0.350327
vt 0.230748 0.348037
vt 0.233952 0.348037
vt 0.237157 0.348037
vt 0.239446 0.350327
vt 0.222842 0.353363
vt 0.219638 0.351073
vt 0.222842 0.351073
vt 0.226047 0.351073
vt 0.228336 0.353363
vt 0.177724 0.369457
vt 0.151277 0.370601
vt 0.151277 0.369457
vt 0.151278 0.380450
vt 0.177725 0.379305
vt 0.177725 0.380450
vt 0.187000 0.383752
vt 0.150717 0.384896
vt 0.150717 0.383752
vt 0.177724 0.387277
vt 0.151277 0.388421
vt 0.151277 0.387277
vt 0.209766 0.417969
vt 0.236213 0.419114
vt 0.209766 0.419114
vt 0.269629 0.338968
vt 0.268484 0.302684
vt 0.269629 0.302684
vt 0.189265 0.400277
vt 0.148193 0.394458
vt 0.189265 0.394458
vt 0.187001 0.365887
vt 0.150717 0.367032
vt 0.150717 0.365887
vt 0.179364 0.371517
vt 0.149605 0.371517
vt 0.187916 0.386536
vt 0.149801 0.386536
vt 0.268484 0.338968
vt 0.266844 0.301769
vt 0.165266 0.418960
vt 0.206338 0.424778
vt 0.165266 0.424778
vt 0.151278 0.379305
vt 0.179365 0.378390
vt 0.179364 0.389337
vt 0.149605 0.389337
vt 0.208126 0.420029
vt 0.187916 0.368704
vt 0.149802 0.368704
vt 0.242316 0.386565
vt 0.268764 0.422849
vt 0.242317 0.422849
vt 0.269534 0.384321
vt 0.243087 0.348037
vt 0.269534 0.348037
vt 0.162548 0.403006
vt 0.156730 0.421261
vt 0.156730 0.403006
vt 0.265115 0.302497
vt 0.258495 0.343569
vt 0.258495 0.302497
vt 0.154011 0.403006
vt 0.148193 0.421260
vt 0.148193 0.403006
vt 0.257506 0.301744
vt 0.164513 0.425768
vt 0.266104 0.344322
vt 0.265115 0.343569
vt 0.190018 0.393469
vt 0.207092 0.417971
vt 0.206338 0.418960
vt 0.147439 0.401266
vt 0.148193 0.400277
vt 0.265868 0.301508
vt 0.257742 0.344558
vt 0.207327 0.425532
vt 0.147204 0.393705
vt 0.154011 0.421260
vt 0.147439 0.422250
vt 0.164277 0.418206
vt 0.190254 0.401030
vt 0.163302 0.402017
vt 0.154765 0.402017
vt 0.162548 0.421261
vt 0.155976 0.422250
vt 0.147203 0.402252
vt 0.155000 0.422014
vt 0.155741 0.422014
vt 0.155741 0.402252
vt 0.163537 0.422014
vt 0.164278 0.403600
vt 0.167482 0.406837
vt 0.164278 0.406837
vt 0.171603 0.408780
vt 0.168551 0.409859
vt 0.192478 0.409960
vt 0.189273 0.406722
vt 0.192478 0.406722
vt 0.185152 0.404780
vt 0.188205 0.403701
vt 0.179041 0.403599
vt 0.182279 0.406804
vt 0.179041 0.409093
vt 0.184221 0.410924
vt 0.185300 0.407872
vt 0.170975 0.404780
vt 0.175096 0.406723
vt 0.172806 0.409960
vt 0.178300 0.409960
vt 0.178300 0.406723
vt 0.218651 0.301508
vt 0.149800 0.374819
vt 0.148807 0.356216
vt 0.148807 0.363541
vt 0.148807 0.365143
vt 0.193728 0.385815
vt 0.182342 0.351613
vt 0.217910 0.351613
vt 0.215454 0.301509
vt 0.215454 0.353870
vt 0.191385 0.363541
vt 0.192988 0.392728
vt 0.191385 0.382999
vt 0.191385 0.374071
vt 0.191385 0.356216
vt 0.241575 0.386566
vt 0.147204 0.302994
vt 0.181602 0.351612
vt 0.148570 0.301508
vt 0.148570 0.353098
vt 0.229701 0.348037
vt 0.238083 0.351073
vt 0.228458 0.350327
vt 0.217348 0.353363
vt 0.177724 0.370601
vt 0.187000 0.384896
vt 0.177724 0.388421
vt 0.236213 0.417969
vt 0.187001 0.367032
vt 0.266844 0.339883
vt 0.149606 0.378390
vt 0.237885 0.420029
vt 0.268764 0.386565
vt 0.243087 0.384321
vt 0.257506 0.344322
vt 0.207092 0.425768
vt 0.266104 0.301744
vt 0.147439 0.393469
vt 0.164513 0.417971
vt 0.190018 0.401266
vt 0.257742 0.301508
vt 0.265868 0.344558
vt 0.207327 0.418206
vt 0.147204 0.401030
vt 0.154765 0.422250
vt 0.164277 0.425532
vt 0.190254 0.393705
vt 0.155976 0.402017
vt 0.147439 0.402017
vt 0.163302 0.422250
vt 0.147203 0.422014
vt 0.155000 0.402252
vt 0.163537 0.402252
vt 0.169772 0.403600
vt 0.186984 0.409960
vt 0.182279 0.403599
vt 0.174028 0.403701
vn 0.0000 0.0000 1.0000
vn 0.0000 0.0000 -1.0000
vn -1.0000 0.0000 0.0000
vn 0.0000 1.0000 0.0000
vn 0.0000 -1.0000 -0.0000
vn -0.0000 -0.2854 0.9584
vn 0.0000 -0.2854 -0.9584
vn 0.9785 -0.2060 0.0000
vn -0.9785 -0.2060 -0.0000
vn -0.0000 0.2854 0.9584
vn 0.9785 0.2060 0.0000
vn -0.9785 0.2060 -0.0000
vn 1.0000 0.0000 0.0000
vn -0.0000 -0.6480 0.7616
vn -0.0000 0.6480 0.7616
vn 0.6480 0.0000 0.7616
vn -0.6480 0.0000 0.7616
vn -0.0000 -0.7071 -0.7071
vn 0.7071 -0.7071 0.0000
vn -0.0000 -0.7071 0.7071
vn -0.7071 -0.7071 0.0000
usemtl M_Interior
s 1
f 67/1/1 64/2/1 63/3/1
f 66/4/2 55/5/2 62/6/2
f 65/7/3 62/8/3 64/2/3
f 16/9/1 92/10/1 54/11/1
f 2/12/4 3/13/4 4/14/4
f 27/15/5 25/16/5 26/17/5
f 1/18/6 7/19/6 3/13/6
f 11/20/7 2/12/7 4/14/7
f 7/21/8 4/14/8 3/13/8
f 2/12/9 5/22/9 1/18/9
f 101/23/1 19/24/1 96/25/1
f 91/26/1 54/11/1 12/27/1
f 15/28/1 96/25/1 50/29/1
f 13/30/1 94/31/1 92/10/1
f 15/28/1 16/9/1 14/32/1
f 99/33/1 20/34/1 9/35/1
f 19/24/1 20/34/1 99/33/1
f 7/36/5 6/37/5 11/38/5
f 22/39/4 23/40/4 24/41/4
f 10/42/10 23/40/10 21/43/10
f 26/44/2 22/39/2 24/41/2
f 23/40/11 26/45/11 24/41/11
f 25/46/12 21/43/12 22/39/12
f 28/47/1 31/48/1 30/49/1
f 28/47/3 102/50/3 29/51/3
f 35/52/3 105/53/3 34/54/3
f 35/52/2 37/55/2 33/56/2
f 38/57/1 40/58/1 41/59/1
f 38/57/13 108/60/13 42/61/13
f 46/62/13 45/63/13 43/64/13
f 46/62/2 48/65/2 47/66/2
f 49/67/4 70/68/4 61/69/4
f 63/70/4 68/71/4 58/72/4
f 58/73/2 69/74/2 59/75/2
f 59/76/5 65/77/5 67/78/5
f 71/79/5 74/80/5 73/81/5
f 71/82/2 72/83/2 49/84/2
f 82/85/1 78/86/1 83/87/1
f 61/88/1 74/89/1 60/90/1
f 70/68/13 54/91/13 55/92/13
f 69/74/3 8/93/3 50/94/3
f 73/95/13 54/96/13 72/83/13
f 84/97/1 76/98/1 85/99/1
f 64/100/3 8/101/3 68/71/3
f 65/77/3 50/102/3 66/103/3
f 74/80/13 9/104/13 73/81/13
f 74/89/13 55/105/13 51/106/13
f 59/107/3 63/108/3 58/109/3
f 60/110/13 49/111/13 61/112/13
f 52/113/1 87/114/1 81/115/1
f 86/116/1 57/117/1 53/118/1
f 89/119/1 80/120/1 88/121/1
f 57/117/14 12/122/14 53/118/14
f 76/98/14 92/123/14 85/99/14
f 86/116/15 93/124/15 75/125/15
f 78/86/14 14/126/14 83/87/14
f 84/97/15 95/127/15 77/128/15
f 82/85/15 96/129/15 79/130/15
f 53/118/16 94/131/16 86/116/16
f 75/125/17 91/132/17 57/117/17
f 77/128/17 13/133/17 76/98/17
f 79/130/17 15/134/17 78/86/17
f 56/135/17 97/136/17 80/120/17
f 85/99/16 16/137/16 84/97/16
f 83/87/16 17/138/16 82/85/16
f 81/115/16 100/139/16 52/113/16
f 88/121/16 99/140/16 89/119/16
f 90/141/17 101/142/17 87/114/17
f 80/120/14 19/143/14 88/121/14
f 89/119/15 18/144/15 56/135/15
f 81/115/14 101/145/14 98/146/14
f 52/113/15 20/147/15 90/141/15
f 32/148/18 104/149/18 102/150/18
f 104/149/19 30/151/19 31/152/19
f 36/153/19 107/154/19 37/155/19
f 107/154/20 34/156/20 105/157/20
f 42/158/18 110/159/18 109/160/18
f 39/161/21 110/159/21 40/162/21
f 47/163/21 112/164/21 111/165/21
f 44/166/20 112/164/20 45/167/20
f 67/1/1 65/7/1 64/2/1
f 66/4/2 51/168/2 55/5/2
f 65/7/3 66/169/3 62/8/3
f 9/35/1 100/170/1 98/171/1
f 17/172/1 14/32/1 9/35/1
f 14/32/1 16/9/1 9/35/1
f 9/35/1 98/171/1 17/172/1
f 12/27/1 54/11/1 94/31/1
f 54/11/1 9/35/1 16/9/1
f 94/31/1 54/11/1 92/10/1
f 2/12/4 1/18/4 3/13/4
f 27/15/5 10/173/5 25/16/5
f 1/18/6 5/174/6 7/19/6
f 11/20/7 6/175/7 2/12/7
f 7/21/8 11/176/8 4/14/8
f 2/12/9 6/177/9 5/22/9
f 17/172/1 98/171/1 101/23/1
f 19/24/1 97/178/1 96/25/1
f 17/172/1 101/23/1 96/25/1
f 91/26/1 8/179/1 54/11/1
f 8/179/1 91/26/1 93/180/1
f 13/30/1 95/181/1 8/179/1
f 95/181/1 15/28/1 50/29/1
f 8/179/1 95/181/1 50/29/1
f 8/179/1 93/180/1 13/30/1
f 18/182/1 50/29/1 97/178/1
f 97/178/1 50/29/1 96/25/1
f 13/30/1 93/180/1 94/31/1
f 15/28/1 95/181/1 16/9/1
f 50/29/1 18/182/1 99/33/1
f 20/34/1 100/170/1 9/35/1
f 50/29/1 99/33/1 9/35/1
f 19/24/1 101/23/1 20/34/1
f 7/36/5 5/183/5 6/37/5
f 22/39/4 21/43/4 23/40/4
f 10/42/10 27/184/10 23/40/10
f 26/44/2 25/185/2 22/39/2
f 23/40/11 27/186/11 26/45/11
f 25/46/12 10/187/12 21/43/12
f 28/47/1 29/51/1 31/48/1
f 28/47/3 32/188/3 102/50/3
f 35/52/3 33/56/3 105/53/3
f 35/52/2 36/189/2 37/55/2
f 38/57/1 39/190/1 40/58/1
f 38/57/13 41/59/13 108/60/13
f 46/62/13 44/191/13 45/63/13
f 46/62/2 43/64/2 48/65/2
f 49/67/4 72/192/4 70/68/4
f 63/70/4 64/100/4 68/71/4
f 58/73/2 68/193/2 69/74/2
f 59/76/5 69/194/5 65/77/5
f 71/79/5 60/195/5 74/80/5
f 71/82/2 73/95/2 72/83/2
f 82/85/1 79/130/1 78/86/1
f 61/88/1 70/196/1 74/89/1
f 70/68/13 72/192/13 54/91/13
f 69/74/3 68/193/3 8/93/3
f 73/95/13 9/197/13 54/96/13
f 84/97/1 77/128/1 76/98/1
f 64/100/3 62/198/3 8/101/3
f 65/77/3 69/194/3 50/102/3
f 74/80/13 51/199/13 9/104/13
f 74/89/13 70/196/13 55/105/13
f 59/107/3 67/200/3 63/108/3
f 60/110/13 71/201/13 49/111/13
f 52/113/1 90/141/1 87/114/1
f 86/116/1 75/125/1 57/117/1
f 89/119/1 56/135/1 80/120/1
f 57/117/14 91/202/14 12/122/14
f 76/98/14 13/203/14 92/123/14
f 86/116/15 94/204/15 93/124/15
f 78/86/14 15/205/14 14/126/14
f 84/97/15 16/206/15 95/127/15
f 82/85/15 17/207/15 96/129/15
f 53/118/16 12/208/16 94/131/16
f 75/125/17 93/209/17 91/132/17
f 77/128/17 95/210/17 13/133/17
f 79/130/17 96/211/17 15/134/17
f 56/135/17 18/212/17 97/136/17
f 85/99/16 92/213/16 16/137/16
f 83/87/16 14/214/16 17/138/16
f 81/115/16 98/215/16 100/139/16
f 88/121/16 19/216/16 99/140/16
f 90/141/17 20/217/17 101/142/17
f 80/120/14 97/218/14 19/143/14
f 89/119/15 99/219/15 18/144/15
f 81/115/14 87/114/14 101/145/14
f 52/113/15 100/220/15 20/147/15
f 32/148/18 103/221/18 104/149/18
f 104/149/19 103/221/19 30/151/19
f 36/153/19 106/222/19 107/154/19
f 107/154/20 106/222/20 34/156/20
f 42/158/18 108/223/18 110/159/18
f 39/161/21 109/160/21 110/159/21
f 47/163/21 48/224/21 112/164/21
f 44/166/20 111/165/20 112/164/20
