# Blender v3.0.1 OBJ File: 'props.blend'
# www.blender.org
mtllib Fridge.mtl
o Fridge_LOD0_Fridge01.001
v -0.412226 1.973823 -0.405478
v -0.402646 0.029700 -0.398999
v -0.417848 0.014429 -0.399052
v -0.402789 0.029770 -0.377688
v -0.429266 0.010448 0.470991
v -0.423585 1.990768 0.464497
v -0.423585 0.007647 -0.377681
v -0.417904 1.987967 -0.384177
v -0.402789 0.029770 -0.377688
v -0.402646 0.029700 -0.398999
v -0.429266 0.010448 0.470991
v 0.419420 0.008032 0.476682
v -0.423585 1.990768 0.464497
v 0.425101 1.988350 0.470186
v -0.423585 0.007647 -0.377681
v -0.429266 0.010448 0.470991
v 0.425101 0.005231 -0.371992
v 0.419420 0.008032 0.476682
v 0.419420 0.008032 0.476682
v 0.425101 1.988350 0.470186
v 0.425101 0.005231 -0.371992
v 0.430782 1.985549 -0.378487
v 0.410978 1.956234 -0.378596
v -0.397257 1.958535 -0.384014
v 0.421226 0.011782 -0.471844
v 0.426848 1.971177 -0.478270
v 0.420702 0.012039 -0.393429
v 0.426322 1.971436 -0.399855
v -0.417848 0.014429 -0.399052
v 0.420702 0.012039 -0.393429
v 0.405589 0.027398 -0.393581
v -0.417848 0.014429 -0.399052
v -0.412226 1.973823 -0.405478
v -0.417323 0.014170 -0.477465
v -0.411702 1.973564 -0.483891
v -0.417323 0.014170 -0.477465
v -0.411702 1.973564 -0.483891
v 0.421226 0.011782 -0.471844
v 0.426848 1.971177 -0.478270
v 0.420702 0.012039 -0.393429
v -0.417848 0.014429 -0.399052
v 0.421226 0.011782 -0.471844
v -0.417323 0.014170 -0.477465
v -0.412226 1.973823 -0.405478
v 0.426322 1.971436 -0.399855
v -0.411702 1.973564 -0.483891
v 0.426848 1.971177 -0.478270
v 0.411121 1.956165 -0.399907
v 0.425101 0.005231 -0.371992
v 0.426322 1.971436 -0.399855
v 0.420702 0.012039 -0.393429
v 0.405589 0.027398 -0.393581
v -0.397257 1.958535 -0.384014
v -0.397114 1.958464 -0.405326
v -0.417904 1.987967 -0.384177
v -0.423585 0.007647 -0.377681
v 0.425101 0.005231 -0.371992
v 0.405446 0.027469 -0.372270
v -0.423585 0.007647 -0.377681
v 0.430782 1.985549 -0.378487
v -0.417904 1.987967 -0.384177
v 0.340574 1.173448 -0.471844
v 0.347641 1.672941 -0.530556
v 0.348150 1.672134 -0.473438
v 0.321932 1.672209 -0.473613
v 0.323062 1.673011 -0.530721
v 0.321591 1.696140 -0.473694
v 0.327367 1.174292 -0.529046
v 0.326647 1.173487 -0.471935
v 0.327411 1.189607 -0.529097
v 0.340520 1.189570 -0.529010
v 0.326283 1.189761 -0.471992
v 0.323129 1.695984 -0.530796
v 0.348628 1.696063 -0.473513
v 0.347707 1.695915 -0.530632
v 0.340475 1.174255 -0.528959
v 0.340621 1.189720 -0.471896
v 0.351187 1.736064 -0.543856
v 0.342517 1.141661 -0.541954
v 0.324815 1.141754 -0.528957
v 0.342430 1.141705 -0.528838
v 0.351099 1.736108 -0.530741
v 0.319966 1.736196 -0.530950
v 0.320054 1.736153 -0.544064
v 0.324904 1.141710 -0.542071
v 0.430782 1.985549 -0.378487
v 0.411121 1.956165 -0.399907
v 0.405589 0.027398 -0.393581
v 0.420702 0.012039 -0.393429
v 0.426322 1.971436 -0.399855
v 0.405446 0.027469 -0.372270
v 0.410978 1.956234 -0.378596
v -0.412226 1.973823 -0.405478
v 0.426322 1.971436 -0.399855
v 0.411121 1.956165 -0.399907
v -0.397114 1.958464 -0.405326
v 0.330579 0.836432 -0.471844
v 0.323512 0.508361 -0.530556
v 0.323003 0.508892 -0.473438
v 0.349221 0.508843 -0.473613
v 0.348091 0.508316 -0.530721
v 0.349562 0.493125 -0.473694
v 0.343786 0.835878 -0.529046
v 0.344506 0.836406 -0.471935
v 0.343743 0.825819 -0.529097
v 0.330633 0.825843 -0.529010
v 0.344870 0.825718 -0.471992
v 0.348024 0.493227 -0.530796
v 0.322525 0.493175 -0.473513
v 0.323446 0.493272 -0.530632
v 0.330678 0.835902 -0.528959
v 0.330532 0.825745 -0.471896
v 0.319966 0.466902 -0.543856
v 0.328635 0.857310 -0.541954
v 0.346338 0.857249 -0.528957
v 0.328723 0.857282 -0.528838
v 0.320054 0.466873 -0.530741
v 0.351187 0.466815 -0.530950
v 0.351099 0.466843 -0.544064
v 0.346249 0.857278 -0.542071
v 0.351187 1.736064 -0.543856
v 0.342517 1.141661 -0.541954
v 0.324815 1.141754 -0.528957
v 0.342430 1.141705 -0.528838
v 0.351099 1.736108 -0.530741
v 0.319966 1.736196 -0.530950
v 0.320054 1.736153 -0.544064
v 0.324904 1.141710 -0.542071
v 0.347641 1.672941 -0.530556
v 0.348150 1.672134 -0.473438
v 0.321932 1.672209 -0.473613
v 0.323062 1.673011 -0.530721
v 0.321591 1.696140 -0.473694
v 0.323129 1.695984 -0.530796
v 0.348628 1.696063 -0.473513
v 0.347707 1.695915 -0.530632
v 0.340574 1.173448 -0.471844
v 0.327367 1.174292 -0.529046
v 0.326647 1.173487 -0.471935
v 0.327411 1.189607 -0.529097
v 0.340520 1.189570 -0.529010
v 0.326283 1.189761 -0.471992
v 0.340475 1.174255 -0.528959
v 0.340621 1.189720 -0.471896
v 0.330579 0.836432 -0.471844
v 0.343786 0.835878 -0.529046
v 0.344506 0.836406 -0.471935
v 0.343743 0.825819 -0.529097
v 0.330633 0.825843 -0.529010
v 0.344870 0.825718 -0.471992
v 0.330678 0.835902 -0.528959
v 0.330532 0.825745 -0.471896
v 0.323512 0.508361 -0.530556
v 0.323003 0.508892 -0.473438
v 0.349221 0.508843 -0.473613
v 0.348091 0.508316 -0.530721
v 0.349562 0.493125 -0.473694
v 0.348024 0.493227 -0.530796
v 0.322525 0.493175 -0.473513
v 0.323446 0.493272 -0.530632
v 0.319966 0.466902 -0.543856
v 0.328635 0.857310 -0.541954
v 0.346338 0.857249 -0.528957
v 0.328723 0.857282 -0.528838
v 0.320054 0.466873 -0.530741
v 0.351187 0.466815 -0.530950
v 0.351099 0.466843 -0.544064
v 0.346249 0.857278 -0.542071
v 0.425101 1.988350 0.470186
v -0.423585 1.990768 0.464497
v 0.430782 1.985549 -0.378487
v -0.417904 1.987967 -0.384177
vt 0.226014 0.122058
vt 0.291704 0.122058
vt 0.292225 0.122575
vt 0.225493 0.122575
vt 0.225259 0.028917
vt 0.292704 0.028917
vt 0.225259 0.057821
vt 0.292704 0.057821
vt 0.195863 0.030398
vt 0.195863 0.029672
vt 0.223390 0.029672
vt 0.223390 0.030398
vt 0.225259 0.028917
vt 0.225259 0.000012
vt 0.292704 0.028917
vt 0.292704 0.000012
vt 0.195904 0.038509
vt 0.224809 0.038509
vt 0.195904 0.067413
vt 0.224809 0.067413
vt 0.292704 0.057821
vt 0.292704 0.086726
vt 0.225259 0.057821
vt 0.225259 0.086726
vt 0.195898 0.032646
vt 0.195898 0.031920
vt 0.223425 0.031920
vt 0.223425 0.032646
vt 0.225972 0.115285
vt 0.292704 0.115285
vt 0.225972 0.117956
vt 0.292704 0.117956
vt 0.223907 0.030919
vt 0.195347 0.030920
vt 0.225972 0.117956
vt 0.292704 0.117956
vt 0.225972 0.120626
vt 0.292704 0.120626
vt 0.225972 0.086726
vt 0.292704 0.086726
vt 0.225972 0.115285
vt 0.292704 0.115285
vt 0.223751 0.035838
vt 0.195192 0.035838
vt 0.223751 0.033167
vt 0.195192 0.033167
vt 0.223751 0.038509
vt 0.195192 0.038509
vt 0.223751 0.035838
vt 0.195192 0.035838
vt 0.292182 0.124488
vt 0.292704 0.125004
vt 0.226493 0.124488
vt 0.225972 0.125004
vt 0.226015 0.121333
vt 0.291704 0.121333
vt 0.195192 0.028917
vt 0.224096 0.028917
vt 0.225259 0.120626
vt 0.292704 0.120626
vt 0.223941 0.033167
vt 0.195382 0.033167
vt 0.215265 0.069947
vt 0.217203 0.069412
vt 0.217211 0.069926
vt 0.213314 0.070054
vt 0.215240 0.069469
vt 0.215258 0.069991
vt 0.215296 0.070867
vt 0.217211 0.069926
vt 0.217239 0.070762
vt 0.219590 0.069273
vt 0.219814 0.080881
vt 0.219424 0.080876
vt 0.215272 0.068519
vt 0.217203 0.069412
vt 0.215258 0.069411
vt 0.220739 0.080880
vt 0.220893 0.069270
vt 0.221129 0.080874
vt 0.213300 0.068472
vt 0.215237 0.069023
vt 0.213292 0.069026
vt 0.213292 0.067999
vt 0.212786 0.069933
vt 0.212804 0.067988
vt 0.223546 0.069803
vt 0.222836 0.087302
vt 0.223028 0.069803
vt 0.223932 0.069798
vt 0.225055 0.087276
vt 0.224138 0.087298
vt 0.220739 0.081270
vt 0.219814 0.080881
vt 0.220739 0.080880
vt 0.219979 0.068887
vt 0.220503 0.069277
vt 0.219979 0.069277
vt 0.217289 0.067984
vt 0.219197 0.068852
vt 0.217252 0.068798
vt 0.224096 0.030920
vt 0.195192 0.030920
vt 0.226014 0.123817
vt 0.291704 0.123817
vt 0.225259 0.124488
vt 0.292704 0.124488
vt 0.226014 0.123091
vt 0.291704 0.123091
vt 0.225493 0.122575
vt 0.292225 0.122575
vt 0.213292 0.069026
vt 0.215240 0.069469
vt 0.213295 0.069500
vt 0.217252 0.068798
vt 0.219184 0.069689
vt 0.217239 0.069691
vt 0.215295 0.067984
vt 0.217217 0.068575
vt 0.215272 0.068519
vt 0.222641 0.069799
vt 0.222836 0.087302
vt 0.222450 0.087298
vt 0.223546 0.069803
vt 0.224138 0.087298
vt 0.223752 0.087302
vt 0.213314 0.067984
vt 0.215245 0.068501
vt 0.213300 0.068472
vt 0.217290 0.071426
vt 0.219199 0.070472
vt 0.219232 0.071308
vt 0.212804 0.067988
vt 0.212443 0.069929
vt 0.212439 0.067984
vt 0.211601 0.067999
vt 0.211997 0.069932
vt 0.211654 0.069943
vt 0.220893 0.069270
vt 0.222053 0.080836
vt 0.221129 0.080874
vt 0.223752 0.087689
vt 0.223752 0.087302
vt 0.223028 0.069417
vt 0.212439 0.067984
vt 0.211997 0.069932
vt 0.211965 0.067987
vt 0.217253 0.070506
vt 0.219184 0.069689
vt 0.219199 0.070472
vt 0.225259 0.000012
vt 0.225259 0.028917
vt 0.196354 0.000012
vt 0.196354 0.028917
vt 0.215258 0.069411
vt 0.213295 0.069500
vt 0.215265 0.069947
vt 0.219979 0.069277
vt 0.217217 0.068575
vt 0.220503 0.069277
vt 0.215245 0.068501
vt 0.213232 0.069943
vt 0.224451 0.069786
vt 0.219814 0.081270
vt 0.220503 0.068887
vt 0.219232 0.068071
vt 0.215237 0.069023
vt 0.219197 0.068852
vt 0.217239 0.068061
vt 0.223028 0.069803
vt 0.223932 0.069798
vt 0.215258 0.068055
vt 0.217253 0.070506
vt 0.212786 0.069933
vt 0.211965 0.067987
vt 0.221416 0.069249
vt 0.222836 0.087689
vt 0.223546 0.069417
vt 0.212443 0.069929
vt 0.217239 0.069691
vn -0.5595 0.0043 0.8288
vn -0.5594 0.0043 0.8289
vn -0.0067 0.0033 1.0000
vn -0.0068 0.0033 1.0000
vn -1.0000 0.0028 -0.0067
vn -0.0072 -0.5528 0.8333
vn 0.0039 -0.5690 -0.8223
vn 0.0039 -0.5648 -0.8252
vn -0.0029 -1.0000 0.0033
vn 1.0000 -0.0028 0.0067
vn -0.0040 0.5583 0.8296
vn 0.0071 0.5823 -0.8130
vn 0.0071 0.5864 -0.8100
vn -0.0040 0.5582 0.8297
vn -0.0067 0.0032 1.0000
vn -0.0067 0.0034 1.0000
vn 0.0067 -0.0033 -1.0000
vn 0.0029 1.0000 -0.0033
vn 0.0068 -0.0033 -1.0000
vn -0.5457 -0.0012 -0.8380
vn -0.5244 -0.0013 -0.8515
vn 0.0067 -0.0066 -1.0000
vn 0.0032 -0.0033 -1.0000
vn -0.9996 0.0262 -0.0103
vn -0.9998 0.0089 -0.0149
vn -0.9999 0.0045 -0.0161
vn 1.0000 -0.0029 -0.0018
vn 1.0000 -0.0030 -0.0018
vn -0.0019 -1.0000 -0.0017
vn 0.9999 0.0125 -0.0068
vn 0.9999 0.0125 -0.0067
vn 0.0018 1.0000 -0.0093
vn -0.9997 0.0222 0.0067
vn -0.9997 -0.0182 -0.0141
vn -0.9998 -0.0016 -0.0185
vn -0.9997 -0.0224 -0.0129
vn -0.0068 -0.7021 0.7121
vn -0.0027 0.7119 0.7023
vn -0.0068 -0.7023 0.7119
vn 0.0027 -0.7068 -0.7074
vn 0.0067 0.7073 -0.7069
vn 0.0067 0.7074 -0.7068
vn -0.0060 -0.7092 -0.7050
vn 0.0034 -0.7128 0.7013
vn 0.0034 -0.7142 0.6999
vn -0.0034 0.7065 -0.7077
vn 0.0061 0.6999 0.7142
vn 0.0061 0.7013 0.7128
vn -0.9997 -0.0101 -0.0217
vn -0.9997 -0.0015 -0.0252
vn -0.9997 -0.0143 -0.0200
vn 0.0067 -0.0008 -1.0000
vn 0.5531 -0.0043 -0.8331
vn 0.5324 -0.0043 -0.8465
vn 0.0104 -0.0033 -0.9999
vn 0.5482 0.0012 0.8363
vn -0.0027 -0.9999 -0.0141
vn -0.0028 -0.9999 -0.0141
vn 0.9996 0.0175 -0.0211
vn 0.9997 0.0002 -0.0257
vn 0.9996 0.0218 -0.0200
vn -0.9999 -0.0082 -0.0068
vn -0.9999 -0.0082 -0.0067
vn 0.9999 -0.0146 0.0067
vn 0.0029 1.0000 -0.0026
vn 0.0028 1.0000 -0.0026
vn 0.0028 1.0000 -0.0027
vn 0.9995 0.0298 -0.0137
vn 0.9998 0.0002 -0.0189
vn 0.9993 0.0340 -0.0129
vn -1.0000 0.0044 -0.0018
vn -1.0000 0.0045 -0.0018
vn -0.0034 0.7051 -0.7091
vn -0.0060 -0.7078 -0.7064
vn -0.0027 0.7121 0.7021
vn 0.0027 -0.7070 -0.7072
vn 0.9998 -0.0159 -0.0109
vn 0.9999 -0.0072 -0.0144
vn 0.9999 -0.0029 -0.0161
vn -0.9995 0.0304 -0.0092
vn -0.9998 0.0028 -0.0197
vn -0.9996 0.0028 -0.0269
vn 0.9996 -0.0043 -0.0269
vn 0.9998 -0.0043 -0.0197
vn 0.9998 -0.0200 -0.0092
usemtl M_Interior
s 1
f 2/1/1 54/2/2 1/3/3
f 3/4/4 2/1/1 1/3/3
f 5/5/5 6/6/5 7/7/5
f 6/6/5 8/8/5 7/7/5
f 31/9/6 58/10/7 9/11/8
f 10/12/6 31/9/6 9/11/8
f 11/13/3 12/14/3 13/15/3
f 12/14/3 14/16/3 13/15/3
f 15/17/9 17/18/9 16/19/9
f 16/19/9 17/18/9 18/20/9
f 19/21/10 21/22/10 20/23/10
f 20/23/10 21/22/10 22/24/10
f 96/25/11 24/26/12 23/27/13
f 95/28/14 96/25/11 23/27/13
f 25/29/10 26/30/10 27/31/10
f 26/30/10 28/32/10 27/31/10
f 10/12/6 29/33/15 30/34/16
f 31/9/6 10/12/6 30/34/16
f 32/35/5 33/36/5 34/37/5
f 33/36/5 35/38/5 34/37/5
f 36/39/17 37/40/17 38/41/17
f 37/40/17 39/42/17 38/41/17
f 40/43/9 41/44/9 42/45/9
f 41/44/9 43/46/9 42/45/9
f 44/47/18 45/48/18 46/49/18
f 45/48/18 47/50/18 46/49/18
f 48/51/19 50/52/19 52/53/19
f 52/53/19 50/52/19 51/54/19
f 2/1/1 4/55/20 53/56/21
f 54/2/2 2/1/1 53/56/21
f 57/57/22 56/58/22 9/11/8
f 58/10/7 57/57/22 9/11/8
f 59/59/23 55/60/23 53/56/21
f 4/55/20 59/59/23 53/56/21
f 96/25/11 95/28/14 94/61/15
f 93/62/3 96/25/11 94/61/15
f 159/63/24 153/64/25 160/65/26
f 144/66/27 143/67/27 141/68/28
f 102/69/29 110/70/29 108/71/29
f 168/72/30 166/73/31 167/74/31
f 100/75/32 98/76/32 99/77/32
f 165/78/33 162/79/33 161/80/33
f 142/81/34 138/82/35 139/83/36
f 112/84/29 105/85/29 107/86/29
f 81/87/37 83/88/38 80/89/39
f 79/90/40 84/91/41 78/92/42
f 113/93/43 118/94/44 117/95/45
f 120/96/46 116/97/47 115/98/48
f 133/99/49 132/100/50 131/101/51
f 60/102/52 23/27/13 24/26/12
f 61/103/52 60/102/52 24/26/12
f 91/104/53 92/105/54 49/106/55
f 49/106/55 92/105/54 86/107/55
f 88/108/56 87/109/56 91/104/53
f 87/109/56 92/105/54 91/104/53
f 89/110/4 90/111/4 88/108/56
f 88/108/56 90/111/4 87/109/56
f 69/112/57 76/113/57 62/114/57
f 65/115/57 63/116/57 64/117/58
f 157/118/59 156/119/60 155/120/61
f 128/121/62 126/122/63 127/123/63
f 124/124/64 121/125/64 125/126/64
f 77/127/65 70/128/66 72/129/65
f 67/130/66 75/131/67 73/132/67
f 150/133/68 146/134/69 147/135/70
f 152/136/71 151/137/72 149/138/72
f 116/97/47 118/94/44 115/98/48
f 114/139/73 119/140/74 113/141/43
f 78/142/42 83/88/38 82/143/75
f 85/144/76 81/87/37 80/89/39
f 104/145/32 111/146/32 97/147/32
f 135/148/77 129/149/78 136/150/79
f 169/151/18 171/152/18 170/153/18
f 170/153/18 171/152/18 172/154/18
f 159/63/24 154/155/80 153/64/25
f 144/66/27 137/156/27 143/67/27
f 102/69/29 109/157/29 110/70/29
f 168/72/30 163/158/30 166/73/31
f 100/75/32 101/159/32 98/76/32
f 165/78/33 164/160/33 162/79/33
f 142/81/34 140/161/81 138/82/35
f 112/84/29 106/162/29 105/85/29
f 81/87/37 82/143/75 83/88/38
f 79/90/40 85/163/76 84/91/41
f 113/93/43 119/164/74 118/94/44
f 120/96/46 114/165/73 116/97/47
f 133/99/49 134/166/82 132/100/50
f 69/112/57 68/167/57 76/113/57
f 65/115/57 66/168/57 63/116/57
f 157/118/59 158/169/83 156/119/60
f 128/121/62 123/170/62 126/122/63
f 124/124/64 122/171/64 121/125/64
f 77/127/65 71/172/66 70/128/66
f 67/130/66 74/173/66 75/131/67
f 150/133/68 148/174/84 146/134/69
f 152/136/71 145/175/71 151/137/72
f 116/97/47 117/95/45 118/94/44
f 114/139/73 120/176/46 119/140/74
f 78/142/42 84/177/41 83/88/38
f 85/144/76 79/178/40 81/87/37
f 104/145/32 103/179/32 111/146/32
f 135/148/77 130/180/85 129/149/78
