# Blender v3.0.1 OBJ File: 'props.blend'
# www.blender.org
mtllib Lamp03.mtl
o Lamp03_LOD0_light_table03.001
v -0.001450 0.164997 0.015771
v 0.026225 0.165114 -0.004304
v 0.026123 0.190547 -0.004295
v 0.015673 0.165082 -0.036805
v -0.018526 0.164946 -0.036833
v -0.029105 0.164894 -0.004332
v -0.006179 0.208817 -0.012803
v -0.000946 0.187419 -0.000507
v -0.001025 0.208834 -0.007644
v 0.011352 0.187478 -0.012793
v 0.004135 0.208855 -0.012803
v -0.000930 0.187432 -0.025070
v -0.001019 0.208838 -0.017952
v -0.013222 0.187378 -0.012812
v 0.057619 0.054652 -0.075632
v 0.053994 0.070583 -0.071042
v 0.001656 0.070385 -0.091826
v -0.051783 0.070175 -0.074083
v -0.081323 0.070037 -0.026152
v -0.073120 0.070054 0.029597
v -0.077802 0.054088 0.031593
v -0.031041 0.070203 0.066968
v 0.025250 0.070427 0.068581
v 0.069394 0.070609 0.033664
v 0.074019 0.054682 0.035903
v 0.080745 0.070672 -0.021497
v -0.117983 0.001882 -0.158984
v 0.004778 0.031300 -0.195441
v 0.122463 0.031745 -0.148760
v 0.160904 0.002887 0.088890
v 0.157086 0.031804 0.086614
v 0.021223 0.052201 -0.017560
v -0.022492 0.098320 -0.017560
v -0.095433 0.080959 -0.030583
v -0.060756 0.081111 -0.086882
v 0.000926 0.162094 -0.081042
v 0.068138 0.162335 -0.021320
v 0.081594 0.081628 0.039644
v 0.020961 0.162120 0.055241
v -0.062639 0.161802 0.022078
v -0.069204 0.044743 0.161869
v -0.072108 0.035855 0.169458
v 0.060711 0.036370 0.173227
v 0.164901 0.036808 0.090775
v 0.196711 0.002978 -0.039445
v 0.191695 0.036960 -0.039389
v 0.131969 0.002763 -0.159394
v 0.128567 0.036750 -0.156335
v 0.005292 0.002283 -0.209611
v 0.005044 0.036270 -0.205301
v -0.124051 0.001756 -0.166690
v -0.121063 0.035773 -0.163424
v -0.190764 0.035458 -0.050313
v -0.171428 0.035491 0.081166
v -0.116140 0.044652 -0.157305
v -0.000528 0.050400 -0.028829
v -0.006163 0.204384 -0.012812
v -0.007614 0.574755 -0.012672
v -0.000885 0.204405 -0.007644
v -0.002336 0.574776 -0.007513
v 0.004158 0.204431 -0.012784
v 0.002700 0.574795 -0.012672
v -0.001004 0.204405 -0.017961
v -0.002454 0.574779 -0.017831
v 0.058151 0.045242 0.165507
v 0.034240 0.072311 0.094068
v 0.158052 0.045657 0.086427
v 0.093713 0.072561 0.046995
v 0.183750 0.045785 -0.038401
v 0.109004 0.072645 -0.027253
v 0.123215 0.045587 -0.150467
v 0.072973 0.072528 -0.094028
v 0.004775 0.045134 -0.197493
v 0.002478 0.072260 -0.121977
v -0.069510 0.071968 -0.098105
v -0.182968 0.044367 -0.048821
v -0.109301 0.071789 -0.033512
v -0.164437 0.044393 0.077211
v -0.098254 0.071812 0.041528
v -0.041572 0.072013 0.091931
v 0.063508 0.081600 -0.083337
v 0.002020 0.081365 -0.107760
v -0.085813 0.080975 0.034895
v 0.086116 0.054750 -0.022831
v 0.182611 0.031944 -0.037356
v 0.026992 0.054482 0.073153
v 0.057805 0.031386 0.165209
v -0.068742 0.030896 0.161631
v -0.032971 0.054253 0.071464
v -0.163368 0.030551 0.077500
v -0.181794 0.030516 -0.047785
v -0.086531 0.054069 -0.027784
v -0.055072 0.054214 -0.078822
v -0.115387 0.030819 -0.155542
v 0.001862 0.054442 -0.097741
v 0.187041 0.003036 -0.038018
v 0.125477 0.002833 -0.152053
v 0.005010 0.002376 -0.199825
v -0.185957 0.001569 -0.048700
v -0.167104 0.001602 0.079533
v -0.070247 0.001956 0.165624
v 0.059303 0.002465 0.169313
v -0.175698 0.001471 0.084170
v -0.073836 0.001842 0.174691
v 0.062374 0.002376 0.178572
v 0.169221 0.002819 0.093956
v -0.195529 0.001436 -0.050668
v 0.058484 0.162282 0.025585
v -0.026862 0.161938 0.053898
v 0.012897 0.052157 0.008010
v -0.000534 0.052122 -0.033419
v -0.017972 0.050326 -0.016208
v -0.022313 0.052031 -0.017579
v -0.011325 0.050349 0.004334
v -0.014012 0.052056 0.008001
v -0.000713 0.098411 -0.033391
v -0.014199 0.098336 0.008001
v 0.012717 0.098448 0.008029
v 0.021043 0.098490 -0.017542
v -0.018620 0.190386 -0.036805
v 0.015571 0.190516 -0.036805
v -0.001551 0.190431 0.015771
v -0.029207 0.190328 -0.004332
v -0.070840 0.070049 0.060801
v 0.024922 0.070420 0.086530
v 0.095090 0.070718 0.015594
v 0.069444 0.070646 -0.079391
v -0.026310 0.070282 -0.105101
v -0.096463 0.069981 -0.035798
v 0.016942 0.050466 -0.016189
v 0.010281 0.050435 0.004334
v -0.069594 0.161794 -0.025256
v -0.044492 0.161909 -0.065986
v 0.045402 0.162261 -0.063420
v 0.029732 0.081407 0.080653
v -0.036385 0.081150 0.078806
v 0.094927 0.081701 -0.025154
v -0.000528 0.050400 -0.028829
v -0.017972 0.050326 -0.016208
v -0.011325 0.050349 0.004334
v 0.016942 0.050466 -0.016189
v 0.010281 0.050435 0.004334
v -0.000349 0.017451 -0.049091
v 0.036323 0.017588 -0.022439
v 0.022291 0.017518 0.020688
v -0.023059 0.017343 0.020669
v -0.037053 0.017302 -0.022476
v -0.025368 -0.008490 -0.018708
v -0.000275 -0.008378 -0.036917
v 0.024789 -0.008291 -0.018670
v 0.015193 -0.008340 0.010809
v -0.015803 -0.008471 0.010781
v -0.000268 -0.020830 -0.010536
vt 0.360472 0.407432
vt 0.361882 0.409551
vt 0.360471 0.409551
vt 0.360472 0.403196
vt 0.361883 0.405313
vt 0.360472 0.405313
vt 0.331457 0.404281
vt 0.333959 0.405986
vt 0.331383 0.405942
vt 0.331376 0.407674
vt 0.334087 0.409371
vt 0.331401 0.409420
vt 0.320484 0.436845
vt 0.320079 0.413888
vt 0.320484 0.413887
vt 0.321791 0.393064
vt 0.320496 0.392472
vt 0.321251 0.391802
vt 0.322192 0.391567
vt 0.320079 0.393441
vt 0.321298 0.394204
vt 0.320079 0.394518
vt 0.340830 0.413494
vt 0.334447 0.417050
vt 0.340343 0.413045
vt 0.346788 0.423098
vt 0.345617 0.426212
vt 0.346071 0.422645
vt 0.352783 0.428490
vt 0.350332 0.430466
vt 0.350301 0.429548
vt 0.347291 0.429279
vt 0.346411 0.426034
vt 0.347794 0.428570
vt 0.339804 0.418977
vt 0.346392 0.414466
vt 0.341256 0.419806
vt 0.354046 0.425879
vt 0.353353 0.429188
vt 0.345721 0.412669
vt 0.353476 0.414325
vt 0.348772 0.421120
vt 0.334579 0.417742
vt 0.326380 0.418684
vt 0.327259 0.416696
vt 0.350377 0.436553
vt 0.342890 0.435340
vt 0.343902 0.433951
vt 0.338780 0.427798
vt 0.340359 0.398271
vt 0.334141 0.393756
vt 0.340939 0.397748
vt 0.358930 0.419264
vt 0.361984 0.427220
vt 0.360346 0.426947
vt 0.356976 0.433913
vt 0.350366 0.438375
vt 0.354011 0.412574
vt 0.360331 0.418311
vt 0.358095 0.435405
vt 0.334445 0.391538
vt 0.342573 0.396253
vt 0.325720 0.393577
vt 0.321979 0.402011
vt 0.320079 0.401290
vt 0.340347 0.427426
vt 0.361881 0.411669
vt 0.360470 0.411669
vt 0.334003 0.407637
vt 0.361881 0.401075
vt 0.361883 0.403195
vt 0.345353 0.405804
vt 0.342325 0.414882
vt 0.351429 0.421067
vt 0.348479 0.420232
vt 0.351701 0.420183
vt 0.327552 0.416047
vt 0.322018 0.410596
vt 0.322699 0.410259
vt 0.343368 0.405756
vt 0.320079 0.411529
vt 0.334038 0.394471
vt 0.326748 0.395470
vt 0.322596 0.402239
vt 0.334988 0.419867
vt 0.333566 0.412353
vt 0.334022 0.402825
vt 0.333965 0.404390
vt 0.320888 0.436845
vt 0.320888 0.413887
vt 0.321697 0.413888
vt 0.321298 0.436845
vt 0.321298 0.413887
vt 0.342512 0.435855
vt 0.354222 0.411917
vt 0.360857 0.417954
vt 0.345427 0.411917
vt 0.321474 0.393345
vt 0.334204 0.404400
vt 0.334204 0.405986
vt 0.342718 0.405747
vt 0.339259 0.418673
vt 0.329560 0.411731
vt 0.329364 0.400276
vt 0.333363 0.399345
vt 0.338370 0.405751
vt 0.337018 0.410016
vt 0.326832 0.408366
vt 0.336340 0.409401
vt 0.333393 0.411402
vt 0.327629 0.404129
vt 0.326781 0.403812
vt 0.336956 0.401490
vt 0.327079 0.396077
vt 0.336262 0.402163
vt 0.337485 0.405768
vt 0.354874 0.426011
vt 0.338197 0.427937
vt 0.329982 0.410861
vt 0.327685 0.407987
vt 0.329822 0.401118
vt 0.333226 0.400332
vt 0.362602 0.427314
vt 0.354217 0.422465
vt 0.358558 0.436042
vt 0.353505 0.422951
vt 0.350533 0.396357
vt 0.346713 0.399940
vt 0.342894 0.396357
vt 0.331547 0.402653
vt 0.334141 0.401239
vt 0.334366 0.409194
vt 0.334249 0.402851
vt 0.358670 0.404660
vt 0.357555 0.406374
vt 0.360335 0.400758
vt 0.350809 0.400760
vt 0.355527 0.391553
vt 0.350360 0.439053
vt 0.362159 0.395062
vt 0.366848 0.391530
vt 0.366848 0.395062
vt 0.366848 0.412727
vt 0.362159 0.416259
vt 0.362159 0.412727
vt 0.366848 0.419793
vt 0.362159 0.423326
vt 0.362159 0.419793
vt 0.362159 0.405660
vt 0.366848 0.409194
vt 0.362159 0.409194
vt 0.362159 0.402128
vt 0.366848 0.405660
vt 0.366848 0.416259
vt 0.366848 0.402128
vt 0.362159 0.398594
vt 0.366848 0.398594
vt 0.349446 0.402127
vt 0.351237 0.403268
vt 0.350104 0.403140
vt 0.348865 0.403608
vt 0.351305 0.405757
vt 0.348420 0.407385
vt 0.349632 0.405367
vt 0.346052 0.410848
vt 0.350564 0.408562
vt 0.349904 0.410848
vt 0.348571 0.404958
vt 0.347506 0.406200
vt 0.345339 0.406742
vt 0.347212 0.404019
vt 0.348379 0.402674
vt 0.347167 0.401815
vt 0.348466 0.400391
vt 0.350825 0.401740
vt 0.361883 0.407432
vt 0.320079 0.436845
vt 0.322186 0.392966
vt 0.321298 0.393752
vt 0.360471 0.401077
vt 0.321697 0.436845
vt 0.334251 0.407614
vt 0.348040 0.391530
vt 0.350074 0.393437
vt 0.349209 0.398925
vt 0.344220 0.398925
vt 0.343354 0.393436
vt 0.345386 0.391530
vt 0.331652 0.401038
vt 0.334366 0.401437
vt 0.358670 0.408088
vt 0.360336 0.394612
vt 0.355530 0.403845
vt 0.350809 0.394615
vt 0.362159 0.391530
vt 0.366848 0.423326
vt 0.350360 0.400337
vn -0.0028 0.5956 0.8033
vn 0.9509 0.0038 0.3095
vn 0.7614 0.5986 0.2489
vn -0.4740 0.5943 -0.6497
vn -0.9512 -0.0036 0.3086
vn -0.7665 0.5925 0.2479
vn 0.5873 0.0021 0.8094
vn 0.8338 -0.4819 -0.2694
vn 0.9513 0.0038 -0.3081
vn 0.0005 0.0005 -1.0000
vn -0.8293 -0.4893 -0.2699
vn -0.9510 -0.0036 -0.3092
vn 0.0002 0.0003 -1.0000
vn 1.0000 0.0039 -0.0041
vn 0.0010 0.0004 -1.0000
vn -0.0018 0.3161 0.9487
vn -0.9500 0.3122 -0.0008
vn -0.0021 0.3161 0.9487
vn 0.9475 0.3198 0.0006
vn -0.0008 0.3156 -0.9489
vn 0.9474 0.3199 -0.0005
vn -0.3375 0.4126 0.8461
vn 0.1828 0.8086 0.5592
vn -0.2208 0.8074 0.5471
vn 0.8357 -0.3026 -0.4583
vn 0.2311 -0.7864 -0.5728
vn 0.5428 -0.7887 -0.2887
vn -0.9361 -0.3266 0.1302
vn -0.5202 -0.7919 -0.3197
vn -0.8069 -0.3056 -0.5055
vn -0.1921 -0.7873 -0.5858
vn 0.3506 -0.2930 -0.8895
vn -0.2979 -0.2930 -0.9085
vn 0.4940 -0.8281 -0.2651
vn 0.7699 -0.6184 0.1578
vn 0.6921 -0.6181 -0.3727
vn -0.6272 -0.3440 0.6988
vn -0.5951 -0.7985 0.0904
vn 0.5493 -0.8281 0.1123
vn 0.4886 -0.6199 0.6141
vn 0.9288 -0.3218 0.1836
vn 0.2860 0.4145 0.8639
vn 0.6927 -0.5802 0.4283
vn 0.7762 0.4113 0.4779
vn -0.6650 -0.6234 -0.4113
vn -0.1727 -0.8303 -0.5298
vn -0.2447 -0.6214 -0.7443
vn 0.2092 -0.8287 -0.5192
vn -0.5841 0.8027 -0.1207
vn -0.5713 0.3914 -0.7215
vn -0.8987 0.3971 -0.1864
vn -0.0199 -0.6220 0.7828
vn -0.3671 -0.8318 0.4164
vn -0.5180 -0.6239 0.5852
vn -0.7728 -0.6244 0.1138
vn -0.4717 -0.8317 -0.2929
vn 0.3495 -0.8286 0.4372
vn -0.0126 -0.8304 0.5570
vn -0.5484 -0.8323 0.0809
vn -0.4998 -0.5930 -0.6313
vn -0.7914 -0.5899 -0.1604
vn 0.0252 -0.5928 -0.8050
vn 0.6082 0.3966 -0.6876
vn 0.5396 -0.5891 -0.6015
vn 0.2915 -0.6190 -0.7293
vn 0.5881 0.0027 -0.8088
vn 0.4699 0.5976 -0.6496
vn 0.0023 -0.4865 -0.8737
vn -0.5872 -0.0013 -0.8095
vn -0.7120 -0.5848 0.3886
vn -0.2973 -0.5806 0.7580
vn 0.5879 -0.3392 0.7343
vn 0.5944 -0.7945 0.1242
vn 0.3732 -0.8001 0.4696
vn 0.4999 0.8092 0.3086
vn 0.9047 0.4042 -0.1347
vn 0.5830 0.8077 -0.0879
vn -0.8053 0.4055 0.4325
vn 0.8036 -0.5840 -0.1147
vn -0.3721 0.8019 -0.4674
vn 0.0248 0.3896 -0.9207
vn 0.3910 0.8059 -0.4446
vn 0.2582 -0.5784 0.7738
vn 0.1296 0.9067 0.4014
vn -0.5121 -0.4884 0.7066
vn 0.5150 -0.4842 0.7073
vn -1.0000 -0.0039 0.0057
vn -1.0000 -0.0039 0.0046
vn 0.0117 -0.0003 0.9999
vn 0.0098 -0.0003 1.0000
vn -0.9501 0.3120 -0.0007
vn 0.2138 -0.9343 0.2853
vn 0.3422 -0.9330 -0.1112
vn -0.5237 0.8047 0.2796
vn 0.3562 0.9077 0.2218
vn 0.0085 0.9071 -0.4209
vn -0.2649 0.9060 -0.3300
vn -0.3757 0.9047 0.2011
vn -0.1594 0.9054 0.3935
vn 0.4137 0.9084 -0.0610
vn -0.2822 0.6490 0.7065
vn 0.2367 0.6513 0.7210
vn 0.5019 0.6538 -0.5663
vn 0.2761 0.9082 -0.3144
vn -0.4167 0.9051 -0.0848
vn 0.0138 0.8021 -0.5971
vn -0.7462 0.6480 -0.1525
vn -0.6707 0.6475 0.3617
vn -0.3929 -0.8031 0.4479
vn 0.6437 0.6530 0.3990
vn 0.7484 0.6541 -0.1100
vn 0.0190 0.6517 -0.7583
vn -0.4739 0.6499 -0.5942
vn -0.0136 -0.8035 0.5951
vn -0.0256 -0.3481 0.9371
vn 0.2044 0.7534 0.6250
vn 0.6486 0.7551 -0.0958
vn 0.0158 0.7527 -0.6582
vn -0.5885 -0.0024 0.8085
vn -0.3323 -0.9366 -0.1117
vn -0.2040 -0.9362 0.2863
vn 0.0039 -1.0000 -0.0003
vn -0.6482 0.7498 -0.1328
vn -0.4118 0.7508 -0.5165
vn -0.2456 0.7516 0.6122
vn -0.5826 0.7502 0.3127
vn 0.4346 0.7542 -0.4923
vn 0.5575 0.7547 0.3458
vn 0.0006 0.0474 -0.9989
vn 0.8079 0.5271 -0.2638
vn 0.9499 0.0503 -0.3084
vn 0.7265 -0.6457 -0.2351
vn 0.4988 0.5248 0.6898
vn -0.5876 0.0442 0.8080
vn 0.5867 0.0486 0.8083
vn -0.9499 0.0434 -0.3095
vn -0.5036 0.5205 0.6895
vn -0.8123 0.5196 -0.2647
vn 0.4495 -0.6469 0.6161
vn -0.4457 -0.6501 0.6155
vn -0.7218 -0.6506 -0.2361
vn 0.0036 -1.0000 -0.0003
vn 0.0031 -0.6477 -0.7619
vn -0.0030 0.5236 -0.8520
vn -0.0005 -0.0000 1.0000
vn 1.0000 0.0039 -0.0058
vn -0.0011 0.3155 -0.9489
vn 0.0037 -0.9363 -0.3511
vn 0.0040 -1.0000 -0.0003
usemtl M_Interior
s 1
f 122/1/1 2/2/2 3/3/3
f 120/4/4 6/5/5 123/6/6
f 118/7/7 32/8/8 119/9/9
f 116/10/10 113/11/11 33/12/12
f 64/13/13 61/14/14 63/15/15
f 9/16/16 14/17/17 8/18/18
f 10/19/19 9/16/16 8/18/18
f 12/20/20 11/21/21 10/22/19
f 42/23/22 65/24/23 41/25/24
f 20/26/25 89/27/26 21/28/27
f 26/29/28 25/30/29 24/31/30
f 86/32/31 22/33/32 23/34/33
f 100/35/34 91/36/35 90/37/36
f 16/38/37 84/39/38 26/29/28
f 24/31/30 86/32/31 23/34/33
f 99/40/39 94/41/40 91/36/35
f 21/28/27 19/42/41 20/26/25
f 43/43/42 106/44/43 44/45/44
f 31/46/45 102/47/46 87/48/47
f 90/37/36 101/49/48 100/35/34
f 76/50/49 52/51/50 53/52/51
f 28/53/52 97/54/53 29/55/54
f 85/56/55 30/57/56 31/46/45
f 28/53/52 27/58/57 98/59/58
f 96/60/59 29/55/54 97/54/53
f 53/52/51 51/61/60 107/62/61
f 52/51/50 49/63/62 51/61/60
f 49/63/62 48/64/63 47/65/64
f 102/47/46 88/66/65 87/48/47
f 3/3/3 4/67/66 121/68/67
f 116/10/10 32/8/8 111/69/68
f 120/4/4 4/70/66 5/71/69
f 42/23/22 103/72/70 104/73/71
f 18/74/72 92/75/73 93/76/74
f 65/24/23 44/45/44 67/77/75
f 67/77/75 46/78/76 69/79/77
f 107/62/61 54/80/78 53/52/51
f 45/81/79 44/45/44 106/44/43
f 55/82/80 50/83/81 52/51/50
f 47/65/64 46/78/76 45/81/79
f 50/83/81 71/84/82 48/64/63
f 41/25/24 54/80/78 42/23/22
f 69/79/77 48/64/63 71/84/82
f 42/23/22 105/85/83 43/43/42
f 66/86/84 41/25/24 65/24/23
f 118/7/7 115/87/85 110/88/86
f 58/89/87 63/15/15 57/90/88
f 61/91/14 60/92/89 59/93/90
f 59/93/90 58/89/87 57/90/88
f 30/57/56 105/94/83 102/47/46
f 98/59/58 51/95/60 49/96/62
f 107/97/61 27/58/57 99/40/39
f 7/98/91 12/20/20 14/17/17
f 32/8/8 131/99/92 130/100/93
f 130/100/93 111/69/68 32/8/8
f 53/52/51 78/101/94 76/50/49
f 103/102/70 99/40/39 100/35/34
f 68/103/95 65/24/23 67/77/75
f 74/104/96 55/82/80 75/105/97
f 79/106/98 41/25/24 80/107/99
f 70/108/100 67/77/75 69/79/77
f 136/109/101 66/86/84 135/110/102
f 84/39/38 31/46/45 25/30/29
f 81/111/103 70/108/100 72/112/104
f 78/101/94 77/113/105 76/50/49
f 76/50/49 75/105/97 55/82/80
f 74/104/96 71/84/82 73/114/106
f 69/79/77 72/112/104 70/108/100
f 34/115/107 79/106/98 83/116/108
f 85/56/55 15/117/109 29/55/54
f 102/47/46 104/118/71 101/49/48
f 38/119/110 66/86/84 68/103/95
f 83/116/108 80/107/99 136/109/101
f 87/48/47 25/30/29 31/46/45
f 137/120/111 68/103/95 70/108/100
f 75/105/97 82/121/112 74/104/96
f 35/122/113 77/113/105 34/115/107
f 98/59/58 47/123/64 97/54/53
f 94/41/40 95/124/114 93/76/74
f 88/66/65 86/32/31 87/48/47
f 91/36/35 93/76/74 92/75/73
f 88/66/65 21/28/27 89/27/26
f 29/55/54 95/124/114 28/53/52
f 90/37/36 92/75/73 21/28/27
f 97/54/53 45/125/79 96/60/59
f 103/102/70 101/49/48 104/118/71
f 72/112/104 82/121/112 81/111/103
f 17/126/115 15/117/109 16/38/37
f 39/127/116 37/128/117 36/129/118
f 117/130/119 113/131/11 115/87/85
f 111/69/68 112/132/120 113/11/11
f 113/131/11 114/133/121 115/87/85
f 120/134/4 122/1/1 121/135/67
f 110/88/86 114/133/121 131/99/92
f 124/136/122 128/137/122 126/138/122
f 17/126/115 93/76/74 95/124/114
f 6/5/5 122/1/1 123/6/6
f 96/60/59 106/139/43 30/57/56
f 39/140/116 136/141/101 135/142/102
f 35/143/113 132/144/123 133/145/124
f 83/146/108 109/147/125 40/148/126
f 134/149/127 82/150/112 36/151/118
f 37/152/117 81/153/103 134/149/127
f 34/154/107 40/148/126 132/144/123
f 133/145/124 82/150/112 35/143/113
f 137/155/111 108/156/128 38/157/110
f 38/157/110 39/140/116 135/142/102
f 143/158/129 141/159/130 144/160/131
f 150/161/132 143/158/129 144/160/131
f 142/162/133 146/163/134 145/164/135
f 144/160/131 142/162/133 145/164/135
f 147/165/136 140/166/137 139/167/138
f 151/168/139 146/163/134 152/169/140
f 145/164/135 150/161/132 144/160/131
f 152/169/140 147/165/136 148/170/141
f 153/171/142 150/161/132 151/168/139
f 153/171/142 149/172/143 150/161/132
f 153/171/142 148/173/141 149/172/143
f 153/171/142 151/168/139 152/169/140
f 153/171/142 152/169/140 148/170/141
f 149/172/143 147/174/136 143/158/129
f 147/174/136 138/175/144 143/158/129
f 122/1/1 1/176/145 2/2/2
f 120/4/4 5/71/69 6/5/5
f 118/7/7 110/88/86 32/8/8
f 116/10/10 111/69/68 113/11/11
f 64/13/13 62/177/146 61/14/14
f 9/16/16 7/98/91 14/17/17
f 10/19/19 11/178/21 9/16/16
f 12/20/20 13/179/147 11/21/21
f 42/23/22 43/43/42 65/24/23
f 20/26/25 22/33/32 89/27/26
f 26/29/28 84/39/38 25/30/29
f 86/32/31 89/27/26 22/33/32
f 100/35/34 99/40/39 91/36/35
f 16/38/37 15/117/109 84/39/38
f 24/31/30 25/30/29 86/32/31
f 99/40/39 27/58/57 94/41/40
f 21/28/27 92/75/73 19/42/41
f 43/43/42 105/85/83 106/44/43
f 31/46/45 30/57/56 102/47/46
f 90/37/36 88/66/65 101/49/48
f 76/50/49 55/82/80 52/51/50
f 28/53/52 98/59/58 97/54/53
f 85/56/55 96/60/59 30/57/56
f 28/53/52 94/41/40 27/58/57
f 96/60/59 85/56/55 29/55/54
f 53/52/51 52/51/50 51/61/60
f 52/51/50 50/83/81 49/63/62
f 49/63/62 50/83/81 48/64/63
f 102/47/46 101/49/48 88/66/65
f 3/3/3 2/2/2 4/67/66
f 116/10/10 119/9/9 32/8/8
f 120/4/4 121/180/67 4/70/66
f 42/23/22 54/80/78 103/72/70
f 18/74/72 19/42/41 92/75/73
f 65/24/23 43/43/42 44/45/44
f 67/77/75 44/45/44 46/78/76
f 107/62/61 103/72/70 54/80/78
f 45/81/79 46/78/76 44/45/44
f 55/82/80 73/114/106 50/83/81
f 47/65/64 48/64/63 46/78/76
f 50/83/81 73/114/106 71/84/82
f 41/25/24 78/101/94 54/80/78
f 69/79/77 46/78/76 48/64/63
f 42/23/22 104/73/71 105/85/83
f 66/86/84 80/107/99 41/25/24
f 118/7/7 117/130/119 115/87/85
f 58/89/87 64/13/13 63/15/15
f 61/91/14 62/181/146 60/92/89
f 59/93/90 60/92/89 58/89/87
f 30/57/56 106/139/43 105/94/83
f 98/59/58 27/58/57 51/95/60
f 107/97/61 51/95/60 27/58/57
f 7/98/91 13/179/147 12/20/20
f 32/8/8 110/88/86 131/99/92
f 130/100/93 56/182/148 111/69/68
f 53/52/51 54/80/78 78/101/94
f 103/102/70 107/97/61 99/40/39
f 68/103/95 66/86/84 65/24/23
f 74/104/96 73/114/106 55/82/80
f 79/106/98 78/101/94 41/25/24
f 70/108/100 68/103/95 67/77/75
f 136/109/101 80/107/99 66/86/84
f 84/39/38 85/56/55 31/46/45
f 81/111/103 137/120/111 70/108/100
f 78/101/94 79/106/98 77/113/105
f 76/50/49 77/113/105 75/105/97
f 74/104/96 72/112/104 71/84/82
f 69/79/77 71/84/82 72/112/104
f 34/115/107 77/113/105 79/106/98
f 85/56/55 84/39/38 15/117/109
f 102/47/46 105/94/83 104/118/71
f 38/119/110 135/110/102 66/86/84
f 83/116/108 79/106/98 80/107/99
f 87/48/47 86/32/31 25/30/29
f 137/120/111 38/119/110 68/103/95
f 75/105/97 35/122/113 82/121/112
f 35/122/113 75/105/97 77/113/105
f 98/59/58 49/96/62 47/123/64
f 94/41/40 28/53/52 95/124/114
f 88/66/65 89/27/26 86/32/31
f 91/36/35 94/41/40 93/76/74
f 88/66/65 90/37/36 21/28/27
f 29/55/54 15/117/109 95/124/114
f 90/37/36 91/36/35 92/75/73
f 97/54/53 47/123/64 45/125/79
f 103/102/70 100/35/34 101/49/48
f 72/112/104 74/104/96 82/121/112
f 17/126/115 95/124/114 15/117/109
f 40/183/126 109/184/125 39/127/116
f 39/127/116 108/185/128 37/128/117
f 37/128/117 134/186/127 36/129/118
f 36/129/118 133/187/124 132/188/123
f 132/188/123 40/183/126 36/129/118
f 40/183/126 39/127/116 36/129/118
f 117/130/119 33/189/12 113/131/11
f 111/69/68 56/182/148 112/132/120
f 113/131/11 112/190/120 114/133/121
f 123/6/6 122/1/1 120/134/4
f 122/1/1 3/191/3 121/135/67
f 110/88/86 115/87/85 114/133/121
f 125/192/149 124/136/122 126/138/122
f 124/136/122 129/193/122 128/137/122
f 126/138/122 128/137/122 127/194/122
f 17/126/115 18/74/72 93/76/74
f 6/5/5 1/176/145 122/1/1
f 96/60/59 45/125/79 106/139/43
f 39/140/116 109/195/125 136/141/101
f 35/143/113 34/154/107 132/144/123
f 83/146/108 136/196/101 109/147/125
f 134/149/127 81/153/103 82/150/112
f 37/152/117 137/155/111 81/153/103
f 34/154/107 83/146/108 40/148/126
f 133/145/124 36/151/118 82/150/112
f 137/155/111 37/152/117 108/156/128
f 38/157/110 108/156/128 39/140/116
f 143/158/129 138/175/144 141/159/130
f 150/161/132 149/172/143 143/158/129
f 142/162/133 140/166/137 146/163/134
f 144/160/131 141/159/130 142/162/133
f 147/165/136 146/163/134 140/166/137
f 151/168/139 145/164/135 146/163/134
f 145/164/135 151/168/139 150/161/132
f 152/169/140 146/163/134 147/165/136
f 149/172/143 148/173/141 147/174/136
f 147/174/136 139/197/138 138/175/144
