# Blender v3.0.1 OBJ File: 'props.blend'
# www.blender.org
mtllib Lamp_bulp.mtl
o Lamp_Bulp_LOD0_Lamp.001
v 0.001124 0.003988 -0.012551
v 0.015038 0.007827 -0.003715
v -0.013376 0.005293 -0.009345
v -0.001035 0.003983 0.007279
v 0.012673 0.017710 0.016739
v 0.023483 0.021646 0.003467
v 0.023529 0.021025 -0.011307
v 0.012501 0.013059 -0.021016
v -0.003039 0.010921 -0.024566
v -0.013812 0.029001 -0.029408
v -0.021994 0.020066 -0.018816
v -0.026501 0.018040 -0.001079
v -0.013505 0.017650 0.018172
v -0.025202 0.034473 0.010607
v -0.001583 0.033268 0.024298
v 0.022024 0.040473 0.009212
v 0.023688 0.039594 -0.011704
v 0.016280 0.035864 -0.024881
v 0.001731 0.033193 -0.031539
v 0.002467 0.060567 -0.018205
v -0.007298 0.060799 -0.018126
v -0.026177 0.036814 -0.015281
v -0.010405 0.060740 0.009097
v 0.009971 0.060658 0.005236
v 0.012927 0.060798 -0.008522
v -0.014781 0.061010 -0.012641
v 0.001640 0.060700 0.012643
v -0.014666 0.060689 0.003719
vt 0.355882 0.290781
vt 0.356309 0.287898
vt 0.358518 0.287870
vt 0.359658 0.286349
vt 0.357651 0.286493
vt 0.359509 0.284015
vt 0.363949 0.284344
vt 0.360904 0.284291
vt 0.362482 0.282865
vt 0.357193 0.284852
vt 0.354969 0.284334
vt 0.356696 0.283069
vt 0.358955 0.282690
vt 0.360580 0.282153
vt 0.356224 0.286345
vt 0.365048 0.282384
vt 0.363396 0.281293
vt 0.361646 0.285097
vt 0.361969 0.281149
vt 0.360503 0.279448
vt 0.358470 0.279636
vt 0.361307 0.287811
vt 0.366952 0.281027
vt 0.364364 0.279561
vt 0.362135 0.279270
vt 0.352853 0.286807
vt 0.354675 0.290814
vt 0.353519 0.291009
vt 0.354794 0.286800
vt 0.358819 0.291191
vt 0.366505 0.276319
vt 0.362699 0.276128
vt 0.360598 0.275518
vt 0.357975 0.290988
vt 0.364819 0.276340
vt 0.360423 0.291655
vn -0.8068 0.4247 -0.4107
vn -0.9092 0.2094 -0.3598
vn -0.8473 0.1398 0.5124
vn -0.4308 -0.4647 0.7736
vn -0.8881 -0.4421 0.1255
vn -0.0184 -0.9054 0.4242
vn 0.1168 -0.9540 -0.2761
vn 0.5969 -0.8013 0.0408
vn -0.4722 -0.8694 -0.1456
vn -0.0790 -0.6369 -0.7669
vn 0.5172 -0.5635 -0.6442
vn -0.7530 -0.3945 -0.5267
vn 0.4895 -0.4258 0.7610
vn 0.9218 -0.2764 0.2717
vn 0.9175 -0.2928 -0.2692
vn 0.6313 0.1351 -0.7637
vn 0.1254 0.0720 -0.9895
vn 0.0037 0.0768 0.9970
vn 0.8344 0.2389 0.4967
vn 0.9397 0.2394 -0.2441
vn -0.3027 0.4129 -0.8590
vn 0.2948 0.4787 -0.8270
vn -0.4368 -0.0353 -0.8988
vn -0.5027 0.4017 0.7655
vn 0.1817 0.4306 0.8841
vn 0.8054 0.5305 -0.2642
vn -0.8624 0.4206 0.2818
vn 0.7252 0.5216 0.4495
usemtl M_Interior
s 1
f 26/1/1 22/2/2 14/3/3
f 13/4/4 12/5/5 4/6/6
f 4/7/6 1/8/7 2/9/8
f 3/10/9 9/11/10 1/12/7
f 1/8/7 9/13/10 8/14/11
f 3/10/9 12/5/5 11/15/12
f 5/16/13 2/9/8 6/17/14
f 4/6/6 5/18/13 13/4/4
f 2/9/8 1/8/7 8/14/11
f 2/9/8 7/19/15 6/17/14
f 7/19/15 8/14/11 18/20/16
f 8/14/11 7/19/15 2/9/8
f 19/21/17 8/14/11 9/13/10
f 11/15/12 9/11/10 3/10/9
f 22/2/2 11/15/12 12/5/5
f 13/4/4 15/22/18 14/3/3
f 15/23/18 5/16/13 16/24/19
f 7/19/15 16/24/19 6/17/14
f 18/20/16 17/25/20 7/19/15
f 19/26/17 21/27/21 20/28/22
f 26/1/1 10/29/23 22/2/2
f 15/22/18 23/30/24 14/3/3
f 15/23/18 16/24/19 27/31/25
f 25/32/26 16/24/19 17/25/20
f 18/20/16 25/32/26 17/25/20
f 20/33/22 18/20/16 19/21/17
f 26/1/1 14/3/3 28/34/27
f 14/3/3 23/30/24 28/34/27
f 16/24/19 24/35/28 27/31/25
f 5/16/13 4/7/6 2/9/8
f 19/21/17 18/20/16 8/14/11
f 19/26/17 9/11/10 10/29/23
f 11/15/12 10/29/23 9/11/10
f 10/29/23 11/15/12 22/2/2
f 14/3/3 22/2/2 12/5/5
f 5/18/13 15/22/18 13/4/4
f 16/24/19 5/16/13 6/17/14
f 7/19/15 17/25/20 16/24/19
f 19/26/17 10/29/23 21/27/21
f 26/1/1 21/27/21 10/29/23
f 25/32/26 24/35/28 16/24/19
f 18/20/16 20/33/22 25/32/26
f 12/5/5 13/4/4 14/3/3
f 3/10/9 1/12/7 4/6/6
f 4/6/6 12/5/5 3/10/9
f 27/36/25 23/30/24 15/22/18
