# Blender v3.0.1 OBJ File: 'props.blend'
# www.blender.org
mtllib Matress_c.mtl
o Matress_c_LOD0_Bed03_LOD0.001
v -0.959004 0.001494 0.420564
v -0.927388 0.001494 0.492209
v -0.853525 0.001494 -0.534045
v -0.894625 0.001494 -0.526299
v -0.929436 0.001494 -0.504302
v -0.952659 0.001494 -0.471403
v 1.055810 0.001494 0.419057
v 1.045798 0.001494 -0.472897
v 0.987538 0.001494 -0.527707
v -0.851355 0.101494 0.521838
v -0.959004 0.101494 0.420564
v -0.892486 0.101494 0.514154
v -0.927388 0.101494 0.492209
v -0.950746 0.101494 0.459345
v -0.960758 0.101494 -0.432610
v -0.853525 0.101494 -0.534045
v -0.952659 0.101494 -0.471403
v -0.929436 0.101494 -0.504302
v -0.894625 0.101494 -0.526299
v 1.055810 0.101494 0.419057
v 0.948577 0.101494 0.520492
v 1.047711 0.101494 0.457850
v 1.024488 0.101494 0.490749
v 0.989677 0.101494 0.512746
v 0.946406 0.101494 -0.535391
v 1.054056 0.101494 -0.434116
v 0.987538 0.101494 -0.527707
v 1.022440 0.101494 -0.505762
v 1.045798 0.101494 -0.472897
v -0.977452 0.051494 0.420602
v -0.950746 0.051494 0.459345
v -0.927388 0.051494 0.492209
v -0.892486 0.051494 0.514154
v -0.851355 0.051494 0.521838
v 1.024488 0.051494 0.490749
v 0.989690 0.063848 0.519382
v 0.948552 0.032405 0.508291
v 0.946360 0.034412 -0.557979
v 1.003693 0.051494 -0.523883
v 1.045556 0.051494 -0.505809
v -0.974745 0.051494 -0.349860
v -0.962402 0.051494 -0.491579
v -0.925696 0.051494 -0.504310
v -0.903722 0.051494 -0.526280
v -0.853504 0.051494 -0.523849
v -0.959881 0.094828 -0.006023
v 0.046441 0.001494 -0.534718
v 0.048611 0.090160 0.521165
v 0.046441 0.082399 -0.534718
v 1.054933 0.101494 -0.007530
v 0.046428 0.042953 -0.540914
v 0.048599 0.041950 0.515064
v 0.498594 0.001494 0.520829
v -0.403542 0.001494 -0.534381
v 0.498594 0.101494 0.520829
v -0.403542 0.108955 -0.534381
v 0.496394 0.038683 -0.549446
v -0.401378 0.046722 0.518451
v 0.496424 0.001494 -0.535054
v -0.401372 0.101494 0.521502
v 0.496424 0.097490 -0.535054
v -0.403538 0.047223 -0.532382
v 0.498575 0.037177 0.511677
v 0.947492 0.089174 -0.007450
v 0.497509 0.114167 -0.007113
v 0.047526 0.089843 -0.006776
v -0.402457 0.074380 -0.006440
v -0.852440 0.094955 -0.006104
v -0.851355 0.001494 0.521838
v -0.950746 0.001494 0.459345
v -0.892486 0.001494 0.514154
v -0.960758 0.001494 -0.432610
v 0.948577 0.001494 0.520492
v 0.989677 0.001494 0.512746
v 1.024488 0.001494 0.490749
v 1.047711 0.001494 0.457850
v 1.054056 0.001494 -0.434116
v 0.946406 0.001494 -0.535391
v 1.022440 0.001494 -0.505762
v 0.048611 0.001494 0.521165
v -0.401372 0.001494 0.521502
vt 0.352362 0.102293
vt 0.310258 0.101804
vt 0.352086 0.097116
vt 0.439850 0.208981
vt 0.481306 0.200045
vt 0.481742 0.206459
vt 0.489946 0.111579
vt 0.490561 0.114940
vt 0.481508 0.106032
vt 0.490666 0.152678
vt 0.499738 0.113047
vt 0.298510 0.110709
vt 0.302183 0.115007
vt 0.297763 0.114898
vt 0.299674 0.106744
vt 0.302711 0.111797
vt 0.306415 0.102802
vt 0.304593 0.108727
vt 0.302706 0.104127
vt 0.307794 0.106835
vt 0.498715 0.109078
vt 0.492636 0.106657
vt 0.490318 0.103908
vt 0.487586 0.097724
vt 0.491725 0.098882
vt 0.482774 0.099662
vt 0.485838 0.103547
vt 0.486898 0.209355
vt 0.482561 0.210161
vt 0.487955 0.203771
vt 0.491315 0.208841
vt 0.492631 0.197680
vt 0.498528 0.196624
vt 0.496899 0.201106
vt 0.489878 0.193733
vt 0.499738 0.192603
vt 0.298159 0.193399
vt 0.292786 0.189346
vt 0.297149 0.181589
vt 0.293631 0.196765
vt 0.293934 0.192924
vt 0.304452 0.200755
vt 0.299514 0.204323
vt 0.301646 0.199502
vt 0.309067 0.202316
vt 0.303620 0.205824
vt 0.301603 0.151405
vt 0.301636 0.188281
vt 0.292884 0.113717
vt 0.306875 0.197010
vt 0.303791 0.194793
vt 0.301986 0.191555
vt 0.490402 0.190336
vt 0.488221 0.196667
vt 0.490435 0.201657
vt 0.485191 0.199029
vt 0.484938 0.106665
vt 0.488166 0.108680
vt 0.309224 0.097076
vt 0.305098 0.098151
vt 0.301197 0.099395
vt 0.294526 0.105512
vt 0.293600 0.109680
vt 0.439985 0.212956
vt 0.351836 0.092777
vt 0.439742 0.096013
vt 0.395592 0.092008
vt 0.439923 0.092422
vt 0.350759 0.212416
vt 0.395388 0.208846
vt 0.395367 0.212998
vt 0.351047 0.207979
vt 0.395391 0.204902
vt 0.395607 0.100744
vt 0.395605 0.096008
vt 0.310337 0.197835
vt 0.307824 0.207168
vt 0.483386 0.096450
vt 0.438607 0.152610
vt 0.395656 0.152556
vt 0.353126 0.152218
vt 0.351419 0.202009
vt 0.311305 0.151572
vt 0.439440 0.102346
vt 0.480612 0.152682
vt 0.311163 0.106297
vt 0.439629 0.203161
vt 0.497506 0.105156
vt 0.298857 0.196898
vn 0.0016 0.7043 0.7099
vn -0.0900 -0.0011 0.9959
vn 0.0040 0.0035 1.0000
vn -0.0095 -0.0604 -0.9981
vn 0.1108 0.7728 -0.6249
vn 0.1961 -0.1050 -0.9750
vn 0.6856 0.6641 0.2982
vn 0.7176 0.6935 0.0637
vn 0.0043 0.6598 0.7514
vn 0.6656 0.7463 -0.0014
vn 0.9948 -0.0000 0.1017
vn -0.8637 -0.0000 0.5040
vn -0.6183 0.7761 0.1238
vn -0.9604 0.0000 0.2785
vn -0.6868 0.0000 0.7268
vn -0.6844 0.6642 0.3006
vn -0.3644 0.0000 0.9312
vn -0.5124 0.6658 0.5423
vn -0.2714 0.6673 0.6936
vn 0.9170 0.0000 0.3988
vn 0.7204 -0.0155 0.6934
vn 0.2904 0.0302 0.9564
vn 0.6888 0.0000 0.7249
vn -0.0302 0.0582 0.9978
vn 0.2795 -0.0319 0.9596
vn 0.4622 -0.2116 -0.8612
vn 0.0786 -0.5640 -0.8220
vn 0.4433 0.0278 -0.8960
vn 0.6070 -0.2331 -0.7598
vn 0.8073 -0.0000 -0.5902
vn 0.9466 -0.1246 -0.2973
vn 0.6724 0.7094 -0.2112
vn 0.9944 -0.0000 -0.1057
vn -0.8151 0.0000 -0.5794
vn -0.9772 -0.1890 -0.0966
vn -0.9999 0.0035 -0.0122
vn -0.6182 -0.1400 -0.7735
vn -0.8847 -0.3121 -0.3463
vn -0.3521 0.0000 -0.9360
vn -0.5384 0.0000 -0.8427
vn -0.0368 -0.0006 -0.9993
vn -0.2863 0.0161 -0.9580
vn -0.5756 0.8177 -0.0017
vn -0.6534 0.7547 -0.0586
vn -0.9491 -0.2455 0.1971
vn -0.2142 0.6633 -0.7170
vn -0.4359 0.7158 -0.5455
vn -0.5888 0.7747 -0.2305
vn 0.7173 0.6935 -0.0666
vn 0.4131 0.7496 -0.5171
vn 0.2411 0.6796 -0.6928
vn 0.2570 0.7254 0.6386
vn 0.5250 0.6773 0.5154
vn -0.0887 0.0022 0.9961
vn -0.9156 0.0000 0.4021
vn -0.0103 -0.3669 -0.9302
vn 0.0043 0.0697 0.9976
vn 0.0043 0.0528 0.9986
vn 0.0047 0.1517 0.9884
vn 0.0051 0.2512 0.9679
vn -0.0091 0.0381 -0.9992
vn -0.0143 0.0068 -0.9999
vn -0.0099 -0.1539 -0.9880
vn -0.0064 0.0081 -0.9999
vn -0.0163 0.7527 -0.6581
vn -0.0005 0.6527 0.7576
vn 0.0057 0.0106 0.9999
vn -0.0847 0.6151 -0.7839
vn -0.0980 0.1938 -0.9761
vn 0.0851 0.3659 0.9268
vn -0.0033 1.0000 0.0004
vn -0.0352 0.9992 -0.0167
vn 0.0110 0.9999 0.0014
vn 0.0252 0.7216 -0.6919
vn 0.0163 0.9998 0.0073
vn 0.0018 0.6547 0.7559
vn -0.0283 0.9996 0.0066
vn -0.0577 0.6945 0.7172
vn -0.0199 0.7800 -0.6255
usemtl M_Interior
s 1
f 60/1/1 34/2/2 58/3/3
f 57/4/4 25/5/5 38/6/6
f 22/7/7 20/8/8 21/9/9
f 50/10/10 20/8/8 7/11/11
f 31/12/12 11/13/13 30/14/14
f 32/15/15 14/16/16 31/12/12
f 33/17/17 13/18/18 32/19/15
f 34/2/2 12/20/19 33/17/17
f 7/11/11 22/7/7 76/21/20
f 35/22/21 76/21/20 22/7/7
f 35/23/21 74/24/22 75/25/23
f 37/26/24 74/24/22 36/27/25
f 38/6/6 9/28/26 78/29/27
f 39/30/28 79/31/29 9/28/26
f 40/32/30 8/33/31 79/34/29
f 29/35/32 77/36/33 8/33/31
f 42/37/34 72/38/35 41/39/36
f 42/37/34 5/40/37 6/41/38
f 44/42/39 5/43/37 43/44/40
f 45/45/41 4/46/42 44/42/39
f 46/47/43 15/48/44 41/39/36
f 1/49/45 41/39/36 72/38/35
f 19/50/46 45/45/41 44/42/39
f 18/51/47 44/42/39 43/44/40
f 18/51/47 42/37/34 17/52/48
f 15/48/44 42/37/34 41/39/36
f 29/35/32 26/53/49 77/36/33
f 28/54/50 29/35/32 40/32/30
f 28/54/50 39/55/28 27/56/51
f 25/5/5 39/30/28 38/6/6
f 21/9/9 36/27/25 24/57/52
f 23/58/53 36/27/25 35/23/21
f 22/7/7 23/58/53 35/22/21
f 20/8/8 22/7/7 7/11/11
f 69/59/54 33/17/17 71/60/17
f 71/60/17 32/19/15 2/61/15
f 2/62/15 31/12/12 70/63/55
f 1/49/45 31/12/12 30/14/14
f 59/64/56 38/6/6 78/29/27
f 58/3/3 69/59/54 81/65/57
f 63/66/58 80/67/59 53/68/60
f 54/69/61 51/70/62 47/71/63
f 62/72/64 49/73/65 51/70/62
f 63/66/58 48/74/66 52/75/67
f 21/9/9 63/66/58 37/26/24
f 16/76/68 62/72/64 45/45/41
f 3/77/69 62/72/64 54/69/61
f 37/26/24 53/68/60 73/78/70
f 52/75/67 81/65/57 80/67/59
f 47/71/63 57/4/4 59/64/56
f 49/73/65 57/4/4 51/70/62
f 48/74/66 58/3/3 52/75/67
f 48/74/66 65/79/71 66/80/72
f 67/81/73 49/73/65 56/82/74
f 68/83/75 56/82/74 16/76/68
f 17/52/48 15/48/44 19/50/46
f 55/84/76 64/85/77 65/79/71
f 10/86/78 67/81/73 68/83/75
f 60/1/1 66/80/72 67/81/73
f 66/80/72 61/87/79 49/73/65
f 65/79/71 25/5/5 61/87/79
f 29/35/32 28/54/50 25/5/5
f 10/86/78 11/13/13 13/18/18
f 60/1/1 10/86/78 34/2/2
f 57/4/4 61/87/79 25/5/5
f 50/10/10 64/85/77 20/8/8
f 64/85/77 21/9/9 20/8/8
f 21/9/9 24/57/52 23/58/53
f 23/58/53 22/7/7 21/9/9
f 7/11/11 77/36/33 50/10/10
f 77/36/33 26/53/49 50/10/10
f 31/12/12 14/16/16 11/13/13
f 32/15/15 13/18/18 14/16/16
f 33/17/17 12/20/19 13/18/18
f 34/2/2 10/86/78 12/20/19
f 35/22/21 75/88/23 76/21/20
f 35/23/21 36/27/25 74/24/22
f 37/26/24 73/78/70 74/24/22
f 38/6/6 39/30/28 9/28/26
f 39/55/28 40/32/30 79/34/29
f 40/32/30 29/35/32 8/33/31
f 42/37/34 6/41/38 72/38/35
f 42/37/34 43/89/40 5/40/37
f 44/42/39 4/46/42 5/43/37
f 45/45/41 3/77/69 4/46/42
f 41/39/36 30/14/14 46/47/43
f 30/14/14 11/13/13 46/47/43
f 1/49/45 30/14/14 41/39/36
f 19/50/46 16/76/68 45/45/41
f 18/51/47 19/50/46 44/42/39
f 18/51/47 43/89/40 42/37/34
f 15/48/44 17/52/48 42/37/34
f 28/54/50 40/32/30 39/55/28
f 25/5/5 27/56/51 39/30/28
f 21/9/9 37/26/24 36/27/25
f 23/58/53 24/57/52 36/27/25
f 69/59/54 34/2/2 33/17/17
f 71/60/17 33/17/17 32/19/15
f 2/62/15 32/15/15 31/12/12
f 1/49/45 70/63/55 31/12/12
f 59/64/56 57/4/4 38/6/6
f 58/3/3 34/2/2 69/59/54
f 63/66/58 52/75/67 80/67/59
f 54/69/61 62/72/64 51/70/62
f 62/72/64 56/82/74 49/73/65
f 63/66/58 55/84/76 48/74/66
f 21/9/9 55/84/76 63/66/58
f 16/76/68 56/82/74 62/72/64
f 3/77/69 45/45/41 62/72/64
f 37/26/24 63/66/58 53/68/60
f 52/75/67 58/3/3 81/65/57
f 47/71/63 51/70/62 57/4/4
f 49/73/65 61/87/79 57/4/4
f 48/74/66 60/1/1 58/3/3
f 48/74/66 55/84/76 65/79/71
f 67/81/73 66/80/72 49/73/65
f 68/83/75 67/81/73 56/82/74
f 15/48/44 46/47/43 68/83/75
f 68/83/75 16/76/68 15/48/44
f 16/76/68 19/50/46 15/48/44
f 19/50/46 18/51/47 17/52/48
f 55/84/76 21/9/9 64/85/77
f 10/86/78 60/1/1 67/81/73
f 60/1/1 48/74/66 66/80/72
f 66/80/72 65/79/71 61/87/79
f 65/79/71 64/85/77 25/5/5
f 27/56/51 25/5/5 28/54/50
f 25/5/5 64/85/77 26/53/49
f 64/85/77 50/10/10 26/53/49
f 26/53/49 29/35/32 25/5/5
f 13/18/18 12/20/19 10/86/78
f 10/86/78 68/83/75 11/13/13
f 68/83/75 46/47/43 11/13/13
f 11/13/13 14/16/16 13/18/18
