# Blender v3.0.1 OBJ File: 'props.blend'
# www.blender.org
mtllib Matress_b.mtl
o Matress_b_LOD0_Bed03_LOD0.002
v 0.711234 0.001494 -1.051508
v 0.665153 0.001494 -0.988190
v 1.589726 0.001494 -1.439653
v 1.562389 0.001494 -1.471306
v 1.525885 0.001494 -1.490364
v 1.485773 0.001494 -1.493926
v 1.724285 0.001494 0.690102
v 2.490600 0.001494 0.233546
v 2.508742 0.001494 0.155641
v 0.677711 0.101494 -0.907560
v 0.711234 0.101494 -1.051508
v 0.663702 0.101494 -0.946988
v 0.665153 0.101494 -0.988190
v 0.681844 0.101494 -1.024893
v 1.448159 0.101494 -1.481449
v 1.589726 0.101494 -1.439653
v 1.485773 0.101494 -1.493926
v 1.525885 0.101494 -1.490364
v 1.562389 0.101494 -1.471306
v 1.724285 0.101494 0.690102
v 1.582718 0.101494 0.648305
v 1.686671 0.101494 0.702579
v 1.646559 0.101494 0.699017
v 1.610055 0.101494 0.679959
v 2.494733 0.101494 0.116213
v 2.461210 0.101494 0.260161
v 2.508742 0.101494 0.155641
v 2.507291 0.101494 0.196843
v 2.490600 0.101494 0.233546
v 0.701938 0.051494 -1.067442
v 0.681844 0.051494 -1.024893
v 0.665153 0.051494 -0.988190
v 0.663702 0.051494 -0.946988
v 0.677711 0.051494 -0.907560
v 1.646559 0.051494 0.699017
v 1.604324 0.063848 0.683302
v 1.593257 0.032405 0.642157
v 2.514244 0.034412 0.104830
v 2.513548 0.051494 0.171531
v 2.518939 0.051494 0.216809
v 1.369575 0.051494 -1.451992
v 1.498329 0.051494 -1.512483
v 1.527770 0.051494 -1.487133
v 1.557804 0.051494 -1.479163
v 1.580919 0.051494 -1.434515
v 1.079697 0.094828 -1.266479
v 2.042229 0.001494 -0.661720
v 1.130215 0.090160 -0.129627
v 2.042229 0.082399 -0.661720
v 2.092747 0.101494 0.475132
v 2.047581 0.042953 -0.664842
v 1.135484 0.041950 -0.132701
v 1.356467 0.001494 0.259339
v 1.815977 0.001494 -1.050686
v 1.356467 0.101494 0.259339
v 1.815977 0.108955 -1.050686
v 2.280912 0.038683 -0.280006
v 0.906598 0.046722 -0.520131
v 2.268481 0.001494 -0.272754
v 0.903963 0.101494 -0.518593
v 2.268481 0.097490 -0.272754
v 1.814250 0.047223 -1.049679
v 1.364371 0.037177 0.254728
v 2.038726 0.089174 0.382259
v 1.812474 0.114167 -0.006707
v 1.586222 0.089843 -0.395674
v 1.359970 0.074380 -0.784640
v 1.133718 0.094955 -1.173606
v 0.677711 0.001494 -0.907560
v 0.681844 0.001494 -1.024893
v 0.663702 0.001494 -0.946988
v 1.448159 0.001494 -1.481449
v 1.582718 0.001494 0.648305
v 1.610055 0.001494 0.679959
v 1.646559 0.001494 0.699017
v 1.686671 0.001494 0.702579
v 2.461210 0.001494 0.260161
v 2.494733 0.001494 0.116213
v 2.507291 0.001494 0.196843
v 1.130215 0.001494 -0.129627
v 0.903963 0.001494 -0.518593
v 1.495561 0.101772 0.402173
v 0.002923 0.757423 0.414658
v 0.003261 0.816696 0.393801
v 0.016983 0.819885 -0.394792
v 0.017777 0.754833 -0.438828
v 0.017698 0.789417 -0.435130
v 1.473662 0.090902 -0.387041
v 0.003669 0.822206 0.370227
v 1.449249 0.090902 -0.404419
v 1.489498 0.101772 0.425614
v 1.467142 0.101772 0.442028
v 0.002976 0.791984 0.410749
v 0.017395 0.814232 -0.418332
v 1.478761 0.203809 -0.363371
v 0.115814 0.757471 0.416620
v 1.473662 0.203809 -0.387041
v 1.464395 0.214680 0.441980
v 1.489498 0.214680 0.425614
v 0.116151 0.816744 0.395766
v 0.115867 0.792032 0.412714
v 0.130667 0.754882 -0.436863
v 1.414761 0.090902 -0.408928
v 1.478761 0.090902 -0.363371
v 0.954636 0.216393 -0.428109
v 0.936795 0.117670 0.444878
v 0.407020 0.008810 -0.429260
v 0.963288 0.097041 -0.418182
v 0.936905 0.001494 0.435103
v 0.390152 0.010435 0.424191
v 0.116559 0.822255 0.372192
v 1.414761 0.203810 -0.408926
v 0.130285 0.814280 -0.416368
v 1.449249 0.203809 -0.404419
v 1.495561 0.214680 0.402173
v 0.129873 0.819933 -0.392828
v 0.130588 0.789466 -0.433165
v 0.438746 0.142046 -0.441504
v 0.420768 0.142962 0.437160
v 0.126629 0.595674 0.420407
v 0.158771 0.382659 0.427008
v 0.025414 0.539374 -0.438038
v 0.052683 0.308631 -0.436836
v 0.010208 0.541715 0.415442
v 0.037109 0.311004 0.416638
v 0.137495 0.592825 -0.442231
v 0.173258 0.380048 -0.443436
v 0.303463 0.146848 0.433855
v 0.192818 0.247400 0.429706
v 0.220733 0.174345 0.431411
v 0.090927 0.151368 -0.435748
v 0.194813 0.034131 -0.433504
v 0.117736 0.076928 -0.435064
v 0.179281 0.035689 0.419972
v 0.075417 0.152841 0.417729
v 0.102121 0.078578 0.418411
v 0.208201 0.245955 -0.443796
v 0.319589 0.145851 -0.442929
v 0.236719 0.173079 -0.443869
v 1.429268 0.079512 0.442947
v 1.398765 0.176785 0.444031
v 1.367195 0.176261 0.409495
v 1.309407 0.001494 0.442550
v 1.309373 0.115414 0.445578
v 1.361848 0.015455 0.442924
v 1.354787 0.118540 0.437193
v 1.332835 0.133806 0.420220
v 0.904222 0.027630 -0.398130
v 0.855158 0.179287 -0.402445
v 0.767054 0.125119 -0.432902
v 0.774093 0.001494 -0.421958
v 0.846745 0.011509 -0.420559
vt 0.352362 0.102293
vt 0.310258 0.101804
vt 0.352086 0.097116
vt 0.439850 0.208981
vt 0.481306 0.200045
vt 0.481742 0.206459
vt 0.489946 0.111579
vt 0.490561 0.114940
vt 0.481508 0.106032
vt 0.490666 0.152678
vt 0.499738 0.113047
vt 0.298510 0.110709
vt 0.302183 0.115007
vt 0.297763 0.114898
vt 0.299674 0.106744
vt 0.302711 0.111797
vt 0.306415 0.102802
vt 0.304593 0.108727
vt 0.302706 0.104127
vt 0.307794 0.106835
vt 0.498715 0.109078
vt 0.492636 0.106657
vt 0.490318 0.103908
vt 0.487586 0.097724
vt 0.491725 0.098882
vt 0.482774 0.099662
vt 0.485838 0.103547
vt 0.486898 0.209355
vt 0.482561 0.210161
vt 0.487955 0.203771
vt 0.491315 0.208841
vt 0.492631 0.197680
vt 0.498528 0.196624
vt 0.496899 0.201106
vt 0.489878 0.193733
vt 0.499738 0.192603
vt 0.298159 0.193399
vt 0.292786 0.189346
vt 0.297149 0.181589
vt 0.293631 0.196765
vt 0.293934 0.192924
vt 0.304452 0.200755
vt 0.299514 0.204323
vt 0.301646 0.199502
vt 0.309067 0.202316
vt 0.303620 0.205824
vt 0.301603 0.151405
vt 0.301636 0.188281
vt 0.292884 0.113717
vt 0.306875 0.197010
vt 0.303791 0.194793
vt 0.301986 0.191555
vt 0.490402 0.190336
vt 0.488221 0.196667
vt 0.490435 0.201657
vt 0.485191 0.199029
vt 0.484938 0.106665
vt 0.488166 0.108680
vt 0.309224 0.097076
vt 0.305098 0.098151
vt 0.301197 0.099395
vt 0.294526 0.105512
vt 0.293600 0.109680
vt 0.439985 0.212956
vt 0.351836 0.092777
vt 0.439742 0.096013
vt 0.395592 0.092008
vt 0.439923 0.092422
vt 0.350759 0.212416
vt 0.395388 0.208846
vt 0.395367 0.212998
vt 0.351047 0.207979
vt 0.395391 0.204902
vt 0.395607 0.100744
vt 0.395605 0.096008
vt 0.310337 0.197835
vt 0.307824 0.207168
vt 0.483386 0.096450
vt 0.438607 0.152610
vt 0.395656 0.152556
vt 0.353126 0.152218
vt 0.351419 0.202009
vt 0.311305 0.151572
vt 0.439440 0.102346
vt 0.480612 0.152682
vt 0.311163 0.106297
vt 0.439629 0.203161
vt 0.497506 0.105156
vt 0.298857 0.196898
vt 0.587075 0.621042
vt 0.515157 0.618333
vt 0.591024 0.615246
vt 0.590685 0.618333
vt 0.589178 0.620543
vt 0.518767 0.621042
vt 0.516663 0.620543
vt 0.514817 0.450797
vt 0.515157 0.447711
vt 0.518767 0.445002
vt 0.516663 0.445500
vt 0.587075 0.445002
vt 0.589178 0.445500
vt 0.591024 0.450797
vt 0.590685 0.447711
vt 0.692619 0.515471
vt 0.702699 0.447163
vt 0.702699 0.515471
vt 0.681388 0.562585
vt 0.689907 0.574416
vt 0.681388 0.576036
vt 0.692619 0.519795
vt 0.702699 0.588103
vt 0.692619 0.588103
vt 0.691468 0.491894
vt 0.681388 0.450782
vt 0.691468 0.450782
vt 0.681388 0.447677
vt 0.691468 0.447677
vt 0.681388 0.445002
vt 0.691468 0.445002
vt 0.692619 0.517633
vt 0.702699 0.517633
vt 0.681388 0.615231
vt 0.691468 0.618336
vt 0.681388 0.618336
vt 0.681388 0.621011
vt 0.702699 0.590264
vt 0.702699 0.519795
vt 0.692619 0.517633
vt 0.702699 0.517633
vt 0.669950 0.621011
vt 0.680029 0.618336
vt 0.680029 0.621011
vt 0.669950 0.615231
vt 0.680029 0.615231
vt 0.692619 0.447163
vt 0.702699 0.445002
vt 0.680029 0.445002
vt 0.669950 0.447677
vt 0.669950 0.445002
vt 0.681388 0.499025
vt 0.691468 0.498214
vt 0.691468 0.615231
vt 0.681716 0.598772
vt 0.691468 0.595897
vt 0.592886 0.557969
vt 0.668088 0.527767
vt 0.668088 0.573945
vt 0.669950 0.491894
vt 0.680029 0.538285
vt 0.669950 0.533006
vt 0.680029 0.463519
vt 0.669950 0.463519
vt 0.668088 0.451174
vt 0.664190 0.445405
vt 0.667753 0.448102
vt 0.592886 0.573945
vt 0.668088 0.602191
vt 0.592886 0.451174
vt 0.593221 0.448102
vt 0.596784 0.445405
vt 0.593170 0.467962
vt 0.594708 0.445901
vt 0.666266 0.445901
vt 0.666266 0.620142
vt 0.664190 0.620638
vt 0.667753 0.617942
vt 0.667635 0.467564
vt 0.596784 0.620638
vt 0.594708 0.620142
vt 0.593221 0.617942
vt 0.592886 0.614869
vt 0.680033 0.598722
vt 0.669950 0.595880
vt 0.680029 0.576036
vt 0.680029 0.547434
vt 0.669950 0.549155
vt 0.681388 0.547531
vt 0.691468 0.533006
vt 0.691468 0.549230
vt 0.592893 0.490189
vt 0.592886 0.527767
vt 0.667952 0.518459
vt 0.667793 0.467266
vt 0.671497 0.574413
vt 0.680029 0.562510
vt 0.680029 0.554488
vt 0.670590 0.555538
vt 0.670473 0.561972
vt 0.681388 0.554556
vt 0.690937 0.562045
vt 0.592886 0.518563
vt 0.667876 0.511007
vt 0.592887 0.511571
vt 0.667756 0.502775
vt 0.667497 0.489358
vt 0.592889 0.503578
vt 0.664901 0.612128
vt 0.668023 0.614439
vt 0.680030 0.451211
vt 0.669950 0.449569
vt 0.669950 0.454588
vt 0.667693 0.610726
vt 0.665874 0.609094
vt 0.679110 0.454903
vt 0.681388 0.507944
vt 0.691468 0.502166
vt 0.681388 0.538285
vt 0.691468 0.506118
vt 0.592886 0.566847
vt 0.681388 0.491894
vt 0.691468 0.621011
vt 0.692619 0.590264
vt 0.669950 0.618336
vt 0.692619 0.445002
vt 0.680029 0.447677
vt 0.680029 0.491894
vt 0.690828 0.555594
vn -0.6131 0.7043 0.3578
vn -0.9065 -0.0011 0.4222
vn -0.8627 0.0035 0.5056
vn 0.8584 -0.0604 -0.5094
vn 0.5960 0.7728 -0.2180
vn 0.9416 -0.1050 -0.3200
vn 0.0864 0.6641 0.7426
vn 0.3053 0.6935 0.6526
vn -0.6476 0.6598 0.3811
vn 0.3354 0.7463 0.5749
vn 0.4116 -0.0000 0.9114
vn -0.8695 0.0000 -0.4939
vn -0.4175 0.7761 -0.4725
vn -0.7231 0.0000 -0.6907
vn -0.9734 0.0000 -0.2290
vn -0.6037 0.6642 -0.4409
vn -0.9883 0.0000 0.1525
vn -0.7263 0.6658 -0.1708
vn -0.7361 0.6673 0.1136
vn 0.1156 0.0000 0.9933
vn -0.2379 -0.0155 0.9712
vn -0.6813 0.0302 0.7314
vn -0.2810 0.0000 0.9597
vn -0.8781 0.0582 0.4749
vn -0.6895 -0.0319 0.7236
vn 0.9768 -0.2116 -0.0327
vn 0.7503 -0.5640 -0.3449
vn 0.9974 0.0278 -0.0666
vn 0.9618 -0.2331 0.1434
vn 0.9157 0.0000 0.4018
vn 0.7324 -0.1246 0.6693
vn 0.5202 0.7094 0.4754
vn 0.5908 -0.0000 0.8068
vn 0.0918 -0.0000 -0.9958
vn -0.4072 -0.1890 -0.8936
vn -0.4916 0.0035 -0.8708
vn 0.3585 -0.1400 -0.9230
vn -0.1448 -0.3121 -0.9389
vn 0.6326 0.0000 -0.7745
vn 0.4584 -0.0000 -0.8888
vn 0.8457 -0.0006 -0.5336
vn 0.6847 0.0161 -0.7286
vn -0.2876 0.8177 -0.4987
vn -0.2775 0.7547 -0.5945
vn -0.6471 -0.2455 -0.7218
vn 0.5125 0.6633 -0.5453
vn 0.2528 0.7158 -0.6509
vn -0.0963 0.7747 -0.6249
vn 0.4178 0.6935 0.5869
vn 0.6547 0.7496 0.0976
vn 0.7202 0.6796 -0.1394
vn -0.4231 0.7254 0.5429
vn -0.1820 0.6773 0.7128
vn -0.9059 0.0022 0.4235
vn -0.8075 0.0000 -0.5898
vn 0.7992 -0.3669 -0.4760
vn -0.8605 0.0697 0.5046
vn -0.8614 0.0528 0.5051
vn -0.8524 0.1517 0.5004
vn -0.8345 0.2512 0.4905
vn 0.8595 0.0381 -0.5097
vn 0.8575 0.0068 -0.5144
vn 0.8495 -0.1539 -0.5047
vn 0.8615 0.0081 -0.5076
vn 0.5610 0.7527 -0.3446
vn -0.6554 0.6527 0.3800
vn -0.8619 0.0106 0.5070
vn 0.6354 0.6151 -0.4669
vn 0.7949 0.1938 -0.5749
vn -0.7587 0.3659 0.5390
vn -0.0020 1.0000 -0.0026
vn -0.0033 0.9992 -0.0388
vn 0.0043 0.9999 0.0102
vn 0.6109 0.7216 -0.3257
vn 0.0019 0.9998 0.0177
vn -0.6528 0.6547 0.3812
vn -0.0199 0.9996 -0.0212
vn -0.6492 0.6945 0.3102
vn 0.5309 0.7800 -0.3313
vn 0.7189 -0.6906 -0.0785
vn 0.3921 -0.4932 0.7765
vn 0.0667 -0.4053 -0.9117
vn 0.2758 -0.6565 -0.7021
vn 0.6459 -0.6341 -0.4252
vn 0.7370 -0.6697 0.0918
vn 0.6370 -0.6388 0.4314
vn -0.7132 0.0331 0.7002
vn -0.6688 0.2633 0.6953
vn -0.6835 0.7265 0.0708
vn -0.6418 0.6381 0.4253
vn -0.6806 0.7260 -0.0989
vn -0.6266 0.6355 -0.4512
vn -0.6903 0.0320 -0.7228
vn -0.6442 0.2590 -0.7197
vn 0.7239 0.6857 -0.0761
vn 0.6452 0.2093 -0.7348
vn -0.7190 -0.1324 -0.6823
vn 0.6688 0.1432 -0.7295
vn 0.6738 0.7344 -0.0816
vn 0.1366 -0.3053 -0.9424
vn 0.0708 0.6790 -0.7307
vn 0.2758 0.6565 -0.7021
vn 0.6459 0.6341 -0.4252
vn 0.6867 0.0736 -0.7232
vn 0.6686 0.2595 -0.6968
vn 0.6413 0.6360 -0.4291
vn 0.6662 0.7388 0.1017
vn 0.6261 0.6387 0.4473
vn 0.6440 0.2638 0.7181
vn 0.6439 0.0845 0.7605
vn 0.6483 0.7603 0.0400
vn 0.6284 0.6363 0.4475
vn -0.3643 0.7318 -0.5760
vn 0.3975 -0.6169 -0.6793
vn 0.6788 0.0732 -0.7307
vn -0.7209 -0.0562 -0.6908
vn -0.0068 0.6020 -0.7985
vn 0.0118 0.6746 0.7381
vn -0.0139 0.6456 0.7636
vn -0.0125 -0.0791 0.9968
vn -0.0754 -0.5176 0.8523
vn -0.0455 0.5581 0.8286
vn 0.1492 -0.6247 0.7665
vn -0.1855 0.7005 -0.6891
vn 0.0529 0.7535 0.6553
vn 0.6702 0.0812 0.7377
vn -0.7393 -0.0464 0.6718
vn 0.6442 0.1434 0.7513
vn 0.0942 0.6274 0.7730
vn -0.2515 -0.7297 0.6358
vn 0.1237 0.6253 -0.7705
vn -0.0414 -0.5202 -0.8531
vn -0.2264 -0.7322 -0.6423
vn 0.0417 0.6730 -0.7385
vn -0.7432 -0.1273 0.6568
vn 0.6192 0.2100 0.7566
vn 0.3500 0.3962 0.8488
vn -0.6134 -0.5100 0.6030
vn -0.7245 -0.2115 0.6560
vn 0.3822 0.3940 -0.8359
vn -0.6992 -0.2154 -0.6817
vn -0.5015 0.7929 0.3460
vn -0.3415 0.4265 0.8375
vn 0.4327 -0.6452 0.6297
vn 0.4685 -0.6969 0.5430
vn -0.1038 0.2699 0.9573
vn -0.3742 0.7521 0.5424
vn 0.2791 -0.6028 -0.7475
vn 0.0650 -0.3781 -0.9235
vn -0.5900 -0.5129 -0.6235
usemtl M_Interior
s 1
f 60/1/1 34/2/2 58/3/3
f 57/4/4 25/5/5 38/6/6
f 22/7/7 20/8/8 21/9/9
f 50/10/10 20/8/8 7/11/11
f 31/12/12 11/13/13 30/14/14
f 32/15/15 14/16/16 31/12/12
f 33/17/17 13/18/18 32/19/15
f 34/2/2 12/20/19 33/17/17
f 7/11/11 22/7/7 76/21/20
f 35/22/21 76/21/20 22/7/7
f 35/23/21 74/24/22 75/25/23
f 37/26/24 74/24/22 36/27/25
f 38/6/6 9/28/26 78/29/27
f 39/30/28 79/31/29 9/28/26
f 40/32/30 8/33/31 79/34/29
f 29/35/32 77/36/33 8/33/31
f 42/37/34 72/38/35 41/39/36
f 42/37/34 5/40/37 6/41/38
f 44/42/39 5/43/37 43/44/40
f 45/45/41 4/46/42 44/42/39
f 46/47/43 15/48/44 41/39/36
f 1/49/45 41/39/36 72/38/35
f 19/50/46 45/45/41 44/42/39
f 18/51/47 44/42/39 43/44/40
f 18/51/47 42/37/34 17/52/48
f 15/48/44 42/37/34 41/39/36
f 29/35/32 26/53/49 77/36/33
f 28/54/50 29/35/32 40/32/30
f 28/54/50 39/55/28 27/56/51
f 25/5/5 39/30/28 38/6/6
f 21/9/9 36/27/25 24/57/52
f 23/58/53 36/27/25 35/23/21
f 22/7/7 23/58/53 35/22/21
f 20/8/8 22/7/7 7/11/11
f 69/59/54 33/17/17 71/60/17
f 71/60/17 32/19/15 2/61/15
f 2/62/15 31/12/12 70/63/55
f 1/49/45 31/12/12 30/14/14
f 59/64/56 38/6/6 78/29/27
f 58/3/3 69/59/54 81/65/57
f 63/66/58 80/67/59 53/68/60
f 54/69/61 51/70/62 47/71/63
f 62/72/64 49/73/65 51/70/62
f 63/66/58 48/74/66 52/75/67
f 21/9/9 63/66/58 37/26/24
f 16/76/68 62/72/64 45/45/41
f 3/77/69 62/72/64 54/69/61
f 37/26/24 53/68/60 73/78/70
f 52/75/67 81/65/57 80/67/59
f 47/71/63 57/4/4 59/64/56
f 49/73/65 57/4/4 51/70/62
f 48/74/66 58/3/3 52/75/67
f 48/74/66 65/79/71 66/80/72
f 67/81/73 49/73/65 56/82/74
f 68/83/75 56/82/74 16/76/68
f 17/52/48 15/48/44 19/50/46
f 55/84/76 64/85/77 65/79/71
f 10/86/78 67/81/73 68/83/75
f 60/1/1 66/80/72 67/81/73
f 66/80/72 61/87/79 49/73/65
f 65/79/71 25/5/5 61/87/79
f 29/35/32 28/54/50 25/5/5
f 10/86/78 11/13/13 13/18/18
f 60/1/1 10/86/78 34/2/2
f 57/4/4 61/87/79 25/5/5
f 50/10/10 64/85/77 20/8/8
f 64/85/77 21/9/9 20/8/8
f 21/9/9 24/57/52 23/58/53
f 23/58/53 22/7/7 21/9/9
f 7/11/11 77/36/33 50/10/10
f 77/36/33 26/53/49 50/10/10
f 31/12/12 14/16/16 11/13/13
f 32/15/15 13/18/18 14/16/16
f 33/17/17 12/20/19 13/18/18
f 34/2/2 10/86/78 12/20/19
f 35/22/21 75/88/23 76/21/20
f 35/23/21 36/27/25 74/24/22
f 37/26/24 73/78/70 74/24/22
f 38/6/6 39/30/28 9/28/26
f 39/55/28 40/32/30 79/34/29
f 40/32/30 29/35/32 8/33/31
f 42/37/34 6/41/38 72/38/35
f 42/37/34 43/89/40 5/40/37
f 44/42/39 4/46/42 5/43/37
f 45/45/41 3/77/69 4/46/42
f 41/39/36 30/14/14 46/47/43
f 30/14/14 11/13/13 46/47/43
f 1/49/45 30/14/14 41/39/36
f 19/50/46 16/76/68 45/45/41
f 18/51/47 19/50/46 44/42/39
f 18/51/47 43/89/40 42/37/34
f 15/48/44 17/52/48 42/37/34
f 28/54/50 40/32/30 39/55/28
f 25/5/5 27/56/51 39/30/28
f 21/9/9 37/26/24 36/27/25
f 23/58/53 24/57/52 36/27/25
f 69/59/54 34/2/2 33/17/17
f 71/60/17 33/17/17 32/19/15
f 2/62/15 32/15/15 31/12/12
f 1/49/45 70/63/55 31/12/12
f 59/64/56 57/4/4 38/6/6
f 58/3/3 34/2/2 69/59/54
f 63/66/58 52/75/67 80/67/59
f 54/69/61 62/72/64 51/70/62
f 62/72/64 56/82/74 49/73/65
f 63/66/58 55/84/76 48/74/66
f 21/9/9 55/84/76 63/66/58
f 16/76/68 56/82/74 62/72/64
f 3/77/69 45/45/41 62/72/64
f 37/26/24 63/66/58 53/68/60
f 52/75/67 58/3/3 81/65/57
f 47/71/63 51/70/62 57/4/4
f 49/73/65 61/87/79 57/4/4
f 48/74/66 60/1/1 58/3/3
f 48/74/66 55/84/76 65/79/71
f 67/81/73 66/80/72 49/73/65
f 68/83/75 67/81/73 56/82/74
f 15/48/44 46/47/43 68/83/75
f 68/83/75 16/76/68 15/48/44
f 16/76/68 19/50/46 15/48/44
f 19/50/46 18/51/47 17/52/48
f 55/84/76 21/9/9 64/85/77
f 10/86/78 60/1/1 67/81/73
f 60/1/1 48/74/66 66/80/72
f 66/80/72 65/79/71 61/87/79
f 65/79/71 64/85/77 25/5/5
f 27/56/51 25/5/5 28/54/50
f 25/5/5 64/85/77 26/53/49
f 64/85/77 50/10/10 26/53/49
f 26/53/49 29/35/32 25/5/5
f 13/18/18 12/20/19 10/86/78
f 10/86/78 68/83/75 11/13/13
f 68/83/75 46/47/43 11/13/13
f 11/13/13 14/16/16 13/18/18
f 104/90/80 92/91/81 103/92/82
f 103/92/82 90/93/83 104/90/80
f 90/93/83 88/94/84 104/90/80
f 82/95/85 91/96/86 92/91/81
f 83/97/87 93/98/88 89/99/89
f 93/98/88 84/100/90 89/99/89
f 85/101/91 94/102/92 86/103/93
f 94/102/92 87/104/94 86/103/93
f 95/105/95 82/106/85 104/107/80
f 137/108/96 123/109/97 127/110/98
f 89/111/89 116/112/99 85/113/91
f 108/114/100 112/115/101 103/116/82
f 103/116/82 114/117/102 90/118/83
f 90/118/83 97/119/103 88/120/84
f 97/121/103 104/107/80 88/122/84
f 102/123/104 87/124/94 117/125/105
f 87/124/94 113/126/106 117/125/105
f 113/127/106 85/113/91 116/112/99
f 111/128/107 84/129/90 100/130/108
f 84/131/90 101/132/109 100/133/108
f 101/132/109 83/134/87 96/135/110
f 115/136/111 91/137/86 82/106/85
f 99/138/112 92/139/81 91/140/86
f 149/141/113 108/114/100 148/142/114
f 86/143/93 126/144/115 122/145/116
f 85/101/91 83/97/87 89/99/89
f 150/146/117 119/147/118 106/148/119
f 109/149/120 119/150/118 110/151/121
f 144/152/122 109/149/120 143/153/123
f 96/154/110 111/155/107 101/156/109
f 105/157/124 106/148/119 144/158/122
f 102/159/104 117/160/105 116/161/99
f 126/162/115 102/159/104 116/161/99
f 117/160/105 113/163/106 116/161/99
f 111/155/107 100/164/108 101/156/109
f 99/165/112 115/166/111 98/167/125
f 120/168/126 116/161/99 111/155/107
f 95/169/95 97/170/103 114/171/102
f 114/171/102 112/172/101 95/169/95
f 120/173/126 83/134/87 124/174/127
f 124/174/127 121/175/128 120/173/126
f 110/151/121 128/176/129 134/177/130
f 138/178/131 107/179/132 132/180/133
f 127/110/98 122/145/116 126/144/115
f 120/168/126 127/181/98 126/162/115
f 118/182/134 128/183/129 119/147/118
f 96/154/110 120/184/126 111/155/107
f 125/185/135 129/186/136 121/175/128
f 134/177/130 130/187/137 136/188/138
f 130/187/137 135/189/139 136/188/138
f 132/180/133 139/190/140 138/178/131
f 139/190/140 131/191/141 137/108/96
f 138/192/131 130/193/137 128/183/129
f 139/194/140 129/195/136 130/193/137
f 121/196/128 137/197/96 127/181/98
f 112/172/101 105/157/124 95/169/95
f 98/167/125 142/198/142 141/199/143
f 95/169/95 142/198/142 115/166/111
f 92/139/81 141/200/143 140/201/144
f 145/202/145 144/152/122 143/153/123
f 146/203/146 147/204/147 144/158/122
f 105/157/124 147/204/147 142/198/142
f 142/198/142 146/203/146 141/199/143
f 140/201/144 146/205/146 145/202/145
f 150/206/117 148/142/114 152/207/148
f 118/208/134 151/209/149 107/179/132
f 105/157/124 149/210/113 106/148/119
f 149/210/113 150/146/117 106/148/119
f 104/90/80 82/95/85 92/91/81
f 95/105/95 115/136/111 82/106/85
f 137/108/96 131/191/141 123/109/97
f 89/111/89 111/128/107 116/112/99
f 108/114/100 105/211/124 112/115/101
f 103/116/82 112/115/101 114/117/102
f 90/118/83 114/117/102 97/119/103
f 97/121/103 95/105/95 104/107/80
f 102/123/104 86/143/93 87/124/94
f 87/124/94 94/212/92 113/126/106
f 113/127/106 94/213/92 85/113/91
f 111/128/107 89/111/89 84/129/90
f 84/131/90 93/214/88 101/132/109
f 101/132/109 93/214/88 83/134/87
f 115/136/111 99/215/112 91/137/86
f 99/138/112 98/216/125 92/139/81
f 149/141/113 105/211/124 108/114/100
f 86/143/93 102/123/104 126/144/115
f 85/101/91 86/103/93 83/97/87
f 150/146/117 118/182/134 119/147/118
f 109/149/120 106/217/119 119/150/118
f 144/152/122 106/217/119 109/149/120
f 120/168/126 126/162/115 116/161/99
f 120/173/126 96/135/110 83/134/87
f 124/174/127 125/185/135 121/175/128
f 110/151/121 119/150/118 128/176/129
f 138/178/131 118/208/134 107/179/132
f 127/110/98 123/109/97 122/145/116
f 120/168/126 121/196/128 127/181/98
f 118/182/134 138/192/131 128/183/129
f 125/185/135 135/189/139 129/186/136
f 134/177/130 128/176/129 130/187/137
f 130/187/137 129/186/136 135/189/139
f 132/180/133 133/218/150 139/190/140
f 139/190/140 133/218/150 131/191/141
f 138/192/131 139/194/140 130/193/137
f 139/194/140 137/197/96 129/195/136
f 121/196/128 129/195/136 137/197/96
f 98/167/125 115/166/111 142/198/142
f 95/169/95 105/157/124 142/198/142
f 92/139/81 98/216/125 141/200/143
f 145/202/145 146/205/146 144/152/122
f 105/157/124 144/158/122 147/204/147
f 142/198/142 147/204/147 146/203/146
f 140/201/144 141/200/143 146/205/146
f 152/207/148 151/209/149 150/206/117
f 150/206/117 149/141/113 148/142/114
f 118/208/134 150/206/117 151/209/149
f 143/153/123 152/207/148 145/202/145
f 145/202/145 148/142/114 140/201/144
f 108/114/100 140/201/144 148/142/114
f 122/145/116 83/134/87 86/143/93
f 124/174/127 123/109/97 125/185/135
f 125/185/135 131/191/141 135/189/139
f 135/189/139 133/218/150 136/188/138
f 136/188/138 132/180/133 134/177/130
f 134/177/130 107/179/132 110/151/121
f 143/153/123 151/209/149 152/207/148
f 145/202/145 152/207/148 148/142/114
f 108/114/100 92/139/81 140/201/144
f 122/145/116 124/174/127 83/134/87
f 124/174/127 122/145/116 123/109/97
f 125/185/135 123/109/97 131/191/141
f 135/189/139 131/191/141 133/218/150
f 136/188/138 133/218/150 132/180/133
f 134/177/130 132/180/133 107/179/132
