# Blender v3.0.1 OBJ File: 'props.blend'
# www.blender.org
mtllib Mirror_shelf_a.mtl
o Mirror_Shelf_a_LOD0_mirror03.001
v 0.143976 0.916221 0.490818
v 0.122091 0.906319 0.490827
v 0.163626 0.921847 0.490809
v 0.166500 0.926602 0.490808
v 0.166500 0.926602 0.458628
v 0.163626 0.921847 0.458630
v 0.143976 0.916221 0.458638
v 0.122091 0.906319 0.458647
v 0.102418 0.892977 0.458656
v 0.102418 0.892977 0.490835
v 0.085344 0.876535 0.490843
v 0.085343 0.876535 0.458664
v 0.071269 0.857372 0.458670
v 0.071269 0.857372 0.490850
v 0.060588 0.835966 0.490856
v 0.060588 0.835966 0.458676
v 0.054223 0.816656 0.490859
v 0.054223 0.816656 0.458679
v 0.049329 0.813739 0.490861
v 0.033138 0.813688 0.490868
v 0.049329 0.813739 0.458681
v 0.033138 0.813688 0.458688
v 0.032718 0.947418 0.458683
v 0.102418 0.892977 0.458656
v 0.085343 0.876535 0.458664
v 0.122091 0.906319 0.458647
v 0.143976 0.916221 0.458638
v 0.163626 0.921847 0.458630
v 0.166500 0.926602 0.458628
v 0.166433 0.947838 0.458627
v 0.032719 0.947418 0.490862
v 0.049329 0.813739 0.490861
v 0.033138 0.813688 0.490868
v 0.054223 0.816656 0.490859
v 0.060588 0.835966 0.490856
v 0.071269 0.857372 0.490850
v 0.085344 0.876535 0.490843
v 0.102418 0.892977 0.490835
v 0.122091 0.906319 0.490827
v 0.143976 0.916221 0.490818
v 0.163626 0.921847 0.490809
v 0.166500 0.926602 0.490808
v 0.166433 0.947837 0.490807
v 0.054223 0.816656 0.458679
v 0.049329 0.813739 0.458681
v 0.033138 0.813688 0.458688
v 0.060588 0.835966 0.458676
v 0.071269 0.857372 0.458670
v 0.003138 1.783102 -0.062515
v 0.031622 1.783102 -0.062515
v 0.031622 1.783102 0.498400
v 0.003138 1.783102 0.498400
v 0.003138 1.747550 -0.062515
v 0.031622 1.747551 -0.062515
v 0.031622 1.747551 0.498400
v 0.003138 1.747551 0.498400
v 0.003138 0.802166 0.450790
v 0.031622 0.802166 0.450790
v 0.031622 1.747550 0.450790
v 0.003138 1.747551 0.450790
v 0.003138 0.802166 0.498400
v 0.031622 0.802167 0.498400
v 0.031622 1.747551 0.498400
v 0.003138 1.747551 0.498400
v 0.031622 0.802166 0.450790
v 0.031622 0.802167 0.498400
v 0.003138 0.802166 0.450790
v 0.003138 0.802166 0.498400
v 0.015980 1.779387 0.497840
v 0.018558 0.955893 0.497864
v 0.015976 1.779388 -0.028262
v 0.018557 0.955894 -0.028238
v 0.122090 0.906321 -0.021689
v 0.102411 0.892978 -0.021680
v 0.085342 0.876537 -0.021672
v 0.071268 0.857373 -0.021665
v 0.031622 1.747550 0.450790
v 0.166433 0.947837 0.490807
v 0.166433 0.947838 0.458627
v 0.031622 0.802166 0.450790
v 0.031622 0.802167 0.498400
v 0.031622 1.747551 0.498400
v 0.031622 1.783102 -0.062515
v 0.031622 1.783102 0.498400
v 0.031622 1.747551 -0.062515
v 0.031622 1.747551 0.498400
v 0.003138 1.783102 -0.062515
v 0.031622 1.783102 -0.062515
v 0.003138 1.747550 -0.062515
v 0.031622 1.747551 -0.062515
v 0.031622 1.783102 0.498400
v 0.003138 1.783102 0.498400
v 0.031622 1.747551 0.498400
v 0.003138 1.747551 0.498400
v 0.003138 1.007791 0.450790
v 0.031622 1.007791 0.450790
v 0.031622 1.007791 -0.014904
v 0.003138 1.007791 -0.014904
v 0.031622 0.972239 0.450790
v 0.031622 0.972239 -0.014904
v 0.031622 1.007791 0.450790
v 0.031622 1.007791 -0.014904
v 0.143975 0.916222 -0.021698
v 0.163624 0.921849 -0.021707
v 0.166499 0.926603 -0.021708
v 0.166432 0.947839 -0.021709
v 0.166499 0.926603 -0.053888
v 0.166432 0.947839 -0.053889
v 0.163624 0.921849 -0.053887
v 0.143975 0.916222 -0.053878
v 0.122090 0.906321 -0.053868
v 0.102411 0.892978 -0.053860
v 0.085342 0.876536 -0.053852
v 0.071268 0.857373 -0.053845
v 0.060587 0.835968 -0.053840
v 0.054222 0.816658 -0.053836
v 0.049328 0.813740 -0.053834
v 0.033137 0.813690 -0.053828
v 0.049328 0.813740 -0.021655
v 0.033137 0.813690 -0.021648
v 0.054222 0.816658 -0.021657
v 0.060587 0.835968 -0.021660
v 0.032718 0.947419 -0.021654
v 0.102411 0.892978 -0.021680
v 0.122090 0.906321 -0.021689
v 0.143975 0.916222 -0.021698
v 0.163624 0.921849 -0.021707
v 0.166499 0.926603 -0.021708
v 0.166432 0.947839 -0.021709
v 0.085342 0.876537 -0.021672
v 0.032717 0.947420 -0.053833
v 0.166432 0.947839 -0.053889
v 0.166499 0.926603 -0.053888
v 0.163624 0.921849 -0.053887
v 0.143975 0.916222 -0.053878
v 0.122090 0.906321 -0.053868
v 0.102411 0.892978 -0.053860
v 0.085342 0.876536 -0.053852
v 0.071268 0.857373 -0.053845
v 0.060587 0.835968 -0.053840
v 0.054222 0.816658 -0.053836
v 0.049328 0.813740 -0.053834
v 0.033137 0.813690 -0.053828
v 0.049328 0.813740 -0.021655
v 0.033137 0.813690 -0.021648
v 0.054222 0.816658 -0.021657
v 0.060587 0.835968 -0.021660
v 0.071268 0.857373 -0.021665
v 0.031622 0.802166 -0.014904
v 0.031622 1.747551 -0.062515
v 0.003138 0.802166 -0.062515
v 0.031622 0.802166 -0.062515
v 0.031622 1.747551 -0.062515
v 0.003138 1.747550 -0.062515
v 0.003138 0.802167 -0.014904
v 0.031622 0.802166 -0.014904
v 0.031622 1.747551 -0.014904
v 0.003138 1.747551 -0.014904
v 0.031622 0.802166 -0.062515
v 0.031622 0.802166 -0.062515
v 0.031622 0.802166 -0.014904
v 0.003138 0.802166 -0.062515
v 0.003138 0.802167 -0.014904
v 0.031622 1.747551 -0.014904
v 0.019038 0.802684 0.497868
v 0.003138 0.972239 0.623400
v 0.003138 0.972239 -0.187515
v 0.106083 0.946666 -0.187515
v 0.106083 0.972239 -0.187515
v 0.003138 0.946666 0.623400
v 0.003138 0.946666 -0.187515
v 0.003138 0.946666 -0.187515
v 0.018558 0.955893 0.497864
v 0.019038 0.802685 -0.028234
v 0.018557 0.955893 -0.028238
v 0.019038 0.802684 0.497868
v 0.003876 0.802684 0.497853
v 0.019038 0.802685 -0.028234
v 0.003875 0.802685 -0.028249
v 0.106083 0.972239 -0.187515
v 0.202467 0.972239 -0.091130
v 0.003138 0.972239 -0.187515
v 0.106083 0.972239 0.623400
v 0.202467 0.972239 0.527016
v 0.106082 0.972239 0.623400
v 0.202467 0.972239 -0.091130
v 0.106083 0.972239 -0.187515
v 0.106083 0.972239 -0.187515
v 0.202467 0.946666 0.527016
v 0.106083 0.946666 0.623400
v 0.106083 0.946666 0.623400
v 0.106083 0.946666 -0.187515
v 0.202467 0.946666 -0.091130
v 0.106083 0.946666 -0.187515
v 0.106083 0.946666 -0.187515
v 0.202467 0.946666 -0.091130
v 0.202467 0.972239 0.527016
v 0.202467 0.972239 -0.091130
v 0.202467 0.946666 0.527016
v 0.202467 0.946666 -0.091130
v 0.106083 0.972239 0.623400
v 0.202467 0.972239 0.527016
v 0.202467 0.946666 0.527016
v 0.106083 0.946666 0.623400
v 0.003138 0.972239 0.623400
v 0.003138 0.946666 0.623400
v 0.106083 0.972239 0.623400
v 0.106083 0.946666 0.623400
vt 0.395747 0.406894
vt 0.394205 0.406511
vt 0.393979 0.406185
vt 0.405348 0.412268
vt 0.408343 0.410615
vt 0.408343 0.412269
vt 0.408343 0.420221
vt 0.405348 0.420612
vt 0.405348 0.420220
vt 0.393979 0.404723
vt 0.404459 0.404723
vt 0.397464 0.407571
vt 0.405348 0.415536
vt 0.408344 0.413905
vt 0.408344 0.415537
vt 0.405348 0.417173
vt 0.408344 0.417174
vt 0.405348 0.418820
vt 0.408343 0.418821
vt 0.401460 0.410930
vt 0.400352 0.409614
vt 0.399009 0.408486
vt 0.403190 0.413929
vt 0.402806 0.413729
vt 0.402302 0.412401
vt 0.402227 0.394344
vt 0.402731 0.393016
vt 0.403115 0.392817
vt 0.404384 0.402023
vt 0.393904 0.402023
vt 0.397390 0.399175
vt 0.404384 0.392817
vt 0.401385 0.395816
vt 0.404459 0.413929
vt 0.405348 0.413904
vt 0.408343 0.420613
vt 0.405348 0.421726
vt 0.393904 0.400561
vt 0.394131 0.400235
vt 0.395672 0.399851
vt 0.398935 0.398260
vt 0.405347 0.409207
vt 0.408343 0.408826
vt 0.408343 0.409208
vt 0.400277 0.397132
vt 0.405348 0.410614
vt 0.508984 0.435002
vt 0.456769 0.436963
vt 0.456769 0.435002
vt 0.456769 0.441372
vt 0.508984 0.439411
vt 0.508984 0.441372
vt 0.410830 0.439411
vt 0.408598 0.436963
vt 0.410830 0.436963
vt 0.511216 0.439411
vt 0.508984 0.436963
vt 0.511216 0.436963
vt 0.369697 0.444331
vt 0.367465 0.391555
vt 0.367465 0.444331
vt 0.376362 0.391555
vt 0.374129 0.444331
vt 0.376362 0.444331
vt 0.508984 0.436963
vt 0.456769 0.439411
vt 0.456769 0.436963
vt 0.400742 0.437453
vt 0.396310 0.439414
vt 0.400742 0.439414
vt 0.591643 0.446588
vt 0.512135 0.575246
vt 0.512131 0.446588
vt 0.393776 0.422351
vt 0.397883 0.417459
vt 0.399225 0.418588
vt 0.405347 0.408825
vt 0.408344 0.407364
vt 0.369697 0.444331
vt 0.374129 0.391555
vt 0.369697 0.391555
vt 0.458548 0.441372
vt 0.415090 0.439411
vt 0.458548 0.439411
vt 0.458548 0.439411
vt 0.415090 0.436963
vt 0.458548 0.436963
vt 0.405348 0.398113
vt 0.408343 0.396477
vt 0.408344 0.398114
vt 0.409508 0.423902
vt 0.410011 0.422574
vt 0.410396 0.422374
vt 0.411664 0.431581
vt 0.404670 0.428732
vt 0.406216 0.427818
vt 0.404256 0.420889
vt 0.404256 0.422351
vt 0.402488 0.420179
vt 0.405348 0.405935
vt 0.408343 0.404821
vt 0.408343 0.405936
vt 0.405348 0.396476
vt 0.408343 0.394824
vt 0.405348 0.401382
vt 0.408344 0.399746
vt 0.408344 0.401383
vt 0.411664 0.422374
vt 0.408343 0.403030
vt 0.405348 0.404428
vt 0.405348 0.403029
vt 0.395045 0.413144
vt 0.395933 0.414672
vt 0.393776 0.413144
vt 0.405347 0.393416
vt 0.408343 0.393034
vt 0.408343 0.393417
vt 0.408665 0.425373
vt 0.407557 0.426690
vt 0.400771 0.419502
vt 0.408343 0.404429
vt 0.405348 0.404821
vt 0.401184 0.431581
vt 0.401184 0.430119
vt 0.402952 0.429409
vt 0.404030 0.420562
vt 0.396776 0.416143
vt 0.405348 0.394823
vt 0.405348 0.399745
vt 0.408344 0.391572
vt 0.405347 0.393033
vt 0.405348 0.391571
vt 0.401411 0.429792
vt 0.395430 0.413344
vt 0.385702 0.444331
vt 0.383469 0.391555
vt 0.385702 0.391555
vt 0.376805 0.391555
vt 0.379037 0.444331
vt 0.376805 0.444331
vt 0.383469 0.444331
vt 0.379037 0.391555
vt 0.383469 0.391555
vt 0.402633 0.439414
vt 0.407065 0.437453
vt 0.407065 0.439414
vt 0.511216 0.421985
vt 0.462242 0.432532
vt 0.462242 0.421985
vt 0.495516 0.406836
vt 0.504268 0.405075
vt 0.495516 0.405075
vt 0.409410 0.412515
vt 0.411414 0.418133
vt 0.411414 0.412515
vt 0.511215 0.433576
vt 0.462242 0.432532
vt 0.511216 0.432532
vt 0.430638 0.405075
vt 0.439389 0.406836
vt 0.439390 0.405075
vt 0.439389 0.405075
vt 0.495516 0.405075
vt 0.504268 0.391353
vt 0.504268 0.406836
vt 0.495516 0.406836
vt 0.504268 0.406836
vt 0.439389 0.406836
vt 0.430638 0.406836
vt 0.430638 0.406836
vt 0.504268 0.398440
vt 0.504268 0.398440
vt 0.430638 0.405075
vt 0.430638 0.405075
vt 0.495516 0.405075
vt 0.439389 0.406836
vt 0.495516 0.406836
vt 0.511216 0.418133
vt 0.509212 0.412515
vt 0.509212 0.418133
vt 0.430638 0.413471
vt 0.430638 0.420558
vt 0.408343 0.421727
vt 0.508984 0.436963
vt 0.456769 0.439411
vt 0.408598 0.439411
vt 0.508984 0.439411
vt 0.369697 0.391555
vt 0.374129 0.391555
vt 0.508984 0.439411
vt 0.396310 0.437453
vt 0.591647 0.575246
vt 0.405348 0.407363
vt 0.374129 0.444331
vt 0.415090 0.441372
vt 0.415090 0.439411
vt 0.383469 0.444331
vt 0.379037 0.391555
vt 0.379037 0.444331
vt 0.402633 0.437453
vt 0.511216 0.432532
vt 0.504268 0.406836
vt 0.409410 0.418133
vt 0.462241 0.433576
vt 0.430638 0.406836
vt 0.430638 0.391353
vt 0.430638 0.398440
vt 0.439390 0.405075
vt 0.511216 0.412515
vt 0.504268 0.420558
vt 0.504268 0.413471
vn 0.0004 0.0000 1.0000
vn 0.4885 -0.8726 0.0000
vn 0.3447 -0.9387 0.0000
vn 0.4886 -0.8725 0.0000
vn 0.7801 -0.6256 -0.0000
vn 0.2671 -0.9637 -0.0000
vn 0.7802 -0.6255 -0.0000
vn 0.7525 -0.6586 -0.0000
vn 0.6298 -0.7768 -0.0000
vn 0.7526 -0.6585 -0.0000
vn 0.8535 -0.5211 0.0000
vn 0.9247 -0.3808 -0.0000
vn 0.0004 0.0001 1.0000
vn 0.0005 0.0000 1.0000
vn -0.0004 -0.0001 -1.0000
vn -0.0004 -0.0000 -1.0000
vn 0.6297 -0.7768 0.0000
vn 0.2670 -0.9637 -0.0000
vn 0.0031 -1.0000 -0.0000
vn 0.6076 -0.7942 -0.0000
vn 0.9637 -0.2670 -0.0000
vn 0.6075 -0.7943 -0.0000
vn 0.0000 1.0000 0.0000
vn 0.0000 -1.0000 -0.0000
vn 0.0000 -0.0000 -1.0000
vn -0.0000 0.0000 1.0000
vn 1.0000 0.0000 0.0000
vn 1.0000 0.0031 -0.0000
vn 0.9637 -0.2671 0.0000
vn 0.7071 0.0000 0.7071
vn 0.7071 0.0000 -0.7071
vn 0.0000 0.8321 0.5547
vn 0.0000 -0.8321 0.5547
usemtl M_Interior
s 1
f 40/1/1 41/2/1 42/3/1
f 8/4/2 1/5/3 2/6/4
f 17/7/5 21/8/6 18/9/7
f 43/10/1 31/11/1 39/12/1
f 12/13/8 10/14/9 11/15/10
f 13/16/11 11/15/10 14/17/11
f 16/18/12 14/17/11 15/19/12
f 31/11/1 36/20/1 37/21/1
f 37/21/1 38/22/1 31/11/1
f 32/23/13 34/24/14 35/25/1
f 47/26/15 44/27/15 45/28/16
f 23/29/16 30/30/16 26/31/16
f 46/32/16 23/29/16 48/33/16
f 45/28/16 46/32/16 47/26/15
f 33/34/1 32/23/13 35/25/1
f 42/3/1 43/10/1 40/1/1
f 9/35/17 2/6/4 10/14/9
f 19/36/18 22/37/19 21/8/6
f 36/20/1 33/34/1 35/25/1
f 29/38/16 28/39/16 27/40/16
f 31/11/1 33/34/1 36/20/1
f 23/29/16 26/31/16 24/41/16
f 6/42/20 4/43/21 3/44/22
f 40/1/1 43/10/1 39/12/1
f 25/45/16 48/33/16 23/29/16
f 24/41/16 25/45/16 23/29/16
f 38/22/1 39/12/1 31/11/1
f 26/31/16 30/30/16 27/40/16
f 47/26/15 46/32/16 48/33/16
f 30/30/16 29/38/16 27/40/16
f 7/46/3 3/44/22 1/5/3
f 15/19/12 18/9/7 16/18/12
f 52/47/23 50/48/23 49/49/23
f 53/50/24 55/51/24 56/52/24
f 90/53/25 87/54/25 88/55/25
f 94/56/26 91/57/26 92/58/26
f 59/59/25 57/60/25 60/61/25
f 61/62/26 63/63/26 64/64/26
f 84/65/27 85/66/27 83/67/27
f 68/68/24 65/69/24 66/70/24
f 69/71/28 72/72/28 71/73/28
f 123/74/1 130/75/1 124/76/1
f 5/77/21 78/78/28 4/43/21
f 77/79/27 81/80/27 80/81/27
f 98/82/23 96/83/23 97/84/23
f 102/85/27 99/86/27 100/87/27
f 112/88/9 73/89/2 74/90/9
f 140/91/15 141/92/16 142/93/16
f 131/94/16 136/95/16 137/96/16
f 128/97/13 129/98/1 126/99/1
f 118/100/19 119/101/18 120/102/19
f 111/103/2 103/104/3 73/89/2
f 114/105/11 75/106/10 76/107/11
f 142/93/16 143/108/16 140/91/15
f 122/109/12 116/110/7 115/111/12
f 144/112/1 147/113/1 145/114/1
f 109/115/20 105/116/29 104/117/22
f 143/108/16 131/94/16 139/118/16
f 138/119/16 139/118/16 131/94/16
f 129/98/1 123/74/1 125/120/1
f 121/121/5 117/122/6 116/110/7
f 125/120/1 126/99/1 129/98/1
f 137/96/16 138/119/16 131/94/16
f 132/123/16 133/124/16 135/125/16
f 124/76/1 125/120/1 123/74/1
f 126/99/1 127/126/13 128/97/13
f 131/94/16 132/123/16 136/95/16
f 123/74/1 145/114/1 148/127/1
f 104/117/22 110/128/3 109/115/20
f 115/111/12 76/107/11 122/109/12
f 113/129/10 74/90/9 75/106/10
f 106/130/28 107/131/21 108/132/28
f 133/124/16 134/133/16 135/125/16
f 147/113/1 148/127/1 145/114/1
f 123/74/1 148/127/1 130/75/1
f 144/112/1 146/134/1 147/113/1
f 140/91/15 143/108/16 139/118/16
f 136/95/16 132/123/16 135/125/16
f 154/135/25 152/136/25 151/137/25
f 155/138/26 157/139/26 158/140/26
f 150/141/27 149/142/27 159/143/27
f 161/144/24 162/145/24 160/146/24
f 173/147/28 174/148/28 175/149/28
f 202/150/30 204/151/30 203/152/30
f 168/153/25 182/154/25 169/155/25
f 177/156/24 178/157/24 176/158/24
f 195/159/31 181/160/31 196/161/31
f 193/162/24 189/163/24 170/164/24
f 183/165/23 184/166/23 185/167/23
f 186/168/23 187/169/26 188/170/32
f 189/163/24 190/171/26 191/172/33
f 192/173/24 193/162/24 194/174/24
f 199/175/27 198/176/27 197/177/27
f 206/178/26 207/179/26 205/180/26
f 186/168/23 188/181/32 167/182/23
f 8/4/2 7/46/3 1/5/3
f 17/7/5 19/36/18 21/8/6
f 12/13/8 9/35/17 10/14/9
f 13/16/11 12/13/8 11/15/10
f 16/18/12 13/16/11 14/17/11
f 9/35/17 8/4/2 2/6/4
f 19/36/18 20/183/19 22/37/19
f 6/42/20 5/77/21 4/43/21
f 7/46/3 6/42/20 3/44/22
f 15/19/12 17/7/5 18/9/7
f 52/47/23 51/184/23 50/48/23
f 53/50/24 54/185/24 55/51/24
f 90/53/25 89/186/25 87/54/25
f 94/56/26 93/187/26 91/57/26
f 59/59/25 58/188/25 57/60/25
f 61/62/26 62/189/26 63/63/26
f 84/65/27 86/190/27 85/66/27
f 68/68/24 67/191/24 65/69/24
f 69/71/28 70/192/28 72/72/28
f 5/77/21 79/193/28 78/78/28
f 77/79/27 82/194/27 81/80/27
f 98/82/23 95/195/23 96/83/23
f 102/85/27 101/196/27 99/86/27
f 112/88/9 111/103/2 73/89/2
f 118/100/19 117/122/6 119/101/18
f 111/103/2 110/128/3 103/104/3
f 114/105/11 113/129/10 75/106/10
f 122/109/12 121/121/5 116/110/7
f 109/115/20 107/131/21 105/116/29
f 121/121/5 119/101/18 117/122/6
f 104/117/22 103/104/3 110/128/3
f 115/111/12 114/105/11 76/107/11
f 113/129/10 112/88/9 74/90/9
f 106/130/28 105/116/29 107/131/21
f 154/135/25 153/197/25 152/136/25
f 155/138/26 156/198/26 157/139/26
f 150/141/27 164/199/27 149/142/27
f 161/144/24 163/200/24 162/145/24
f 173/147/28 165/201/28 174/148/28
f 202/150/30 201/202/30 204/151/30
f 168/153/25 171/203/25 182/154/25
f 177/156/24 179/204/24 178/157/24
f 195/159/31 180/205/31 181/160/31
f 191/172/33 170/164/24 189/163/24
f 170/164/24 172/206/24 193/162/24
f 172/206/24 194/207/24 193/162/24
f 199/175/27 200/208/27 198/176/27
f 206/178/26 208/209/26 207/179/26
f 167/182/23 166/210/23 186/168/23
f 166/210/23 185/211/23 184/166/23
f 186/168/23 166/210/23 184/166/23
