# Blender v3.0.1 OBJ File: 'props.blend'
# www.blender.org
mtllib Mirror_shelf_b.mtl
o Mirror_Shelf_b_LOD0_mirror04.001
v 0.019038 0.802684 0.497868
v 0.019037 0.802686 -0.554335
v 0.143976 0.916221 0.490818
v 0.122091 0.906319 0.490827
v 0.163626 0.921847 0.490809
v 0.166500 0.926602 0.490808
v 0.166500 0.926602 0.458628
v 0.163626 0.921847 0.458630
v 0.143976 0.916221 0.458638
v 0.122091 0.906319 0.458647
v 0.102418 0.892977 0.458656
v 0.102418 0.892977 0.490835
v 0.085344 0.876535 0.490843
v 0.085343 0.876535 0.458664
v 0.071269 0.857372 0.458670
v 0.071269 0.857372 0.490850
v 0.060588 0.835966 0.490856
v 0.060588 0.835966 0.458676
v 0.054223 0.816656 0.490859
v 0.054223 0.816656 0.458679
v 0.049329 0.813739 0.490861
v 0.033138 0.813688 0.490868
v 0.049329 0.813739 0.458681
v 0.033138 0.813688 0.458688
v 0.032718 0.947418 0.458683
v 0.102418 0.892977 0.458656
v 0.085343 0.876535 0.458664
v 0.122091 0.906319 0.458647
v 0.143976 0.916221 0.458638
v 0.163626 0.921847 0.458630
v 0.166500 0.926602 0.458628
v 0.166433 0.947838 0.458627
v 0.032719 0.947418 0.490862
v 0.049329 0.813739 0.490861
v 0.033138 0.813688 0.490868
v 0.054223 0.816656 0.490859
v 0.060588 0.835966 0.490856
v 0.071269 0.857372 0.490850
v 0.085344 0.876535 0.490843
v 0.102418 0.892977 0.490835
v 0.122091 0.906319 0.490827
v 0.143976 0.916221 0.490818
v 0.163626 0.921847 0.490809
v 0.166500 0.926602 0.490808
v 0.166433 0.947837 0.490807
v 0.054223 0.816656 0.458679
v 0.049329 0.813739 0.458681
v 0.033138 0.813688 0.458688
v 0.060588 0.835966 0.458676
v 0.071269 0.857372 0.458670
v 0.071268 0.857373 -0.515161
v 0.085342 0.876537 -0.515168
v 0.102411 0.892978 -0.515176
v 0.122090 0.906321 -0.515184
v 0.143975 0.916222 -0.515194
v 0.163624 0.921849 -0.515202
v 0.166499 0.926603 -0.515204
v 0.166432 0.947839 -0.515205
v 0.166499 0.926603 -0.547384
v 0.166432 0.947839 -0.547385
v 0.163625 0.921849 -0.547382
v 0.143975 0.916222 -0.547374
v 0.122090 0.906321 -0.547364
v 0.102411 0.892978 -0.547355
v 0.085343 0.876536 -0.547348
v 0.071268 0.857373 -0.547341
v 0.060587 0.835968 -0.547336
v 0.054222 0.816658 -0.547332
v 0.049328 0.813740 -0.547330
v 0.033137 0.813690 -0.547323
v 0.049328 0.813740 -0.515150
v 0.033137 0.813690 -0.515144
v 0.054222 0.816658 -0.515152
v 0.060587 0.835968 -0.515156
v 0.032718 0.947419 -0.515149
v 0.102411 0.892978 -0.515176
v 0.122090 0.906321 -0.515184
v 0.143975 0.916222 -0.515194
v 0.163624 0.921849 -0.515202
v 0.166499 0.926603 -0.515204
v 0.166432 0.947839 -0.515205
v 0.085342 0.876537 -0.515168
v 0.032717 0.947420 -0.547329
v 0.166432 0.947839 -0.547385
v 0.166499 0.926603 -0.547384
v 0.163625 0.921849 -0.547382
v 0.143975 0.916222 -0.547374
v 0.122090 0.906321 -0.547364
v 0.102411 0.892978 -0.547355
v 0.085343 0.876536 -0.547348
v 0.071268 0.857373 -0.547341
v 0.060587 0.835968 -0.547336
v 0.054222 0.816658 -0.547332
v 0.049328 0.813740 -0.547330
v 0.033137 0.813690 -0.547323
v 0.049328 0.813740 -0.515150
v 0.033137 0.813690 -0.515144
v 0.054222 0.816658 -0.515152
v 0.060587 0.835968 -0.515156
v 0.071268 0.857373 -0.515161
v 0.031622 0.802166 -0.508400
v 0.031622 1.747551 -0.556011
v 0.003138 1.783102 -0.556011
v 0.031622 1.783102 -0.556011
v 0.031622 1.783102 0.498400
v 0.003138 1.783102 0.498400
v 0.003138 1.747550 -0.556011
v 0.031622 1.747551 -0.556011
v 0.031622 1.747551 0.498400
v 0.003138 1.747551 0.498400
v 0.003138 0.802166 0.450790
v 0.031622 0.802166 0.450790
v 0.031622 1.747550 0.450790
v 0.003138 1.747551 0.450790
v 0.003138 0.802166 0.498400
v 0.031622 0.802167 0.498400
v 0.031622 1.747551 0.498400
v 0.003138 1.747551 0.498400
v 0.003138 0.802166 -0.556011
v 0.031622 0.802166 -0.556011
v 0.031622 1.747551 -0.556011
v 0.003138 1.747550 -0.556011
v 0.003138 0.802167 -0.508400
v 0.031622 0.802166 -0.508400
v 0.031622 1.747551 -0.508400
v 0.003138 1.747551 -0.508400
v 0.003138 0.972239 -0.046422
v 0.026338 0.972239 -0.046422
v 0.026338 1.747550 -0.046422
v 0.003138 1.747550 -0.046422
v 0.003138 0.972239 -0.010102
v 0.026338 0.972239 -0.010102
v 0.026338 1.747551 -0.010102
v 0.003138 1.747551 -0.010102
v 0.003138 0.972239 0.496670
v 0.003138 0.972239 -0.553922
v 0.202467 0.972239 0.496670
v 0.202468 0.972239 -0.553921
v 0.003138 0.946666 0.496670
v 0.202467 0.946666 0.496670
v 0.003138 0.946666 -0.553922
v 0.202468 0.946666 -0.553921
v 0.018558 0.955893 0.497864
v 0.018556 0.955894 -0.554340
v 0.019038 0.802685 -0.028234
v 0.031622 0.802166 -0.556011
v 0.018557 0.955893 -0.028238
v 0.031622 0.802166 0.450790
v 0.031622 0.802167 0.498400
v 0.031622 0.802166 -0.556011
v 0.031622 0.802166 -0.508400
v 0.003138 0.802166 -0.556011
v 0.003138 0.802167 -0.508400
v 0.003138 0.802166 0.450790
v 0.003138 0.802166 0.498400
v 0.015980 1.779387 0.497840
v 0.018558 0.955893 0.497864
v 0.015976 1.779388 -0.028262
v 0.018557 0.955894 -0.028238
v 0.015973 1.779389 -0.554363
v 0.015976 1.779388 -0.028262
v 0.018556 0.955894 -0.554340
v 0.018557 0.955894 -0.028238
v 0.031622 1.747550 0.450790
v 0.166433 0.947837 0.490807
v 0.166433 0.947838 0.458627
v 0.031622 0.802166 0.450790
v 0.031622 0.802167 0.498400
v 0.031622 1.747551 0.498400
v 0.019038 0.802684 0.497868
v 0.019037 0.802686 -0.554335
v 0.003876 0.802684 0.497853
v 0.003875 0.802686 -0.554351
v 0.019038 0.802685 -0.028234
v 0.003875 0.802685 -0.028249
v 0.031622 1.747551 -0.508400
v 0.202467 0.972239 0.496670
v 0.202468 0.972239 -0.553921
v 0.202467 0.946666 0.496670
v 0.202468 0.946666 -0.553921
v 0.026338 0.972239 -0.046422
v 0.026338 1.747550 -0.046422
v 0.026338 0.972239 -0.010102
v 0.026338 1.747551 -0.010102
v 0.031622 1.783102 -0.556011
v 0.031622 1.783102 0.498400
v 0.031622 1.747551 -0.556011
v 0.031622 1.747551 0.498400
v 0.003138 1.783102 -0.556011
v 0.031622 1.783102 -0.556011
v 0.003138 1.747550 -0.556011
v 0.031622 1.747551 -0.556011
v 0.031622 1.783102 0.498400
v 0.003138 1.783102 0.498400
v 0.031622 1.747551 0.498400
v 0.003138 1.747551 0.498400
v 0.003138 0.972239 0.496670
v 0.003138 0.946666 0.496670
v 0.202467 0.946666 0.496670
v 0.202467 0.972239 0.496670
v 0.003138 0.972239 -0.553922
v 0.003138 0.946666 -0.553922
v 0.202468 0.946666 -0.553921
v 0.202468 0.972239 -0.553921
v 0.003138 0.972239 0.450790
v 0.031622 0.972239 0.450790
v 0.031622 0.972239 -0.508400
v 0.003138 0.972239 -0.508400
v 0.003138 1.007791 0.450790
v 0.031622 1.007791 0.450790
v 0.031622 1.007791 -0.508400
v 0.003138 1.007791 -0.508400
v 0.031622 0.972239 0.450790
v 0.031622 0.972239 -0.508400
v 0.031622 1.007791 0.450790
v 0.031622 1.007791 -0.508400
vt 0.395747 0.406894
vt 0.394205 0.406511
vt 0.393979 0.406185
vt 0.393776 0.422351
vt 0.397883 0.417459
vt 0.399225 0.418588
vt 0.405348 0.398113
vt 0.408343 0.396477
vt 0.408344 0.398114
vt 0.405348 0.412268
vt 0.408343 0.410615
vt 0.408343 0.412269
vt 0.408343 0.420221
vt 0.405348 0.420612
vt 0.405348 0.420220
vt 0.409508 0.423902
vt 0.410011 0.422574
vt 0.410396 0.422374
vt 0.411664 0.431581
vt 0.404670 0.428732
vt 0.406216 0.427818
vt 0.404256 0.420889
vt 0.404256 0.422351
vt 0.402488 0.420179
vt 0.393979 0.404723
vt 0.404459 0.404723
vt 0.397464 0.407571
vt 0.405348 0.405935
vt 0.408343 0.404821
vt 0.408343 0.405936
vt 0.405348 0.396476
vt 0.408343 0.394824
vt 0.405348 0.415536
vt 0.408344 0.413905
vt 0.408344 0.415537
vt 0.405348 0.417173
vt 0.408344 0.417174
vt 0.405348 0.418820
vt 0.408343 0.418821
vt 0.405348 0.401382
vt 0.408344 0.399746
vt 0.408344 0.401383
vt 0.401460 0.410930
vt 0.400352 0.409614
vt 0.411664 0.422374
vt 0.399009 0.408486
vt 0.408343 0.403030
vt 0.405348 0.404428
vt 0.405348 0.403029
vt 0.403190 0.413929
vt 0.402806 0.413729
vt 0.402302 0.412401
vt 0.402227 0.394344
vt 0.402731 0.393016
vt 0.403115 0.392817
vt 0.404384 0.402023
vt 0.393904 0.402023
vt 0.397390 0.399175
vt 0.395045 0.413144
vt 0.395933 0.414672
vt 0.393776 0.413144
vt 0.405347 0.393416
vt 0.408343 0.393034
vt 0.408343 0.393417
vt 0.404384 0.392817
vt 0.401385 0.395816
vt 0.408665 0.425373
vt 0.407557 0.426690
vt 0.400771 0.419502
vt 0.408343 0.404429
vt 0.405348 0.404821
vt 0.401184 0.431581
vt 0.401184 0.430119
vt 0.402952 0.429409
vt 0.404459 0.413929
vt 0.404030 0.420562
vt 0.396776 0.416143
vt 0.405348 0.394823
vt 0.405348 0.399745
vt 0.408344 0.391572
vt 0.405347 0.393033
vt 0.405348 0.391571
vt 0.405348 0.413904
vt 0.408343 0.420613
vt 0.405348 0.421726
vt 0.393904 0.400561
vt 0.394131 0.400235
vt 0.395672 0.399851
vt 0.401411 0.429792
vt 0.395430 0.413344
vt 0.398935 0.398260
vt 0.405347 0.409207
vt 0.408343 0.408826
vt 0.408343 0.409208
vt 0.400277 0.397132
vt 0.511216 0.421985
vt 0.462242 0.432532
vt 0.462242 0.421985
vt 0.405348 0.410614
vt 0.508984 0.436963
vt 0.410830 0.435002
vt 0.508984 0.435002
vt 0.410830 0.441372
vt 0.508984 0.439411
vt 0.508984 0.441372
vt 0.410830 0.439411
vt 0.408598 0.436963
vt 0.410830 0.436963
vt 0.511216 0.439411
vt 0.508984 0.436963
vt 0.511216 0.436963
vt 0.369697 0.444331
vt 0.367465 0.391555
vt 0.367465 0.444331
vt 0.376362 0.391555
vt 0.374129 0.444331
vt 0.376362 0.444331
vt 0.385702 0.444331
vt 0.383469 0.391555
vt 0.385702 0.391555
vt 0.376805 0.391555
vt 0.379037 0.444331
vt 0.376805 0.444331
vt 0.509212 0.405075
vt 0.411414 0.406836
vt 0.509212 0.406836
vt 0.388095 0.391613
vt 0.386276 0.434895
vt 0.386276 0.391613
vt 0.393294 0.434895
vt 0.391476 0.391613
vt 0.393294 0.391613
vt 0.508984 0.439411
vt 0.410830 0.436963
vt 0.508984 0.436963
vt 0.509212 0.406836
vt 0.411414 0.420558
vt 0.509212 0.420558
vt 0.509212 0.391353
vt 0.411414 0.405075
vt 0.509212 0.405075
vt 0.391476 0.391613
vt 0.388095 0.434895
vt 0.388095 0.391613
vt 0.413268 0.432532
vt 0.413268 0.421985
vt 0.379037 0.444331
vt 0.383469 0.391555
vt 0.383469 0.444331
vt 0.400742 0.437453
vt 0.396310 0.439414
vt 0.400742 0.439414
vt 0.402633 0.439414
vt 0.407065 0.437453
vt 0.407065 0.439414
vt 0.591643 0.446588
vt 0.512135 0.575246
vt 0.512131 0.446588
vt 0.591643 0.446588
vt 0.512135 0.575246
vt 0.512131 0.446588
vt 0.405347 0.408825
vt 0.408344 0.407364
vt 0.369697 0.444331
vt 0.374129 0.391555
vt 0.369697 0.391555
vt 0.511215 0.433576
vt 0.462242 0.432532
vt 0.511216 0.432532
vt 0.462241 0.433576
vt 0.413268 0.432532
vt 0.511216 0.420558
vt 0.509212 0.406836
vt 0.509212 0.420558
vt 0.409410 0.406836
vt 0.411414 0.420558
vt 0.411414 0.406836
vt 0.504600 0.436963
vt 0.415090 0.435002
vt 0.504600 0.435002
vt 0.504600 0.441372
vt 0.415090 0.439411
vt 0.504600 0.439411
vt 0.504600 0.439411
vt 0.415090 0.436963
vt 0.504600 0.436963
vt 0.408343 0.421727
vt 0.511216 0.432532
vt 0.410830 0.436963
vt 0.410830 0.439411
vt 0.408598 0.439411
vt 0.508984 0.439411
vt 0.369697 0.391555
vt 0.374129 0.391555
vt 0.383469 0.444331
vt 0.379037 0.391555
vt 0.411414 0.405075
vt 0.388095 0.434895
vt 0.391476 0.434895
vt 0.410830 0.439411
vt 0.411414 0.406836
vt 0.411414 0.391353
vt 0.391476 0.434895
vt 0.379037 0.391555
vt 0.396310 0.437453
vt 0.402633 0.437453
vt 0.591647 0.575246
vt 0.591647 0.575246
vt 0.405348 0.407363
vt 0.374129 0.444331
vt 0.413267 0.433576
vt 0.511216 0.406836
vt 0.409410 0.420558
vt 0.415090 0.436963
vt 0.415090 0.441372
vt 0.415090 0.439411
vn 0.0004 0.0000 1.0000
vn 0.6298 -0.7768 -0.0000
vn 0.4885 -0.8726 -0.0000
vn 0.3447 -0.9387 0.0000
vn 0.4886 -0.8725 0.0000
vn 0.7801 -0.6256 -0.0000
vn 0.2671 -0.9637 -0.0000
vn 0.7802 -0.6255 -0.0000
vn -0.0004 -0.0001 -1.0000
vn -0.0004 -0.0000 -1.0000
vn 0.0004 0.0001 1.0000
vn 0.0031 -1.0000 0.0000
vn 0.2670 -0.9637 0.0000
vn 0.7525 -0.6586 -0.0000
vn 0.7526 -0.6585 -0.0000
vn 0.8535 -0.5211 0.0000
vn 0.9247 -0.3808 -0.0000
vn 0.0005 0.0000 1.0000
vn 0.6076 -0.7942 0.0000
vn 0.9637 -0.2671 0.0000
vn 0.6075 -0.7943 0.0000
vn 1.0000 0.0031 -0.0000
vn 0.9637 -0.2670 -0.0000
vn 0.6297 -0.7768 0.0000
vn 0.0000 1.0000 0.0000
vn 0.0000 -1.0000 0.0000
vn -0.0000 -0.0000 -1.0000
vn -0.0000 0.0000 1.0000
vn 1.0000 0.0000 0.0000
usemtl M_Interior
s 1
f 42/1/1 43/2/1 44/3/1
f 75/4/1 82/5/1 76/6/1
f 64/7/2 54/8/3 53/9/2
f 10/10/3 3/11/4 4/12/5
f 19/13/6 23/14/7 20/15/8
f 92/16/9 93/17/10 94/18/10
f 83/19/10 88/20/10 89/21/10
f 80/22/11 81/23/1 78/24/1
f 45/25/1 33/26/1 41/27/1
f 70/28/12 71/29/13 72/30/12
f 63/31/3 55/32/4 54/8/3
f 14/33/14 12/34/2 13/35/15
f 15/36/16 13/35/15 16/37/16
f 18/38/17 16/37/16 17/39/17
f 66/40/16 52/41/15 51/42/16
f 33/26/1 38/43/1 39/44/1
f 94/18/10 95/45/10 92/16/9
f 39/44/1 40/46/1 33/26/1
f 74/47/17 68/48/8 67/49/17
f 34/50/11 36/51/18 37/52/1
f 49/53/9 46/54/9 47/55/10
f 25/56/10 32/57/10 28/58/10
f 96/59/1 99/60/1 97/61/1
f 61/62/19 57/63/20 56/64/21
f 48/65/10 25/56/10 50/66/10
f 95/45/10 83/19/10 91/67/10
f 90/68/10 91/67/10 83/19/10
f 81/23/1 75/4/1 77/69/1
f 73/70/6 69/71/7 68/48/8
f 47/55/10 48/65/10 49/53/9
f 77/69/1 78/24/1 81/23/1
f 89/21/10 90/68/10 83/19/10
f 84/72/10 85/73/10 87/74/10
f 76/6/1 77/69/1 75/4/1
f 35/75/1 34/50/11 37/52/1
f 44/3/1 45/25/1 42/1/1
f 78/24/1 79/76/11 80/22/11
f 83/19/10 84/72/10 88/20/10
f 75/4/1 97/61/1 100/77/1
f 56/64/21 62/78/4 61/62/19
f 67/49/17 51/42/16 74/47/17
f 65/79/15 53/9/2 52/41/15
f 58/80/22 59/81/23 60/82/22
f 11/83/24 4/12/5 12/34/2
f 21/84/13 24/85/12 23/14/7
f 38/43/1 35/75/1 37/52/1
f 31/86/10 30/87/10 29/88/10
f 85/73/10 86/89/10 87/74/10
f 99/60/1 100/77/1 97/61/1
f 33/26/1 35/75/1 38/43/1
f 75/4/1 100/77/1 82/5/1
f 96/59/1 98/90/1 99/60/1
f 92/16/9 95/45/10 91/67/10
f 25/56/10 28/58/10 26/91/10
f 8/92/19 6/93/23 5/94/21
f 42/1/1 45/25/1 41/27/1
f 27/95/10 50/66/10 25/56/10
f 26/91/10 27/95/10 25/56/10
f 40/46/1 41/27/1 33/26/1
f 28/58/10 32/57/10 29/88/10
f 49/53/9 48/65/10 50/66/10
f 143/96/22 145/97/22 147/98/22
f 32/57/10 31/86/10 29/88/10
f 9/99/4 5/94/21 3/11/4
f 17/39/17 20/15/8 18/38/17
f 88/20/10 84/72/10 87/74/10
f 105/100/25 103/101/25 106/102/25
f 107/103/26 109/104/26 110/105/26
f 192/106/27 189/107/27 190/108/27
f 196/109/28 193/110/28 194/111/28
f 113/112/27 111/113/27 114/114/27
f 115/115/28 117/116/28 118/117/28
f 122/118/27 120/119/27 119/120/27
f 123/121/28 125/122/28 126/123/28
f 179/124/29 178/125/29 177/126/29
f 129/127/27 127/128/27 130/129/27
f 131/130/28 133/131/28 134/132/28
f 188/133/29 185/134/29 186/135/29
f 137/136/25 136/137/25 135/138/25
f 139/139/26 142/140/26 140/141/26
f 184/142/29 181/143/29 182/144/29
f 147/98/22 2/145/22 144/146/22
f 176/147/29 146/148/29 102/149/29
f 155/150/26 148/151/26 149/152/26
f 151/153/26 152/154/26 150/155/26
f 156/156/22 159/157/22 158/158/22
f 161/159/22 162/160/22 160/161/22
f 7/162/23 165/163/22 6/93/23
f 164/164/29 168/165/29 167/166/29
f 172/167/26 174/168/26 170/169/26
f 175/170/26 171/171/26 174/168/26
f 198/172/28 200/173/28 197/174/28
f 203/175/27 201/176/27 204/177/27
f 207/178/26 205/179/26 208/180/26
f 212/181/25 210/182/25 211/183/25
f 216/184/29 213/185/29 214/186/29
f 64/7/2 63/31/3 54/8/3
f 10/10/3 9/99/4 3/11/4
f 19/13/6 21/84/13 23/14/7
f 70/28/12 69/71/7 71/29/13
f 63/31/3 62/78/4 55/32/4
f 14/33/14 11/83/24 12/34/2
f 15/36/16 14/33/14 13/35/15
f 18/38/17 15/36/16 16/37/16
f 66/40/16 65/79/15 52/41/15
f 74/47/17 73/70/6 68/48/8
f 61/62/19 59/81/23 57/63/20
f 73/70/6 71/29/13 69/71/7
f 56/64/21 55/32/4 62/78/4
f 67/49/17 66/40/16 51/42/16
f 65/79/15 64/7/2 53/9/2
f 58/80/22 57/63/20 59/81/23
f 11/83/24 10/10/3 4/12/5
f 21/84/13 22/187/12 24/85/12
f 8/92/19 7/162/23 6/93/23
f 143/96/22 1/188/22 145/97/22
f 9/99/4 8/92/19 5/94/21
f 17/39/17 19/13/6 20/15/8
f 105/100/25 104/189/25 103/101/25
f 107/103/26 108/190/26 109/104/26
f 192/106/27 191/191/27 189/107/27
f 196/109/28 195/192/28 193/110/28
f 113/112/27 112/193/27 111/113/27
f 115/115/28 116/194/28 117/116/28
f 122/118/27 121/195/27 120/119/27
f 123/121/28 124/196/28 125/122/28
f 179/124/29 180/197/29 178/125/29
f 129/127/27 128/198/27 127/128/27
f 131/130/28 132/199/28 133/131/28
f 188/133/29 187/200/29 185/134/29
f 137/136/25 138/201/25 136/137/25
f 139/139/26 141/202/26 142/140/26
f 184/142/29 183/203/29 181/143/29
f 147/98/22 145/97/22 2/145/22
f 176/147/29 101/204/29 146/148/29
f 155/150/26 154/205/26 148/151/26
f 151/153/26 153/206/26 152/154/26
f 156/156/22 157/207/22 159/157/22
f 161/159/22 163/208/22 162/160/22
f 7/162/23 166/209/22 165/163/22
f 164/164/29 169/210/29 168/165/29
f 172/167/26 175/170/26 174/168/26
f 175/170/26 173/211/26 171/171/26
f 198/172/28 199/212/28 200/173/28
f 203/175/27 202/213/27 201/176/27
f 207/178/26 206/214/26 205/179/26
f 212/181/25 209/215/25 210/182/25
f 216/184/29 215/216/29 213/185/29
