# Blender v3.0.1 OBJ File: 'props.blend'
# www.blender.org
mtllib Nightstand_closed.mtl
o Nightstand_Closed_LOD0_Cube.018
v 0.348849 0.831250 -0.356093
v -0.187500 0.125000 -0.312500
v 0.348849 0.831250 0.356093
v 0.312500 0.512500 0.312500
v 0.348849 0.800000 -0.356093
v 0.348849 0.800000 0.356093
v 0.348849 0.800000 -0.356093
v -0.223849 0.800000 -0.356093
v 0.348849 0.831250 0.356093
v 0.348849 0.831250 -0.356093
v -0.223849 0.831250 -0.356093
v -0.223849 0.831250 0.356093
v -0.187500 0.750000 -0.312500
v 0.312500 0.512500 -0.312500
v 0.312500 0.125000 -0.312500
v 0.312500 0.125000 0.312500
v 0.312500 0.175000 -0.312500
v 0.312500 0.462500 0.312500
v 0.312500 0.175000 0.312500
v -0.187500 0.800000 0.312500
v 0.312500 0.175000 0.312500
v 0.312500 0.175000 -0.312500
v 0.312500 0.750000 -0.312500
v 0.312500 0.750000 0.312500
v 0.312500 0.800000 0.312500
v 0.312500 0.800000 -0.312500
v 0.312500 0.125000 -0.312500
v 0.312500 0.125000 0.312500
v 0.348849 0.800000 0.356093
v 0.348849 0.800000 -0.356093
v -0.223849 0.800000 -0.356093
v -0.223849 0.800000 0.356093
v 0.333713 0.000000 -0.291287
v 0.333713 0.000000 -0.333713
v 0.291287 0.000000 -0.333713
v 0.291287 0.000000 -0.291287
v 0.333713 0.800000 -0.291287
v 0.333713 0.800000 -0.333713
v 0.291287 0.800000 -0.333713
v 0.291287 0.800000 -0.291287
v -0.166287 0.000000 -0.291287
v -0.166287 0.000000 -0.333713
v -0.208713 0.000000 -0.333713
v -0.208713 0.000000 -0.291287
v -0.166287 0.800000 -0.291287
v -0.166287 0.800000 -0.333713
v -0.208713 0.800000 -0.333713
v -0.208713 0.800000 -0.291287
v 0.333713 0.000000 0.333713
v 0.333713 0.000000 0.291287
v 0.291287 0.000000 0.291287
v 0.291287 0.000000 0.333713
v 0.333713 0.800000 0.333713
v 0.333713 0.800000 0.291287
v 0.291287 0.800000 0.291287
v 0.291287 0.800000 0.333713
v -0.166287 0.000000 0.333713
v -0.166287 0.000000 0.291287
v -0.208713 0.000000 0.291287
v -0.208713 0.000000 0.333713
v -0.166287 0.800000 0.333713
v -0.166287 0.800000 0.291287
v -0.208713 0.800000 0.291287
v -0.208713 0.800000 0.333713
v -0.187500 0.175000 -0.312500
v -0.187500 0.175000 0.312500
v -0.187500 0.125000 0.312500
v -0.187500 0.750000 0.312500
v -0.187500 0.175000 0.312500
v 0.312500 0.750000 0.312500
v -0.187500 0.125000 0.312500
v -0.187500 0.750000 0.312500
v -0.187500 0.800000 0.312500
v -0.187500 0.800000 -0.312500
v 0.312500 0.800000 -0.312500
v 0.312500 0.800000 0.312500
v -0.187500 0.800000 0.312500
v -0.187500 0.800000 -0.312500
v -0.187500 0.800000 -0.312500
v 0.312500 0.462500 -0.312500
v 0.312500 0.800000 -0.312500
v 0.312500 0.800000 0.312500
v -0.187500 0.750000 -0.312500
v -0.187500 0.125000 -0.312500
v 0.312500 0.750000 -0.312500
v -0.187500 0.175000 -0.312500
v -0.187500 0.125000 0.312500
v -0.187500 0.125000 -0.312500
v 0.312500 0.125000 0.312500
v 0.312500 0.125000 -0.312500
v 0.348849 0.800000 0.356093
v -0.223849 0.800000 0.356093
v 0.348849 0.831250 0.356093
v -0.223849 0.831250 0.356093
v -0.223849 0.800000 -0.356093
v 0.348849 0.831250 -0.356093
v -0.223849 0.831250 -0.356093
v -0.223849 0.800000 0.356093
v -0.223849 0.831250 -0.356093
v -0.223849 0.831250 0.356093
v 0.333713 0.000000 -0.291287
v 0.333713 0.000000 -0.333713
v 0.291287 0.000000 -0.333713
v 0.291287 0.000000 -0.291287
v -0.166287 0.000000 -0.291287
v -0.166287 0.000000 -0.333713
v -0.208713 0.000000 -0.333713
v -0.208713 0.000000 -0.291287
v -0.166287 0.000000 0.333713
v -0.166287 0.000000 0.291287
v -0.208713 0.000000 0.291287
v -0.208713 0.000000 0.333713
v 0.333713 0.000000 0.333713
v 0.333713 0.000000 0.291287
v 0.291287 0.000000 0.291287
v 0.291287 0.000000 0.333713
v 0.333713 0.000000 -0.291287
v 0.333713 0.000000 -0.333713
v 0.291287 0.000000 -0.333713
v 0.291287 0.000000 -0.291287
v 0.333713 0.800000 -0.291287
v 0.333713 0.800000 -0.333713
v 0.291287 0.800000 -0.333713
v 0.291287 0.800000 -0.291287
v -0.166287 0.000000 -0.291287
v -0.166287 0.000000 -0.333713
v -0.208713 0.000000 -0.333713
v -0.208713 0.000000 -0.291287
v -0.166287 0.800000 -0.291287
v -0.166287 0.800000 -0.333713
v -0.208713 0.800000 -0.333713
v -0.208713 0.800000 -0.291287
v 0.333713 0.000000 0.333713
v 0.333713 0.000000 0.291287
v 0.291287 0.000000 0.291287
v 0.291287 0.000000 0.333713
v 0.333713 0.800000 0.333713
v 0.333713 0.800000 0.291287
v 0.291287 0.800000 0.291287
v 0.291287 0.800000 0.333713
v -0.166287 0.000000 0.333713
v -0.166287 0.000000 0.291287
v -0.208713 0.000000 0.291287
v -0.208713 0.000000 0.333713
v -0.166287 0.800000 0.333713
v -0.166287 0.800000 0.291287
v -0.208713 0.800000 0.291287
v -0.208713 0.800000 0.333713
v 0.308157 0.269936 -0.004949
v 0.308181 0.263377 0.002050
v 0.308181 0.256488 -0.004839
v 0.308181 0.263377 -0.011728
v 0.335087 0.276399 -0.017860
v 0.335087 0.281792 -0.004839
v 0.335087 0.276399 0.008183
v 0.335087 0.263377 0.013577
v 0.335087 0.250355 0.008183
v 0.335087 0.244961 -0.004839
v 0.335087 0.250355 -0.017860
v 0.335087 0.263377 -0.023254
v 0.308178 0.594171 -0.004839
v 0.308178 0.584483 0.004850
v 0.308178 0.574794 -0.004839
v 0.308178 0.584483 -0.014527
v 0.335085 0.597504 -0.017860
v 0.335085 0.602898 -0.004839
v 0.335085 0.597504 0.008183
v 0.335085 0.584483 0.013577
v 0.335085 0.571461 0.008183
v 0.335085 0.566067 -0.004839
v 0.335085 0.571461 -0.017860
v 0.335085 0.584483 -0.023254
v 0.335087 0.276399 -0.017860
v 0.335087 0.281792 -0.004839
v 0.335087 0.276399 0.008183
v 0.335087 0.263377 0.013577
v 0.335087 0.250355 0.008183
v 0.335087 0.244961 -0.004839
v 0.335087 0.250355 -0.017860
v 0.335087 0.263377 -0.023254
v 0.335085 0.597504 -0.017860
v 0.335085 0.602898 -0.004839
v 0.335085 0.597504 0.008183
v 0.335085 0.584483 0.013577
v 0.335085 0.571461 0.008183
v 0.335085 0.566067 -0.004839
v 0.335085 0.571461 -0.017860
v 0.335085 0.584483 -0.023254
vt 0.167991 0.968671
vt 0.208959 0.966873
vt 0.208959 0.968671
vt 0.000976 0.886114
vt 0.022081 0.867761
vt 0.022081 0.886114
vt 0.119551 0.966681
vt 0.139889 0.940154
vt 0.139889 0.966681
vt 0.167991 0.933929
vt 0.208959 0.966873
vt 0.167991 0.966873
vt 0.210756 0.966873
vt 0.208959 0.933929
vt 0.210756 0.933929
vt 0.208959 0.932132
vt 0.167991 0.933929
vt 0.167991 0.932132
vt 0.166193 0.933929
vt 0.167991 0.966873
vt 0.166193 0.966873
vt 0.022951 0.851374
vt 0.058904 0.854250
vt 0.022951 0.854250
vt 0.076356 0.910024
vt 0.040404 0.907148
vt 0.076356 0.907148
vt 0.232410 0.854873
vt 0.196458 0.851997
vt 0.232410 0.851997
vt 0.160610 0.750620
vt 0.193554 0.791588
vt 0.160610 0.791588
vt 0.246712 0.833906
vt 0.249152 0.879925
vt 0.246712 0.879925
vt 0.241831 0.833906
vt 0.244271 0.879925
vt 0.241831 0.879925
vt 0.104302 0.750627
vt 0.106742 0.796647
vt 0.104302 0.796647
vt 0.109183 0.750627
vt 0.111623 0.796647
vt 0.109183 0.796647
vt 0.237243 0.750628
vt 0.239683 0.796647
vt 0.237243 0.796647
vt 0.232362 0.750628
vt 0.234802 0.796647
vt 0.232362 0.796647
vt 0.003068 0.886332
vt 0.005508 0.932351
vt 0.003068 0.932351
vt 0.007949 0.886332
vt 0.010390 0.932351
vt 0.007949 0.932351
vt 0.244271 0.833906
vt 0.246712 0.879925
vt 0.244271 0.879925
vt 0.246560 0.861165
vt 0.244631 0.859236
vt 0.246560 0.859236
vt 0.244140 0.856816
vt 0.242211 0.858745
vt 0.242211 0.856816
vt 0.246560 0.858745
vt 0.244631 0.856816
vt 0.246560 0.856816
vt 0.105119 0.910024
vt 0.076356 0.907148
vt 0.105119 0.907148
vt 0.011642 0.905874
vt 0.040404 0.902997
vt 0.040404 0.905873
vt 0.174129 0.845194
vt 0.156444 0.867301
vt 0.156444 0.845194
vt 0.243383 0.750623
vt 0.246259 0.786575
vt 0.243383 0.786575
vt 0.040404 0.905873
vt 0.076357 0.902997
vt 0.076357 0.905873
vt 0.076357 0.905873
vt 0.105119 0.902997
vt 0.105119 0.905873
vt 0.040404 0.910024
vt 0.011642 0.907148
vt 0.040404 0.907148
vt 0.001215 0.865640
vt 0.021553 0.847955
vt 0.021553 0.865640
vt 0.192518 0.850526
vt 0.172749 0.811342
vt 0.172749 0.850526
vt 0.192388 0.811342
vt 0.172971 0.850526
vt 0.172971 0.811342
vt 0.091680 0.872974
vt 0.127633 0.901736
vt 0.091680 0.901736
vt 0.244140 0.859236
vt 0.242211 0.861165
vt 0.242211 0.859236
vt 0.239390 0.833906
vt 0.241831 0.879925
vt 0.239390 0.879925
vt 0.111623 0.750627
vt 0.114064 0.796647
vt 0.111623 0.796647
vt 0.106742 0.750627
vt 0.109183 0.796647
vt 0.106742 0.796647
vt 0.234802 0.750628
vt 0.237243 0.796647
vt 0.234802 0.796647
vt 0.239683 0.750628
vt 0.242124 0.796647
vt 0.239683 0.796647
vt 0.000627 0.886332
vt 0.003068 0.932351
vt 0.000627 0.932351
vt 0.005508 0.886332
vt 0.007949 0.932351
vt 0.005508 0.932351
vt 0.305311 0.647809
vt 0.305519 0.646725
vt 0.305685 0.646818
vt 0.305685 0.645634
vt 0.304867 0.644892
vt 0.305311 0.644642
vt 0.304517 0.645263
vt 0.305304 0.646037
vt 0.304293 0.645722
vt 0.304216 0.646226
vt 0.305304 0.646415
vt 0.304293 0.646730
vt 0.304517 0.647189
vt 0.304867 0.647559
vt 0.305323 0.635786
vt 0.304349 0.635300
vt 0.304725 0.634955
vt 0.304975 0.636190
vt 0.303887 0.636202
vt 0.304851 0.636708
vt 0.303827 0.636708
vt 0.303887 0.637215
vt 0.304976 0.637226
vt 0.304065 0.637693
vt 0.304349 0.638116
vt 0.305323 0.637630
vt 0.304725 0.638461
vt 0.305293 0.654983
vt 0.304932 0.654113
vt 0.305803 0.653752
vt 0.303619 0.662364
vt 0.304090 0.663501
vt 0.302952 0.663972
vt 0.167991 0.966873
vt 0.000976 0.867761
vt 0.119551 0.940154
vt 0.208959 0.933929
vt 0.208959 0.966873
vt 0.208959 0.933929
vt 0.167991 0.933929
vt 0.058904 0.851374
vt 0.040404 0.910024
vt 0.196458 0.854873
vt 0.193554 0.750620
vt 0.249153 0.833906
vt 0.244271 0.833906
vt 0.106742 0.750627
vt 0.111623 0.750627
vt 0.239683 0.750628
vt 0.234802 0.750628
vt 0.005508 0.886332
vt 0.010390 0.886332
vt 0.246712 0.833906
vt 0.244631 0.861165
vt 0.244140 0.858745
vt 0.244631 0.858745
vt 0.076356 0.910024
vt 0.011642 0.902997
vt 0.174129 0.867301
vt 0.246259 0.750623
vt 0.040404 0.902997
vt 0.076357 0.902997
vt 0.011642 0.910024
vt 0.001215 0.847955
vt 0.192518 0.811342
vt 0.192388 0.850526
vt 0.127633 0.872974
vt 0.244140 0.861165
vt 0.241831 0.833906
vt 0.114064 0.750627
vt 0.109183 0.750627
vt 0.237243 0.750628
vt 0.242124 0.750627
vt 0.003068 0.886332
vt 0.007949 0.886332
vt 0.304065 0.635723
vt 0.306164 0.654113
vt 0.306164 0.654623
vt 0.305803 0.654983
vt 0.304932 0.654623
vt 0.305293 0.653752
vt 0.302481 0.663501
vt 0.302481 0.662835
vt 0.302952 0.662364
vt 0.304090 0.662835
vt 0.303619 0.663972
vn 1.0000 0.0000 0.0000
vn -0.0000 0.0000 1.0000
vn -1.0000 0.0000 -0.0000
vn 0.0000 1.0000 -0.0000
vn 0.0000 0.0000 -1.0000
vn 0.0000 -1.0000 -0.0000
vn -0.4041 0.6483 -0.6453
vn -0.5316 0.0061 -0.8469
vn -0.5275 0.8495 -0.0076
vn -0.4029 0.9152 0.0007
vn -0.4056 0.6484 0.6443
vn -0.5347 0.0119 0.8450
vn -0.3938 0.0000 0.9192
vn -0.4006 -0.6479 0.6479
vn -0.5287 -0.8488 0.0000
vn -0.3938 -0.9192 -0.0000
vn -0.4006 -0.6479 -0.6479
vn -0.3938 -0.0000 -0.9192
vn -0.4574 0.0000 -0.8892
vn -0.3234 0.6691 -0.6691
vn -0.3085 -0.0000 -0.9512
vn -0.4574 0.8892 0.0000
vn -0.3234 0.6691 0.6691
vn -0.4574 0.0000 0.8892
vn -0.3085 -0.0000 0.9512
vn -0.3234 -0.6691 0.6691
vn -0.4574 -0.8892 0.0000
vn -0.3085 -0.9512 0.0000
vn -0.3234 -0.6691 -0.6691
vn -0.3085 0.9512 0.0000
usemtl M_Interior
s 1
f 5/1/1 3/2/1 6/3/1
f 70/4/2 69/5/2 19/6/2
f 68/7/3 65/8/3 66/9/3
f 11/10/4 9/11/4 10/12/4
f 91/13/2 94/14/2 92/15/2
f 98/16/3 99/17/3 8/18/3
f 95/19/5 96/20/5 7/21/5
f 22/22/1 28/23/1 27/24/1
f 66/25/3 2/26/3 67/27/3
f 14/28/1 18/29/1 80/30/1
f 29/31/6 31/32/6 30/33/6
f 37/34/2 36/35/2 33/36/2
f 39/37/5 34/38/5 35/39/5
f 45/40/2 44/41/2 41/42/2
f 47/43/5 42/44/5 43/45/5
f 53/46/2 52/47/2 49/48/2
f 55/49/5 50/50/5 51/51/5
f 61/52/2 60/53/2 57/54/2
f 63/55/5 58/56/5 59/57/5
f 122/58/1 117/59/1 118/60/1
f 112/61/6 110/62/6 109/63/6
f 108/64/6 106/65/6 105/66/6
f 116/67/6 114/68/6 113/69/6
f 19/70/2 71/71/2 16/72/2
f 70/73/2 77/74/2 72/75/2
f 74/76/4 76/77/4 75/78/4
f 23/79/1 25/80/1 24/81/1
f 68/82/3 79/83/3 13/84/3
f 83/85/5 81/86/5 85/87/5
f 86/88/5 15/89/5 84/90/5
f 83/91/5 17/92/5 86/93/5
f 23/94/1 4/95/1 14/96/1
f 80/97/1 21/98/1 22/99/1
f 90/100/6 87/101/6 88/102/6
f 104/103/6 102/104/6 101/105/6
f 124/106/3 119/107/3 120/108/3
f 130/109/1 125/110/1 126/111/1
f 132/112/3 127/113/3 128/114/3
f 138/115/1 133/116/1 134/117/1
f 140/118/3 135/119/3 136/120/3
f 146/121/1 141/122/1 142/123/1
f 148/124/3 143/125/3 144/126/3
f 153/127/7 152/128/8 149/129/9
f 149/130/9 154/131/10 153/132/7
f 155/133/11 149/130/9 150/134/12
f 150/134/12 156/135/13 155/133/11
f 157/136/14 150/134/12 151/137/15
f 151/137/15 158/138/16 157/136/14
f 159/139/17 151/137/15 152/128/8
f 152/128/8 160/140/18 159/139/17
f 164/141/19 165/142/20 172/143/21
f 161/144/22 165/142/20 164/141/19
f 167/145/23 161/144/22 162/146/24
f 162/146/24 168/147/25 167/145/23
f 169/148/26 162/146/24 163/149/27
f 163/149/27 170/150/28 169/148/26
f 171/151/29 163/149/27 164/152/19
f 164/152/19 172/153/21 171/151/29
f 183/154/1 185/155/1 187/156/1
f 175/157/1 177/158/1 179/159/1
f 5/1/1 1/160/1 3/2/1
f 70/4/2 72/161/2 69/5/2
f 68/7/3 13/162/3 65/8/3
f 11/10/4 12/163/4 9/11/4
f 91/13/2 93/164/2 94/14/2
f 98/16/3 100/165/3 99/17/3
f 95/19/5 97/166/5 96/20/5
f 22/22/1 21/167/1 28/23/1
f 66/25/3 65/168/3 2/26/3
f 14/28/1 4/169/1 18/29/1
f 29/31/6 32/170/6 31/32/6
f 37/34/2 40/171/2 36/35/2
f 39/37/5 38/172/5 34/38/5
f 45/40/2 48/173/2 44/41/2
f 47/43/5 46/174/5 42/44/5
f 53/46/2 56/175/2 52/47/2
f 55/49/5 54/176/5 50/50/5
f 61/52/2 64/177/2 60/53/2
f 63/55/5 62/178/5 58/56/5
f 122/58/1 121/179/1 117/59/1
f 112/61/6 111/180/6 110/62/6
f 108/64/6 107/181/6 106/65/6
f 116/67/6 115/182/6 114/68/6
f 19/70/2 69/183/2 71/71/2
f 70/73/2 82/184/2 77/74/2
f 74/76/4 73/185/4 76/77/4
f 23/79/1 26/186/1 25/80/1
f 68/82/3 20/187/3 79/83/3
f 83/85/5 78/188/5 81/86/5
f 86/88/5 17/189/5 15/89/5
f 83/91/5 85/190/5 17/92/5
f 23/94/1 24/191/1 4/95/1
f 80/97/1 18/192/1 21/98/1
f 90/100/6 89/193/6 87/101/6
f 104/103/6 103/194/6 102/104/6
f 124/106/3 123/195/3 119/107/3
f 130/109/1 129/196/1 125/110/1
f 132/112/3 131/197/3 127/113/3
f 138/115/1 137/198/1 133/116/1
f 140/118/3 139/199/3 135/119/3
f 146/121/1 145/200/1 141/122/1
f 148/124/3 147/201/3 143/125/3
f 153/127/7 160/140/18 152/128/8
f 155/133/11 154/131/10 149/130/9
f 157/136/14 156/135/13 150/134/12
f 159/139/17 158/138/16 151/137/15
f 161/144/22 166/202/30 165/142/20
f 167/145/23 166/202/30 161/144/22
f 169/148/26 168/147/25 162/146/24
f 171/151/29 170/150/28 163/149/27
f 187/156/1 188/203/1 181/204/1
f 181/204/1 182/205/1 183/154/1
f 183/154/1 184/206/1 185/155/1
f 185/155/1 186/207/1 187/156/1
f 187/156/1 181/204/1 183/154/1
f 179/159/1 180/208/1 173/209/1
f 173/209/1 174/210/1 179/159/1
f 174/210/1 175/157/1 179/159/1
f 175/157/1 176/211/1 177/158/1
f 177/158/1 178/212/1 179/159/1
