# Blender v3.0.1 OBJ File: 'props.blend'
# www.blender.org
mtllib Nightstand_opened.mtl
o Nightstand_Opened_LOD0_Cube.019
v 0.348849 0.831250 -0.356093
v -0.187500 0.125000 -0.312500
v 0.348849 0.831250 0.356093
v 0.312500 0.512500 0.312500
v 0.348849 0.800000 -0.356093
v 0.348849 0.800000 0.356093
v 0.348849 0.800000 -0.356093
v -0.223849 0.800000 -0.356093
v 0.348849 0.831250 0.356093
v 0.348849 0.831250 -0.356093
v -0.223849 0.831250 -0.356093
v -0.223849 0.831250 0.356093
v -0.187500 0.750000 -0.312500
v 0.312500 0.512500 -0.312500
v 0.312500 0.125000 -0.312500
v 0.312500 0.125000 0.312500
v 0.312500 0.175000 -0.312500
v 0.312500 0.462500 0.312500
v 0.312500 0.175000 0.312500
v -0.187500 0.800000 0.312500
v 0.312500 0.175000 0.312500
v 0.312500 0.175000 -0.312500
v 0.312500 0.750000 -0.312500
v 0.312500 0.750000 0.312500
v 0.312500 0.125000 -0.312500
v 0.312500 0.125000 0.312500
v 0.348849 0.800000 0.356093
v 0.348849 0.800000 -0.356093
v -0.223849 0.800000 -0.356093
v -0.223849 0.800000 0.356093
v 0.333713 0.000000 -0.291287
v 0.333713 0.000000 -0.333713
v 0.291287 0.000000 -0.333713
v 0.291287 0.000000 -0.291287
v 0.333713 0.800000 -0.291287
v 0.333713 0.800000 -0.333713
v 0.291287 0.800000 -0.333713
v 0.291287 0.800000 -0.291287
v -0.166287 0.000000 -0.291287
v -0.166287 0.000000 -0.333713
v -0.208713 0.000000 -0.333713
v -0.208713 0.000000 -0.291287
v -0.166287 0.800000 -0.291287
v -0.166287 0.800000 -0.333713
v -0.208713 0.800000 -0.333713
v -0.208713 0.800000 -0.291287
v 0.333713 0.000000 0.333713
v 0.333713 0.000000 0.291287
v 0.291287 0.000000 0.291287
v 0.291287 0.000000 0.333713
v 0.333713 0.800000 0.333713
v 0.333713 0.800000 0.291287
v 0.291287 0.800000 0.291287
v 0.291287 0.800000 0.333713
v -0.166287 0.000000 0.333713
v -0.166287 0.000000 0.291287
v -0.208713 0.000000 0.291287
v -0.208713 0.000000 0.333713
v -0.166287 0.800000 0.333713
v -0.166287 0.800000 0.291287
v -0.208713 0.800000 0.291287
v -0.208713 0.800000 0.333713
v -0.187500 0.175000 -0.312500
v -0.187500 0.175000 0.312500
v -0.187500 0.125000 0.312500
v -0.187500 0.750000 0.312500
v -0.187500 0.175000 0.312500
v 0.312500 0.750000 0.312500
v -0.187500 0.125000 0.312500
v -0.187500 0.750000 0.312500
v -0.187500 0.800000 0.312500
v -0.187500 0.800000 -0.312500
v 0.312500 0.800000 -0.312500
v 0.312500 0.800000 0.312500
v -0.187500 0.800000 0.312500
v -0.187500 0.800000 -0.312500
v -0.187500 0.800000 -0.312500
v 0.312500 0.462500 -0.312500
v 0.312500 0.800000 -0.312500
v 0.312500 0.800000 0.312500
v -0.187500 0.750000 -0.312500
v -0.187500 0.125000 -0.312500
v 0.312500 0.750000 -0.312500
v -0.187500 0.175000 -0.312500
v -0.187500 0.125000 0.312500
v -0.187500 0.125000 -0.312500
v 0.312500 0.125000 0.312500
v 0.312500 0.125000 -0.312500
v 0.348849 0.800000 0.356093
v -0.223849 0.800000 0.356093
v 0.348849 0.831250 0.356093
v -0.223849 0.831250 0.356093
v -0.223849 0.800000 -0.356093
v 0.348849 0.831250 -0.356093
v -0.223849 0.831250 -0.356093
v -0.223849 0.800000 0.356093
v -0.223849 0.831250 -0.356093
v -0.223849 0.831250 0.356093
v 0.333713 0.000000 -0.291287
v 0.333713 0.000000 -0.333713
v 0.291287 0.000000 -0.333713
v 0.291287 0.000000 -0.291287
v -0.166287 0.000000 -0.291287
v -0.166287 0.000000 -0.333713
v -0.208713 0.000000 -0.333713
v -0.208713 0.000000 -0.291287
v -0.166287 0.000000 0.333713
v -0.166287 0.000000 0.291287
v -0.208713 0.000000 0.291287
v -0.208713 0.000000 0.333713
v 0.333713 0.000000 0.333713
v 0.333713 0.000000 0.291287
v 0.291287 0.000000 0.291287
v 0.291287 0.000000 0.333713
v 0.333713 0.000000 -0.291287
v 0.333713 0.000000 -0.333713
v 0.291287 0.000000 -0.333713
v 0.291287 0.000000 -0.291287
v 0.333713 0.800000 -0.291287
v 0.333713 0.800000 -0.333713
v 0.291287 0.800000 -0.333713
v 0.291287 0.800000 -0.291287
v -0.166287 0.000000 -0.291287
v -0.166287 0.000000 -0.333713
v -0.208713 0.000000 -0.333713
v -0.208713 0.000000 -0.291287
v -0.166287 0.800000 -0.291287
v -0.166287 0.800000 -0.333713
v -0.208713 0.800000 -0.333713
v -0.208713 0.800000 -0.291287
v 0.333713 0.000000 0.333713
v 0.333713 0.000000 0.291287
v 0.291287 0.000000 0.291287
v 0.291287 0.000000 0.333713
v 0.333713 0.800000 0.333713
v 0.333713 0.800000 0.291287
v 0.291287 0.800000 0.291287
v 0.291287 0.800000 0.333713
v -0.166287 0.000000 0.333713
v -0.166287 0.000000 0.291287
v -0.208713 0.000000 0.291287
v -0.208713 0.000000 0.333713
v -0.166287 0.800000 0.333713
v -0.166287 0.800000 0.291287
v -0.208713 0.800000 0.291287
v -0.208713 0.800000 0.333713
v 0.307763 0.270128 -0.004953
v 0.307787 0.263377 0.002252
v 0.307787 0.256286 -0.004839
v 0.307787 0.263377 -0.011929
v 0.335481 0.276779 -0.018241
v 0.335481 0.282331 -0.004839
v 0.335481 0.276779 0.008564
v 0.335481 0.263377 0.014116
v 0.335481 0.249974 0.008564
v 0.335481 0.244423 -0.004839
v 0.335481 0.249974 -0.018241
v 0.335481 0.263377 -0.023793
v 0.335481 0.276779 -0.018241
v 0.335481 0.282331 -0.004839
v 0.335481 0.276779 0.008564
v 0.335481 0.263377 0.014116
v 0.335481 0.249974 0.008564
v 0.335481 0.244423 -0.004839
v 0.335481 0.249974 -0.018241
v 0.335481 0.263377 -0.023793
v 0.419095 0.502587 0.312500
v 0.419096 0.502587 -0.312500
v 0.419096 0.750000 -0.312500
v 0.419095 0.750000 0.312500
v 0.414380 0.594454 -0.004839
v 0.414380 0.584483 0.005133
v 0.414380 0.574511 -0.004839
v 0.414380 0.584483 -0.014810
v 0.442074 0.597885 -0.018241
v 0.442074 0.603437 -0.004839
v 0.442074 0.584483 0.014116
v 0.442074 0.571080 -0.018241
v 0.442074 0.597885 0.008564
v 0.442074 0.571080 0.008564
v 0.442074 0.565528 -0.004839
v 0.442074 0.584483 -0.023793
v 0.387132 0.750000 -0.312500
v 0.387132 0.502587 -0.312500
v 0.387132 0.750000 0.312500
v 0.387132 0.502587 0.312500
v 0.419095 0.502587 0.312500
v 0.419096 0.502587 -0.312500
v 0.387132 0.502587 -0.312500
v 0.387132 0.502587 0.312500
v 0.419096 0.502587 -0.312500
v 0.419096 0.750000 -0.312500
v 0.387132 0.750000 -0.312500
v 0.387132 0.502587 -0.312500
v 0.419095 0.502587 0.312500
v 0.419095 0.750000 0.312500
v 0.387132 0.750000 0.312500
v 0.387132 0.502587 0.312500
v 0.387132 0.673903 -0.274000
v 0.309705 0.410000 -0.219200
v 0.387132 0.673903 0.274000
v 0.309705 0.410000 0.219200
v -0.060377 0.673903 -0.274000
v -0.060377 0.673903 0.274000
v -0.166287 0.750000 -0.312500
v -0.166287 0.750000 0.312500
v 0.387132 0.673903 -0.291287
v -0.060377 0.673903 -0.291287
v 0.387132 0.512500 -0.274000
v 0.387132 0.673903 -0.274000
v -0.060377 0.512500 -0.274000
v -0.060377 0.673903 -0.274000
v 0.387132 0.537500 -0.274000
v 0.387132 0.537500 0.274000
v -0.060377 0.537500 -0.274000
v -0.060377 0.537500 0.274000
v 0.387132 0.512500 0.274000
v 0.387132 0.673903 0.274000
v 0.387132 0.512500 -0.291287
v 0.387132 0.512500 0.291287
v -0.060377 0.512500 -0.291287
v -0.060377 0.512500 0.291287
v 0.387132 0.673903 0.291287
v -0.060377 0.673903 0.291287
v -0.060377 0.673903 0.274000
v -0.060377 0.512500 0.274000
v 0.291287 0.800000 0.291287
v -0.166287 0.800000 0.291287
v 0.291287 0.589719 0.291287
v -0.166287 0.589719 0.291287
v 0.291287 0.800000 -0.291287
v -0.166287 0.800000 -0.291287
v 0.291287 0.589719 -0.291287
v -0.166287 0.589719 -0.291287
v -0.166287 0.750000 0.312500
v -0.166287 0.750000 -0.312500
v -0.166287 0.539719 0.312500
v -0.166287 0.539719 -0.312500
v 0.419096 0.750000 -0.312500
v 0.419095 0.750000 0.312500
v 0.387132 0.750000 -0.312500
v 0.387132 0.750000 0.312500
v 0.312500 0.750000 -0.312500
v 0.312500 0.750000 0.312500
v 0.312500 0.800000 0.312500
v 0.312500 0.800000 -0.312500
v 0.387132 0.512500 -0.291287
v 0.387132 0.673903 -0.291287
v -0.060377 0.512500 -0.291287
v -0.060377 0.673903 -0.291287
v 0.387132 0.673903 0.291287
v 0.387132 0.512500 0.291287
v -0.060377 0.673903 0.291287
v -0.060377 0.512500 0.291287
v -0.060377 0.512500 -0.274000
v -0.060377 0.673903 -0.274000
v -0.060377 0.673903 0.274000
v -0.060377 0.512500 0.274000
vt 0.167991 0.968671
vt 0.208959 0.966873
vt 0.208959 0.968671
vt 0.000976 0.886114
vt 0.022081 0.867761
vt 0.022081 0.886114
vt 0.119551 0.966681
vt 0.139889 0.940154
vt 0.139889 0.966681
vt 0.167991 0.933929
vt 0.208959 0.966873
vt 0.167991 0.966873
vt 0.210756 0.966873
vt 0.208959 0.933929
vt 0.210756 0.933929
vt 0.208959 0.932132
vt 0.167991 0.933929
vt 0.167991 0.932132
vt 0.166193 0.933929
vt 0.167991 0.966873
vt 0.166193 0.966873
vt 0.022951 0.851374
vt 0.058904 0.854250
vt 0.022951 0.854250
vt 0.076356 0.910024
vt 0.040404 0.907148
vt 0.076356 0.907148
vt 0.232410 0.854873
vt 0.196458 0.851997
vt 0.232410 0.851997
vt 0.160610 0.750620
vt 0.193554 0.791588
vt 0.160610 0.791588
vt 0.246712 0.833906
vt 0.249152 0.879925
vt 0.246712 0.879925
vt 0.241831 0.833906
vt 0.244271 0.879925
vt 0.241831 0.879925
vt 0.104302 0.750627
vt 0.106742 0.796647
vt 0.104302 0.796647
vt 0.109183 0.750627
vt 0.111623 0.796647
vt 0.109183 0.796647
vt 0.237243 0.750628
vt 0.239683 0.796647
vt 0.237243 0.796647
vt 0.232362 0.750628
vt 0.234802 0.796647
vt 0.232362 0.796647
vt 0.003068 0.886332
vt 0.005508 0.932351
vt 0.003068 0.932351
vt 0.007949 0.886332
vt 0.010390 0.932351
vt 0.007949 0.932351
vt 0.244271 0.833906
vt 0.246712 0.879925
vt 0.244271 0.879925
vt 0.246560 0.861165
vt 0.244631 0.859236
vt 0.246560 0.859236
vt 0.244140 0.856816
vt 0.242211 0.858745
vt 0.242211 0.856816
vt 0.246560 0.858745
vt 0.244631 0.856816
vt 0.246560 0.856816
vt 0.105119 0.910024
vt 0.076356 0.907148
vt 0.105119 0.907148
vt 0.011642 0.905874
vt 0.040404 0.902997
vt 0.040404 0.905873
vt 0.174129 0.845194
vt 0.156444 0.867301
vt 0.156444 0.845194
vt 0.040404 0.905873
vt 0.076357 0.902997
vt 0.076357 0.905873
vt 0.076357 0.905873
vt 0.105119 0.902997
vt 0.105119 0.905873
vt 0.040404 0.910024
vt 0.011642 0.907148
vt 0.040404 0.907148
vt 0.001215 0.865640
vt 0.021553 0.847955
vt 0.021553 0.865640
vt 0.192388 0.811342
vt 0.172971 0.850526
vt 0.172971 0.811342
vt 0.091680 0.872974
vt 0.127633 0.901736
vt 0.091680 0.901736
vt 0.244140 0.859236
vt 0.242211 0.861165
vt 0.242211 0.859236
vt 0.239390 0.833906
vt 0.241831 0.879925
vt 0.239390 0.879925
vt 0.111623 0.750627
vt 0.114064 0.796647
vt 0.111623 0.796647
vt 0.106742 0.750627
vt 0.109183 0.796647
vt 0.106742 0.796647
vt 0.234802 0.750628
vt 0.237243 0.796647
vt 0.234802 0.796647
vt 0.239683 0.750628
vt 0.242124 0.796647
vt 0.239683 0.796647
vt 0.000627 0.886332
vt 0.003068 0.932351
vt 0.000627 0.932351
vt 0.005508 0.886332
vt 0.007949 0.932351
vt 0.005508 0.932351
vt 0.305311 0.647809
vt 0.305519 0.646725
vt 0.305685 0.646818
vt 0.305685 0.645634
vt 0.304867 0.644892
vt 0.305311 0.644642
vt 0.304517 0.645263
vt 0.305304 0.646037
vt 0.304293 0.645722
vt 0.304216 0.646226
vt 0.305304 0.646415
vt 0.304293 0.646730
vt 0.304517 0.647189
vt 0.304867 0.647559
vt 0.302952 0.663972
vt 0.302481 0.662835
vt 0.303619 0.662364
vt 0.192518 0.850526
vt 0.172749 0.811342
vt 0.172749 0.850526
vt 0.305323 0.635786
vt 0.304349 0.635300
vt 0.304725 0.634955
vt 0.304975 0.636190
vt 0.303887 0.636202
vt 0.304851 0.636708
vt 0.303827 0.636708
vt 0.303887 0.637215
vt 0.304976 0.637226
vt 0.304065 0.637693
vt 0.304349 0.638116
vt 0.305323 0.637630
vt 0.304725 0.638461
vt 0.305293 0.654983
vt 0.304932 0.654113
vt 0.305803 0.653752
vt 0.113040 0.824904
vt 0.096319 0.831258
vt 0.096319 0.824904
vt 0.101384 0.907049
vt 0.080868 0.909810
vt 0.080868 0.907049
vt 0.080868 0.909810
vt 0.101384 0.907049
vt 0.101384 0.909810
vt 0.078190 0.906204
vt 0.024200 0.903443
vt 0.024200 0.906204
vt 0.146443 0.946486
vt 0.164895 0.922400
vt 0.146443 0.922400
vt 0.209803 0.917187
vt 0.209053 0.897785
vt 0.209053 0.917187
vt 0.223798 0.897785
vt 0.216800 0.917187
vt 0.223798 0.917187
vt 0.074723 0.804709
vt 0.087023 0.789647
vt 0.087023 0.804709
vt 0.209840 0.897340
vt 0.218618 0.921681
vt 0.209840 0.921681
vt 0.132903 -0.000192
vt 0.132903 -0.000192
vt 0.132903 -0.000192
vt 0.062852 0.975685
vt 0.049634 0.965531
vt 0.049634 0.975685
vt 0.208899 0.921681
vt 0.209840 0.897340
vt 0.209840 0.921681
vt 0.157384 0.791663
vt 0.143697 0.761634
vt 0.143604 0.791620
vt 0.135147 0.761249
vt 0.121273 0.791192
vt 0.135054 0.791235
vt 0.092331 0.855214
vt 0.124706 0.866499
vt 0.092212 0.866147
vt 0.078190 0.906818
vt 0.024200 0.909579
vt 0.024200 0.906818
vt 0.243383 0.750623
vt 0.246259 0.786575
vt 0.243383 0.786575
vt 0.172884 0.785394
vt 0.165886 0.765993
vt 0.165886 0.785394
vt 0.172912 0.765993
vt 0.165886 0.785472
vt 0.165886 0.765993
vt 0.053651 0.805712
vt 0.009630 0.792746
vt 0.053651 0.792746
vt 0.167991 0.966873
vt 0.000976 0.867761
vt 0.119551 0.940154
vt 0.208959 0.933929
vt 0.208959 0.966873
vt 0.208959 0.933929
vt 0.167991 0.933929
vt 0.058904 0.851374
vt 0.040404 0.910024
vt 0.196458 0.854873
vt 0.193554 0.750620
vt 0.249153 0.833906
vt 0.244271 0.833906
vt 0.106742 0.750627
vt 0.111623 0.750627
vt 0.239683 0.750628
vt 0.234802 0.750628
vt 0.005508 0.886332
vt 0.010390 0.886332
vt 0.246712 0.833906
vt 0.244631 0.861165
vt 0.244140 0.858745
vt 0.244631 0.858745
vt 0.076356 0.910024
vt 0.011642 0.902997
vt 0.174129 0.867301
vt 0.040404 0.902997
vt 0.076357 0.902997
vt 0.011642 0.910024
vt 0.001215 0.847955
vt 0.192388 0.850526
vt 0.127633 0.872974
vt 0.244140 0.861165
vt 0.241831 0.833906
vt 0.114064 0.750627
vt 0.109183 0.750627
vt 0.237243 0.750628
vt 0.242124 0.750627
vt 0.003068 0.886332
vt 0.007949 0.886332
vt 0.302481 0.663501
vt 0.302952 0.662364
vt 0.304090 0.662835
vt 0.304090 0.663501
vt 0.303619 0.663972
vt 0.192518 0.811342
vt 0.304065 0.635723
vt 0.306164 0.654113
vt 0.306164 0.654623
vt 0.305803 0.654983
vt 0.304932 0.654623
vt 0.305293 0.653752
vt 0.113040 0.831258
vt 0.101384 0.909810
vt 0.080868 0.907049
vt 0.078190 0.903443
vt 0.164895 0.946486
vt 0.209803 0.897785
vt 0.216800 0.897785
vt 0.074723 0.789647
vt 0.218618 0.897340
vt 0.132903 -0.000192
vt 0.062852 0.965531
vt 0.208899 0.897340
vt 0.157477 0.761677
vt 0.121366 0.761206
vt 0.124825 0.855566
vt 0.078190 0.909579
vt 0.246259 0.750623
vt 0.172884 0.765993
vt 0.172912 0.785472
vt 0.009630 0.805712
vn 1.0000 0.0000 0.0000
vn -0.0000 0.0000 1.0000
vn -1.0000 0.0000 -0.0000
vn 0.0000 1.0000 -0.0000
vn 0.0000 0.0000 -1.0000
vn 0.0000 -1.0000 -0.0000
vn -0.4041 0.6483 -0.6453
vn -0.5316 0.0061 -0.8469
vn -0.5275 0.8495 -0.0076
vn -0.4029 0.9152 0.0007
vn -0.4056 0.6484 0.6443
vn -0.5347 0.0119 0.8450
vn -0.3938 0.0000 0.9192
vn -0.4006 -0.6479 0.6479
vn -0.5287 -0.8488 -0.0000
vn -0.3938 -0.9192 -0.0000
vn -0.4006 -0.6479 -0.6479
vn -0.3938 -0.0000 -0.9192
vn -0.4574 -0.0000 -0.8892
vn 0.5019 0.6116 -0.6116
vn 0.5095 0.0000 -0.8605
vn -0.4574 0.8892 -0.0000
vn 0.5019 0.6116 0.6116
vn -0.4574 -0.0000 0.8892
vn 0.5095 0.0000 0.8605
vn 0.5019 -0.6116 0.6116
vn -0.4574 -0.8892 -0.0000
vn 0.5095 -0.8605 0.0000
vn 0.5019 -0.6116 -0.6116
vn 0.7431 0.6692 0.0000
vn 0.8547 -0.5191 0.0000
vn 0.5095 0.8605 -0.0000
usemtl M_Interior
s 1
f 5/1/1 3/2/1 6/3/1
f 68/4/2 67/5/2 19/6/2
f 66/7/3 63/8/3 64/9/3
f 11/10/4 9/11/4 10/12/4
f 89/13/2 92/14/2 90/15/2
f 96/16/3 97/17/3 8/18/3
f 93/19/5 94/20/5 7/21/5
f 22/22/1 26/23/1 25/24/1
f 64/25/3 2/26/3 65/27/3
f 14/28/1 18/29/1 78/30/1
f 27/31/6 29/32/6 28/33/6
f 35/34/2 34/35/2 31/36/2
f 37/37/5 32/38/5 33/39/5
f 43/40/2 42/41/2 39/42/2
f 45/43/5 40/44/5 41/45/5
f 51/46/2 50/47/2 47/48/2
f 53/49/5 48/50/5 49/51/5
f 59/52/2 58/53/2 55/54/2
f 61/55/5 56/56/5 57/57/5
f 120/58/1 115/59/1 116/60/1
f 110/61/6 108/62/6 107/63/6
f 106/64/6 104/65/6 103/66/6
f 114/67/6 112/68/6 111/69/6
f 19/70/2 69/71/2 16/72/2
f 68/73/2 75/74/2 70/75/2
f 72/76/4 74/77/4 73/78/4
f 66/79/3 77/80/3 13/81/3
f 81/82/5 79/83/5 83/84/5
f 84/85/5 15/86/5 82/87/5
f 81/88/5 17/89/5 84/90/5
f 78/91/1 21/92/1 22/93/1
f 88/94/6 85/95/6 86/96/6
f 102/97/6 100/98/6 99/99/6
f 122/100/3 117/101/3 118/102/3
f 128/103/1 123/104/1 124/105/1
f 130/106/3 125/107/3 126/108/3
f 136/109/1 131/110/1 132/111/1
f 138/112/3 133/113/3 134/114/3
f 144/115/1 139/116/1 140/117/1
f 146/118/3 141/119/3 142/120/3
f 151/121/7 150/122/8 147/123/9
f 147/124/9 152/125/10 151/126/7
f 153/127/11 147/124/9 148/128/12
f 148/128/12 154/129/13 153/127/11
f 155/130/14 148/128/12 149/131/15
f 149/131/15 156/132/16 155/130/14
f 157/133/17 149/131/15 150/122/8
f 150/122/8 158/134/18 157/133/17
f 165/135/1 159/136/1 161/137/1
f 169/138/1 167/139/1 168/140/1
f 174/141/19 175/142/20 182/143/21
f 171/144/22 175/142/20 174/141/19
f 179/145/23 171/144/22 172/146/24
f 172/146/24 177/147/25 179/145/23
f 180/148/26 172/146/24 173/149/27
f 173/149/27 181/150/28 180/148/26
f 178/151/29 173/149/27 174/152/19
f 174/152/19 182/153/21 178/151/29
f 179/154/23 180/155/26 178/156/29
f 186/157/3 183/158/3 184/159/3
f 191/160/5 193/161/5 192/162/5
f 196/163/2 198/164/2 195/165/2
f 187/166/6 189/167/6 188/168/6
f 24/169/6 205/170/6 23/171/6
f 207/172/4 203/173/4 199/174/4
f 212/175/2 209/176/2 210/177/2
f 215/178/4 214/179/30 213/180/30
f 226/181/5 218/182/5 217/183/5
f 200/184/31 214/185/31 202/186/31
f 220/187/6 221/188/6 219/189/6
f 224/190/4 201/191/4 204/192/4
f 229/193/5 228/194/5 227/195/5
f 232/196/2 233/197/2 231/198/2
f 237/199/1 236/200/1 235/201/1
f 239/202/4 242/203/4 240/204/4
f 243/205/1 245/206/1 244/207/1
f 247/208/5 250/209/5 248/210/5
f 251/211/2 254/212/2 252/213/2
f 256/214/1 258/215/1 255/216/1
f 5/1/1 1/217/1 3/2/1
f 68/4/2 70/218/2 67/5/2
f 66/7/3 13/219/3 63/8/3
f 11/10/4 12/220/4 9/11/4
f 89/13/2 91/221/2 92/14/2
f 96/16/3 98/222/3 97/17/3
f 93/19/5 95/223/5 94/20/5
f 22/22/1 21/224/1 26/23/1
f 64/25/3 63/225/3 2/26/3
f 14/28/1 4/226/1 18/29/1
f 27/31/6 30/227/6 29/32/6
f 35/34/2 38/228/2 34/35/2
f 37/37/5 36/229/5 32/38/5
f 43/40/2 46/230/2 42/41/2
f 45/43/5 44/231/5 40/44/5
f 51/46/2 54/232/2 50/47/2
f 53/49/5 52/233/5 48/50/5
f 59/52/2 62/234/2 58/53/2
f 61/55/5 60/235/5 56/56/5
f 120/58/1 119/236/1 115/59/1
f 110/61/6 109/237/6 108/62/6
f 106/64/6 105/238/6 104/65/6
f 114/67/6 113/239/6 112/68/6
f 19/70/2 67/240/2 69/71/2
f 68/73/2 80/241/2 75/74/2
f 72/76/4 71/242/4 74/77/4
f 66/79/3 20/243/3 77/80/3
f 81/82/5 76/244/5 79/83/5
f 84/85/5 17/245/5 15/86/5
f 81/88/5 83/246/5 17/89/5
f 78/91/1 18/247/1 21/92/1
f 88/94/6 87/248/6 85/95/6
f 102/97/6 101/249/6 100/98/6
f 122/100/3 121/250/3 117/101/3
f 128/103/1 127/251/1 123/104/1
f 130/106/3 129/252/3 125/107/3
f 136/109/1 135/253/1 131/110/1
f 138/112/3 137/254/3 133/113/3
f 144/115/1 143/255/1 139/116/1
f 146/118/3 145/256/3 141/119/3
f 151/121/7 158/134/18 150/122/8
f 153/127/11 152/125/10 147/124/9
f 155/130/14 154/129/13 148/128/12
f 157/133/17 156/132/16 149/131/15
f 165/135/1 166/257/1 159/136/1
f 159/136/1 160/258/1 161/137/1
f 161/137/1 162/259/1 165/135/1
f 162/259/1 163/260/1 165/135/1
f 163/260/1 164/261/1 165/135/1
f 169/138/1 170/262/1 167/139/1
f 171/144/22 176/263/32 175/142/20
f 179/145/23 176/263/32 171/144/22
f 180/148/26 177/147/25 172/146/24
f 178/151/29 181/150/28 173/149/27
f 178/156/29 182/264/21 175/265/20
f 175/265/20 176/266/32 179/154/23
f 179/154/23 177/267/25 180/155/26
f 180/155/26 181/268/28 178/156/29
f 178/156/29 175/265/20 179/154/23
f 186/157/3 185/269/3 183/158/3
f 191/160/5 194/270/5 193/161/5
f 196/163/2 197/271/2 198/164/2
f 187/166/6 190/272/6 189/167/6
f 24/169/6 206/273/6 205/170/6
f 207/172/4 208/274/4 203/173/4
f 212/175/2 211/275/2 209/176/2
f 215/178/4 216/276/4 214/179/30
f 226/181/5 225/277/5 218/182/5
f 200/184/31 213/278/31 214/185/31
f 220/187/6 222/279/6 221/188/6
f 224/190/4 223/280/4 201/191/4
f 229/193/5 230/281/5 228/194/5
f 232/196/2 234/282/2 233/197/2
f 237/199/1 238/283/1 236/200/1
f 239/202/4 241/284/4 242/203/4
f 243/205/1 246/285/1 245/206/1
f 247/208/5 249/286/5 250/209/5
f 251/211/2 253/287/2 254/212/2
f 256/214/1 257/288/1 258/215/1
