# Blender v3.0.1 OBJ File: 'props.blend'
# www.blender.org
mtllib Pan03a.mtl
o Pan03a_LOD0_defaultMaterial.011
v 0.009812 0.000937 -0.135846
v -0.034550 0.000937 -0.134041
v -0.076183 0.000937 -0.118616
v -0.111012 0.000937 -0.091080
v -0.135627 0.000937 -0.054129
v 0.014954 0.202110 -0.179813
v -0.040655 0.201126 -0.177262
v -0.096230 0.202911 -0.159026
v -0.143250 0.201880 -0.121337
v -0.176915 0.198445 -0.073094
v -0.160484 0.063052 -0.065547
v -0.131124 0.063052 -0.109620
v -0.089582 0.063052 -0.142463
v -0.039924 0.063052 -0.160862
v 0.012990 0.063052 -0.163015
v 0.063978 0.063052 -0.148711
v -0.183943 0.219173 -0.076322
v 0.015887 0.221067 -0.187794
v -0.044825 0.221067 -0.185323
v -0.101802 0.221067 -0.164213
v -0.149467 0.221067 -0.126529
v 0.072826 0.220494 -0.163095
v 0.016959 0.220389 -0.179398
v -0.041232 0.220192 -0.177607
v -0.097963 0.220494 -0.157356
v -0.143181 0.220291 -0.120714
v -0.176036 0.220574 -0.072690
v 0.022384 0.145790 -0.168975
v 0.010821 0.125712 -0.187641
v 0.010023 0.145946 -0.188008
v 0.051279 0.145946 -0.194943
v 0.050463 0.125712 -0.195129
v 0.038574 0.125712 -0.205317
v 0.038671 0.145946 -0.206462
v 0.089283 0.145960 -0.205374
v 0.021573 0.125597 -0.166932
v 0.003089 0.125712 -0.169151
v 0.002599 0.145946 -0.171325
v 0.108052 0.063052 -0.119352
v 0.140895 0.063052 -0.077809
v 0.159294 0.063052 -0.028151
v 0.161447 0.063052 0.024762
v 0.147143 0.063052 0.075751
v 0.089512 0.000937 -0.099239
v 0.052561 0.000937 -0.123854
v 0.117048 0.000937 -0.064410
v 0.132473 0.000937 -0.022777
v 0.134278 0.000937 0.021585
v 0.122286 0.000937 0.064334
v 0.071387 0.202110 -0.164841
v 0.174475 0.198445 -0.031751
v 0.119515 0.202110 -0.131787
v 0.155397 0.201880 -0.086412
v 0.177270 0.201126 0.029135
v 0.162257 0.202911 0.085243
v 0.124960 0.221067 -0.137695
v 0.074391 0.221067 -0.171382
v 0.162645 0.221067 -0.090029
v 0.184787 0.219752 -0.033312
v 0.186225 0.221067 0.027660
v 0.169814 0.221067 0.086164
v 0.119146 0.220292 -0.131408
v 0.155751 0.220337 -0.086156
v 0.176102 0.220389 -0.029438
v 0.177830 0.220389 0.028732
v 0.161527 0.220494 0.084599
v 0.106433 0.145791 -0.130371
v 0.105421 0.125598 -0.128420
v 0.119157 0.125712 -0.115839
v 0.128146 0.125712 -0.133752
v 0.121126 0.145946 -0.116884
v 0.128944 0.145946 -0.133386
v 0.107867 0.145946 -0.168568
v 0.108466 0.125712 -0.168196
v 0.123204 0.125712 -0.166492
v 0.123982 0.145946 -0.167155
v 0.081764 0.145951 -0.186859
v 0.072470 0.125712 -0.207871
v 0.081966 0.125720 -0.187010
v 0.102665 0.125712 -0.194000
v -0.121393 0.063052 0.129556
v -0.077319 0.063052 0.158916
v -0.154236 0.063052 0.088014
v -0.172635 0.063052 0.038355
v -0.174788 0.063052 -0.014558
v -0.102853 0.000937 0.109444
v -0.065902 0.000937 0.134059
v -0.130389 0.000937 0.074615
v -0.145814 0.000937 0.032982
v -0.147619 0.000937 -0.011381
v -0.084728 0.201217 0.175045
v -0.133699 0.201217 0.140188
v -0.170646 0.202586 0.094649
v -0.188840 0.201217 0.039723
v -0.191193 0.201126 -0.013954
v -0.138301 0.221067 0.147899
v -0.087732 0.221067 0.181586
v -0.175986 0.221067 0.100234
v -0.197096 0.221067 0.043257
v -0.199566 0.221067 -0.017456
v -0.134216 0.220396 0.140496
v -0.168513 0.220291 0.096052
v -0.189342 0.220337 0.041703
v -0.191059 0.220291 -0.016475
v -0.086167 0.220494 0.173300
v -0.119793 0.145792 0.140566
v -0.118774 0.125598 0.138618
v -0.132498 0.125712 0.126044
v -0.141487 0.125712 0.143957
v -0.134467 0.145946 0.127089
v -0.142285 0.145946 0.143590
v -0.120665 0.145946 0.179405
v -0.121338 0.125712 0.178907
v -0.136813 0.125712 0.176526
v -0.137618 0.145946 0.177346
v -0.094653 0.125720 0.197516
v -0.116665 0.125712 0.203904
v -0.117209 0.145946 0.205583
v -0.026331 0.063052 0.173220
v 0.026583 0.063052 0.171067
v 0.076241 0.063052 0.152668
v 0.117783 0.063052 0.119825
v -0.023153 0.000937 0.146051
v 0.021209 0.000937 0.144246
v 0.062842 0.000937 0.128820
v 0.097671 0.000937 0.101285
v -0.030037 0.201217 0.189054
v 0.029799 0.201217 0.186914
v 0.085248 0.203620 0.168698
v 0.129225 0.200511 0.130372
v 0.031744 0.219752 0.196560
v -0.029228 0.221067 0.197998
v 0.086915 0.221078 0.171666
v 0.136126 0.221067 0.136733
v 0.083390 0.220396 0.166261
v -0.030300 0.220389 0.189603
v 0.029928 0.220494 0.187824
v 0.128723 0.220396 0.132648
v -0.035745 0.145791 0.179172
v -0.034925 0.125597 0.177132
v -0.024162 0.125712 0.197846
v -0.016430 0.125712 0.179356
v -0.023364 0.145946 0.198212
v -0.015940 0.145946 0.181530
v -0.063786 0.145946 0.205147
v -0.063114 0.125712 0.205359
v -0.052218 0.125712 0.215430
v -0.052214 0.145946 0.216451
v -0.094669 0.145951 0.197264
v -0.086468 0.125712 0.217772
v -0.087210 0.145946 0.219185
v -0.008318 0.012346 -0.140304
v 0.073683 0.012354 -0.115467
v -0.093390 0.012352 -0.111524
v -0.145296 0.012341 -0.038236
v 0.118773 0.012361 -0.065426
v 0.138736 0.012346 0.003244
v 0.124080 0.012361 0.065005
v -0.120111 0.012349 0.094767
v -0.147532 0.012361 0.033242
v 0.021679 0.012361 0.145964
v -0.049799 0.012354 0.143730
v 0.083204 0.012349 0.118543
vt 0.126070 0.231327
vt 0.127900 0.226295
vt 0.127900 0.231327
vt 0.127900 0.198897
vt 0.126070 0.203461
vt 0.126070 0.198897
vt 0.149169 0.190247
vt 0.166136 0.180911
vt 0.167922 0.185217
vt 0.126070 0.226295
vt 0.125420 0.231327
vt 0.125420 0.226295
vt 0.184119 0.242651
vt 0.184454 0.244432
vt 0.182986 0.243983
vt 0.190546 0.243115
vt 0.191685 0.244516
vt 0.189287 0.244523
vt 0.174650 0.217148
vt 0.155478 0.223338
vt 0.155276 0.215800
vt 0.184231 0.246005
vt 0.183850 0.247733
vt 0.182860 0.246130
vt 0.197247 0.247715
vt 0.196854 0.245986
vt 0.198229 0.246103
vt 0.191667 0.246151
vt 0.190539 0.247649
vt 0.189315 0.246145
vt 0.149285 0.253030
vt 0.167970 0.258186
vt 0.166267 0.262366
vt 0.196619 0.244408
vt 0.196951 0.242614
vt 0.198092 0.243949
vt 0.183970 0.281445
vt 0.184333 0.283158
vt 0.182974 0.283026
vt 0.154423 0.234935
vt 0.173789 0.235734
vt 0.173083 0.240171
vt 0.152880 0.201285
vt 0.170922 0.194210
vt 0.172075 0.198550
vt 0.140199 0.198897
vt 0.146222 0.194221
vt 0.146222 0.198897
vt 0.146222 0.207729
vt 0.140199 0.212670
vt 0.140199 0.207729
vt 0.140199 0.185398
vt 0.146222 0.180848
vt 0.146222 0.185398
vt 0.146222 0.249101
vt 0.140199 0.244829
vt 0.146222 0.244829
vt 0.127900 0.216930
vt 0.127900 0.212670
vt 0.140199 0.267589
vt 0.127900 0.263024
vt 0.140199 0.263024
vt 0.126070 0.235658
vt 0.140199 0.258332
vt 0.194168 0.244460
vt 0.127900 0.254062
vt 0.140199 0.249101
vt 0.140199 0.254062
vt 0.186862 0.246201
vt 0.146222 0.216930
vt 0.146222 0.212670
vt 0.140199 0.240265
vt 0.146222 0.203461
vt 0.140199 0.203461
vt 0.146222 0.221974
vt 0.140199 0.226295
vt 0.140199 0.221974
vt 0.125420 0.240265
vt 0.126070 0.244829
vt 0.125420 0.244829
vt 0.125420 0.263024
vt 0.126070 0.258332
vt 0.126070 0.263024
vt 0.126070 0.194221
vt 0.127900 0.203461
vt 0.126070 0.207729
vt 0.193672 0.285781
vt 0.196714 0.284747
vt 0.197053 0.286532
vt 0.126070 0.180848
vt 0.127900 0.176580
vt 0.127900 0.180848
vt 0.126070 0.185398
vt 0.127900 0.189887
vt 0.126070 0.189887
vt 0.146944 0.185405
vt 0.164167 0.176692
vt 0.151253 0.247731
vt 0.169560 0.253852
vt 0.155129 0.229328
vt 0.174337 0.231109
vt 0.125420 0.198897
vt 0.125420 0.194221
vt 0.126070 0.267589
vt 0.125420 0.267589
vt 0.126070 0.240265
vt 0.125420 0.189887
vt 0.125420 0.254062
vt 0.126070 0.249101
vt 0.126070 0.254062
vt 0.187528 0.247501
vt 0.190553 0.249793
vt 0.187495 0.249724
vt 0.125420 0.221974
vt 0.126070 0.221974
vt 0.174647 0.226455
vt 0.197317 0.281462
vt 0.198305 0.283052
vt 0.196942 0.283175
vt 0.127900 0.267589
vt 0.198182 0.285196
vt 0.127900 0.240265
vt 0.186950 0.282958
vt 0.194193 0.246219
vt 0.191778 0.284665
vt 0.194272 0.284703
vt 0.187534 0.243379
vt 0.186870 0.244475
vt 0.127900 0.194221
vt 0.140199 0.189887
vt 0.140199 0.194221
vt 0.140199 0.231327
vt 0.127900 0.249101
vt 0.146222 0.189887
vt 0.190649 0.279436
vt 0.187623 0.281720
vt 0.187604 0.279505
vt 0.140199 0.235658
vt 0.127900 0.235658
vt 0.146222 0.231327
vt 0.146222 0.235658
vt 0.126070 0.212670
vt 0.126070 0.216930
vt 0.146222 0.240265
vt 0.146222 0.254062
vt 0.127900 0.185398
vt 0.146222 0.263024
vt 0.146222 0.267589
vt 0.127900 0.258332
vt 0.173767 0.207709
vt 0.154378 0.208320
vt 0.127900 0.221974
vt 0.127900 0.207729
vt 0.173029 0.203112
vt 0.151264 0.195866
vt 0.174789 0.221802
vt 0.146944 0.258175
vt 0.140960 0.276796
vt 0.165567 0.290233
vt 0.144729 0.289639
vt 0.125420 0.207729
vt 0.184208 0.286503
vt 0.183086 0.285167
vt 0.184550 0.284726
vt 0.193698 0.279509
vt 0.197394 0.279306
vt 0.183893 0.279306
vt 0.194297 0.282940
vt 0.193565 0.243387
vt 0.193594 0.247485
vt 0.190559 0.283033
vt 0.140199 0.216930
vt 0.140199 0.176580
vt 0.140199 0.180848
vt 0.146222 0.176580
vt 0.146222 0.226295
vt 0.193618 0.249721
vt 0.169559 0.189751
vt 0.170968 0.249239
vt 0.174355 0.212500
vt 0.127900 0.244829
vt 0.125420 0.180848
vt 0.126070 0.176580
vt 0.186960 0.284690
vt 0.189390 0.284658
vt 0.125420 0.203461
vt 0.187623 0.285792
vt 0.190645 0.286070
vt 0.193689 0.281737
vt 0.190633 0.281570
vt 0.172138 0.244733
vt 0.152961 0.241975
vt 0.125420 0.212670
vt 0.125420 0.185398
vt 0.125420 0.216930
vt 0.125420 0.258332
vt 0.125420 0.249101
vt 0.146222 0.258332
vt 0.125420 0.235658
vt 0.164312 0.266598
vt 0.143393 0.270761
vt 0.149133 0.266199
vt 0.155870 0.264683
vt 0.164203 0.267465
vt 0.169615 0.274913
vt 0.169615 0.284121
vt 0.159627 0.293756
vt 0.150843 0.293686
vt 0.141206 0.283699
vt 0.197346 0.249889
vt 0.125420 0.176580
vt 0.183751 0.249889
vn -0.8235 0.4201 -0.3811
vn -0.6984 -0.2617 -0.6662
vn -0.8832 -0.2289 -0.4094
vn 0.8397 -0.2630 -0.4750
vn 0.5658 0.5484 -0.6157
vn 0.7074 0.5818 -0.4013
vn -0.6819 0.7313 0.0152
vn -0.6406 0.7632 -0.0850
vn -0.5296 0.8428 0.0960
vn -0.5991 0.5439 -0.5876
vn 0.4329 0.8786 0.2015
vn 0.5005 0.7485 0.4350
vn 0.5620 -0.8258 0.0462
vn -0.7424 -0.6602 -0.1142
vn -0.6463 -0.6865 -0.3332
vn 0.2717 -0.7527 -0.5997
vn -0.1251 -0.6829 0.7198
vn -0.4655 -0.6850 0.5604
vn 0.6476 0.7277 0.2260
vn 0.4090 0.7251 0.5541
vn -0.7627 0.6370 -0.1124
vn 0.5816 0.8128 0.0348
vn -0.7302 0.5832 -0.3561
vn -0.4128 0.8104 -0.4157
vn 0.5808 0.6363 0.5078
vn 0.7458 0.5833 0.3219
vn -0.1351 0.6260 0.7680
vn 0.2766 0.7434 -0.6089
vn -0.4950 0.6218 0.6069
vn -0.4197 0.7323 -0.5363
vn -0.3142 0.7393 -0.5955
vn -0.4571 0.7787 -0.4297
vn 0.5681 -0.6603 0.4912
vn -0.4077 -0.8252 -0.3909
vn 0.6738 -0.6865 0.2732
vn 0.4053 0.8127 0.4185
vn -0.5822 0.6370 -0.5052
vn -0.7458 0.5832 -0.3219
vn 0.5229 0.7303 -0.4396
vn 0.5590 0.7710 -0.3050
vn 0.4264 0.7791 -0.4596
vn -0.3619 0.7297 0.5801
vn -0.4380 0.7693 0.4651
vn -0.2611 0.7857 0.5608
vn 0.8717 -0.2268 -0.4345
vn 0.6274 -0.7685 -0.1257
vn 0.5577 -0.7686 -0.3134
vn 0.2670 -0.7686 -0.5813
vn 0.1154 -0.2038 -0.9722
vn 0.4085 -0.2054 -0.8893
vn 0.8639 -0.2251 0.4505
vn 0.4703 -0.7686 0.4336
vn 0.5811 -0.7689 0.2669
vn -0.4335 -0.7686 0.4703
vn -0.8533 -0.2022 0.4806
vn -0.5577 -0.7686 0.3133
vn -0.1670 -0.2717 -0.9478
vn 0.1084 -0.2650 -0.9581
vn 0.4592 -0.2057 0.8642
vn 0.1533 -0.3355 0.9295
vn 0.1974 -0.2015 0.9594
vn -0.8203 0.5682 -0.0657
vn -0.1158 -0.2021 0.9725
vn 0.2300 -0.6731 0.7029
vn -0.4116 -0.2305 0.8817
vn -0.6475 -0.3164 0.6933
vn -0.4045 -0.2075 0.8907
vn -0.7140 0.6369 0.2908
vn -0.1257 -0.7685 -0.6274
vn 0.0742 -0.7689 -0.6351
vn -0.9641 -0.2081 0.1652
vn 0.4335 -0.7686 -0.4703
vn 0.6619 -0.2041 -0.7213
vn -0.3134 -0.7686 -0.5577
vn -0.7190 -0.2076 -0.6633
vn -0.4804 -0.2029 -0.8532
vn 0.6138 0.7788 -0.1293
vn -0.7113 0.5662 0.4164
vn -0.1068 0.8495 -0.5166
vn -0.1052 0.5566 0.8241
vn 0.1606 0.3807 0.9106
vn 0.8633 0.4602 -0.2071
vn 0.6587 -0.2618 -0.7054
vn 0.3453 0.5591 -0.7538
vn -0.4948 -0.8367 0.2347
vn 0.7420 -0.6610 0.1116
vn -0.5622 -0.8252 -0.0545
vn 0.6303 0.5235 0.5733
vn 0.4745 -0.2327 0.8489
vn 0.7047 -0.3048 0.6407
vn 0.7567 0.5561 0.3438
vn 0.9577 -0.2625 0.1182
vn 0.8206 0.5624 0.1018
vn -0.6074 0.7408 -0.2868
vn -0.5636 0.7811 -0.2688
vn -0.1297 0.7384 -0.6618
vn 0.6610 0.7390 -0.1299
vn -0.5579 0.7642 0.3237
vn 0.4072 0.5791 0.7063
vn -0.8206 0.5457 0.1697
vn 0.2707 0.7842 -0.5584
vn -0.5793 0.5386 0.6118
vn -0.3261 0.5734 0.7516
vn 0.5051 0.8249 -0.2539
vn 0.4938 -0.8361 -0.2388
vn 0.2950 0.7859 0.5434
vn -0.4200 0.5545 -0.7184
vn 0.6091 0.7911 0.0553
vn -0.5842 0.8105 -0.0424
vn 0.7301 0.5835 0.3555
vn 0.7637 0.6362 0.1097
vn 0.6463 -0.6865 0.3332
vn -0.9458 -0.2762 0.1705
vn -0.2448 0.6244 -0.7417
vn 0.2392 0.6382 0.7318
vn 0.5078 -0.6576 -0.5565
vn 0.6828 -0.6734 -0.2835
vn -0.6838 -0.6744 0.2784
vn 0.9452 -0.2732 -0.1787
vn 0.9727 -0.2028 0.1128
vn 0.9315 -0.3134 -0.1846
vn -0.8867 -0.2147 -0.4094
vn -0.6722 -0.2706 0.6891
vn 0.6354 -0.7686 0.0743
vn -0.2775 -0.7526 0.5971
vn 0.1356 0.8270 0.5456
vn 0.1397 -0.8361 0.5305
vn -0.9714 -0.2076 -0.1151
vn -0.9633 -0.2573 -0.0761
vn -0.5814 -0.7685 -0.2671
vn -0.6351 -0.7689 -0.0742
vn 0.0913 0.5481 -0.8314
vn -0.1558 0.5549 -0.8172
vn -0.6272 -0.7686 0.1256
vn -0.2671 -0.7685 0.5814
vn 0.8690 -0.2619 0.4198
vn 0.1257 -0.7686 0.6272
vn 0.3134 -0.7686 0.5577
vn -0.1124 -0.2678 0.9569
vn 0.1318 0.7694 0.6250
vn 0.0076 0.7252 0.6885
vn -0.4564 -0.2603 -0.8509
vn 0.3967 -0.2459 -0.8844
vn -0.0871 0.7782 0.6219
vn -0.5886 0.7389 0.3280
vn 0.4013 -0.8258 0.3962
vn -0.6739 -0.6865 -0.2732
vn -0.5704 -0.6601 -0.4888
vn 0.7064 0.6381 -0.3065
vn -0.1434 -0.8369 -0.5282
vn -0.1288 0.8223 -0.5544
vn 0.3349 0.6142 -0.7146
vn -0.1821 -0.3157 -0.9312
vn 0.7412 -0.2062 0.6388
vn -0.4702 -0.7689 -0.4334
vn 0.0532 0.7823 -0.6206
vn -0.8459 -0.2591 0.4662
vn -0.2623 -0.6558 -0.7079
vn 0.0985 -0.6505 -0.7531
vn -0.5097 0.8212 0.2564
vn -0.2794 0.7466 0.6038
vn 0.2101 0.7334 -0.6465
vn -0.0743 -0.7686 0.6354
usemtl M_Interior
s 1
f 17/1/1 9/2/2 10/3/3
f 53/4/4 56/5/5 58/6/6
f 157/7/7 65/8/8 64/9/9
f 21/10/10 27/11/11 26/12/12
f 107/13/13 109/14/14 108/15/15
f 116/16/16 150/17/17 117/18/18
f 26/19/12 155/20/19 154/21/20
f 111/22/21 106/23/22 110/24/23
f 139/25/24 143/26/25 144/27/26
f 151/28/27 149/29/28 118/30/29
f 163/31/30 135/32/31 138/33/32
f 141/34/33 140/35/34 142/36/35
f 28/37/36 30/38/37 38/39/38
f 159/40/39 102/41/40 101/42/41
f 153/43/42 62/44/43 22/45/44
f 40/46/45 47/47/46 46/48/47
f 45/49/48 15/50/49 16/51/50
f 43/52/51 126/53/52 49/54/53
f 86/55/54 83/56/55 88/57/56
f 15/50/49 7/58/57 6/59/58
f 121/60/59 128/61/60 120/62/61
f 10/3/3 100/63/62 17/1/1
f 150/17/17 118/30/29 117/18/18
f 128/61/60 119/64/63 120/62/61
f 143/26/25 147/65/64 141/34/33
f 91/66/65 81/67/66 82/68/67
f 115/69/68 117/18/18 118/30/29
f 2/70/69 15/50/49 1/71/70
f 84/72/71 88/57/56 83/56/55
f 44/73/72 16/51/50 39/74/73
f 3/75/74 12/76/75 13/77/76
f 103/78/77 98/79/78 102/80/40
f 137/81/79 132/82/80 131/83/81
f 59/84/82 53/4/4 58/6/6
f 52/85/83 57/86/84 56/5/5
f 74/87/85 70/88/86 68/89/87
f 134/90/88 129/91/89 130/92/90
f 115/69/68 106/23/22 111/22/21
f 61/93/91 54/94/92 60/95/93
f 65/8/8 158/96/94 66/97/95
f 135/32/31 161/98/96 137/99/79
f 102/41/40 160/100/97 103/101/77
f 59/84/82 63/102/98 64/103/9
f 137/81/79 133/104/99 135/105/31
f 103/78/77 100/63/62 99/106/100
f 65/107/8 61/93/91 60/95/93
f 105/108/101 96/109/102 97/110/103
f 112/111/104 116/112/16 113/113/105
f 25/114/106 21/10/10 26/12/12
f 109/14/14 110/24/23 108/15/15
f 20/115/107 9/2/2 21/10/10
f 104/116/108 160/100/97 155/20/19
f 67/117/109 71/118/110 72/119/111
f 129/120/89 131/83/81 128/61/60
f 70/88/86 69/121/112 68/89/87
f 9/2/2 13/77/76 12/76/75
f 83/56/55 94/122/113 84/72/71
f 28/37/36 34/123/114 30/38/37
f 150/17/17 148/124/115 151/28/27
f 74/87/85 80/125/116 75/126/117
f 113/127/105 117/18/18 114/128/118
f 51/129/119 42/130/120 41/131/121
f 118/30/29 112/111/104 115/69/68
f 10/3/3 12/76/75 11/132/122
f 92/133/123 83/56/55 81/67/66
f 111/22/21 114/128/118 115/69/68
f 48/134/124 43/52/51 49/54/53
f 46/48/47 39/74/73 40/46/45
f 16/51/50 52/85/83 39/74/73
f 79/135/125 31/136/126 32/137/127
f 10/3/3 85/138/128 95/139/129
f 85/138/128 5/140/130 90/141/131
f 40/46/45 51/129/119 41/131/121
f 18/142/132 7/58/57 19/143/133
f 85/138/128 89/144/134 84/72/71
f 87/145/135 81/67/66 86/55/54
f 134/90/88 55/146/136 61/93/91
f 121/60/59 124/147/137 125/148/138
f 127/149/139 97/110/103 91/66/65
f 24/150/140 154/21/20 152/151/141
f 19/143/133 8/152/142 20/115/107
f 6/59/58 57/86/84 50/153/143
f 98/79/78 92/133/123 96/109/102
f 23/154/144 24/150/140 152/151/141
f 64/9/9 156/155/145 157/7/7
f 25/114/106 19/143/133 20/115/107
f 155/20/19 27/156/11 104/116/108
f 138/33/32 158/157/94 163/31/30
f 158/158/94 160/159/97 161/160/96
f 95/139/129 99/106/100 100/63/62
f 100/63/62 27/11/11 17/1/1
f 22/161/44 56/5/5 57/86/84
f 71/118/110 70/88/86 72/119/111
f 36/162/146 37/163/147 29/164/148
f 67/117/109 74/165/85 68/166/87
f 32/137/127 28/37/36 36/167/146
f 144/27/26 141/34/33 142/36/35
f 72/119/111 75/126/117 76/168/149
f 150/17/17 146/169/150 147/65/64
f 151/28/27 145/170/151 149/29/28
f 139/25/24 148/124/115 143/26/25
f 31/136/126 35/171/152 34/123/114
f 39/74/73 53/4/4 40/46/45
f 2/70/69 13/77/76 14/172/153
f 121/173/59 130/92/90 129/91/89
f 87/145/135 119/64/63 82/68/67
f 127/149/139 82/68/67 119/64/63
f 38/39/38 29/164/148 37/163/147
f 122/174/154 125/175/138 126/53/52
f 5/140/130 12/76/75 4/176/155
f 139/25/24 146/177/150 145/170/151
f 128/61/60 132/82/80 127/149/139
f 62/44/43 156/155/145 63/178/98
f 161/98/96 136/179/156 137/99/79
f 154/21/20 25/180/106 26/19/12
f 152/151/141 22/45/44 23/154/144
f 116/112/16 145/170/151 146/177/150
f 99/106/100 93/181/157 98/79/78
f 138/182/32 133/183/99 134/90/88
f 33/184/158 36/162/146 29/164/148
f 34/123/114 78/185/159 33/184/158
f 63/102/98 56/5/5 62/186/43
f 114/128/118 107/13/13 113/127/105
f 146/169/150 141/34/33 147/65/64
f 32/187/127 78/185/159 79/188/125
f 73/189/160 79/135/125 74/165/85
f 76/168/149 67/117/109 72/119/111
f 79/188/125 78/185/159 80/125/116
f 42/130/120 47/47/46 41/131/121
f 60/95/93 51/129/119 59/84/82
f 73/189/160 35/171/152 77/190/161
f 43/52/51 130/92/90 122/174/154
f 113/113/105 106/23/22 112/111/104
f 105/191/101 136/179/156 162/192/162
f 96/109/102 91/66/65 97/110/103
f 57/86/84 23/193/144 22/161/44
f 30/38/37 33/184/158 29/164/148
f 6/59/58 16/51/50 15/50/49
f 80/125/116 76/168/149 75/126/117
f 80/125/116 78/185/159 35/171/152
f 101/42/41 162/192/162 159/40/39
f 54/94/92 43/52/51 42/130/120
f 64/103/9 60/95/93 59/84/82
f 134/90/88 66/194/95 138/182/32
f 24/195/140 18/142/132 19/143/133
f 97/110/103 136/196/156 105/108/101
f 101/197/41 98/79/78 96/109/102
f 13/77/76 7/58/57 14/172/153
f 74/87/85 79/188/125 80/125/116
f 113/127/105 116/16/16 117/18/18
f 118/30/29 149/29/28 112/111/104
f 150/17/17 116/16/16 146/169/150
f 151/28/27 148/124/115 145/170/151
f 31/136/126 77/190/161 35/171/152
f 32/187/127 33/184/158 78/185/159
f 73/189/160 76/168/149 35/171/152
f 80/125/116 35/171/152 76/168/149
f 84/72/71 95/139/129 85/138/128
f 120/62/61 123/198/163 124/147/137
f 17/1/1 21/10/10 9/2/2
f 53/4/4 52/85/83 56/5/5
f 21/10/10 17/1/1 27/11/11
f 26/19/12 27/156/11 155/20/19
f 40/46/45 41/131/121 47/47/46
f 45/49/48 1/71/70 15/50/49
f 43/52/51 122/174/154 126/53/52
f 86/55/54 81/67/66 83/56/55
f 15/50/49 14/172/153 7/58/57
f 121/60/59 129/120/89 128/61/60
f 10/3/3 95/139/129 100/63/62
f 150/17/17 151/28/27 118/30/29
f 128/61/60 127/149/139 119/64/63
f 143/26/25 148/124/115 147/65/64
f 91/66/65 92/133/123 81/67/66
f 115/69/68 114/128/118 117/18/18
f 2/70/69 14/172/153 15/50/49
f 84/72/71 89/144/134 88/57/56
f 44/73/72 45/49/48 16/51/50
f 3/75/74 4/176/155 12/76/75
f 103/78/77 99/106/100 98/79/78
f 137/81/79 136/196/156 132/82/80
f 59/84/82 51/129/119 53/4/4
f 52/85/83 50/153/143 57/86/84
f 74/87/85 75/126/117 70/88/86
f 134/90/88 133/183/99 129/91/89
f 115/69/68 112/111/104 106/23/22
f 61/93/91 55/146/136 54/94/92
f 65/8/8 157/7/7 158/96/94
f 135/32/31 163/31/30 161/98/96
f 102/41/40 159/40/39 160/100/97
f 59/84/82 58/6/6 63/102/98
f 137/81/79 131/83/81 133/104/99
f 103/78/77 104/199/108 100/63/62
f 65/107/8 66/194/95 61/93/91
f 105/108/101 101/197/41 96/109/102
f 112/111/104 149/29/28 116/112/16
f 25/114/106 20/115/107 21/10/10
f 109/14/14 111/22/21 110/24/23
f 20/115/107 8/152/142 9/2/2
f 104/116/108 103/101/77 160/100/97
f 129/120/89 133/104/99 131/83/81
f 9/2/2 8/152/142 13/77/76
f 83/56/55 93/181/157 94/122/113
f 28/37/36 31/136/126 34/123/114
f 150/17/17 147/65/64 148/124/115
f 51/129/119 54/94/92 42/130/120
f 10/3/3 9/2/2 12/76/75
f 92/133/123 93/181/157 83/56/55
f 111/22/21 109/14/14 114/128/118
f 48/134/124 42/130/120 43/52/51
f 46/48/47 44/73/72 39/74/73
f 16/51/50 50/153/143 52/85/83
f 79/135/125 77/190/161 31/136/126
f 10/3/3 11/132/122 85/138/128
f 85/138/128 11/132/122 5/140/130
f 40/46/45 53/4/4 51/129/119
f 18/142/132 6/59/58 7/58/57
f 85/138/128 90/141/131 89/144/134
f 87/145/135 82/68/67 81/67/66
f 134/90/88 130/92/90 55/146/136
f 121/60/59 120/62/61 124/147/137
f 127/149/139 132/82/80 97/110/103
f 24/150/140 25/180/106 154/21/20
f 19/143/133 7/58/57 8/152/142
f 6/59/58 18/142/132 57/86/84
f 98/79/78 93/181/157 92/133/123
f 64/9/9 63/178/98 156/155/145
f 25/114/106 24/195/140 19/143/133
f 138/33/32 66/200/95 158/157/94
f 158/158/94 157/201/7 156/202/145
f 156/202/145 153/203/42 152/204/141
f 152/204/141 154/205/20 156/202/145
f 154/205/20 155/206/19 160/159/97
f 160/159/97 159/207/39 161/160/96
f 159/207/39 162/208/162 161/160/96
f 161/160/96 163/209/30 158/158/94
f 158/158/94 156/202/145 160/159/97
f 160/159/97 156/202/145 154/205/20
f 95/139/129 94/122/113 99/106/100
f 100/63/62 104/199/108 27/11/11
f 22/161/44 62/186/43 56/5/5
f 71/118/110 69/121/112 70/88/86
f 67/117/109 73/189/160 74/165/85
f 32/137/127 31/136/126 28/37/36
f 144/27/26 143/26/25 141/34/33
f 72/119/111 70/88/86 75/126/117
f 139/25/24 145/170/151 148/124/115
f 39/74/73 52/85/83 53/4/4
f 2/70/69 3/75/74 13/77/76
f 121/173/59 122/174/154 130/92/90
f 87/145/135 123/198/163 119/64/63
f 127/149/139 91/66/65 82/68/67
f 38/39/38 30/38/37 29/164/148
f 122/174/154 121/173/59 125/175/138
f 5/140/130 11/132/122 12/76/75
f 139/25/24 140/210/34 146/177/150
f 128/61/60 131/83/81 132/82/80
f 62/44/43 153/43/42 156/155/145
f 161/98/96 162/192/162 136/179/156
f 152/151/141 153/43/42 22/45/44
f 116/112/16 149/29/28 145/170/151
f 99/106/100 94/122/113 93/181/157
f 138/182/32 135/211/31 133/183/99
f 33/184/158 32/187/127 36/162/146
f 34/123/114 35/171/152 78/185/159
f 63/102/98 58/6/6 56/5/5
f 114/128/118 109/14/14 107/13/13
f 146/169/150 140/35/34 141/34/33
f 73/189/160 77/190/161 79/135/125
f 76/168/149 73/189/160 67/117/109
f 42/130/120 48/134/124 47/47/46
f 60/95/93 54/94/92 51/129/119
f 43/52/51 55/146/136 130/92/90
f 113/113/105 107/212/13 106/23/22
f 96/109/102 92/133/123 91/66/65
f 57/86/84 18/142/132 23/193/144
f 30/38/37 34/123/114 33/184/158
f 6/59/58 50/153/143 16/51/50
f 101/42/41 105/191/101 162/192/162
f 54/94/92 55/146/136 43/52/51
f 64/103/9 65/107/8 60/95/93
f 134/90/88 61/93/91 66/194/95
f 24/195/140 23/193/144 18/142/132
f 97/110/103 132/82/80 136/196/156
f 101/197/41 102/80/40 98/79/78
f 13/77/76 8/152/142 7/58/57
f 84/72/71 94/122/113 95/139/129
f 120/62/61 119/64/63 123/198/163
