# Blender v3.0.1 OBJ File: 'props.blend'
# www.blender.org
mtllib Pan02.mtl
o Pan02_LOD0_defaultMaterial.002
v 0.000000 0.082354 -0.245215
v -0.083868 0.082354 -0.230427
v -0.157621 0.082354 -0.187845
v -0.212362 0.082354 -0.122607
v -0.241489 0.082354 -0.042581
v -0.241489 0.082354 0.042581
v -0.212362 0.082354 0.122607
v -0.157621 0.082354 0.187845
v -0.083868 0.082354 0.230426
v -0.000000 0.082354 0.245214
v 0.083868 0.082354 0.230426
v 0.157621 0.082354 0.187845
v 0.212362 0.082354 0.122607
v 0.241489 0.082354 0.042581
v 0.241489 0.082354 -0.042581
v 0.212362 0.082354 -0.122607
v 0.157621 0.082354 -0.187845
v 0.083868 0.082354 -0.230426
v -0.071826 -0.001844 -0.198277
v -0.135835 -0.002247 -0.161881
v -0.207626 -0.001844 -0.036936
v -0.207737 -0.001844 0.036304
v -0.182793 -0.001844 0.105165
v -0.135800 -0.001844 0.161342
v -0.072276 -0.002247 0.198577
v -0.000000 -0.001363 0.210366
v 0.071826 -0.001844 0.198277
v 0.182472 -0.001844 0.105720
v 0.207626 -0.001844 0.036935
v 0.208110 -0.002247 -0.036696
v 0.182183 -0.001363 -0.105183
v 0.135800 -0.001844 -0.161342
v 0.072276 -0.002247 -0.198577
v -0.182183 -0.001363 -0.105183
v 0.135309 -0.001844 0.161754
v 0.000000 -0.001363 -0.210367
v -0.230977 0.069298 0.055055
v -0.228898 0.063302 0.042350
v -0.227554 0.060726 0.056417
v -0.250723 0.067580 0.049155
v -0.253359 0.063302 0.028918
v -0.259383 0.057059 0.040861
v -0.267120 0.067297 0.029902
v -0.274075 0.067667 -0.007567
v -0.260835 0.063302 -0.011254
v -0.271285 0.057790 -0.014943
v -0.250402 0.067601 -0.049497
v -0.229037 0.063718 -0.043671
v -0.262048 0.059474 -0.039972
v -0.230977 0.069298 -0.055055
v -0.227533 0.060718 -0.056345
v 0.272219 0.068812 0.014652
v 0.261768 0.063302 0.011047
v 0.272219 0.057792 0.014652
v 0.275877 0.066116 -0.007189
v 0.251314 0.067614 0.048644
v 0.230134 0.063714 0.042834
v 0.263044 0.059476 0.039191
v 0.232100 0.069298 0.054094
v 0.228437 0.060354 0.055141
v 0.232100 0.069298 -0.054094
v 0.230004 0.063302 -0.041611
v 0.228460 0.060364 -0.055213
v 0.251653 0.067596 -0.048290
v 0.254326 0.063302 -0.028355
v 0.263449 0.058373 -0.037757
v -0.083747 0.083144 -0.230412
v -0.157593 0.082912 -0.187818
v -0.212295 0.083433 -0.122573
v -0.241449 0.082931 -0.042575
v -0.241414 0.083444 0.042570
v -0.157500 0.083164 0.187873
v -0.083748 0.083137 0.230412
v 0.000104 0.083106 0.245162
v 0.083945 0.083075 0.230345
v 0.157663 0.083048 0.187747
v 0.212367 0.083027 0.122505
v 0.241458 0.082809 -0.042575
v 0.212279 0.083026 -0.122657
v 0.157524 0.083046 -0.187863
v 0.083854 0.083294 -0.230362
v 0.241430 0.083213 0.042569
v -0.212326 0.082922 0.122589
v 0.000106 0.083114 -0.245162
v 0.104444 0.004180 -0.179930
v 0.179040 0.004199 -0.103029
v 0.203522 0.004199 -0.035767
v 0.195808 0.004178 0.071091
v 0.133030 0.004199 0.157908
v 0.043369 0.004174 0.204382
v -0.098009 0.004177 0.184097
v -0.193271 0.004174 0.077680
v -0.197844 0.004179 -0.065074
v -0.131933 0.004199 -0.157862
v -0.029108 0.004172 -0.206657
vt 0.126171 0.271214
vt 0.128143 0.271601
vt 0.125791 0.272494
vt 0.129761 0.270193
vt 0.130397 0.271645
vt 0.129174 0.272578
vt 0.137797 0.271607
vt 0.136582 0.272258
vt 0.133664 0.271676
vt 0.140148 0.272500
vt 0.186071 0.255450
vt 0.187190 0.254850
vt 0.189258 0.255645
vt 0.183911 0.254580
vt 0.196617 0.255805
vt 0.194812 0.255455
vt 0.196971 0.254585
vt 0.193340 0.256742
vt 0.191011 0.255229
vt 0.202857 0.256546
vt 0.205596 0.264535
vt 0.200695 0.260487
vt 0.199938 0.243956
vt 0.208144 0.245268
vt 0.202387 0.247717
vt 0.170994 0.253239
vt 0.177897 0.248458
vt 0.177345 0.252915
vt 0.197293 0.263428
vt 0.203422 0.252091
vt 0.175152 0.240477
vt 0.180046 0.244514
vt 0.200454 0.268824
vt 0.193103 0.265036
vt 0.209768 0.251767
vt 0.183449 0.241580
vt 0.187695 0.271262
vt 0.188621 0.265156
vt 0.186478 0.233881
vt 0.187637 0.239969
vt 0.184360 0.263773
vt 0.193040 0.233745
vt 0.192117 0.239853
vt 0.176243 0.265242
vt 0.180802 0.261049
vt 0.199275 0.235776
vt 0.196379 0.241232
vt 0.172611 0.259730
vt 0.178364 0.257287
vt 0.126699 0.274170
vt 0.129756 0.273784
vt 0.134163 0.270232
vt 0.134289 0.272593
vt 0.134165 0.273752
vt 0.139277 0.274176
vt 0.189365 0.256705
vt 0.139261 0.269772
vt 0.139768 0.271214
vt 0.189363 0.253482
vt 0.184709 0.253099
vt 0.189258 0.254543
vt 0.196131 0.257120
vt 0.184722 0.257126
vt 0.184267 0.255805
vt 0.196148 0.253104
vt 0.193512 0.254695
vt 0.193347 0.253451
vt 0.126715 0.269779
vt 0.212300 0.193751
vt 0.204947 0.193828
vt 0.208865 0.187810
vt 0.174589 0.206203
vt 0.181719 0.205674
vt 0.178016 0.212137
vt 0.190780 0.180756
vt 0.189424 0.187723
vt 0.184373 0.182742
vt 0.175098 0.192419
vt 0.180689 0.196840
vt 0.173180 0.199249
vt 0.203287 0.208736
vt 0.211821 0.207565
vt 0.207964 0.213251
vt 0.200377 0.188819
vt 0.197466 0.180985
vt 0.196139 0.187177
vt 0.213730 0.200716
vt 0.206404 0.202211
vt 0.188225 0.211717
vt 0.197059 0.212310
vt 0.189394 0.218980
vt 0.183141 0.216539
vt 0.183616 0.191169
vt 0.202511 0.217269
vt 0.196086 0.219240
vt 0.209063 0.258601
vt 0.204500 0.239756
vt 0.171694 0.246408
vt 0.194261 0.271129
vt 0.180289 0.236187
vt 0.181463 0.269224
vt 0.203726 0.183410
vt 0.178946 0.186754
vn -0.2553 0.7205 0.6447
vn -0.3802 0.6502 0.6578
vn -0.1272 -0.7442 0.6557
vn 0.8501 0.1552 -0.5033
vn -0.7582 0.6133 0.2212
vn -0.4755 -0.7821 0.4027
vn -0.3819 0.6083 -0.6958
vn -0.6907 -0.5457 -0.4744
vn -0.7606 0.6482 0.0369
vn -0.1534 -0.7734 -0.6151
vn 0.3674 0.6087 0.7032
vn 0.6678 -0.5707 0.4778
vn 0.6867 0.7237 0.0693
vn 0.1483 -0.7922 0.5920
vn 0.2570 0.7074 -0.6584
vn 0.4036 0.6223 -0.6707
vn 0.1505 -0.7711 -0.6186
vn -0.8325 0.0312 0.5531
vn 0.8709 0.4722 -0.1362
vn -0.0015 -0.3783 -0.9257
vn 0.3152 -0.3772 -0.8709
vn 0.3138 -0.3719 -0.8736
vn -0.8024 -0.3783 -0.4615
vn -0.5966 -0.3772 -0.7084
vn -0.5997 -0.3719 -0.7086
vn 0.3147 -0.3793 0.8701
vn 0.0015 -0.3783 0.9257
vn 0.3112 -0.3775 0.8721
vn 0.6010 -0.3756 -0.7055
vn -0.3104 -0.3756 -0.8732
vn -0.3152 -0.3772 0.8709
vn -0.3138 -0.3719 0.8736
vn 0.5959 -0.3796 -0.7077
vn 0.8009 -0.3783 -0.4641
vn -0.3149 -0.3796 -0.8699
vn -0.5976 -0.3760 0.7081
vn 0.9118 -0.3772 -0.1625
vn 0.9135 -0.3719 -0.1650
vn -0.8020 -0.3772 0.4631
vn -0.8026 -0.3779 0.4616
vn 0.9121 -0.3760 0.1635
vn -0.9120 -0.3772 0.1609
vn -0.9121 -0.3779 0.1593
vn 0.8021 -0.3772 0.4630
vn 0.8011 -0.3779 0.4642
vn -0.9109 -0.3793 -0.1625
vn -0.9109 -0.3775 -0.1665
vn 0.5953 -0.3772 0.7094
vn 0.5940 -0.3779 0.7102
vn 0.4510 -0.2155 -0.8661
vn 0.9863 0.0567 0.1550
vn -0.5334 -0.8299 -0.1633
vn 0.4231 -0.2444 0.8725
vn -0.9771 0.0410 -0.2089
vn -0.2468 0.7272 -0.6405
vn -0.4076 -0.2329 -0.8830
vn 0.6494 -0.7002 0.2967
vn -0.3929 -0.2384 0.8881
vn 0.2483 0.7142 0.6544
vn 0.6542 -0.6163 -0.4385
vn -0.2767 0.4586 0.8445
vn -0.2799 0.8160 0.5057
vn -0.5884 0.4395 0.6787
vn 0.2776 0.4483 -0.8497
vn 0.2735 0.8132 -0.5138
vn 0.5914 0.4657 -0.6583
vn -0.8880 0.4377 -0.1409
vn -0.5427 0.8165 -0.1971
vn -0.7705 0.4385 -0.4626
vn -0.3258 0.4298 -0.8421
vn -0.1064 0.8133 -0.5721
vn 0.0307 0.4626 -0.8860
vn 0.3646 0.8235 0.4347
vn 0.3227 0.4454 0.8351
vn 0.5757 0.4480 0.6840
vn -0.4880 0.8218 0.2941
vn -0.8845 0.4399 0.1552
vn -0.5631 0.8217 0.0879
vn -0.0306 0.4473 0.8939
vn 0.0723 0.8135 0.5771
vn 0.5391 0.8139 -0.2166
vn 0.5541 0.8147 0.1710
vn 0.8758 0.4667 -0.1234
vn 0.7574 0.4520 -0.4712
vn -0.3698 0.8216 -0.4338
vn 0.7657 0.4470 0.4625
vn 0.8827 0.4532 0.1244
vn 0.0000 -0.3843 -0.9232
vn -0.7995 -0.3843 -0.4616
vn 0.0000 -0.3843 0.9232
vn 0.7995 -0.3843 -0.4616
vn -0.5950 -0.3775 0.7096
vn 0.9120 -0.3775 0.1605
vn -0.7771 0.4398 0.4503
vn -0.5769 0.4405 -0.6878
usemtl M_Interior
s 1
f 37/1/1 40/2/2 39/3/3
f 41/4/4 43/5/5 40/2/2
f 43/5/5 42/6/6 40/2/2
f 47/7/7 49/8/8 44/9/9
f 51/10/10 49/8/8 47/7/7
f 56/11/11 58/12/12 52/13/13
f 60/14/14 58/12/12 56/11/11
f 61/15/15 64/16/16 63/17/17
f 65/18/18 55/19/19 64/16/16
f 36/20/20 18/21/21 33/22/22
f 34/23/23 3/24/24 20/25/25
f 11/26/26 26/27/27 27/28/28
f 18/21/21 32/29/29 33/22/22
f 3/24/24 19/30/30 20/25/25
f 26/27/27 9/31/31 25/32/32
f 17/33/33 31/34/34 32/29/29
f 2/35/35 36/20/20 19/30/30
f 9/31/31 24/36/36 25/32/32
f 31/34/34 15/37/37 30/38/38
f 24/36/36 7/39/39 23/40/40
f 15/37/37 29/41/41 30/38/38
f 23/40/40 6/42/42 22/43/43
f 29/41/41 13/44/44 28/45/45
f 22/43/43 5/46/46 21/47/47
f 28/45/45 12/48/48 35/49/49
f 5/46/46 34/23/23 21/47/47
f 38/50/50 42/6/6 41/51/4
f 43/5/5 45/52/51 44/9/9
f 39/3/3 40/2/2 42/6/6
f 41/51/4 46/53/52 45/54/51
f 43/5/5 46/53/52 42/6/6
f 45/52/51 47/7/7 44/9/9
f 45/54/51 49/8/8 48/55/53
f 44/9/9 49/8/8 46/53/52
f 53/56/54 56/11/11 52/13/13
f 48/57/53 50/58/55 47/7/7
f 50/58/55 51/10/10 47/7/7
f 49/8/8 51/10/10 48/55/53
f 52/13/13 58/12/12 55/19/19
f 53/59/54 58/12/12 57/60/56
f 55/19/19 58/12/12 54/61/57
f 64/16/16 62/62/58 65/18/18
f 57/63/56 59/64/59 56/11/11
f 59/64/59 60/14/14 56/11/11
f 58/12/12 60/14/14 57/60/56
f 62/65/58 66/66/60 65/67/18
f 55/19/19 53/56/54 52/13/13
f 63/17/17 64/16/16 66/66/60
f 64/16/16 55/19/19 66/66/60
f 65/67/18 54/61/57 53/59/54
f 40/2/2 38/68/50 41/4/4
f 55/19/19 54/61/57 66/66/60
f 35/49/49 11/26/26 27/28/28
f 81/69/61 85/70/62 80/71/63
f 73/72/64 91/73/65 72/74/66
f 82/75/67 88/76/68 77/77/69
f 75/78/70 90/79/71 74/80/72
f 94/81/73 67/82/74 68/83/75
f 91/73/65 74/80/72 90/79/71
f 86/84/76 80/71/63 85/70/62
f 78/85/77 86/84/76 87/86/78
f 84/87/79 67/82/74 95/88/80
f 92/89/81 72/74/66 91/73/65
f 87/86/78 82/75/67 78/85/77
f 93/90/82 71/91/83 92/89/81
f 71/91/83 83/92/84 92/89/81
f 89/93/85 77/77/69 88/76/68
f 75/78/70 89/93/85 90/79/71
f 69/94/86 70/95/87 93/90/82
f 95/88/80 81/69/61 84/87/79
f 94/81/73 69/94/86 93/90/82
f 94/81/73 89/93/85 86/84/76
f 36/20/20 1/96/88 18/21/21
f 34/23/23 4/97/89 3/24/24
f 11/26/26 10/98/90 26/27/27
f 18/21/21 17/33/33 32/29/29
f 3/24/24 2/35/35 19/30/30
f 26/27/27 10/98/90 9/31/31
f 17/33/33 16/99/91 31/34/34
f 2/35/35 1/96/88 36/20/20
f 9/31/31 8/100/92 24/36/36
f 31/34/34 16/99/91 15/37/37
f 24/36/36 8/100/92 7/39/39
f 15/37/37 14/101/93 29/41/41
f 23/40/40 7/39/39 6/42/42
f 29/41/41 14/101/93 13/44/44
f 22/43/43 6/42/42 5/46/46
f 28/45/45 13/44/44 12/48/48
f 5/46/46 4/97/89 34/23/23
f 38/50/50 39/3/3 42/6/6
f 43/5/5 41/4/4 45/52/51
f 41/51/4 42/6/6 46/53/52
f 43/5/5 44/9/9 46/53/52
f 45/52/51 48/57/53 47/7/7
f 45/54/51 46/53/52 49/8/8
f 53/56/54 57/63/56 56/11/11
f 53/59/54 54/61/57 58/12/12
f 64/16/16 61/15/15 62/62/58
f 62/65/58 63/17/17 66/66/60
f 55/19/19 65/18/18 53/56/54
f 65/67/18 66/66/60 54/61/57
f 40/2/2 37/1/1 38/68/50
f 35/49/49 12/48/48 11/26/26
f 94/81/73 95/88/80 67/82/74
f 91/73/65 73/72/64 74/80/72
f 86/84/76 79/102/94 80/71/63
f 78/85/77 79/102/94 86/84/76
f 92/89/81 83/92/84 72/74/66
f 87/86/78 88/76/68 82/75/67
f 93/90/82 70/95/87 71/91/83
f 89/93/85 76/103/95 77/77/69
f 75/78/70 76/103/95 89/93/85
f 95/88/80 85/70/62 81/69/61
f 94/81/73 68/83/75 69/94/86
f 90/79/71 89/93/85 91/73/65
f 89/93/85 88/76/68 87/86/78
f 91/73/65 89/93/85 92/89/81
f 87/86/78 86/84/76 89/93/85
f 86/84/76 85/70/62 94/81/73
f 85/70/62 95/88/80 94/81/73
f 94/81/73 93/90/82 92/89/81
f 94/81/73 92/89/81 89/93/85
