# Blender v3.0.1 OBJ File: 'props.blend'
# www.blender.org
mtllib Plate04.mtl
o Plate04_LOD0_dish_plate.003
v 0.140067 0.022207 0.000000
v 0.132472 0.022207 -0.045514
v 0.110511 0.022207 -0.086095
v 0.076562 0.022207 -0.117347
v 0.034306 0.022207 -0.135882
v -0.011679 0.022207 -0.139693
v -0.056410 0.022207 -0.128365
v -0.095040 0.022207 -0.103128
v -0.123381 0.022207 -0.066714
v -0.138364 0.022207 -0.023072
v -0.138364 0.022207 0.023071
v -0.123381 0.022207 0.066714
v -0.095040 0.022207 0.103127
v -0.056410 0.022207 0.128365
v -0.011679 0.022207 0.139693
v 0.034306 0.022207 0.135882
v 0.076562 0.022207 0.117347
v 0.110511 0.022207 0.086095
v 0.132472 0.022207 0.045513
v 0.126520 0.022207 -0.043470
v -0.011160 0.022207 -0.133421
v -0.053882 0.022207 -0.122602
v -0.090777 0.022207 -0.098497
v -0.132156 0.022207 0.022036
v -0.090777 0.022207 0.098497
v -0.053882 0.022207 0.122602
v -0.011160 0.022207 0.133421
v 0.032761 0.022207 0.129781
v 0.105545 0.022207 0.082230
v -0.056410 0.022207 0.128365
v -0.095040 0.022207 0.103127
v -0.123381 0.022207 0.066714
v -0.138364 0.022207 0.023071
v -0.138364 0.022207 -0.023072
v -0.123381 0.022207 -0.066714
v -0.095040 0.022207 -0.103128
v -0.056410 0.022207 -0.128365
v -0.011679 0.022207 -0.139693
v 0.034306 0.022207 -0.135882
v 0.076562 0.022207 -0.117347
v 0.110511 0.022207 -0.086095
v 0.132472 0.022207 -0.045514
v 0.140067 0.022207 0.000000
v 0.018702 -0.019404 0.074263
v -0.051989 -0.019404 0.056362
v -0.051989 -0.019404 -0.056362
v -0.006430 -0.019404 -0.076346
v 0.018702 -0.019404 -0.074263
v 0.138420 0.024267 0.000000
v 0.130914 0.024267 -0.044979
v 0.109211 0.024267 -0.085083
v 0.075661 0.024267 -0.115968
v 0.033901 0.024267 -0.134285
v -0.011543 0.024267 -0.138051
v -0.055749 0.024267 -0.126857
v -0.093924 0.024267 -0.101915
v -0.121932 0.024267 -0.065930
v -0.136739 0.024267 -0.022800
v -0.136739 0.024267 0.022800
v -0.121932 0.024267 0.065930
v -0.093924 0.024267 0.101915
v -0.055749 0.024267 0.126857
v -0.011543 0.024267 0.138051
v 0.033901 0.024267 0.134285
v 0.075661 0.024267 0.115968
v 0.109211 0.024267 0.085083
v 0.130914 0.024267 0.044979
v 0.133774 0.022207 0.000000
v 0.105544 0.022207 -0.082230
v 0.073120 0.022207 -0.112078
v 0.032761 0.022207 -0.129782
v -0.117847 0.022207 -0.063719
v -0.132156 0.022207 -0.022036
v -0.117847 0.022207 0.063719
v 0.073120 0.022207 0.112078
v 0.126520 0.022207 0.043470
v 0.060781 -0.016533 -0.047279
v -0.052098 -0.016533 -0.056633
v -0.075890 -0.016533 0.012670
v -0.030885 -0.016533 0.070492
v -0.006321 -0.016533 0.076713
v 0.042138 -0.016533 0.064441
v 0.060781 -0.016533 0.047279
v -0.011679 0.022207 0.139693
v 0.034306 0.022207 0.135882
v 0.076562 0.022207 0.117347
v 0.110511 0.022207 0.086095
v 0.132472 0.022207 0.045513
v 0.076503 -0.019404 -0.000000
v -0.075667 -0.019404 0.012609
v 0.060350 -0.019404 0.047053
v 0.060350 -0.019404 -0.047053
v -0.030877 -0.019404 -0.070155
v -0.075667 -0.019404 -0.012609
v -0.030877 -0.019404 0.070155
v -0.006430 -0.019404 0.076346
v 0.041796 -0.019404 0.064133
v 0.072352 -0.019404 0.024874
v 0.072352 -0.019404 -0.024874
v 0.041796 -0.019404 -0.064133
v -0.067478 -0.019404 -0.036461
v -0.067478 -0.019404 0.036461
v 0.077012 -0.016533 0.000000
v 0.072841 -0.016533 -0.024994
v 0.042138 -0.016533 -0.064441
v 0.018932 -0.016533 -0.074620
v -0.006321 -0.016533 -0.076713
v -0.030885 -0.016533 -0.070492
v -0.067662 -0.016533 -0.036636
v -0.075890 -0.016533 -0.012670
v -0.067662 -0.016533 0.036636
v -0.052098 -0.016533 0.056633
v 0.018932 -0.016533 0.074620
v 0.072841 -0.016533 0.024994
v -0.057852 0.009028 -0.006561
v -0.223522 0.043377 -0.008607
v -0.058127 0.008456 0.004021
v -0.030763 -0.009822 0.007327
v -0.019408 -0.012271 0.009080
v -0.008672 -0.014549 -0.001140
v -0.018876 -0.011252 -0.011677
v -0.058127 0.008456 0.004021
v -0.223522 0.043377 -0.008607
v -0.224176 0.040873 0.001309
v -0.055898 0.010899 -0.005973
v -0.052308 0.005680 -0.005443
v -0.023960 -0.009184 -0.001291
v -0.038104 0.003410 -0.019300
v -0.013067 -0.001505 -0.022315
v 0.007753 -0.006050 -0.012427
v 0.012903 -0.007671 -0.000240
v -0.014205 -0.003801 0.021032
v -0.056150 0.010375 0.003740
v -0.052527 0.005225 0.002984
v -0.222981 0.046057 -0.008708
v -0.223635 0.043552 0.001208
v -0.046084 0.007368 -0.018334
v -0.033693 0.005248 -0.024450
v -0.018647 0.002344 -0.026300
v -0.005071 -0.000509 -0.024036
v 0.006373 -0.003131 -0.018467
v 0.016010 -0.005696 -0.007733
v -0.030306 -0.008872 -0.010270
v -0.057852 0.009028 -0.006561
v 0.005429 -0.005093 0.017862
v -0.036993 -0.008048 -0.001569
v -0.006331 -0.003047 0.023095
v -0.019967 -0.000455 0.025438
v -0.034414 0.002510 0.024241
v -0.046228 0.005240 0.018092
v -0.032480 0.006300 -0.022190
v -0.044973 0.008753 -0.016287
v -0.005168 0.000798 -0.021617
v -0.018773 0.003610 -0.023846
v 0.004975 -0.001414 -0.016788
v 0.014439 -0.003750 -0.006882
v 0.004121 -0.003178 0.016319
v 0.014078 -0.004483 0.006726
v 0.007180 -0.007311 0.011791
v -0.019965 0.001286 0.023326
v -0.006335 -0.001422 0.020878
v -0.045099 0.007259 0.016569
v -0.033271 0.004311 0.022511
v -0.039118 0.001783 0.017557
v 0.012285 -0.008682 -0.000358
v 0.015616 -0.006515 0.007428
v 0.016010 -0.005696 -0.007733
v -0.224176 0.040873 0.001309
v -0.046084 0.007368 -0.018334
v -0.033693 0.005248 -0.024450
v -0.018647 0.002344 -0.026300
v -0.005071 -0.000509 -0.024036
v 0.006373 -0.003131 -0.018467
v 0.007400 -0.007179 -0.011645
v 0.015616 -0.006515 0.007428
v 0.005429 -0.005093 0.017862
v 0.006795 -0.008398 0.010743
v -0.006331 -0.003047 0.023095
v -0.019967 -0.000455 0.025438
v -0.034414 0.002510 0.024241
v -0.046228 0.005240 0.018092
v -0.225293 0.042358 -0.003649
v -0.224753 0.045038 -0.003750
v -0.225293 0.042358 -0.003649
vt 0.890303 0.219874
vt 0.895094 0.220531
vt 0.894851 0.221077
vt 0.903077 0.236553
vt 0.903654 0.231785
vt 0.903655 0.236648
vt 0.901588 0.227438
vt 0.903076 0.231881
vt 0.894957 0.247375
vt 0.890496 0.249226
vt 0.890435 0.248629
vt 0.877840 0.243326
vt 0.881057 0.247016
vt 0.877372 0.243704
vt 0.874702 0.234403
vt 0.874961 0.239344
vt 0.874098 0.234408
vt 0.881251 0.222137
vt 0.885455 0.219647
vt 0.885598 0.220233
vt 0.881376 0.246504
vt 0.885601 0.248922
vt 0.899223 0.245157
vt 0.895205 0.247917
vt 0.899155 0.223262
vt 0.898750 0.223698
vt 0.902135 0.241260
vt 0.901617 0.240984
vt 0.885736 0.248335
vt 0.898817 0.244726
vt 0.875528 0.239140
vt 0.902108 0.227158
vt 0.877740 0.225388
vt 0.880923 0.221628
vt 0.875463 0.229638
vt 0.874889 0.229441
vt 0.968133 0.392124
vt 0.966282 0.399708
vt 0.962891 0.397063
vt 0.970623 0.382626
vt 0.972442 0.375164
vt 0.972526 0.382349
vt 0.967599 0.384913
vt 0.959822 0.385027
vt 0.961533 0.381090
vt 0.978293 0.388821
vt 0.984429 0.393462
vt 0.977810 0.390687
vt 0.982093 0.397062
vt 0.976742 0.392288
vt 0.967101 0.390479
vt 0.959482 0.389305
vt 0.966636 0.388595
vt 0.966809 0.386670
vt 0.977405 0.385099
vt 0.985112 0.385019
vt 0.978158 0.386887
vt 0.974427 0.382701
vt 0.980467 0.377917
vt 0.976115 0.383651
vt 0.978711 0.399708
vt 0.975209 0.393448
vt 0.973379 0.394043
vt 0.970349 0.401109
vt 0.971452 0.394007
vt 0.976683 0.375870
vt 0.969637 0.393344
vt 0.964431 0.377924
vt 0.968205 0.375874
vt 0.974649 0.401109
vt 0.983382 0.381082
vt 0.968918 0.383514
vt 0.874529 0.229319
vt 0.873719 0.234411
vt 0.904017 0.231724
vt 0.902433 0.226982
vt 0.876963 0.224779
vt 0.899478 0.245426
vt 0.902461 0.241431
vt 0.899407 0.222989
vt 0.904017 0.236706
vt 0.985472 0.389301
vt 0.890390 0.218899
vt 0.885364 0.219280
vt 0.880717 0.221310
vt 0.874605 0.239472
vt 0.895246 0.220187
vt 0.890357 0.219275
vt 0.877079 0.243943
vt 0.880858 0.247337
vt 0.890535 0.249600
vt 0.895361 0.248257
vt 0.885517 0.249290
vt 0.877263 0.225013
vt 0.960542 0.393463
vt 0.881827 0.236779
vt 0.884846 0.227848
vt 0.883033 0.229590
vt 0.884869 0.240718
vt 0.889596 0.226552
vt 0.887116 0.226790
vt 0.889668 0.241954
vt 0.892096 0.241322
vt 0.895683 0.230545
vt 0.894133 0.228532
vt 0.895748 0.237914
vt 0.896568 0.235495
vt 0.896542 0.232943
vt 0.894194 0.239917
vt 0.892025 0.227151
vt 0.887168 0.241747
vt 0.883014 0.239008
vt 0.881441 0.234294
vt 0.881883 0.231832
vt 0.320022 0.242136
vt 0.319698 0.240687
vt 0.321673 0.240873
vt 0.321808 0.244384
vt 0.320629 0.243349
vt 0.321448 0.243436
vt 0.329766 0.218102
vt 0.330184 0.216765
vt 0.330006 0.218206
vt 0.329971 0.215447
vt 0.329256 0.214512
vt 0.329442 0.214320
vt 0.325909 0.214481
vt 0.325175 0.215411
vt 0.325725 0.214284
vt 0.324639 0.243340
vt 0.323459 0.244389
vt 0.323814 0.243435
vt 0.324907 0.216724
vt 0.325218 0.218036
vt 0.324971 0.218117
vt 0.325512 0.240664
vt 0.325236 0.242125
vt 0.323562 0.240869
vt 0.325739 0.219209
vt 0.326794 0.220653
vt 0.325495 0.219321
vt 0.324587 0.237694
vt 0.325292 0.239039
vt 0.323426 0.239818
vt 0.326935 0.220416
vt 0.327979 0.219771
vt 0.328156 0.220423
vt 0.327484 0.244040
vt 0.328083 0.244413
vt 0.327372 0.244406
vt 0.329260 0.218468
vt 0.327565 0.216991
vt 0.327115 0.219770
vt 0.329713 0.215491
vt 0.328655 0.214342
vt 0.329543 0.216214
vt 0.329181 0.219300
vt 0.327585 0.213868
vt 0.328264 0.213605
vt 0.326923 0.213588
vt 0.326505 0.214319
vt 0.325587 0.216187
vt 0.325432 0.215463
vt 0.325161 0.216767
vt 0.325810 0.218466
vt 0.326775 0.244035
vt 0.326617 0.220630
vt 0.326396 0.244034
vt 0.328475 0.220635
vt 0.328194 0.244044
vt 0.320458 0.237800
vt 0.322618 0.239210
vt 0.321809 0.239819
vt 0.322619 0.241850
vt 0.322630 0.243949
vt 0.323259 0.236473
vt 0.329926 0.216800
vt 0.321956 0.236483
vt 0.319809 0.239121
vt 0.321646 0.213437
vt 0.322344 0.213432
vt 0.323042 0.213427
vt 0.329423 0.219409
vt 0.326835 0.213339
vt 0.328305 0.220658
vt 0.326661 0.244397
vt 0.328572 0.244041
vt 0.328359 0.213364
vn -0.1175 0.8779 0.4642
vn -0.0244 0.9552 -0.2948
vn 0.0396 0.8780 0.4771
vn 0.4718 0.8782 0.0787
vn -0.2602 0.9552 -0.1408
vn -0.2918 0.9552 -0.0487
vn 0.3241 0.8781 0.3520
vn 0.4207 0.8782 0.2277
vn 0.3241 0.8781 -0.3520
vn -0.1188 0.9552 0.2709
vn 0.1923 0.8780 -0.4383
vn -0.2620 0.8778 -0.4010
vn 0.0726 0.9552 0.2868
vn 0.1618 0.9552 0.2477
vn -0.4532 0.8777 -0.1556
vn 0.2335 0.9552 0.1817
vn 0.2798 0.9552 0.0961
vn -0.3781 0.8777 0.2943
vn 0.1618 0.9552 -0.2477
vn -0.2620 0.8778 0.4010
vn -0.1175 0.8779 -0.4642
vn -0.0244 0.9552 0.2948
vn -0.2602 0.9552 0.1408
vn -0.2004 0.9552 0.2177
vn -0.1188 0.9552 -0.2709
vn 0.1923 0.8780 0.4383
vn -0.2918 0.9552 0.0487
vn 0.4718 0.8782 -0.0787
vn 0.0396 0.8780 -0.4771
vn 0.4207 0.8782 -0.2277
vn -0.3781 0.8777 -0.2943
vn -0.2004 0.9552 -0.2177
vn -0.4532 0.8777 0.1556
vn 0.2335 0.9552 -0.1817
vn -0.4792 0.8777 0.0000
vn 0.2958 0.9552 -0.0000
vn 0.2959 -0.9498 0.1016
vn 0.5477 -0.8367 -0.0000
vn 0.5180 -0.8367 0.1778
vn -0.2119 -0.9498 0.2302
vn -0.4817 -0.8367 0.2607
vn -0.2752 -0.9498 0.1489
vn -0.0258 -0.9498 0.3118
vn 0.1345 -0.8367 0.5309
vn -0.0452 -0.8367 0.5458
vn -0.1257 -0.9498 -0.2865
vn -0.0452 -0.8367 -0.5458
vn -0.0258 -0.9498 -0.3118
vn 0.1345 -0.8367 -0.5309
vn 0.0768 -0.9498 -0.3033
vn 0.2469 -0.9498 0.1922
vn 0.2996 -0.8367 0.4585
vn 0.1711 -0.9498 0.2620
vn 0.0768 -0.9498 0.3033
vn -0.2752 -0.9498 -0.1489
vn -0.3709 -0.8367 -0.4030
vn -0.2119 -0.9498 -0.2302
vn -0.3086 -0.9498 0.0515
vn -0.5402 -0.8367 -0.0901
vn -0.3086 -0.9498 -0.0515
vn 0.2996 -0.8367 -0.4585
vn 0.1711 -0.9498 -0.2620
vn 0.2469 -0.9498 -0.1922
vn 0.5180 -0.8367 -0.1778
vn 0.2959 -0.9498 -0.1016
vn -0.5402 -0.8367 0.0901
vn 0.3129 -0.9498 -0.0000
vn -0.2200 -0.8367 0.5016
vn -0.3710 -0.8367 0.4030
vn 0.4322 -0.8367 -0.3364
vn -0.4817 -0.8367 -0.2607
vn -0.1257 -0.9498 0.2865
vn 0.7810 0.6245 -0.0000
vn 0.7387 0.6245 0.2536
vn -0.6869 0.6245 -0.3717
vn -0.5290 0.6245 -0.5746
vn 0.7387 0.6245 -0.2536
vn -0.6869 0.6245 0.3717
vn -0.7704 0.6245 0.1286
vn -0.3137 0.6245 -0.7152
vn -0.7704 0.6245 -0.1286
vn -0.2200 -0.8367 -0.5016
vn 0.1917 0.6245 -0.7571
vn 0.4272 0.6245 -0.6539
vn 0.6163 0.6245 -0.4797
vn 0.6163 0.6245 0.4797
vn -0.0645 0.6245 -0.7784
vn 0.0726 0.9552 -0.2868
vn 0.4272 0.6245 0.6539
vn 0.1917 0.6245 0.7571
vn -0.3137 0.6245 0.7152
vn -0.5290 0.6245 0.5746
vn -0.0645 0.6245 0.7784
vn 0.2798 0.9552 -0.0961
vn 0.4322 -0.8367 0.3364
vn -0.2547 0.9465 -0.1981
vn -0.2547 0.9465 0.1982
vn -0.3053 0.9465 0.1048
vn -0.0792 0.9466 -0.3125
vn -0.0792 0.9466 0.3125
vn -0.1765 0.9466 0.2700
vn 0.1293 0.9467 -0.2949
vn 0.2179 0.9468 -0.2368
vn 0.2179 0.9468 0.2368
vn 0.1293 0.9467 0.2949
vn 0.3172 0.9469 -0.0530
vn 0.3172 0.9469 0.0530
vn 0.2829 0.9468 0.1531
vn 0.2829 0.9468 -0.1531
vn 0.0265 0.9467 0.3211
vn 0.0265 0.9467 -0.3211
vn -0.1765 0.9466 -0.2700
vn -0.3053 0.9465 -0.1048
vn -0.3228 0.9465 0.0000
vn 0.0310 -0.8553 0.5172
vn -0.1508 -0.8097 0.5672
vn -0.1297 -0.9410 0.3127
vn 0.3549 -0.9171 0.1815
vn 0.1049 -0.8942 0.4353
vn 0.2316 -0.9099 0.3442
vn 0.1953 0.9487 0.2485
vn 0.1920 0.8756 -0.4432
vn 0.0283 0.9002 -0.4345
vn 0.3135 0.8395 -0.4438
vn 0.1432 0.9687 0.2028
vn 0.4893 0.7752 -0.3995
vn 0.1500 0.9839 -0.0973
vn 0.3080 0.7638 0.5672
vn 0.4694 0.7204 0.5106
vn 0.1274 -0.8444 -0.5203
vn 0.3647 -0.8940 -0.2603
vn 0.2507 -0.8693 -0.4259
vn 0.1917 0.7513 0.6315
vn 0.1426 0.9837 0.1095
vn -0.0555 0.7098 0.7022
vn -0.1409 -0.7255 -0.6736
vn 0.0540 -0.7921 -0.6080
vn -0.1148 -0.9006 -0.4191
vn 0.1512 0.9750 0.1631
vn -0.2017 0.3466 0.9161
vn -0.3233 0.6841 0.6538
vn -0.4912 -0.7332 -0.4702
vn -0.3223 -0.7082 -0.6282
vn -0.3325 -0.8637 -0.3788
vn 0.2856 0.8907 0.3537
vn 0.6489 0.7076 0.2796
vn 0.3030 0.9150 -0.2664
vn -0.6388 0.7612 0.1116
vn -0.6290 0.0979 -0.7712
vn -0.9792 0.1991 0.0396
vn 0.4360 0.5607 0.7039
vn 0.2151 0.9750 0.0562
vn 0.6604 0.7335 -0.1606
vn 0.0915 0.9725 0.2141
vn -0.3834 0.7463 0.5441
vn -0.0005 0.6318 0.7751
vn 0.2622 0.9631 0.0603
vn -0.5633 0.8258 0.0285
vn 0.2063 0.9763 0.0657
vn 0.2016 0.9781 0.0509
vn -0.3669 0.7901 -0.4910
vn 0.0288 0.7290 -0.6839
vn 0.1051 0.9885 -0.1087
vn 0.2645 0.9621 -0.0666
vn 0.4483 0.7188 -0.5313
vn -0.3853 0.6041 0.6976
vn -0.5368 0.1396 0.8321
vn -0.1289 0.4338 -0.8917
vn -0.3292 0.7483 -0.5759
vn -0.5077 -0.7871 0.3503
vn -0.4794 -0.8754 -0.0626
vn -0.3419 -0.9047 0.2544
vn 0.0619 -0.9969 -0.0481
vn 0.3857 -0.9218 -0.0397
vn -0.4467 -0.8805 -0.1586
vn 0.2309 0.9379 0.2588
vn -0.4546 -0.8901 0.0326
vn -0.3248 -0.7962 0.5104
vn -0.1773 -0.9513 -0.2520
vn -0.1543 -0.9555 -0.2515
vn -0.1782 -0.9529 -0.2456
vn -0.1764 0.8623 -0.4747
vn 0.7143 0.6391 0.2853
vn 0.7262 0.6640 -0.1781
usemtl M_Interior
s 1
f 71/1/1 54/2/2 21/3/3
f 73/4/4 57/5/5 58/6/6
f 23/7/7 57/5/5 72/8/8
f 25/9/9 62/10/10 26/11/11
f 75/12/12 64/13/13 65/14/14
f 76/15/15 66/16/16 67/17/17
f 69/18/18 52/19/19 70/20/20
f 28/21/21 63/22/22 64/13/13
f 25/9/9 60/23/23 61/24/24
f 21/3/3 55/25/25 22/26/26
f 73/4/4 59/27/27 24/28/28
f 26/11/11 63/22/22 27/29/29
f 24/28/28 60/23/23 74/30/30
f 29/31/31 65/14/14 66/16/16
f 22/26/26 56/32/32 23/7/7
f 20/33/33 51/34/34 69/18/18
f 52/19/19 71/1/1 70/20/20
f 68/35/35 67/17/17 49/36/36
f 98/37/37 43/38/38 88/39/39
f 45/40/40 32/41/41 102/42/42
f 96/43/43 85/44/44 84/45/45
f 93/46/46 38/47/47 47/48/48
f 47/48/48 39/49/49 48/50/50
f 91/51/51 86/52/52 97/53/53
f 44/54/54 86/52/52 85/44/44
f 101/55/55 36/56/56 46/57/57
f 90/58/58 34/59/59 94/60/60
f 48/50/50 40/61/61 100/62/62
f 92/63/63 42/64/64 99/65/65
f 102/42/42 33/66/66 90/58/58
f 89/67/67 42/64/64 43/38/38
f 45/40/40 30/68/68 31/69/69
f 100/62/62 41/70/70 92/63/63
f 94/60/60 35/71/71 101/55/55
f 95/72/72 84/45/45 30/68/68
f 1/73/73 67/17/17 19/74/74
f 9/75/75 56/32/32 8/76/76
f 2/77/77 49/36/36 1/73/73
f 12/78/78 59/27/27 11/79/79
f 7/80/80 56/32/32 55/25/25
f 10/81/81 59/27/27 58/6/6
f 46/57/57 37/82/82 93/46/46
f 5/83/83 52/19/19 4/84/84
f 4/84/84 51/34/34 3/85/85
f 19/74/74 66/16/16 18/86/86
f 6/87/87 53/88/88 5/83/83
f 17/89/89 64/13/13 16/90/90
f 7/80/80 54/2/2 6/87/87
f 14/91/91 61/24/24 13/92/92
f 12/78/78 61/24/24 60/23/23
f 10/81/81 57/5/5 9/75/75
f 18/86/86 65/14/14 17/89/89
f 16/90/90 63/22/22 15/93/93
f 15/93/93 62/10/10 14/91/91
f 3/85/85 50/94/94 2/77/77
f 91/51/51 88/39/39 87/95/95
f 68/35/35 50/94/94 20/33/33
f 76/15/15 83/96/96 29/31/31
f 20/33/33 77/97/97 104/98/98
f 75/12/12 113/99/99 28/21/21
f 70/20/20 106/100/100 105/101/101
f 27/29/29 80/102/102 26/11/11
f 26/11/11 112/103/103 25/9/9
f 22/26/26 78/104/104 108/105/105
f 74/30/30 79/106/106 24/28/28
f 72/8/8 110/107/107 109/108/108
f 25/9/9 111/109/109 74/30/30
f 23/7/7 109/108/108 78/104/104
f 21/3/3 108/105/105 107/110/110
f 28/21/21 81/111/111 27/29/29
f 71/1/1 107/110/110 106/100/100
f 29/31/31 82/112/112 75/12/12
f 69/18/18 105/101/101 77/97/97
f 68/35/35 114/113/113 76/15/15
f 68/35/35 104/98/98 103/114/114
f 24/28/28 110/107/107 73/4/4
f 102/42/42 100/62/62 98/37/37
f 105/101/101 78/104/104 113/99/99
f 178/115/115 179/116/116 119/117/117
f 175/118/118 176/119/119 177/120/120
f 151/121/121 139/122/122 138/123/123
f 140/124/124 155/125/125 141/126/126
f 157/127/127 147/128/128 145/129/129
f 173/130/130 167/131/131 174/132/132
f 148/133/133 163/134/134 149/135/135
f 171/136/136 172/137/137 121/138/138
f 162/139/139 122/140/140 150/141/141
f 169/142/142 170/143/143 143/144/144
f 133/145/145 126/146/146 125/147/147
f 183/148/148 123/149/149 182/150/150
f 128/151/151 126/146/146 127/152/152
f 126/146/146 134/153/153 127/152/152
f 153/154/154 130/155/155 155/125/125
f 128/151/151 127/152/152 129/156/156
f 129/156/156 127/152/152 130/155/155
f 126/146/146 152/157/157 125/147/147
f 130/155/155 127/152/152 131/158/158
f 156/159/159 130/155/155 131/158/158
f 158/160/160 131/158/158 159/161/161
f 131/158/158 127/152/152 159/161/161
f 127/152/152 132/162/162 159/161/161
f 159/161/161 161/163/163 157/127/127
f 160/164/164 164/165/165 163/134/134
f 132/162/162 127/152/152 164/165/165
f 162/139/139 134/153/153 133/145/145
f 164/165/165 127/152/152 134/153/153
f 136/166/166 133/145/145 125/147/147
f 122/167/140 136/166/166 124/168/167
f 115/169/168 135/170/169 125/147/147
f 181/171/170 146/172/171 118/173/172
f 119/117/117 120/174/173 177/120/120
f 165/175/174 177/120/120 120/174/173
f 174/132/132 165/175/174 120/174/173
f 172/137/137 173/130/130 174/132/132
f 169/142/142 146/172/171 144/176/175
f 128/151/151 154/177/176 151/121/121
f 117/178/177 144/176/175 146/172/171
f 118/173/172 121/138/138 119/117/117
f 118/173/172 179/116/116 180/179/178
f 168/180/179 184/181/180 116/182/181
f 171/136/136 143/144/144 170/143/143
f 167/131/131 175/118/118 165/175/174
f 151/121/121 152/157/157 128/151/151
f 153/154/154 154/177/176 129/156/156
f 156/159/159 155/125/125 130/155/155
f 158/160/160 156/159/159 131/158/158
f 157/127/127 158/160/160 159/161/161
f 160/164/164 161/163/163 132/162/162
f 162/139/139 163/134/134 164/165/165
f 151/121/121 137/183/182 152/157/157
f 140/124/124 154/177/176 153/154/154
f 156/159/159 141/126/126 155/125/125
f 166/184/183 156/159/159 158/160/160
f 145/129/129 158/160/160 157/127/127
f 160/164/164 147/128/128 161/163/163
f 150/141/141 163/134/134 162/139/139
f 115/185/168 152/157/157 137/183/182
f 180/179/178 181/171/170 118/173/172
f 136/166/166 182/150/150 124/186/167
f 71/1/1 53/88/88 54/2/2
f 73/4/4 72/8/8 57/5/5
f 23/7/7 56/32/32 57/5/5
f 25/9/9 61/24/24 62/10/10
f 75/12/12 28/21/21 64/13/13
f 76/15/15 29/31/31 66/16/16
f 69/18/18 51/34/34 52/19/19
f 28/21/21 27/29/29 63/22/22
f 25/9/9 74/30/30 60/23/23
f 21/3/3 54/2/2 55/25/25
f 73/4/4 58/6/6 59/27/27
f 26/11/11 62/10/10 63/22/22
f 24/28/28 59/27/27 60/23/23
f 29/31/31 75/12/12 65/14/14
f 22/26/26 55/25/25 56/32/32
f 20/33/33 50/94/94 51/34/34
f 52/19/19 53/88/88 71/1/1
f 68/35/35 76/15/15 67/17/17
f 98/37/37 89/67/67 43/38/38
f 45/40/40 31/69/69 32/41/41
f 96/43/43 44/54/54 85/44/44
f 93/46/46 37/82/82 38/47/47
f 47/48/48 38/47/47 39/49/49
f 91/51/51 87/95/95 86/52/52
f 44/54/54 97/53/53 86/52/52
f 101/55/55 35/71/71 36/56/56
f 90/58/58 33/66/66 34/59/59
f 48/50/50 39/49/49 40/61/61
f 92/63/63 41/70/70 42/64/64
f 102/42/42 32/41/41 33/66/66
f 89/67/67 99/65/65 42/64/64
f 45/40/40 95/72/72 30/68/68
f 100/62/62 40/61/61 41/70/70
f 94/60/60 34/59/59 35/71/71
f 95/72/72 96/43/43 84/45/45
f 1/73/73 49/36/36 67/17/17
f 9/75/75 57/5/5 56/32/32
f 2/77/77 50/94/94 49/36/36
f 12/78/78 60/23/23 59/27/27
f 7/80/80 8/76/76 56/32/32
f 10/81/81 11/79/79 59/27/27
f 46/57/57 36/56/56 37/82/82
f 5/83/83 53/88/88 52/19/19
f 4/84/84 52/19/19 51/34/34
f 19/74/74 67/17/17 66/16/16
f 6/87/87 54/2/2 53/88/88
f 17/89/89 65/14/14 64/13/13
f 7/80/80 55/25/25 54/2/2
f 14/91/91 62/10/10 61/24/24
f 12/78/78 13/92/92 61/24/24
f 10/81/81 58/6/6 57/5/5
f 18/86/86 66/16/16 65/14/14
f 16/90/90 64/13/13 63/22/22
f 15/93/93 63/22/22 62/10/10
f 3/85/85 51/34/34 50/94/94
f 91/51/51 98/37/37 88/39/39
f 68/35/35 49/36/36 50/94/94
f 76/15/15 114/113/113 83/96/96
f 20/33/33 69/18/18 77/97/97
f 75/12/12 82/112/112 113/99/99
f 70/20/20 71/1/1 106/100/100
f 27/29/29 81/111/111 80/102/102
f 26/11/11 80/102/102 112/103/103
f 22/26/26 23/7/7 78/104/104
f 74/30/30 111/109/109 79/106/106
f 72/8/8 73/4/4 110/107/107
f 25/9/9 112/103/103 111/109/109
f 23/7/7 72/8/8 109/108/108
f 21/3/3 22/26/26 108/105/105
f 28/21/21 113/99/99 81/111/111
f 71/1/1 21/3/3 107/110/110
f 29/31/31 83/96/96 82/112/112
f 69/18/18 70/20/20 105/101/101
f 68/35/35 103/114/114 114/113/113
f 68/35/35 20/33/33 104/98/98
f 24/28/28 79/106/106 110/107/107
f 91/51/51 97/53/53 44/54/54
f 44/54/54 96/43/43 102/42/42
f 96/43/43 95/72/72 102/42/42
f 95/72/72 45/40/40 102/42/42
f 102/42/42 90/58/58 94/60/60
f 94/60/60 101/55/55 46/57/57
f 46/57/57 93/46/46 100/62/62
f 93/46/46 47/48/48 100/62/62
f 47/48/48 48/50/50 100/62/62
f 100/62/62 92/63/63 99/65/65
f 99/65/65 89/67/67 98/37/37
f 98/37/37 91/51/51 102/42/42
f 91/51/51 44/54/54 102/42/42
f 102/42/42 94/60/60 100/62/62
f 94/60/60 46/57/57 100/62/62
f 100/62/62 99/65/65 98/37/37
f 104/98/98 77/97/97 105/101/101
f 105/101/101 106/100/100 107/110/110
f 107/110/110 108/105/105 105/101/101
f 108/105/105 78/104/104 105/101/101
f 78/104/104 109/108/108 110/107/107
f 110/107/107 79/106/106 111/109/109
f 111/109/109 112/103/103 80/102/102
f 80/102/102 81/111/111 111/109/109
f 81/111/111 113/99/99 111/109/109
f 113/99/99 82/112/112 103/114/114
f 82/112/112 83/96/96 103/114/114
f 83/96/96 114/113/113 103/114/114
f 103/114/114 104/98/98 105/101/101
f 78/104/104 110/107/107 113/99/99
f 110/107/107 111/109/109 113/99/99
f 103/114/114 105/101/101 113/99/99
f 151/121/121 154/177/176 139/122/122
f 140/124/124 153/154/154 155/125/125
f 157/127/127 161/163/163 147/128/128
f 148/133/133 160/164/164 163/134/134
f 162/139/139 133/145/145 122/140/140
f 133/145/145 134/153/153 126/146/146
f 183/148/148 135/170/169 123/149/149
f 153/154/154 129/156/156 130/155/155
f 126/146/146 128/151/151 152/157/157
f 159/161/161 132/162/162 161/163/163
f 160/164/164 132/162/162 164/165/165
f 162/139/139 164/165/165 134/153/153
f 125/147/147 135/170/169 136/166/166
f 135/170/169 183/148/148 136/166/166
f 122/167/140 133/145/145 136/166/166
f 115/169/168 123/187/149 135/170/169
f 181/171/170 117/178/177 146/172/171
f 176/119/119 178/115/115 177/120/120
f 178/115/115 119/117/117 177/120/120
f 165/175/174 175/118/118 177/120/120
f 174/132/132 167/131/131 165/175/174
f 120/174/173 121/138/138 174/132/132
f 121/138/138 172/137/137 174/132/132
f 169/142/142 143/144/144 146/172/171
f 128/151/151 129/156/156 154/177/176
f 118/173/172 146/172/171 143/144/144
f 143/144/144 121/138/138 118/173/172
f 121/138/138 120/174/173 119/117/117
f 118/173/172 119/117/117 179/116/116
f 144/176/175 117/178/177 116/182/181
f 117/178/177 168/180/179 116/182/181
f 171/136/136 121/138/138 143/144/144
f 151/121/121 138/123/123 137/183/182
f 140/124/124 139/122/122 154/177/176
f 156/159/159 142/188/184 141/126/126
f 166/184/183 142/188/184 156/159/159
f 145/129/129 166/184/183 158/160/160
f 160/164/164 148/133/133 147/128/128
f 150/141/141 149/135/135 163/134/134
f 115/185/168 125/147/147 152/157/157
f 136/166/166 183/148/148 182/150/150
