# Blender v3.0.1 OBJ File: 'props.blend'
# www.blender.org
mtllib Safe01_1.mtl
o Safe01_1_LOD0_Plane.038
v -0.298355 0.010559 0.252207
v -0.298355 1.690559 0.252207
v 0.261645 1.690559 0.252207
v 0.240645 1.573081 0.203323
v 0.240645 0.238817 0.203323
v 0.261645 1.573081 -0.324201
v 0.261645 0.010559 -0.324201
v 0.240645 0.238817 0.231323
v 0.242585 0.238817 0.226378
v 0.242585 1.573081 0.226378
v 0.275819 1.563484 0.217785
v 0.275819 0.253248 0.217785
v 0.267766 1.570388 -0.292235
v 0.267766 0.241510 -0.292235
v 0.261645 1.573081 -0.314587
v 0.261645 0.238817 -0.314587
v 0.240645 1.573081 -0.324201
v 0.240645 0.238817 -0.324201
v 0.240645 1.573081 0.231323
v 0.261645 0.238817 -0.324201
v 0.261645 1.573081 0.231323
v 0.261645 0.238817 0.231323
v -0.298355 1.690559 -0.345085
v 0.261645 1.690559 -0.324201
v 0.261645 0.010559 0.252207
v -0.298355 0.010559 -0.345085
v 0.261645 1.690559 -0.345085
v 0.261645 0.010559 -0.345085
vt 0.818737 0.782237
vt 0.775586 0.911689
vt 0.775587 0.782237
vt 0.874894 0.913201
vt 0.854496 0.972236
vt 0.854496 0.913201
vt 0.873400 0.782236
vt 0.875018 0.885048
vt 0.873400 0.885048
vt 0.871243 0.885048
vt 0.873400 0.782236
vt 0.873400 0.885048
vt 0.825202 0.803001
vt 0.862700 0.899829
vt 0.825202 0.899322
vt 0.822678 0.900027
vt 0.824572 0.800337
vt 0.862700 0.802138
vt 0.864404 0.900027
vt 0.864404 0.801940
vt 0.824584 0.901868
vt 0.864346 0.900310
vt 0.821134 0.803781
vt 0.822678 0.901868
vt 0.821134 0.901868
vt 0.866102 0.900027
vt 0.820346 0.902636
vt 0.863153 0.911689
vt 0.818737 0.911689
vt 0.820346 0.799824
vt 0.863152 0.782236
vt 0.863152 0.799824
vt 0.869625 0.842242
vt 0.871243 0.885048
vt 0.869625 0.885048
vt 0.869625 0.885048
vt 0.868006 0.842242
vt 0.869625 0.842242
vt 0.774157 0.826964
vt 0.731007 0.782237
vt 0.774157 0.782237
vt 0.874894 0.972236
vt 0.875018 0.782236
vt 0.871243 0.782236
vt 0.822678 0.801940
vt 0.864343 0.801647
vt 0.822678 0.803781
vt 0.866102 0.801940
vt 0.863153 0.902636
vt 0.871243 0.842242
vt 0.868006 0.885048
vt 0.731007 0.826964
vt 0.818737 0.911689
vt 0.820346 0.782236
vt 0.820346 0.911689
vt 0.818737 0.782236
vt 0.775586 0.911689
vt 0.818737 0.911689
vt 0.818737 0.782237
vt 0.775586 0.782237
vt 0.774157 0.826964
vt 0.774157 0.782237
vt 0.731007 0.782237
vt 0.731007 0.826964
vn 0.0000 0.0000 1.0000
vn -1.0000 0.0000 -0.0000
vn 1.0000 0.0000 0.0000
vn 0.9999 0.0000 -0.0158
vn 0.2503 0.0000 0.9682
vn 0.4015 -0.9158 0.0147
vn 0.9645 0.0000 -0.2641
vn 0.3631 0.9317 0.0128
vn 0.0000 0.0000 -1.0000
vn 0.4163 0.0000 -0.9092
vn 0.0000 1.0000 0.0000
vn 0.0000 -1.0000 0.0000
vn 0.3632 -0.9316 0.0128
vn 0.2795 0.9601 0.0086
usemtl M_Interior
s 1
f 25/1/1 2/2/1 1/3/1
f 1/4/2 23/5/2 26/6/2
f 18/7/1 6/8/1 17/9/1
f 5/10/3 19/11/3 8/12/3
f 12/13/4 13/14/4 11/15/4
f 10/16/5 12/13/5 11/15/5
f 9/17/6 14/18/6 12/13/6
f 15/19/7 14/18/7 16/20/7
f 10/21/8 13/14/8 15/22/8
f 19/23/9 22/24/9 8/25/9
f 16/20/10 17/26/10 15/19/10
f 21/27/3 24/28/3 3/29/3
f 22/30/3 7/31/3 20/32/3
f 3/29/3 22/30/3 21/27/3
f 8/33/11 20/34/11 18/35/11
f 17/36/12 21/37/12 19/38/12
f 27/39/11 2/40/11 3/41/11
f 25/1/1 3/29/1 2/2/1
f 1/4/2 2/42/2 23/5/2
f 18/7/1 20/43/1 6/8/1
f 5/10/3 4/44/3 19/11/3
f 12/13/4 14/18/4 13/14/4
f 10/16/5 9/45/5 12/13/5
f 9/17/13 16/46/13 14/18/13
f 15/19/7 13/14/7 14/18/7
f 10/21/14 11/15/14 13/14/14
f 19/23/9 21/47/9 22/24/9
f 16/20/10 18/48/10 17/26/10
f 21/27/3 6/49/3 24/28/3
f 22/30/3 25/1/3 7/31/3
f 3/29/3 25/1/3 22/30/3
f 8/33/11 22/50/11 20/34/11
f 17/36/12 6/51/12 21/37/12
f 27/39/11 23/52/11 2/40/11
f 24/53/3 28/54/3 27/55/3
f 24/53/3 7/56/3 28/54/3
f 28/57/9 26/58/9 23/59/9
f 28/57/9 23/59/9 27/60/9
f 28/61/12 25/62/12 1/63/12
f 28/61/12 1/63/12 26/64/12
