# Blender v3.0.1 OBJ File: 'props.blend'
# www.blender.org
mtllib Table04.mtl
o Table04_LOD0_cube.001
v -0.370992 0.777656 -0.751798
v -0.404705 0.777656 -0.718085
v -0.388597 0.777656 -0.747081
v -0.399988 0.777656 -0.735690
v -0.404705 0.777656 0.750506
v -0.370991 0.777656 0.784222
v -0.399988 0.777656 0.768111
v -0.388596 0.777656 0.779503
v 0.357446 0.777656 0.784270
v 0.391158 0.777656 0.750561
v 0.375050 0.777656 0.779555
v 0.386441 0.777656 0.768165
v 0.391158 0.777656 -0.718085
v 0.357445 0.777656 -0.751798
v 0.386441 0.777656 -0.735690
v 0.375050 0.777656 -0.747081
v -0.373037 0.727656 0.799753
v -0.420236 0.727656 0.752550
v -0.396636 0.727656 0.793428
v -0.413912 0.727656 0.776150
v -0.420236 0.727656 -0.720130
v -0.373036 0.727656 -0.767329
v -0.413912 0.727656 -0.743729
v -0.396636 0.727656 -0.761006
v 0.406689 0.727656 0.752605
v 0.359490 0.727656 0.799802
v 0.400365 0.727656 0.776205
v 0.383089 0.727656 0.793480
v 0.359490 0.727656 -0.767329
v 0.406689 0.727656 -0.720130
v 0.383089 0.727656 -0.761006
v 0.400365 0.727656 -0.743730
v -0.396636 0.777656 -0.761006
v -0.373036 0.777656 -0.767329
v -0.413912 0.777656 -0.743729
v -0.420236 0.777656 -0.720130
v -0.373037 0.777656 0.799753
v -0.396636 0.777656 0.793428
v -0.413912 0.777656 0.776150
v -0.420236 0.777656 0.752550
v 0.400365 0.777656 -0.743730
v 0.406689 0.777656 -0.720130
v 0.383089 0.777656 -0.761006
v 0.359490 0.777656 -0.767329
v 0.406689 0.777656 0.752605
v 0.400365 0.777656 0.776205
v 0.383089 0.777656 0.793480
v 0.359490 0.777656 0.799802
v -0.373037 0.727656 0.799753
v -0.420236 0.727656 0.752550
v -0.396636 0.727656 0.793428
v -0.413912 0.727656 0.776150
v -0.420236 0.727656 -0.720130
v -0.373036 0.727656 -0.767329
v -0.413912 0.727656 -0.743729
v -0.396636 0.727656 -0.761006
v 0.406689 0.727656 0.752605
v 0.359490 0.727656 0.799802
v 0.400365 0.727656 0.776205
v 0.383089 0.727656 0.793480
v 0.359490 0.727656 -0.767329
v 0.406689 0.727656 -0.720130
v 0.383089 0.727656 -0.761006
v 0.400365 0.727656 -0.743730
v 0.355542 0.748656 -0.716182
v -0.369087 0.748656 0.748605
v -0.369088 0.727656 -0.716182
v -0.369087 0.727656 0.748605
v 0.355543 0.727656 0.748656
v 0.355542 0.727656 -0.716182
v -0.369088 0.748656 -0.716182
v -0.369087 0.748656 0.748605
v 0.355542 0.748656 -0.716182
v 0.355543 0.748656 0.748656
v -0.369088 0.748656 -0.716182
v -0.369087 0.748656 0.748605
v -0.369088 0.727656 -0.716182
v -0.369087 0.727656 0.748605
v -0.369088 0.748656 -0.716182
v 0.355542 0.748656 -0.716182
v -0.369088 0.727656 -0.716182
v 0.355542 0.727656 -0.716182
v 0.355543 0.748656 0.748656
v 0.355543 0.727656 0.748656
v 0.355542 0.727656 -0.716182
v 0.355543 0.748656 0.748656
v -0.369087 0.727656 0.748605
v 0.355543 0.727656 0.748656
v -0.353702 0.748656 -0.601067
v -0.353702 0.748656 -0.534608
v -0.287259 0.748656 -0.534608
v -0.287259 0.748656 -0.601067
v -0.353702 0.000052 -0.601067
v -0.353702 0.000052 -0.534608
v -0.287259 0.000052 -0.534608
v -0.287259 0.000052 -0.601067
v -0.353702 0.000052 -0.601067
v -0.353702 0.000052 -0.534608
v -0.287259 0.000052 -0.534608
v -0.287259 0.000052 -0.601067
v 0.340164 0.748656 -0.601059
v 0.273704 0.748656 -0.601059
v 0.273704 0.748656 -0.534616
v 0.340164 0.748656 -0.534616
v 0.340164 0.000052 -0.601059
v 0.273704 0.000052 -0.601059
v 0.273704 0.000052 -0.534616
v 0.340164 0.000052 -0.534616
v 0.340164 0.000052 -0.601059
v 0.273704 0.000052 -0.601059
v 0.273704 0.000052 -0.534616
v 0.340164 0.000052 -0.534616
v 0.340164 0.748656 0.622758
v 0.340164 0.748656 0.556299
v 0.273721 0.748656 0.556299
v 0.273721 0.748656 0.622758
v 0.340164 0.000052 0.622758
v 0.340164 0.000052 0.556299
v 0.273721 0.000052 0.556299
v 0.273721 0.000052 0.622758
v 0.340164 0.000052 0.622758
v 0.340164 0.000052 0.556299
v 0.273721 0.000052 0.556299
v 0.273721 0.000052 0.622758
v -0.353703 0.748656 0.622750
v -0.287243 0.748656 0.622750
v -0.287243 0.748656 0.556307
v -0.353703 0.748656 0.556307
v -0.353703 0.000052 0.622750
v -0.287243 0.000052 0.622750
v -0.287243 0.000052 0.556307
v -0.353703 0.000052 0.556307
v -0.353703 0.000052 0.622750
v -0.287243 0.000052 0.622750
v -0.287243 0.000052 0.556307
v -0.353703 0.000052 0.556307
v -0.320374 0.615003 0.590325
v 0.313242 0.615003 0.590367
v 0.313242 0.615003 -0.568640
v -0.320374 0.615003 -0.568640
v 0.313242 0.748656 -0.568640
v 0.313242 0.748656 0.590367
v -0.320374 0.748656 -0.568640
v -0.320374 0.748656 0.590325
v -0.320374 0.615003 0.590325
v 0.313242 0.615003 0.590367
v 0.313242 0.615003 -0.568640
v -0.320374 0.615003 -0.568640
v 0.273712 0.748656 0.590367
v -0.320374 0.748656 0.590325
v -0.320374 0.615003 0.590325
v 0.273712 0.615003 0.590367
v 0.313242 0.748656 -0.568640
v -0.320374 0.748656 -0.568640
v 0.313242 0.615003 -0.568640
v -0.320374 0.615003 -0.568640
v 0.262354 0.749003 0.539476
v -0.269486 0.749003 0.539440
v -0.269486 0.615003 0.539440
v 0.262354 0.615003 0.539476
v 0.262354 0.615003 -0.517752
v -0.269486 0.615003 -0.517752
v -0.269486 0.749003 0.539440
v -0.269486 0.749003 -0.517752
v -0.269486 0.615003 0.539440
v -0.269486 0.615003 -0.517752
v 0.262354 0.749003 0.539476
v 0.262354 0.749003 -0.517752
v 0.262354 0.615003 0.539476
v 0.262354 0.615003 -0.517752
v 0.262354 0.749003 -0.517752
v -0.269486 0.749003 -0.517752
v 0.262354 0.615003 -0.517752
v -0.269486 0.615003 -0.517752
v -0.269486 0.615003 0.539440
v 0.262354 0.615003 0.539476
v 0.273704 0.000052 -0.601059
v 0.340164 0.000052 -0.601059
v 0.273704 0.748656 -0.601059
v 0.340164 0.748656 -0.601059
v -0.353702 0.748656 -0.534608
v -0.287259 0.748656 -0.534608
v -0.353702 0.000052 -0.534608
v -0.287259 0.000052 -0.534608
v -0.353702 0.748656 -0.601067
v -0.287259 0.748656 -0.601067
v -0.353702 0.000052 -0.601067
v -0.287259 0.000052 -0.601067
v -0.287243 0.748656 0.556307
v -0.353703 0.748656 0.556307
v -0.287243 0.000052 0.556307
v -0.353703 0.000052 0.556307
v 0.273721 0.000052 0.622758
v 0.340164 0.000052 0.622758
v 0.273721 0.748656 0.622758
v 0.340164 0.748656 0.622758
v -0.353703 0.748656 0.622750
v -0.287243 0.748656 0.622750
v -0.353703 0.000052 0.622750
v -0.287243 0.000052 0.622750
v 0.340164 0.748656 0.556299
v 0.273721 0.748656 0.556299
v 0.340164 0.000052 0.556299
v 0.273721 0.000052 0.556299
v 0.273704 0.748656 -0.534616
v 0.340164 0.748656 -0.534616
v 0.273704 0.000052 -0.534616
v 0.340164 0.000052 -0.534616
vt 0.138663 0.568679
vt 0.136797 0.596014
vt 0.138663 0.596014
vt 0.138701 0.507692
vt 0.136759 0.564871
vt 0.138701 0.564871
vt 0.138701 0.507690
vt 0.136759 0.564871
vt 0.138701 0.564871
vt 0.138663 0.596271
vt 0.136797 0.572934
vt 0.138663 0.572934
vt 0.138663 0.572182
vt 0.136797 0.572182
vt 0.138663 0.571430
vt 0.136759 0.505859
vt 0.138701 0.505859
vt 0.136797 0.567798
vt 0.136797 0.568679
vt 0.138663 0.567798
vt 0.136759 0.565788
vt 0.138701 0.565788
vt 0.138701 0.566704
vt 0.136797 0.597775
vt 0.138663 0.597023
vt 0.138663 0.597775
vt 0.136797 0.597023
vt 0.136759 0.506773
vt 0.136759 0.507690
vt 0.138701 0.506773
vt 0.136759 0.505857
vt 0.138663 0.597775
vt 0.136797 0.597775
vt 0.170832 0.551035
vt 0.172419 0.552607
vt 0.208267 0.551000
vt 0.207511 0.552355
vt 0.206779 0.553301
vt 0.207889 0.553005
vt 0.208046 0.551823
vt 0.208701 0.552197
vt 0.208998 0.551095
vt 0.207449 0.481077
vt 0.206716 0.480132
vt 0.206620 0.480857
vt 0.207985 0.481608
vt 0.207826 0.480426
vt 0.208938 0.482334
vt 0.208639 0.481233
vt 0.171054 0.551857
vt 0.170101 0.551131
vt 0.170399 0.552233
vt 0.171213 0.553038
vt 0.171590 0.552388
vt 0.172323 0.553333
vt 0.170993 0.481639
vt 0.170041 0.482367
vt 0.170772 0.482462
vt 0.171150 0.480457
vt 0.170338 0.481265
vt 0.171528 0.481107
vt 0.172259 0.480161
vt 0.208207 0.482430
vt 0.172356 0.480886
vt 0.206683 0.552576
vt 0.206668 0.550910
vt 0.207889 0.553005
vt 0.206779 0.553301
vt 0.206589 0.550989
vt 0.208701 0.552197
vt 0.206642 0.550790
vt 0.208998 0.551095
vt 0.206408 0.482470
vt 0.206716 0.480132
vt 0.207826 0.480427
vt 0.206609 0.482524
vt 0.208639 0.481233
vt 0.206529 0.482444
vt 0.208938 0.482334
vt 0.172510 0.551021
vt 0.170399 0.552233
vt 0.170101 0.551131
vt 0.172430 0.550941
vt 0.171213 0.553038
vt 0.172631 0.550995
vt 0.172323 0.553333
vt 0.172396 0.482672
vt 0.170041 0.482367
vt 0.170338 0.481265
vt 0.172450 0.482473
vt 0.171150 0.480457
vt 0.172370 0.482552
vt 0.172259 0.480161
vt 0.206467 0.550964
vt 0.172571 0.482499
vt 0.206583 0.482644
vt 0.206467 0.550964
vt 0.206467 0.550964
vt 0.206467 0.550964
vt 0.172456 0.550821
vt 0.172456 0.550821
vt 0.172456 0.550821
vt 0.172571 0.482499
vt 0.172571 0.482499
vt 0.172571 0.482499
vt 0.206583 0.482644
vt 0.206583 0.482644
vt 0.179905 0.998989
vt 0.127153 0.972892
vt 0.179905 0.972892
vt 0.173327 0.493610
vt 0.169579 0.535839
vt 0.169579 0.493610
vt 0.177076 0.493610
vt 0.173327 0.535839
vt 0.173327 0.493610
vt 0.177076 0.493610
vt 0.173327 0.535839
vt 0.173327 0.493610
vt 0.169579 0.493610
vt 0.165830 0.535839
vt 0.165830 0.493610
vt 0.177076 0.493610
vt 0.180824 0.497359
vt 0.177076 0.497359
vt 0.165830 0.493610
vt 0.162082 0.535839
vt 0.162082 0.493610
vt 0.173327 0.493610
vt 0.169579 0.535839
vt 0.169579 0.493610
vt 0.165830 0.493610
vt 0.162082 0.535839
vt 0.162082 0.493610
vt 0.169579 0.493610
vt 0.165830 0.535839
vt 0.165830 0.493610
vt 0.177076 0.493610
vt 0.180824 0.497359
vt 0.177076 0.497359
vt 0.177076 0.493610
vt 0.173327 0.535839
vt 0.173327 0.493610
vt 0.165830 0.493610
vt 0.162082 0.535839
vt 0.162082 0.493610
vt 0.177076 0.493610
vt 0.173327 0.535839
vt 0.173327 0.493610
vt 0.169579 0.493610
vt 0.165830 0.535839
vt 0.165830 0.493610
vt 0.177076 0.493610
vt 0.180824 0.497359
vt 0.177076 0.497359
vt 0.165830 0.493610
vt 0.162082 0.535839
vt 0.162082 0.493610
vt 0.173327 0.493610
vt 0.169579 0.535839
vt 0.169579 0.493610
vt 0.173327 0.493610
vt 0.169579 0.535839
vt 0.169579 0.493610
vt 0.169579 0.493610
vt 0.165830 0.535839
vt 0.165830 0.493610
vt 0.177076 0.493610
vt 0.180824 0.497359
vt 0.177076 0.497359
vt 0.173930 0.510782
vt 0.169349 0.552725
vt 0.173930 0.552725
vt 0.179262 0.553310
vt 0.169269 0.511367
vt 0.179262 0.511367
vt 0.165384 0.551392
vt 0.169964 0.593334
vt 0.165384 0.593334
vt 0.179057 0.569771
vt 0.169064 0.527828
vt 0.179057 0.527828
vt 0.175110 0.483452
vt 0.208938 0.482334
vt 0.205897 0.485276
vt 0.203928 0.550011
vt 0.170101 0.551131
vt 0.173142 0.548189
vt 0.172259 0.480161
vt 0.206779 0.553301
vt 0.177553 0.537524
vt 0.169076 0.503876
vt 0.177553 0.503876
vt 0.161545 0.503876
vt 0.170023 0.537524
vt 0.161545 0.537524
vt 0.177808 0.570764
vt 0.169330 0.503876
vt 0.177808 0.503876
vt 0.177443 0.570762
vt 0.168965 0.503876
vt 0.177443 0.503876
vt 0.136759 0.507692
vt 0.136797 0.596271
vt 0.136797 0.571430
vt 0.136759 0.566704
vt 0.138701 0.505857
vt 0.206583 0.482644
vt 0.172456 0.550821
vt 0.206583 0.482644
vt 0.206467 0.550964
vt 0.172456 0.550821
vt 0.172571 0.482499
vt 0.127151 0.998989
vt 0.173327 0.535839
vt 0.177076 0.535839
vt 0.177076 0.535839
vt 0.169579 0.535839
vt 0.180824 0.493610
vt 0.165830 0.535839
vt 0.173327 0.535839
vt 0.165830 0.535839
vt 0.169579 0.535839
vt 0.180824 0.493610
vt 0.177076 0.535839
vt 0.165830 0.535839
vt 0.177076 0.535839
vt 0.169579 0.535839
vt 0.180824 0.493610
vt 0.165830 0.535839
vt 0.173327 0.535839
vt 0.173327 0.535839
vt 0.169579 0.535839
vt 0.180824 0.493610
vt 0.169349 0.510782
vt 0.169269 0.553310
vt 0.169964 0.551392
vt 0.169064 0.569771
vt 0.169076 0.537524
vt 0.170023 0.503876
vt 0.169330 0.570764
vt 0.168965 0.570762
vn -0.0959 0.6789 0.7280
vn 0.1305 0.0000 0.9915
vn 0.0958 0.6789 0.7280
vn -0.7280 0.6789 -0.0958
vn -0.9914 0.0000 0.1305
vn -0.7280 0.6789 0.0958
vn 0.7280 0.6789 0.0958
vn 0.9914 0.0000 -0.1305
vn 0.7280 0.6789 -0.0958
vn 0.0958 0.6789 -0.7280
vn -0.1305 0.0000 -0.9914
vn -0.0958 0.6789 -0.7280
vn -0.3786 0.6532 -0.6557
vn -0.5000 0.0000 -0.8660
vn -0.6557 0.6532 -0.3786
vn -0.8660 0.0000 -0.5000
vn -0.5000 0.0000 0.8660
vn -0.1306 0.0000 0.9914
vn -0.3786 0.6532 0.6557
vn -0.8660 0.0000 0.5000
vn -0.6557 0.6532 0.3786
vn 0.6557 0.6532 -0.3786
vn 0.8660 0.0000 -0.5000
vn 0.3786 0.6532 -0.6557
vn 0.5000 0.0000 -0.8660
vn 0.8660 0.0000 0.5000
vn 0.9914 0.0000 0.1305
vn 0.6557 0.6532 0.3786
vn 0.5000 0.0000 0.8661
vn 0.3786 0.6532 0.6557
vn 0.0000 1.0000 0.0000
vn 0.0000 -1.0000 0.0000
vn 1.0000 0.0000 -0.0000
vn 0.0000 0.0000 1.0000
vn -1.0000 0.0000 0.0000
vn 0.0001 0.0000 -1.0000
vn 0.0000 0.0000 -1.0000
vn -0.0001 0.0000 1.0000
vn -0.9914 0.0000 -0.1305
vn 0.1305 0.0000 -0.9914
usemtl M_Interior
s 1
f 37/1/1 26/2/2 48/3/3
f 36/4/4 18/5/5 40/6/6
f 45/7/7 30/8/8 42/9/9
f 44/10/10 22/11/11 34/12/12
f 22/11/11 33/13/13 34/12/12
f 24/14/14 35/15/15 33/13/13
f 23/16/16 36/4/4 35/17/15
f 37/1/1 19/18/17 17/19/18
f 38/20/19 20/21/20 19/18/17
f 39/22/21 18/5/5 20/21/20
f 30/8/8 41/23/22 42/9/9
f 32/24/23 43/25/24 41/26/22
f 31/27/25 44/10/10 43/25/24
f 45/7/7 27/28/26 25/29/27
f 46/30/28 28/31/29 27/28/26
f 47/32/30 26/2/2 28/33/29
f 13/34/31 14/35/31 2/36/31
f 3/37/31 34/38/12 33/39/13
f 4/40/31 33/39/13 35/41/15
f 4/40/31 36/42/4 2/36/31
f 8/43/31 37/44/1 6/45/31
f 7/46/31 38/47/19 8/43/31
f 7/46/31 40/48/6 39/49/21
f 15/50/31 42/51/9 41/52/22
f 15/50/31 43/53/24 16/54/31
f 16/54/31 44/55/10 14/35/31
f 12/56/31 45/57/7 10/58/31
f 12/56/31 47/59/30 46/60/28
f 11/61/31 48/62/3 47/59/30
f 2/36/31 40/48/6 5/63/31
f 9/64/31 37/44/1 48/62/3
f 10/58/31 42/51/9 13/34/31
f 14/35/31 34/38/12 1/65/31
f 67/66/32 56/67/32 54/68/32
f 67/69/32 55/70/32 56/67/32
f 67/71/32 53/72/32 55/70/32
f 68/73/32 49/74/32 51/75/32
f 68/76/32 51/75/32 52/77/32
f 68/78/32 52/77/32 50/79/32
f 70/80/32 64/81/32 62/82/32
f 70/83/32 63/84/32 64/81/32
f 70/85/32 61/86/32 63/84/32
f 69/87/32 57/88/32 59/89/32
f 69/90/32 59/89/32 60/91/32
f 69/92/32 60/91/32 58/93/32
f 67/94/32 61/86/32 70/85/32
f 67/71/32 50/79/32 53/72/32
f 69/95/32 49/74/32 68/73/32
f 69/87/32 62/82/32 57/88/32
f 76/96/33 77/97/33 75/98/33
f 79/99/34 82/100/34 80/101/34
f 65/102/35 84/103/35 83/104/35
f 86/105/36 87/106/36 66/107/36
f 73/108/32 72/109/32 71/110/32
f 186/111/37 187/112/37 185/113/37
f 189/114/37 192/115/37 190/116/37
f 91/117/33 96/118/33 92/119/33
f 89/120/35 94/121/35 90/122/35
f 99/123/32 97/124/32 100/125/32
f 102/126/35 107/127/35 103/128/35
f 104/129/33 105/130/33 101/131/33
f 181/132/34 184/133/34 182/134/34
f 180/135/37 177/136/37 179/137/37
f 111/138/32 109/139/32 112/140/32
f 205/141/34 208/142/34 206/143/34
f 201/144/37 204/145/37 202/146/37
f 115/147/35 120/148/35 116/149/35
f 113/150/33 118/151/33 114/152/33
f 123/153/32 121/154/32 124/155/32
f 126/156/33 131/157/33 127/158/33
f 128/159/35 129/160/35 125/161/35
f 195/162/34 194/163/34 196/164/34
f 197/165/34 200/166/34 198/167/34
f 135/168/32 133/169/32 136/170/32
f 142/171/33 147/172/33 141/173/33
f 153/174/37 156/175/37 154/176/37
f 143/177/35 145/178/35 144/179/35
f 150/180/38 152/181/38 149/182/38
f 160/183/32 137/184/32 159/185/32
f 162/186/32 139/187/32 161/188/32
f 160/183/32 139/187/32 138/189/32
f 162/186/32 137/184/32 140/190/32
f 157/191/36 175/192/36 158/193/36
f 172/194/34 173/195/34 171/196/34
f 168/197/35 169/198/35 167/199/35
f 163/200/33 166/201/33 164/202/33
f 37/1/1 17/19/18 26/2/2
f 36/4/4 21/203/39 18/5/5
f 45/7/7 25/29/27 30/8/8
f 44/10/10 29/204/40 22/11/11
f 22/11/11 24/14/14 33/13/13
f 24/14/14 23/205/16 35/15/15
f 23/16/16 21/203/39 36/4/4
f 37/1/1 38/20/19 19/18/17
f 38/20/19 39/22/21 20/21/20
f 39/22/21 40/6/6 18/5/5
f 30/8/8 32/206/23 41/23/22
f 32/24/23 31/27/25 43/25/24
f 31/27/25 29/204/40 44/10/10
f 45/7/7 46/30/28 27/28/26
f 46/30/28 47/207/30 28/31/29
f 47/32/30 48/3/3 26/2/2
f 2/36/31 5/63/31 13/34/31
f 5/63/31 7/46/31 6/45/31
f 7/46/31 8/43/31 6/45/31
f 6/45/31 9/64/31 10/58/31
f 9/64/31 11/61/31 10/58/31
f 11/61/31 12/56/31 10/58/31
f 10/58/31 13/34/31 5/63/31
f 13/34/31 15/50/31 14/35/31
f 15/50/31 16/54/31 14/35/31
f 14/35/31 1/65/31 2/36/31
f 1/65/31 3/37/31 2/36/31
f 3/37/31 4/40/31 2/36/31
f 5/63/31 6/45/31 10/58/31
f 3/37/31 1/65/31 34/38/12
f 4/40/31 3/37/31 33/39/13
f 4/40/31 35/41/15 36/42/4
f 8/43/31 38/47/19 37/44/1
f 7/46/31 39/49/21 38/47/19
f 7/46/31 5/63/31 40/48/6
f 15/50/31 13/34/31 42/51/9
f 15/50/31 41/52/22 43/53/24
f 16/54/31 43/53/24 44/55/10
f 12/56/31 46/60/28 45/57/7
f 12/56/31 11/61/31 47/59/30
f 11/61/31 9/64/31 48/62/3
f 2/36/31 36/42/4 40/48/6
f 9/64/31 6/45/31 37/44/1
f 10/58/31 45/57/7 42/51/9
f 14/35/31 44/55/10 34/38/12
f 67/94/32 54/68/32 61/86/32
f 67/71/32 68/208/32 50/79/32
f 69/95/32 58/93/32 49/74/32
f 69/87/32 70/209/32 62/82/32
f 76/96/33 78/210/33 77/97/33
f 79/99/34 81/211/34 82/100/34
f 65/102/35 85/212/35 84/103/35
f 86/105/36 88/213/36 87/106/36
f 73/108/32 74/214/32 72/109/32
f 186/111/37 188/215/37 187/112/37
f 189/114/37 191/216/37 192/115/37
f 91/117/33 95/217/33 96/118/33
f 89/120/35 93/218/35 94/121/35
f 99/123/32 98/219/32 97/124/32
f 102/126/35 106/220/35 107/127/35
f 104/129/33 108/221/33 105/130/33
f 181/132/34 183/222/34 184/133/34
f 180/135/37 178/223/37 177/136/37
f 111/138/32 110/224/32 109/139/32
f 205/141/34 207/225/34 208/142/34
f 201/144/37 203/226/37 204/145/37
f 115/147/35 119/227/35 120/148/35
f 113/150/33 117/228/33 118/151/33
f 123/153/32 122/229/32 121/154/32
f 126/156/33 130/230/33 131/157/33
f 128/159/35 132/231/35 129/160/35
f 195/162/34 193/232/34 194/163/34
f 197/165/34 199/233/34 200/166/34
f 135/168/32 134/234/32 133/169/32
f 142/171/33 146/235/33 147/172/33
f 153/174/37 155/236/37 156/175/37
f 143/177/35 148/237/35 145/178/35
f 150/180/38 151/238/38 152/181/38
f 160/183/32 138/189/32 137/184/32
f 162/186/32 140/190/32 139/187/32
f 160/183/32 161/188/32 139/187/32
f 162/186/32 159/185/32 137/184/32
f 157/191/36 176/239/36 175/192/36
f 172/194/34 174/240/34 173/195/34
f 168/197/35 170/241/35 169/198/35
f 163/200/33 165/242/33 166/201/33
