# Blender v3.0.1 OBJ File: 'props.blend'
# www.blender.org
mtllib Table01.mtl
o Table01_LOD0_Plane.012
v -0.333224 0.699773 0.529180
v 0.327429 0.699773 0.529180
v 0.333767 0.699773 0.618760
v 0.361021 0.699773 0.562773
v 0.361021 0.699773 -0.556978
v 0.361021 0.699773 0.562773
v 0.327429 0.699773 -0.523385
v -0.333224 0.699773 -0.523385
v 0.361021 0.611774 0.562773
v -0.366816 0.611774 0.562772
v 0.361021 0.611774 -0.556978
v -0.366816 0.611774 -0.556978
v 0.327429 0.611774 0.529180
v -0.333224 0.611774 0.529180
v 0.327429 0.611774 -0.523385
v -0.333224 0.611774 -0.523385
v 0.390053 0.699773 0.590900
v 0.390053 0.699773 -0.586160
v -0.396601 0.699773 -0.586160
v 0.390053 0.699773 -0.523174
v 0.327067 0.699773 0.527914
v 0.327067 0.699773 0.590900
v -0.396602 0.699773 0.590900
v -0.396602 0.699773 0.527914
v -0.333616 0.699773 0.590900
v -0.333616 0.699773 0.527914
v 0.390053 0.699773 0.527914
v 0.327067 0.699773 -0.586160
v -0.333616 0.699773 -0.586160
v -0.396601 0.699773 -0.523174
v 0.327067 0.001466 -0.586160
v 0.327067 0.001466 -0.523174
v 0.390053 0.001466 0.527914
v 0.327067 0.001466 0.527914
v -0.396601 0.001466 -0.523174
v -0.333616 0.001466 -0.523174
v 0.327067 0.001466 0.590900
v -0.396602 0.001466 0.590900
v -0.396602 0.001466 0.527914
v -0.333616 0.001466 0.590900
v -0.333616 0.001466 0.527914
v 0.390053 0.001466 0.590900
v 0.390053 0.001466 -0.523174
v 0.390053 0.001466 -0.586160
v -0.333616 0.001466 -0.586160
v -0.396601 0.001466 -0.586160
v 0.333767 0.726795 0.618760
v 0.417009 0.729768 0.535519
v 0.333767 0.729768 0.618760
v 0.365622 0.727933 0.612424
v 0.392628 0.728897 0.594379
v 0.410672 0.729542 0.567374
v 0.417009 0.727741 -0.529724
v 0.333767 0.729768 -0.612965
v 0.417009 0.729768 -0.529724
v 0.410673 0.728517 -0.561579
v 0.392628 0.729175 -0.588584
v 0.365623 0.729614 -0.606629
v -0.422804 0.727741 0.535519
v -0.339562 0.729768 0.618760
v -0.422804 0.729768 0.535519
v -0.416467 0.728517 0.567374
v -0.398423 0.729175 0.594379
v -0.371417 0.729614 0.612424
v -0.339562 0.726795 -0.612965
v -0.422804 0.729768 -0.529724
v -0.339562 0.729768 -0.612965
v -0.371417 0.727933 -0.606629
v -0.398423 0.728897 -0.588584
v -0.416467 0.729542 -0.561579
v 0.417009 0.701800 0.535519
v 0.333767 0.699773 0.618760
v 0.417009 0.699773 0.535519
v 0.410672 0.701024 0.567374
v 0.392628 0.700367 0.594379
v 0.365622 0.699927 0.612424
v 0.333767 0.702746 -0.612965
v 0.417009 0.699773 -0.529724
v 0.370116 0.699773 -0.544189
v 0.333767 0.699773 -0.612965
v 0.365623 0.701608 -0.606629
v 0.392628 0.700644 -0.588584
v 0.410673 0.699999 -0.561579
v -0.339562 0.702746 0.618760
v -0.422804 0.699773 0.535519
v -0.375911 0.699773 0.549984
v -0.339562 0.699773 0.618760
v -0.371417 0.701608 0.612424
v -0.398423 0.700644 0.594379
v -0.416467 0.699999 0.567374
v -0.422804 0.701800 -0.529724
v -0.339562 0.699773 -0.612965
v -0.422804 0.699773 -0.529724
v -0.416467 0.701024 -0.561579
v -0.398423 0.700367 -0.588584
v -0.371417 0.699927 -0.606629
v 0.417009 0.729768 0.535519
v 0.333767 0.729768 0.618760
v 0.333767 0.729768 -0.612965
v 0.417009 0.729768 -0.529724
v -0.339562 0.729768 0.618760
v -0.422804 0.729768 0.535519
v -0.422804 0.729768 -0.529724
v -0.339562 0.729768 -0.612965
v 0.365623 0.729614 -0.606629
v 0.392628 0.729175 -0.588584
v 0.410673 0.728517 -0.561579
v 0.410672 0.729542 0.567374
v 0.392628 0.728897 0.594379
v 0.365622 0.727933 0.612424
v -0.371417 0.729614 0.612424
v -0.398423 0.729175 0.594379
v -0.416467 0.728517 0.567374
v -0.416467 0.729542 -0.561579
v -0.398423 0.728897 -0.588584
v -0.371417 0.727933 -0.606629
v 0.361021 0.699773 -0.556978
v -0.366816 0.699773 -0.556978
v 0.327429 0.699773 -0.523385
v -0.333224 0.699773 -0.523385
v 0.361021 0.611774 -0.556978
v -0.366816 0.611774 -0.556978
v 0.327429 0.611774 -0.523385
v -0.333224 0.611774 -0.523385
v 0.390053 0.699773 -0.586160
v 0.390053 0.699773 0.590900
v 0.327429 0.699773 0.529180
v 0.327429 0.699773 -0.523385
v -0.333224 0.699773 -0.523385
v 0.327429 0.699773 -0.523385
v 0.327429 0.611774 0.529180
v 0.327429 0.611774 -0.523385
v 0.417009 0.699773 0.535519
v 0.417009 0.699773 -0.529724
v 0.370116 0.699773 -0.544189
v 0.333767 0.699773 -0.612965
v -0.422804 0.699773 0.535519
v -0.375911 0.699773 0.549984
v -0.339562 0.699773 0.618760
v -0.339562 0.699773 -0.612965
v -0.422804 0.699773 -0.529724
v -0.366816 0.611774 0.562772
v -0.366816 0.611774 -0.556978
v -0.333224 0.611774 0.529180
v -0.333224 0.611774 -0.523385
v -0.333224 0.699773 0.529180
v -0.333224 0.699773 -0.523385
v -0.333224 0.611774 0.529180
v -0.333224 0.611774 -0.523385
v -0.366816 0.699773 0.562772
v -0.366816 0.699773 -0.556978
v -0.366816 0.611774 0.562772
v -0.366816 0.611774 -0.556978
v -0.366816 0.699773 0.562772
v 0.361021 0.611774 0.562773
v -0.366816 0.611774 0.562772
v 0.327429 0.611774 0.529180
v -0.333224 0.611774 0.529180
v 0.361021 0.611774 0.562773
v 0.361021 0.611774 -0.556978
v -0.396601 0.699773 -0.586160
v 0.390053 0.699773 -0.523174
v 0.327067 0.699773 0.527914
v 0.327067 0.699773 0.590900
v -0.396602 0.699773 0.590900
v -0.396602 0.699773 0.527914
v -0.333616 0.699773 0.590900
v -0.333616 0.699773 0.527914
v 0.390053 0.699773 0.527914
v 0.327067 0.699773 -0.586160
v -0.333616 0.699773 -0.586160
v -0.396601 0.699773 -0.523174
v 0.327067 0.001466 -0.586160
v 0.327067 0.001466 -0.523174
v 0.390053 0.001466 0.527914
v 0.327067 0.001466 0.527914
v -0.396601 0.001466 -0.523174
v -0.333616 0.001466 -0.523174
v 0.327067 0.001466 0.590900
v -0.396602 0.001466 0.590900
v -0.396602 0.001466 0.527914
v -0.333616 0.001466 0.590900
v -0.333616 0.001466 0.527914
v 0.390053 0.001466 0.590900
v 0.390053 0.001466 -0.523174
v 0.390053 0.001466 -0.586160
v -0.333616 0.001466 -0.586160
v -0.396601 0.001466 -0.586160
vt 0.500373 0.043817
vt 0.496097 0.047948
vt 0.305099 0.047948
vt 0.263953 0.194578
vt 0.264037 0.254791
vt 0.262878 0.254791
vt 0.259095 0.197594
vt 0.259340 0.253228
vt 0.257108 0.253228
vt 0.256862 0.197594
vt 0.258760 0.244441
vt 0.258548 0.196563
vt 0.260470 0.196563
vt 0.006271 0.222915
vt 0.031654 0.225968
vt 0.006271 0.225968
vt 0.301555 0.047948
vt 0.495383 0.047948
vt 0.495383 0.054833
vt 0.491325 0.036932
vt 0.491325 0.043817
vt 0.349533 0.043817
vt 0.006271 0.225968
vt 0.031654 0.229020
vt 0.006271 0.229020
vt 0.356077 0.054833
vt 0.356077 0.047948
vt 0.484781 0.047948
vt 0.499722 0.036932
vt 0.297216 0.043817
vt 0.297216 0.036932
vt 0.006271 0.219862
vt 0.031654 0.222915
vt 0.006271 0.222915
vt 0.500373 0.043817
vt 0.300823 0.043817
vt 0.300823 0.036932
vt 0.484781 0.047948
vt 0.349533 0.043817
vt 0.491325 0.043817
vt 0.499722 0.043817
vt 0.301555 0.047948
vt 0.297216 0.043817
vt 0.305099 0.054833
vt 0.305099 0.047948
vt 0.496097 0.047948
vt 0.491325 0.043817
vt 0.356077 0.047948
vt 0.349533 0.043817
vt 0.068954 0.232073
vt 0.043570 0.229020
vt 0.068954 0.229020
vt 0.006271 0.222915
vt 0.031654 0.225968
vt 0.006271 0.225968
vt 0.037612 0.222915
vt 0.062996 0.225968
vt 0.037612 0.225968
vt 0.006271 0.229020
vt 0.031654 0.232073
vt 0.006271 0.232073
vt 0.006271 0.219862
vt 0.031654 0.222915
vt 0.006271 0.222915
vt 0.006271 0.225968
vt 0.031654 0.229020
vt 0.006271 0.229020
vt 0.037612 0.232073
vt 0.062996 0.229020
vt 0.062996 0.232073
vt 0.068954 0.225968
vt 0.043570 0.222915
vt 0.068954 0.222915
vt 0.300823 0.043817
vt 0.262794 0.194578
vt 0.262710 0.194578
vt 0.262794 0.254791
vt 0.261634 0.254791
vt 0.261550 0.194578
vt 0.016631 0.231830
vt 0.010022 0.226984
vt 0.015483 0.185667
vt 0.301555 0.054833
vt 0.349533 0.036932
vt 0.107808 0.187783
vt 0.107808 0.226984
vt 0.102348 0.229100
vt 0.484781 0.054833
vt 0.499722 0.043817
vt 0.037612 0.225968
vt 0.062996 0.229020
vt 0.037612 0.229020
vt 0.500373 0.036932
vt 0.356077 0.047948
vt 0.495383 0.047948
vt 0.496097 0.054833
vt 0.484781 0.047948
vt 0.043570 0.232073
vt 0.031654 0.222915
vt 0.062996 0.222915
vt 0.031654 0.229020
vt 0.031654 0.219862
vt 0.031654 0.225968
vt 0.037612 0.229020
vt 0.043570 0.225968
vt 0.260681 0.244441
vt 0.258679 0.246706
vt 0.258548 0.244441
vt 0.259173 0.260106
vt 0.259237 0.259583
vt 0.259340 0.260106
vt 0.075562 0.232904
vt 0.048853 0.236912
vt 0.045915 0.232904
vt 0.262742 0.192778
vt 0.262710 0.194576
vt 0.262670 0.259497
vt 0.262718 0.259139
vt 0.262794 0.259497
vt 0.260537 0.250360
vt 0.260592 0.249909
vt 0.260681 0.250360
vt 0.260681 0.248626
vt 0.260681 0.246706
vt 0.102348 0.229100
vt 0.107808 0.226984
vt 0.107305 0.228838
vt 0.015483 0.185667
vt 0.013098 0.184475
vt 0.010525 0.185929
vt 0.101199 0.182937
vt 0.103728 0.183306
vt 0.101199 0.182937
vt 0.107808 0.184356
vt 0.107808 0.185929
vt 0.107808 0.187783
vt 0.264028 0.256592
vt 0.262846 0.256592
vt 0.264001 0.259497
vt 0.262818 0.259497
vt 0.259291 0.260106
vt 0.257014 0.255860
vt 0.259328 0.255860
vt 0.261560 0.192778
vt 0.261586 0.189873
vt 0.262769 0.189873
vt 0.258590 0.190644
vt 0.260551 0.194298
vt 0.258559 0.194298
vt 0.256875 0.194962
vt 0.259189 0.194962
vt 0.256911 0.190717
vt 0.259269 0.190717
vt 0.262758 0.259497
vt 0.261602 0.256592
vt 0.262784 0.256592
vt 0.260639 0.250360
vt 0.258610 0.250360
vt 0.262830 0.189873
vt 0.263985 0.192778
vt 0.262803 0.192778
vt 0.356077 0.047948
vt 0.484781 0.054833
vt 0.356077 0.054833
vt 0.491325 0.036932
vt 0.349533 0.043817
vt 0.349533 0.036932
vt 0.484781 0.047948
vt 0.491325 0.043817
vt 0.068954 0.229020
vt 0.043570 0.225968
vt 0.068954 0.225968
vt 0.068954 0.222915
vt 0.043570 0.219862
vt 0.068954 0.219862
vt 0.006271 0.229020
vt 0.031654 0.232073
vt 0.006271 0.232073
vt 0.037612 0.219862
vt 0.062996 0.222915
vt 0.037612 0.222915
vt 0.062996 0.225968
vt 0.031654 0.219862
vt 0.031654 0.225968
vt 0.031654 0.222915
vt 0.043570 0.229020
vt 0.043570 0.222915
vt 0.031654 0.229020
vt 0.062996 0.219862
vt 0.264037 0.194578
vt 0.259340 0.197594
vt 0.256862 0.253228
vt 0.262794 0.254791
vt 0.262794 0.194578
vt 0.261550 0.254791
vt 0.010022 0.187783
vt 0.101199 0.231830
vt 0.101199 0.182937
vt 0.016631 0.182937
vt 0.260681 0.196563
vt 0.045915 0.181624
vt 0.075562 0.181624
vt 0.046139 0.180091
vt 0.047729 0.177922
vt 0.046776 0.178791
vt 0.048853 0.177617
vt 0.072623 0.177617
vt 0.073748 0.177922
vt 0.074701 0.178791
vt 0.075338 0.180091
vt 0.075338 0.234438
vt 0.072623 0.236912
vt 0.074701 0.235738
vt 0.073748 0.236607
vt 0.047729 0.236607
vt 0.046776 0.235738
vt 0.046139 0.234438
vt 0.107808 0.226984
vt 0.105586 0.230719
vt 0.104789 0.230320
vt 0.103297 0.229574
vt 0.013098 0.184475
vt 0.012245 0.184048
vt 0.014102 0.182937
vt 0.016631 0.182937
vt 0.256934 0.260106
vt 0.260619 0.190644
vt 0.261575 0.259497
vt 0.264013 0.189873
vn 0.0000 -1.0000 -0.0000
vn 0.9952 0.0000 0.0980
vn 0.9408 -0.3256 -0.0948
vn 0.9952 0.0000 -0.0980
vn -0.0980 0.0000 -0.9952
vn 0.0979 0.0000 -0.9952
vn 0.0980 0.0000 -0.9952
vn -0.0972 -0.1852 -0.9779
vn 0.0980 0.0000 0.9952
vn -0.0979 0.0000 0.9952
vn -0.0980 0.0000 0.9952
vn 0.0000 0.0000 -1.0000
vn -1.0000 0.0000 -0.0000
vn -0.0000 0.0000 1.0000
vn 1.0000 0.0000 0.0000
vn 1.0000 -0.0000 -0.0059
vn 1.0000 -0.0005 -0.0004
vn 1.0000 0.0000 -0.0062
vn -1.0000 0.0000 0.0054
vn -1.0000 0.0005 0.0003
vn -1.0000 0.0005 0.0000
vn 0.9952 0.0000 0.0978
vn -0.9952 0.0000 0.0980
vn -0.9952 0.0000 -0.0978
vn -0.9952 0.0000 -0.0980
vn -0.9408 -0.3256 0.0948
vn 1.0000 -0.0006 0.0000
vn -1.0000 0.0000 0.0058
vn 0.0972 -0.1852 0.9779
vn 0.3812 0.0000 0.9245
vn 0.0962 0.0000 0.9954
vn 0.9243 0.0000 -0.3816
vn 0.9953 0.0000 -0.0968
vn -0.0098 0.9999 0.0098
vn 0.0093 0.9998 0.0169
vn 0.0018 1.0000 0.0018
vn -0.9243 0.0000 0.3816
vn -0.9953 0.0000 0.0968
vn -0.3812 0.0000 -0.9245
vn -0.0962 0.0000 -0.9954
vn 0.7319 -0.6076 0.3084
vn 0.9776 -0.1853 0.0999
vn 0.5398 -0.6510 0.5336
vn 0.2892 -0.6629 0.6906
vn 0.0071 -0.9998 -0.0211
vn 0.1091 -0.2746 -0.9553
vn 0.3059 -0.6405 -0.7044
vn -0.0071 -0.9998 0.0211
vn -0.1091 -0.2746 0.9553
vn -0.3059 -0.6405 0.7044
vn -0.7319 -0.6076 -0.3084
vn -0.9776 -0.1853 -0.0999
vn -0.5398 -0.6510 -0.5336
vn -0.2892 -0.6629 -0.6906
vn 0.6865 -0.6655 -0.2929
vn 0.5182 -0.6635 -0.5397
vn 0.7056 0.0000 -0.7086
vn 0.3816 0.0000 -0.9243
vn -0.6865 -0.6655 0.2929
vn -0.5182 -0.6635 0.5397
vn -0.7056 0.0000 0.7086
vn -0.3816 0.0000 0.9243
vn -0.7093 0.0000 -0.7049
vn -0.9245 0.0000 -0.3811
vn 0.7093 0.0000 0.7049
vn 0.9245 0.0000 0.3811
vn 0.0031 0.0003 1.0000
vn 0.0002 0.0000 1.0000
vn 0.0033 0.0003 1.0000
vn -0.0032 0.0000 1.0000
vn -0.0002 0.0003 1.0000
vn -0.0034 0.0000 1.0000
vn 0.0000 0.0003 1.0000
vn 0.0110 0.9999 -0.0077
vn -0.0010 1.0000 -0.0034
vn 0.0734 0.9961 -0.0492
vn 0.0109 0.9999 -0.0074
vn -0.0000 0.9997 0.0243
vn 0.0012 1.0000 -0.0012
vn -0.0098 0.9998 -0.0166
vn -0.0949 0.9764 -0.1942
vn -0.0260 0.9990 -0.0358
vn 0.0357 0.9994 0.0000
vn -0.0419 0.9984 0.0385
vn -0.0033 1.0000 0.0000
vn 0.0000 0.9997 -0.0243
vn -0.0000 0.9997 -0.0244
vn 0.0949 0.9764 0.1942
vn 0.0385 0.9976 0.0574
vn 0.0125 0.9998 0.0143
usemtl M_Interior
s 1
f 143/1/1 145/2/1 144/3/1
f 71/4/2 78/5/3 53/6/4
f 65/7/5 54/8/6 77/9/7
f 77/9/7 92/10/8 65/7/5
f 47/11/9 60/12/10 84/13/11
f 171/14/12 188/15/12 161/16/12
f 132/17/13 131/18/13 127/19/13
f 154/20/14 156/21/14 155/22/14
f 165/23/14 182/24/14 167/25/14
f 2/26/12 157/27/12 158/28/12
f 6/29/15 160/30/15 5/31/15
f 168/32/12 181/33/12 166/34/12
f 153/35/13 152/36/13 150/37/13
f 14/38/1 9/39/1 10/40/1
f 9/41/1 15/42/1 11/43/1
f 146/44/15 148/45/15 149/46/15
f 11/47/1 16/48/1 12/49/1
f 21/50/13 37/51/13 22/52/13
f 24/53/13 38/54/13 23/55/13
f 20/56/15 44/57/15 18/58/15
f 25/59/15 41/60/15 26/61/15
f 8/62/16 45/63/17 29/64/18
f 19/65/13 35/66/13 30/67/13
f 7/68/19 31/69/20 32/70/21
f 17/71/15 33/72/15 27/73/15
f 143/1/1 144/3/1 142/74/1
f 53/6/4 48/75/22 71/4/2
f 59/76/23 66/77/24 91/78/25
f 91/78/25 85/79/26 59/76/23
f 133/80/1 3/81/1 138/82/1
f 132/17/13 127/19/13 128/83/13
f 154/20/14 155/22/14 4/84/14
f 140/85/1 136/86/1 135/87/1
f 2/26/12 158/28/12 1/88/12
f 6/29/15 159/89/15 160/30/15
f 125/90/12 173/91/12 170/92/12
f 153/35/13 150/37/13 151/93/13
f 14/38/1 13/94/1 9/39/1
f 9/41/1 13/95/1 15/42/1
f 146/44/15 149/46/15 147/96/15
f 11/47/1 15/97/1 16/48/1
f 21/50/13 34/98/13 37/51/13
f 24/53/13 39/99/13 38/54/13
f 20/56/15 43/100/15 44/57/15
f 25/59/15 40/101/15 41/60/15
f 8/62/16 36/102/27 45/63/17
f 19/65/13 46/103/13 35/66/13
f 7/68/19 28/104/28 31/69/20
f 17/71/15 42/105/15 33/72/15
f 84/13/11 72/106/29 47/11/9
f 47/11/9 50/107/30 49/108/31
f 53/109/4 56/110/32 55/111/33
f 102/112/34 98/113/35 97/114/36
f 59/76/23 62/115/37 61/116/38
f 65/117/5 68/118/39 67/119/40
f 71/120/2 74/121/41 73/122/42
f 74/121/41 75/123/43 73/122/42
f 75/123/43 76/124/44 73/122/42
f 76/124/44 72/106/29 73/122/42
f 79/125/45 80/126/46 81/127/47
f 86/128/48 87/129/49 88/130/50
f 91/131/25 94/132/51 93/133/52
f 94/132/51 95/134/53 93/133/52
f 95/134/53 96/135/54 93/133/52
f 96/135/54 92/136/8 93/133/52
f 53/6/4 83/137/55 56/138/32
f 56/138/32 82/139/56 57/140/57
f 57/141/57 81/142/47 58/143/58
f 58/143/58 77/9/7 54/8/6
f 59/76/23 90/144/59 62/115/37
f 62/115/37 89/145/60 63/146/61
f 63/147/61 88/148/50 64/149/62
f 64/149/62 84/13/11 60/12/10
f 65/7/5 96/150/54 68/151/39
f 68/151/39 95/152/53 69/153/63
f 69/154/63 94/155/51 70/156/64
f 70/156/64 91/78/25 66/77/24
f 47/11/9 76/124/44 50/107/30
f 50/107/30 75/157/43 51/158/65
f 51/159/65 74/160/41 52/161/66
f 52/161/66 71/4/2 48/75/22
f 124/162/14 119/163/14 120/164/14
f 117/165/12 122/166/12 118/167/12
f 124/162/14 123/168/14 119/163/14
f 117/165/12 121/169/12 122/166/12
f 164/170/14 184/171/14 126/172/14
f 169/173/12 176/174/12 163/175/12
f 172/176/67 178/177/68 129/178/69
f 130/179/70 185/180/71 162/181/72
f 125/90/12 186/182/12 173/91/12
f 168/32/12 183/183/12 181/33/12
f 165/23/14 180/184/14 182/24/14
f 171/14/12 187/185/12 188/15/12
f 164/170/14 179/186/14 184/171/14
f 169/173/12 175/187/12 176/174/12
f 172/176/67 177/188/14 178/177/68
f 130/179/70 174/189/73 185/180/71
f 71/4/2 73/190/42 78/5/3
f 65/7/5 67/191/40 54/8/6
f 77/9/7 80/192/46 92/10/8
f 47/11/9 49/108/31 60/12/10
f 53/6/4 55/193/33 48/75/22
f 59/76/23 61/194/38 66/77/24
f 91/78/25 93/195/52 85/79/26
f 3/81/1 139/196/1 138/82/1
f 138/82/1 135/87/1 133/80/1
f 135/87/1 134/197/1 133/80/1
f 135/87/1 138/82/1 141/198/1
f 138/82/1 137/199/1 141/198/1
f 141/198/1 140/85/1 135/87/1
f 84/13/11 87/200/49 72/106/29
f 97/114/36 100/201/74 103/202/75
f 100/201/74 107/203/76 105/204/77
f 107/203/76 106/205/78 105/204/77
f 105/204/77 99/206/79 100/201/74
f 99/206/79 104/207/80 100/201/74
f 104/207/80 116/208/81 115/209/82
f 115/209/82 114/210/83 103/202/75
f 103/202/75 102/112/34 97/114/36
f 102/112/34 113/211/84 101/212/85
f 98/113/35 102/112/34 101/212/85
f 113/211/84 112/213/86 111/214/87
f 111/214/87 101/212/85 113/211/84
f 98/113/35 110/215/88 109/216/89
f 109/216/89 108/217/90 98/113/35
f 108/217/90 97/114/36 98/113/35
f 103/202/75 104/207/80 115/209/82
f 100/201/74 104/207/80 103/202/75
f 80/126/46 77/218/7 81/127/47
f 81/127/47 82/219/56 79/125/45
f 82/219/56 83/220/55 79/125/45
f 83/220/55 78/221/3 79/125/45
f 87/129/49 84/222/11 88/130/50
f 88/130/50 89/223/60 86/128/48
f 89/223/60 90/224/59 86/128/48
f 90/224/59 85/225/26 86/128/48
f 53/6/4 78/5/3 83/137/55
f 56/138/32 83/137/55 82/139/56
f 57/141/57 82/226/56 81/142/47
f 58/143/58 81/142/47 77/9/7
f 59/76/23 85/79/26 90/144/59
f 62/115/37 90/144/59 89/145/60
f 63/147/61 89/227/60 88/148/50
f 64/149/62 88/148/50 84/13/11
f 65/7/5 92/10/8 96/150/54
f 68/151/39 96/150/54 95/152/53
f 69/154/63 95/228/53 94/155/51
f 70/156/64 94/155/51 91/78/25
f 47/11/9 72/106/29 76/124/44
f 50/107/30 76/124/44 75/157/43
f 51/159/65 75/229/43 74/160/41
f 52/161/66 74/160/41 71/4/2
