# Blender v3.0.1 OBJ File: 'props.blend'
# www.blender.org
mtllib Table03.mtl
o Table03_LOD0_Plane.013
v 0.423903 0.684650 0.420790
v 0.392740 0.684650 0.389627
v 0.392740 0.684650 0.389627
v -0.392740 0.684650 0.389627
v -0.443591 0.752448 -0.448449
v -0.443591 0.752448 -0.378449
v -0.373591 0.752448 -0.448449
v -0.373591 0.752448 -0.378449
v -0.423903 0.684650 0.420790
v 0.423903 0.684650 -0.427016
v 0.423903 0.684650 -0.427016
v 0.423903 0.684650 0.420790
v -0.423903 0.684650 0.420790
v -0.392740 0.752448 -0.395853
v 0.423903 0.684650 -0.427016
v -0.423903 0.752448 0.420790
v -0.443591 0.002448 -0.448449
v -0.443591 0.002448 -0.392300
v -0.387442 0.002448 -0.448449
v -0.387442 0.002448 -0.392300
v 0.372854 0.752448 -0.448449
v 0.372854 0.752448 -0.378449
v 0.442854 0.752448 -0.448449
v 0.442854 0.752448 -0.378449
v 0.386704 0.002448 -0.448449
v 0.442854 0.002448 -0.392300
v 0.386704 0.002448 -0.392300
v 0.442854 0.002448 -0.448449
v -0.423903 0.684650 -0.427016
v -0.423903 0.752448 -0.427016
v -0.443591 0.002448 0.384628
v -0.443591 0.002448 0.440778
v -0.387442 0.002448 0.384628
v -0.387442 0.002448 0.440778
v 0.372853 0.752448 0.370778
v 0.372853 0.752448 0.440778
v 0.442853 0.752448 0.370778
v 0.442853 0.752448 0.440778
v 0.386704 0.002448 0.384628
v 0.386704 0.002448 0.440778
v 0.442853 0.002448 0.384629
v 0.442853 0.002448 0.440778
v -0.373591 0.289301 -0.378449
v 0.372854 0.289301 -0.378449
v -0.423903 0.684650 0.420790
v 0.372853 0.289301 0.370778
v -0.443591 0.289301 -0.378449
v -0.373591 0.289301 -0.448449
v 0.372854 0.289301 -0.448449
v 0.442854 0.289301 -0.378449
v -0.423903 0.752448 0.420790
v 0.372853 0.289301 0.440778
v 0.442853 0.289301 0.370778
v -0.500000 0.777656 0.453374
v -0.456487 0.777656 0.496887
v -0.494170 0.777656 0.475130
v -0.478244 0.777656 0.491057
v 0.500000 0.777656 -0.459600
v 0.456487 0.777656 -0.503113
v 0.494170 0.777656 -0.481356
v 0.478244 0.777656 -0.497283
v -0.456487 0.752448 0.496887
v -0.500000 0.752448 0.453374
v -0.478244 0.752448 0.491057
v -0.494170 0.752448 0.475130
v -0.456487 0.777656 -0.503113
v -0.500000 0.777656 -0.459600
v -0.478243 0.777656 -0.497283
v -0.494170 0.777656 -0.481357
v -0.500000 0.752448 -0.459600
v -0.456487 0.752448 -0.503113
v -0.494170 0.752448 -0.481357
v -0.478243 0.752448 -0.497283
v 0.456487 0.777656 0.496887
v 0.500000 0.777656 0.453374
v 0.478243 0.777656 0.491057
v 0.494170 0.777656 0.475130
v 0.500000 0.752448 0.453374
v 0.456487 0.752448 0.496887
v 0.494170 0.752448 0.475130
v 0.478243 0.752448 0.491057
v 0.456487 0.752448 -0.503113
v 0.500000 0.752448 -0.459600
v 0.478244 0.752448 -0.497283
v 0.494170 0.752448 -0.481356
v -0.500000 0.777656 0.453374
v -0.456487 0.777656 0.496887
v -0.494170 0.777656 0.475130
v -0.478244 0.777656 0.491057
v 0.500000 0.777656 -0.459600
v 0.456487 0.777656 -0.503113
v 0.494170 0.777656 -0.481356
v 0.478244 0.777656 -0.497283
v -0.456487 0.777656 -0.503113
v -0.500000 0.777656 -0.459600
v -0.478243 0.777656 -0.497283
v -0.494170 0.777656 -0.481357
v 0.456487 0.777656 0.496887
v 0.500000 0.777656 0.453374
v 0.478243 0.777656 0.491057
v 0.494170 0.777656 0.475130
v -0.456487 0.752448 0.496887
v -0.500000 0.752448 0.453374
v -0.478244 0.752448 0.491057
v -0.494170 0.752448 0.475130
v -0.500000 0.752448 -0.459600
v -0.456487 0.752448 -0.503113
v -0.494170 0.752448 -0.481357
v -0.478243 0.752448 -0.497283
v 0.500000 0.752448 0.453374
v 0.456487 0.752448 0.496887
v 0.494170 0.752448 0.475130
v 0.478243 0.752448 0.491057
v 0.456487 0.752448 -0.503113
v 0.500000 0.752448 -0.459600
v 0.478244 0.752448 -0.497283
v 0.494170 0.752448 -0.481356
v -0.443591 0.752448 0.370778
v -0.443591 0.752448 0.440778
v -0.443591 0.002448 0.384628
v -0.443591 0.002448 0.440778
v -0.443591 0.289301 0.370778
v -0.373591 0.752448 0.370778
v -0.373591 0.752448 0.440778
v -0.387442 0.002448 0.384628
v -0.387442 0.002448 0.440778
v -0.373591 0.289301 0.370778
v -0.373591 0.289301 0.440778
v -0.392740 0.684650 0.389627
v -0.392740 0.752448 0.389627
v -0.392740 0.752448 -0.395853
v -0.392740 0.684650 -0.395853
v -0.423903 0.684650 0.420790
v -0.392740 0.684650 0.389627
v -0.423903 0.684650 -0.427016
v -0.392740 0.684650 -0.395853
v 0.423903 0.684650 -0.427016
v -0.423903 0.752448 -0.427016
v 0.423903 0.752448 -0.427016
v -0.423903 0.684650 -0.427016
v -0.423903 0.684650 -0.427016
v -0.392740 0.684650 -0.395853
v 0.392740 0.684650 -0.395853
v 0.392740 0.752448 -0.395853
v -0.392740 0.684650 -0.395853
v 0.392740 0.684650 -0.395853
v 0.423903 0.752448 0.420790
v 0.423903 0.752448 -0.427016
v 0.423903 0.684650 0.420790
v 0.392740 0.684650 0.389627
v 0.392740 0.684650 -0.395853
v 0.392740 0.752448 0.389627
v 0.392740 0.752448 -0.395853
v 0.392740 0.684650 -0.395853
v 0.423903 0.684650 0.420790
v 0.423903 0.752448 0.420790
v -0.392740 0.684650 0.389627
v 0.392740 0.684650 0.389627
v -0.392740 0.752448 0.389627
v 0.392740 0.752448 0.389627
v -0.443591 0.752448 -0.448449
v -0.443591 0.752448 -0.378449
v -0.373591 0.752448 -0.448449
v -0.373591 0.752448 -0.378449
v -0.443591 0.002448 -0.448449
v -0.443591 0.002448 -0.392300
v -0.387442 0.002448 -0.448449
v -0.387442 0.002448 -0.392300
v 0.372854 0.752448 -0.448449
v 0.372854 0.752448 -0.378449
v 0.442854 0.752448 -0.448449
v 0.442854 0.752448 -0.378449
v 0.386704 0.002448 -0.448449
v 0.442854 0.002448 -0.392300
v 0.386704 0.002448 -0.392300
v 0.442854 0.002448 -0.448449
v -0.443591 0.752448 0.440778
v -0.373591 0.752448 0.440778
v -0.443591 0.002448 0.440778
v -0.387442 0.002448 0.440778
v 0.372853 0.752448 0.370778
v 0.372853 0.752448 0.440778
v 0.442853 0.752448 0.370778
v 0.442853 0.752448 0.440778
v 0.386704 0.002448 0.384628
v 0.386704 0.002448 0.440778
v 0.442853 0.002448 0.384629
v 0.442853 0.002448 0.440778
v -0.373591 0.289301 -0.378449
v 0.372854 0.289301 -0.378449
v 0.372853 0.289301 0.370778
v -0.443591 0.289301 -0.378449
v -0.373591 0.289301 -0.448449
v 0.372854 0.289301 -0.448449
v 0.442854 0.289301 -0.378449
v -0.373591 0.289301 0.440778
v 0.372853 0.289301 0.440778
v 0.442853 0.289301 0.370778
v -0.443591 0.752448 0.370778
v -0.373591 0.752448 0.370778
v -0.443591 0.002448 0.384628
v -0.387442 0.002448 0.384628
v -0.373591 0.289301 0.370778
v -0.443591 0.289301 0.370778
vt 0.354424 0.067957
vt 0.483431 0.070206
vt 0.354424 0.070206
vt 0.483431 0.067957
vt 0.354424 0.065709
vt 0.483431 0.065709
vt 0.079532 0.203539
vt 0.102997 0.203539
vt 0.102997 0.209265
vt 0.053534 0.231192
vt 0.096087 0.229256
vt 0.094151 0.186703
vt 0.483431 0.065709
vt 0.354424 0.063460
vt 0.483431 0.063460
vt 0.425498 0.089075
vt 0.415486 0.001452
vt 0.425498 0.001452
vt 0.450624 0.001452
vt 0.460636 0.089075
vt 0.450624 0.089075
vt 0.460636 0.001452
vt 0.465738 0.085854
vt 0.460636 0.089075
vt 0.400372 0.004673
vt 0.410384 0.085854
vt 0.400372 0.085854
vt 0.415486 0.089075
vt 0.410384 0.004673
vt 0.415486 0.001452
vt 0.385258 0.001452
vt 0.390360 0.085854
vt 0.385258 0.089075
vt 0.475750 0.085854
vt 0.465738 0.004673
vt 0.475750 0.004673
vt 0.400372 0.085854
vt 0.390360 0.004673
vt 0.400372 0.004673
vt 0.435510 0.001452
vt 0.425498 0.089075
vt 0.425498 0.001452
vt 0.132903 -0.000192
vt 0.132903 -0.000192
vt 0.132903 -0.000192
vt 0.440612 0.085854
vt 0.450624 0.004673
vt 0.450624 0.085854
vt 0.440612 0.004673
vt 0.435510 0.089075
vt 0.435510 0.001452
vt 0.080140 0.207590
vt 0.074414 0.201864
vt 0.080140 0.201864
vt 0.102997 0.203539
vt 0.102997 0.209265
vt 0.079532 0.209265
vt 0.102997 0.214991
vt 0.102997 0.220717
vt 0.079532 0.220717
vt 0.079532 0.203539
vt 0.102997 0.209265
vt 0.079532 0.209265
vt 0.079532 0.214991
vt 0.102997 0.214991
vt 0.102997 0.220717
vt 0.080140 0.207590
vt 0.074414 0.201864
vt 0.080140 0.201864
vt 0.080140 0.207590
vt 0.074414 0.201864
vt 0.080140 0.201864
vt 0.079532 0.214991
vt 0.102997 0.220717
vt 0.079532 0.220717
vt 0.375246 0.001452
vt 0.385258 0.089075
vt 0.375246 0.089075
vt 0.079532 0.197813
vt 0.102997 0.203539
vt 0.079532 0.203539
vt 0.079532 0.209265
vt 0.102997 0.209265
vt 0.102997 0.214991
vt 0.080140 0.207590
vt 0.074414 0.201864
vt 0.080140 0.201864
vt 0.484130 0.065709
vt 0.477981 0.063460
vt 0.484130 0.063460
vt 0.477981 0.067957
vt 0.481055 0.070206
vt 0.477981 0.070206
vt 0.465510 0.067957
vt 0.468585 0.070206
vt 0.465510 0.070206
vt 0.483431 0.070206
vt 0.486505 0.072454
vt 0.483431 0.072454
vt 0.486505 0.070206
vt 0.489580 0.072454
vt 0.489580 0.067957
vt 0.489580 0.065709
vt 0.468585 0.072454
vt 0.462436 0.070206
vt 0.468585 0.070206
vt 0.489580 0.070206
vt 0.486505 0.067957
vt 0.489580 0.067957
vt 0.486505 0.070206
vt 0.483431 0.067957
vt 0.486505 0.065709
vt 0.486505 0.063460
vt 0.489580 0.065709
vt 0.462436 0.065709
vt 0.468585 0.067957
vt 0.462436 0.067957
vt 0.354424 0.070206
vt 0.354424 0.072454
vt 0.095719 0.188974
vt 0.093815 0.230824
vt 0.051966 0.228920
vt 0.354424 0.067957
vt 0.041646 0.209265
vt 0.041646 0.203539
vt 0.053534 0.186703
vt 0.051598 0.188638
vt 0.052566 0.186962
vt 0.051857 0.187670
vt 0.051598 0.229256
vt 0.051857 0.230224
vt 0.052566 0.230932
vt 0.094151 0.231192
vt 0.095119 0.230932
vt 0.095827 0.230224
vt 0.096087 0.188638
vt 0.095827 0.187670
vt 0.095119 0.186962
vt 0.354424 0.065709
vt 0.415486 0.089075
vt 0.460636 0.001452
vt 0.465738 0.004673
vt 0.410384 0.004673
vt 0.410384 0.085854
vt 0.390360 0.004673
vt 0.465738 0.085854
vt 0.390360 0.085854
vt 0.435510 0.089075
vt 0.132903 -0.000192
vt 0.440612 0.004673
vt 0.440612 0.085854
vt 0.074414 0.207590
vt 0.041646 0.209265
vt 0.041646 0.203539
vt 0.041646 0.220717
vt 0.041646 0.214991
vt 0.079532 0.214991
vt 0.041646 0.209265
vt 0.041646 0.203539
vt 0.102997 0.203539
vt 0.041646 0.220717
vt 0.041646 0.214991
vt 0.074414 0.207590
vt 0.074414 0.207590
vt 0.041646 0.220717
vt 0.041646 0.214991
vt 0.102997 0.214991
vt 0.385258 0.001452
vt 0.041646 0.203539
vt 0.041646 0.197813
vt 0.102997 0.197813
vt 0.041646 0.214991
vt 0.041646 0.209265
vt 0.074414 0.207590
vt 0.477981 0.065709
vt 0.481055 0.067957
vt 0.468585 0.067957
vt 0.489580 0.070206
vt 0.462436 0.072454
vt 0.489580 0.063460
vt 0.468585 0.065709
vt 0.051966 0.188974
vt 0.053869 0.187071
vt 0.052221 0.188022
vt 0.052918 0.187326
vt 0.093815 0.187071
vt 0.094767 0.187326
vt 0.095464 0.188022
vt 0.095719 0.228920
vt 0.095464 0.229872
vt 0.094767 0.230569
vt 0.053869 0.230824
vt 0.052918 0.230569
vt 0.052221 0.229872
vt 0.079532 0.197813
vt 0.102997 0.197813
vt 0.102997 0.203539
vt 0.079532 0.209265
vt 0.102997 0.214991
vt 0.079532 0.214991
vt 0.102997 0.197813
vt 0.102997 0.203539
vt 0.079532 0.203539
vt 0.102997 0.209265
vt 0.102997 0.214991
vt 0.079532 0.214991
vt 0.102997 0.197813
vt 0.102997 0.203539
vt 0.079532 0.203539
vt 0.102997 0.209265
vt 0.102997 0.214991
vt 0.079532 0.214991
vt 0.102997 0.203539
vt 0.102997 0.209265
vt 0.079532 0.209265
vt 0.102997 0.214991
vt 0.102997 0.220717
vt 0.079532 0.220717
vt 0.041646 0.203539
vt 0.041646 0.197813
vt 0.041646 0.214991
vt 0.041646 0.209265
vt 0.102997 0.209265
vt 0.041646 0.203539
vt 0.041646 0.197813
vt 0.041646 0.214991
vt 0.041646 0.209265
vt 0.079532 0.209265
vt 0.041646 0.203539
vt 0.041646 0.197813
vt 0.079532 0.197813
vt 0.041646 0.214991
vt 0.041646 0.209265
vt 0.041646 0.209265
vt 0.041646 0.203539
vt 0.079532 0.203539
vt 0.041646 0.220717
vt 0.041646 0.214991
vn -0.9914 0.0000 -0.1305
vn -0.9914 0.0000 0.1305
vn 0.9914 0.0000 0.1305
vn 0.9914 0.0000 -0.1305
vn -1.0000 0.0000 0.0000
vn 0.0000 -1.0000 0.0000
vn 0.1305 0.0000 -0.9914
vn -0.1305 0.0000 -0.9914
vn 1.0000 0.0000 0.0000
vn 0.0000 0.0000 -1.0000
vn -0.0000 0.0000 1.0000
vn -0.7071 0.7071 0.0000
vn 0.7071 0.7071 -0.0000
vn 0.6898 -0.7240 -0.0000
vn -0.7177 -0.6963 0.0000
vn -0.7071 -0.7071 0.0000
vn 0.7002 -0.7140 -0.0000
vn 0.9997 -0.0241 -0.0000
vn -0.9997 -0.0241 0.0000
vn -0.7002 -0.7140 0.0000
vn -0.9997 -0.0237 0.0000
vn 0.7177 -0.6963 0.0000
vn 0.7071 -0.7071 0.0000
vn -0.6898 -0.7240 0.0000
vn 0.9988 -0.0482 -0.0000
vn 0.9997 -0.0237 -0.0000
vn 0.0000 -0.0241 -0.9997
vn 0.0000 -0.7140 -0.7002
vn 0.0000 -0.0237 -0.9997
vn 0.0000 -0.6963 0.7177
vn 0.0000 -0.7071 0.7071
vn 0.0000 -0.7240 -0.6898
vn -0.5000 0.0000 -0.8660
vn -0.8660 0.0000 -0.5000
vn 0.1305 0.0000 0.9914
vn 0.5000 0.0000 0.8660
vn 0.8660 0.0000 0.5000
vn -0.1305 0.0000 0.9914
vn -0.5000 0.0000 0.8660
vn -0.8660 0.0000 0.5000
vn 0.5000 0.0000 -0.8660
vn 0.8660 0.0000 -0.5000
vn 0.0000 1.0000 0.0000
vn -0.0000 -0.0241 0.9997
vn -0.0000 -0.0482 0.9988
vn -0.0000 -0.0237 0.9997
vn 0.0000 -0.0482 -0.9988
vn -0.9988 -0.0482 -0.0000
usemtl M_Interior
s 1
f 70/1/1 54/2/2 67/3/1
f 78/4/3 58/5/4 75/6/3
f 122/7/5 120/8/5 121/9/5
f 103/10/6 107/11/6 115/12/6
f 82/13/7 66/14/8 59/15/7
f 147/16/9 15/17/9 148/18/9
f 139/19/10 140/20/10 138/21/10
f 10/22/6 142/23/6 141/24/6
f 153/25/5 2/26/5 152/27/5
f 149/28/6 151/29/6 11/30/6
f 135/31/6 134/32/6 133/33/6
f 14/34/11 146/35/11 144/36/11
f 130/37/9 132/38/9 131/39/9
f 13/40/11 156/41/11 16/42/11
f 6/43/12 7/44/13 5/45/12
f 3/46/10 159/47/10 160/48/10
f 157/49/6 1/50/6 9/51/6
f 19/52/14 18/53/15 17/54/16
f 17/55/16 18/56/15 47/57/5
f 20/58/17 19/59/14 48/60/18
f 49/61/19 27/62/20 44/63/21
f 50/64/9 26/65/22 28/66/23
f 28/67/23 27/68/20 25/69/24
f 33/70/6 32/71/6 31/72/6
f 128/73/18 125/74/25 127/75/26
f 30/76/5 45/77/5 51/78/5
f 53/79/27 39/80/28 46/81/29
f 52/82/11 40/83/30 42/84/31
f 41/85/32 40/86/30 39/87/28
f 71/88/8 68/89/33 66/90/8
f 73/91/33 69/92/34 68/93/33
f 72/94/34 67/95/1 69/96/34
f 79/97/35 76/98/36 74/99/35
f 81/100/36 77/101/37 76/98/36
f 80/102/37 75/6/3 77/103/37
f 55/104/38 64/105/39 62/106/38
f 57/107/39 65/108/40 64/109/39
f 56/110/40 63/111/2 65/108/40
f 59/15/7 84/112/41 82/13/7
f 61/113/41 85/114/42 84/112/41
f 60/115/42 83/116/4 85/117/42
f 62/118/38 74/99/35 55/119/38
f 91/120/43 95/121/43 87/122/43
f 70/1/1 63/111/2 54/2/2
f 78/4/3 83/123/4 58/5/4
f 121/9/5 119/124/5 122/7/5
f 119/124/5 118/125/5 122/7/5
f 115/12/6 110/126/6 111/127/6
f 110/126/6 112/128/6 111/127/6
f 112/128/6 113/129/6 111/127/6
f 111/127/6 102/130/6 103/10/6
f 102/130/6 104/131/6 103/10/6
f 104/131/6 105/132/6 103/10/6
f 103/10/6 106/133/6 107/11/6
f 106/133/6 108/134/6 107/11/6
f 108/134/6 109/135/6 107/11/6
f 107/11/6 114/136/6 115/12/6
f 114/136/6 116/137/6 115/12/6
f 116/137/6 117/138/6 115/12/6
f 115/12/6 111/127/6 103/10/6
f 82/13/7 71/139/8 66/14/8
f 147/16/9 12/140/9 15/17/9
f 139/19/10 137/141/10 140/20/10
f 10/22/6 143/142/6 142/23/6
f 153/25/5 154/143/5 2/26/5
f 149/28/6 150/144/6 151/29/6
f 135/31/6 136/145/6 134/32/6
f 14/34/11 145/146/11 146/35/11
f 130/37/9 129/147/9 132/38/9
f 13/40/11 155/148/11 156/41/11
f 6/43/12 8/149/13 7/44/13
f 3/46/10 4/150/10 159/47/10
f 157/49/6 158/151/6 1/50/6
f 19/52/14 20/152/17 18/53/15
f 47/57/5 6/153/12 5/154/12
f 5/154/12 17/55/16 47/57/5
f 48/60/18 7/155/13 8/156/13
f 8/156/13 43/157/26 48/60/18
f 43/157/26 20/58/17 48/60/18
f 44/63/21 22/158/5 21/159/5
f 49/61/19 25/160/24 27/62/20
f 44/63/21 21/159/5 49/61/19
f 28/66/23 23/161/9 50/64/9
f 23/161/9 24/162/9 50/64/9
f 28/67/23 26/163/22 27/68/20
f 33/70/6 34/164/6 32/71/6
f 127/75/26 123/165/9 124/166/9
f 128/73/18 126/167/25 125/74/25
f 127/75/26 124/166/9 128/73/18
f 30/76/5 29/168/5 45/77/5
f 46/81/29 35/169/10 37/170/10
f 53/79/27 41/171/32 39/80/28
f 46/81/29 37/170/10 53/79/27
f 42/84/31 38/172/11 52/82/11
f 38/172/11 36/173/11 52/82/11
f 41/85/32 42/174/31 40/86/30
f 71/88/8 73/175/33 68/89/33
f 73/91/33 72/176/34 69/92/34
f 72/94/34 70/177/1 67/95/1
f 79/97/35 81/100/36 76/98/36
f 81/100/36 80/178/37 77/101/37
f 80/102/37 78/4/3 75/6/3
f 55/104/38 57/179/39 64/105/39
f 57/107/39 56/110/40 65/108/40
f 56/110/40 54/2/2 63/111/2
f 59/15/7 61/113/41 84/112/41
f 61/113/41 60/180/42 85/114/42
f 60/115/42 58/181/4 83/116/4
f 62/118/38 79/97/35 74/99/35
f 87/122/43 98/182/43 99/183/43
f 98/182/43 100/184/43 99/183/43
f 100/184/43 101/185/43 99/183/43
f 99/183/43 90/186/43 91/120/43
f 90/186/43 92/187/43 91/120/43
f 92/187/43 93/188/43 91/120/43
f 91/120/43 94/189/43 95/121/43
f 94/189/43 96/190/43 95/121/43
f 96/190/43 97/191/43 95/121/43
f 95/121/43 86/192/43 87/122/43
f 86/192/43 88/193/43 87/122/43
f 88/193/43 89/194/43 87/122/43
f 87/122/43 99/183/43 91/120/43
f 193/195/10 167/196/10 165/197/10
f 192/198/44 168/199/45 189/200/46
f 176/201/10 173/202/10 194/203/10
f 175/204/45 174/205/45 195/206/44
f 202/207/47 201/208/47 204/209/27
f 179/210/11 180/211/11 196/212/11
f 185/213/48 186/214/48 197/215/19
f 188/216/9 187/217/9 198/218/9
f 165/197/10 161/219/10 193/195/10
f 161/219/10 163/220/10 193/195/10
f 189/200/46 164/221/11 162/222/11
f 192/198/44 166/223/45 168/199/45
f 189/200/46 162/222/11 192/198/44
f 194/203/10 169/224/10 171/225/10
f 171/225/10 176/201/10 194/203/10
f 195/206/44 172/226/11 170/227/11
f 170/227/11 190/228/46 195/206/44
f 190/228/46 175/204/45 195/206/44
f 204/209/27 199/229/10 200/230/10
f 200/230/10 203/231/29 204/209/27
f 203/231/29 202/207/47 204/209/27
f 196/212/11 178/232/11 177/233/11
f 177/233/11 179/210/11 196/212/11
f 197/215/19 182/234/5 181/235/5
f 181/235/5 191/236/21 197/215/19
f 191/236/21 185/213/48 197/215/19
f 198/218/9 183/237/9 184/238/9
f 184/238/9 188/216/9 198/218/9
