# Blender v3.0.1 OBJ File: 'props.blend'
# www.blender.org
mtllib Toilet_lid.mtl
o Toilet_Lid_toilet_modern.004
v -0.231187 0.019265 0.148684
v -0.212238 -0.000255 0.116297
v -0.211720 0.019756 0.116389
v -0.231697 0.019448 0.116807
v -0.228273 -0.000503 0.116632
v -0.227763 -0.000686 0.148509
v -0.211729 -0.000438 0.148174
v -0.232289 0.000938 -0.134440
v -0.215744 0.001003 -0.102897
v -0.215735 0.021197 -0.134682
v -0.216254 0.001186 -0.134775
v -0.235713 0.020888 -0.134265
v -0.215226 0.021014 -0.102805
v -0.235203 0.020706 -0.102388
v -0.231779 0.000755 -0.102562
v -0.211210 0.019573 0.148267
v 0.110729 0.022524 0.187234
v 0.045348 0.022277 0.217456
v -0.015394 0.022077 0.231832
v -0.077662 0.021929 0.231218
v 0.168908 -0.000231 0.143325
v -0.075599 -0.001083 0.227432
v -0.154789 -0.001213 0.206086
v -0.190173 -0.000941 -0.178098
v -0.207207 -0.001036 -0.150753
v -0.209217 -0.001121 0.130599
v -0.214581 -0.000871 0.041315
v -0.216179 -0.000665 -0.029145
v -0.217440 0.022156 0.042122
v -0.213649 0.021879 0.135617
v -0.069807 -0.000916 0.177335
v -0.117169 -0.000994 0.161241
v -0.184275 0.022266 0.032080
v -0.154459 0.022780 -0.115166
v -0.070629 0.022119 0.173466
v -0.149045 0.022081 0.123438
v -0.020069 0.022247 0.173265
v 0.032127 0.022414 0.160786
v 0.141395 0.022869 0.098437
v 0.199439 0.023283 0.007650
v 0.190746 0.023433 -0.049869
v 0.136706 0.023475 -0.108271
v 0.024764 0.023364 -0.163734
v 0.204004 0.000256 0.008163
v 0.139973 0.000462 -0.111644
v -0.184253 -0.000770 0.032734
v -0.077778 0.000112 -0.173980
v 0.162280 0.023688 -0.158298
v 0.232819 0.023616 -0.077284
v 0.246833 0.023385 0.014734
v 0.210262 0.023013 0.105774
v 0.169202 0.022795 0.146801
v 0.231437 0.000586 -0.075664
v 0.245163 0.000346 0.014046
v 0.209256 -0.000008 0.103007
v 0.195001 0.000417 -0.051878
v 0.162143 0.000643 -0.154871
v 0.036205 0.000518 -0.217514
v 0.027075 0.000349 -0.167763
v -0.085833 0.000238 -0.223647
v -0.157643 -0.000248 -0.119475
v 0.178658 0.000023 0.068586
v 0.144809 -0.000162 0.101538
v 0.092683 -0.000406 0.137611
v 0.110663 -0.000493 0.183729
v 0.034616 -0.000624 0.164603
v 0.045989 -0.000744 0.213715
v -0.018536 -0.000793 0.177112
v -0.014285 -0.000928 0.227840
v -0.181857 -0.002014 0.188437
v -0.152031 -0.000972 0.127875
v -0.200107 -0.001952 0.162191
v -0.182267 -0.000751 -0.057421
v -0.214872 -0.000391 -0.118616
v -0.088064 0.023271 -0.227235
v -0.078421 0.023124 -0.169982
v 0.035397 0.023561 -0.221147
v 0.175009 0.023047 0.065964
v 0.089962 0.022633 0.134017
v -0.114150 0.022064 0.157939
v -0.160683 0.021792 0.209777
v -0.186133 0.021784 0.192078
v -0.204374 0.021817 0.165832
v -0.181396 0.022280 -0.055728
v -0.219069 0.022366 -0.029710
v -0.219524 0.022637 -0.123309
v -0.211632 0.022755 -0.154058
v -0.194607 0.022878 -0.181402
v -0.020069 0.022247 0.173265
v 0.032127 0.022414 0.160786
v 0.141395 0.022869 0.098437
v 0.199439 0.023283 0.007650
v 0.190746 0.023433 -0.049869
v 0.136706 0.023475 -0.108271
v 0.024764 0.023364 -0.163734
v 0.204004 0.000256 0.008163
v 0.139973 0.000462 -0.111644
v -0.077778 0.000112 -0.173980
v 0.195001 0.000417 -0.051878
v 0.027075 0.000349 -0.167763
v 0.178658 0.000023 0.068586
v 0.144809 -0.000162 0.101538
v 0.092683 -0.000406 0.137611
v 0.034616 -0.000624 0.164603
v -0.018536 -0.000793 0.177112
v -0.078421 0.023124 -0.169982
v 0.175009 0.023047 0.065964
v 0.089962 0.022633 0.134017
vt 0.686243 0.660398
vt 0.687210 0.661997
vt 0.686168 0.661947
vt 0.607334 0.717433
vt 0.606578 0.718825
vt 0.606229 0.717618
vt 0.672173 0.697934
vt 0.668314 0.699031
vt 0.668407 0.697493
vt 0.688312 0.660498
vt 0.689278 0.662110
vt 0.688237 0.662047
vt 0.698620 0.666078
vt 0.700467 0.671097
vt 0.698926 0.671218
vt 0.602614 0.719660
vt 0.601226 0.718873
vt 0.602332 0.718687
vt 0.687285 0.660449
vt 0.605191 0.718122
vt 0.604350 0.719501
vt 0.604011 0.718276
vt 0.688082 0.662039
vt 0.689063 0.663637
vt 0.688022 0.663587
vt 0.687055 0.661990
vt 0.665010 0.699055
vt 0.664950 0.697370
vt 0.665109 0.700312
vt 0.659725 0.698163
vt 0.665207 0.698690
vt 0.675683 0.696669
vt 0.668272 0.699098
vt 0.668142 0.697563
vt 0.630165 0.697430
vt 0.637547 0.700749
vt 0.630701 0.700758
vt 0.651960 0.699030
vt 0.660044 0.699414
vt 0.652213 0.700534
vt 0.700871 0.680566
vt 0.699205 0.682297
vt 0.699288 0.680362
vt 0.662417 0.699319
vt 0.657945 0.697937
vt 0.662417 0.697824
vt 0.666445 0.699372
vt 0.666480 0.697826
vt 0.670518 0.699518
vt 0.670621 0.697980
vt 0.632682 0.720232
vt 0.628223 0.722544
vt 0.629264 0.719340
vt 0.681387 0.701261
vt 0.675686 0.698295
vt 0.681809 0.699829
vt 0.646444 0.709269
vt 0.643961 0.712694
vt 0.644028 0.707650
vt 0.675940 0.699933
vt 0.676319 0.698357
vt 0.678242 0.700641
vt 0.682337 0.700123
vt 0.681980 0.701545
vt 0.659870 0.697900
vt 0.700886 0.682436
vt 0.699000 0.684342
vt 0.669694 0.650640
vt 0.664902 0.646892
vt 0.665178 0.649499
vt 0.700655 0.675207
vt 0.700037 0.663866
vt 0.697973 0.662127
vt 0.699772 0.661793
vt 0.682196 0.658008
vt 0.681211 0.662201
vt 0.679946 0.659360
vt 0.670464 0.698783
vt 0.670515 0.700314
vt 0.699110 0.675240
vt 0.616680 0.705009
vt 0.623131 0.703558
vt 0.619384 0.706724
vt 0.671935 0.699487
vt 0.667403 0.697930
vt 0.672065 0.698041
vt 0.676646 0.698292
vt 0.678063 0.700267
vt 0.678356 0.698566
vt 0.662021 0.699470
vt 0.661893 0.697805
vt 0.655675 0.698899
vt 0.652869 0.701076
vt 0.652518 0.699713
vt 0.680079 0.660235
vt 0.677925 0.653001
vt 0.676103 0.654929
vt 0.658985 0.699836
vt 0.658911 0.698173
vt 0.647943 0.699705
vt 0.700194 0.665728
vt 0.698376 0.664144
vt 0.660556 0.648788
vt 0.662274 0.650775
vt 0.656418 0.697572
vt 0.659500 0.699627
vt 0.656139 0.699033
vt 0.684239 0.666019
vt 0.682499 0.659224
vt 0.615483 0.710238
vt 0.660729 0.649331
vt 0.665589 0.650786
vt 0.662144 0.651544
vt 0.660071 0.699423
vt 0.620086 0.713419
vt 0.617637 0.715582
vt 0.665745 0.648157
vt 0.668278 0.651362
vt 0.672952 0.650321
vt 0.675243 0.654673
vt 0.671820 0.652725
vt 0.676765 0.652503
vt 0.677881 0.656848
vt 0.679752 0.654982
vt 0.638952 0.719673
vt 0.636323 0.723750
vt 0.636027 0.720415
vt 0.684901 0.664477
vt 0.684521 0.662556
vt 0.645269 0.700489
vt 0.642419 0.704150
vt 0.668992 0.648808
vt 0.685608 0.700998
vt 0.685226 0.702396
vt 0.677537 0.673309
vt 0.678719 0.669714
vt 0.680297 0.670926
vt 0.681262 0.665011
vt 0.685089 0.664449
vt 0.684764 0.666290
vt 0.641362 0.717813
vt 0.645602 0.718730
vt 0.644900 0.720431
vt 0.683803 0.667853
vt 0.684393 0.666071
vt 0.680526 0.666085
vt 0.646748 0.703904
vt 0.643616 0.721874
vt 0.632201 0.723575
vt 0.623985 0.720590
vt 0.625515 0.717609
vt 0.620234 0.718073
vt 0.622216 0.715394
vt 0.621585 0.700603
vt 0.670781 0.648221
vt 0.646126 0.713382
vt 0.675441 0.699947
vt 0.646316 0.702114
vt 0.686108 0.663200
vt 0.687125 0.661993
vt 0.687065 0.663246
vt 0.689275 0.663353
vt 0.688379 0.662054
vt 0.688318 0.663307
vt 0.686013 0.661940
vt 0.686994 0.663537
vt 0.685938 0.663501
vt 0.655997 0.700358
vt 0.683678 0.667713
vt 0.678762 0.669130
vt 0.678743 0.671738
vt 0.682560 0.669057
vt 0.674634 0.699908
vt 0.678559 0.699253
vt 0.671933 0.699444
vt 0.674910 0.698483
vt 0.657996 0.699395
vt 0.653634 0.698102
vt 0.660058 0.697917
vt 0.651300 0.699301
vt 0.651354 0.697785
vt 0.605756 0.715616
vt 0.607138 0.716389
vt 0.606105 0.716823
vt 0.607600 0.718410
vt 0.689354 0.660549
vt 0.601575 0.720079
vt 0.605382 0.719067
vt 0.689124 0.662090
vt 0.675996 0.698365
vt 0.638353 0.697499
vt 0.700810 0.684511
vt 0.667395 0.699293
vt 0.676807 0.699768
vt 0.648277 0.701160
vt 0.680562 0.666032
vt 0.618640 0.709992
vt 0.641880 0.722803
vt 0.675032 0.672583
vt 0.686168 0.661947
vt 0.689336 0.662100
vt 0.683803 0.667853
vt 0.683678 0.667713
vt 0.653717 0.699617
vt 0.606856 0.715417
vn 0.5919 0.5725 0.5674
vn 0.5625 -0.5758 -0.5933
vn 0.5709 0.5783 -0.5829
vn -0.5067 -0.6267 0.5921
vn -0.6220 0.5213 0.5842
vn -0.8102 -0.1916 -0.5539
vn -0.9732 -0.1955 -0.1213
vn -0.9730 -0.1960 -0.1218
vn -0.6427 0.5283 -0.5549
vn -0.5282 -0.6206 -0.5795
vn -0.6482 -0.7565 0.0872
vn -0.7538 0.6563 0.0322
vn -0.6645 -0.7468 0.0251
vn 0.5837 -0.5826 0.5656
vn -0.6427 0.5283 -0.5548
vn -0.8834 -0.2007 0.4235
vn -0.8840 -0.2003 0.4223
vn 0.7752 0.6246 0.0946
vn 0.5998 -0.7014 0.3851
vn 0.7297 -0.6791 0.0805
vn -0.4384 -0.7297 -0.5248
vn -0.1527 0.5958 -0.7885
vn -0.1145 -0.7184 -0.6861
vn 0.1917 0.6113 -0.7678
vn 0.2372 0.9059 0.3508
vn -0.0025 1.0000 0.0030
vn -0.2575 -0.1913 0.9472
vn -0.5850 -0.1987 0.7863
vn -0.2456 -0.1907 0.9504
vn -0.7961 0.5967 -0.1009
vn -0.6036 -0.7580 -0.2472
vn -0.6519 -0.7557 -0.0628
vn 0.2258 -0.7361 0.6380
vn 0.3776 0.6384 0.6707
vn 0.2474 0.6305 0.7357
vn 0.0809 -0.7402 0.6675
vn 0.0828 0.6178 0.7820
vn -0.0860 -0.7418 0.6651
vn -0.1119 0.6129 0.7822
vn -0.0042 0.8887 -0.4584
vn -0.0024 1.0000 0.0030
vn 0.4307 -0.8352 0.3420
vn 0.1975 -0.9396 0.2795
vn -0.7529 0.6582 0.0048
vn 0.6477 0.7545 -0.1054
vn 0.6608 0.7359 0.1477
vn -0.2452 -0.7550 0.6082
vn -0.3455 0.5767 0.7403
vn -0.4861 -0.1910 -0.8528
vn -0.3226 -0.1880 -0.9277
vn -0.3176 -0.1872 -0.9295
vn -0.5899 -0.1977 0.7829
vn -0.7420 0.5893 -0.3195
vn 0.0025 -1.0000 -0.0029
vn 0.6678 -0.6786 -0.3057
vn 0.0026 -1.0000 -0.0031
vn -0.7259 0.5869 0.3588
vn -0.4544 -0.7570 0.4695
vn -0.5774 0.5795 0.5752
vn 0.3107 -0.8118 -0.4945
vn 0.0957 -0.7948 -0.5993
vn 0.7105 0.6188 -0.3349
vn -0.6670 -0.7451 0.0017
vn -0.0025 1.0000 0.0029
vn 0.6464 -0.7547 -0.1121
vn 0.6182 -0.7735 0.1398
vn 0.4381 -0.7077 -0.5543
vn 0.6161 0.6929 -0.3747
vn 0.4773 -0.8208 -0.3138
vn 0.0006 -0.9240 -0.3825
vn 0.1842 -0.7141 -0.6754
vn 0.0024 -1.0000 -0.0030
vn 0.3761 0.6943 -0.6135
vn -0.0590 -0.1733 0.9831
vn -0.7908 0.5955 0.1419
vn -0.5914 -0.7592 0.2719
vn 0.0026 -1.0000 -0.0029
vn 0.4418 -0.7312 0.5197
vn 0.6454 0.6260 0.4377
vn 0.4871 0.6413 0.5928
vn 0.0025 -1.0000 -0.0031
vn 0.3410 -0.7354 0.5856
vn 0.0025 -1.0000 -0.0030
vn 0.1210 0.6927 -0.7110
vn -0.5467 0.5603 -0.6222
vn 0.5616 0.7023 0.4374
vn -0.2274 -0.1771 -0.9576
vn -0.2284 -0.1751 -0.9577
vn 0.4725 0.6215 -0.6249
vn -0.6203 -0.1943 -0.7599
vn -0.4883 -0.1905 -0.8516
vn -0.8110 -0.1926 -0.5524
vn -0.6229 -0.1933 -0.7581
vn -0.0591 -0.1725 0.9832
vn -0.0026 1.0000 0.0030
usemtl M_Interior
s 1
f 13/1/1 11/2/2 10/3/3
f 6/4/4 16/5/1 1/6/5
f 101/7/6 92/8/7 96/9/8
f 15/10/4 12/11/9 8/12/10
f 26/13/11 29/14/12 27/15/13
f 8/16/10 10/17/3 11/18/2
f 8/12/10 9/19/14 15/10/4
f 15/20/4 13/21/1 14/22/5
f 6/23/4 4/24/15 5/25/10
f 5/25/10 7/26/14 6/23/4
f 96/9/8 93/27/16 99/28/17
f 50/29/18 55/30/19 54/31/20
f 24/32/21 75/33/22 60/34/23
f 77/35/24 76/36/25 43/37/26
f 100/38/27 94/39/28 95/40/29
f 86/41/30 25/42/31 74/43/32
f 67/44/33 17/45/34 18/46/35
f 69/47/36 18/46/35 19/48/37
f 22/49/38 19/48/37 20/50/39
f 37/51/40 18/52/35 38/53/41
f 76/54/25 61/55/42 47/56/43
f 85/57/44 33/58/45 84/59/46
f 23/60/47 20/50/39 81/61/48
f 108/62/49 104/63/50 90/64/51
f 97/65/52 93/27/16 94/39/28
f 87/66/53 24/67/21 25/42/31
f 45/68/54 53/69/55 56/70/56
f 74/43/32 85/71/44 86/41/30
f 83/72/57 70/73/58 82/74/59
f 22/75/38 32/76/60 31/77/61
f 50/29/18 53/78/55 49/79/62
f 28/80/63 29/14/12 85/71/44
f 49/81/62 42/82/26 41/83/64
f 84/84/46 46/85/65 73/86/66
f 57/87/67 49/79/62 53/78/55
f 70/88/58 81/61/48 82/89/59
f 46/85/65 36/90/68 71/91/69
f 31/92/61 37/93/40 68/94/70
f 47/95/43 58/96/71 59/97/72
f 71/91/69 80/98/73 32/99/60
f 95/40/29 98/100/74 100/38/27
f 30/101/75 72/102/76 83/72/57
f 56/70/56 54/103/20 44/104/77
f 21/105/78 51/106/79 52/107/80
f 47/95/43 24/108/21 60/109/23
f 41/83/64 50/110/18 49/81/62
f 54/111/20 62/112/72 44/113/77
f 77/114/24 60/34/23 75/33/22
f 50/110/18 78/115/26 51/116/79
f 55/117/19 63/118/81 62/112/72
f 65/119/82 66/120/83 64/121/54
f 67/122/33 68/123/70 66/120/83
f 69/124/36 31/77/61 68/123/70
f 80/125/73 20/126/39 35/127/84
f 70/128/58 32/76/60 23/129/47
f 76/36/25 88/130/85 34/131/86
f 21/132/78 64/121/54 63/118/81
f 90/64/51 105/133/87 89/134/88
f 28/135/63 46/136/65 27/137/13
f 71/138/69 70/139/58 72/140/76
f 36/141/68 30/142/75 83/143/57
f 25/144/31 24/145/21 61/146/42
f 34/131/86 86/147/30 84/59/46
f 82/148/59 80/125/73 36/141/68
f 35/127/84 19/149/37 37/51/40
f 38/53/41 17/150/34 79/151/26
f 79/151/26 52/152/80 39/153/26
f 39/153/26 51/116/79 78/115/26
f 48/154/89 43/37/26 42/82/26
f 59/97/72 57/155/67 45/68/54
f 82/148/59 36/141/68 83/143/57
f 30/142/75 33/58/45 29/156/12
f 73/86/66 34/157/86 84/84/46
f 85/57/44 84/59/46 86/147/30
f 87/158/53 34/131/86 88/130/85
f 4/159/15 16/160/1 3/161/3
f 12/162/9 13/163/1 10/164/3
f 16/165/1 2/166/2 3/167/3
f 32/99/60 35/168/84 31/92/61
f 26/169/11 46/136/65 71/138/69
f 73/170/66 28/171/63 74/172/32
f 91/173/90 103/174/91 108/62/49
f 107/175/92 102/176/93 91/173/90
f 65/177/82 52/178/80 17/45/34
f 58/179/71 48/180/89 57/181/67
f 3/182/3 5/183/10 4/184/15
f 13/1/1 9/19/14 11/2/2
f 6/4/4 7/185/14 16/5/1
f 101/7/6 107/175/92 92/8/7
f 15/10/4 14/186/5 12/11/9
f 26/13/11 30/101/75 29/14/12
f 8/16/10 12/187/9 10/17/3
f 8/12/10 11/2/2 9/19/14
f 15/20/4 9/188/14 13/21/1
f 6/23/4 1/189/5 4/24/15
f 5/25/10 2/166/2 7/26/14
f 96/9/8 92/8/7 93/27/16
f 50/29/18 51/106/79 55/30/19
f 24/32/21 88/190/85 75/33/22
f 77/35/24 75/191/22 76/36/25
f 100/38/27 97/65/52 94/39/28
f 86/41/30 87/66/53 25/42/31
f 67/44/33 65/177/82 17/45/34
f 69/47/36 67/44/33 18/46/35
f 22/49/38 69/47/36 19/48/37
f 37/51/40 19/149/37 18/52/35
f 76/54/25 34/157/86 61/55/42
f 85/57/44 29/156/12 33/58/45
f 23/60/47 22/49/38 20/50/39
f 108/62/49 103/174/91 104/63/50
f 97/65/52 99/28/17 93/27/16
f 87/66/53 88/192/85 24/67/21
f 45/68/54 57/155/67 53/69/55
f 74/43/32 28/80/63 85/71/44
f 83/72/57 72/102/76 70/73/58
f 22/75/38 23/129/47 32/76/60
f 50/29/18 54/31/20 53/78/55
f 28/80/63 27/15/13 29/14/12
f 49/81/62 48/154/89 42/82/26
f 84/84/46 33/193/45 46/85/65
f 57/87/67 48/194/89 49/79/62
f 70/88/58 23/60/47 81/61/48
f 46/85/65 33/193/45 36/90/68
f 31/92/61 35/168/84 37/93/40
f 47/95/43 60/109/23 58/96/71
f 71/91/69 36/90/68 80/98/73
f 95/40/29 106/195/94 98/100/74
f 30/101/75 26/13/11 72/102/76
f 56/70/56 53/69/55 54/103/20
f 21/105/78 55/30/19 51/106/79
f 47/95/43 61/196/42 24/108/21
f 41/83/64 40/197/95 50/110/18
f 54/111/20 55/117/19 62/112/72
f 77/114/24 58/179/71 60/34/23
f 50/110/18 40/197/95 78/115/26
f 55/117/19 21/132/78 63/118/81
f 65/119/82 67/122/33 66/120/83
f 67/122/33 69/124/36 68/123/70
f 69/124/36 22/75/38 31/77/61
f 80/125/73 81/198/48 20/126/39
f 70/128/58 71/138/69 32/76/60
f 76/36/25 75/191/22 88/130/85
f 21/132/78 65/119/82 64/121/54
f 90/64/51 104/63/50 105/133/87
f 28/135/63 73/199/66 46/136/65
f 36/141/68 33/58/45 30/142/75
f 34/131/86 87/158/53 86/147/30
f 82/148/59 81/198/48 80/125/73
f 35/127/84 20/126/39 19/149/37
f 38/53/41 18/52/35 17/150/34
f 79/151/26 17/150/34 52/152/80
f 39/153/26 52/152/80 51/116/79
f 48/154/89 77/35/24 43/37/26
f 59/97/72 58/96/71 57/155/67
f 73/86/66 61/55/42 34/157/86
f 4/159/15 1/200/5 16/160/1
f 12/162/9 14/201/5 13/163/1
f 16/165/1 7/26/14 2/166/2
f 32/99/60 80/98/73 35/168/84
f 71/138/69 72/140/76 26/202/11
f 26/169/11 27/137/13 46/136/65
f 74/172/32 25/203/31 61/196/42
f 61/196/42 73/170/66 74/172/32
f 91/173/90 102/176/93 103/174/91
f 107/175/92 101/7/6 102/176/93
f 65/177/82 21/204/78 52/178/80
f 58/179/71 77/114/24 48/180/89
f 3/182/3 2/205/2 5/183/10
