# Blender v3.0.1 OBJ File: 'props.blend'
# www.blender.org
mtllib Towel_b.mtl
o Towel_b_Plane.016
v -0.073382 0.489942 0.045166
v -0.082770 0.522839 0.028797
v -0.074828 0.513676 0.065267
v -0.059048 0.486491 0.093070
v -0.057741 0.427581 0.108277
v -0.021770 0.440416 0.021163
v -0.044781 0.479219 0.039253
v 0.000879 0.460630 0.048593
v -0.008134 0.494702 0.089816
v 0.065521 -0.077612 0.118177
v -0.068880 -0.092553 0.037847
v -0.055291 -0.107048 0.011198
v -0.039687 -0.136575 0.036186
v -0.050350 -0.166831 0.075816
v -0.031289 -0.189920 0.090136
v -0.005901 -0.214534 0.093468
v -0.090073 0.061462 0.174644
v -0.085743 -0.156841 0.214263
v 0.055872 -0.310223 -0.056196
v 0.022285 -0.263879 -0.044731
v 0.012826 -0.239445 -0.023343
v 0.071109 -0.134728 0.054554
v 0.036211 -0.069853 0.107534
v -0.098102 0.086635 0.075778
v -0.084802 0.414219 0.041132
v -0.087257 0.161215 0.165384
v -0.080963 0.391702 -0.009820
v -0.011283 0.339240 -0.004630
v -0.010080 0.291454 0.034044
v -0.028650 0.177533 0.063493
v -0.057403 0.115030 0.032943
v -0.060412 0.035469 0.039162
v -0.032804 0.133445 0.159911
v 0.043120 0.197151 0.116947
v 0.042361 0.132589 -0.012129
v -0.062220 -0.067108 0.091105
v -0.093980 -0.043960 0.132048
v -0.034856 -0.053559 0.102795
v 0.070692 -0.030187 0.095622
v -0.078569 0.137330 0.127018
v -0.079265 -0.032391 0.159852
v 0.045759 -0.002378 0.112880
v 0.069673 -0.004725 0.063011
v -0.030256 0.127536 0.103298
v 0.024491 0.084741 0.013779
v -0.015315 0.221706 0.041895
v -0.061549 0.212599 0.043027
v 0.030402 0.151578 0.077788
v 0.018627 0.165841 0.012708
v -0.029227 0.250481 0.056233
v -0.047019 0.270890 0.029797
v 0.007392 0.249383 0.083655
v 0.021263 0.247366 0.022265
v 0.052644 0.189076 0.005383
v -0.028436 0.324538 0.046221
v -0.063453 0.306589 0.045096
v -0.032483 0.268088 0.114986
v 0.023346 0.318120 0.031503
v 0.055368 0.264465 0.022807
v -0.012634 0.373845 0.025879
v -0.059354 0.378663 0.064080
v 0.007606 0.401280 0.043227
v 0.047610 0.337400 0.048108
v 0.059855 0.215355 0.085772
v -0.027516 0.483267 0.063850
v 0.021469 0.422330 0.066754
v 0.031513 0.370765 0.091581
v -0.006586 0.386070 0.120192
v -0.018773 -0.122898 0.085652
v -0.039109 -0.099650 0.074640
v -0.035214 -0.079488 0.048904
v -0.028747 -0.059186 0.021670
v -0.059916 -0.040103 0.019969
v 0.013489 -0.102178 0.063298
v -0.003254 -0.055559 0.081935
v -0.028375 -0.031533 0.073417
v -0.031360 -0.011057 0.045978
v -0.033059 0.009752 0.018814
v 0.015381 -0.023765 0.053582
v 0.001401 0.013094 0.076277
v -0.027887 0.037763 0.071722
v -0.045807 0.054256 0.032216
v 0.005199 0.054307 0.044588
v -0.003393 0.083221 0.067581
v -0.030197 0.107171 0.068332
v 0.003784 -0.096533 -0.098576
v 0.009845 -0.026443 -0.058184
v -0.009275 0.086008 -0.000218
v -0.009622 0.142175 0.052265
v -0.026353 -0.032971 -0.104197
v -0.066077 0.016867 -0.088927
v -0.030431 0.100416 -0.086191
v -0.005994 0.138334 -0.062448
v -0.007957 0.224836 -0.034810
v -0.091159 -0.111807 -0.078129
v -0.085847 0.081325 -0.061840
v -0.051540 0.329331 -0.044160
v 0.046290 -0.207028 -0.041650
v 0.038464 -0.103806 -0.029319
v 0.032435 0.004167 0.006805
v 0.045162 -0.026783 -0.026193
v 0.038360 0.060986 -0.017166
v 0.066018 0.033400 -0.020021
v 0.085396 -0.052153 -0.020403
v 0.118583 -0.144379 0.116444
v 0.121882 -0.230052 0.153138
v 0.071574 0.126057 0.100444
v 0.064752 0.027870 0.141152
v -0.009584 -0.188659 0.129618
v -0.053540 -0.178751 0.142417
v -0.071456 0.512322 0.055649
v -0.082602 0.502647 0.042387
v -0.099516 0.471234 0.049018
v -0.064011 0.492376 0.055649
v -0.085230 0.525464 0.055649
v -0.082602 0.502647 0.055649
v -0.085230 0.525464 0.042387
v -0.071456 0.512322 0.042387
v -0.064011 0.492376 0.042387
v -0.099516 0.485058 0.074735
v -0.099516 0.515815 0.085388
v -0.113858 0.485060 0.023299
v -0.113858 0.472320 0.049018
v -0.113858 0.485058 0.074735
v -0.113858 0.515815 0.085388
v -0.099516 0.485060 0.023299
v -0.113858 0.546570 0.074737
v -0.113858 0.546570 0.023299
v -0.113858 0.559309 0.049018
v -0.113858 0.515815 0.012647
v -0.099516 0.546570 0.023299
v -0.099516 0.546570 0.074737
v -0.099516 0.559309 0.049018
v -0.099516 0.515815 0.012647
v -0.046909 0.496756 0.002845
v -0.044138 0.540549 0.041029
v -0.094440 -0.085028 0.088891
v -0.009590 -0.327567 0.018868
v -0.018277 -0.279937 -0.023020
v 0.005437 -0.182357 -0.092750
v -0.018123 -0.134222 -0.120393
v -0.092162 -0.096480 0.013891
v 0.077962 -0.208061 0.167388
v 0.083774 -0.386821 -0.029212
v 0.017554 -0.214259 -0.000427
v -0.028318 0.414999 -0.009098
v -0.006922 -0.057580 -0.008777
v 0.010214 -0.162342 0.073914
v -0.000606 0.028020 -0.080711
v -0.068782 0.177624 -0.067965
v -0.020590 0.257002 -0.059178
v -0.095922 0.260191 0.000755
v 0.023543 -0.133389 -0.000025
v 0.022585 -0.172723 -0.027388
v 0.029731 -0.072184 -0.002646
v 0.066934 -0.144909 -0.034618
v 0.083872 -0.209222 -0.022257
v 0.090588 -0.109781 -0.010233
v 0.108582 -0.283377 0.092863
v 0.067957 0.095442 -0.003073
v 0.115512 -0.062900 0.124037
v 0.084498 -0.150327 0.165541
v -0.012067 0.068220 0.135354
vt 0.725854 0.806676
vt 0.728305 0.806024
vt 0.725924 0.808446
vt 0.728123 0.810228
vt 0.725854 0.810216
vt 0.728123 0.804868
vt 0.730392 0.806676
vt 0.730392 0.808446
vt 0.730392 0.810216
vt 0.730392 0.804907
vt 0.730392 0.812566
vt 0.730392 0.823701
vt 0.728123 0.824749
vt 0.728123 0.814061
vt 0.716778 0.816646
vt 0.719047 0.818043
vt 0.716778 0.819064
vt 0.705460 0.807391
vt 0.711943 0.811508
vt 0.705425 0.811537
vt 0.705433 0.815525
vt 0.707702 0.817294
vt 0.705433 0.817343
vt 0.708209 0.815353
vt 0.709518 0.818496
vt 0.712948 0.805848
vt 0.717836 0.808446
vt 0.714652 0.814670
vt 0.714151 0.818534
vt 0.718999 0.799394
vt 0.716384 0.803447
vt 0.713380 0.801123
vt 0.719047 0.801367
vt 0.722256 0.806676
vt 0.721316 0.801167
vt 0.719047 0.803137
vt 0.721316 0.803137
vt 0.719871 0.804907
vt 0.723792 0.810962
vt 0.717920 0.811469
vt 0.719047 0.814445
vt 0.721316 0.816071
vt 0.723585 0.801211
vt 0.725236 0.804907
vt 0.721316 0.812866
vt 0.723585 0.814262
vt 0.725854 0.802882
vt 0.723585 0.803137
vt 0.725854 0.814120
vt 0.722444 0.819035
vt 0.728123 0.801134
vt 0.725854 0.799111
vt 0.725854 0.811985
vt 0.730392 0.801913
vt 0.709971 0.797828
vt 0.709815 0.800243
vt 0.707702 0.797828
vt 0.712240 0.798287
vt 0.716778 0.797294
vt 0.714509 0.797828
vt 0.716778 0.799598
vt 0.723585 0.796906
vt 0.707702 0.788133
vt 0.705433 0.787210
vt 0.705433 0.780135
vt 0.705433 0.788980
vt 0.705433 0.790749
vt 0.707702 0.790749
vt 0.705433 0.793434
vt 0.707702 0.794289
vt 0.705433 0.796058
vt 0.707702 0.796058
vt 0.705433 0.797828
vt 0.709971 0.789688
vt 0.707702 0.792519
vt 0.709971 0.792519
vt 0.709971 0.794289
vt 0.709971 0.796058
vt 0.712240 0.792048
vt 0.712240 0.794289
vt 0.712240 0.796058
vt 0.714509 0.794289
vt 0.714509 0.796058
vt 0.716778 0.782703
vt 0.716524 0.787211
vt 0.714444 0.780010
vt 0.717229 0.793222
vt 0.713993 0.788042
vt 0.719047 0.784575
vt 0.721316 0.786150
vt 0.719047 0.788101
vt 0.721316 0.790350
vt 0.720882 0.792782
vt 0.721316 0.796931
vt 0.723910 0.788605
vt 0.724302 0.792820
vt 0.728123 0.795846
vt 0.705433 0.822064
vt 0.705433 0.827787
vt 0.707702 0.830186
vt 0.705433 0.829682
vt 0.705433 0.831451
vt 0.705433 0.834271
vt 0.709501 0.831965
vt 0.705433 0.838521
vt 0.707702 0.827912
vt 0.709971 0.828632
vt 0.711781 0.820834
vt 0.712240 0.823694
vt 0.709668 0.823561
vt 0.712949 0.825956
vt 0.709971 0.826142
vt 0.712240 0.828537
vt 0.714509 0.820834
vt 0.714509 0.822603
vt 0.716406 0.833757
vt 0.713049 0.838561
vt 0.716778 0.821195
vt 0.718770 0.831106
vt 0.716778 0.838558
vt 0.719441 0.835772
vt 0.724534 0.821263
vt 0.720884 0.823028
vt 0.723585 0.838520
vt 0.722515 0.828229
vt 0.725854 0.827095
vt 0.730380 0.838533
vt 0.725854 0.838527
vt 0.730392 0.828118
vt 0.705396 0.801326
vt 0.705407 0.804709
vt 0.717075 0.780135
vt 0.721391 0.780241
vt 0.726643 0.780126
vt 0.730395 0.788066
vt 0.730392 0.780139
vt 0.719120 0.838530
vt 0.707702 0.825305
vt 0.708500 0.780079
vt 0.713543 0.840804
vt 0.713924 0.841885
vt 0.712086 0.841576
vt 0.723266 0.840295
vt 0.721836 0.840320
vt 0.721959 0.839121
vt 0.720553 0.840264
vt 0.714727 0.840796
vt 0.715801 0.841695
vt 0.718267 0.841589
vt 0.719140 0.840115
vt 0.719529 0.841431
vt 0.712195 0.839484
vt 0.713571 0.840319
vt 0.711722 0.840527
vt 0.714738 0.840388
vt 0.715921 0.839541
vt 0.716283 0.840627
vt 0.714061 0.839245
vt 0.717182 0.840649
vt 0.714047 0.838689
vt 0.712045 0.838910
vt 0.716120 0.838920
vt 0.711218 0.839334
vt 0.710877 0.840540
vt 0.713881 0.842454
vt 0.715919 0.842279
vt 0.711880 0.842150
vt 0.722610 0.841565
vt 0.720676 0.839065
vt 0.717877 0.840273
vt 0.716854 0.839434
vt 0.711208 0.841684
vt 0.716719 0.841845
vn 0.9876 0.0691 -0.1412
vn 0.3780 0.9200 -0.1037
vn 0.6062 0.1409 -0.7827
vn 0.6131 0.6559 0.4403
vn 0.3585 0.3966 -0.8451
vn 0.2415 0.4153 -0.8771
vn -0.6419 0.5653 -0.5181
vn -0.2115 0.7735 0.5974
vn -0.0242 0.4942 0.8690
vn -0.8355 -0.1047 -0.5395
vn -0.0145 0.2494 0.9683
vn 0.1423 0.1242 0.9820
vn 0.3757 0.0356 0.9261
vn 0.3581 0.2486 0.9000
vn -0.8952 0.0991 -0.4345
vn 0.5361 0.2239 -0.8139
vn -0.1584 0.0312 -0.9869
vn 0.1621 -0.0737 -0.9840
vn -0.5702 -0.0424 -0.8204
vn -0.3089 0.0299 -0.9506
vn 0.0237 -0.1121 -0.9934
vn -0.9083 -0.0563 -0.4145
vn -0.7621 -0.2588 -0.5936
vn -0.4371 -0.1187 -0.8915
vn -0.9780 -0.1686 0.1229
vn 0.8563 -0.1290 -0.5000
vn -0.1195 -0.1973 -0.9730
vn -0.8648 -0.1578 -0.4766
vn -0.9725 -0.0691 -0.2226
vn 0.7388 -0.0833 0.6687
vn 0.6364 -0.0414 0.7703
vn 0.3244 0.0477 0.9447
vn 0.0392 0.1553 0.9871
vn 0.9622 -0.2109 -0.1725
vn 0.7962 0.0708 0.6009
vn 0.1038 0.1290 0.9862
vn 0.3451 0.1683 0.9234
vn 0.7728 -0.1062 0.6258
vn 0.0791 0.0469 -0.9958
vn -0.8028 -0.0832 -0.5904
vn -0.6987 0.0831 -0.7106
vn 0.6936 0.1794 -0.6976
vn 0.9565 0.1175 -0.2670
vn 0.9614 0.1969 0.1921
vn -0.3895 0.1492 -0.9089
vn 0.8707 0.3098 -0.3821
vn 0.5822 0.2363 -0.7779
vn 0.8409 0.1308 0.5252
vn 0.8605 0.3163 0.3993
vn 0.9646 0.1201 0.2350
vn -0.7330 0.2598 -0.6286
vn -0.1106 0.2711 -0.9562
vn 0.9767 0.2048 -0.0632
vn -0.9555 0.2113 -0.2056
vn -0.5157 -0.0796 0.8531
vn 0.8455 -0.0348 0.5328
vn 0.5515 -0.0652 0.8316
vn -0.2684 -0.0789 0.9601
vn 0.7338 0.0886 0.6735
vn -0.3819 0.1372 0.9140
vn -0.2804 0.2690 0.9214
vn 0.5698 0.2057 -0.7956
vn 0.8587 0.0156 0.5123
vn 0.8175 -0.0371 0.5747
vn 0.9871 -0.0693 -0.1440
vn 0.0748 0.4195 0.9047
vn -0.3708 0.3907 0.8425
vn -0.1414 0.1537 0.9779
vn -0.9430 0.1079 0.3149
vn -0.9429 0.2521 0.2177
vn -0.5331 -0.1970 0.8228
vn -0.6973 0.0809 0.7122
vn 0.8388 -0.2471 0.4851
vn 0.9289 -0.0299 0.3691
vn -0.7468 0.1001 0.6575
vn 0.1882 0.0953 0.9775
vn -0.6377 0.1303 0.7592
vn -0.9046 0.0991 0.4147
vn 0.9682 0.0335 0.2479
vn 0.3785 0.0832 0.9219
vn -0.4884 0.0951 0.8674
vn 0.9720 0.1552 0.1763
vn 0.5831 0.0195 0.8121
vn 0.8296 0.1034 -0.5486
vn 0.9933 0.0377 -0.1088
vn 0.9975 -0.0591 0.0397
vn 0.9965 0.0811 -0.0202
vn 0.9989 -0.0431 -0.0155
vn 0.1880 0.1521 -0.9703
vn -0.3862 0.1231 -0.9141
vn 0.7600 0.1281 -0.6372
vn 0.1004 0.1630 -0.9815
vn 0.8326 0.1536 -0.5322
vn 0.9882 0.0931 -0.1217
vn -0.8404 0.0737 -0.5369
vn -0.4641 0.1436 -0.8741
vn -0.9670 0.0858 -0.2398
vn -0.8803 0.0238 0.4739
vn -0.9625 0.1616 -0.2177
vn -0.1115 0.0176 -0.9936
vn -0.7117 0.4143 -0.5673
vn -0.0971 0.2645 -0.9595
vn 0.5853 0.1078 -0.8036
vn 0.7861 -0.0076 -0.6180
vn 0.9181 0.0150 -0.3960
vn -0.7659 0.1496 -0.6253
vn 0.1915 0.1535 -0.9694
vn -0.9995 -0.0026 -0.0319
vn -0.4520 -0.0061 -0.8920
vn -0.9837 0.1091 -0.1431
vn 0.6257 0.0294 -0.7795
vn -0.4589 0.0937 -0.8836
vn 0.8125 0.0458 -0.5811
vn -0.4998 0.1573 -0.8517
vn 0.1962 0.0942 -0.9760
vn 0.9891 0.0492 0.1387
vn 0.9778 -0.0187 -0.2086
vn 0.6478 0.1992 -0.7353
vn 0.9264 0.1459 0.3472
vn 0.9663 0.0398 0.2543
vn 0.2255 0.1287 0.9657
vn 0.6347 0.1288 0.7620
vn 0.9427 0.1970 0.2693
vn -0.0724 0.0274 0.9970
vn 0.3136 0.1500 0.9376
vn 0.4182 0.0048 0.9083
vn 0.8268 -0.0943 0.5546
vn 0.6118 -0.0802 0.7870
vn 0.0520 0.1604 0.9857
vn 0.9719 -0.0532 0.2294
vn 0.9640 -0.0749 0.2553
vn 0.3706 0.0579 -0.9270
vn -0.8011 0.0602 -0.5955
vn -0.9993 0.0035 -0.0364
vn -0.9979 -0.0089 -0.0634
vn -0.9994 -0.0234 -0.0268
vn 0.0078 0.0311 0.9995
vn -0.9923 0.1102 0.0570
vn 0.9902 -0.0420 -0.1332
vn 0.8646 0.3605 -0.3499
vn 0.4898 -0.0108 -0.8718
vn 0.4745 0.5852 -0.6576
vn 0.5083 -0.4381 0.7414
vn 0.3481 0.3648 0.8635
vn 0.8646 0.3605 0.3500
vn 0.3481 0.3648 -0.8635
vn 0.5083 -0.4381 -0.7414
vn 0.4521 -0.5702 -0.6859
vn -0.4408 -0.7978 0.4113
vn -0.4408 -0.7978 -0.4113
vn 0.4745 0.5852 0.6576
vn 0.4798 0.8774 0.0000
vn 0.4521 -0.5702 0.6859
vn 0.4063 -0.9138 -0.0000
vn 0.4898 -0.0108 0.8718
vn -0.0535 -0.9986 -0.0000
vn 0.0000 -0.0000 1.0000
vn 0.0000 0.6610 0.7504
vn 0.0000 -0.6610 0.7504
vn 0.0000 1.0000 0.0000
vn 0.0000 0.0000 -1.0000
vn 0.0000 -0.6610 -0.7504
vn 0.0000 0.6610 -0.7504
usemtl M_Interior_Fabric
s 1
f 7/1/1 136/2/2 65/3/3
f 65/3/3 9/4/4 8/5/5
f 135/6/6 2/7/7 136/2/2
f 7/1/1 135/6/6 136/2/2
f 65/3/3 136/2/2 9/4/4
f 9/4/4 3/8/8 4/9/9
f 135/6/6 1/10/10 2/7/7
f 136/2/2 2/7/7 3/8/8
f 4/9/9 5/11/11 9/4/4
f 26/12/12 33/13/13 68/14/14
f 49/15/15 54/16/16 35/17/17
f 41/18/18 44/19/19 38/20/20
f 23/21/21 39/22/22 10/23/23
f 42/24/24 43/25/25 39/22/22
f 40/26/26 57/27/27 41/18/18
f 48/28/28 45/29/29 43/25/25
f 46/30/30 47/31/31 31/32/32
f 50/33/33 47/31/31 46/30/30
f 61/34/34 57/27/27 40/26/26
f 29/35/35 50/33/33 46/30/30
f 29/35/35 51/36/36 50/33/33
f 55/37/37 56/38/38 51/36/36
f 57/27/27 62/39/39 52/40/40
f 53/41/41 59/42/42 54/16/16
f 28/43/43 55/37/37 29/35/35
f 6/44/44 61/34/34 56/38/38
f 61/34/34 65/3/3 57/27/27
f 58/45/45 63/46/46 59/42/42
f 146/47/47 6/44/44 60/48/48
f 65/3/3 8/5/5 62/39/39
f 63/46/46 67/49/49 64/50/50
f 27/51/51 146/47/47 97/52/52
f 8/5/5 9/4/4 66/53/53
f 27/51/51 25/54/54 135/6/6
f 5/11/11 68/14/14 9/4/4
f 78/55/55 32/56/56 73/57/57
f 82/58/58 32/56/56 78/55/55
f 89/59/59 31/32/32 85/60/60
f 46/30/30 30/61/61 89/59/59
f 97/52/52 28/43/43 151/62/62
f 148/63/63 16/64/64 138/65/65
f 148/63/63 15/66/66 16/64/64
f 148/63/63 14/67/67 15/66/66
f 69/68/68 13/69/69 14/67/67
f 71/70/70 12/71/71 13/69/69
f 72/72/72 11/73/73 12/71/71
f 74/74/74 69/68/68 148/63/63
f 74/74/74 70/75/75 69/68/68
f 75/76/76 71/70/70 70/75/75
f 76/77/77 72/72/72 71/70/70
f 77/78/78 73/57/57 72/72/72
f 79/79/79 75/76/76 74/74/74
f 79/79/79 76/77/77 75/76/76
f 80/80/80 77/78/78 76/77/77
f 81/81/81 78/55/55 77/78/78
f 83/82/82 81/81/81 80/80/80
f 84/83/83 82/58/58 81/81/81
f 86/84/84 87/85/85 140/86/86
f 87/85/85 88/87/87 147/88/88
f 89/59/59 85/60/60 84/83/83
f 90/89/89 87/85/85 86/84/84
f 91/90/90 149/91/91 90/89/89
f 92/92/92 93/93/93 149/91/91
f 94/94/94 46/30/30 88/87/87
f 91/90/90 96/95/95 92/92/92
f 150/96/96 93/93/93 92/92/92
f 151/62/62 94/94/94 93/93/93
f 152/97/97 150/96/96 96/95/95
f 150/96/96 152/97/97 97/52/52
f 10/23/23 43/25/25 22/98/98
f 145/99/99 98/100/100 21/101/101
f 21/101/101 98/100/100 20/102/102
f 19/103/103 157/104/104 144/105/105
f 154/106/106 156/107/107 98/100/100
f 100/108/108 101/109/109 155/110/110
f 155/110/110 104/111/111 99/112/112
f 99/112/112 158/113/113 156/107/107
f 45/29/29 102/114/114 100/108/108
f 100/108/108 103/115/115 101/109/109
f 158/113/113 105/116/116 159/117/117
f 45/29/29 160/118/118 102/114/114
f 102/114/114 160/118/118 103/115/115
f 103/115/115 160/118/118 104/111/111
f 104/111/111 161/119/119 105/116/116
f 105/116/116 106/120/120 159/117/117
f 35/17/17 54/16/16 160/118/118
f 105/116/116 162/121/121 106/120/120
f 64/50/50 34/122/122 107/123/123
f 109/124/124 162/121/121 108/125/125
f 108/125/125 163/126/126 109/124/124
f 34/122/122 33/13/13 163/126/126
f 163/126/126 18/127/127 110/128/128
f 33/13/13 17/129/129 18/127/127
f 64/50/50 54/16/16 59/42/42
f 10/23/23 39/22/22 43/25/25
f 45/29/29 49/15/15 35/17/17
f 64/50/50 67/49/49 34/122/122
f 23/21/21 42/24/24 39/22/22
f 36/130/130 40/26/26 37/131/131
f 38/20/20 44/19/19 42/24/24
f 82/58/58 31/32/32 32/56/56
f 41/18/18 57/27/27 44/19/19
f 42/24/24 48/28/28 43/25/25
f 31/32/32 47/31/31 40/26/26
f 30/61/61 46/30/30 31/32/32
f 47/31/31 51/36/36 56/38/38
f 50/33/33 51/36/36 47/31/31
f 49/15/15 53/41/41 54/16/16
f 29/35/35 55/37/37 51/36/36
f 52/40/40 62/39/39 58/45/45
f 53/41/41 58/45/45 59/42/42
f 28/43/43 60/48/48 55/37/37
f 28/43/43 97/52/52 146/47/47
f 57/27/27 65/3/3 62/39/39
f 58/45/45 62/39/39 63/46/46
f 59/42/42 63/46/46 64/50/50
f 6/44/44 7/1/1 61/34/34
f 61/34/34 7/1/1 65/3/3
f 62/39/39 8/5/5 66/53/53
f 146/47/47 27/51/51 135/6/6
f 68/14/14 34/122/122 67/49/49
f 1/10/10 135/6/6 25/54/54
f 68/14/14 5/11/11 26/12/12
f 85/60/60 31/32/32 82/58/58
f 89/59/59 30/61/61 31/32/32
f 94/94/94 29/35/35 46/30/30
f 152/97/97 27/51/51 97/52/52
f 148/63/63 69/68/68 14/67/67
f 69/68/68 70/75/75 13/69/69
f 70/75/75 71/70/70 13/69/69
f 71/70/70 72/72/72 12/71/71
f 72/72/72 73/57/57 11/73/73
f 147/88/88 74/74/74 148/63/63
f 74/74/74 75/76/76 70/75/75
f 75/76/76 76/77/77 71/70/70
f 76/77/77 77/78/78 72/72/72
f 77/78/78 78/55/55 73/57/57
f 74/74/74 147/88/88 79/79/79
f 147/88/88 140/86/86 87/85/85
f 79/79/79 80/80/80 76/77/77
f 80/80/80 81/81/81 77/78/78
f 81/81/81 82/58/58 78/55/55
f 147/88/88 88/87/87 79/79/79
f 83/82/82 84/83/83 81/81/81
f 84/83/83 85/60/60 82/58/58
f 141/132/132 86/84/84 140/86/86
f 87/85/85 90/89/89 149/91/91
f 141/132/132 90/89/89 86/84/84
f 88/87/87 46/30/30 89/59/59
f 91/90/90 92/92/92 149/91/91
f 93/93/93 94/94/94 88/87/87
f 91/90/90 95/133/133 96/95/95
f 96/95/95 150/96/96 92/92/92
f 150/96/96 151/62/62 93/93/93
f 142/134/134 96/95/95 95/133/133
f 151/62/62 150/96/96 97/52/52
f 155/110/110 22/98/98 43/25/25
f 142/134/134 24/135/135 96/95/95
f 24/135/135 152/97/97 96/95/95
f 137/136/136 24/135/135 142/134/134
f 24/135/135 25/54/54 152/97/97
f 106/120/120 162/121/121 143/137/137
f 22/98/98 155/110/110 153/138/138
f 145/99/99 153/138/138 154/106/106
f 145/99/99 154/106/106 98/100/100
f 104/111/111 101/109/109 103/115/115
f 43/25/25 100/108/108 155/110/110
f 153/138/138 155/110/110 99/112/112
f 153/138/138 99/112/112 156/107/107
f 98/100/100 156/107/107 157/104/104
f 43/25/25 45/29/29 100/108/108
f 155/110/110 101/109/109 104/111/111
f 99/112/112 104/111/111 158/113/113
f 100/108/108 102/114/114 103/115/115
f 158/113/113 104/111/111 105/116/116
f 45/29/29 35/17/17 160/118/118
f 104/111/111 160/118/118 161/119/119
f 160/118/118 54/16/16 107/123/123
f 160/118/118 107/123/123 161/119/119
f 108/125/125 161/119/119 107/123/123
f 105/116/116 161/119/119 162/121/121
f 54/16/16 64/50/50 107/123/123
f 162/121/121 161/119/119 108/125/125
f 162/121/121 109/124/124 143/137/137
f 107/123/123 34/122/122 108/125/125
f 163/126/126 110/128/128 109/124/124
f 163/126/126 33/13/13 18/127/127
f 33/13/13 26/12/12 17/129/129
f 40/26/26 32/56/56 31/32/32
f 42/24/24 23/21/21 38/20/20
f 41/18/18 37/131/131 40/26/26
f 44/19/19 48/28/28 42/24/24
f 56/38/38 40/26/26 47/31/31
f 52/40/40 44/19/19 57/27/27
f 45/29/29 48/28/28 49/15/15
f 60/48/48 56/38/38 55/37/37
f 53/41/41 48/28/28 52/40/40
f 49/15/15 48/28/28 53/41/41
f 58/45/45 53/41/41 52/40/40
f 62/39/39 67/49/49 63/46/46
f 27/51/51 152/97/97 25/54/54
f 60/48/48 28/43/43 146/47/47
f 66/53/53 68/14/14 67/49/49
f 6/44/44 146/47/47 135/6/6
f 73/57/57 36/130/130 11/73/73
f 151/62/62 29/35/35 94/94/94
f 83/82/82 79/79/79 88/87/87
f 147/88/88 139/139/139 140/86/86
f 88/87/87 84/83/83 83/82/82
f 149/91/91 88/87/87 87/85/85
f 95/133/133 90/89/89 141/132/132
f 20/102/102 157/104/104 19/103/103
f 153/138/138 145/99/99 22/98/98
f 163/126/126 108/125/125 34/122/122
f 117/140/140 134/141/141 131/142/142
f 116/143/143 111/144/144 115/145/145
f 118/146/146 115/145/145 111/144/144
f 112/147/147 126/148/148 117/140/140
f 114/149/149 112/150/147 119/151/150
f 132/152/151 115/153/145 133/154/152
f 116/155/143 120/156/153 113/157/154
f 112/150/147 118/146/146 119/151/150
f 121/158/155 115/153/145 132/152/151
f 120/156/153 123/159/156 113/157/154
f 125/160/157 132/152/151 127/161/158
f 124/162/159 121/158/155 125/160/157
f 133/154/152 127/163/158 132/152/151
f 131/142/142 129/164/160 133/154/152
f 130/165/161 126/148/148 122/166/162
f 131/142/142 130/165/161 128/167/163
f 123/159/156 126/148/148 113/157/154
f 117/140/140 133/154/152 115/153/145
f 120/156/153 115/153/145 121/158/155
f 126/148/148 134/141/141 117/140/140
f 112/147/147 116/155/143 113/157/154
f 157/104/104 159/117/117 144/105/105
f 153/138/138 156/107/107 154/106/106
f 156/107/107 158/113/113 157/104/104
f 138/65/65 139/139/139 147/88/88
f 147/88/88 148/63/63 138/65/65
f 157/104/104 158/113/113 159/117/117
f 7/1/1 6/44/44 135/6/6
f 9/4/4 136/2/2 3/8/8
f 68/14/14 33/13/13 34/122/122
f 40/26/26 36/130/130 32/56/56
f 44/19/19 52/40/40 48/28/28
f 56/38/38 61/34/34 40/26/26
f 60/48/48 6/44/44 56/38/38
f 62/39/39 66/53/53 67/49/49
f 66/53/53 9/4/4 68/14/14
f 73/57/57 32/56/56 36/130/130
f 151/62/62 28/43/43 29/35/35
f 83/82/82 80/80/80 79/79/79
f 88/87/87 89/59/59 84/83/83
f 149/91/91 93/93/93 88/87/87
f 95/133/133 91/90/90 90/89/89
f 20/102/102 98/100/100 157/104/104
f 116/143/143 114/168/149 111/144/144
f 118/146/146 117/169/140 115/145/145
f 112/147/147 113/157/154 126/148/148
f 114/149/149 116/170/143 112/150/147
f 116/155/143 115/153/145 120/156/153
f 112/150/147 117/169/140 118/146/146
f 120/156/153 124/171/159 123/159/156
f 125/160/157 121/158/155 132/152/151
f 124/162/159 120/156/153 121/158/155
f 133/154/152 129/164/160 127/163/158
f 131/142/142 128/172/163 129/164/160
f 130/165/161 134/141/141 126/148/148
f 131/142/142 134/141/141 130/165/161
f 123/159/156 122/173/162 126/148/148
f 117/140/140 131/142/142 133/154/152
