# Blender v3.0.1 OBJ File: 'props.blend'
# www.blender.org
mtllib Towel_a.mtl
o Towel_a_Plane.015
v -0.046623 0.008135 0.221367
v -0.064042 0.534204 -0.146053
v -0.045910 0.523594 0.232478
v -0.041311 0.430316 0.228079
v -0.030355 0.325284 0.225693
v -0.020940 0.213378 0.223106
v -0.027373 0.104064 0.221623
v -0.051230 0.011675 -0.013474
v -0.057102 0.110994 -0.147016
v -0.051344 0.219955 -0.147502
v -0.048435 0.332037 -0.148333
v -0.048228 0.437557 -0.149479
v -0.044693 0.523942 -0.153081
v -0.097415 0.111820 0.239528
v -0.074508 0.011110 0.108135
v -0.070649 0.007139 0.005841
v -0.075875 0.096348 -0.133177
v -0.074360 0.204197 -0.137451
v -0.070910 0.317170 -0.142289
v -0.068631 0.425180 -0.144894
v -0.070905 0.515181 -0.140675
v -0.073405 0.002731 -0.130718
v -0.089190 0.016581 0.243912
v -0.064658 0.534143 0.232229
v -0.052146 0.535169 -0.149442
v -0.050029 0.532719 0.235867
v -0.068994 0.531724 -0.147606
v -0.037094 0.007962 0.219001
v -0.052896 0.014738 -0.150061
v -0.064570 0.535358 0.226093
v -0.051084 0.539856 -0.149436
v -0.049035 0.538265 0.226234
v -0.042333 0.524371 0.226108
v -0.036463 0.431796 0.223719
v -0.024065 0.326819 0.223350
v -0.012360 0.214411 0.222454
v -0.017329 0.104463 0.221004
v -0.025282 0.011759 0.085990
v -0.041067 0.014164 -0.014724
v -0.070071 0.535538 -0.146225
v -0.074326 0.517348 -0.145081
v -0.074179 0.529407 0.227553
v -0.047030 0.110267 -0.149151
v -0.043169 0.219183 -0.148179
v -0.042850 0.331436 -0.147667
v -0.043882 0.436956 -0.147696
v -0.043236 0.528514 -0.147908
v -0.049882 0.537923 0.090316
v -0.014604 0.106466 0.086222
v -0.013126 0.215075 0.086374
v -0.025905 0.327938 0.087481
v -0.037357 0.434373 0.088823
v -0.044218 0.524434 0.090011
v -0.050452 0.541602 -0.011954
v -0.025009 0.107981 -0.015274
v -0.019959 0.216180 -0.015439
v -0.029037 0.328962 -0.014470
v -0.038615 0.435551 -0.013204
v -0.044412 0.526283 -0.012176
v -0.066955 0.539728 0.091542
v -0.072616 0.523713 0.091926
v -0.067788 0.535802 -0.010304
v -0.072297 0.520554 -0.010104
v -0.063384 0.015457 -0.149329
v -0.045910 0.523594 0.232478
v -0.041311 0.430316 0.228079
v -0.030355 0.325284 0.225693
v -0.020940 0.213378 0.223106
v -0.027373 0.104064 0.221623
v -0.035411 0.009422 0.087725
v -0.057102 0.110994 -0.147016
v -0.051344 0.219955 -0.147502
v -0.048435 0.332037 -0.148333
v -0.048228 0.437557 -0.149479
v -0.044693 0.523942 -0.153081
v -0.041031 0.104704 0.090104
v -0.049116 0.213764 0.092916
v -0.053564 0.326599 0.095165
v -0.055172 0.432591 0.097027
v -0.045632 0.516376 0.098516
v -0.055754 0.106889 -0.010847
v -0.052178 0.215724 -0.008952
v -0.049860 0.328311 -0.006868
v -0.055368 0.434353 -0.005891
v -0.045901 0.517602 -0.002952
v -0.095535 0.220396 0.235799
v -0.088867 0.332556 0.232338
v -0.077756 0.437404 0.230877
v -0.070874 0.523728 0.219669
v -0.071186 0.513789 0.098310
v -0.062733 0.430011 0.100315
v -0.074280 0.325804 0.099225
v -0.084488 0.214221 0.100592
v -0.075706 0.106603 0.104825
v -0.071356 0.511840 -0.003269
v -0.061217 0.427715 -0.002536
v -0.064126 0.321008 -0.001037
v -0.072036 0.209462 -0.000097
v -0.072969 0.101974 0.002862
v -0.064658 0.534143 0.232229
v -0.068994 0.531724 -0.147606
v -0.066490 0.531399 0.098125
v -0.066738 0.529482 -0.003428
v -0.083937 0.002382 -0.127608
v -0.098043 0.015531 0.242611
v -0.064570 0.535358 0.226093
v -0.074326 0.517348 -0.145081
v -0.072980 0.425424 -0.146773
v -0.077161 0.317041 -0.139817
v -0.082966 0.204318 -0.135988
v -0.086165 0.096619 -0.131210
v -0.081148 0.008448 0.005605
v -0.084994 0.012090 0.107423
v -0.106315 0.110855 0.239236
v -0.104311 0.219714 0.235927
v -0.095483 0.332550 0.232992
v -0.083405 0.439413 0.230189
v -0.074179 0.529407 0.227553
v -0.122428 0.573633 -0.243992
v -0.122428 0.566934 -0.218992
v -0.122428 0.548633 -0.200691
v -0.122428 0.523633 -0.193992
v -0.122428 0.498633 -0.200691
v -0.122428 0.480121 -0.218992
v -0.122428 0.473378 -0.243992
v -0.122428 0.480332 -0.268992
v -0.122428 0.498633 -0.287293
v -0.122428 0.523633 -0.293992
v -0.122428 0.548633 -0.287293
v -0.122428 0.566934 -0.268992
v -0.110680 0.561443 -0.222163
v -0.110680 0.567292 -0.243992
v -0.110680 0.545462 -0.206182
v -0.110680 0.523633 -0.200333
v -0.110680 0.501803 -0.206182
v -0.110680 0.485741 -0.222163
v -0.110680 0.479867 -0.243992
v -0.110680 0.485823 -0.265822
v -0.110680 0.501803 -0.281802
v -0.110680 0.523633 -0.287651
v -0.110680 0.545462 -0.281802
v -0.110680 0.561443 -0.265822
v -0.110680 0.530540 -0.240004
v -0.061107 0.523633 -0.251968
v -0.110680 0.516726 -0.240004
v -0.061107 0.516726 -0.240004
v -0.110680 0.523633 -0.251968
v -0.061107 0.530540 -0.240004
v -0.122429 0.573633 0.353078
v -0.122429 0.566934 0.378078
v -0.122429 0.548633 0.396379
v -0.122429 0.523633 0.403078
v -0.122429 0.498633 0.396379
v -0.122429 0.480332 0.378078
v -0.122429 0.473365 0.353078
v -0.122429 0.480072 0.328078
v -0.122429 0.498633 0.309777
v -0.122429 0.523633 0.303078
v -0.122429 0.548633 0.309777
v -0.122429 0.566934 0.328078
v -0.110680 0.561443 0.374907
v -0.110680 0.567292 0.353078
v -0.110680 0.545462 0.390888
v -0.110680 0.523633 0.396737
v -0.110680 0.501803 0.390888
v -0.110680 0.485823 0.374907
v -0.110680 0.479878 0.353078
v -0.110680 0.485732 0.331248
v -0.110680 0.501803 0.315268
v -0.110680 0.523633 0.309419
v -0.110680 0.545462 0.315268
v -0.110680 0.561443 0.331248
v -0.110680 0.530540 0.357066
v -0.061107 0.523633 0.345102
v -0.110680 0.516726 0.357066
v -0.061107 0.516726 0.357066
v -0.110680 0.523633 0.345102
v -0.061107 0.530540 0.357066
v -0.070304 0.523405 0.363782
v -0.070304 0.523405 -0.261218
v -0.064054 0.512580 0.363782
v -0.064053 0.512579 -0.261218
v -0.051553 0.512580 0.363782
v -0.051553 0.512579 -0.261218
v -0.045303 0.523405 0.363782
v -0.045303 0.523405 -0.261218
v -0.051553 0.534230 0.363782
v -0.051553 0.534230 -0.261218
v -0.064054 0.534230 0.363782
v -0.064053 0.534230 -0.261218
v -0.070304 0.523405 -0.261218
v -0.064053 0.512579 -0.261218
v -0.051553 0.512579 -0.261218
v -0.045303 0.523405 -0.261218
v -0.051553 0.534230 -0.261218
v -0.064053 0.534230 -0.261218
v -0.070304 0.523405 0.363782
v -0.064054 0.512580 0.363782
v -0.051553 0.512580 0.363782
v -0.045303 0.523405 0.363782
v -0.051553 0.534230 0.363782
v -0.064054 0.534230 0.363782
vt 0.765999 0.220347
vt 0.766321 0.225510
vt 0.765662 0.225492
vt 0.753559 0.234068
vt 0.756672 0.229043
vt 0.756711 0.234028
vt 0.756653 0.225351
vt 0.759799 0.220298
vt 0.759743 0.225402
vt 0.762833 0.225436
vt 0.759756 0.229053
vt 0.762788 0.229142
vt 0.765615 0.229166
vt 0.753576 0.225357
vt 0.750528 0.229028
vt 0.750506 0.225376
vt 0.753601 0.229056
vt 0.759852 0.233942
vt 0.765816 0.233568
vt 0.762887 0.233804
vt 0.766274 0.229181
vt 0.750421 0.233953
vt 0.753539 0.220381
vt 0.750413 0.220457
vt 0.766929 0.230759
vt 0.771605 0.231237
vt 0.767020 0.231442
vt 0.766998 0.231818
vt 0.771601 0.231850
vt 0.780413 0.230811
vt 0.780058 0.231321
vt 0.780163 0.230767
vt 0.775386 0.230679
vt 0.780110 0.244346
vt 0.775388 0.247320
vt 0.775309 0.244285
vt 0.780099 0.241301
vt 0.775274 0.241225
vt 0.775284 0.238101
vt 0.780270 0.235004
vt 0.775310 0.234962
vt 0.780094 0.231843
vt 0.775334 0.231323
vt 0.771641 0.247513
vt 0.771615 0.244328
vt 0.771586 0.241227
vt 0.771567 0.238090
vt 0.771584 0.234947
vt 0.771658 0.230585
vt 0.775328 0.231856
vt 0.766610 0.244311
vt 0.766552 0.247483
vt 0.766648 0.241159
vt 0.766640 0.238025
vt 0.766656 0.234905
vt 0.775406 0.230068
vt 0.780235 0.230367
vt 0.766882 0.230100
vt 0.766543 0.247873
vt 0.771653 0.247905
vt 0.775441 0.247698
vt 0.780241 0.247556
vt 0.780342 0.247901
vt 0.766915 0.231449
vt 0.766884 0.231000
vt 0.780450 0.231412
vt 0.766787 0.231926
vt 0.766160 0.247476
vt 0.780359 0.231813
vt 0.780513 0.235018
vt 0.780244 0.238170
vt 0.766227 0.244299
vt 0.780492 0.238175
vt 0.766344 0.241137
vt 0.780413 0.241315
vt 0.766434 0.238004
vt 0.780470 0.244390
vt 0.766485 0.234877
vt 0.762506 0.243275
vt 0.765713 0.248024
vt 0.762540 0.248094
vt 0.759378 0.243358
vt 0.759434 0.248206
vt 0.756267 0.243431
vt 0.756317 0.248242
vt 0.753206 0.248269
vt 0.753178 0.243494
vt 0.750263 0.239878
vt 0.750314 0.243559
vt 0.765487 0.239449
vt 0.762394 0.239556
vt 0.759292 0.239649
vt 0.756193 0.239729
vt 0.753103 0.239771
vt 0.756062 0.234596
vt 0.750033 0.248416
vt 0.765332 0.234506
vt 0.762234 0.234621
vt 0.759143 0.234617
vt 0.752979 0.234562
vt 0.762883 0.220293
vt 0.750148 0.229027
vt 0.753532 0.234397
vt 0.750404 0.234282
vt 0.759834 0.234185
vt 0.756678 0.234348
vt 0.750093 0.233932
vt 0.762942 0.234009
vt 0.766406 0.233990
vt 0.766011 0.233881
vt 0.750029 0.220569
vt 0.766632 0.220284
vt 0.766070 0.220135
vt 0.766731 0.220135
vt 0.762891 0.220122
vt 0.750398 0.220056
vt 0.753522 0.219998
vt 0.756684 0.220336
vt 0.759777 0.220056
vt 0.756663 0.220020
vt 0.775766 0.219676
vt 0.773296 0.220314
vt 0.773998 0.217817
vt 0.775779 0.217853
vt 0.774771 0.217820
vt 0.774890 0.217333
vt 0.772410 0.219793
vt 0.772942 0.220685
vt 0.775758 0.220694
vt 0.774721 0.220728
vt 0.775388 0.220350
vt 0.775790 0.218895
vt 0.775426 0.218216
vt 0.772401 0.218740
vt 0.772901 0.219642
vt 0.773833 0.221213
vt 0.774866 0.221214
vt 0.776282 0.218759
vt 0.772938 0.217803
vt 0.772910 0.218864
vt 0.773878 0.217333
vt 0.773954 0.220720
vt 0.776263 0.219797
vt 0.773311 0.218191
vt 0.768544 0.222680
vt 0.766782 0.222189
vt 0.768544 0.222189
vt 0.766782 0.221698
vt 0.768544 0.221698
vt 0.768544 0.223171
vt 0.766782 0.222680
vt 0.779788 0.219712
vt 0.777338 0.220326
vt 0.778054 0.217819
vt 0.778954 0.217347
vt 0.779478 0.218241
vt 0.778828 0.217834
vt 0.776450 0.219799
vt 0.776982 0.220695
vt 0.779750 0.220727
vt 0.778751 0.220748
vt 0.779411 0.220380
vt 0.779840 0.217882
vt 0.779833 0.218930
vt 0.776444 0.218740
vt 0.776943 0.219650
vt 0.777869 0.221223
vt 0.778888 0.221223
vt 0.780295 0.219861
vt 0.780334 0.218803
vt 0.776989 0.217800
vt 0.776956 0.218867
vt 0.777938 0.217333
vt 0.777991 0.220735
vt 0.777362 0.218192
vt 0.768544 0.224153
vt 0.766782 0.223662
vt 0.768544 0.223662
vt 0.768544 0.223171
vt 0.766782 0.223171
vt 0.768544 0.224644
vt 0.766782 0.224153
vt 0.772239 0.219553
vt 0.750029 0.219997
vt 0.750029 0.219553
vt 0.772239 0.217332
vt 0.750029 0.217777
vt 0.750029 0.217332
vt 0.772239 0.217777
vt 0.750029 0.218221
vt 0.772239 0.218665
vt 0.750029 0.218665
vt 0.750029 0.219109
vt 0.772239 0.219109
vt 0.767005 0.220929
vt 0.767449 0.220929
vt 0.767449 0.221698
vt 0.767449 0.220929
vt 0.766782 0.220544
vt 0.767449 0.220159
vt 0.766287 0.233815
vt 0.771650 0.230013
vt 0.766747 0.230824
vt 0.780598 0.247613
vt 0.765621 0.243161
vt 0.750032 0.234431
vt 0.750127 0.225378
vt 0.766412 0.233765
vt 0.766782 0.223171
vt 0.766782 0.224644
vt 0.772239 0.219998
vt 0.772239 0.218221
vt 0.767671 0.221314
vt 0.767004 0.221698
vt 0.766782 0.221314
vt 0.767671 0.220544
vt 0.767005 0.220929
vt 0.767005 0.220159
vn 0.9442 -0.0781 -0.3198
vn 0.9686 -0.2486 -0.0005
vn 0.9977 -0.0675 0.0030
vn 0.6305 0.0651 0.7734
vn 0.9937 -0.0100 0.1113
vn 0.6745 -0.0088 0.7382
vn 0.9990 -0.0228 0.0372
vn 0.5492 -0.0623 -0.8334
vn 0.9982 -0.0509 0.0304
vn 0.9996 0.0270 0.0010
vn 0.9920 -0.0851 0.0936
vn 0.9988 -0.0191 0.0453
vn 0.9971 -0.0763 0.0014
vn 1.0000 0.0060 0.0045
vn 0.6869 -0.7232 0.0717
vn 0.6795 -0.7328 0.0352
vn 0.9945 0.0457 0.0947
vn 0.6966 -0.0432 0.7162
vn 0.9234 -0.2598 0.2824
vn 0.6207 -0.0029 0.7840
vn 0.9641 -0.2652 0.0101
vn 0.5416 -0.4988 0.6767
vn 0.6232 -0.0269 -0.7816
vn 0.5052 -0.5664 -0.6511
vn -0.5867 0.6168 -0.5247
vn 0.4178 0.9083 0.0194
vn 0.2443 0.7203 -0.6492
vn 0.8864 0.3471 -0.3064
vn 0.9773 0.2120 0.0001
vn -0.1305 0.9425 0.3078
vn 0.4467 0.8672 0.2199
vn -0.3251 0.9437 0.0619
vn -0.5337 0.8457 -0.0052
vn 0.7261 -0.0893 0.6818
vn 0.7565 -0.6516 -0.0556
vn 0.9960 -0.0729 -0.0525
vn 0.7493 0.0162 0.6621
vn 0.9982 0.0452 -0.0402
vn 0.9941 0.1057 -0.0231
vn 0.9130 0.0683 0.4021
vn 0.9959 0.0893 -0.0103
vn 0.9487 0.2212 0.2257
vn 0.5892 0.8079 -0.0123
vn 0.7285 -0.6761 -0.1105
vn 0.9863 -0.1030 -0.1288
vn 0.9933 0.0226 -0.1136
vn 0.9942 0.0783 -0.0733
vn 0.9970 0.0699 -0.0326
vn -0.7132 0.7009 0.0085
vn 0.9728 0.2314 -0.0056
vn 0.5776 -0.0329 -0.8157
vn 0.4912 -0.6095 -0.6223
vn 0.6222 0.0025 -0.7829
vn 0.7189 0.0106 -0.6951
vn 0.8251 -0.0091 -0.5649
vn -0.9379 0.3467 0.0091
vn -0.5306 0.8466 -0.0417
vn -0.9724 0.2327 0.0153
vn -0.6417 -0.5394 -0.5452
vn -0.6046 -0.7948 0.0522
vn -0.5619 -0.8272 0.0013
vn 0.5430 -0.6615 0.5173
vn -0.5639 -0.5318 0.6318
vn 0.0120 0.0851 -0.9963
vn -0.0509 -0.2148 -0.9753
vn 0.5277 0.6852 0.5021
vn 0.8937 0.1679 -0.4161
vn 0.8550 0.1262 0.5030
vn 0.6560 0.0387 0.7538
vn 0.8221 0.0811 0.5636
vn -0.2025 0.0261 -0.9789
vn 0.3380 0.0210 0.9409
vn -0.0791 0.0022 -0.9969
vn 0.0772 -0.0166 0.9969
vn 0.1216 -0.0046 -0.9926
vn 0.0680 -0.0268 0.9973
vn 0.3753 -0.0340 -0.9263
vn -0.9946 -0.0410 0.0958
vn -0.9863 0.0959 0.1344
vn -0.9935 -0.0223 0.1117
vn -0.9795 -0.0067 0.2013
vn -0.9970 -0.0429 0.0643
vn -0.9801 -0.0963 0.1733
vn -0.9954 -0.0298 0.0911
vn -0.9978 0.0433 0.0496
vn -0.9948 0.1012 -0.0144
vn -0.9961 0.0802 0.0356
vn -0.9971 -0.0121 0.0756
vn -0.9995 0.0286 0.0150
vn -0.9998 -0.0181 -0.0105
vn -0.9992 0.0363 -0.0174
vn -0.9998 0.0024 -0.0221
vn -0.9988 -0.0493 0.0006
vn -0.9985 0.0547 0.0069
vn -0.9993 0.0379 -0.0061
vn -0.9988 0.0339 -0.0340
vn 0.8186 0.0065 -0.5744
vn -0.0957 -0.9951 0.0255
vn -0.0403 0.0365 0.9985
vn -0.0290 -0.7001 0.7135
vn 0.0925 0.0155 0.9956
vn 0.0110 0.0299 0.9995
vn -0.0571 0.0893 0.9944
vn -0.4511 -0.2317 0.8619
vn 0.6927 -0.4154 0.5896
vn -0.1515 -0.7872 -0.5978
vn -0.0583 -0.0121 -0.9982
vn 0.6826 -0.2050 -0.7014
vn 0.3934 0.0116 -0.9193
vn -0.1886 -0.0399 -0.9812
vn 0.6344 -0.0405 -0.7719
vn -0.3621 -0.0366 -0.9314
vn -0.1685 -0.0309 -0.9852
vn 0.8219 -0.2841 0.4937
vn 0.8217 -0.2849 -0.4935
vn 0.8217 0.5699 0.0000
vn 0.4750 0.4400 0.7621
vn 0.8217 0.4935 0.2849
vn 0.4750 0.7621 0.4400
vn 0.4750 -0.0000 -0.8800
vn 0.4750 -0.4400 -0.7621
vn 0.4815 -0.7579 0.4401
vn 0.8239 -0.5668 -0.0020
vn 0.8236 -0.4900 0.2856
vn 0.8217 0.0000 0.5699
vn 0.8217 0.2849 0.4935
vn 0.4750 0.4400 -0.7621
vn 0.8217 -0.0000 -0.5699
vn 0.4761 -0.7603 -0.4419
vn 0.4835 -0.8753 -0.0032
vn 0.4750 0.0000 0.8800
vn 0.4750 0.7621 -0.4400
vn 0.8217 0.2849 -0.4935
vn 0.4750 0.8800 0.0000
vn 0.8220 -0.4924 -0.2859
vn 0.4757 -0.4385 0.7625
vn 0.8217 0.4935 -0.2849
vn 0.0000 0.8660 0.5000
vn 0.0000 0.0000 -1.0000
vn 0.0000 -0.8660 0.5000
vn 0.8217 -0.2849 0.4935
vn 0.8219 -0.2840 -0.4937
vn 0.4759 -0.4382 -0.7625
vn 0.4763 -0.7602 0.4418
vn 0.8244 -0.5660 0.0025
vn 0.8220 -0.4926 0.2858
vn 0.4834 -0.7571 -0.4396
vn 0.4849 -0.8746 0.0039
vn 0.4750 -0.4400 0.7621
vn 0.8241 -0.4893 -0.2854
vn -1.0000 0.0000 -0.0000
vn -0.5000 -0.8660 0.0000
vn 0.5000 -0.8660 0.0000
vn 1.0000 0.0000 0.0000
vn 0.5000 0.8660 0.0000
vn -0.5000 0.8660 -0.0000
vn 0.0000 0.0000 1.0000
vn -0.9590 0.2835 -0.0020
vn 0.1071 0.3652 -0.9247
vn -0.9992 0.0406 -0.0063
vn -0.1245 -0.9914 0.0393
vn -0.8934 0.4429 0.0749
vn -0.4510 -0.2316 0.8619
usemtl M_Interior
s 1
f 21/1/1 103/2/2 95/3/3
f 14/4/4 93/5/5 86/6/6
f 98/7/7 19/8/8 97/9/9
f 97/9/9 93/5/5 98/7/7
f 96/10/10 92/11/11 97/9/9
f 95/3/3 91/12/12 96/10/10
f 103/2/2 90/13/13 95/3/3
f 99/14/14 15/15/15 16/16/16
f 98/7/7 94/17/17 99/14/14
f 91/12/12 87/18/18 92/11/11
f 91/12/12 89/19/19 88/20/20
f 102/21/21 89/19/19 90/13/13
f 92/11/11 86/6/6 93/5/5
f 94/17/17 23/22/22 15/15/15
f 17/23/23 16/16/16 22/24/24
f 40/25/25 54/26/26 31/27/27
f 47/28/28 54/26/26 59/29/29
f 24/30/30 32/31/31 30/32/32
f 32/31/31 60/33/33 30/32/32
f 37/34/34 38/35/35 49/36/36
f 36/37/37 49/36/36 50/38/38
f 51/39/39 36/37/37 50/38/38
f 34/40/40 51/39/39 52/41/41
f 33/42/42 48/43/43 32/31/31
f 49/36/36 39/44/44 55/45/45
f 50/38/38 55/45/45 56/46/46
f 51/39/39 56/46/46 57/47/47
f 52/41/41 57/47/47 58/48/48
f 62/49/49 48/43/43 54/26/26
f 53/50/50 34/40/40 52/41/41
f 43/51/51 39/44/44 29/52/52
f 56/46/46 43/51/51 44/53/53
f 57/47/47 44/53/53 45/54/54
f 59/29/29 46/55/55 47/28/28
f 30/32/32 61/56/56 42/57/57
f 62/49/49 61/56/56 60/33/33
f 41/58/58 62/49/49 40/25/25
f 64/59/59 39/44/44 8/60/60
f 58/48/48 45/54/54 46/55/55
f 53/50/50 58/48/48 59/29/29
f 59/29/29 48/43/43 53/50/50
f 70/61/61 28/62/62 1/63/63
f 31/27/27 25/64/64 2/65/65
f 26/66/66 33/42/42 32/31/31
f 25/64/64 47/28/28 13/67/67
f 64/68/59 43/51/51 29/52/52
f 3/69/68 34/40/40 33/42/42
f 4/70/69 35/71/70 34/40/40
f 9/72/71 44/53/53 43/51/51
f 5/73/72 36/37/37 35/71/70
f 10/74/73 45/54/54 44/53/53
f 6/75/74 37/34/34 36/37/37
f 11/76/75 46/55/55 45/54/54
f 7/77/76 28/62/62 37/34/34
f 13/67/67 46/55/55 12/78/77
f 70/61/61 39/44/44 38/35/35
f 76/79/78 1/80/63 69/81/79
f 77/82/80 69/81/79 68/83/81
f 78/84/82 68/83/81 67/85/83
f 78/84/82 66/86/84 79/87/85
f 85/88/86 79/87/85 80/89/87
f 8/90/60 76/79/78 81/91/88
f 81/91/88 77/82/80 82/92/89
f 83/93/90 77/82/80 78/84/82
f 83/93/90 79/87/85 84/94/91
f 84/94/91 73/95/92 83/93/90
f 80/89/87 66/86/84 65/96/93
f 81/91/88 64/97/59 8/90/60
f 82/92/89 71/98/94 81/91/88
f 83/93/90 72/99/95 82/92/89
f 85/88/86 74/100/96 84/94/91
f 96/10/10 21/1/1 95/3/3
f 97/9/9 20/101/97 96/10/10
f 113/102/98 16/16/16 15/15/15
f 23/22/22 114/103/99 105/104/100
f 86/6/6 116/105/101 115/106/102
f 14/4/4 115/106/102 114/103/99
f 105/107/100 15/15/15 23/22/22
f 88/20/20 116/105/101 87/18/18
f 89/19/19 117/108/103 88/20/20
f 89/19/19 106/109/104 118/110/105
f 16/16/16 104/111/106 22/24/24
f 101/112/107 107/113/108 40/114/25
f 21/1/1 108/115/109 107/113/108
f 19/8/8 108/115/109 20/101/97
f 17/23/23 104/116/106 111/117/110
f 18/118/111 109/119/112 19/8/8
f 17/23/23 110/120/113 18/118/111
f 99/14/14 18/118/111 98/7/7
f 135/121/114 139/122/115 132/123/116
f 121/124/117 131/125/118 120/126/119
f 128/127/120 139/122/115 127/128/121
f 124/129/122 137/130/123 136/131/124
f 121/124/117 134/132/125 133/133/126
f 129/134/127 140/135/128 128/127/120
f 126/136/129 137/130/123 125/137/130
f 122/138/131 135/121/114 134/132/125
f 130/139/132 141/140/133 129/134/127
f 119/141/134 131/125/118 132/123/116
f 127/128/121 138/142/135 126/136/129
f 123/143/136 136/131/124 135/121/114
f 119/141/134 142/144/137 130/139/132
f 143/145/138 144/146/139 147/147/139
f 147/147/139 146/148/140 145/149/140
f 145/150/140 148/151/138 143/145/138
f 165/152/141 169/153/142 162/154/116
f 150/155/119 163/156/126 161/157/118
f 158/158/120 169/153/142 157/159/143
f 154/160/144 167/161/145 166/162/146
f 151/163/117 164/164/125 163/156/126
f 159/165/127 170/166/128 158/158/120
f 156/167/147 167/161/145 155/168/148
f 153/169/149 164/164/125 152/170/131
f 160/171/132 171/172/133 159/165/127
f 150/155/119 162/154/116 149/173/134
f 157/159/143 168/174/150 156/167/147
f 154/160/144 165/152/141 153/169/149
f 149/173/134 172/175/137 160/171/132
f 173/176/138 174/177/139 177/178/139
f 175/179/140 174/177/139 176/180/140
f 175/181/140 178/182/138 173/176/138
f 180/183/151 181/184/152 179/185/151
f 182/186/152 183/187/153 181/188/152
f 184/189/153 185/190/154 183/187/153
f 185/190/154 188/191/155 187/192/155
f 188/191/155 189/193/156 187/192/155
f 190/194/156 179/185/151 189/193/156
f 194/195/139 193/196/139 191/197/139
f 198/198/157 200/199/157 202/200/157
f 21/1/1 101/112/107 103/2/2
f 14/4/4 94/17/17 93/5/5
f 98/7/7 18/118/111 19/8/8
f 97/9/9 92/11/11 93/5/5
f 96/10/10 91/12/12 92/11/11
f 95/3/3 90/13/13 91/12/12
f 103/2/2 102/21/21 90/13/13
f 99/14/14 94/17/17 15/15/15
f 98/7/7 93/5/5 94/17/17
f 91/12/12 88/20/20 87/18/18
f 91/12/12 90/13/13 89/19/19
f 102/21/21 106/201/104 89/19/19
f 92/11/11 87/18/18 86/6/6
f 94/17/17 14/4/4 23/22/22
f 17/23/23 99/14/14 16/16/16
f 40/25/25 62/49/49 54/26/26
f 47/28/28 31/27/27 54/26/26
f 24/30/30 26/66/66 32/31/31
f 32/31/31 48/43/43 60/33/33
f 37/34/34 28/62/62 38/35/35
f 36/37/37 37/34/34 49/36/36
f 51/39/39 35/71/70 36/37/37
f 34/40/40 35/71/70 51/39/39
f 33/42/42 53/50/50 48/43/43
f 49/36/36 38/35/35 39/44/44
f 50/38/38 49/36/36 55/45/45
f 51/39/39 50/38/38 56/46/46
f 52/41/41 51/39/39 57/47/47
f 62/49/49 60/33/33 48/43/43
f 53/50/50 33/42/42 34/40/40
f 43/51/51 55/45/45 39/44/44
f 56/46/46 55/45/45 43/51/51
f 57/47/47 56/46/46 44/53/53
f 59/29/29 58/48/48 46/55/55
f 30/32/32 60/33/33 61/56/56
f 62/49/49 63/202/158 61/56/56
f 41/58/58 63/202/158 62/49/49
f 64/59/59 29/52/52 39/44/44
f 58/48/48 57/47/47 45/54/54
f 53/50/50 52/41/41 58/48/48
f 59/29/29 54/26/26 48/43/43
f 70/61/61 38/35/35 28/62/62
f 2/65/65 27/203/159 40/25/25
f 40/25/25 31/27/27 2/65/65
f 26/66/66 3/69/68 33/42/42
f 25/64/64 31/27/27 47/28/28
f 64/68/59 9/72/71 43/51/51
f 3/69/68 4/70/69 34/40/40
f 4/70/69 5/73/72 35/71/70
f 9/72/71 10/74/73 44/53/53
f 5/73/72 6/75/74 36/37/37
f 10/74/73 11/76/75 45/54/54
f 6/75/74 7/77/76 37/34/34
f 11/76/75 12/78/77 46/55/55
f 7/77/76 1/204/63 28/62/62
f 13/67/67 47/28/28 46/55/55
f 70/61/61 8/60/60 39/44/44
f 76/79/78 70/205/61 1/80/63
f 77/82/80 76/79/78 69/81/79
f 78/84/82 77/82/80 68/83/81
f 78/84/82 67/85/83 66/86/84
f 85/88/86 84/94/91 79/87/85
f 8/90/60 70/205/61 76/79/78
f 81/91/88 76/79/78 77/82/80
f 83/93/90 82/92/89 77/82/80
f 83/93/90 78/84/82 79/87/85
f 84/94/91 74/100/96 73/95/92
f 80/89/87 79/87/85 66/86/84
f 81/91/88 71/98/94 64/97/59
f 82/92/89 72/99/95 71/98/94
f 83/93/90 73/95/92 72/99/95
f 85/88/86 75/206/160 74/100/96
f 96/10/10 20/101/97 21/1/1
f 97/9/9 19/8/8 20/101/97
f 113/102/98 112/207/161 16/16/16
f 23/22/22 14/4/4 114/103/99
f 86/6/6 87/18/18 116/105/101
f 14/4/4 86/6/6 115/106/102
f 105/107/100 113/102/98 15/15/15
f 88/20/20 117/108/103 116/105/101
f 89/19/19 118/110/105 117/108/103
f 89/19/19 100/208/162 106/109/163
f 16/16/16 112/207/161 104/111/106
f 101/112/107 21/1/1 107/113/108
f 21/1/1 20/101/97 108/115/109
f 19/8/8 109/119/112 108/115/109
f 17/23/23 22/24/24 104/116/106
f 18/118/111 110/120/113 109/119/112
f 17/23/23 111/117/110 110/120/113
f 99/14/14 17/23/23 18/118/111
f 132/123/116 131/125/118 133/133/126
f 133/133/126 134/132/125 132/123/116
f 134/132/125 135/121/114 132/123/116
f 135/121/114 136/131/124 138/142/135
f 136/131/124 137/130/123 138/142/135
f 138/142/135 139/122/115 135/121/114
f 139/122/115 140/135/128 141/140/133
f 141/140/133 142/144/137 132/123/116
f 139/122/115 141/140/133 132/123/116
f 121/124/117 133/133/126 131/125/118
f 128/127/120 140/135/128 139/122/115
f 124/129/122 125/137/130 137/130/123
f 121/124/117 122/138/131 134/132/125
f 129/134/127 141/140/133 140/135/128
f 126/136/129 138/142/135 137/130/123
f 122/138/131 123/143/136 135/121/114
f 130/139/132 142/144/137 141/140/133
f 119/141/134 120/126/119 131/125/118
f 127/128/121 139/122/115 138/142/135
f 123/143/136 124/129/122 136/131/124
f 119/141/134 132/123/116 142/144/137
f 143/145/138 148/151/138 144/146/139
f 147/147/139 144/146/139 146/148/140
f 145/150/140 146/209/140 148/151/138
f 162/154/116 161/157/118 163/156/126
f 163/156/126 164/164/125 162/154/116
f 164/164/125 165/152/141 162/154/116
f 165/152/141 166/162/146 169/153/142
f 166/162/146 167/161/145 168/174/150
f 169/153/142 166/162/146 168/174/150
f 169/153/142 170/166/128 162/154/116
f 170/166/128 171/172/133 162/154/116
f 171/172/133 172/175/137 162/154/116
f 150/155/119 151/163/117 163/156/126
f 158/158/120 170/166/128 169/153/142
f 154/160/144 155/168/148 167/161/145
f 151/163/117 152/170/131 164/164/125
f 159/165/127 171/172/133 170/166/128
f 156/167/147 168/174/150 167/161/145
f 153/169/149 165/152/141 164/164/125
f 160/171/132 172/175/137 171/172/133
f 150/155/119 161/157/118 162/154/116
f 157/159/143 169/153/142 168/174/150
f 154/160/144 166/162/146 165/152/141
f 149/173/134 162/154/116 172/175/137
f 173/176/138 178/182/138 174/177/139
f 175/179/140 177/178/139 174/177/139
f 175/181/140 176/210/140 178/182/138
f 180/183/151 182/211/152 181/184/152
f 182/186/152 184/189/153 183/187/153
f 184/189/153 186/212/154 185/190/154
f 185/190/154 186/212/154 188/191/155
f 188/191/155 190/194/156 189/193/156
f 190/194/156 180/183/151 179/185/151
f 193/196/139 192/213/139 191/197/139
f 191/197/139 196/214/139 195/215/139
f 195/215/139 194/195/139 191/197/139
f 202/200/157 197/216/157 198/198/157
f 198/198/157 199/217/157 200/199/157
f 200/199/157 201/218/157 202/200/157
