# Blender v3.0.1 OBJ File: 'props.blend'
# www.blender.org
mtllib Trash_lamp.mtl
o Lamp_Trash_LOD0_trash.001
v -0.006155 0.030368 -0.543610
v 0.010434 0.046729 0.597942
v 0.009105 0.045346 0.559422
v -0.001745 0.027511 -0.543608
v -0.012654 0.042846 0.558311
v -0.020527 0.015311 0.607665
v -0.010368 0.000839 0.597951
v -0.009034 0.002210 0.559421
v -0.020400 0.015398 0.557646
v 0.013379 0.005343 0.557605
v 0.023516 0.014661 0.597946
v 0.009371 0.003456 0.608801
v 0.020411 0.032242 0.557821
v 0.021603 0.014708 -0.494095
v 0.008244 0.003782 -0.492464
v -0.001480 0.032763 -0.543608
v -0.009033 0.002210 -0.494104
v -0.020760 0.015262 -0.492456
v 0.003039 0.020424 -0.544641
v -0.021534 0.032848 -0.494094
v -0.008171 0.043783 -0.492470
v 0.009105 0.045346 -0.494103
v 0.020832 0.032303 -0.492455
v -0.009366 0.046835 -0.532580
v 0.001877 0.015256 -0.544644
v 0.006933 0.016837 -0.544640
v -0.014083 0.028853 -0.547642
v -0.010070 0.003387 -0.541752
v 0.009439 0.000733 -0.532576
v 0.014153 0.018710 -0.547652
v 0.025974 0.023548 -0.534499
v 0.010135 0.044179 -0.541758
v -0.025907 0.024019 -0.534495
v -0.023449 0.032906 0.597938
v -0.008541 0.044358 0.608429
v 0.019795 0.032804 0.607502
v 0.004427 0.013429 0.608343
v 0.005770 0.019375 0.608363
v -0.001736 0.032311 0.608363
v -0.002015 0.026843 0.608351
v -0.000041 0.017566 0.608350
v -0.006598 0.029821 0.608363
v -0.005044 0.029742 0.625433
v -0.002590 0.028146 0.625410
v -0.002439 0.031078 0.625410
v -0.004784 0.030307 -0.559061
v -0.002073 0.031699 -0.559029
v -0.002227 0.028648 -0.559032
v 0.004687 0.018204 0.625481
v 0.001587 0.017237 0.625493
v 0.003969 0.015032 0.625494
v 0.005621 0.017086 -0.560091
v 0.002687 0.016166 -0.560067
v 0.003363 0.019168 -0.560083
vt 0.119812 0.046613
vt 0.118286 0.033880
vt 0.120703 0.034240
vt 0.123964 0.059036
vt 0.119729 0.046932
vt 0.123964 0.046613
vt 0.119098 0.059742
vt 0.115577 0.047819
vt 0.893206 0.786790
vt 0.892335 0.782793
vt 0.893977 0.783151
vt 0.881342 0.777565
vt 0.883366 0.777046
vt 0.885005 0.777498
vt 0.895801 0.772472
vt 0.894820 0.777496
vt 0.893783 0.773324
vt 0.888286 0.772160
vt 0.887987 0.777446
vt 0.886558 0.773281
vt 0.884140 0.783206
vt 0.882537 0.782798
vt 0.885800 0.782830
vt 0.890726 0.783212
vt 0.889085 0.782838
vt 0.897476 0.769657
vt 0.897167 0.771484
vt 0.896900 0.769698
vt 0.890174 0.776910
vt 0.891789 0.777457
vt 0.892821 0.787987
vt 0.894224 0.788667
vt 0.891556 0.789324
vt 0.891311 0.790439
vt 0.890133 0.788752
vt 0.886692 0.770828
vt 0.887834 0.769118
vt 0.886586 0.786976
vt 0.887458 0.783237
vt 0.883094 0.773457
vt 0.882264 0.786680
vt 0.884119 0.787599
vt 0.890264 0.773205
vt 0.891063 0.787444
vt 0.895561 0.782739
vt 0.893171 0.789862
vt 0.889212 0.786741
vt 0.884690 0.772431
vt 0.618668 0.629697
vt 0.585175 0.628972
vt 0.618678 0.628738
vt 0.895801 0.768003
vt 0.896978 0.769460
vt 0.896664 0.769597
vt 0.897310 0.769376
vt 0.897651 0.767534
vt 0.897651 0.769347
vt 0.618651 0.625869
vt 0.585163 0.626978
vt 0.585174 0.626086
vt 0.124028 0.046613
vt 0.123152 0.034242
vt 0.585160 0.628095
vt 0.618680 0.627773
vt 0.618667 0.626817
vt 0.895801 0.786539
vt 0.896388 0.767742
vt 0.891406 0.771576
vt 0.890797 0.768535
vt 0.111605 0.049315
vt 0.892452 0.769866
vt 0.888893 0.767534
vt 0.896337 0.769824
vt 0.111605 0.044823
vt 0.115939 0.033203
vt 0.897341 0.771739
vt 0.897476 0.771461
vt 0.119801 0.031963
vt 0.897505 0.769657
vt 0.122885 0.061249
vt 0.121504 0.059207
vt 0.895801 0.770036
vt 0.896866 0.771553
vt 0.896578 0.771664
vt 0.115640 0.046031
vt 0.892051 0.772291
vt 0.585195 0.630049
vt 0.897010 0.767584
vt 0.881122 0.772689
vt 0.116791 0.060604
vn 0.4514 -0.8887 -0.0797
vn -0.8047 0.0412 -0.5922
vn 0.3735 -0.7227 -0.5815
vn -0.2440 0.7728 -0.5859
vn -0.6748 -0.7337 -0.0788
vn -0.2945 0.9520 -0.0837
vn 0.7883 -0.1787 -0.5888
vn 0.9725 -0.2164 -0.0860
vn -0.9562 -0.0079 -0.2926
vn -0.8989 -0.3952 0.1894
vn -0.7508 0.3475 0.5618
vn -0.5413 0.8287 -0.1421
vn 0.2867 0.7700 -0.5700
vn 0.9156 0.3702 -0.1569
vn -0.2738 0.6769 0.6833
vn -0.9124 0.3466 0.2178
vn 0.2904 -0.6657 0.6874
vn 0.5577 -0.8181 -0.1403
vn 0.9199 -0.3244 0.2204
vn 0.3356 0.7747 0.5359
vn -0.3699 0.9034 0.2167
vn 0.8989 0.3959 0.1879
vn -0.3357 -0.7748 0.5358
vn 0.3696 -0.9038 0.2156
vn 0.5404 0.8373 0.0829
vn 0.3718 -0.7224 0.5830
vn 0.4508 -0.8888 0.0831
vn -0.2853 -0.7832 -0.5524
vn -0.9167 -0.3634 -0.1662
vn -0.4477 0.2088 -0.8695
vn -0.3911 0.8802 -0.2690
vn 0.4476 -0.2089 -0.8695
vn 0.9562 0.0081 -0.2925
vn 0.3911 -0.8801 -0.2690
vn 0.6770 0.2994 0.6723
vn 0.7509 -0.3476 0.5615
vn 0.3954 0.8909 0.2234
vn 0.3774 0.7370 -0.5606
vn -0.3842 -0.8957 0.2238
vn -0.3776 -0.7370 -0.5605
vn 0.6760 0.7310 0.0929
vn -0.7866 0.1793 0.5908
vn 0.5494 0.5950 0.5867
vn 0.2402 -0.7700 0.5910
vn 0.5393 0.8384 -0.0787
vn 0.4448 0.6822 -0.5803
vn -0.9715 0.2167 0.0964
vn -0.6876 -0.2823 0.6689
vn -0.9946 0.0498 0.0908
vn -0.8049 0.0414 0.5920
vn 0.4438 0.6807 0.5828
vn -0.5525 -0.5986 -0.5800
vn -0.9948 0.0503 -0.0885
vn 0.2926 -0.9513 0.0967
usemtl M_Interior
s 1
f 4/1/1 46/2/2 48/3/3
f 54/4/4 25/5/5 19/6/6
f 25/5/5 52/7/7 26/8/8
f 33/9/9 18/10/10 20/11/11
f 5/12/12 3/13/13 13/14/14
f 35/15/15 5/16/12 34/17/16
f 12/18/17 10/19/18 11/20/19
f 22/21/20 21/22/21 23/23/22
f 17/24/23 15/25/24 18/10/10
f 39/26/25 44/27/26 40/28/27
f 10/19/18 8/29/28 9/30/29
f 27/31/30 33/9/9 24/32/31
f 30/33/32 31/34/33 29/35/34
f 11/36/19 36/37/35 12/18/17
f 31/38/33 23/23/22 14/39/36
f 33/9/9 17/24/23 18/10/10
f 31/38/33 22/21/20 23/23/22
f 2/40/37 13/14/14 3/13/13
f 24/41/31 22/21/20 32/42/38
f 10/19/18 7/43/39 8/29/28
f 27/31/30 28/44/40 33/9/9
f 9/30/29 34/17/16 5/16/12
f 18/10/10 21/45/21 20/11/11
f 30/33/32 32/46/38 31/34/33
f 14/39/36 29/47/34 31/38/33
f 17/24/23 29/47/34 15/25/24
f 11/20/19 13/14/14 36/48/35
f 21/49/21 13/50/14 23/51/22
f 38/52/41 50/53/42 49/54/43
f 23/23/22 15/25/24 14/39/36
f 51/55/44 38/56/41 49/57/43
f 7/43/39 9/30/29 8/29/28
f 5/12/12 2/40/37 3/13/13
f 21/58/21 9/59/29 5/60/12
f 16/61/45 48/3/3 47/62/46
f 10/63/18 23/51/22 13/50/14
f 15/64/24 9/59/29 18/65/10
f 20/11/11 24/66/31 33/9/9
f 41/67/47 51/55/44 50/53/42
f 6/68/48 36/37/35 35/69/15
f 52/7/7 19/70/6 26/8/8
f 32/46/38 27/31/30 24/32/31
f 28/44/40 30/33/32 29/35/34
f 30/33/32 27/31/30 32/46/38
f 6/68/48 35/69/15 34/71/16
f 35/69/15 36/37/35 2/72/37
f 12/18/17 6/68/48 7/43/39
f 44/27/26 42/73/49 40/28/27
f 46/2/2 16/74/45 47/75/46
f 43/76/50 44/27/26 45/77/51
f 46/2/2 47/78/46 48/3/3
f 49/57/43 50/79/42 51/55/44
f 52/80/7 53/81/52 54/4/4
f 39/82/25 43/83/50 45/84/51
f 4/1/1 1/85/53 46/2/2
f 54/4/4 53/81/52 25/5/5
f 25/5/5 53/81/52 52/7/7
f 39/26/25 45/77/51 44/27/26
f 33/9/9 28/44/40 17/24/23
f 31/38/33 32/42/38 22/21/20
f 2/40/37 36/48/35 13/14/14
f 24/41/31 21/22/21 22/21/20
f 10/19/18 12/18/17 7/43/39
f 9/30/29 6/86/48 34/17/16
f 14/39/36 15/25/24 29/47/34
f 17/24/23 28/44/40 29/47/34
f 11/20/19 10/19/18 13/14/14
f 21/49/21 5/87/12 13/50/14
f 38/52/41 41/67/47 50/53/42
f 51/55/44 37/88/54 38/56/41
f 7/43/39 6/86/48 9/30/29
f 5/12/12 35/89/15 2/40/37
f 21/58/21 18/65/10 9/59/29
f 16/61/45 4/1/1 48/3/3
f 10/63/18 15/64/24 23/51/22
f 15/64/24 10/63/18 9/59/29
f 20/11/11 21/45/21 24/66/31
f 41/67/47 37/88/54 51/55/44
f 6/68/48 12/18/17 36/37/35
f 52/7/7 54/90/4 19/70/6
f 30/33/32 28/44/40 27/31/30
f 44/27/26 43/83/50 42/73/49
f 46/2/2 1/85/53 16/74/45
f 39/82/25 42/73/49 43/83/50
