# Blender v3.0.1 OBJ File: 'props.blend'
# www.blender.org
mtllib Tumb02.mtl
o Tumb02_LOD0_Shelf01.002
v 0.206370 0.115844 -0.486784
v -0.390718 0.115844 -0.486784
v 0.206370 0.115844 0.654548
v -0.390718 0.115844 0.654548
v 0.206370 0.149420 -0.486784
v 0.206370 0.835203 0.654550
v -0.374810 0.385484 0.654548
v -0.408405 0.835203 0.654548
v -0.374810 0.149420 -0.486784
v -0.374811 0.385484 -0.486784
v 0.206370 0.419061 0.654548
v 0.206370 0.385484 0.654548
v 0.206370 0.419061 -0.486784
v 0.206370 0.385484 -0.486784
v -0.374811 0.419060 -0.486784
v -0.374810 0.419060 0.654548
v -0.374810 0.149420 0.654548
v 0.206370 0.149420 0.654548
v 0.206370 0.835203 -0.520377
v 0.206370 0.002992 -0.520377
v 0.206370 0.835203 0.688142
v 0.206370 0.002992 0.688142
v -0.408405 0.002992 -0.520379
v -0.408405 0.835203 -0.520379
v 0.206370 0.002992 0.654550
v -0.408405 0.835203 -0.486784
v 0.206370 0.835203 -0.486784
v 0.206370 0.002992 -0.486784
v -0.408405 0.002992 0.654548
v -0.408405 0.002990 0.688141
v -0.408405 0.835202 0.688142
v -0.408405 0.002990 -0.486787
v 0.206370 0.801707 -0.486784
v -0.408405 0.801706 -0.486784
v 0.206370 0.835203 0.654550
v -0.408405 0.835203 0.654548
v -0.408405 0.801706 0.654548
v 0.206370 0.801706 0.654548
v -0.408405 0.835203 -0.486784
v 0.206370 0.835203 -0.486784
v -0.408405 0.002990 -0.486787
v -0.408405 0.002992 0.654548
v 0.206370 0.002992 -0.486784
v 0.206370 0.835203 -0.486784
v -0.408405 0.835203 -0.486784
v 0.206370 0.002992 0.654550
v -0.408405 0.835203 0.654548
v 0.206370 0.835203 0.654550
v 0.206370 0.801707 -0.486784
v 0.206370 0.835203 0.654550
v 0.206370 0.801706 0.654548
v 0.206370 0.835203 -0.486784
v -0.408405 0.801706 -0.486784
v -0.408405 0.835203 0.654548
v -0.408405 0.801706 0.654548
v -0.408405 0.835203 -0.486784
v 0.206370 0.149420 -0.486784
v -0.374810 0.385484 0.654548
v -0.374810 0.115844 0.654548
v 0.206370 0.115844 0.654548
v -0.374810 0.149420 -0.486784
v -0.374811 0.385484 -0.486784
v 0.206370 0.419061 0.654548
v 0.206370 0.385484 0.654548
v 0.206370 0.419061 -0.486784
v 0.206370 0.385484 -0.486784
v -0.374811 0.419060 -0.486784
v -0.374810 0.419060 0.654548
v -0.374810 0.115844 -0.486784
v -0.374810 0.149420 0.654548
v 0.206370 0.115844 -0.486784
v 0.206370 0.149420 0.654548
v -0.390718 0.113632 -0.486783
v -0.390726 0.113632 0.654550
v -0.390727 0.832991 0.654550
v -0.390724 0.833017 -0.486784
v -0.357132 0.147208 -0.486783
v -0.357140 0.147208 0.654550
v -0.357132 0.799495 0.654550
v -0.357130 0.799520 -0.486784
vt 0.446659 0.767707
vt 0.479991 0.750270
vt 0.479991 0.767707
vt 0.479991 0.822549
vt 0.446659 0.805576
vt 0.479991 0.805576
vt 0.446659 0.768688
vt 0.479991 0.785661
vt 0.446659 0.785661
vt 0.446659 0.804595
vt 0.479991 0.787622
vt 0.479991 0.804595
vt 0.467456 0.967138
vt 0.485410 0.967138
vt 0.485410 0.991442
vt 0.467456 0.991442
vt 0.466475 0.967138
vt 0.466475 0.991442
vt 0.274921 0.974462
vt 0.274921 0.975443
vt 0.250617 0.975443
vt 0.250617 0.974462
vt 0.250617 0.993397
vt 0.274921 0.993397
vt 0.250617 0.994378
vt 0.274921 0.994378
vt 0.275903 0.993397
vt 0.275903 0.975443
vt 0.486392 0.991442
vt 0.486392 0.967138
vt 0.485410 0.966157
vt 0.467456 0.966157
vt 0.445466 0.966157
vt 0.478798 0.948202
vt 0.478798 0.966157
vt 0.445466 0.948202
vt 0.479991 0.787622
vt 0.446659 0.786641
vt 0.479991 0.786641
vt 0.445466 0.929270
vt 0.478798 0.928292
vt 0.478798 0.929270
vt 0.445466 0.947224
vt 0.445466 0.929270
vt 0.478798 0.929270
vt 0.478798 0.947224
vt 0.479991 0.785661
vt 0.446659 0.786641
vt 0.446659 0.785661
vt 0.464613 0.887398
vt 0.446659 0.887398
vt 0.446659 0.863094
vt 0.464613 0.863094
vt 0.496752 0.952596
vt 0.478798 0.952596
vt 0.478798 0.928292
vt 0.496752 0.928292
vt 0.445466 0.948202
vt 0.445466 0.947224
vt 0.478798 0.947224
vt 0.478798 0.948202
vt 0.446659 0.805576
vt 0.479991 0.804595
vt 0.479991 0.805576
vt 0.479991 0.768688
vt 0.446659 0.767707
vt 0.479991 0.767707
vt 0.466475 0.966157
vt 0.445467 0.999489
vt 0.445466 0.966157
vt 0.466475 0.999489
vt 0.425832 0.953867
vt 0.444882 0.953867
vt 0.444882 0.987199
vt 0.425832 0.987199
vt 0.446659 0.750270
vt 0.446659 0.822549
vt 0.479991 0.768688
vt 0.446659 0.787622
vt 0.446659 0.787622
vt 0.445466 0.928292
vt 0.479991 0.786641
vt 0.446659 0.804595
vt 0.446659 0.768688
vn 0.0000 -1.0000 0.0000
vn -0.0000 1.0000 0.0000
vn 0.0000 0.0000 -1.0000
vn -1.0000 0.0000 0.0000
vn 1.0000 0.0000 0.0000
vn -0.0000 -0.0000 1.0000
usemtl M_Interior
s 1
f 3/1/1 2/2/1 1/3/1
f 7/4/1 14/5/1 12/6/1
f 18/7/2 9/8/2 17/9/2
f 13/10/2 16/11/2 11/12/2
f 24/13/3 19/14/3 20/15/3
f 24/13/3 20/15/3 23/16/3
f 23/16/4 26/17/4 24/13/4
f 23/16/4 32/18/4 26/17/4
f 6/19/5 21/20/5 22/21/5
f 6/19/5 22/21/5 25/22/5
f 30/23/6 21/20/6 31/24/6
f 30/23/6 22/21/6 21/20/6
f 29/25/4 31/24/4 8/26/4
f 29/25/4 30/23/4 31/24/4
f 8/27/2 21/20/2 6/28/2
f 8/27/2 31/24/2 21/20/2
f 19/14/5 28/29/5 20/15/5
f 19/14/5 27/30/5 28/29/5
f 24/13/2 27/31/2 19/14/2
f 24/13/2 26/32/2 27/31/2
f 34/33/1 38/34/1 37/35/1
f 34/33/1 33/36/1 38/34/1
f 68/37/4 62/38/4 58/39/4
f 56/40/4 55/41/4 54/42/4
f 40/43/2 39/44/2 36/45/2
f 40/43/2 36/45/2 35/46/2
f 61/47/4 59/48/4 70/49/4
f 41/50/6 43/51/6 44/52/6
f 41/50/6 44/52/6 45/53/6
f 47/54/3 48/55/3 46/56/3
f 47/54/3 46/56/3 42/57/3
f 49/58/5 52/59/5 50/60/5
f 49/58/5 50/60/5 51/61/5
f 66/62/5 63/63/5 64/64/5
f 57/65/5 60/66/5 71/67/5
f 73/68/4 75/69/4 76/70/4
f 73/68/4 74/71/4 75/69/4
f 77/72/5 80/73/5 79/74/5
f 77/72/5 79/74/5 78/75/5
f 3/1/1 4/76/1 2/2/1
f 7/4/1 10/77/1 14/5/1
f 18/7/2 5/78/2 9/8/2
f 13/10/2 15/79/2 16/11/2
f 68/37/4 67/80/4 62/38/4
f 56/40/4 53/81/4 55/41/4
f 61/47/4 69/82/4 59/48/4
f 66/62/5 65/83/5 63/63/5
f 57/65/5 72/84/5 60/66/5
