# Blender v3.0.1 OBJ File: 'props.blend'
# www.blender.org
mtllib WallShelf_a.mtl
o WallShelf_a_LOD0_Cube.021
v 0.327557 -0.020579 0.700109
v 0.327557 0.020579 0.700109
v 0.002472 -0.020579 0.700109
v 0.002472 0.020579 0.700109
v 0.327557 -0.020579 -0.680438
v 0.327557 0.020579 -0.680438
v 0.002472 -0.020579 -0.680438
v 0.002472 0.020579 -0.680438
v 0.327557 -0.022058 0.581682
v 0.002472 -0.020579 0.581682
v 0.002472 -0.143072 0.581682
v 0.327557 -0.022058 0.544427
v 0.002472 -0.020579 0.544427
v 0.002472 -0.143072 0.544427
v 0.002472 -0.020579 -0.562011
v 0.327557 -0.020579 -0.562010
v 0.327557 -0.020579 -0.524755
v 0.002472 -0.020579 -0.524755
v 0.002472 -0.143072 -0.524755
v 0.002472 -0.143072 -0.562011
v 0.002472 0.020579 0.700109
v 0.002472 -0.020579 0.700109
v 0.327557 0.020579 0.700109
v 0.327557 -0.020579 0.700109
v 0.002472 -0.028226 0.088050
v 0.002472 0.012931 0.088050
v 0.327557 -0.028226 0.088050
v 0.327557 0.012931 0.088050
v 0.327557 -0.020579 -0.680438
v 0.327557 0.020579 -0.680438
v 0.002472 -0.020579 -0.680438
v 0.002472 0.020579 -0.680438
vt 0.813110 0.222282
vt 0.812058 0.239112
vt 0.811970 0.222282
vt 0.802378 0.201125
vt 0.802358 0.222305
vt 0.822774 0.239085
vt 0.822726 0.222282
vt 0.812676 0.248192
vt 0.811574 0.244985
vt 0.821756 0.245027
vt 0.823526 0.245027
vt 0.833141 0.244971
vt 0.823561 0.248418
vt 0.781477 0.245661
vt 0.791668 0.244732
vt 0.791659 0.245757
vt 0.833176 0.248335
vt 0.833146 0.244944
vt 0.823561 0.248418
vt 0.821756 0.245027
vt 0.812682 0.248208
vt 0.822878 0.248227
vt 0.791891 0.245831
vt 0.802097 0.244918
vt 0.802086 0.245942
vt 0.791290 0.239403
vt 0.800905 0.240543
vt 0.791290 0.240543
vt 0.810965 0.239910
vt 0.801350 0.241049
vt 0.810965 0.241049
vt 0.813165 0.201134
vt 0.822774 0.201156
vt 0.802436 0.239157
vt 0.812030 0.201142
vt 0.813194 0.239121
vt 0.781487 0.244636
vt 0.791902 0.244806
vt 0.800905 0.239403
vt 0.801350 0.239910
vn 1.0000 0.0000 0.0000
vn 0.0000 -1.0000 -0.0100
vn 0.0000 0.9999 -0.0125
vn -0.0000 0.0000 1.0000
vn 0.0000 0.0000 -1.0000
vn 0.3489 -0.9372 0.0000
vn 0.3526 -0.9358 -0.0000
vn -0.0000 1.0000 0.0100
vn -0.0000 -0.9999 0.0125
usemtl M_Interior
s 1
f 28/1/1 1/2/1 27/3/1
f 7/4/2 27/3/2 25/5/2
f 4/6/3 28/1/3 26/7/3
f 10/8/4 11/9/4 9/10/4
f 13/11/5 12/12/5 14/13/5
f 11/14/6 12/15/6 9/16/6
f 18/17/4 19/18/4 17/19/4
f 15/20/5 16/21/5 20/22/5
f 19/23/7 16/24/7 17/25/7
f 32/26/5 29/27/5 31/28/5
f 23/29/4 22/30/4 24/31/4
f 26/7/8 6/32/8 8/33/8
f 25/5/9 1/2/9 3/34/9
f 5/35/1 28/1/1 27/3/1
f 28/1/1 2/36/1 1/2/1
f 7/4/2 5/35/2 27/3/2
f 4/6/3 2/36/3 28/1/3
f 11/14/6 14/37/6 12/15/6
f 19/23/7 20/38/7 16/24/7
f 32/26/5 30/39/5 29/27/5
f 23/29/4 21/40/4 22/30/4
f 26/7/8 28/1/8 6/32/8
f 25/5/9 27/3/9 1/2/9
f 5/35/1 6/32/1 28/1/1
