# Blender v3.0.1 OBJ File: 'props.blend'
# www.blender.org
mtllib WallShelf_c.mtl
o WallShelf_c_LOD0_Cube.023
v 0.327557 -0.020579 0.700109
v 0.327557 0.020579 0.700109
v 0.002472 -0.020579 0.700109
v 0.002472 0.020579 0.700109
v 0.327557 -0.020579 -0.680438
v 0.327557 0.020579 -0.680438
v 0.002472 -0.020579 -0.680438
v 0.002472 0.020579 -0.680438
v 0.327557 -0.022058 0.581682
v 0.002472 -0.020579 -0.524755
v 0.002472 -0.143072 0.581682
v 0.327557 -0.022058 0.544427
v 0.327557 -0.020579 -0.524755
v 0.002472 -0.143072 0.544427
v 0.327557 -0.020579 -0.562010
v 0.327557 -0.020579 -0.524755
v 0.002472 -0.143072 -0.524755
v 0.002472 -0.143072 -0.562011
v 0.002472 -0.024677 -0.268568
v 0.002472 0.016480 -0.268568
v 0.327557 -0.024677 -0.268568
v 0.327557 0.016480 -0.268568
v 0.327557 -0.020579 -0.562010
v 0.303630 -0.026328 0.581682
v 0.006570 -0.136910 0.581682
v 0.303630 -0.026328 0.544427
v 0.002472 -0.020579 -0.562011
v 0.006570 -0.136910 0.544427
v 0.006570 -0.136885 -0.524755
v 0.303614 -0.024958 -0.524755
v 0.303614 -0.024958 -0.562010
v 0.006570 -0.136885 -0.562011
v 0.002472 -0.020579 0.581682
v 0.002472 -0.143072 0.581682
v 0.002472 -0.020579 0.544427
v 0.002472 -0.143072 0.544427
v 0.006570 -0.024976 0.581682
v 0.006570 -0.136910 0.581682
v 0.006570 -0.024976 0.544427
v 0.006570 -0.136910 0.544427
v 0.327557 -0.022058 0.581682
v 0.002472 -0.020579 0.581682
v 0.327557 -0.022058 0.544427
v 0.002472 -0.020579 0.544427
v 0.006570 -0.024976 0.581682
v 0.303630 -0.026328 0.581682
v 0.303630 -0.026328 0.544427
v 0.006570 -0.024976 0.544427
v 0.006570 -0.024958 -0.524755
v 0.303614 -0.024958 -0.524755
v 0.303614 -0.024958 -0.562010
v 0.006570 -0.024958 -0.562011
v 0.002472 -0.020579 -0.562011
v 0.002472 -0.020579 -0.524755
v 0.002472 -0.143072 -0.524755
v 0.002472 -0.143072 -0.562011
v 0.006570 -0.024958 -0.524755
v 0.006570 -0.136885 -0.524755
v 0.006570 -0.024958 -0.562011
v 0.006570 -0.136885 -0.562011
v 0.327557 -0.020579 0.700109
v 0.327557 0.020579 0.700109
v 0.002472 -0.020579 0.700109
v 0.002472 0.020579 0.700109
v 0.327557 -0.020579 -0.680438
v 0.327557 0.020579 -0.680438
v 0.002472 -0.020579 -0.680438
v 0.002472 0.020579 -0.680438
vt 0.823197 0.212476
vt 0.832848 0.201144
vt 0.832813 0.212474
vt 0.833952 0.212472
vt 0.832866 0.239120
vt 0.791162 0.242118
vt 0.781547 0.240978
vt 0.791162 0.240978
vt 0.781547 0.239416
vt 0.791162 0.240555
vt 0.781547 0.240555
vt 0.843596 0.239110
vt 0.843571 0.212483
vt 0.822084 0.244689
vt 0.813298 0.243664
vt 0.822084 0.243664
vt 0.822779 0.244825
vt 0.832083 0.243800
vt 0.832083 0.244825
vt 0.822609 0.243679
vt 0.832791 0.242654
vt 0.832791 0.243679
vt 0.822766 0.240842
vt 0.832083 0.239817
vt 0.832083 0.240842
vt 0.805946 0.243284
vt 0.809044 0.244309
vt 0.809044 0.243284
vt 0.822595 0.241988
vt 0.832791 0.240964
vt 0.832791 0.241988
vt 0.833985 0.201136
vt 0.843596 0.201158
vt 0.823246 0.239138
vt 0.782255 0.243687
vt 0.791162 0.243808
vt 0.781547 0.243808
vt 0.813298 0.244689
vt 0.822205 0.244810
vt 0.812590 0.244810
vt 0.782255 0.242662
vt 0.791162 0.242541
vt 0.791040 0.242662
vt 0.822205 0.243543
vt 0.832083 0.242533
vt 0.822609 0.242654
vt 0.822779 0.242533
vt 0.832083 0.242110
vt 0.805824 0.243163
vt 0.805824 0.244430
vt 0.809215 0.244430
vt 0.822595 0.240964
vt 0.791040 0.243687
vt 0.805946 0.241593
vt 0.809045 0.242618
vt 0.809045 0.241593
vt 0.805824 0.242740
vt 0.809215 0.242740
vt 0.805824 0.241472
vt 0.823212 0.201125
vt 0.834003 0.239123
vt 0.781547 0.242118
vt 0.791162 0.239416
vt 0.822779 0.243800
vt 0.822766 0.239817
vt 0.805946 0.244309
vt 0.781547 0.242541
vt 0.812590 0.243543
vt 0.822766 0.242110
vt 0.809215 0.243163
vt 0.805946 0.242618
vt 0.809215 0.241472
vn -0.0000 -1.0000 0.0044
vn 0.0000 -1.0000 -0.0100
vn 0.0000 -1.0000 -0.0029
vn 1.0000 0.0000 0.0000
vn -0.0000 0.0000 1.0000
vn 0.0000 0.0000 -1.0000
vn 0.0000 1.0000 -0.0042
vn 0.0000 1.0000 -0.0028
vn -0.0000 1.0000 0.0085
vn -0.0046 -1.0000 0.0000
vn -0.3489 0.9372 -0.0000
vn 0.3489 -0.9372 0.0000
vn -0.3526 0.9358 -0.0000
vn 0.3526 -0.9358 -0.0000
vn -0.0000 1.0000 0.0100
vn -0.0000 -1.0000 0.0046
vn -0.0000 -1.0000 0.0042
vn 0.0000 -1.0000 0.0000
usemtl M_Interior
s 1
f 19/1/1 5/2/2 21/3/3
f 22/4/4 1/5/4 21/3/4
f 62/6/5 63/7/5 61/8/5
f 68/9/6 65/10/6 67/11/6
f 4/12/7 22/4/8 20/13/9
f 48/14/10 46/15/10 45/16/10
f 28/17/11 24/18/11 26/19/11
f 11/20/12 12/21/12 9/22/12
f 32/23/13 30/24/13 31/25/13
f 59/26/4 58/27/4 60/28/4
f 17/29/14 15/30/14 16/31/14
f 20/13/9 6/32/15 8/33/15
f 19/1/16 1/5/17 3/34/17
f 5/2/4 22/4/4 21/3/4
f 51/35/6 27/36/6 23/37/6
f 47/38/6 44/39/6 43/40/6
f 50/41/5 10/42/5 49/43/5
f 46/15/5 42/44/5 45/16/5
f 24/18/5 11/20/5 9/22/5
f 26/45/6 14/46/6 28/47/6
f 30/48/5 17/29/5 16/31/5
f 60/28/6 53/49/6 59/26/6
f 58/27/5 54/50/5 55/51/5
f 31/25/6 18/52/6 32/23/6
f 52/53/18 50/41/18 49/43/18
f 39/54/4 38/55/4 40/56/4
f 38/55/5 33/57/5 34/58/5
f 40/56/6 35/59/6 39/54/6
f 19/1/2 7/60/2 5/2/2
f 22/4/4 2/61/4 1/5/4
f 62/6/5 64/62/5 63/7/5
f 68/9/6 66/63/6 65/10/6
f 4/12/7 2/61/7 22/4/8
f 48/14/10 47/38/10 46/15/10
f 28/17/11 25/64/11 24/18/11
f 11/20/12 14/46/12 12/21/12
f 32/23/13 29/65/13 30/24/13
f 59/26/4 57/66/4 58/27/4
f 17/29/14 18/52/14 15/30/14
f 20/13/9 22/4/8 6/32/15
f 19/1/1 21/3/3 1/5/17
f 5/2/4 6/32/4 22/4/4
f 51/35/6 52/53/6 27/36/6
f 47/38/6 48/14/6 44/39/6
f 50/41/5 13/67/5 10/42/5
f 46/15/5 41/68/5 42/44/5
f 24/18/5 25/64/5 11/20/5
f 26/45/6 12/21/6 14/46/6
f 30/48/5 29/69/5 17/29/5
f 60/28/6 56/70/6 53/49/6
f 58/27/5 57/66/5 54/50/5
f 31/25/6 15/30/6 18/52/6
f 52/53/18 51/35/18 50/41/18
f 39/54/4 37/71/4 38/55/4
f 38/55/5 37/71/5 33/57/5
f 40/56/6 36/72/6 35/59/6
