# Blender v3.0.1 OBJ File: 'props.blend'
# www.blender.org
mtllib WallShelf_b.mtl
o WallShelf_b_LOD0_Cube.022
v 0.327557 -0.020579 0.700109
v 0.327557 0.020579 0.700109
v 0.002472 -0.020579 0.700109
v 0.002472 0.020579 0.700109
v 0.327557 -0.020579 -0.680438
v 0.327557 0.020579 -0.680438
v 0.002472 -0.020579 -0.680438
v 0.002472 0.020579 -0.680438
v 0.327557 0.020579 -0.680438
v 0.002472 0.020579 0.662854
v 0.007526 0.161317 -0.680438
v 0.327557 0.020579 -0.643182
v 0.327557 0.020579 0.662854
v 0.007526 0.161317 -0.643182
v 0.327557 0.020579 0.700109
v 0.327557 0.020579 0.662854
v 0.007525 0.161317 0.662854
v 0.007525 0.161317 0.700109
v 0.327557 0.020579 0.700109
v 0.298032 0.025978 -0.680438
v 0.002472 0.171964 -0.680438
v 0.298032 0.025978 -0.643182
v 0.002472 0.020579 0.700109
v 0.002472 0.171964 -0.643182
v 0.002472 0.171964 0.662854
v 0.298032 0.025978 0.700109
v 0.298032 0.025978 0.662854
v 0.002472 0.171964 0.700109
v 0.002472 -0.026739 -0.335301
v 0.002472 -0.027971 0.081073
v 0.002472 -0.025507 0.381011
v 0.002472 0.015650 0.381011
v 0.002472 0.013186 0.081073
v 0.002472 0.014418 -0.335301
v 0.327557 -0.025507 0.381011
v 0.327557 -0.027971 0.081073
v 0.327557 -0.026739 -0.335301
v 0.327557 0.014418 -0.335301
v 0.327557 0.013186 0.081073
v 0.327557 0.015650 0.381011
v 0.002472 0.020579 -0.643182
v 0.327557 0.020579 -0.643182
v 0.002472 0.020579 -0.680438
v 0.327557 0.020579 -0.680438
v 0.007526 0.025978 -0.680438
v 0.298032 0.025978 -0.680438
v 0.298032 0.025978 -0.643182
v 0.007526 0.025978 -0.643182
v 0.002472 0.020579 -0.680438
v 0.007526 0.161317 -0.680438
v 0.002472 0.020579 -0.643182
v 0.007526 0.161317 -0.643182
v 0.007526 0.025978 -0.680438
v 0.002472 0.171964 -0.680438
v 0.007526 0.025978 -0.643182
v 0.002472 0.171964 -0.643182
v 0.298032 0.025978 0.700109
v 0.298032 0.025978 0.662854
v 0.007525 0.025978 0.662854
v 0.007525 0.025978 0.700109
v 0.002472 0.020579 0.700109
v 0.002472 0.020579 0.662854
v 0.007525 0.161317 0.662854
v 0.007525 0.161317 0.700109
v 0.002472 0.171964 0.662854
v 0.007525 0.025978 0.662854
v 0.007525 0.025978 0.700109
v 0.002472 0.171964 0.700109
v 0.327557 -0.020579 0.700109
v 0.327557 0.020579 0.700109
v 0.002472 -0.020579 0.700109
v 0.002472 0.020579 0.700109
v 0.327557 -0.020579 -0.680438
v 0.327557 0.020579 -0.680438
v 0.002472 -0.020579 -0.680438
v 0.002472 0.020579 -0.680438
vt 0.791290 0.242529
vt 0.800905 0.243668
vt 0.791290 0.243668
vt 0.800905 0.242105
vt 0.791290 0.240966
vt 0.800905 0.240966
vt 0.792303 0.230362
vt 0.791203 0.239121
vt 0.791165 0.230352
vt 0.781543 0.201125
vt 0.791143 0.210652
vt 0.781519 0.210646
vt 0.801906 0.230340
vt 0.792341 0.239134
vt 0.813404 0.242739
vt 0.821996 0.241714
vt 0.821996 0.242739
vt 0.843339 0.239728
vt 0.833965 0.240752
vt 0.833965 0.239727
vt 0.843593 0.240964
vt 0.833105 0.241988
vt 0.833105 0.240964
vt 0.843339 0.244071
vt 0.833965 0.245097
vt 0.833965 0.244072
vt 0.843593 0.242835
vt 0.833105 0.243860
vt 0.833105 0.242835
vt 0.801505 0.242647
vt 0.805401 0.242796
vt 0.805252 0.242647
vt 0.822146 0.242888
vt 0.812531 0.242888
vt 0.801505 0.241622
vt 0.805401 0.241472
vt 0.801211 0.241472
vt 0.813404 0.241714
vt 0.822146 0.241565
vt 0.833965 0.242200
vt 0.843593 0.241988
vt 0.843339 0.242199
vt 0.833965 0.242624
vt 0.801505 0.244394
vt 0.805401 0.244543
vt 0.805252 0.244394
vt 0.801505 0.243369
vt 0.805401 0.243219
vt 0.801211 0.243219
vt 0.843593 0.243860
vt 0.801903 0.210667
vt 0.792322 0.201141
vt 0.801934 0.201174
vt 0.801894 0.222104
vt 0.792282 0.210642
vt 0.792284 0.222106
vt 0.781552 0.230386
vt 0.781591 0.239163
vt 0.781526 0.222124
vt 0.791143 0.222105
vt 0.791185 0.201157
vt 0.813404 0.240992
vt 0.821996 0.239967
vt 0.821996 0.240992
vt 0.822146 0.241141
vt 0.812531 0.241141
vt 0.813404 0.239967
vt 0.822146 0.239817
vt 0.800905 0.242529
vt 0.791290 0.242105
vt 0.801934 0.239099
vt 0.843339 0.240753
vt 0.843339 0.245096
vt 0.801211 0.242796
vt 0.805252 0.241622
vt 0.812531 0.241565
vt 0.843339 0.242625
vt 0.801211 0.244543
vt 0.805252 0.243369
vt 0.812531 0.239817
vn 0.0000 0.0000 -1.0000
vn -0.0000 0.0000 1.0000
vn 1.0000 0.0000 0.0000
vn 0.0000 -0.9998 -0.0178
vn 0.0000 -0.9999 -0.0164
vn 0.0000 -1.0000 -0.0044
vn 0.0000 0.9999 -0.0136
vn 0.0000 0.9999 -0.0154
vn -0.0000 1.0000 -0.0090
vn -0.0000 1.0000 -0.0000
vn -0.4223 -0.9065 0.0000
vn 0.4222 0.9065 0.0000
vn 0.4221 0.9065 0.0000
vn -0.0000 0.9999 0.0164
vn -0.0000 0.9998 0.0178
vn 0.0000 1.0000 -0.0026
vn -0.0000 1.0000 0.0044
vn -0.0000 -0.9999 0.0147
vn -0.0000 -0.9999 0.0154
vn -0.0000 -1.0000 0.0070
vn 0.0000 -1.0000 0.0089
vn 0.0000 -1.0000 -0.0018
usemtl M_Interior
s 1
f 76/1/1 73/2/1 75/3/1
f 70/4/2 71/5/2 69/6/2
f 40/7/3 1/8/3 35/9/3
f 7/10/4 37/11/5 29/12/6
f 32/13/7 2/14/8 40/7/9
f 57/15/10 59/16/10 60/17/10
f 14/18/11 20/19/11 22/20/11
f 21/21/12 12/22/12 9/23/12
f 18/24/11 27/25/11 26/26/11
f 25/27/13 15/28/12 16/29/12
f 52/30/2 51/31/2 55/32/2
f 57/15/2 23/33/2 19/34/2
f 50/35/1 49/36/1 54/37/1
f 58/38/1 10/39/1 59/16/1
f 20/19/1 21/21/1 9/23/1
f 22/40/2 24/41/2 14/42/2
f 27/43/1 25/27/1 16/29/1
f 64/44/2 61/45/2 67/46/2
f 63/47/1 62/48/1 65/49/1
f 26/26/2 28/50/2 18/24/2
f 67/46/3 63/47/3 64/44/3
f 55/32/3 50/35/3 52/30/3
f 34/51/14 6/52/15 8/53/15
f 33/54/16 38/55/17 34/51/14
f 33/54/16 40/7/9 39/56/16
f 31/57/18 1/8/19 3/58/19
f 30/59/20 35/9/21 31/57/18
f 29/12/6 36/60/22 30/59/20
f 5/61/3 38/55/3 37/11/3
f 37/11/3 39/56/3 36/60/3
f 39/56/3 35/9/3 36/60/3
f 47/62/10 45/63/10 48/64/10
f 47/62/2 41/65/2 42/66/2
f 46/67/1 43/68/1 45/63/1
f 76/1/1 74/69/1 73/2/1
f 70/4/2 72/70/2 71/5/2
f 40/7/3 2/14/3 1/8/3
f 7/10/4 5/61/4 37/11/5
f 32/13/8 4/71/8 2/14/8
f 57/15/10 58/38/10 59/16/10
f 14/18/11 11/72/11 20/19/11
f 21/21/12 24/41/12 12/22/12
f 18/24/11 17/73/11 27/25/11
f 25/27/13 28/50/13 15/28/12
f 52/30/2 56/74/2 51/31/2
f 57/15/2 60/17/2 23/33/2
f 50/35/1 53/75/1 49/36/1
f 58/38/1 13/76/1 10/39/1
f 20/19/1 11/72/1 21/21/1
f 22/40/2 12/22/2 24/41/2
f 27/43/1 17/77/1 25/27/1
f 64/44/2 68/78/2 61/45/2
f 63/47/1 66/79/1 62/48/1
f 26/26/2 15/28/2 28/50/2
f 67/46/3 66/79/3 63/47/3
f 55/32/3 53/75/3 50/35/3
f 34/51/14 38/55/17 6/52/15
f 33/54/16 39/56/16 38/55/17
f 33/54/16 32/13/7 40/7/9
f 31/57/18 35/9/21 1/8/19
f 30/59/20 36/60/22 35/9/21
f 29/12/6 37/11/5 36/60/22
f 5/61/3 6/52/3 38/55/3
f 37/11/3 38/55/3 39/56/3
f 39/56/3 40/7/3 35/9/3
f 47/62/10 46/67/10 45/63/10
f 47/62/2 48/64/2 41/65/2
f 46/67/1 44/80/1 43/68/1
